<svg width="32" height="32" viewBox="0 0 32 32" fill="none" xmlns="http://www.w3.org/2000/svg">
<path fill-rule="evenodd" clip-rule="evenodd" d="M16 29C23.1797 29 29 23.1797 29 16C29 8.8203 23.1797 3 16 3C8.8203 3 3 8.8203 3 16C3 23.1797 8.8203 29 16 29ZM16 32C24.8366 32 32 24.8366 32 16C32 7.16344 24.8366 0 16 0C7.16344 0 0 7.16344 0 16C0 24.8366 7.16344 32 16 32Z" fill="#EEA958"/>
<path d="M15.0707 8.81841C16.684 8.81841 17.9307 9.16308 18.8107 9.85241C19.6907 10.5271 20.1307 11.4511 20.1307 12.6244C20.1307 13.1231 20.0354 13.5704 19.8447 13.9664C19.654 14.3477 19.412 14.6704 19.1187 14.9344C18.8254 15.1984 18.51 15.4037 18.1727 15.5504C18.5834 15.6824 18.9574 15.8877 19.2947 16.1664C19.6467 16.4451 19.9254 16.8044 20.1307 17.2444C20.3507 17.6697 20.4607 18.1977 20.4607 18.8284C20.4607 19.6644 20.2334 20.3904 19.7787 21.0064C19.324 21.6077 18.6934 22.0697 17.8867 22.3924C17.0947 22.7004 16.1707 22.8544 15.1147 22.8544C14.1614 22.8544 13.3474 22.7591 12.6727 22.5684C12.0127 22.3924 11.5067 22.1431 11.1547 21.8204C10.8027 21.4831 10.6267 21.1164 10.6267 20.7204C10.6267 20.3684 10.7074 20.0604 10.8687 19.7964C11.0447 19.5324 11.2574 19.3344 11.5067 19.2024C11.8294 19.4224 12.24 19.6497 12.7387 19.8844C13.252 20.1191 13.912 20.2364 14.7187 20.2364C15.5107 20.2364 16.1194 20.0824 16.5447 19.7744C16.97 19.4664 17.1827 19.0557 17.1827 18.5424C17.1827 18.0437 17.0067 17.6551 16.6547 17.3764C16.3027 17.0977 15.7307 16.9584 14.9387 16.9584H12.9367C12.834 16.8117 12.746 16.6357 12.6727 16.4304C12.614 16.2104 12.5847 15.9611 12.5847 15.6824C12.5847 15.3891 12.614 15.1324 12.6727 14.9124C12.746 14.6924 12.834 14.5164 12.9367 14.3844H14.8947C15.5694 14.3844 16.0607 14.2597 16.3687 14.0104C16.6767 13.7611 16.8307 13.4017 16.8307 12.9324C16.8307 12.4777 16.64 12.1184 16.2587 11.8544C15.8774 11.5757 15.32 11.4364 14.5867 11.4364C13.9707 11.4364 13.4207 11.5171 12.9367 11.6784C12.4674 11.8397 12.0787 12.0304 11.7707 12.2504C11.5507 12.0891 11.36 11.8911 11.1987 11.6564C11.052 11.4217 10.9787 11.1504 10.9787 10.8424C10.9787 10.4024 11.1474 10.0357 11.4847 9.74241C11.822 9.44908 12.2987 9.22175 12.9147 9.06041C13.5454 8.89908 14.264 8.81841 15.0707 8.81841Z" fill="#EEA958"/>
</svg>
