<?xml version="1.0" encoding="UTF-8"?><svg id="Camada_1" xmlns="http://www.w3.org/2000/svg" viewBox="0 0 231.59 231.59"><defs><style>.cls-1{fill:#ffeac4;}.cls-2{fill:#edc58c;}.cls-3{fill:#995c17;}.cls-4{fill:#8a5315;}.cls-5{opacity:.15;}.cls-5,.cls-6,.cls-7{fill:#fff;}.cls-5,.cls-6,.cls-7,.cls-8{fill-rule:evenodd;}.cls-6{opacity:.2;}.cls-7{opacity:.35;}.cls-8{fill:#b57b35;}</style></defs><path class="cls-8" d="M113.16,.01c35.19,.52,64.41,23.19,86.17,50.18,21.56,26.73,35.54,59.32,29.09,92.75-6.75,34.98-29.1,66.99-62.61,81.04-32.11,13.46-67.69,2.32-98.7-13.4-29.58-14.99-55.25-37.4-63.64-68.88-8.71-32.63-.67-67.22,20.16-94.12C45.18,19.74,77.41-.52,113.16,.01Z"/><g><g><g><path class="cls-2" d="M89.1,160.58H6.48c-5.77,0-15.81-37.28,26.48-58.16,30.29-14.95,71.57,15.71,56.14,58.16Z"/><path class="cls-1" d="M89.25,160.58H10.36c-5.51,0-15.1-35.6,25.29-55.53,28.92-14.28,68.34,15,53.61,55.53Z"/><g><ellipse class="cls-2" cx="62.48" cy="117.19" rx="2.07" ry="1.18"/><ellipse class="cls-2" cx="75.31" cy="149.43" rx="2.07" ry="1.18"/><ellipse class="cls-2" cx="44.54" cy="110.49" rx="2.07" ry="1.18"/><ellipse class="cls-2" cx="40.16" cy="108.14" rx="2.07" ry="1.18"/><ellipse class="cls-2" cx="82.62" cy="129.58" rx="2.07" ry="1.18"/><ellipse class="cls-2" cx="76.11" cy="131.94" rx="2.07" ry="1.18"/><ellipse class="cls-2" cx="77.21" cy="127.23" rx="2.07" ry="1.18"/><ellipse class="cls-2" cx="80.62" cy="145.41" rx="2.07" ry="1.18"/><ellipse class="cls-2" cx="84.2" cy="149.43" rx="2.07" ry="1.18"/><ellipse class="cls-2" cx="54.76" cy="117.81" rx="2.07" ry="1.18"/><ellipse class="cls-2" cx="65.98" cy="120.17" rx="2.07" ry="1.18"/></g></g><g><path class="cls-2" d="M4.67,181.66H119.91c8.05,0,22.05-40.51-36.94-63.2-42.25-16.25-99.84,17.08-78.31,63.2Z"/><path class="cls-1" d="M7.54,181.66H120.09c7.86,0,21.54-39.57-36.07-61.72-41.27-15.87-97.5,16.68-76.48,61.72Z"/><ellipse class="cls-2" cx="73" cy="161.68" rx="2.03" ry="1.64"/><ellipse class="cls-2" cx="48.71" cy="133.66" rx="2.03" ry="1.64"/><ellipse class="cls-2" cx="54.91" cy="134.62" rx="2.03" ry="1.64"/><ellipse class="cls-2" cx="48.71" cy="139.36" rx="2.03" ry="1.64"/><ellipse class="cls-2" cx="113.59" cy="164.25" rx="2.03" ry="1.64"/><ellipse class="cls-2" cx="80.59" cy="137.9" rx="2.03" ry="1.64"/><ellipse class="cls-2" cx="84.91" cy="134.62" rx="2.03" ry="1.64"/><ellipse class="cls-2" cx="35.11" cy="167.53" rx="2.03" ry="1.64"/><ellipse class="cls-2" cx="41.52" cy="170.81" rx="2.03" ry="1.64"/><ellipse class="cls-2" cx="40.43" cy="164.25" rx="2.03" ry="1.64"/><ellipse class="cls-2" cx="108.36" cy="158.65" rx="2.03" ry="1.64"/><ellipse class="cls-2" cx="104.84" cy="164.25" rx="2.03" ry="1.64"/><ellipse class="cls-2" cx="80.59" cy="162.54" rx="2.03" ry="1.64"/><ellipse class="cls-2" cx="69.55" cy="165.82" rx="2.03" ry="1.64"/></g><path class="cls-4" d="M220.44,195.21H11.16c-3.62,0-6.85-2.24-8.13-5.62l-3.03-8H231.59l-3.03,8c-1.28,3.38-4.52,5.62-8.13,5.62Z"/></g><g><g><path class="cls-2" d="M219.39,181.59h-32.37c-2.26,0-6.19-14.76,10.37-23.02,11.87-5.92,28.04,6.22,21.99,23.02Z"/><path class="cls-1" d="M219.45,181.59h-30.91c-2.16,0-5.91-14.09,9.91-21.98,11.33-5.65,26.77,5.94,21,21.98Z"/></g><ellipse class="cls-2" cx="193.02" cy="168.36" rx="2.36" ry="1.36"/><ellipse class="cls-2" cx="199.09" cy="163.71" rx="2.36" ry="1.36"/><ellipse class="cls-2" cx="203.17" cy="168.36" rx="2.36" ry="1.36"/><ellipse class="cls-2" cx="205.17" cy="179" rx="2.36" ry="1.36"/><ellipse class="cls-2" cx="211.24" cy="174.36" rx="2.36" ry="1.36"/><ellipse class="cls-2" cx="215.32" cy="179" rx="2.36" ry="1.36"/></g><g><g><path class="cls-2" d="M172.49,181.59h-23.57c-1.65,0-4.51-10.75,7.56-16.77,8.64-4.31,20.42,4.53,16.02,16.77Z"/><path class="cls-1" d="M172.53,181.59h-22.51c-1.57,0-4.31-10.26,7.21-16.01,8.25-4.12,19.5,4.33,15.29,16.01Z"/></g><ellipse class="cls-2" cx="153.29" cy="171.95" rx="1.72" ry=".99"/><ellipse class="cls-2" cx="157.7" cy="168.57" rx="1.72" ry=".99"/><ellipse class="cls-2" cx="160.68" cy="171.95" rx="1.72" ry=".99"/><ellipse class="cls-2" cx="162.13" cy="179.7" rx="1.72" ry=".99"/><ellipse class="cls-2" cx="166.55" cy="176.32" rx="1.72" ry=".99"/><ellipse class="cls-2" cx="169.53" cy="179.7" rx="1.72" ry=".99"/></g><g><g><path class="cls-2" d="M193.21,181.59h-30.25c-2.11,0-5.79-13.79,9.69-21.51,11.09-5.53,26.2,5.81,20.55,21.51Z"/><path class="cls-1" d="M193.27,181.59h-28.88c-2.02,0-5.53-13.17,9.26-20.54,10.59-5.28,25.02,5.55,19.62,20.54Z"/></g><ellipse class="cls-2" cx="168.57" cy="169.22" rx="2.2" ry="1.27"/><ellipse class="cls-2" cx="174.24" cy="164.89" rx="2.2" ry="1.27"/><ellipse class="cls-2" cx="178.06" cy="169.22" rx="2.2" ry="1.27"/><ellipse class="cls-2" cx="179.93" cy="179.17" rx="2.2" ry="1.27"/><ellipse class="cls-2" cx="185.59" cy="174.83" rx="2.2" ry="1.27"/><ellipse class="cls-2" cx="189.41" cy="179.17" rx="2.2" ry="1.27"/></g></g><path class="cls-5" d="M161.84,104.41c.35-.87-.79-1.55-1.39-.83-3.38,4.02-8.22,11.13-10.4,20.74-5.47,24.14,22.65,13.28,11.21,35.69-.19,.38,.26,.77,.6,.51,4.92-3.63,20.44-16.04,10.64-21.12-18.25-9.47-14.04-26.75-10.67-35Z"/><path class="cls-7" d="M194.39,152.05c-.07,1.21-1.7,1.53-2.23,.44-2.9-5.93-7.32-17.55-2.57-25.94,2.97-5.24,4.39-13.7,2.39-26.24-.18-1.14,1.19-1.84,1.99-1.02,4.4,4.48,12.38,14.03,8.07,20.78-5.64,8.85-7.22,24.47-7.65,31.97Z"/><path class="cls-6" d="M178.69,123.99c.33,.28,.85,.16,1-.25,.62-1.64,1.49-5.68-1.74-11.18-3.95-6.75-3.04-8.58-2.81-12.67,.04-.68-.88-.94-1.2-.33-1.29,2.49-3.1,6.96-2.83,12.01,.36,6.92,4.99,10.23,7.58,12.44Z"/><path class="cls-5" d="M97,118.92c-.49,.8,.53,1.65,1.24,1.04,3.97-3.44,9.87-9.7,13.53-18.85,9.21-22.97-20.28-16.68-5.45-37.01,.25-.35-.13-.8-.51-.6-5.43,2.81-22.71,12.62-13.84,19.18,16.53,12.22,9.65,28.62,5.02,36.24Z"/><path class="cls-7" d="M45.47,50.17c-.41-1.14,.96-2.07,1.88-1.28,5,4.31,13.64,13.25,12.58,22.83-.66,5.98,1.36,14.32,8.14,25.05,.61,.97-.37,2.16-1.43,1.72-5.81-2.38-16.9-8.02-15.61-15.92,1.7-10.36-3.01-25.34-5.56-32.4Z"/><path class="cls-6" d="M76.9,58.75c-.28-.33-.81-.29-1.03,.09-.87,1.52-2.36,5.37-.05,11.32,2.84,7.29,1.65,8.95,.78,12.96-.15,.67,.73,1.07,1.13,.52,1.67-2.26,4.15-6.38,4.69-11.41,.73-6.89-3.32-10.89-5.52-13.48Z"/><g><rect class="cls-3" x="159.42" y="192.79" width="32.94" height="2.43"/><rect class="cls-3" x="193.02" y="187.19" width="32.94" height="2.43"/><rect class="cls-3" x="147.38" y="184.76" width="32.94" height="2.43"/><rect class="cls-3" x="122.07" y="189.61" width="32.94" height="2.43"/></g><g><rect class="cls-3" x="47.88" y="192.79" width="32.94" height="2.43"/><rect class="cls-3" x="81.49" y="187.19" width="32.94" height="2.43"/><rect class="cls-3" x="35.85" y="184.76" width="32.94" height="2.43"/><rect class="cls-3" x="10.53" y="189.61" width="32.94" height="2.43"/></g></svg>