<?xml version="1.0" encoding="UTF-8"?><svg id="Camada_2" xmlns="http://www.w3.org/2000/svg" viewBox="0 0 139.53 160"><defs><style>.cls-1{fill:#f96163;}.cls-2{fill:#fa9e9f;}.cls-3{fill:#f7c800;}.cls-4{fill:#ffe05e;}.cls-5{fill:#fff;}.cls-6{fill:#fee7eb;}.cls-7{fill:#66191b;}.cls-8{fill:#993d40;}.cls-9{fill:#cc5252;}.cls-10{fill:#4d1719;}</style></defs><g id="Camada_1-2"><g><path class="cls-1" d="M137.22,67.46c0,8.38-12.51,14.22-15.53,21.51-3.13,7.56,1.47,20.5-4.23,26.19-5.69,5.69-18.64,1.09-26.19,4.23-7.29,3.02-13.12,15.53-21.51,15.53s-14.22-12.51-21.51-15.53c-7.56-3.13-20.5,1.47-26.19-4.23-5.69-5.69-1.09-18.64-4.23-26.19-3.02-7.29-15.53-13.12-15.53-21.51s12.51-14.22,15.53-21.51c3.13-7.56-1.47-20.5,4.23-26.19,5.69-5.69,18.64-1.09,26.19-4.23,7.29-3.02,13.12-15.53,21.51-15.53s14.22,12.51,21.51,15.53c7.56,3.13,20.5-1.47,26.19,4.23,5.69,5.69,1.09,18.64,4.23,26.19,3.02,7.29,15.53,13.12,15.53,21.51Z"/><path class="cls-2" d="M121.69,45.96c-3.13-7.55,1.47-20.51-4.23-26.2-5.69-5.69-18.65-1.1-26.2-4.23C83.97,12.51,78.13,0,69.77,0s-14.23,12.51-21.52,15.52c-7.55,3.13-20.48-1.47-26.17,4.23-5.69,5.69-1.1,18.65-4.23,26.2-3.04,7.3-15.55,13.13-15.55,21.5s12.51,14.23,15.55,21.52c3.13,7.55-1.47,20.48,4.23,26.17,5.69,5.69,18.62,1.1,26.17,4.23,7.3,3.04,13.13,15.55,21.52,15.55s14.2-12.51,21.5-15.55c7.55-3.13,20.51,1.47,26.2-4.23,5.69-5.69,1.1-18.62,4.23-26.17,3.01-7.3,15.52-13.13,15.52-21.52s-12.51-14.2-15.52-21.5Z"/><path class="cls-1" d="M69.77,132.11c-3.66,0-7.27-3.79-10.77-7.46-2.98-3.13-6.06-6.37-9.67-7.87-3.06-1.27-6.67-1.44-9.81-1.44-1,0-2.01,.02-3.02,.04-.97,.02-1.95,.04-2.91,.04-3.78,0-7.55-.28-9.53-2.25-2.4-2.4-2.31-7.28-2.22-12.44,.08-4.44,.17-9.04-1.4-12.82-1.51-3.62-4.75-6.7-7.87-9.68-3.67-3.49-7.46-7.11-7.46-10.77s3.79-7.25,7.45-10.73c3.13-2.98,6.37-6.06,7.88-9.68,1.57-3.79,1.48-8.39,1.4-12.83-.09-4.94-.19-10.05,2.22-12.46,1.98-1.98,5.75-2.25,9.53-2.25,.96,0,1.94,.02,2.91,.04,1.01,.02,2.02,.04,3.02,.04,3.13,0,6.74-.17,9.8-1.44,3.62-1.49,6.7-4.73,9.69-7.86,3.49-3.66,7.1-7.45,10.75-7.45s7.24,3.78,10.72,7.43c2.99,3.14,6.07,6.38,9.7,7.87,3.05,1.27,6.67,1.44,9.8,1.44,1,0,2.01-.02,3.02-.04,.98-.02,1.95-.04,2.92-.04,3.78,0,7.56,.27,9.54,2.25,2.4,2.4,2.31,7.52,2.22,12.46-.08,4.45-.17,9.05,1.4,12.83,1.5,3.62,4.74,6.71,7.87,9.7,3.66,3.48,7.44,7.08,7.44,10.72s-3.79,7.27-7.45,10.76c-3.13,2.99-6.37,6.07-7.87,9.69-1.57,3.78-1.48,8.37-1.4,12.81,.1,5.16,.19,10.04-2.22,12.45-1.98,1.98-5.76,2.25-9.54,2.25h0c-.96,0-1.94-.02-2.91-.04-1.01-.02-2.02-.04-3.02-.04-3.14,0-6.75,.17-9.81,1.44-3.62,1.51-6.7,4.75-9.68,7.88-3.49,3.66-7.09,7.45-10.73,7.45Z"/><path class="cls-2" d="M69.76,123.29c-1.32-.99-3.33-3.1-4.62-4.46-3.43-3.6-7.3-7.67-12.56-9.86-4.44-1.84-9.09-2.09-13.06-2.09-.92,0-1.85,.02-2.78,.03h-.37c-.95,.02-1.87,.04-2.77,.04-1.54,0-2.55-.06-3.21-.13-.17-1.58-.12-4.12-.09-5.95,.1-5.06,.2-10.8-2.04-16.21-2.2-5.27-6.26-9.14-9.84-12.55-1.38-1.31-3.49-3.32-4.49-4.65,.99-1.32,3.1-3.32,4.46-4.62,3.59-3.41,7.66-7.29,9.86-12.55,2.25-5.43,2.15-11.18,2.05-16.24-.03-1.73-.08-4.34,.1-5.97,.67-.07,1.68-.13,3.2-.13,.79,0,1.59,.01,2.39,.03h.38c1.05,.03,2.11,.05,3.16,.05,3.96,0,8.61-.25,13.03-2.08,5.26-2.17,9.15-6.25,12.57-9.84,1.3-1.36,3.31-3.47,4.63-4.46,1.32,.99,3.31,3.08,4.6,4.43,3.43,3.61,7.31,7.68,12.6,9.87,4.41,1.83,9.06,2.08,13.03,2.08,1.05,0,2.12-.02,3.18-.04h.35c.8-.02,1.61-.03,2.4-.03,1.53,0,2.54,.06,3.21,.13,.18,1.63,.13,4.25,.1,5.97-.1,5.07-.2,10.81,2.04,16.22,2.18,5.27,6.25,9.15,9.84,12.57,1.37,1.3,3.47,3.3,4.46,4.62-.99,1.32-3.09,3.33-4.44,4.62-3.61,3.43-7.68,7.32-9.86,12.6-2.23,5.4-2.13,11.13-2.03,16.19,.03,1.83,.08,4.37-.09,5.95-.67,.08-1.68,.14-3.22,.14-.91,0-1.83-.02-2.74-.04h-.41c-.93-.02-1.86-.04-2.78-.04-3.97,0-8.62,.25-13.04,2.08-5.29,2.2-9.16,6.27-12.58,9.87-1.29,1.36-3.29,3.46-4.62,4.46Z"/><path class="cls-1" d="M69.22,114.95c-3.62-3.8-8.12-8.52-14.47-11.17-5.36-2.22-10.71-2.52-15.23-2.52-.82,0-3.24,.04-3.24,.04-.12,0-.24,0-.36,0,0-.1,0-.2,0-.3,.1-5.35,.23-11.98-2.47-18.49-2.66-6.38-7.37-10.87-11.16-14.48-.17-.16-.37-.35-.6-.57,.2-.19,.39-.37,.54-.51,3.82-3.63,8.54-8.12,11.2-14.49,2.71-6.54,2.58-13.18,2.48-18.52,0-.11,0-.22,0-.33h.31c1.11,.03,2.2,.05,3.29,.05,4.51,0,9.85-.3,15.19-2.51,6.36-2.62,10.86-7.35,14.48-11.14,.15-.16,.34-.36,.56-.59,.19,.2,.36,.38,.51,.53,3.64,3.82,8.15,8.56,14.54,11.2,5.32,2.21,10.66,2.5,15.18,2.5,1.09,0,2.2-.02,3.3-.04h.32c0,.08,0,.17,0,.25-.1,5.41-.23,12.06,2.47,18.56,2.63,6.36,7.35,10.86,11.14,14.49,.17,.16,.37,.35,.59,.56-.21,.2-.4,.38-.56,.53-3.8,3.62-8.54,8.13-11.18,14.52-2.69,6.49-2.56,13.12-2.46,18.45,0,.1,0,.21,0,.32h-.73c-.98-.03-1.94-.04-2.89-.04-4.52,0-9.86,.3-15.2,2.51-6.39,2.66-10.89,7.39-14.5,11.18-.16,.17-.34,.36-.54,.57-.2-.21-.39-.4-.54-.57Z"/><circle class="cls-9" cx="69.76" cy="67.46" r="34.69"/><circle class="cls-6" cx="69.76" cy="67.46" r="33.05"/><g><path class="cls-7" d="M59.54,129.25l-29.78,29.78c-1.98,1.98-5.37,.75-5.62-2.04l-1.74-19.4-19.4-1.74c-2.79-.25-4.02-3.64-2.04-5.62l18.9-18.9c.45,1.47,1.16,2.79,2.2,3.83,5.69,5.69,18.62,1.1,26.17,4.23,3.97,1.63,7.52,6.11,11.3,9.86Z"/><path class="cls-7" d="M59.54,129.25l-29.78,29.78c-1.98,1.98-5.37,.75-5.62-2.04l-1.74-19.4-19.4-1.74c-2.79-.25-4.02-3.64-2.04-5.62l18.9-18.9c.45,1.47,1.16,2.79,2.2,3.83,5.69,5.69,18.62,1.1,26.17,4.23,3.97,1.63,7.52,6.11,11.3,9.86Z"/><path class="cls-8" d="M33.51,155.27l-3.75,3.75c-1.97,2-5.35,.76-5.61-2.03l-1.75-19.41-19.41-1.72c-2.76-.25-4-3.63-2.03-5.63l3.75-3.72c-1.97,1.97-.76,5.35,2.03,5.61l19.41,1.75,1.72,19.38c.25,2.79,3.66,4.03,5.63,2.03Z"/><path class="cls-7" d="M136.52,135.85l-19.42,1.74-1.74,19.4c-.25,2.79-3.64,4.02-5.62,2.04l-29.78-29.78c3.78-3.75,7.33-8.23,11.3-9.86,7.55-3.13,20.51,1.46,26.2-4.23,1.04-1.04,1.75-2.34,2.2-3.8l18.89,18.87c1.98,1.98,.75,5.37-2.04,5.62Z"/><path class="cls-10" d="M120.45,112.14c-.2,3.44-.87,6.54-2.99,8.65-5.69,5.69-18.65,1.1-26.2,4.23-2.99,1.24-5.75,4.09-8.51,7.02l-2.79-2.79c3.78-3.75,7.33-8.23,11.3-9.86,7.55-3.13,20.51,1.47,26.2-4.23,1.04-1.04,1.75-2.34,2.2-3.8l.79,.79Z"/><path class="cls-10" d="M59.54,129.24l-2.79,2.79c-2.76-2.93-5.49-5.78-8.51-7.02-7.55-3.13-20.48,1.47-26.17-4.23-2.11-2.11-2.79-5.21-2.99-8.68l.79-.79c.45,1.47,1.16,2.79,2.2,3.83,5.69,5.69,18.62,1.1,26.17,4.23,3.97,1.63,7.52,6.11,11.3,9.86Z"/><path class="cls-8" d="M136.51,135.86l-19.41,1.72-1.75,19.41c-.25,2.79-3.63,4.03-5.61,2.03l-3.27-3.27c1.97,1.8,5.24,.56,5.49-2.17l1.72-19.38,19.44-1.75c2.79-.25,4-3.61,2.06-5.61l3.38,3.38c1.97,1.97,.73,5.38-2.06,5.63Z"/></g><g><g><g><g><circle class="cls-4" cx="68.71" cy="65.32" r="1.78"/><path class="cls-3" d="M68.71,67.12c-.73,.08-1.5-.37-1.82-1.05-.33-.71-.25-1.68,.36-2.21,.4-.36,.98-.51,1.46-.35v.06c-.42,.15-.78,.37-1.05,.7-.25,.3-.47,.65-.49,1.05-.05,.62,.33,1.27,.9,1.56,.2,.1,.42,.17,.65,.19v.06h0Z"/></g><g><circle class="cls-4" cx="70.45" cy="64.2" r="1.78"/><path class="cls-3" d="M68.65,64c0-.73,.53-1.45,1.24-1.7,.74-.25,1.69-.07,2.16,.59,.31,.44,.4,1.03,.19,1.49h-.06c-.1-.44-.28-.82-.58-1.13-.28-.28-.59-.53-.99-.6-.61-.11-1.3,.19-1.65,.73-.12,.19-.21,.4-.26,.62h-.06Z"/></g><g><circle class="cls-4" cx="71.05" cy="66.08" r="1.78"/><path class="cls-3" d="M69.25,65.89c0-.73,.53-1.45,1.24-1.7,.74-.25,1.69-.07,2.16,.59,.31,.44,.4,1.03,.19,1.49h-.06c-.1-.44-.28-.82-.58-1.13-.28-.28-.59-.53-.99-.6-.61-.11-1.3,.19-1.65,.73-.12,.19-.21,.4-.26,.62h-.06Z"/></g><g><circle class="cls-4" cx="69.92" cy="65.32" r="1.15"/><path class="cls-3" d="M69.92,66.48c-.51,.22-1.13-.11-1.35-.6-.1-.21-.14-.47-.12-.7,.06-.7,.81-1.3,1.47-1.02,0,0,0,.04,0,.04-.3,0-.58,.13-.79,.34-.43,.42-.43,1.16,0,1.58,.21,.21,.49,.33,.79,.34v.04h0Z"/></g></g><g><g><circle class="cls-4" cx="73.08" cy="66.37" r="1.78"/><path class="cls-3" d="M73.08,68.18c-.73,.08-1.5-.37-1.82-1.05-.33-.71-.25-1.68,.36-2.21,.4-.36,.98-.51,1.46-.35v.06c-.42,.15-.78,.37-1.05,.7-.25,.3-.47,.65-.49,1.05-.05,.62,.33,1.27,.9,1.56,.2,.1,.42,.17,.65,.19v.06h0Z"/></g><g><circle class="cls-4" cx="74.81" cy="65.25" r="1.78"/><path class="cls-3" d="M73.02,65.06c0-.73,.53-1.45,1.24-1.7,.74-.25,1.69-.07,2.16,.59,.31,.44,.4,1.03,.19,1.49h-.06c-.1-.44-.28-.82-.58-1.13-.28-.28-.59-.53-.99-.6-.61-.11-1.3,.19-1.65,.73-.12,.19-.21,.4-.26,.62h-.06Z"/></g><g><circle class="cls-4" cx="75.41" cy="67.14" r="1.78"/><path class="cls-3" d="M73.62,66.94c0-.73,.53-1.45,1.24-1.7,.74-.25,1.69-.07,2.16,.59,.31,.44,.4,1.03,.19,1.49h-.06c-.1-.44-.28-.82-.58-1.13-.28-.28-.59-.53-.99-.6-.61-.11-1.3,.19-1.65,.73-.12,.19-.21,.4-.26,.62h-.06Z"/></g><g><circle class="cls-4" cx="74.29" cy="66.37" r="1.15"/><path class="cls-3" d="M74.29,67.54c-.51,.22-1.13-.11-1.35-.6-.1-.21-.14-.47-.12-.7,.06-.7,.81-1.3,1.47-1.02,0,0,0,.04,0,.04-.3,0-.58,.13-.79,.34-.43,.42-.43,1.16,0,1.58,.21,.21,.49,.33,.79,.34v.04h0Z"/></g></g><g><g><circle class="cls-4" cx="81.47" cy="66.37" r="1.78"/><path class="cls-3" d="M81.47,68.18c-.73,.08-1.5-.37-1.82-1.05-.33-.71-.25-1.68,.36-2.21,.4-.36,.98-.51,1.46-.35v.06c-.42,.15-.78,.37-1.05,.7-.25,.3-.47,.65-.49,1.05-.05,.62,.33,1.27,.9,1.56,.2,.1,.42,.17,.65,.19v.06h0Z"/></g><g><circle class="cls-4" cx="83.2" cy="65.25" r="1.78"/><path class="cls-3" d="M81.41,65.06c0-.73,.53-1.45,1.24-1.7,.74-.25,1.69-.07,2.16,.59,.31,.44,.4,1.03,.19,1.49h-.06c-.1-.44-.28-.82-.58-1.13-.28-.28-.59-.53-.99-.6-.61-.11-1.3,.19-1.65,.73-.12,.19-.21,.4-.26,.62h-.06Z"/></g><g><circle class="cls-4" cx="83.8" cy="67.14" r="1.78"/><path class="cls-3" d="M82.01,66.94c0-.73,.53-1.45,1.24-1.7,.74-.25,1.69-.07,2.16,.59,.31,.44,.4,1.03,.19,1.49h-.06c-.1-.44-.28-.82-.58-1.13-.28-.28-.59-.53-.99-.6-.61-.11-1.3,.19-1.65,.73-.12,.19-.21,.4-.26,.62h-.06Z"/></g><g><circle class="cls-4" cx="82.68" cy="66.37" r="1.15"/><path class="cls-3" d="M82.68,67.54c-.51,.22-1.13-.11-1.35-.6-.1-.21-.14-.47-.12-.7,.06-.7,.81-1.3,1.47-1.02,0,0,0,.04,0,.04-.3,0-.58,.13-.79,.34-.43,.42-.43,1.16,0,1.58,.21,.21,.49,.33,.79,.34v.04h0Z"/></g></g><g><g><circle class="cls-4" cx="73.69" cy="63.15" r="1.78"/><path class="cls-3" d="M73.69,64.95c-.73,.08-1.5-.37-1.82-1.05-.33-.71-.25-1.68,.36-2.21,.4-.36,.98-.51,1.46-.35v.06c-.42,.15-.78,.37-1.05,.7-.25,.3-.47,.65-.49,1.05-.05,.62,.33,1.27,.9,1.56,.2,.1,.42,.17,.65,.19v.06h0Z"/></g><g><circle class="cls-4" cx="75.43" cy="62.02" r="1.78"/><path class="cls-3" d="M73.63,61.83c0-.73,.53-1.45,1.24-1.7,.74-.25,1.69-.07,2.16,.59,.31,.44,.4,1.03,.19,1.49h-.06c-.1-.44-.28-.82-.58-1.13-.28-.28-.59-.53-.99-.6-.61-.11-1.3,.19-1.65,.73-.12,.19-.21,.4-.26,.62h-.06Z"/></g><g><circle class="cls-4" cx="76.03" cy="63.91" r="1.78"/><path class="cls-3" d="M74.24,63.72c0-.73,.53-1.45,1.24-1.7,.74-.25,1.69-.07,2.16,.59,.31,.44,.4,1.03,.19,1.49h-.06c-.1-.44-.28-.82-.58-1.13-.28-.28-.59-.53-.99-.6-.61-.11-1.3,.19-1.65,.73-.12,.19-.21,.4-.26,.62h-.06Z"/></g><g><circle class="cls-4" cx="74.91" cy="63.15" r="1.15"/><path class="cls-3" d="M74.91,64.31c-.51,.22-1.13-.11-1.35-.6-.1-.21-.14-.47-.12-.7,.06-.7,.81-1.3,1.47-1.02,0,0,0,.04,0,.04-.3,0-.58,.13-.79,.34-.43,.42-.43,1.16,0,1.58,.21,.21,.49,.33,.79,.34v.04h0Z"/></g></g><g><g><circle class="cls-4" cx="80.81" cy="64.88" r="1.78"/><path class="cls-3" d="M80.81,66.69c.73,.08,1.5-.37,1.82-1.05,.33-.71,.25-1.68-.36-2.21-.4-.36-.98-.51-1.46-.35v.06c.42,.15,.78,.37,1.05,.7,.25,.3,.47,.65,.49,1.05,.05,.62-.33,1.27-.9,1.56-.2,.1-.42,.17-.65,.19v.06h0Z"/></g><g><circle class="cls-4" cx="79.07" cy="63.76" r="1.78"/><path class="cls-3" d="M80.87,63.57c0-.73-.53-1.45-1.24-1.7-.74-.25-1.69-.07-2.16,.59-.31,.44-.4,1.03-.19,1.49h.06c.1-.44,.28-.82,.58-1.13,.28-.28,.59-.53,.99-.6,.61-.11,1.3,.19,1.65,.73,.12,.19,.21,.4,.26,.62h.06Z"/></g><g><circle class="cls-4" cx="78.47" cy="65.65" r="1.78"/><path class="cls-3" d="M80.27,65.45c0-.73-.53-1.45-1.24-1.7-.74-.25-1.69-.07-2.16,.59-.31,.44-.4,1.03-.19,1.49h.06c.1-.44,.28-.82,.58-1.13,.28-.28,.59-.53,.99-.6,.61-.11,1.3,.19,1.65,.73,.12,.19,.21,.4,.26,.62h.06Z"/></g><g><circle class="cls-4" cx="79.59" cy="64.88" r="1.15"/><path class="cls-3" d="M79.59,66.05c.51,.22,1.13-.11,1.35-.6,.1-.21,.14-.47,.12-.7-.06-.7-.81-1.3-1.47-1.02v.04c.3,0,.58,.13,.79,.34,.43,.42,.43,1.16,0,1.58-.21,.21-.49,.33-.79,.34v.04h0Z"/></g></g></g><g><g><g><circle class="cls-4" cx="53.88" cy="62.22" r="1.78"/><path class="cls-3" d="M53.88,64.02c-.73,.08-1.5-.37-1.82-1.05-.33-.71-.25-1.68,.36-2.21,.4-.36,.98-.51,1.46-.35v.06c-.42,.15-.78,.37-1.05,.7-.25,.3-.47,.65-.49,1.05-.05,.62,.33,1.27,.9,1.56,.2,.1,.42,.17,.65,.19v.06h0Z"/></g><g><circle class="cls-4" cx="55.62" cy="61.1" r="1.78"/><path class="cls-3" d="M53.82,60.9c0-.73,.53-1.45,1.24-1.7,.74-.25,1.69-.07,2.16,.59,.31,.44,.4,1.03,.19,1.49h-.06c-.1-.44-.28-.82-.58-1.13-.28-.28-.59-.53-.99-.6-.61-.11-1.3,.19-1.65,.73-.12,.19-.21,.4-.26,.62h-.06Z"/></g><g><circle class="cls-4" cx="56.22" cy="62.98" r="1.78"/><path class="cls-3" d="M54.42,62.79c0-.73,.53-1.45,1.24-1.7,.74-.25,1.69-.07,2.16,.59,.31,.44,.4,1.03,.19,1.49h-.06c-.1-.44-.28-.82-.58-1.13-.28-.28-.59-.53-.99-.6-.61-.11-1.3,.19-1.65,.73-.12,.19-.21,.4-.26,.62h-.06Z"/></g><g><circle class="cls-4" cx="55.09" cy="62.22" r="1.15"/><path class="cls-3" d="M55.09,63.39c-.51,.22-1.13-.11-1.35-.6-.1-.21-.14-.47-.12-.7,.06-.7,.81-1.3,1.47-1.02,0,0,0,.04,0,.04-.3,0-.58,.13-.79,.34-.43,.42-.43,1.16,0,1.58,.21,.21,.49,.33,.79,.34v.04h0Z"/></g></g><g><g><circle class="cls-4" cx="58.25" cy="63.27" r="1.78"/><path class="cls-3" d="M58.25,65.08c-.73,.08-1.5-.37-1.82-1.05-.33-.71-.25-1.68,.36-2.21,.4-.36,.98-.51,1.46-.35v.06c-.42,.15-.78,.37-1.05,.7-.25,.3-.47,.65-.49,1.05-.05,.62,.33,1.27,.9,1.56,.2,.1,.42,.17,.65,.19v.06h0Z"/></g><g><circle class="cls-4" cx="59.98" cy="62.15" r="1.78"/><path class="cls-3" d="M58.19,61.96c0-.73,.53-1.45,1.24-1.7,.74-.25,1.69-.07,2.16,.59,.31,.44,.4,1.03,.19,1.49h-.06c-.1-.44-.28-.82-.58-1.13-.28-.28-.59-.53-.99-.6-.61-.11-1.3,.19-1.65,.73-.12,.19-.21,.4-.26,.62h-.06Z"/></g><g><circle class="cls-4" cx="60.58" cy="64.04" r="1.78"/><path class="cls-3" d="M58.79,63.85c0-.73,.53-1.45,1.24-1.7,.74-.25,1.69-.07,2.16,.59,.31,.44,.4,1.03,.19,1.49h-.06c-.1-.44-.28-.82-.58-1.13-.28-.28-.59-.53-.99-.6-.61-.11-1.3,.19-1.65,.73-.12,.19-.21,.4-.26,.62h-.06Z"/></g><g><circle class="cls-4" cx="59.46" cy="63.27" r="1.15"/><path class="cls-3" d="M59.46,64.44c-.51,.22-1.13-.11-1.35-.6-.1-.21-.14-.47-.12-.7,.06-.7,.81-1.3,1.47-1.02,0,0,0,.04,0,.04-.3,0-.58,.13-.79,.34-.43,.42-.43,1.16,0,1.58,.21,.21,.49,.33,.79,.34v.04h0Z"/></g></g><g><g><circle class="cls-4" cx="66.63" cy="63.27" r="1.78"/><path class="cls-3" d="M66.63,65.08c-.73,.08-1.5-.37-1.82-1.05-.33-.71-.25-1.68,.36-2.21,.4-.36,.98-.51,1.46-.35v.06c-.42,.15-.78,.37-1.05,.7-.25,.3-.47,.65-.49,1.05-.05,.62,.33,1.27,.9,1.56,.2,.1,.42,.17,.65,.19v.06h0Z"/></g><g><circle class="cls-4" cx="68.37" cy="62.15" r="1.78"/><path class="cls-3" d="M66.58,61.96c0-.73,.53-1.45,1.24-1.7,.74-.25,1.69-.07,2.16,.59,.31,.44,.4,1.03,.19,1.49h-.06c-.1-.44-.28-.82-.58-1.13-.28-.28-.59-.53-.99-.6-.61-.11-1.3,.19-1.65,.73-.12,.19-.21,.4-.26,.62h-.06Z"/></g><g><circle class="cls-4" cx="68.97" cy="64.04" r="1.78"/><path class="cls-3" d="M67.18,63.85c0-.73,.53-1.45,1.24-1.7,.74-.25,1.69-.07,2.16,.59,.31,.44,.4,1.03,.19,1.49h-.06c-.1-.44-.28-.82-.58-1.13-.28-.28-.59-.53-.99-.6-.61-.11-1.3,.19-1.65,.73-.12,.19-.21,.4-.26,.62h-.06Z"/></g><g><circle class="cls-4" cx="67.85" cy="63.27" r="1.15"/><path class="cls-3" d="M67.85,64.44c-.51,.22-1.13-.11-1.35-.6-.1-.21-.14-.47-.12-.7,.06-.7,.81-1.3,1.47-1.02,0,0,0,.04,0,.04-.3,0-.58,.13-.79,.34-.43,.42-.43,1.16,0,1.58,.21,.21,.49,.33,.79,.34v.04h0Z"/></g></g><g><g><circle class="cls-4" cx="58.86" cy="60.05" r="1.78"/><path class="cls-3" d="M58.86,61.85c-.73,.08-1.5-.37-1.82-1.05-.33-.71-.25-1.68,.36-2.21,.4-.36,.98-.51,1.46-.35v.06c-.42,.15-.78,.37-1.05,.7-.25,.3-.47,.65-.49,1.05-.05,.62,.33,1.27,.9,1.56,.2,.1,.42,.17,.65,.19v.06h0Z"/></g><g><circle class="cls-4" cx="60.6" cy="58.92" r="1.78"/><path class="cls-3" d="M58.8,58.73c0-.73,.53-1.45,1.24-1.7,.74-.25,1.69-.07,2.16,.59,.31,.44,.4,1.03,.19,1.49h-.06c-.1-.44-.28-.82-.58-1.13-.28-.28-.59-.53-.99-.6-.61-.11-1.3,.19-1.65,.73-.12,.19-.21,.4-.26,.62h-.06Z"/></g><g><circle class="cls-4" cx="61.2" cy="60.81" r="1.78"/><path class="cls-3" d="M59.4,60.62c0-.73,.53-1.45,1.24-1.7,.74-.25,1.69-.07,2.16,.59,.31,.44,.4,1.03,.19,1.49h-.06c-.1-.44-.28-.82-.58-1.13-.28-.28-.59-.53-.99-.6-.61-.11-1.3,.19-1.65,.73-.12,.19-.21,.4-.26,.62h-.06Z"/></g><g><circle class="cls-4" cx="60.08" cy="60.05" r="1.15"/><path class="cls-3" d="M60.08,61.21c-.51,.22-1.13-.11-1.35-.6-.1-.21-.14-.47-.12-.7,.06-.7,.81-1.3,1.47-1.02,0,0,0,.04,0,.04-.3,0-.58,.13-.79,.34-.43,.42-.43,1.16,0,1.58,.21,.21,.49,.33,.79,.34v.04h0Z"/></g></g><g><g><circle class="cls-4" cx="65.98" cy="61.78" r="1.78"/><path class="cls-3" d="M65.98,63.59c.73,.08,1.5-.37,1.82-1.05,.33-.71,.25-1.68-.36-2.21-.4-.36-.98-.51-1.46-.35v.06c.42,.15,.78,.37,1.05,.7,.25,.3,.47,.65,.49,1.05,.05,.62-.33,1.27-.9,1.56-.2,.1-.42,.17-.65,.19v.06h0Z"/></g><g><circle class="cls-4" cx="64.24" cy="60.66" r="1.78"/><path class="cls-3" d="M66.04,60.47c0-.73-.53-1.45-1.24-1.7-.74-.25-1.69-.07-2.16,.59-.31,.44-.4,1.03-.19,1.49h.06c.1-.44,.28-.82,.58-1.13,.28-.28,.59-.53,.99-.6,.61-.11,1.3,.19,1.65,.73,.12,.19,.21,.4,.26,.62h.06Z"/></g><g><circle class="cls-4" cx="63.64" cy="62.55" r="1.78"/><path class="cls-3" d="M65.43,62.36c0-.73-.53-1.45-1.24-1.7-.74-.25-1.69-.07-2.16,.59-.31,.44-.4,1.03-.19,1.49h.06c.1-.44,.28-.82,.58-1.13,.28-.28,.59-.53,.99-.6,.61-.11,1.3,.19,1.65,.73,.12,.19,.21,.4,.26,.62h.06Z"/></g><g><circle class="cls-4" cx="64.76" cy="61.78" r="1.15"/><path class="cls-3" d="M64.76,62.95c.51,.22,1.13-.11,1.35-.6,.1-.21,.14-.47,.12-.7-.06-.7-.81-1.3-1.47-1.02,0,0,0,.04,0,.04,.3,0,.58,.13,.79,.34,.43,.42,.43,1.16,0,1.58-.21,.21-.49,.33-.79,.34v.04h0Z"/></g></g></g><g><g><g><circle class="cls-4" cx="50.31" cy="65.07" r="1.78"/><path class="cls-3" d="M50.31,66.88c-.73,.08-1.5-.37-1.82-1.05-.33-.71-.25-1.68,.36-2.21,.4-.36,.98-.51,1.46-.35v.06c-.42,.15-.78,.37-1.05,.7-.25,.3-.47,.65-.49,1.05-.05,.62,.33,1.27,.9,1.56,.2,.1,.42,.17,.65,.19v.06h0Z"/></g><g><circle class="cls-4" cx="52.05" cy="63.95" r="1.78"/><path class="cls-3" d="M50.25,63.76c0-.73,.53-1.45,1.24-1.7,.74-.25,1.69-.07,2.16,.59,.31,.44,.4,1.03,.19,1.49h-.06c-.1-.44-.28-.82-.58-1.13-.28-.28-.59-.53-.99-.6-.61-.11-1.3,.19-1.65,.73-.12,.19-.21,.4-.26,.62h-.06Z"/></g><g><circle class="cls-4" cx="52.65" cy="65.84" r="1.78"/><path class="cls-3" d="M50.85,65.65c0-.73,.53-1.45,1.24-1.7,.74-.25,1.69-.07,2.16,.59,.31,.44,.4,1.03,.19,1.49h-.06c-.1-.44-.28-.82-.58-1.13-.28-.28-.59-.53-.99-.6-.61-.11-1.3,.19-1.65,.73-.12,.19-.21,.4-.26,.62h-.06Z"/></g><g><circle class="cls-4" cx="51.53" cy="65.07" r="1.15"/><path class="cls-3" d="M51.53,66.24c-.51,.22-1.13-.11-1.35-.6-.1-.21-.14-.47-.12-.7,.06-.7,.81-1.3,1.47-1.02,0,0,0,.04,0,.04-.3,0-.58,.13-.79,.34-.43,.42-.43,1.16,0,1.58,.21,.21,.49,.33,.79,.34v.04h0Z"/></g></g><g><g><circle class="cls-4" cx="54.68" cy="66.13" r="1.78"/><path class="cls-3" d="M54.68,67.93c-.73,.08-1.5-.37-1.82-1.05-.33-.71-.25-1.68,.36-2.21,.4-.36,.98-.51,1.46-.35v.06c-.42,.15-.78,.37-1.05,.7-.25,.3-.47,.65-.49,1.05-.05,.62,.33,1.27,.9,1.56,.2,.1,.42,.17,.65,.19v.06h0Z"/></g><g><circle class="cls-4" cx="56.42" cy="65.01" r="1.78"/><path class="cls-3" d="M54.62,64.81c0-.73,.53-1.45,1.24-1.7,.74-.25,1.69-.07,2.16,.59,.31,.44,.4,1.03,.19,1.49h-.06c-.1-.44-.28-.82-.58-1.13-.28-.28-.59-.53-.99-.6-.61-.11-1.3,.19-1.65,.73-.12,.19-.21,.4-.26,.62h-.06Z"/></g><g><circle class="cls-4" cx="57.02" cy="66.89" r="1.78"/><path class="cls-3" d="M55.22,66.7c0-.73,.53-1.45,1.24-1.7,.74-.25,1.69-.07,2.16,.59,.31,.44,.4,1.03,.19,1.49h-.06c-.1-.44-.28-.82-.58-1.13-.28-.28-.59-.53-.99-.6-.61-.11-1.3,.19-1.65,.73-.12,.19-.21,.4-.26,.62h-.06Z"/></g><g><circle class="cls-4" cx="55.89" cy="66.13" r="1.15"/><path class="cls-3" d="M55.89,67.29c-.51,.22-1.13-.11-1.35-.6-.1-.21-.14-.47-.12-.7,.06-.7,.81-1.3,1.47-1.02v.04c-.3,0-.58,.13-.79,.34-.43,.42-.43,1.16,0,1.58,.21,.21,.49,.33,.79,.34v.04h0Z"/></g></g><g><g><circle class="cls-4" cx="63.07" cy="66.13" r="1.78"/><path class="cls-3" d="M63.07,67.93c-.73,.08-1.5-.37-1.82-1.05-.33-.71-.25-1.68,.36-2.21,.4-.36,.98-.51,1.46-.35v.06c-.42,.15-.78,.37-1.05,.7-.25,.3-.47,.65-.49,1.05-.05,.62,.33,1.27,.9,1.56,.2,.1,.42,.17,.65,.19v.06h0Z"/></g><g><circle class="cls-4" cx="64.81" cy="65.01" r="1.78"/><path class="cls-3" d="M63.01,64.81c0-.73,.53-1.45,1.24-1.7,.74-.25,1.69-.07,2.16,.59,.31,.44,.4,1.03,.19,1.49h-.06c-.1-.44-.28-.82-.58-1.13-.28-.28-.59-.53-.99-.6-.61-.11-1.3,.19-1.65,.73-.12,.19-.21,.4-.26,.62h-.06Z"/></g><g><circle class="cls-4" cx="65.41" cy="66.89" r="1.78"/><path class="cls-3" d="M63.61,66.7c0-.73,.53-1.45,1.24-1.7,.74-.25,1.69-.07,2.16,.59,.31,.44,.4,1.03,.19,1.49h-.06c-.1-.44-.28-.82-.58-1.13-.28-.28-.59-.53-.99-.6-.61-.11-1.3,.19-1.65,.73-.12,.19-.21,.4-.26,.62h-.06Z"/></g><g><circle class="cls-4" cx="64.28" cy="66.13" r="1.15"/><path class="cls-3" d="M64.28,67.29c-.51,.22-1.13-.11-1.35-.6-.1-.21-.14-.47-.12-.7,.06-.7,.81-1.3,1.47-1.02v.04c-.3,0-.58,.13-.79,.34-.43,.42-.43,1.16,0,1.58,.21,.21,.49,.33,.79,.34v.04h0Z"/></g></g><g><g><circle class="cls-4" cx="55.3" cy="62.9" r="1.78"/><path class="cls-3" d="M55.3,64.71c-.73,.08-1.5-.37-1.82-1.05-.33-.71-.25-1.68,.36-2.21,.4-.36,.98-.51,1.46-.35v.06c-.42,.15-.78,.37-1.05,.7-.25,.3-.47,.65-.49,1.05-.05,.62,.33,1.27,.9,1.56,.2,.1,.42,.17,.65,.19v.06h0Z"/></g><g><circle class="cls-4" cx="57.03" cy="61.78" r="1.78"/><path class="cls-3" d="M55.24,61.59c0-.73,.53-1.45,1.24-1.7,.74-.25,1.69-.07,2.16,.59,.31,.44,.4,1.03,.19,1.49h-.06c-.1-.44-.28-.82-.58-1.13-.28-.28-.59-.53-.99-.6-.61-.11-1.3,.19-1.65,.73-.12,.19-.21,.4-.26,.62h-.06Z"/></g><g><circle class="cls-4" cx="57.63" cy="63.67" r="1.78"/><path class="cls-3" d="M55.84,63.47c0-.73,.53-1.45,1.24-1.7,.74-.25,1.69-.07,2.16,.59,.31,.44,.4,1.03,.19,1.49h-.06c-.1-.44-.28-.82-.58-1.13-.28-.28-.59-.53-.99-.6-.61-.11-1.3,.19-1.65,.73-.12,.19-.21,.4-.26,.62h-.06Z"/></g><g><circle class="cls-4" cx="56.51" cy="62.9" r="1.15"/><path class="cls-3" d="M56.51,64.07c-.51,.22-1.13-.11-1.35-.6-.1-.21-.14-.47-.12-.7,.06-.7,.81-1.3,1.47-1.02,0,0,0,.04,0,.04-.3,0-.58,.13-.79,.34-.43,.42-.43,1.16,0,1.58,.21,.21,.49,.33,.79,.34v.04h0Z"/></g></g><g><g><circle class="cls-4" cx="62.41" cy="64.64" r="1.78"/><path class="cls-3" d="M62.41,66.44c.73,.08,1.5-.37,1.82-1.05,.33-.71,.25-1.68-.36-2.21-.4-.36-.98-.51-1.46-.35v.06c.42,.15,.78,.37,1.05,.7,.25,.3,.47,.65,.49,1.05,.05,.62-.33,1.27-.9,1.56-.2,.1-.42,.17-.65,.19v.06h0Z"/></g><g><circle class="cls-4" cx="60.67" cy="63.52" r="1.78"/><path class="cls-3" d="M62.47,63.32c0-.73-.53-1.45-1.24-1.7-.74-.25-1.69-.07-2.16,.59-.31,.44-.4,1.03-.19,1.49h.06c.1-.44,.28-.82,.58-1.13,.28-.28,.59-.53,.99-.6,.61-.11,1.3,.19,1.65,.73,.12,.19,.21,.4,.26,.62h.06Z"/></g><g><circle class="cls-4" cx="60.07" cy="65.4" r="1.78"/><path class="cls-3" d="M61.87,65.21c0-.73-.53-1.45-1.24-1.7-.74-.25-1.69-.07-2.16,.59-.31,.44-.4,1.03-.19,1.49h.06c.1-.44,.28-.82,.58-1.13,.28-.28,.59-.53,.99-.6,.61-.11,1.3,.19,1.65,.73,.12,.19,.21,.4,.26,.62h.06Z"/></g><g><circle class="cls-4" cx="61.2" cy="64.64" r="1.15"/><path class="cls-3" d="M61.2,65.8c.51,.22,1.13-.11,1.35-.6,.1-.21,.14-.47,.12-.7-.06-.7-.81-1.3-1.47-1.02v.04c.3,0,.58,.13,.79,.34,.43,.42,.43,1.16,0,1.58-.21,.21-.49,.33-.79,.34v.04h0Z"/></g></g></g><g><g><g><circle class="cls-4" cx="62.34" cy="56.02" r="1.78"/><path class="cls-3" d="M62.34,57.83c-.73,.08-1.5-.37-1.82-1.05-.33-.71-.25-1.68,.36-2.21,.4-.36,.98-.51,1.46-.35v.06c-.42,.15-.78,.37-1.05,.7-.25,.3-.47,.65-.49,1.05-.05,.62,.33,1.27,.9,1.56,.2,.1,.42,.17,.65,.19v.06h0Z"/></g><g><circle class="cls-4" cx="64.08" cy="54.9" r="1.78"/><path class="cls-3" d="M62.28,54.71c0-.73,.53-1.45,1.24-1.7,.74-.25,1.69-.07,2.16,.59,.31,.44,.4,1.03,.19,1.49h-.06c-.1-.44-.28-.82-.58-1.13-.28-.28-.59-.53-.99-.6-.61-.11-1.3,.19-1.65,.73-.12,.19-.21,.4-.26,.62h-.06Z"/></g><g><circle class="cls-4" cx="64.68" cy="56.79" r="1.78"/><path class="cls-3" d="M62.88,56.6c0-.73,.53-1.45,1.24-1.7,.74-.25,1.69-.07,2.16,.59,.31,.44,.4,1.03,.19,1.49h-.06c-.1-.44-.28-.82-.58-1.13-.28-.28-.59-.53-.99-.6-.61-.11-1.3,.19-1.65,.73-.12,.19-.21,.4-.26,.62h-.06Z"/></g><g><circle class="cls-4" cx="63.55" cy="56.02" r="1.15"/><path class="cls-3" d="M63.55,57.19c-.51,.22-1.13-.11-1.35-.6-.1-.21-.14-.47-.12-.7,.06-.7,.81-1.3,1.47-1.02,0,0,0,.04,0,.04-.3,0-.58,.13-.79,.34-.43,.42-.43,1.16,0,1.58,.21,.21,.49,.33,.79,.34v.04h0Z"/></g></g><g><g><circle class="cls-4" cx="66.71" cy="57.08" r="1.78"/><path class="cls-3" d="M66.71,58.88c-.73,.08-1.5-.37-1.82-1.05-.33-.71-.25-1.68,.36-2.21,.4-.36,.98-.51,1.46-.35v.06c-.42,.15-.78,.37-1.05,.7-.25,.3-.47,.65-.49,1.05-.05,.62,.33,1.27,.9,1.56,.2,.1,.42,.17,.65,.19v.06h0Z"/></g><g><circle class="cls-4" cx="68.44" cy="55.96" r="1.78"/><path class="cls-3" d="M66.65,55.76c0-.73,.53-1.45,1.24-1.7,.74-.25,1.69-.07,2.16,.59,.31,.44,.4,1.03,.19,1.49h-.06c-.1-.44-.28-.82-.58-1.13-.28-.28-.59-.53-.99-.6-.61-.11-1.3,.19-1.65,.73-.12,.19-.21,.4-.26,.62h-.06Z"/></g><g><circle class="cls-4" cx="69.05" cy="57.84" r="1.78"/><path class="cls-3" d="M67.25,57.65c0-.73,.53-1.45,1.24-1.7,.74-.25,1.69-.07,2.16,.59,.31,.44,.4,1.03,.19,1.49h-.06c-.1-.44-.28-.82-.58-1.13-.28-.28-.59-.53-.99-.6-.61-.11-1.3,.19-1.65,.73-.12,.19-.21,.4-.26,.62h-.06Z"/></g><g><circle class="cls-4" cx="67.92" cy="57.08" r="1.15"/><path class="cls-3" d="M67.92,58.24c-.51,.22-1.13-.11-1.35-.6-.1-.21-.14-.47-.12-.7,.06-.7,.81-1.3,1.47-1.02,0,0,0,.04,0,.04-.3,0-.58,.13-.79,.34-.43,.42-.43,1.16,0,1.58,.21,.21,.49,.33,.79,.34v.04h0Z"/></g></g><g><g><circle class="cls-4" cx="75.1" cy="57.08" r="1.78"/><path class="cls-3" d="M75.1,58.88c-.73,.08-1.5-.37-1.82-1.05-.33-.71-.25-1.68,.36-2.21,.4-.36,.98-.51,1.46-.35v.06c-.42,.15-.78,.37-1.05,.7-.25,.3-.47,.65-.49,1.05-.05,.62,.33,1.27,.9,1.56,.2,.1,.42,.17,.65,.19v.06h0Z"/></g><g><circle class="cls-4" cx="76.83" cy="55.96" r="1.78"/><path class="cls-3" d="M75.04,55.76c0-.73,.53-1.45,1.24-1.7,.74-.25,1.69-.07,2.16,.59,.31,.44,.4,1.03,.19,1.49h-.06c-.1-.44-.28-.82-.58-1.13-.28-.28-.59-.53-.99-.6-.61-.11-1.3,.19-1.65,.73-.12,.19-.21,.4-.26,.62h-.06Z"/></g><g><circle class="cls-4" cx="77.43" cy="57.84" r="1.78"/><path class="cls-3" d="M75.64,57.65c0-.73,.53-1.45,1.24-1.7,.74-.25,1.69-.07,2.16,.59,.31,.44,.4,1.03,.19,1.49h-.06c-.1-.44-.28-.82-.58-1.13-.28-.28-.59-.53-.99-.6-.61-.11-1.3,.19-1.65,.73-.12,.19-.21,.4-.26,.62h-.06Z"/></g><g><circle class="cls-4" cx="76.31" cy="57.08" r="1.15"/><path class="cls-3" d="M76.31,58.24c-.51,.22-1.13-.11-1.35-.6-.1-.21-.14-.47-.12-.7,.06-.7,.81-1.3,1.47-1.02,0,0,0,.04,0,.04-.3,0-.58,.13-.79,.34-.43,.42-.43,1.16,0,1.58,.21,.21,.49,.33,.79,.34v.04h0Z"/></g></g><g><g><circle class="cls-4" cx="67.32" cy="53.85" r="1.78"/><path class="cls-3" d="M67.32,55.66c-.73,.08-1.5-.37-1.82-1.05-.33-.71-.25-1.68,.36-2.21,.4-.36,.98-.51,1.46-.35v.06c-.42,.15-.78,.37-1.05,.7-.25,.3-.47,.65-.49,1.05-.05,.62,.33,1.27,.9,1.56,.2,.1,.42,.17,.65,.19v.06h0Z"/></g><g><circle class="cls-4" cx="69.06" cy="52.73" r="1.78"/><path class="cls-3" d="M67.27,52.54c0-.73,.53-1.45,1.24-1.7,.74-.25,1.69-.07,2.16,.59,.31,.44,.4,1.03,.19,1.49h-.06c-.1-.44-.28-.82-.58-1.13-.28-.28-.59-.53-.99-.6-.61-.11-1.3,.19-1.65,.73-.12,.19-.21,.4-.26,.62h-.06Z"/></g><g><circle class="cls-4" cx="69.66" cy="54.62" r="1.78"/><path class="cls-3" d="M67.87,54.42c0-.73,.53-1.45,1.24-1.7,.74-.25,1.69-.07,2.16,.59,.31,.44,.4,1.03,.19,1.49h-.06c-.1-.44-.28-.82-.58-1.13-.28-.28-.59-.53-.99-.6-.61-.11-1.3,.19-1.65,.73-.12,.19-.21,.4-.26,.62h-.06Z"/></g><g><circle class="cls-4" cx="68.54" cy="53.85" r="1.15"/><path class="cls-3" d="M68.54,55.02c-.51,.22-1.13-.11-1.35-.6-.1-.21-.14-.47-.12-.7,.06-.7,.81-1.3,1.47-1.02,0,0,0,.04,0,.04-.3,0-.58,.13-.79,.34-.43,.42-.43,1.16,0,1.58,.21,.21,.49,.33,.79,.34v.04h0Z"/></g></g><g><g><circle class="cls-4" cx="74.44" cy="55.59" r="1.78"/><path class="cls-3" d="M74.44,57.39c.73,.08,1.5-.37,1.82-1.05,.33-.71,.25-1.68-.36-2.21-.4-.36-.98-.51-1.46-.35v.06c.42,.15,.78,.37,1.05,.7,.25,.3,.47,.65,.49,1.05,.05,.62-.33,1.27-.9,1.56-.2,.1-.42,.17-.65,.19v.06h0Z"/></g><g><circle class="cls-4" cx="72.7" cy="54.47" r="1.78"/><path class="cls-3" d="M74.5,54.27c0-.73-.53-1.45-1.24-1.7-.74-.25-1.69-.07-2.16,.59-.31,.44-.4,1.03-.19,1.49h.06c.1-.44,.28-.82,.58-1.13,.28-.28,.59-.53,.99-.6,.61-.11,1.3,.19,1.65,.73,.12,.19,.21,.4,.26,.62h.06Z"/></g><g><circle class="cls-4" cx="72.1" cy="56.35" r="1.78"/><path class="cls-3" d="M73.9,56.16c0-.73-.53-1.45-1.24-1.7-.74-.25-1.69-.07-2.16,.59-.31,.44-.4,1.03-.19,1.49h.06c.1-.44,.28-.82,.58-1.13,.28-.28,.59-.53,.99-.6,.61-.11,1.3,.19,1.65,.73,.12,.19,.21,.4,.26,.62h.06Z"/></g><g><circle class="cls-4" cx="73.22" cy="55.59" r="1.15"/><path class="cls-3" d="M73.22,56.75c.51,.22,1.13-.11,1.35-.6,.1-.21,.14-.47,.12-.7-.06-.7-.81-1.3-1.47-1.02,0,0,0,.04,0,.04,.3,0,.58,.13,.79,.34,.43,.42,.43,1.16,0,1.58-.21,.21-.49,.33-.79,.34v.04h0Z"/></g></g></g><g><g><g><circle class="cls-4" cx="63.64" cy="59.22" r="1.78"/><path class="cls-3" d="M63.64,61.03c-.73,.08-1.5-.37-1.82-1.05-.33-.71-.25-1.68,.36-2.21,.4-.36,.98-.51,1.46-.35v.06c-.42,.15-.78,.37-1.05,.7-.25,.3-.47,.65-.49,1.05-.05,.62,.33,1.27,.9,1.56,.2,.1,.42,.17,.65,.19v.06h0Z"/></g><g><circle class="cls-4" cx="65.38" cy="58.1" r="1.78"/><path class="cls-3" d="M63.58,57.91c0-.73,.53-1.45,1.24-1.7,.74-.25,1.69-.07,2.16,.59,.31,.44,.4,1.03,.19,1.49h-.06c-.1-.44-.28-.82-.58-1.13-.28-.28-.59-.53-.99-.6-.61-.11-1.3,.19-1.65,.73-.12,.19-.21,.4-.26,.62h-.06Z"/></g><g><circle class="cls-4" cx="65.98" cy="59.99" r="1.78"/><path class="cls-3" d="M64.18,59.79c0-.73,.53-1.45,1.24-1.7,.74-.25,1.69-.07,2.16,.59,.31,.44,.4,1.03,.19,1.49h-.06c-.1-.44-.28-.82-.58-1.13-.28-.28-.59-.53-.99-.6-.61-.11-1.3,.19-1.65,.73-.12,.19-.21,.4-.26,.62h-.06Z"/></g><g><circle class="cls-4" cx="64.85" cy="59.22" r="1.15"/><path class="cls-3" d="M64.85,60.39c-.51,.22-1.13-.11-1.35-.6-.1-.21-.14-.47-.12-.7,.06-.7,.81-1.3,1.47-1.02v.04c-.3,0-.58,.13-.79,.34-.43,.42-.43,1.16,0,1.58,.21,.21,.49,.33,.79,.34v.04h0Z"/></g></g><g><g><circle class="cls-4" cx="68.01" cy="60.27" r="1.78"/><path class="cls-3" d="M68.01,62.08c-.73,.08-1.5-.37-1.82-1.05-.33-.71-.25-1.68,.36-2.21,.4-.36,.98-.51,1.46-.35v.06c-.42,.15-.78,.37-1.05,.7-.25,.3-.47,.65-.49,1.05-.05,.62,.33,1.27,.9,1.56,.2,.1,.42,.17,.65,.19v.06h0Z"/></g><g><circle class="cls-4" cx="69.74" cy="59.15" r="1.78"/><path class="cls-3" d="M67.95,58.96c0-.73,.53-1.45,1.24-1.7,.74-.25,1.69-.07,2.16,.59,.31,.44,.4,1.03,.19,1.49h-.06c-.1-.44-.28-.82-.58-1.13-.28-.28-.59-.53-.99-.6-.61-.11-1.3,.19-1.65,.73-.12,.19-.21,.4-.26,.62h-.06Z"/></g><g><circle class="cls-4" cx="70.35" cy="61.04" r="1.78"/><path class="cls-3" d="M68.55,60.85c0-.73,.53-1.45,1.24-1.7,.74-.25,1.69-.07,2.16,.59,.31,.44,.4,1.03,.19,1.49h-.06c-.1-.44-.28-.82-.58-1.13-.28-.28-.59-.53-.99-.6-.61-.11-1.3,.19-1.65,.73-.12,.19-.21,.4-.26,.62h-.06Z"/></g><g><circle class="cls-4" cx="69.22" cy="60.28" r="1.15"/><path class="cls-3" d="M69.22,61.44c-.51,.22-1.13-.11-1.35-.6-.1-.21-.14-.47-.12-.7,.06-.7,.81-1.3,1.47-1.02v.04c-.3,0-.58,.13-.79,.34-.43,.42-.43,1.16,0,1.58,.21,.21,.49,.33,.79,.34v.04h0Z"/></g></g><g><g><circle class="cls-4" cx="76.4" cy="60.27" r="1.78"/><path class="cls-3" d="M76.4,62.08c-.73,.08-1.5-.37-1.82-1.05-.33-.71-.25-1.68,.36-2.21,.4-.36,.98-.51,1.46-.35v.06c-.42,.15-.78,.37-1.05,.7-.25,.3-.47,.65-.49,1.05-.05,.62,.33,1.27,.9,1.56,.2,.1,.42,.17,.65,.19v.06h0Z"/></g><g><circle class="cls-4" cx="78.13" cy="59.15" r="1.78"/><path class="cls-3" d="M76.34,58.96c0-.73,.53-1.45,1.24-1.7,.74-.25,1.69-.07,2.16,.59,.31,.44,.4,1.03,.19,1.49h-.06c-.1-.44-.28-.82-.58-1.13-.28-.28-.59-.53-.99-.6-.61-.11-1.3,.19-1.65,.73-.12,.19-.21,.4-.26,.62h-.06Z"/></g><g><circle class="cls-4" cx="78.73" cy="61.04" r="1.78"/><path class="cls-3" d="M76.94,60.85c0-.73,.53-1.45,1.24-1.7,.74-.25,1.69-.07,2.16,.59,.31,.44,.4,1.03,.19,1.49h-.06c-.1-.44-.28-.82-.58-1.13-.28-.28-.59-.53-.99-.6-.61-.11-1.3,.19-1.65,.73-.12,.19-.21,.4-.26,.62h-.06Z"/></g><g><circle class="cls-4" cx="77.61" cy="60.28" r="1.15"/><path class="cls-3" d="M77.61,61.44c-.51,.22-1.13-.11-1.35-.6-.1-.21-.14-.47-.12-.7,.06-.7,.81-1.3,1.47-1.02v.04c-.3,0-.58,.13-.79,.34-.43,.42-.43,1.16,0,1.58,.21,.21,.49,.33,.79,.34v.04h0Z"/></g></g><g><g><circle class="cls-4" cx="68.62" cy="57.05" r="1.78"/><path class="cls-3" d="M68.62,58.85c-.73,.08-1.5-.37-1.82-1.05-.33-.71-.25-1.68,.36-2.21,.4-.36,.98-.51,1.46-.35v.06c-.42,.15-.78,.37-1.05,.7-.25,.3-.47,.65-.49,1.05-.05,.62,.33,1.27,.9,1.56,.2,.1,.42,.17,.65,.19v.06h0Z"/></g><g><circle class="cls-4" cx="70.36" cy="55.93" r="1.78"/><path class="cls-3" d="M68.57,55.73c0-.73,.53-1.45,1.24-1.7,.74-.25,1.69-.07,2.16,.59,.31,.44,.4,1.03,.19,1.49h-.06c-.1-.44-.28-.82-.58-1.13-.28-.28-.59-.53-.99-.6-.61-.11-1.3,.19-1.65,.73-.12,.19-.21,.4-.26,.62h-.06Z"/></g><g><circle class="cls-4" cx="70.96" cy="57.82" r="1.78"/><path class="cls-3" d="M69.17,57.62c0-.73,.53-1.45,1.24-1.7,.74-.25,1.69-.07,2.16,.59,.31,.44,.4,1.03,.19,1.49h-.06c-.1-.44-.28-.82-.58-1.13-.28-.28-.59-.53-.99-.6-.61-.11-1.3,.19-1.65,.73-.12,.19-.21,.4-.26,.62h-.06Z"/></g><g><circle class="cls-4" cx="69.84" cy="57.05" r="1.15"/><path class="cls-3" d="M69.84,58.22c-.51,.22-1.13-.11-1.35-.6-.1-.21-.14-.47-.12-.7,.06-.7,.81-1.3,1.47-1.02,0,0,0,.04,0,.04-.3,0-.58,.13-.79,.34-.43,.42-.43,1.16,0,1.58,.21,.21,.49,.33,.79,.34v.04h0Z"/></g></g><g><g><circle class="cls-4" cx="75.74" cy="58.78" r="1.78"/><path class="cls-3" d="M75.74,60.59c.73,.08,1.5-.37,1.82-1.05,.33-.71,.25-1.68-.36-2.21-.4-.36-.98-.51-1.46-.35v.06c.42,.15,.78,.37,1.05,.7,.25,.3,.47,.65,.49,1.05,.05,.62-.33,1.27-.9,1.56-.2,.1-.42,.17-.65,.19v.06h0Z"/></g><g><circle class="cls-4" cx="74" cy="57.66" r="1.78"/><path class="cls-3" d="M75.8,57.47c0-.73-.53-1.45-1.24-1.7-.74-.25-1.69-.07-2.16,.59-.31,.44-.4,1.03-.19,1.49h.06c.1-.44,.28-.82,.58-1.13,.28-.28,.59-.53,.99-.6,.61-.11,1.3,.19,1.65,.73,.12,.19,.21,.4,.26,.62h.06Z"/></g><g><circle class="cls-4" cx="73.4" cy="59.55" r="1.78"/><path class="cls-3" d="M75.2,59.36c0-.73-.53-1.45-1.24-1.7-.74-.25-1.69-.07-2.16,.59-.31,.44-.4,1.03-.19,1.49h.06c.1-.44,.28-.82,.58-1.13,.28-.28,.59-.53,.99-.6,.61-.11,1.3,.19,1.65,.73,.12,.19,.21,.4,.26,.62h.06Z"/></g><g><circle class="cls-4" cx="74.52" cy="58.79" r="1.15"/><path class="cls-3" d="M74.52,59.95c.51,.22,1.13-.11,1.35-.6,.1-.21,.14-.47,.12-.7-.06-.7-.81-1.3-1.47-1.02,0,0,0,.04,0,.04,.3,0,.58,.13,.79,.34,.43,.42,.43,1.16,0,1.58-.21,.21-.49,.33-.79,.34v.04h0Z"/></g></g></g><g><g><g><circle class="cls-4" cx="74.6" cy="64.5" r="1.78"/><path class="cls-3" d="M74.6,66.3c-.73,.08-1.5-.37-1.82-1.05-.33-.71-.25-1.68,.36-2.21,.4-.36,.98-.51,1.46-.35v.06c-.42,.15-.78,.37-1.05,.7-.25,.3-.47,.65-.49,1.05-.05,.62,.33,1.27,.9,1.56,.2,.1,.42,.17,.65,.19v.06h0Z"/></g><g><circle class="cls-4" cx="76.34" cy="63.37" r="1.78"/><path class="cls-3" d="M74.55,63.18c0-.73,.53-1.45,1.24-1.7,.74-.25,1.69-.07,2.16,.59,.31,.44,.4,1.03,.19,1.49h-.06c-.1-.44-.28-.82-.58-1.13-.28-.28-.59-.53-.99-.6-.61-.11-1.3,.19-1.65,.73-.12,.19-.21,.4-.26,.62h-.06Z"/></g><g><circle class="cls-4" cx="76.94" cy="65.26" r="1.78"/><path class="cls-3" d="M75.15,65.07c0-.73,.53-1.45,1.24-1.7,.74-.25,1.69-.07,2.16,.59,.31,.44,.4,1.03,.19,1.49h-.06c-.1-.44-.28-.82-.58-1.13-.28-.28-.59-.53-.99-.6-.61-.11-1.3,.19-1.65,.73-.12,.19-.21,.4-.26,.62h-.06Z"/></g><g><circle class="cls-4" cx="75.82" cy="64.5" r="1.15"/><path class="cls-3" d="M75.82,65.66c-.51,.22-1.13-.11-1.35-.6-.1-.21-.14-.47-.12-.7,.06-.7,.81-1.3,1.47-1.02v.04c-.3,0-.58,.13-.79,.34-.43,.42-.43,1.16,0,1.58,.21,.21,.49,.33,.79,.34v.04h0Z"/></g></g><g><g><circle class="cls-4" cx="78.97" cy="65.55" r="1.78"/><path class="cls-3" d="M78.97,67.36c-.73,.08-1.5-.37-1.82-1.05-.33-.71-.25-1.68,.36-2.21,.4-.36,.98-.51,1.46-.35v.06c-.42,.15-.78,.37-1.05,.7-.25,.3-.47,.65-.49,1.05-.05,.62,.33,1.27,.9,1.56,.2,.1,.42,.17,.65,.19v.06h0Z"/></g><g><circle class="cls-4" cx="80.71" cy="64.43" r="1.78"/><path class="cls-3" d="M78.91,64.24c0-.73,.53-1.45,1.24-1.7,.74-.25,1.69-.07,2.16,.59,.31,.44,.4,1.03,.19,1.49h-.06c-.1-.44-.28-.82-.58-1.13-.28-.28-.59-.53-.99-.6-.61-.11-1.3,.19-1.65,.73-.12,.19-.21,.4-.26,.62h-.06Z"/></g><g><circle class="cls-4" cx="81.31" cy="66.32" r="1.78"/><path class="cls-3" d="M79.51,66.12c0-.73,.53-1.45,1.24-1.7,.74-.25,1.69-.07,2.16,.59,.31,.44,.4,1.03,.19,1.49h-.06c-.1-.44-.28-.82-.58-1.13-.28-.28-.59-.53-.99-.6-.61-.11-1.3,.19-1.65,.73-.12,.19-.21,.4-.26,.62h-.06Z"/></g><g><circle class="cls-4" cx="80.18" cy="65.55" r="1.15"/><path class="cls-3" d="M80.18,66.72c-.51,.22-1.13-.11-1.35-.6-.1-.21-.14-.47-.12-.7,.06-.7,.81-1.3,1.47-1.02v.04c-.3,0-.58,.13-.79,.34-.43,.42-.43,1.16,0,1.58,.21,.21,.49,.33,.79,.34v.04h0Z"/></g></g><g><g><circle class="cls-4" cx="87.36" cy="65.55" r="1.78"/><path class="cls-3" d="M87.36,67.36c-.73,.08-1.5-.37-1.82-1.05-.33-.71-.25-1.68,.36-2.21,.4-.36,.98-.51,1.46-.35v.06c-.42,.15-.78,.37-1.05,.7-.25,.3-.47,.65-.49,1.05-.05,.62,.33,1.27,.9,1.56,.2,.1,.42,.17,.65,.19v.06h0Z"/></g><g><circle class="cls-4" cx="89.1" cy="64.43" r="1.78"/><path class="cls-3" d="M87.3,64.24c0-.73,.53-1.45,1.24-1.7,.74-.25,1.69-.07,2.16,.59,.31,.44,.4,1.03,.19,1.49h-.06c-.1-.44-.28-.82-.58-1.13-.28-.28-.59-.53-.99-.6-.61-.11-1.3,.19-1.65,.73-.12,.19-.21,.4-.26,.62h-.06Z"/></g><g><circle class="cls-4" cx="89.7" cy="66.32" r="1.78"/><path class="cls-3" d="M87.9,66.12c0-.73,.53-1.45,1.24-1.7,.74-.25,1.69-.07,2.16,.59,.31,.44,.4,1.03,.19,1.49h-.06c-.1-.44-.28-.82-.58-1.13-.28-.28-.59-.53-.99-.6-.61-.11-1.3,.19-1.65,.73-.12,.19-.21,.4-.26,.62h-.06Z"/></g><g><circle class="cls-4" cx="88.57" cy="65.55" r="1.15"/><path class="cls-3" d="M88.57,66.72c-.51,.22-1.13-.11-1.35-.6-.1-.21-.14-.47-.12-.7,.06-.7,.81-1.3,1.47-1.02v.04c-.3,0-.58,.13-.79,.34-.43,.42-.43,1.16,0,1.58,.21,.21,.49,.33,.79,.34v.04h0Z"/></g></g><g><g><circle class="cls-4" cx="79.59" cy="62.32" r="1.78"/><path class="cls-3" d="M79.59,64.13c-.73,.08-1.5-.37-1.82-1.05-.33-.71-.25-1.68,.36-2.21,.4-.36,.98-.51,1.46-.35v.06c-.42,.15-.78,.37-1.05,.7-.25,.3-.47,.65-.49,1.05-.05,.62,.33,1.27,.9,1.56,.2,.1,.42,.17,.65,.19v.06h0Z"/></g><g><circle class="cls-4" cx="81.33" cy="61.2" r="1.78"/><path class="cls-3" d="M79.53,61.01c0-.73,.53-1.45,1.24-1.7,.74-.25,1.69-.07,2.16,.59,.31,.44,.4,1.03,.19,1.49h-.06c-.1-.44-.28-.82-.58-1.13-.28-.28-.59-.53-.99-.6-.61-.11-1.3,.19-1.65,.73-.12,.19-.21,.4-.26,.62h-.06Z"/></g><g><circle class="cls-4" cx="81.93" cy="63.09" r="1.78"/><path class="cls-3" d="M80.13,62.9c0-.73,.53-1.45,1.24-1.7,.74-.25,1.69-.07,2.16,.59,.31,.44,.4,1.03,.19,1.49h-.06c-.1-.44-.28-.82-.58-1.13-.28-.28-.59-.53-.99-.6-.61-.11-1.3,.19-1.65,.73-.12,.19-.21,.4-.26,.62h-.06Z"/></g><g><circle class="cls-4" cx="80.8" cy="62.33" r="1.15"/><path class="cls-3" d="M80.8,63.49c-.51,.22-1.13-.11-1.35-.6-.1-.21-.14-.47-.12-.7,.06-.7,.81-1.3,1.47-1.02,0,0,0,.04,0,.04-.3,0-.58,.13-.79,.34-.43,.42-.43,1.16,0,1.58,.21,.21,.49,.33,.79,.34v.04h0Z"/></g></g><g><g><circle class="cls-4" cx="86.7" cy="64.06" r="1.78"/><path class="cls-3" d="M86.7,65.87c.73,.08,1.5-.37,1.82-1.05,.33-.71,.25-1.68-.36-2.21-.4-.36-.98-.51-1.46-.35v.06c.42,.15,.78,.37,1.05,.7,.25,.3,.47,.65,.49,1.05,.05,.62-.33,1.27-.9,1.56-.2,.1-.42,.17-.65,.19v.06h0Z"/></g><g><circle class="cls-4" cx="84.97" cy="62.94" r="1.78"/><path class="cls-3" d="M86.76,62.75c0-.73-.53-1.45-1.24-1.7-.74-.25-1.69-.07-2.16,.59-.31,.44-.4,1.03-.19,1.49h.06c.1-.44,.28-.82,.58-1.13,.28-.28,.59-.53,.99-.6,.61-.11,1.3,.19,1.65,.73,.12,.19,.21,.4,.26,.62h.06Z"/></g><g><circle class="cls-4" cx="84.36" cy="64.83" r="1.78"/><path class="cls-3" d="M86.16,64.63c0-.73-.53-1.45-1.24-1.7-.74-.25-1.69-.07-2.16,.59-.31,.44-.4,1.03-.19,1.49h.06c.1-.44,.28-.82,.58-1.13,.28-.28,.59-.53,.99-.6,.61-.11,1.3,.19,1.65,.73,.12,.19,.21,.4,.26,.62h.06Z"/></g><g><circle class="cls-4" cx="85.49" cy="64.06" r="1.15"/><path class="cls-3" d="M85.49,65.23c.51,.22,1.13-.11,1.35-.6,.1-.21,.14-.47,.12-.7-.06-.7-.81-1.3-1.47-1.02,0,0,0,.04,0,.04,.3,0,.58,.13,.79,.34,.43,.42,.43,1.16,0,1.58-.21,.21-.49,.33-.79,.34v.04h0Z"/></g></g></g><g><g><g><circle class="cls-4" cx="72.09" cy="60.8" r="1.78"/><path class="cls-3" d="M72.09,62.61c-.73,.08-1.5-.37-1.82-1.05-.33-.71-.25-1.68,.36-2.21,.4-.36,.98-.51,1.46-.35v.06c-.42,.15-.78,.37-1.05,.7-.25,.3-.47,.65-.49,1.05-.05,.62,.33,1.27,.9,1.56,.2,.1,.42,.17,.65,.19v.06h0Z"/></g><g><circle class="cls-4" cx="73.83" cy="59.68" r="1.78"/><path class="cls-3" d="M72.03,59.48c0-.73,.53-1.45,1.24-1.7,.74-.25,1.69-.07,2.16,.59,.31,.44,.4,1.03,.19,1.49h-.06c-.1-.44-.28-.82-.58-1.13-.28-.28-.59-.53-.99-.6-.61-.11-1.3,.19-1.65,.73-.12,.19-.21,.4-.26,.62h-.06Z"/></g><g><circle class="cls-4" cx="74.43" cy="61.57" r="1.78"/><path class="cls-3" d="M72.63,61.37c0-.73,.53-1.45,1.24-1.7,.74-.25,1.69-.07,2.16,.59,.31,.44,.4,1.03,.19,1.49h-.06c-.1-.44-.28-.82-.58-1.13-.28-.28-.59-.53-.99-.6-.61-.11-1.3,.19-1.65,.73-.12,.19-.21,.4-.26,.62h-.06Z"/></g><g><circle class="cls-4" cx="73.3" cy="60.8" r="1.15"/><path class="cls-3" d="M73.3,61.97c-.51,.22-1.13-.11-1.35-.6-.1-.21-.14-.47-.12-.7,.06-.7,.81-1.3,1.47-1.02,0,0,0,.04,0,.04-.3,0-.58,.13-.79,.34-.43,.42-.43,1.16,0,1.58,.21,.21,.49,.33,.79,.34v.04h0Z"/></g></g><g><g><circle class="cls-4" cx="76.46" cy="61.85" r="1.78"/><path class="cls-3" d="M76.46,63.66c-.73,.08-1.5-.37-1.82-1.05-.33-.71-.25-1.68,.36-2.21,.4-.36,.98-.51,1.46-.35v.06c-.42,.15-.78,.37-1.05,.7-.25,.3-.47,.65-.49,1.05-.05,.62,.33,1.27,.9,1.56,.2,.1,.42,.17,.65,.19v.06h0Z"/></g><g><circle class="cls-4" cx="78.19" cy="60.73" r="1.78"/><path class="cls-3" d="M76.4,60.54c0-.73,.53-1.45,1.24-1.7,.74-.25,1.69-.07,2.16,.59,.31,.44,.4,1.03,.19,1.49h-.06c-.1-.44-.28-.82-.58-1.13-.28-.28-.59-.53-.99-.6-.61-.11-1.3,.19-1.65,.73-.12,.19-.21,.4-.26,.62h-.06Z"/></g><g><circle class="cls-4" cx="78.79" cy="62.62" r="1.78"/><path class="cls-3" d="M77,62.43c0-.73,.53-1.45,1.24-1.7,.74-.25,1.69-.07,2.16,.59,.31,.44,.4,1.03,.19,1.49h-.06c-.1-.44-.28-.82-.58-1.13-.28-.28-.59-.53-.99-.6-.61-.11-1.3,.19-1.65,.73-.12,.19-.21,.4-.26,.62h-.06Z"/></g><g><circle class="cls-4" cx="77.67" cy="61.86" r="1.15"/><path class="cls-3" d="M77.67,63.02c-.51,.22-1.13-.11-1.35-.6-.1-.21-.14-.47-.12-.7,.06-.7,.81-1.3,1.47-1.02,0,0,0,.04,0,.04-.3,0-.58,.13-.79,.34-.43,.42-.43,1.16,0,1.58,.21,.21,.49,.33,.79,.34v.04h0Z"/></g></g><g><g><circle class="cls-4" cx="84.84" cy="61.85" r="1.78"/><path class="cls-3" d="M84.84,63.66c-.73,.08-1.5-.37-1.82-1.05-.33-.71-.25-1.68,.36-2.21,.4-.36,.98-.51,1.46-.35v.06c-.42,.15-.78,.37-1.05,.7-.25,.3-.47,.65-.49,1.05-.05,.62,.33,1.27,.9,1.56,.2,.1,.42,.17,.65,.19v.06h0Z"/></g><g><circle class="cls-4" cx="86.58" cy="60.73" r="1.78"/><path class="cls-3" d="M84.79,60.54c0-.73,.53-1.45,1.24-1.7,.74-.25,1.69-.07,2.16,.59,.31,.44,.4,1.03,.19,1.49h-.06c-.1-.44-.28-.82-.58-1.13-.28-.28-.59-.53-.99-.6-.61-.11-1.3,.19-1.65,.73-.12,.19-.21,.4-.26,.62h-.06Z"/></g><g><circle class="cls-4" cx="87.18" cy="62.62" r="1.78"/><path class="cls-3" d="M85.39,62.43c0-.73,.53-1.45,1.24-1.7,.74-.25,1.69-.07,2.16,.59,.31,.44,.4,1.03,.19,1.49h-.06c-.1-.44-.28-.82-.58-1.13-.28-.28-.59-.53-.99-.6-.61-.11-1.3,.19-1.65,.73-.12,.19-.21,.4-.26,.62h-.06Z"/></g><g><circle class="cls-4" cx="86.06" cy="61.86" r="1.15"/><path class="cls-3" d="M86.06,63.02c-.51,.22-1.13-.11-1.35-.6-.1-.21-.14-.47-.12-.7,.06-.7,.81-1.3,1.47-1.02,0,0,0,.04,0,.04-.3,0-.58,.13-.79,.34-.43,.42-.43,1.16,0,1.58,.21,.21,.49,.33,.79,.34v.04h0Z"/></g></g><g><g><circle class="cls-4" cx="77.07" cy="58.63" r="1.78"/><path class="cls-3" d="M77.07,60.43c-.73,.08-1.5-.37-1.82-1.05-.33-.71-.25-1.68,.36-2.21,.4-.36,.98-.51,1.46-.35v.06c-.42,.15-.78,.37-1.05,.7-.25,.3-.47,.65-.49,1.05-.05,.62,.33,1.27,.9,1.56,.2,.1,.42,.17,.65,.19v.06h0Z"/></g><g><circle class="cls-4" cx="78.81" cy="57.51" r="1.78"/><path class="cls-3" d="M77.01,57.31c0-.73,.53-1.45,1.24-1.7,.74-.25,1.69-.07,2.16,.59,.31,.44,.4,1.03,.19,1.49h-.06c-.1-.44-.28-.82-.58-1.13-.28-.28-.59-.53-.99-.6-.61-.11-1.3,.19-1.65,.73-.12,.19-.21,.4-.26,.62h-.06Z"/></g><g><circle class="cls-4" cx="79.41" cy="59.39" r="1.78"/><path class="cls-3" d="M77.61,59.2c0-.73,.53-1.45,1.24-1.7,.74-.25,1.69-.07,2.16,.59,.31,.44,.4,1.03,.19,1.49h-.06c-.1-.44-.28-.82-.58-1.13-.28-.28-.59-.53-.99-.6-.61-.11-1.3,.19-1.65,.73-.12,.19-.21,.4-.26,.62h-.06Z"/></g><g><circle class="cls-4" cx="78.29" cy="58.63" r="1.15"/><path class="cls-3" d="M78.29,59.8c-.51,.22-1.13-.11-1.35-.6-.1-.21-.14-.47-.12-.7,.06-.7,.81-1.3,1.47-1.02,0,0,0,.04,0,.04-.3,0-.58,.13-.79,.34-.43,.42-.43,1.16,0,1.58,.21,.21,.49,.33,.79,.34v.04h0Z"/></g></g><g><g><circle class="cls-4" cx="84.19" cy="60.36" r="1.78"/><path class="cls-3" d="M84.19,62.17c.73,.08,1.5-.37,1.82-1.05,.33-.71,.25-1.68-.36-2.21-.4-.36-.98-.51-1.46-.35v.06c.42,.15,.78,.37,1.05,.7,.25,.3,.47,.65,.49,1.05,.05,.62-.33,1.27-.9,1.56-.2,.1-.42,.17-.65,.19v.06h0Z"/></g><g><circle class="cls-4" cx="82.45" cy="59.24" r="1.78"/><path class="cls-3" d="M84.25,59.05c0-.73-.53-1.45-1.24-1.7-.74-.25-1.69-.07-2.16,.59-.31,.44-.4,1.03-.19,1.49h.06c.1-.44,.28-.82,.58-1.13,.28-.28,.59-.53,.99-.6,.61-.11,1.3,.19,1.65,.73,.12,.19,.21,.4,.26,.62h.06Z"/></g><g><circle class="cls-4" cx="81.85" cy="61.13" r="1.78"/><path class="cls-3" d="M83.64,60.94c0-.73-.53-1.45-1.24-1.7-.74-.25-1.69-.07-2.16,.59-.31,.44-.4,1.03-.19,1.49h.06c.1-.44,.28-.82,.58-1.13,.28-.28,.59-.53,.99-.6,.61-.11,1.3,.19,1.65,.73,.12,.19,.21,.4,.26,.62h.06Z"/></g><g><circle class="cls-4" cx="82.97" cy="60.37" r="1.15"/><path class="cls-3" d="M82.97,61.53c.51,.22,1.13-.11,1.35-.6,.1-.21,.14-.47,.12-.7-.06-.7-.81-1.3-1.47-1.02,0,0,0,.04,0,.04,.3,0,.58,.13,.79,.34,.43,.42,.43,1.16,0,1.58-.21,.21-.49,.33-.79,.34v.04h0Z"/></g></g></g><path class="cls-1" d="M86.43,89.96H53.09c-.88,0-1.64-.62-1.81-1.49l-3.98-20.1c-.23-1.14,.65-2.21,1.81-2.21h41.3c1.16,0,2.04,1.06,1.81,2.21l-3.98,20.1c-.17,.86-.93,1.49-1.81,1.49Z"/><path class="cls-5" d="M71.72,71.43v18.53h-3.91v-18.53c0-1.08,.88-1.96,1.96-1.96s1.96,.88,1.96,1.96Z"/><g><path class="cls-5" d="M58.29,89.96h-3.99l-3.56-18.16c-.21-1.06,.48-2.09,1.54-2.3,1.06-.21,2.09,.48,2.3,1.54l3.7,18.91Z"/><path class="cls-5" d="M65.59,89.96h-3.93l-1.84-18.72c-.1-1.07,.68-2.03,1.76-2.14,1.07-.11,2.03,.68,2.14,1.76l1.87,19.11Z"/><path class="cls-5" d="M71.72,71.43v18.53h-3.91v-18.53c0-1.08,.88-1.96,1.96-1.96s1.96,.88,1.96,1.96Z"/><path class="cls-5" d="M88.77,71.8l-3.56,18.16h-3.99l3.7-18.91c.21-1.06,1.23-1.75,2.3-1.54,1.06,.21,1.75,1.23,1.54,2.3Z"/><path class="cls-5" d="M79.7,71.23l-1.84,18.72h-3.93l1.87-19.11c.11-1.08,1.06-1.86,2.14-1.76,1.07,.11,1.86,1.06,1.76,2.14Z"/></g><g><circle class="cls-4" cx="67.67" cy="51.34" r="1.33"/><path class="cls-3" d="M67.67,52.68c-.54,.06-1.12-.28-1.36-.79-.25-.53-.19-1.25,.27-1.65,.3-.27,.73-.38,1.09-.26v.04c-.32,.11-.58,.27-.79,.52-.18,.23-.35,.48-.37,.79-.03,.46,.24,.95,.67,1.16,.15,.08,.31,.12,.48,.14v.04h0Z"/></g><g><circle class="cls-4" cx="53.85" cy="49.03" r="1.29"/><path class="cls-3" d="M54.41,50.22c.63-.02,1.1-.65,1.09-1.26,0-.27-.08-.55-.22-.78-.39-.69-1.44-.94-1.99-.34,0,0,.02,.04,.02,.04,.31-.13,.66-.14,.97-.03,.64,.22,.99,.98,.75,1.61-.11,.31-.35,.58-.64,.72l.02,.04h0Z"/></g><g><circle class="cls-4" cx="61.95" cy="49" r="1.33"/><path class="cls-3" d="M62.87,49.99c.61-.22,.87-.98,.68-1.58-.08-.26-.24-.51-.45-.69-.6-.55-1.7-.47-2.05,.29,0,0,.03,.03,.03,.03,.26-.23,.6-.35,.94-.33,.69,.02,1.27,.65,1.24,1.34-.01,.34-.16,.67-.41,.91l.03,.03h0Z"/></g><g><circle class="cls-4" cx="61.07" cy="49.62" r=".85"/><path class="cls-3" d="M61.62,48.96c-.19-.37-.7-.46-1.06-.29-.16,.07-.3,.2-.4,.35-.29,.43-.15,1.12,.36,1.27l.02-.02c-.17-.14-.27-.35-.29-.56-.05-.44,.3-.86,.74-.9,.22-.02,.44,.04,.61,.18l.02-.02h0Z"/></g><g><circle class="cls-4" cx="53.37" cy="56.25" r=".88"/><path class="cls-3" d="M53.01,55.43c-.43,0-.76,.43-.76,.84,0,.18,.04,.37,.13,.53,.26,.47,.97,.66,1.35,.26,0,0-.01-.03-.01-.03-.21,.09-.45,.09-.66,0-.43-.16-.66-.68-.49-1.11,.08-.21,.24-.39,.45-.48v-.03h-.01Z"/></g><g><circle class="cls-4" cx="54.06" cy="56.04" r=".56"/><path class="cls-3" d="M53.57,56.34c.04,.27,.34,.44,.6,.41,.12-.01,.23-.06,.32-.13,.28-.2,.33-.67,.05-.88h-.02c.07,.13,.1,.29,.06,.43-.06,.29-.37,.48-.66,.41-.14-.03-.27-.12-.34-.24h-.02Z"/></g><g><circle class="cls-4" cx="69.57" cy="46.31" r="1.1"/><path class="cls-3" d="M70.33,47.13c.5-.18,.72-.81,.56-1.3-.07-.22-.2-.42-.37-.57-.5-.45-1.41-.39-1.7,.24,0,0,.02,.03,.02,.03,.21-.19,.5-.29,.78-.27,.57,.02,1.05,.54,1.02,1.11,0,.28-.13,.55-.34,.75l.02,.03h0Z"/></g><g><circle class="cls-4" cx="50.73" cy="51.74" r=".88"/><path class="cls-3" d="M51.11,52.56c.43-.01,.75-.45,.75-.86,0-.18-.05-.37-.15-.53-.27-.47-.98-.64-1.36-.23,0,0,.01,.03,.01,.03,.21-.09,.45-.1,.66-.02,.43,.15,.67,.67,.51,1.1-.08,.21-.24,.39-.44,.49v.03h.01Z"/></g><g><circle class="cls-4" cx="53.75" cy="55.65" r=".58"/><path class="cls-3" d="M54.3,55.87c.2-.2,.16-.55-.03-.75-.08-.09-.19-.16-.31-.19-.34-.11-.77,.13-.76,.5,0,0,.02,0,.02,0,.06-.14,.17-.25,.31-.31,.28-.12,.63,.02,.74,.3,.06,.14,.06,.3,0,.44h.02Z"/></g><g><circle class="cls-4" cx="76.75" cy="48.48" r="1.08"/><path class="cls-3" d="M77.74,48.02c-.02-.52-.54-.91-1.05-.91-.22,0-.45,.06-.65,.18-.57,.33-.78,1.2-.28,1.66,0,0,.03-.01,.03-.01-.11-.25-.12-.55-.03-.81,.19-.53,.82-.82,1.34-.63,.26,.09,.48,.29,.6,.54h.03Z"/></g><g><circle class="cls-4" cx="89.78" cy="52.23" r=".88"/><path class="cls-3" d="M89.4,53.04c-.43-.01-.75-.45-.75-.86,0-.18,.05-.37,.15-.53,.27-.47,.98-.64,1.36-.23,0,0-.01,.03-.01,.03-.21-.09-.45-.1-.66-.02-.43,.15-.67,.67-.51,1.1,.08,.21,.24,.39,.44,.49v.03h-.01Z"/></g><g><circle class="cls-4" cx="86.81" cy="56.06" r=".88"/><path class="cls-3" d="M86.43,56.87c-.43-.01-.75-.45-.75-.86,0-.18,.05-.37,.15-.53,.27-.47,.98-.64,1.36-.23,0,0-.01,.03-.01,.03-.21-.09-.45-.1-.66-.02-.43,.15-.67,.67-.51,1.1,.08,.21,.24,.39,.44,.49v.03h-.01Z"/></g><g><circle class="cls-4" cx="81.75" cy="52.1" r=".69"/><path class="cls-3" d="M82.4,52.37c.24-.24,.2-.66-.02-.9-.1-.11-.23-.19-.37-.23-.4-.13-.91,.15-.91,.58h.02c.07-.16,.21-.29,.37-.35,.33-.14,.75,.03,.88,.37,.07,.16,.07,.35,0,.52h.02Z"/></g><g><circle class="cls-4" cx="81.47" cy="52.59" r=".44"/><path class="cls-3" d="M81.58,52.15c-.17-.13-.43-.07-.57,.09-.06,.07-.1,.16-.11,.25-.05,.27,.17,.57,.45,.53h0c-.11-.05-.21-.12-.26-.22-.12-.2-.05-.48,.15-.59,.1-.06,.22-.08,.33-.05h0Z"/></g><g><circle class="cls-4" cx="81.86" cy="52.65" r=".46"/><path class="cls-3" d="M81.42,52.82c0,.22,.21,.41,.43,.42,.1,0,.2-.01,.28-.06,.25-.12,.37-.49,.17-.7h-.01c.04,.12,.04,.24-.01,.35-.09,.22-.37,.33-.59,.23-.11-.05-.2-.14-.24-.25h-.01Z"/></g><g><circle class="cls-4" cx="86.09" cy="48.32" r=".91"/><path class="cls-3" d="M86.47,49.16c.44-.01,.77-.45,.77-.88,0-.19-.05-.38-.15-.54-.27-.48-1.01-.66-1.39-.25,0,0,.01,.03,.01,.03,.21-.09,.46-.1,.68-.02,.44,.16,.69,.69,.52,1.13-.08,.22-.24,.4-.45,.5v.03h.01Z"/></g><g><circle class="cls-4" cx="85.38" cy="48.54" r=".58"/><path class="cls-3" d="M85.88,48.23c-.05-.28-.36-.45-.63-.41-.12,.01-.24,.07-.33,.14-.28,.22-.33,.7-.03,.9h.02c-.08-.14-.1-.29-.07-.44,.06-.29,.38-.5,.67-.43,.14,.03,.28,.12,.36,.24h.02Z"/></g><g><circle class="cls-4" cx="85.7" cy="48.95" r=".6"/><path class="cls-3" d="M85.13,48.72c-.2,.21-.16,.57,.04,.78,.09,.09,.2,.16,.32,.19,.35,.1,.79-.15,.78-.53,0,0-.02,0-.02,0-.06,.14-.17,.26-.32,.32-.28,.13-.65-.01-.77-.3-.06-.14-.07-.3-.02-.45h-.02Z"/></g></g></g></g></svg>