<?xml version="1.0" encoding="UTF-8"?><svg id="Camada_1" xmlns="http://www.w3.org/2000/svg" xmlns:xlink="http://www.w3.org/1999/xlink" viewBox="0 0 350 350"><defs><style>.cls-1,.cls-2{fill:none;}.cls-3{clip-path:url(#clippath);}.cls-4{opacity:.1;}.cls-5{fill:#00739c;}.cls-6{fill:#007fac;}.cls-7{fill:#e8f6fc;}.cls-8{fill:#63c3e6;}.cls-9{fill:#1f3e4d;}.cls-10{fill:#35aad4;}.cls-11{fill:#85d1f2;}.cls-2{stroke:#007fac;stroke-miterlimit:10;stroke-width:4px;}.cls-12{fill:#fff;fill-rule:evenodd;}</style><clipPath id="clippath"><rect class="cls-1" x="159" y="291.23" width="32" height="32"/></clipPath></defs><g><g><rect class="cls-7" x="2" y="2" width="346" height="346" rx="20" ry="20"/><path class="cls-6" d="M328,4c9.93,0,18,8.07,18,18V328c0,9.93-8.07,18-18,18H22c-9.93,0-18-8.07-18-18V22C4,12.07,12.07,4,22,4H328M328,0H22C9.85,0,0,9.85,0,22V328C0,340.15,9.85,350,22,350H328c12.15,0,22-9.85,22-22V22C350,9.85,340.15,0,328,0h0Z"/></g><rect class="cls-2" x="17.07" y="16.74" width="315.87" height="245.09" rx="12" ry="12"/><g><path class="cls-6" d="M175,278.23h0c16.02,0,29,12.98,29,29h0c0,16.02-12.98,29-29,29h0c-16.02,0-29-12.98-29-29h0c0-16.02,12.98-29,29-29Z"/><g class="cls-3"><g><path class="cls-12" d="M175.02,303.01c-2.82,0-5.08,2.25-5.08,4.99s2.26,4.99,5.08,4.99,5.08-2.25,5.08-4.99-2.26-4.99-5.08-4.99Zm-7.82,4.99c0-4.29,3.52-7.73,7.82-7.73s7.82,3.44,7.82,7.73-3.52,7.73-7.82,7.73-7.82-3.44-7.82-7.73Z"/><path class="cls-12" d="M166.25,297.53c0-2.03,1.67-3.64,3.68-3.64h10.14c2.01,0,3.68,1.61,3.68,3.64,0,.08,.06,.14,.14,.14h3.44c2.01,0,3.68,1.61,3.68,3.64v15.62c0,2.03-1.67,3.64-3.68,3.64h-24.65c-2.02,0-3.68-1.61-3.68-3.64v-15.62c0-2.03,1.66-3.64,3.68-3.64h3.44c.08,0,.14-.06,.14-.14Zm3.68-.9c-.53,0-.93,.42-.93,.9,0,1.59-1.29,2.88-2.88,2.88h-3.44c-.54,0-.93,.42-.93,.9v15.62c0,.48,.4,.9,.93,.9h24.65c.53,0,.93-.42,.93-.9v-15.62c0-.48-.4-.9-.93-.9h-3.44c-1.59,0-2.88-1.29-2.88-2.88,0-.48-.4-.9-.93-.9h-10.14Z"/></g></g></g></g><path class="cls-11" d="M190.35,176.99c-.06-.25-.14-.5-.23-.74-.09-.25-.21-.48-.31-.71-.99-1.86-2.15-3.62-3.47-5.27-.64-.86-1.32-1.7-2-2.55-.33-.43-.68-.86-1-1.29-.08-.1-.16-.21-.23-.33-.04-.12-.07-.24-.08-.37-.04-.26-.08-.54-.08-.82-.09-2.2-.03-4.47,.04-6.75,.1-.16,.2-.32,.29-.49,.28-.54,.45-1.13,.5-1.73v-.12h-.13c-.48-.03-.97-.06-1.45-.09l.66-2.85s-3.26-1.37-7.82-.35c-.09,.02,.12,1.38,.42,3.01-.48,.02-.95,.06-1.42,.12-.16,.02-.31,.08-.43,.19-.09,.13-.13,.29-.12,.45,.01,.27,.07,.54,.18,.79,.19,.48,.42,.95,.7,1.38v-.06c.1,1.65,.18,3.27,.18,4.86,.01,.79-.02,1.57-.09,2.35-.09,.75-.37,1.47-.82,2.09-.43,.62-.91,1.19-1.44,1.73-.52,.54-1.04,1.06-1.57,1.56-.55,.48-1.06,.99-1.54,1.54-.46,.54-.85,1.14-1.17,1.79-.59,1.23-1,2.53-1.22,3.88-.07,.65-.07,1.3,0,1.94,.05,.64,.14,1.25,.23,1.86,.39,2.22,.89,4.41,1.5,6.58,1.08,3.95,2.11,7.06,2.82,9.19,.35,1.07,.65,1.88,.85,2.43l.23,.63,.09,.21s0-.02-.01-.05c.01,.04,.02,.06,.02,.06l8.83-.02-5.04,.02h-3.78l.22,.03h3.5l10.51,.05h.07v-.07c.57-2.63,1.18-5.61,1.79-8.89,.61-3.28,1.26-6.86,1.71-10.71,.11-.95,.2-1.95,.23-2.95,.02-.51,0-1.02-.09-1.53Z"/><g id="freepik--Table--inject-207"><path class="cls-9" d="M232.96,201.04c0,.07-47.58,.13-106.27,.13s-106.28-.06-106.28-.13,47.55-.13,106.28-.13,106.27,.06,106.27,.13Z"/></g><path class="cls-9" d="M295.26,223.39c-2.48-11.03,7.21-54.2,7.21-54.2l2.3,41.85,5.6,1.73h0c.96,3.29,1.81,6.07,2.33,7.73,.43,2.37,.48,5.5-1.63,7.45-2.73,2.52-3.34,7.33-3.74,10.49-.25,3.77-.08,7.56,.49,11.29,.02,.17,.07,.33,.15,.48,.33,.58,1.06,.77,1.64,.44,1.67-1.59,1.52-8.37,1.52-8.37l1.63-3.7,.67,2.97v10.3c-1.22,1.43-2.26,3-3.09,4.68-1.03,2.31,.12,2.87,.12,2.87l9.29-5.61s4.67-11.18,4.69-13.18c.02-1.31-.84-10.89-1.43-17.34,.11-.02,.17-.05,.16-.1-.06-.23,.08-5.48,.17-12.27l6.05-.87-4.96-38.62-8.66-50.31c-.16-1.45-.33-2.56-.53-3.1-1.72-4.78-4.84-8.92-8.95-11.9v-.07s-21.88-9.11-21.88-9.11l.34-19.17c1.99,.16,5.97-.31,5.97-5.59,0-3.95-2.16-4.97-4.08-5.1-.02,0-.03,0-.05,0,.37-.72,.65-1.64,.73-2.83,.22-3.32,.29-7.09,0-10.34,.35-.15,.68-.34,.98-.59,.01,0,.02-.02,.03-.03,.85-.43,1.47-1.43,1.42-2.42-.21-1.46-1.14-2.71-2.48-3.33,.57-1.06,.69-2.31,.34-3.46-.73-2.39-3.26-3.74-5.65-3.01-.3-.67-.71-1.28-1.22-1.81-1.99-2.07-5.07-2.46-7.48-1.15-.73-2.12-2.92-3.42-5.17-2.94-2.37-1.67-5.58-1.5-7.77,.4-.81-.45-1.72-.69-2.65-.7-3.1-.03-5.63,2.45-5.67,5.55-1.47-.19-2.93,.33-3.96,1.39-1.8,1.86-1.75,4.83,.11,6.64-2.01,.73-3.23,2.76-2.93,4.88,.33,2.28,2.31,3.9,4.56,3.85-.02,.2-.05,.4-.06,.61-.46,9.24-.84,19.5-.63,24.45,.44,10.25,10.76,11.53,10.76,11.53h0s-.07,.02-.11,.02l-.03,2.9s.02,0,.03,0l-.26,6.81c-.19-.15-.38-.31-.56-.47,0,0-6.96,2.08-12.89,4.23-2.63,.61-9.03,2.53-12.55,7.26-4.51,6.05-15.25,27.72-15.25,27.72l.65,4.55-13.74-12.14v-5.48l-.09-.05v-3.13l-9-5.2s-.02-.04-.03-.06v-11.84l-10.49-6.06-10.5,6.06v3.18l-.03,.02v12.11l1.67,.96c.23,.33,.49,.64,.82,.9l.63,.58c-.06,1.02,.43,2,1.29,2.55-.18,1.9,4.21,3.75,4.21,3.75,0,0,.16-.12,.44-.33v5.48l.09,.05v3.13l10.5,6.06,1.08-.62c5.46,9.78,11.47,20.06,13.31,22.17,5.54,6.36,9.89,8.67,16.28,4.87,2.29-1.37,6.24-6.91,9.87-12.54-.46,7-.9,13.29-1.22,18.09-.17,2.78-4.64,80.58-4.64,80.58h69.67s-.59-22.49-3.74-36.45Zm-7.56-169.92c-.13,.07-.26,.14-.4,.2,0-.06-.01-.13-.02-.19,.14,.01,.28,.02,.42,0Z"/><g><path class="cls-6" d="M125.05,211.54s-.31-16.23-.63-22.1c-.32-5.87-1.82-14.79-1.82-14.79h-.05s-.76-4.51-.76-4.51l6.47,10.62s6.01,16.78,7.46,17.76l5.46,3.64,.21-.12c-.24,.46-.26,1.01-.03,1.48,.25,.48,.62,.89,1.08,1.17,.33,.22,.7,.37,1.09,.44,.4,.06,.81-.07,1.1-.35,.1-.14,.22-.25,.36-.34,.19-.05,.4-.05,.59,0,.49,.02,.96-.2,1.26-.6,.28-.4,.45-.86,.48-1.35,1.01,.15,1.96-.44,2.31-1.38,.3,.07,.48,.1,.5-.04,0-.01-.01-.02-.02-.03,.61,.03,1.21-.22,1.57-.73,.44-.62,.63-1.39,.53-2.14-.1-.75-.3-1.48-.58-2.18l.36-.21-1.85-2.46c-.09-.48-.19-.96-.34-1.42-.22-.66-.6-1.24-1.12-1.7-.47-.38-1-.67-1.56-.89l-.7-.93-5.69-13.83-7.93-29.03s-4.28-21.43-8.45-22.85l-14.75-7.14s-.03,.03-.1,.09l.05-1.47c.7-.19,1.38-.43,2.03-.77,1.68-.89,2.79-2.58,2.96-4.47,1.25,1.36,3.55,1.24,5.04,.15,1.41-1.19,2.4-2.82,2.8-4.63,1.54-5.74,1.42-13.67-1.44-19.86,.03-.85-.02-1.83-.23-2.96,1.57-4.76,7.71-16.1,4.5-22.89-4.08-8.64-4.33-3.94-14.64-6.52-10.31-2.58-11.89-2.55-16.88-.36-3.57,1.57-2.49,1.56-11.37,1.79-5.3,.13-7.83,3.12-9.83,5.83-3.13,4.24-2.27,11.06,.66,15.44,1.33,1.99,4.68,8.59,6.22,11.65-.3,2.77-.66,5.41-2.58,7.05-1.78,1.52-4.09,2.5-5.35,4.46-1.28,2.01-1.15,4.61,.34,6.46,1.92,2.4,5.41,2.78,7.81,.87,.65,1.17,1.64,2.12,2.86,2.69,.89,.42,1.82,.61,2.74,.61,2.48,2.04,5.3,2.48,5.3,2.48v.06s-.09,0-.13,0l-.1,2.39s.04,0,.06,0l-.17,2.51-9.52,3.61v-.07c-2.85,.98-4.95,3.41-5.51,6.37-1.04,4.88-2.52,9.65-4.43,14.26l-10.29,29.96-6.53,13.51-.76,.89c-.56,.19-1.1,.45-1.59,.79-.55,.42-.97,.98-1.22,1.62-.17,.45-.3,.91-.42,1.37l-2.03,2.37,.3,.2c-.32,.67-.55,1.37-.7,2.09-.14,.75,0,1.52,.4,2.17,.34,.54,.94,.84,1.57,.83-.04,.02-.06,.03-.06,.04,0,.05,.19,.1,.49,.07,.29,.96,1.21,1.61,2.22,1.52,0,.49,.13,.96,.39,1.37,.27,.41,.73,.67,1.22,.68,.19-.05,.4-.05,.59,0,.13,.1,.25,.23,.35,.36,.27,.29,.67,.44,1.07,.41,.4-.03,.78-.16,1.12-.36,.48-.25,.88-.63,1.16-1.1,.24-.44,.25-.96,.05-1.41l.23,.15,5.65-3.31c1.51-.87,8.57-17.26,8.57-17.26l4.48-7.19c-.5,6.59-1,12-1,12,0,0,.09,.13,.26,.34h-.12s-2.68,31.54-2.68,31.54l51.65-2.44Zm-68.4-14.5s0,0,0,0c-.02,0-.03,0-.05,.02-.01,0-.03,0-.04,0,.04-.08,.07-.17,.11-.25l.27,.19c-.09,0-.19,.02-.28,.05Zm86.12,4.46s-.02,.02-.02,.03c-.13-.04-.25-.07-.38-.07l.35-.21c.03,.09,.06,.19,.1,.28-.02-.02-.04-.03-.05-.03Zm7.67-4.78s0-.01,0-.02l1.18-.7-1.19,.72Z"/><g><path class="cls-9" d="M128.31,177.3c.81-.6,1.56-1.27,2.25-2.01,.68-.75,1.29-1.55,1.82-2.41,.43-.7,.8-1.44,1.1-2.2,.12-.29,.23-.59,.32-.89,.08-.22,.15-.45,.2-.68,.06-.19,.1-.4,.12-.6-.05-.01-.26,.83-.82,2.1-.33,.74-.71,1.45-1.14,2.14-.53,.83-1.14,1.62-1.8,2.35-.68,.72-1.41,1.39-2.2,2-.65,.49-1.33,.92-2.04,1.31-1.21,.66-2.02,.94-2.02,.99,.2-.03,.4-.09,.58-.17,.23-.07,.45-.16,.67-.25,.25-.11,.55-.22,.86-.4,.74-.37,1.44-.8,2.1-1.28Z"/><path class="cls-9" d="M135.32,172.55c-.33,.74-.71,1.46-1.14,2.14-.53,.83-1.14,1.62-1.8,2.35-.67,.73-1.41,1.39-2.2,2-.65,.49-1.33,.93-2.04,1.32-1.21,.66-2.02,.93-2.02,.98,.2-.03,.4-.09,.58-.17,.23-.07,.45-.16,.67-.25,.25-.11,.55-.22,.86-.4,.74-.37,1.44-.8,2.1-1.28,.81-.6,1.56-1.27,2.25-2.01,.68-.75,1.28-1.55,1.81-2.41,.43-.7,.8-1.44,1.11-2.2,.14-.32,.23-.63,.32-.89,.08-.22,.14-.45,.19-.68,.07-.19,.11-.39,.12-.6-.05-.01-.26,.83-.81,2.1Z"/><path class="cls-9" d="M57.61,183.36c1.45,3.86,4.93,6.6,9.02,7.11,.6,.08,1.21,.1,1.82,.07,.22,0,.45-.03,.66-.09,0-.06-.95,.05-2.46-.18-3.98-.6-7.36-3.25-8.87-6.99-.29-.77-.54-1.55-.75-2.34,0,.22,.02,.45,.07,.66,.11,.6,.28,1.18,.5,1.75Z"/><path class="cls-9" d="M57.33,188.83c1.38,2.01,3.35,3.54,5.65,4.38,.35,.13,.71,.23,1.07,.31,.26,.05,.4,.05,.4,.05,.01-.04-.53-.2-1.4-.55-1.09-.46-2.12-1.06-3.07-1.79-.94-.73-1.78-1.58-2.5-2.52-.55-.73-.86-1.21-.87-1.2s.04,.14,.16,.37c.16,.33,.35,.64,.56,.94Z"/><path class="cls-9" d="M75.13,192.81c0-.39-.32-.71-.71-.71s-.71,.32-.71,.71,.32,.71,.71,.71,.71-.32,.71-.71Z"/><path class="cls-9" d="M105.58,199.75c-.39,0-.71,.32-.71,.71s.32,.71,.71,.71,.71-.32,.71-.71-.32-.71-.71-.71Z"/><path class="cls-9" d="M76.67,198.47c0-.25-.2-.44-.44-.44s-.45,.2-.45,.44c0,.25,.2,.45,.45,.45,.25,0,.44-.2,.44-.45Z"/><path class="cls-9" d="M66.05,206.2c0,.25,.2,.44,.44,.44s.44-.2,.44-.44-.2-.44-.44-.44-.44,.2-.44,.44Z"/><path class="cls-9" d="M108.21,186.6c-.25,0-.44,.2-.44,.45s.2,.44,.44,.44,.45-.2,.45-.44c0-.25-.2-.45-.45-.45Z"/><path class="cls-9" d="M121.43,200.58c-.25,0-.44,.2-.44,.44s.2,.45,.44,.45c.25,0,.45-.2,.45-.45,0-.25-.2-.44-.45-.44Z"/><path class="cls-9" d="M115.07,179.96s-.07,0-.1,0c-.25,.03-.42,.25-.4,.5,.03,.25,.25,.42,.5,.4,0,0,0,0,0,0,.25,0,.44-.2,.44-.45,0-.25-.2-.44-.44-.44Z"/></g><g><path class="cls-11" d="M157.4,210.14h-7.42c0-25.4-20.66-46.06-46.06-46.06s-46.06,20.66-46.06,46.06h-7.42c0-29.49,23.99-53.47,53.47-53.47s53.47,23.99,53.47,53.47Z"/><path class="cls-6" d="M158.88,211.18H46.22l9.7,22.63c1.68,6.83,7.81,11.63,14.84,11.63h63.58c7.03,0,13.16-4.8,14.84-11.63l9.7-22.63Z"/><g><path class="cls-5" d="M74.72,207.66c-.94,.23-1,0-1.93,.23-.94,.23-.92,.3-1.86,.53-.94,.23-.9,.4-1.84,.63s-.98,.05-1.92,.28c-.94,.23-.88,.48-1.82,.72s-.98,.05-1.92,.29c-.94,.23-.94,.23-1.88,.46s-.88,.47-1.82,.7c-.94,.23-.93,.26-1.87,.5s-.98,.06-1.92,.29c-.95,.24-1.97-.37-2.21-1.33-.23-.91,0-.97-.22-1.88s-.28-.9-.51-1.81-.14-.93-.36-1.84-.43-.86-.65-1.77-.06-.95-.29-1.86-.61-.82-.83-1.72-.13-.93-.36-1.84-.06-.95-.28-1.86-.33-.89-.55-1.8-.14-.93-.37-1.84c-.24-.95,.28-1.97,1.23-2.2s.94-.21,1.88-.45c.94-.23,.99-.03,1.93-.26,.94-.23,.93-.27,1.87-.5s.87-.53,1.8-.76,.94-.22,1.88-.45,1.03,.13,1.97-.1,.9-.38,1.84-.61,.97-.13,1.91-.36,.87-.5,1.81-.73,.98-.09,1.92-.32,2.05,.27,2.29,1.22c.23,.91,.29,.89,.52,1.8s0,.97,.22,1.88,.26,.9,.49,1.81,.05,.95,.27,1.86,.43,.86,.66,1.77,.38,.87,.6,1.78,.13,.93,.35,1.84,.21,.92,.43,1.83,.04,.96,.26,1.87,.24,.91,.47,1.82c.24,.95-.23,1.96-1.19,2.2Z"/><path class="cls-8" d="M75.39,208.57c-1,.25-1.06,.02-2.06,.27s-.99,.31-1.99,.56c-1,.25-.96,.41-1.97,.66s-1.05,.07-2.05,.32-.94,.49-1.95,.74-1.05,.08-2.05,.33c-1.01,.25-1.01,.24-2.01,.49s-.95,.48-1.96,.73c-1.01,.25-1,.28-2,.53-.95,.24-2.01-.54-2.25-1.5-.25-1-.25-1-.5-2.01s-.02-1.06-.27-2.06c-.25-1-.3-.99-.55-2-.25-1-.17-1.03-.41-2.03s-.44-.96-.69-1.96-.09-1.04-.34-2.05-.62-.91-.87-1.92-.16-1.03-.41-2.03-.09-1.05-.34-2.05c-.24-.95,.27-1.94,1.23-2.17,1-.25,1.02-.17,2.03-.42s.98-.35,1.98-.6c1-.25,1.01-.23,2.01-.48s1.05-.05,2.06-.3c1-.25,1-.28,2-.53s.93-.54,1.94-.79c1.01-.25,1.01-.24,2.01-.48s1.09,.1,2.1-.15,.97-.39,1.98-.64c.95-.24,1.75,.33,1.98,1.28,.25,1,.51,.94,.76,1.94s.11,1.04,.36,2.04,.43,.96,.68,1.96c.25,1,.31,.99,.56,1.99s.02,1.06,.27,2.07,.29,1,.54,2,.08,1.05,.32,2.05,.45,.96,.7,1.96,.39,.97,.64,1.98c.24,.95-.52,2.03-1.47,2.27Z"/><polygon class="cls-5" points="54.18 193.93 53.47 194.15 52.78 194.19 52.13 194.36 51.44 194.36 50.8 194.56 50.23 194.66 50.06 194.34 50.73 194.3 51.32 193.87 51.98 193.77 52.67 193.73 53.3 193.5 53.94 193.39 54.18 193.93"/><polygon class="cls-5" points="60.42 198.32 59.71 198.55 59.02 198.59 58.38 198.75 57.68 198.75 57.04 198.95 56.47 199.06 56.3 198.74 56.97 198.7 57.56 198.27 58.23 198.17 58.91 198.13 59.54 197.9 60.19 197.79 60.42 198.32"/><polygon class="cls-5" points="67.72 201.74 67 201.96 66.32 202 65.67 202.17 64.98 202.17 64.34 202.37 63.77 202.47 63.6 202.15 64.27 202.11 64.86 201.68 65.52 201.59 66.2 201.54 66.84 201.31 67.48 201.2 67.72 201.74"/><polygon class="cls-5" points="74.3 205.25 73.59 205.48 72.9 205.52 72.26 205.68 71.56 205.68 70.92 205.88 70.35 205.99 70.18 205.67 70.85 205.63 71.44 205.2 72.11 205.1 72.79 205.06 73.42 204.83 74.07 204.72 74.3 205.25"/><polygon class="cls-5" points="58.72 209.12 58.01 209.35 57.33 209.38 56.68 209.55 55.98 209.55 55.34 209.75 54.77 209.86 54.6 209.53 55.27 209.49 55.86 209.06 56.53 208.97 57.21 208.92 57.84 208.69 58.49 208.59 58.72 209.12"/><polygon class="cls-5" points="70.19 188.66 69.47 188.89 68.79 188.92 68.14 189.09 67.45 189.09 66.8 189.29 66.23 189.4 66.07 189.07 66.74 189.03 67.32 188.6 67.99 188.51 68.67 188.46 69.31 188.23 69.95 188.13 70.19 188.66"/></g><g><path class="cls-5" d="M94.66,201.14c0,.75-.04,1.53-.16,2.24s-.52,1.42-.77,2.1-.57,1.37-.93,2.01-1,1.08-1.47,1.64-.93,1.11-1.49,1.58-1.19,.8-1.83,1.17-1.18,.87-1.88,1.13-1.42,.25-2.16,.38-1.41,.62-2.16,.62-1.5-.17-2.22-.3-1.4-.51-2.08-.76-1.41-.46-2.04-.83-1.19-.87-1.75-1.34-1.17-.91-1.65-1.47-.88-1.19-1.25-1.82-.46-1.39-.72-2.08-.47-1.36-.6-2.09-.53-1.42-.53-2.17,.08-1.51,.21-2.23,.72-1.33,.96-2.02,.4-1.41,.77-2.04,.88-1.16,1.35-1.72,.78-1.29,1.34-1.77,1.27-.76,1.9-1.13,1.22-.88,1.92-1.13,1.41-.52,2.14-.65c.71-.12,1.49,.07,2.24,.07s1.49,.02,2.2,.15c.73,.13,1.38,.51,2.06,.76s1.45,.35,2.09,.72,1.36,.67,1.92,1.14,1.03,1.1,1.5,1.66,.89,1.19,1.26,1.83,.49,1.39,.74,2.08,.45,1.37,.58,2.1,.51,1.43,.51,2.18Z"/><path class="cls-8" d="M95.78,202.32c0,.75-.01,1.52-.14,2.23s-.39,1.46-.64,2.14-.58,1.39-.94,2.02-.75,1.31-1.22,1.87-1.14,.97-1.7,1.45-1.21,.83-1.85,1.2-1.22,.88-1.92,1.13-1.44,.36-2.18,.48-1.46,.12-2.21,.12-1.52,.14-2.23,.01c-.73-.13-1.36-.66-2.05-.91s-1.4-.46-2.03-.83-1.4-.6-1.96-1.07c-.56-.47-.84-1.25-1.31-1.82s-1.02-1.07-1.39-1.71-.73-1.29-.98-1.99-.18-1.46-.31-2.19-.26-1.41-.26-2.16-.12-1.5,0-2.21,.52-1.39,.77-2.07,.31-1.49,.68-2.12,.96-1.13,1.44-1.7,.99-1.07,1.56-1.55,1.02-1.12,1.66-1.49,1.32-.73,2.02-.98,1.47-.26,2.21-.39,1.46-.2,2.2-.2,1.45,.33,2.16,.45,1.43,.25,2.11,.5,1.29,.64,1.92,1.01,1.35,.59,1.92,1.07,.94,1.11,1.41,1.68,1.25,.92,1.62,1.56,.6,1.37,.85,2.07,.26,1.45,.39,2.18,.41,1.43,.41,2.18Z"/><polygon class="cls-5" points="77.92 194.34 77.07 194.39 76.3 194.25 75.54 194.25 74.78 194.06 74.01 194.1 73.35 194.07 73.25 193.66 74.01 193.8 74.77 193.49 75.54 193.56 76.3 193.7 77.07 193.62 77.81 193.68 77.92 194.34"/><polygon class="cls-5" points="85.87 200.31 85.02 200.37 84.25 200.22 83.49 200.23 82.72 200.03 81.96 200.08 81.3 200.04 81.2 199.64 81.96 199.78 82.72 199.47 83.48 199.54 84.25 199.68 85.02 199.6 85.76 199.66 85.87 200.31"/><polygon class="cls-5" points="94.54 205.67 93.68 205.72 92.92 205.58 92.15 205.58 91.39 205.39 90.62 205.44 89.96 205.4 89.87 205 90.62 205.14 91.38 204.82 92.15 204.9 92.91 205.04 93.68 204.96 94.42 205.01 94.54 205.67"/><polygon class="cls-5" points="77.92 205.67 77.07 205.72 76.3 205.58 75.54 205.58 74.78 205.39 74.01 205.44 73.35 205.4 73.25 205 74.01 205.14 74.77 204.82 75.54 204.9 76.3 205.04 77.07 204.96 77.81 205.01 77.92 205.67"/><polygon class="cls-5" points="84.24 211.36 83.38 211.42 82.62 211.28 81.86 211.28 81.09 211.09 80.32 211.13 79.67 211.1 79.57 210.69 80.32 210.83 81.09 210.52 81.85 210.59 82.61 210.73 83.38 210.65 84.12 210.71 84.24 211.36"/></g><g><path class="cls-5" d="M96.25,187.54c-.52,.89-.78,.74-1.3,1.62s-.25,1.05-.78,1.93-.89,.67-1.41,1.56-.37,.98-.89,1.87-.6,.84-1.12,1.73-.41,.95-.94,1.84-.59,.85-1.11,1.74-.58,.86-1.1,1.74-.17,1.09-.69,1.98-.66,.81-1.18,1.7-.62,.83-1.15,1.72c-.52,.89-.28,1.03-.81,1.92-.39,.67-.11,1.24,.67,1.24,1.05,0,1.05,0,2.09,0s1.05,.03,2.09,.03,1.05,.12,2.09,.12,1.05,.22,2.09,.22,1.05-.38,2.09-.38,1.05-.06,2.09-.06,1.05,.07,2.09,.07,1.05,0,2.09,0,1.05-.08,2.09-.08,1.05,.2,2.09,.2,1.05,.08,2.1,.08,1.05-.23,2.1-.23c.78,0,1.18-.61,.79-1.28-.52-.89-.46-.93-.98-1.81s-.71-.78-1.24-1.66-.2-1.08-.72-1.96c-.52-.89-.62-.83-1.15-1.72s-.75-.75-1.28-1.64-.19-1.08-.72-1.97-.67-.8-1.19-1.69-.57-.86-1.09-1.75-.28-1.03-.8-1.92-.59-.85-1.12-1.74-.7-.79-1.22-1.68-.33-1-.86-1.89c-.39-.66-1.35-.52-1.74,.14Z"/><path class="cls-8" d="M96.86,188.21c-.51,.89-.76,.74-1.27,1.63s-.25,1.04-.76,1.93-.87,.68-1.38,1.57-.36,.97-.87,1.86-.58,.84-1.1,1.73-.4,.95-.92,1.84-.57,.85-1.09,1.74-.56,.86-1.08,1.74-.17,1.09-.68,1.97-.65,.81-1.16,1.7-.61,.83-1.12,1.72-.27,1.03-.79,1.91c-.39,.67-.1,1.24,.68,1.24,1.02,0,1.02,0,2.05,0s1.02,.03,2.05,.03,1.02,.12,2.05,.12,1.02,.21,2.05,.21,1.02-.37,2.05-.37,1.02-.06,2.05-.06,1.02,.07,2.05,.07,1.02,0,2.05,0,1.02-.08,2.05-.08,1.02,.19,2.05,.19,1.03,.08,2.05,.08,1.03-.23,2.05-.23c.77,0,1.18-.61,.79-1.28-.51-.89-.45-.92-.96-1.81s-.7-.78-1.21-1.66-.2-1.07-.71-1.95-.61-.83-1.12-1.72-.74-.76-1.25-1.64-.19-1.07-.7-1.96-.65-.8-1.17-1.69c-.51-.89-.55-.86-1.07-1.75s-.27-1.03-.78-1.91-.58-.85-1.09-1.74-.68-.79-1.2-1.68-.33-1-.84-1.88c-.39-.67-1.36-.54-1.75,.13Z"/><polygon class="cls-5" points="107.1 208.2 106.32 208.25 105.62 208.12 104.92 208.12 104.22 207.95 103.52 207.99 102.92 207.95 102.83 207.59 103.52 207.71 104.22 207.43 104.92 207.5 105.61 207.62 106.31 207.55 106.99 207.6 107.1 208.2"/><polygon class="cls-5" points="96.72 203.33 95.94 203.38 95.24 203.25 94.54 203.25 93.84 203.08 93.14 203.12 92.54 203.08 92.45 202.71 93.14 202.84 93.84 202.56 94.54 202.62 95.24 202.75 95.94 202.68 96.61 202.73 96.72 203.33"/><polygon class="cls-5" points="97.09 194.83 96.31 194.88 95.61 194.74 94.91 194.75 94.21 194.57 93.51 194.61 92.91 194.58 92.82 194.21 93.51 194.34 94.21 194.05 94.9 194.12 95.6 194.25 96.3 194.17 96.98 194.23 97.09 194.83"/><polygon class="cls-5" points="101.89 200.12 101.11 200.17 100.41 200.04 99.72 200.04 99.02 199.87 98.32 199.91 97.72 199.88 97.63 199.51 98.32 199.63 99.01 199.35 99.71 199.42 100.41 199.54 101.11 199.47 101.79 199.52 101.89 200.12"/><polygon class="cls-5" points="89.5 207.69 88.72 207.74 88.02 207.6 87.32 207.61 86.62 207.43 85.92 207.47 85.32 207.44 85.23 207.07 85.92 207.2 86.62 206.91 87.32 206.98 88.02 207.11 88.72 207.03 89.39 207.09 89.5 207.69"/></g><g><path class="cls-5" d="M118.3,205.35c0,.46-.02,.93-.1,1.37s-.32,.87-.47,1.29-.35,.84-.57,1.23-.61,.66-.9,1.01-.57,.68-.92,.97-.73,.49-1.12,.71-.73,.54-1.15,.69-.87,.16-1.32,.23-.86,.38-1.32,.38-.92-.1-1.36-.18-.86-.31-1.28-.46-.86-.28-1.25-.51-.73-.53-1.07-.82-.72-.56-1.01-.9-.54-.73-.77-1.12-.28-.85-.44-1.28-.29-.83-.37-1.28-.32-.87-.32-1.33,.05-.93,.13-1.36,.44-.82,.59-1.24,.25-.87,.47-1.25,.54-.71,.83-1.05,.48-.79,.82-1.08,.78-.47,1.17-.69,.75-.54,1.17-.69,.86-.32,1.31-.4,.91,.04,1.37,.04,.91,.01,1.35,.09,.85,.31,1.26,.47,.89,.21,1.28,.44,.83,.41,1.18,.7,.63,.67,.92,1.02,.54,.73,.77,1.12,.3,.85,.45,1.28,.28,.84,.36,1.29,.31,.88,.31,1.33Z"/><path class="cls-8" d="M118.98,206.08c0,.46,0,.93-.09,1.37s-.24,.89-.39,1.31-.35,.85-.58,1.24-.46,.8-.75,1.15-.7,.6-1.04,.89-.74,.51-1.13,.74-.75,.54-1.17,.7-.88,.22-1.33,.3-.9,.07-1.35,.07-.93,.08-1.37,0-.84-.4-1.26-.56-.86-.28-1.25-.51-.86-.37-1.2-.66-.52-.77-.81-1.11-.62-.66-.85-1.05-.44-.79-.6-1.22-.11-.89-.19-1.34-.16-.87-.16-1.33-.08-.92,0-1.35,.32-.85,.47-1.27,.19-.91,.41-1.3,.59-.69,.88-1.04,.61-.66,.95-.95,.63-.69,1.02-.91,.81-.45,1.24-.6,.9-.16,1.35-.24,.89-.12,1.35-.12,.89,.2,1.32,.28,.88,.15,1.3,.31,.79,.39,1.18,.62,.83,.36,1.17,.65,.57,.68,.87,1.03,.77,.56,.99,.96,.37,.84,.52,1.27,.16,.89,.24,1.34,.25,.88,.25,1.34Z"/><polygon class="cls-5" points="108.04 201.19 107.52 201.22 107.05 201.13 106.58 201.13 106.11 201.02 105.64 201.04 105.24 201.02 105.18 200.77 105.64 200.86 106.11 200.67 106.58 200.71 107.04 200.8 107.51 200.75 107.97 200.79 108.04 201.19"/><polygon class="cls-5" points="112.91 204.85 112.39 204.88 111.92 204.8 111.45 204.8 110.98 204.68 110.51 204.71 110.11 204.69 110.05 204.44 110.51 204.52 110.98 204.33 111.45 204.38 111.92 204.46 112.39 204.41 112.84 204.45 112.91 204.85"/><polygon class="cls-5" points="118.22 208.13 117.7 208.17 117.23 208.08 116.76 208.08 116.29 207.96 115.82 207.99 115.42 207.97 115.36 207.72 115.82 207.81 116.29 207.61 116.76 207.66 117.23 207.75 117.7 207.7 118.15 207.73 118.22 208.13"/><polygon class="cls-5" points="108.04 208.13 107.52 208.17 107.05 208.08 106.58 208.08 106.11 207.96 105.64 207.99 105.24 207.97 105.18 207.72 105.64 207.81 106.11 207.61 106.58 207.66 107.04 207.75 107.51 207.7 107.97 207.73 108.04 208.13"/><polygon class="cls-5" points="111.91 211.62 111.39 211.66 110.92 211.57 110.45 211.57 109.98 211.45 109.51 211.48 109.11 211.46 109.05 211.21 109.51 211.3 109.98 211.11 110.45 211.15 110.91 211.24 111.38 211.19 111.84 211.22 111.91 211.62"/></g><g><path class="cls-5" d="M128.37,201.37c0,.56-.03,1.13-.12,1.66s-.38,1.05-.57,1.56-.42,1.02-.69,1.49-.74,.8-1.09,1.22-.69,.82-1.11,1.17-.88,.59-1.36,.86-.88,.65-1.39,.84-1.06,.19-1.6,.28-1.05,.46-1.6,.46-1.11-.13-1.64-.22-1.04-.38-1.55-.56-1.04-.34-1.51-.61c-.47-.27-.88-.64-1.3-.99s-.87-.67-1.22-1.09-.66-.88-.93-1.35-.34-1.03-.53-1.55-.35-1.01-.44-1.55-.39-1.05-.39-1.61,.06-1.12,.15-1.65,.53-.99,.72-1.5,.3-1.05,.57-1.52,.65-.86,1-1.27,.58-.96,.99-1.31,.94-.57,1.41-.84,.9-.65,1.42-.84,1.05-.39,1.59-.48,1.1,.05,1.66,.05,1.1,.02,1.63,.11,1.02,.38,1.53,.57,1.08,.26,1.55,.53,1.01,.5,1.43,.85,.76,.81,1.11,1.23,.66,.88,.93,1.36,.36,1.03,.55,1.55,.34,1.02,.43,1.56,.38,1.06,.38,1.61Z"/><path class="cls-8" d="M129.21,202.25c0,.56-.01,1.13-.1,1.65s-.29,1.08-.47,1.59-.43,1.03-.7,1.5-.56,.97-.91,1.39-.84,.72-1.26,1.07-.9,.62-1.37,.89-.9,.65-1.42,.84-1.07,.26-1.61,.36-1.08,.09-1.64,.09-1.13,.1-1.66,0-1.01-.49-1.52-.67-1.04-.34-1.51-.61-1.04-.45-1.45-.8-.62-.93-.97-1.35-.76-.79-1.03-1.27-.54-.96-.73-1.47-.14-1.08-.23-1.62-.19-1.05-.19-1.6-.09-1.11,0-1.64,.38-1.03,.57-1.54,.23-1.1,.5-1.57,.72-.84,1.07-1.26,.74-.8,1.15-1.15,.76-.83,1.23-1.11,.98-.54,1.5-.73,1.09-.19,1.64-.29,1.08-.14,1.63-.14,1.07,.24,1.6,.33,1.06,.19,1.57,.37,.96,.47,1.43,.75,1,.44,1.42,.79,.7,.83,1.05,1.24,.93,.68,1.2,1.16,.44,1.02,.63,1.53,.19,1.07,.29,1.62,.31,1.06,.31,1.62Z"/><polygon class="cls-5" points="115.97 196.32 115.33 196.37 114.76 196.26 114.2 196.26 113.63 196.12 113.06 196.15 112.57 196.13 112.5 195.83 113.06 195.93 113.63 195.7 114.19 195.75 114.76 195.86 115.33 195.8 115.88 195.84 115.97 196.32"/><polygon class="cls-5" points="121.86 200.76 121.23 200.8 120.66 200.69 120.09 200.69 119.53 200.55 118.96 200.59 118.47 200.56 118.4 200.26 118.95 200.36 119.52 200.13 120.09 200.19 120.66 200.29 121.22 200.23 121.77 200.27 121.86 200.76"/><polygon class="cls-5" points="128.29 204.73 127.65 204.77 127.09 204.66 126.52 204.67 125.95 204.52 125.38 204.56 124.89 204.53 124.82 204.23 125.38 204.34 125.95 204.1 126.51 204.16 127.08 204.26 127.65 204.2 128.2 204.25 128.29 204.73"/><polygon class="cls-5" points="115.97 204.73 115.33 204.77 114.76 204.66 114.2 204.67 113.63 204.52 113.06 204.56 112.57 204.53 112.5 204.23 113.06 204.34 113.63 204.1 114.19 204.16 114.76 204.26 115.33 204.2 115.88 204.25 115.97 204.73"/><polygon class="cls-5" points="120.65 208.95 120.01 208.99 119.45 208.89 118.88 208.89 118.31 208.75 117.75 208.78 117.26 208.75 117.18 208.46 117.74 208.56 118.31 208.33 118.88 208.38 119.44 208.49 120.01 208.43 120.56 208.47 120.65 208.95"/></g><g><path class="cls-5" d="M150.28,192.29c-.94-.23-1,0-1.93-.23s-.92-.3-1.86-.53-.9-.4-1.84-.63-.98-.05-1.92-.28-.88-.48-1.82-.72c-.94-.23-.98-.05-1.92-.29s-.94-.23-1.88-.46c-.94-.23-.88-.47-1.82-.7-.94-.23-.93-.26-1.87-.5s-.98-.06-1.92-.29c-.95-.24-1.97,.37-2.21,1.33-.23,.91,0,.97-.22,1.88s-.28,.9-.51,1.81-.14,.93-.36,1.84-.43,.86-.65,1.77-.06,.95-.29,1.86-.61,.82-.83,1.72-.13,.93-.36,1.84c-.23,.91-.06,.95-.28,1.86s-.33,.89-.55,1.8-.14,.93-.37,1.84c-.24,.95,.28,1.97,1.23,2.2s.94,.21,1.88,.45c.94,.23,.99,.03,1.93,.26s.93,.27,1.87,.5,.87,.53,1.8,.76c.94,.23,.94,.22,1.88,.45s1.03-.13,1.97,.1,.9,.38,1.84,.61,.97,.13,1.91,.36,.87,.5,1.81,.73,.98,.09,1.92,.32c.95,.24,2.05-.27,2.29-1.22,.23-.91,.29-.89,.52-1.8s0-.97,.22-1.88,.26-.9,.49-1.81,.05-.95,.27-1.86,.43-.86,.66-1.77,.38-.87,.6-1.78,.13-.93,.35-1.84,.21-.92,.43-1.83,.04-.96,.26-1.87,.24-.91,.47-1.82c.24-.95-.23-1.96-1.19-2.2Z"/><path class="cls-8" d="M150.95,191.38c-1-.25-1.06-.02-2.06-.27s-.99-.31-1.99-.56-.96-.41-1.97-.66-1.05-.07-2.05-.32-.94-.49-1.95-.74c-1-.25-1.05-.08-2.05-.33s-1.01-.24-2.01-.49c-1.01-.25-.95-.48-1.96-.73s-1-.28-2-.53c-.95-.24-2.01,.54-2.25,1.5-.25,1-.25,1-.5,2.01-.25,1-.02,1.06-.27,2.06s-.3,.99-.55,2c-.25,1-.17,1.03-.41,2.03s-.44,.96-.69,1.96-.09,1.04-.34,2.05-.62,.91-.87,1.92c-.25,1.01-.16,1.03-.41,2.03s-.09,1.05-.34,2.05c-.24,.95,.27,1.94,1.23,2.17,1,.25,1.02,.17,2.03,.42s.98,.35,1.98,.6c1,.25,1.01,.23,2.01,.48,1,.25,1.05,.05,2.06,.3s1,.28,2,.53,.93,.54,1.94,.79,1.01,.24,2.01,.48,1.09-.1,2.1,.15,.97,.39,1.98,.64c.95,.24,1.75-.33,1.98-1.28,.25-1,.51-.94,.76-1.94s.11-1.04,.36-2.04,.43-.96,.68-1.96,.31-.99,.56-1.99,.02-1.06,.27-2.07,.29-1,.54-2,.08-1.05,.32-2.05,.45-.96,.7-1.96,.39-.97,.64-1.98c.24-.95-.52-2.03-1.47-2.27Z"/><polygon class="cls-5" points="129.74 206.02 129.03 205.8 128.35 205.76 127.7 205.59 127.01 205.6 126.36 205.4 125.79 205.29 125.62 205.61 126.3 205.65 126.88 206.08 127.55 206.18 128.23 206.22 128.86 206.45 129.51 206.56 129.74 206.02"/><polygon class="cls-5" points="135.99 201.63 135.27 201.4 134.59 201.36 133.94 201.2 133.25 201.2 132.6 201 132.03 200.89 131.87 201.21 132.54 201.25 133.12 201.68 133.79 201.78 134.47 201.82 135.11 202.05 135.75 202.16 135.99 201.63"/><polygon class="cls-5" points="143.28 198.21 142.57 197.99 141.89 197.95 141.24 197.78 140.54 197.79 139.9 197.59 139.33 197.48 139.16 197.8 139.84 197.84 140.42 198.27 141.09 198.37 141.77 198.41 142.4 198.64 143.05 198.75 143.28 198.21"/><polygon class="cls-5" points="149.87 194.7 149.15 194.47 148.47 194.43 147.82 194.27 147.13 194.27 146.48 194.07 145.91 193.96 145.75 194.28 146.42 194.32 147 194.75 147.67 194.85 148.35 194.89 148.99 195.12 149.63 195.23 149.87 194.7"/><polygon class="cls-5" points="134.29 190.83 133.57 190.61 132.89 190.57 132.24 190.4 131.55 190.4 130.9 190.2 130.33 190.1 130.17 190.42 130.84 190.46 131.42 190.89 132.09 190.98 132.77 191.03 133.41 191.26 134.05 191.36 134.29 190.83"/><polygon class="cls-5" points="145.75 211.29 145.03 211.07 144.35 211.03 143.7 210.86 143.01 210.86 142.37 210.66 141.8 210.56 141.63 210.88 142.3 210.92 142.89 211.35 143.55 211.44 144.23 211.49 144.87 211.72 145.51 211.83 145.75 211.29"/></g><rect class="cls-6" x="40.27" y="204.47" width="124.57" height="11.34" rx="2.71" ry="2.71"/><rect class="cls-10" x="101.5" y="220.91" width="17.77" height="3.45" rx=".82" ry=".82"/><rect class="cls-10" x="123.52" y="229.02" width="17.77" height="3.45" rx=".82" ry=".82"/><rect class="cls-10" x="83.81" y="228.81" width="17.77" height="3.45" rx=".82" ry=".82"/><rect class="cls-10" x="58.79" y="220.91" width="17.77" height="3.45" rx=".82" ry=".82"/><rect class="cls-10" x="84.85" y="212.35" width="66.84" height="3.45" rx=".82" ry=".82"/><rect class="cls-10" x="66.18" y="236.43" width="17.77" height="3.45" rx=".82" ry=".82"/><g><g><path class="cls-8" d="M138.33,245.3c0,1.33-.46,2.5-.5,3.52-.07,1.41,.09,2.67-.29,3.58-.45,1.07-1.7,1.25-2.97,1.78-.87,.36-1.74,1.53-3.17,1.71-1,.13-2.21,.06-3.55,.12-1.06,.05-2.24-.09-3.53-.07-1.08,.01-2.26-.25-3.52-.25s-2.44,.3-3.52,.28c-1.29-.02-2.47,.09-3.53,.04-1.34-.06-2.47-.55-3.48-.67-1.43-.18-2.74,.11-3.61-.26-1.27-.53-1.64-1.82-2.09-2.89-.38-.91-.07-1.99-.13-3.39-.05-1.02-.16-2.15-.16-3.49s-.69-2.64-.41-3.86,.94-2.43,1.49-3.57,1.71-1.89,2.5-2.88,1.6-1.85,2.6-2.65,1.95-1.5,3.1-2.06,2.29-.83,3.55-1.12c1.22-.28,2.38-.53,3.69-.53s2.63-.5,3.86-.22c1.26,.29,2.56,.66,3.7,1.21s1.82,1.9,2.81,2.69,2.16,1.37,2.96,2.37,2.06,1.79,2.62,2.95c.55,1.14,.93,2.5,1.22,3.76s.36,2.61,.36,3.92Z"/><path class="cls-5" d="M137.78,251.14c-.03,.47-.09,.89-.24,1.25-.45,1.07-1.7,1.25-2.97,1.78-.87,.36-1.74,1.53-3.17,1.71-1,.12-2.2,.06-3.55,.12-1.06,.05-2.24-.09-3.52-.07-1.09,.02-2.26-.25-3.52-.25s-2.43,.3-3.52,.28c-1.29-.02-2.47,.09-3.53,.04-1.34-.06-2.47-.55-3.48-.67-1.42-.18-2.74,.11-3.61-.26-1.27-.53-1.64-1.82-2.08-2.9-.09-.21-.14-.43-.16-.67,.34,.75,.81,1.46,1.67,1.82,.9,.38,2.28,.08,3.76,.27,1.04,.14,2.22,.64,3.62,.7,1.1,.05,2.32-.06,3.66-.04,1.13,.02,2.35-.3,3.66-.3s2.54,.28,3.66,.27c1.34-.02,2.57,.12,3.66,.07,1.39-.06,2.64,0,3.69-.12,1.48-.19,2.39-1.4,3.29-1.78,1.04-.43,2.07-.64,2.68-1.25Z"/><polygon class="cls-5" points="104.49 248.64 105.2 248.49 105.79 248.21 106.41 248.04 106.99 247.71 107.63 247.58 108.16 247.41 108.15 247.05 107.56 247.34 106.87 247.25 106.27 247.48 105.67 247.76 105.03 247.87 104.44 248.08 104.49 248.64"/><polygon class="cls-5" points="107.3 236.83 108.22 237.17 109.1 237.27 109.93 237.53 110.83 237.58 111.66 237.89 112.39 238.07 112.63 237.66 111.76 237.56 111.03 236.96 110.17 236.79 109.29 236.68 108.48 236.34 107.65 236.15 107.3 236.83"/><polygon class="cls-5" points="133.13 235.1 132.35 235.05 131.65 235.18 130.95 235.18 130.25 235.36 129.54 235.32 128.94 235.35 128.85 235.72 129.54 235.59 130.24 235.88 130.94 235.81 131.64 235.68 132.34 235.76 133.02 235.7 133.13 235.1"/><polygon class="cls-5" points="113.36 253.06 112.64 253.08 112 253.26 111.36 253.32 110.73 253.54 110.08 253.56 109.53 253.65 109.48 253.99 110.11 253.82 110.77 254.02 111.41 253.9 112.04 253.72 112.69 253.73 113.31 253.62 113.36 253.06"/><polygon class="cls-5" points="112.63 231.93 113.69 232.06 114.65 231.93 115.59 231.98 116.56 231.79 117.51 231.9 118.33 231.9 118.47 231.4 117.53 231.53 116.6 231.09 115.65 231.13 114.69 231.26 113.74 231.1 112.82 231.13 112.63 231.93"/><polygon class="cls-5" points="117.4 241.84 118.39 241.96 119.28 241.84 120.17 241.89 121.06 241.71 121.95 241.81 122.71 241.81 122.85 241.35 121.97 241.46 121.1 241.06 120.21 241.1 119.32 241.21 118.44 241.07 117.58 241.09 117.4 241.84"/><polygon class="cls-5" points="127.22 239.36 126.53 239.28 125.91 239.37 125.29 239.33 124.67 239.45 124.05 239.38 123.52 239.39 123.42 239.71 124.04 239.63 124.64 239.91 125.26 239.88 125.88 239.8 126.5 239.9 127.1 239.89 127.22 239.36"/><polygon class="cls-5" points="116.43 245.47 115.74 245.55 115.12 245.47 114.5 245.51 113.88 245.38 113.26 245.45 112.73 245.45 112.63 245.13 113.24 245.21 113.85 244.93 114.47 244.95 115.09 245.03 115.71 244.94 116.31 244.95 116.43 245.47"/><polygon class="cls-5" points="124.77 245.42 125.75 245.54 126.64 245.42 127.53 245.47 128.42 245.29 129.31 245.39 130.07 245.39 130.21 244.93 129.33 245.05 128.46 244.64 127.58 244.68 126.68 244.79 125.8 244.65 124.94 244.67 124.77 245.42"/><polygon class="cls-5" points="136.83 249.46 135.77 249.34 134.82 249.48 133.87 249.43 132.91 249.62 131.96 249.52 131.14 249.52 130.99 250.02 131.93 249.89 132.87 250.33 133.82 250.28 134.78 250.15 135.72 250.3 136.65 250.27 136.83 249.46"/></g><path class="cls-4" d="M114.88,229.75c-.84,.5-1.6,1.07-2.38,1.69-1.09,.87-1.96,1.8-2.83,2.89-.86,1.08-2.12,1.88-2.72,3.14-.6,1.24-1.31,2.52-1.63,3.89-.3,1.33,.45,2.79,.45,4.21s.12,2.69,.18,3.8c.07,1.53-.27,2.71,.15,3.7,.29,.7,.55,1.48,1.01,2.12-.16-.03-.3-.07-.43-.13-1.27-.53-1.64-1.82-2.08-2.9-.38-.9-.07-1.99-.14-3.39-.05-1.02-.16-2.15-.16-3.48s-.69-2.64-.41-3.86c.29-1.26,.95-2.43,1.49-3.57,.56-1.16,1.71-1.89,2.5-2.88,.8-1,1.6-1.85,2.6-2.65,.99-.79,1.95-1.5,3.1-2.06,.43-.21,.87-.38,1.32-.52Z"/></g><g><g><path class="cls-8" d="M148.72,251.96c0,1-.34,1.88-.38,2.65-.05,1.06,.07,2.01-.22,2.7-.34,.81-1.28,.94-2.24,1.34-.66,.27-1.31,1.15-2.39,1.29-.76,.1-1.67,.05-2.67,.09-.8,.04-1.69-.07-2.66-.05-.82,.01-1.7-.19-2.66-.19s-1.84,.22-2.66,.21c-.97-.01-1.86,.07-2.66,.03-1.01-.05-1.87-.41-2.62-.51-1.08-.14-2.07,.08-2.73-.19-.96-.4-1.24-1.37-1.57-2.18-.28-.68-.05-1.5-.1-2.56-.04-.77-.12-1.62-.12-2.63s-.52-1.99-.31-2.91,.71-1.83,1.12-2.69,1.29-1.42,1.89-2.17c.6-.75,1.21-1.4,1.96-2s1.47-1.13,2.34-1.55,1.73-.63,2.68-.84c.92-.21,1.79-.4,2.78-.4s1.99-.38,2.91-.17,1.93,.5,2.79,.91,1.37,1.43,2.12,2.03c.75,.6,1.63,1.03,2.23,1.79s1.55,1.35,1.97,2.22,.7,1.89,.92,2.84,.27,1.97,.27,2.95Z"/><path class="cls-5" d="M148.31,256.36c-.02,.35-.07,.67-.18,.94-.34,.81-1.28,.94-2.24,1.34-.65,.27-1.31,1.15-2.39,1.29-.76,.09-1.66,.04-2.67,.09-.8,.04-1.69-.07-2.66-.05-.82,.01-1.7-.19-2.66-.19s-1.83,.22-2.65,.21c-.97-.01-1.86,.07-2.66,.03-1.01-.04-1.86-.41-2.62-.51-1.07-.14-2.07,.08-2.72-.2-.96-.4-1.24-1.37-1.57-2.18-.07-.16-.11-.33-.12-.5,.26,.57,.61,1.1,1.26,1.37,.68,.29,1.72,.06,2.83,.2,.79,.1,1.68,.48,2.73,.53,.83,.04,1.75-.05,2.76-.03,.85,.01,1.77-.22,2.76-.22s1.91,.21,2.76,.2c1.01-.02,1.94,.09,2.76,.05,1.05-.05,1.99,0,2.78-.09,1.12-.15,1.8-1.05,2.48-1.34,.79-.33,1.56-.48,2.02-.94Z"/><polygon class="cls-5" points="123.2 254.48 123.73 254.37 124.18 254.15 124.65 254.03 125.09 253.78 125.56 253.68 125.96 253.55 125.96 253.28 125.52 253.5 124.99 253.43 124.54 253.61 124.09 253.82 123.6 253.9 123.16 254.06 123.2 254.48"/><polygon class="cls-5" points="125.32 245.57 126.01 245.83 126.68 245.91 127.3 246.1 127.98 246.14 128.6 246.37 129.15 246.51 129.34 246.2 128.68 246.12 128.13 245.67 127.48 245.54 126.82 245.46 126.21 245.2 125.58 245.06 125.32 245.57"/><polygon class="cls-5" points="144.8 244.27 144.21 244.23 143.68 244.33 143.15 244.33 142.62 244.46 142.09 244.43 141.64 244.45 141.57 244.73 142.09 244.64 142.62 244.85 143.15 244.8 143.68 244.71 144.21 244.76 144.72 244.72 144.8 244.27"/><polygon class="cls-5" points="129.89 257.81 129.34 257.83 128.86 257.97 128.38 258.01 127.91 258.18 127.42 258.19 127 258.26 126.96 258.52 127.43 258.38 127.94 258.54 128.42 258.44 128.89 258.31 129.38 258.32 129.85 258.24 129.89 257.81"/><polygon class="cls-5" points="129.34 241.88 130.13 241.97 130.86 241.87 131.57 241.92 132.3 241.77 133.01 241.85 133.63 241.85 133.74 241.48 133.03 241.57 132.33 241.24 131.61 241.27 130.89 241.37 130.17 241.25 129.48 241.27 129.34 241.88"/><polygon class="cls-5" points="132.94 249.35 133.68 249.44 134.35 249.35 135.02 249.39 135.7 249.25 136.36 249.33 136.94 249.33 137.04 248.98 136.38 249.07 135.73 248.76 135.06 248.79 134.38 248.88 133.72 248.77 133.07 248.79 132.94 249.35"/><polygon class="cls-5" points="140.34 247.48 139.82 247.42 139.35 247.48 138.89 247.46 138.42 247.55 137.95 247.5 137.55 247.5 137.48 247.74 137.94 247.68 138.39 247.9 138.86 247.87 139.33 247.81 139.8 247.89 140.25 247.88 140.34 247.48"/><polygon class="cls-5" points="132.2 252.09 131.68 252.15 131.21 252.09 130.75 252.12 130.28 252.02 129.81 252.08 129.41 252.07 129.34 251.83 129.8 251.89 130.25 251.68 130.72 251.7 131.19 251.76 131.66 251.68 132.11 251.7 132.2 252.09"/><polygon class="cls-5" points="138.49 252.05 139.23 252.14 139.91 252.05 140.57 252.09 141.25 251.96 141.92 252.03 142.49 252.03 142.6 251.68 141.93 251.77 141.28 251.46 140.61 251.49 139.94 251.58 139.27 251.47 138.62 251.49 138.49 252.05"/><polygon class="cls-5" points="147.59 255.1 146.79 255.01 146.07 255.11 145.35 255.07 144.63 255.22 143.91 255.14 143.29 255.15 143.18 255.52 143.9 255.42 144.6 255.75 145.32 255.71 146.04 255.62 146.75 255.73 147.45 255.71 147.59 255.1"/></g><path class="cls-4" d="M131.03,240.23c-.63,.38-1.2,.81-1.8,1.28-.82,.66-1.48,1.36-2.14,2.18-.65,.82-1.6,1.42-2.05,2.37-.45,.94-.99,1.9-1.23,2.94-.23,1,.34,2.1,.34,3.18s.09,2.03,.13,2.87c.05,1.16-.2,2.05,.11,2.79,.22,.53,.42,1.12,.76,1.6-.12-.02-.22-.05-.33-.1-.96-.4-1.24-1.37-1.57-2.18-.29-.68-.05-1.5-.1-2.56-.04-.77-.12-1.62-.12-2.63s-.52-1.99-.31-2.91c.22-.95,.71-1.83,1.13-2.69,.42-.87,1.29-1.43,1.89-2.18,.6-.75,1.21-1.4,1.96-2,.75-.6,1.47-1.13,2.34-1.55,.33-.16,.65-.29,.99-.39Z"/></g></g></g></svg>