<svg width="32" height="32" viewBox="0 0 32 32" fill="none" xmlns="http://www.w3.org/2000/svg">
<path d="M7.69483 31.2548C7.16489 31.2548 6.63995 31.0899 6.19 30.7649C5.39509 30.185 5.00513 29.2251 5.17011 28.2602L6.52996 20.341L0.775599 14.7317C0.0706772 14.0467 -0.174296 13.0419 0.125671 12.107C0.430637 11.1721 1.22055 10.5021 2.19544 10.3622L10.1446 9.20728L13.6992 2.00308C14.1341 1.12318 15.014 0.573242 15.9989 0.573242C16.9838 0.573242 17.8637 1.11818 18.2987 2.00308L21.8533 9.20728L29.8024 10.3622C30.7773 10.5021 31.5672 11.1721 31.8721 12.107C32.1771 13.0419 31.9271 14.0467 31.2222 14.7317L25.4679 20.3361L26.8277 28.2552C26.9927 29.2251 26.6027 30.185 25.8078 30.7599C25.0129 31.3348 23.978 31.4098 23.1081 30.9549L15.9989 27.2153L8.8897 30.9549C8.50974 31.1549 8.10479 31.2498 7.69483 31.2498V31.2548ZM15.9989 24.4456C16.4089 24.4456 16.8188 24.5456 17.1938 24.7406L24.058 28.3502L22.7482 20.706C22.6032 19.8761 22.8781 19.0262 23.4831 18.4363L29.0375 13.0219L21.3633 11.907C20.5284 11.787 19.8085 11.2621 19.4335 10.5071L16.0039 3.55291L12.5743 10.5071C12.1993 11.2621 11.4794 11.787 10.6445 11.907L2.97036 13.0219L8.52474 18.4363C9.12967 19.0262 9.40464 19.8711 9.25966 20.701L7.9498 28.3452L14.814 24.7356C15.189 24.5406 15.599 24.4406 16.0039 24.4406L15.9989 24.4456Z" fill="#F96163"/>
</svg>
