<svg width="32" height="32" viewBox="0 0 32 32" fill="none" xmlns="http://www.w3.org/2000/svg">
<path fill-rule="evenodd" clip-rule="evenodd" d="M16 29C23.1797 29 29 23.1797 29 16C29 8.8203 23.1797 3 16 3C8.8203 3 3 8.8203 3 16C3 23.1797 8.8203 29 16 29ZM16 32C24.8366 32 32 24.8366 32 16C32 7.16344 24.8366 0 16 0C7.16344 0 0 7.16344 0 16C0 24.8366 7.16344 32 16 32Z" fill="#8A510F"/>
<path d="M11.2877 10.9524C11.2877 10.4977 11.4564 10.1164 11.7937 9.80841C12.1311 9.48575 12.5931 9.24375 13.1797 9.08241C13.7664 8.92108 14.4484 8.84041 15.2257 8.84041C16.3257 8.84041 17.2497 9.01641 17.9977 9.36841C18.7604 9.70575 19.3324 10.1824 19.7137 10.7984C20.1097 11.3997 20.3077 12.0891 20.3077 12.8664C20.3077 13.6437 20.0877 14.4064 19.6477 15.1544C19.2077 15.8877 18.5257 16.6431 17.6017 17.4204L14.5437 19.9724H20.1317C20.2051 20.0897 20.2784 20.2657 20.3517 20.5004C20.4251 20.7204 20.4617 20.9624 20.4617 21.2264C20.4617 21.6811 20.3591 22.0111 20.1537 22.2164C19.9484 22.4217 19.6771 22.5244 19.3397 22.5244H11.6617C11.3831 22.3337 11.1631 22.0844 11.0017 21.7764C10.8551 21.4684 10.7817 21.1237 10.7817 20.7424C10.7817 20.3024 10.8697 19.9357 11.0457 19.6424C11.2364 19.3344 11.4417 19.0777 11.6617 18.8724L14.9177 15.9904C15.7097 15.3011 16.2524 14.7364 16.5457 14.2964C16.8391 13.8564 16.9857 13.4384 16.9857 13.0424C16.9857 12.5584 16.8024 12.1771 16.4357 11.8984C16.0837 11.6051 15.5704 11.4584 14.8957 11.4584C14.2944 11.4584 13.7517 11.5611 13.2677 11.7664C12.7984 11.9571 12.4097 12.1551 12.1017 12.3604C11.8817 12.2137 11.6911 12.0231 11.5297 11.7884C11.3684 11.5537 11.2877 11.2751 11.2877 10.9524Z" fill="#8A510F"/>
</svg>
