<?xml version="1.0" encoding="UTF-8"?><svg id="Camada_1" xmlns="http://www.w3.org/2000/svg" viewBox="0 0 230 230"><defs><style>.cls-1{opacity:.1;}.cls-2{fill:#e8bfc2;}.cls-3{fill:#e6cacc;}.cls-4{fill:#93a8b9;}.cls-5{fill:#ba5b82;}.cls-6{fill:#cedae5;}.cls-7{fill:#aeb4c7;}.cls-8{fill:#ccafaf;}.cls-9{fill:#cca7aa;}.cls-10{fill:#c7cee3;}.cls-11{fill:#c49799;}.cls-12{fill:#d9c3c4;}.cls-13{fill:#b0777d;}.cls-14{fill:#d6a9ac;}.cls-15{fill:#95c7de;}.cls-16{fill:#9c3d65;}.cls-17{fill:#fff;opacity:.2;}</style></defs><g><polygon class="cls-3" points="0 140.35 230 42.88 230 230 0 230 0 140.35"/><polygon class="cls-14" points="0 148.82 230 51.42 230 230 0 230 0 148.82"/><polygon class="cls-3" points="0 157.57 230 60.7 230 230 0 230 0 157.57"/><polygon class="cls-14" points="0 207.6 230 110.73 230 230 0 230 0 207.6"/><polygon class="cls-3" points="0 217.6 230 120.74 230 230 0 230 0 217.6"/><polygon class="cls-14" points="230 167.95 230 230 91.66 230 230 167.95"/><polygon class="cls-3" points="230 179.05 230 230 114.78 230 230 179.05"/></g><g><path class="cls-1" d="M42.94,131.74s2.55,35.01,10.72,44.4c8.17,9.39,28.63,28.41,68.64,28.39,33.69-.02,53.64-16.68,57.13-20.53,7.89-8.7,1.35-32.89,3.26-55.02l-139.75,2.77Z"/><path class="cls-11" d="M34.01,125.54s2.68,36.7,11.24,46.54c8.56,9.84,21.19,26.13,63.13,26.11,35.32-.02,60.75-16.72,64.41-20.76,8.27-9.12,10.74-27.42,12.75-50.63l-151.53-1.27Z"/><ellipse class="cls-13" cx="110.45" cy="106.41" rx="86.74" ry="45.23"/><ellipse class="cls-9" cx="110.45" cy="104.15" rx="86.74" ry="45.23"/><path class="cls-2" d="M28.03,104.15c.52-17.83,17.96-28.88,32.78-35.1,35.54-14.34,91.08-13.15,120.98,13,6.14,5.58,11.43,13.68,10.99,22.09-.82-17.66-18.15-28.44-32.94-34.47-30.68-11.98-68.14-12.16-98.86-.21-14.93,6.04-32.11,17.11-32.95,34.68h0Z"/><path class="cls-12" d="M187.54,112.91c-8.82,17.39-39.99,30.25-77.08,30.25s-68.26-12.85-77.08-30.25c8.82-17.39,39.99-30.25,77.08-30.25s68.26,12.85,77.08,30.25Z"/><ellipse class="cls-12" cx="110.45" cy="102.84" rx="79.59" ry="40.31"/><path class="cls-12" d="M190.04,102.84c0,4.92-1.74,9.63-4.93,13.99h0c-2.44,3.34-5.72,6.46-9.71,9.31-6.67,4.76-15.33,8.76-25.37,11.68-8.05,2.35-16.99,3.99-26.49,4.79h-.02c-.92,.08-1.84,.14-2.77,.2-.31,.03-.61,.05-.92,.06-1.73,.11-3.48,.18-5.25,.23h-.11c-.66,.02-1.31,.03-1.98,.04-.68,0-1.37,.02-2.05,.02s-1.37,0-2.05-.02c-.66,0-1.32-.02-1.98-.04-.04,0-.08,0-.11,0-12.62-.32-24.46-2.14-34.85-5.11-9.93-2.83-18.54-6.71-25.24-11.34-4-2.76-7.32-5.79-9.84-9.03,0,0,0-.02-.02-.02-3.55-4.57-5.51-9.55-5.51-14.76,0-22.26,35.63-40.31,79.59-40.31s79.59,18.05,79.59,40.31Z"/><path class="cls-8" d="M187.54,112.91c-8.82,17.39-39.99,27.98-77.08,27.98s-68.26-10.59-77.08-27.98c7.36-21.62,39.99-32.51,77.08-32.51s68.83,11.76,77.08,32.51Z"/><path class="cls-15" d="M187.54,112.91c-8.82,17.39-39.99,30.25-77.08,30.25s-68.26-12.85-77.08-30.25c8.82-17.39,39.99-30.25,77.08-30.25s68.26,12.85,77.08,30.25Z"/><path class="cls-17" d="M185.12,116.83h0c-9.77,13.37-33.12,23.4-61.57,25.78h-.02c-.92,.08-7.17,.44-8.94,.49h-8.28c-31.86-.83-58.77-11.15-69.93-25.48,0,0,0-.02-.02-.02,7.97-15.7,40.59-28.83,74.08-28.83s66.69,12.36,74.66,28.06Z"/><path class="cls-17" d="M175.4,126.14c-12.02,8.58-30.5,14.68-51.85,16.47h-.02c-.92,.08-1.84,.14-2.77,.2-.31,.03-.61,.05-.92,.06-1.73,.11-3.48,.18-5.25,.23h-.11c-.66,.02-1.31,.03-1.98,.04-.68,0-1.37,.02-2.05,.02s-1.37,0-2.05-.02c-.66,0-1.32-.02-1.98-.04-.04,0-.08,0-.11,0-24.67-.64-46.37-6.98-60.09-16.45,14.04-10.47,38.88-17.99,64.23-17.99s50.78,7.15,64.95,17.48Z"/><path class="cls-17" d="M150.04,137.82c-8.05,2.35-16.99,3.99-26.49,4.79h-.02c-.92,.08-1.84,.14-2.77,.2-.31,.03-.61,.05-.92,.06-1.73,.11-3.48,.18-5.25,.23h-.11c-.66,.02-1.31,.03-1.98,.04-.68,0-1.37,.02-2.05,.02s-1.37,0-2.05-.02c-.66,0-1.32-.02-1.98-.04-.04,0-.08,0-.11,0-12.62-.32-24.46-2.14-34.85-5.11,11.77-3.66,25.31-5.85,38.99-5.85s27.61,2.1,39.58,5.69Z"/></g><g><g><path class="cls-10" d="M140.24,40.43c-.42-.75,15.9-12.73,46.56-22.76C217.19,7.73,211.18,0,211.18,0c-30.67,16.26-55.98,23.17-65.95,33l-4.99,7.43Z"/><path class="cls-4" d="M140.61,39.88l-.37,.55c-.04-.07,.08-.26,.37-.55Z"/><path class="cls-4" d="M140.61,39.88l-.37,.55c-.04-.07,.08-.26,.37-.55Z"/><path class="cls-7" d="M211.65,1.5v.03c.15,2.74-2.56,8.85-24.85,16.13-27.61,9.03-43.59,19.65-46.19,22.22l2.4-3.57c9.46-12.65,63.42-26.21,68.64-34.81Z"/><path class="cls-10" d="M105.17,50.95c.98,2.22,34.1,.33,40.33-17.75l-40.33,17.75Z"/><ellipse class="cls-6" cx="125.34" cy="42.08" rx="22.03" ry="2.43" transform="translate(-6.33 54.06) rotate(-23.76)"/></g><path class="cls-5" d="M105.29,51.21c4.82,.78,37.58-13.13,40.33-17.75,0,0-1.77-1.85-8.75-1.13-4.77,.49-16.84-3.27-19.03,1.93s-15.02,9.56-12.55,16.95Z"/><path class="cls-16" d="M136.87,32.33c-5.09,.86-10.56-.8-15.56,.42-1.08,.33-2.01,.77-2.48,1.74-.18,.4-.44,.91-.68,1.27-3.33,5.17-14.25,8.42-12.86,15.45-1.77-3.57,1.1-7.28,3.66-9.57,2.68-2.69,6.44-4.63,8.12-8.03,3.55-5.9,14.32-1.42,19.8-1.28h0Z"/><circle class="cls-16" cx="117.68" cy="40.21" r=".87"/><circle class="cls-16" cx="126.22" cy="37.4" r=".87"/><circle class="cls-16" cx="121.7" cy="43.19" r=".87"/></g><path class="cls-17" d="M63.06,102.25s-2.66-3.05,17.48-3.02c11.09,.02-9.73,3.46-17.48,3.02Z"/><path class="cls-17" d="M66.88,125.91c.71,1.97,10.9,1.34,16.85-1.17,1.98-.83-18.71-3.94-16.85,1.17Z"/><path class="cls-17" d="M148.45,97.92c-4.15-3.91,17.45,1.36,22.09,5.69s-19.12-2.9-22.09-5.69Z"/><path class="cls-17" d="M110.46,110.93s7.06-5.06,14.12-2.51,21.41,7.91,13.69,8.04c-7.72,.12-25.74-1.95-27.32-2.92s-.49-2.61-.49-2.61Z"/><path class="cls-17" d="M52.92,126.96s-15.49-4.32-13.58-14.6c1.91-10.28-3.18-5.75,1.06-15.3,4.24-9.55-.47-17.74,5.39-20.24,5.86-2.5,8.4-7.74,14.13-3.41,5.73,4.32,7.47,4.8,7.49,11.66s-1.22,14.08,3.18,16.91,5.98,3.46,3.66,12.54c-2.31,9.08-5.49,18.28-11.93,15.32-6.44-2.96-9.41-2.87-9.41-2.87Z"/><path class="cls-17" d="M165.51,122.02s-10.26-3.74-9-12.66c1.27-8.91-2.11-4.98,.7-13.26s-.31-15.38,3.57-17.55c3.88-2.17,5.57-6.71,9.36-2.96s4.95,4.16,4.96,10.11-.81,12.2,2.11,14.65,3.96,3,2.43,10.87c-1.53,7.87-3.64,15.84-7.9,13.28-4.26-2.56-6.23-2.49-6.23-2.49Z"/><path class="cls-17" d="M99.76,55.91s12.5,6.24,10.47,20.04c-2.03,13.8,2.35,7.83-1.56,20.58-3.91,12.75-.42,23.91-5.33,27.12-4.91,3.21-7.24,10.19-11.74,4.21s-5.91-6.67-5.61-15.92c.3-9.25,1.63-18.93-1.84-22.86-3.48-3.93-4.74-4.82-2.44-16.99s5.33-24.47,10.47-20.31c5.14,4.16,7.58,4.13,7.58,4.13Z"/><path class="cls-17" d="M136.15,39s11.68,6.99,10.98,24.77c-.7,17.78,2.73,9.81,.26,26.39-2.47,16.58,1.55,30.56-2.58,35.04s-5.65,13.58-10.16,6.29c-4.51-7.28-5.82-8.05-6.3-19.88-.48-11.83-.06-24.29-3.49-29.04-3.43-4.75-4.63-5.79-3.55-21.5,1.08-15.72,2.8-31.65,7.73-26.74s7.11,4.68,7.11,4.68Z"/></svg>