<?xml version="1.0" encoding="UTF-8"?><svg id="Camada_1" xmlns="http://www.w3.org/2000/svg" viewBox="0 0 350 350"><defs><style>.cls-1{fill:#f9941f;}.cls-2{fill:#f96163;}.cls-3{fill:#007fac;}.cls-4{fill:#e8f6fc;}.cls-5{fill:#fee7eb;}.cls-6{fill:#fcf3e8;}.cls-7{opacity:.5;}</style></defs><g><rect class="cls-5" y="236.86" width="350" height="113.14" rx="14.57" ry="14.57"/><g><g><path class="cls-2" d="M64.54,278.77h-15.32c-4.53,0-8.21,3.68-8.21,8.21v18.17c0,1.3,1.05,2.35,2.35,2.35h2.59l4.29,21.21c.22,1.09,1.18,1.88,2.3,1.88h8.68c1.12,0,2.08-.79,2.3-1.88l4.29-21.21h2.59c1.3,0,2.35-1.05,2.35-2.35v-18.17c0-4.53-3.68-8.21-8.21-8.21Z"/><path class="cls-2" d="M56.88,277.26c5.79,0,10.5-4.71,10.5-10.5s-4.71-10.5-10.5-10.5-10.5,4.71-10.5,10.5,4.71,10.5,10.5,10.5Z"/></g><g><path class="cls-2" d="M95.94,295.06h-10.66c-3.23,0-5.86,2.63-5.86,5.86v12.21c0,1.3,1.05,2.35,2.35,2.35h1.03l2.68,13.23c.22,1.09,1.18,1.88,2.3,1.88h5.68c1.12,0,2.08-.79,2.3-1.88l2.68-13.23h1.03c1.3,0,2.35-1.05,2.35-2.35v-12.21c0-3.23-2.63-5.86-5.86-5.86Z"/><path class="cls-2" d="M90.61,294.24c4.68,0,8.49-3.81,8.49-8.49s-3.81-8.49-8.49-8.49-8.49,3.81-8.49,8.49,3.81,8.49,8.49,8.49Z"/></g></g><g><path class="cls-2" d="M225.23,327.34c.84-.12,1.39-.2,1.39-.2,0,0-.13-6.98-.27-9.51-.14-2.53-.78-6.36-.78-6.36h-.02s-.33-1.94-.33-1.94l2.78,4.57s2.59,7.22,3.21,7.64l2.35,1.57,.09-.05c-.1,.2-.11,.43-.01,.64,.11,.21,.27,.38,.47,.51,.14,.1,.3,.16,.47,.19,.17,.02,.35-.03,.47-.15,.04-.06,.09-.11,.16-.15,.08-.02,.17-.02,.25,0,.21,0,.42-.09,.54-.26,.12-.17,.19-.37,.21-.58,.43,.06,.85-.19,.99-.6,.13,.03,.21,.04,.21-.02,0,0,0,0,0-.01,.26,.01,.52-.1,.68-.32,.19-.27,.27-.6,.23-.92-.04-.32-.13-.64-.25-.94l.15-.09-.79-1.06c-.04-.21-.08-.41-.15-.61-.09-.28-.26-.54-.48-.73-.2-.16-.43-.29-.67-.38l-.3-.4-2.45-5.95-3.41-12.49s-1.84-9.22-3.64-9.83l-6.35-3.07s-.01,.01-.04,.04l.02-.63c.3-.08,.59-.19,.87-.33,.72-.38,1.2-1.11,1.27-1.92,.54,.58,1.53,.53,2.17,.07,.61-.51,1.03-1.21,1.2-1.99,.66-2.47,.61-5.88-.62-8.55,.01-.36,0-.79-.1-1.27,.68-2.05,3.32-6.93,1.94-9.85-1.76-3.72-1.86-1.7-6.3-2.81-4.44-1.11-5.12-1.1-7.26-.16-1.54,.67-1.07,.67-4.9,.77-2.28,.06-3.37,1.34-4.23,2.51-1.35,1.82-.97,4.76,.29,6.64,.57,.86,2.01,3.7,2.68,5.02-.13,1.19-.28,2.33-1.11,3.03-.76,.65-1.76,1.07-2.3,1.92-.55,.86-.49,1.98,.15,2.78,.83,1.03,2.33,1.2,3.36,.37,.28,.51,.71,.91,1.23,1.16,.38,.18,.78,.26,1.18,.26,1.07,.88,2.28,1.07,2.28,1.07v.02s-.04,0-.05,0l-.04,1.03s.02,0,.03,0l-.07,1.08-4.1,1.56v-.03c-1.23,.42-2.13,1.47-2.37,2.74-.45,2.1-1.09,4.15-1.91,6.14l-4.43,12.89-2.81,5.82-.33,.38c-.24,.08-.47,.19-.69,.34-.24,.18-.42,.42-.53,.7-.07,.19-.13,.39-.18,.59l-.87,1.02,.13,.09c-.14,.29-.24,.59-.3,.9-.06,.32,0,.65,.17,.93,.15,.23,.41,.36,.67,.36-.02,0-.03,.01-.03,.02,0,.02,.08,.04,.21,.03,.12,.41,.52,.69,.96,.66,0,.21,.06,.41,.17,.59,.12,.18,.31,.29,.53,.29,.08-.02,.17-.02,.25,0,.06,.04,.11,.1,.15,.16,.12,.13,.29,.19,.46,.18,.17-.01,.34-.07,.48-.16,.21-.11,.38-.27,.5-.47,.1-.19,.11-.41,.02-.61l.1,.07,2.43-1.43c.65-.37,3.69-7.43,3.69-7.43l1.93-3.1c-.22,2.84-.43,5.17-.43,5.17,0,0,.04,.05,.11,.15h-.05s-1.15,13.58-1.15,13.58c0,0,.68,.09,1.7,.18l19.14-1.03Zm-28.05-6.44s0,0,0,0c0,0-.01,0-.02,0,0,0-.01,0-.02,0,.02-.03,.03-.07,.05-.11l.12,.08s-.08,.01-.12,.02Zm37.06,1.92s0,0-.01,.01c-.05-.02-.11-.03-.16-.03l.15-.09s.03,.08,.04,.12c0,0-.02-.01-.02-.01Zm3.3-2.06s0,0,0,0l.51-.3-.51,.31Z"/><path class="cls-2" d="M325.71,255.56c-.56-.65-1.52-.6-2.36-.58-1.54,.03-3.08-.18-4.55-.61-1.52-.45-3.03-1.15-4.62-1.08-1.9,.09-3.56,1.26-4.96,2.54-1.4,1.27-2.73,2.73-4.42,3.56-1.41,.7-2.99,.93-4.53,1.26-.93,.2-2.01,.58-2.37,1.41l.07-.21c-.3,.32-.21,.87,.09,1.19,.32,.3,.74,.48,1.18,.52,1.06,.16,2.14-.04,3.08-.55,1.05-.58,1.95-1.57,3.15-1.65,.75-.05,1.45,.28,2.15,.58-.3,.65-.58,1.31-.83,1.98-.26,.83-.27,1.39,.47,1.24,.15-.03,.58-.47,.78-.68-.04,.14-.08,.28-.11,.42,.02-.04,.04-.08,.06-.12-.18,.55-.32,1.11-.4,1.68-.11,1.07,.55,2.48,.55,2.48l-4.22,9.93c-.28-.02-.73,.19-1.09,.6-.38,.43-4.17,6.82-4.38,7.03-.22,.21-13.55,.92-13.69,.93-.19-.44-.64-.74-1.14-.69-.1,0-.2,.03-.29,.07-.22,.08-.44,.19-.65,.31l-5.37-.9-1.67-2.61-.39-.02v-1.25s0,0,0,0l.02-1.05c.39-.07,4.25-.87,4.31-4.93,0-.56,0-1.28-.04-2.11,1.62-.33,3.01-1.44,3.67-3.01,.15-.48,.34-.95,.56-1.41,.17-.27,.36-.52,.57-.77,.84-1.11,1.3-2.47,1.3-3.86,0-1.24-.36-2.44-.72-3.62-.37-1.24-.74-2.49-1.4-3.61-.65-1.12-1.57-2.13-2.48-3.09-.68-.73-1.42-1.49-2.39-1.75-.35-.09-.72-.12-1.07-.2-.39-.1-.76-.23-1.13-.39-1.6-.62-3.28-1.01-4.98-1.15-.93-.08-1.92-.07-2.76,.36-.22,.14-.46,.25-.71,.33-.3,.05-.61,.05-.91,0-2.5-.14-4.8,1.37-5.66,3.72-.06,.25-.17,.49-.32,.71-.16,.16-.33,.3-.52,.42-.89,.67-1.26,1.83-1.37,2.94-.28,3.25,1.21,6.4,3.9,8.25,0,0,.44,.58,1.17,1.35,.05,.31,.1,.68,.14,1.03-.84-.11-2.39,0-2.33,2.16,.06,2.18,1.7,2.35,2.53,2.26l.35,8.08h-.16s-1.72,3.12-1.72,3.12c0,0-7.81,3.04-9.26,4.01v.07c-.32,.18-.63,.38-.94,.61-.34,.25-.67,.53-.98,.82-.34,.32-.68,.7-1.05,1.09-.74,.81-1.58,1.72-2.51,2.73-1.84,2.03-4.02,4.46-6.33,7.25-1.15,1.4-2.35,2.88-3.45,4.52-.28,.41-.53,.84-.76,1.29-.12,.23-.21,.47-.28,.72-.02,.13-.03,.26-.04,.39l.03,.39c.18,1.02,.44,2.03,.8,3,.58,1.69,1.23,3.31,1.88,4.88,.65,1.57,1.31,3.08,1.96,4.52,1.3,2.89,2.54,5.52,3.65,7.81l.02,.05,.04-.02,5.89-2.86c.3,.27,2.65,2.38,3.27,2.84,.48,.35,2.08,1.17,2.96,1.6l.09,3.68h3.45c.06,0,.12,0,.17-.01l6.65-.02s0,.04,0,.04c0,0,0-.01,0-.04l21.57-.07-3.64-33.94v-.02s16.46-4.1,17.22-4.59c.44-.29,2.42-4.01,4.09-7.28h.09s.07,0,.11,0c-.06-.01-.13-.02-.19-.03,1.18-2.31,2.19-4.37,2.39-4.82,.42-.94,.35-1.61-.03-2.48l3.25-12.93s1.87-6.37,1.98-6.98c.03-.17-.02-.84-.1-1.74,.21,.1,.41,.18,.64,.19,.48,.03,.96-.33,1.29-.73,.32-.4,.57-.86,.95-1.2,.64-.57,1.55-.72,2.41-.67,.86,.05,1.69,.27,2.55,.31s1.77-.09,2.42-.66c.64-.57,.87-1.65,.31-2.29Zm-69.45,69.64s-4.18-7.09-4.82-7.19c-.64-.1-.91-.82-.91-.82,0,0,.45-1.27,.18-1.91-.27-.63-1.09-2.18-1.09-2.18,0,0,.54-1.15,.13-1.76h0s1.39-1.2,1.39-1.2l4.46-3.89,1.05-.93,.85,4.6,.38,15.71-1.63-.44Z"/></g><path class="cls-2" d="M167.45,290.02h-33.39c-.42-.67-.79-1.5-1.09-2.5-.3-1-.46-2.11-.46-3.32,0-2.24,.51-3.87,1.55-4.87,1.03-1,2.37-1.5,4-1.5h33.39c.36,.61,.71,1.47,1.05,2.59,.33,1.12,.5,2.29,.5,3.5,0,2.24-.52,3.82-1.55,4.73-1.03,.91-2.37,1.36-4,1.36Zm0,19.02h-33.39c-.42-.67-.79-1.5-1.09-2.5-.3-1-.46-2.11-.46-3.32,0-2.24,.51-3.87,1.55-4.87,1.03-1,2.37-1.5,4-1.5h33.39c.36,.61,.71,1.47,1.05,2.59,.33,1.12,.5,2.29,.5,3.5,0,2.25-.52,3.82-1.55,4.73-1.03,.91-2.37,1.36-4,1.36Z"/></g><g><rect class="cls-6" y="118.43" width="350" height="113.14" rx="14.57" ry="14.57"/><g><g class="cls-7"><path class="cls-1" d="M64.54,160.34h-15.32c-4.53,0-8.21,3.68-8.21,8.21v18.17c0,1.3,1.05,2.35,2.35,2.35h2.59l4.29,21.21c.22,1.09,1.18,1.88,2.3,1.88h8.68c1.12,0,2.08-.79,2.3-1.88l4.29-21.21h2.59c1.3,0,2.35-1.05,2.35-2.35v-18.17c0-4.53-3.68-8.21-8.21-8.21Zm-18.84,8.21c0-1.94,1.58-3.52,3.52-3.52h15.32c1.94,0,3.52,1.58,3.52,3.52v15.83h-22.36v-15.83Zm13.6,38.92h-4.84l-3.72-18.4h12.29l-3.72,18.4Z"/><path class="cls-1" d="M56.88,158.83c5.79,0,10.5-4.71,10.5-10.5s-4.71-10.5-10.5-10.5-10.5,4.71-10.5,10.5,4.71,10.5,10.5,10.5Zm0-16.3c3.21,0,5.81,2.6,5.81,5.81s-2.6,5.81-5.81,5.81-5.81-2.6-5.81-5.81,2.6-5.81,5.81-5.81Z"/></g><g><path class="cls-1" d="M95.94,176.64h-10.66c-3.23,0-5.86,2.63-5.86,5.86v12.21c0,1.3,1.05,2.35,2.35,2.35h1.03l2.68,13.23c.22,1.09,1.18,1.88,2.3,1.88h5.68c1.12,0,2.08-.79,2.3-1.88l2.68-13.23h1.03c1.3,0,2.35-1.05,2.35-2.35v-12.21c0-3.23-2.63-5.86-5.86-5.86Z"/><path class="cls-1" d="M90.61,175.81c4.68,0,8.49-3.81,8.49-8.49s-3.81-8.49-8.49-8.49-8.49,3.81-8.49,8.49,3.81,8.49,8.49,8.49Z"/></g></g><path class="cls-1" d="M261.9,217.95c1.05-.15,1.74-.25,1.74-.25,0,0-.17-8.75-.34-11.91-.17-3.17-.98-7.97-.98-7.97h-.03s-.41-2.43-.41-2.43l3.49,5.73s3.24,9.05,4.02,9.57l2.94,1.96,.11-.07c-.13,.25-.14,.54-.02,.8,.13,.26,.34,.48,.58,.63,.18,.12,.38,.2,.59,.24,.22,.03,.43-.04,.59-.19,.05-.07,.12-.14,.2-.18,.1-.03,.21-.03,.32,0,.27,.01,.52-.11,.68-.32,.15-.21,.24-.47,.26-.73,.54,.08,1.06-.24,1.24-.75,.16,.04,.26,.06,.27-.02,0,0,0-.01,0-.02,.33,.02,.65-.12,.85-.4,.24-.33,.34-.75,.28-1.15-.05-.4-.16-.8-.31-1.17l.19-.11-1-1.32c-.05-.26-.1-.52-.18-.77-.12-.35-.32-.67-.6-.92-.26-.2-.54-.36-.84-.48l-.38-.5-3.07-7.46-4.27-15.65s-2.31-11.55-4.55-12.31l-7.95-3.85s-.02,.02-.05,.05l.02-.79c.38-.1,.74-.23,1.09-.41,.9-.48,1.5-1.39,1.6-2.41,.67,.73,1.91,.67,2.71,.08,.76-.64,1.29-1.52,1.51-2.49,.83-3.1,.77-7.37-.77-10.7,.02-.46-.01-.99-.12-1.59,.85-2.56,4.16-8.68,2.42-12.34-2.2-4.66-2.33-2.13-7.89-3.52-5.56-1.39-6.41-1.37-9.1-.19-1.92,.84-1.34,.84-6.13,.96-2.85,.07-4.22,1.68-5.3,3.14-1.69,2.29-1.22,5.96,.36,8.32,.72,1.07,2.52,4.63,3.35,6.28-.16,1.49-.35,2.91-1.39,3.8-.96,.82-2.2,1.34-2.88,2.4-.69,1.08-.62,2.48,.18,3.48,1.03,1.29,2.92,1.5,4.21,.47,.35,.63,.89,1.14,1.54,1.45,.48,.23,.98,.33,1.48,.33,1.34,1.1,2.86,1.34,2.86,1.34v.03s-.05,0-.07,0l-.05,1.29s.02,0,.03,0l-.09,1.35-5.13,1.95v-.04c-1.53,.53-2.67,1.84-2.97,3.44-.56,2.63-1.36,5.2-2.39,7.69l-5.55,16.15-3.52,7.28-.41,.48c-.3,.1-.59,.24-.86,.43-.29,.23-.52,.53-.66,.87-.09,.24-.16,.49-.23,.74l-1.09,1.28,.16,.11c-.17,.36-.3,.74-.38,1.13-.08,.4,0,.82,.22,1.17,.18,.29,.51,.45,.84,.45-.02,0-.03,.02-.03,.02,0,.03,.1,.05,.26,.04,.16,.52,.65,.87,1.2,.82,0,.26,.07,.52,.21,.74,.15,.22,.39,.36,.66,.37,.1-.02,.21-.02,.32,0,.07,.06,.13,.12,.19,.2,.15,.16,.36,.24,.57,.22,.21-.02,.42-.09,.6-.2,.26-.14,.47-.34,.62-.59,.13-.24,.14-.52,.03-.76l.12,.08,3.05-1.79c.81-.47,4.62-9.3,4.62-9.3l2.42-3.88c-.27,3.55-.54,6.47-.54,6.47,0,0,.05,.07,.14,.18h-.06s-1.44,17-1.44,17c0,0,.85,.11,2.13,.22l23.97-1.29Zm-35.13-8.07s0,0,0,0c0,0-.02,0-.03,.01,0,0-.01,0-.02,0,.02-.04,.04-.09,.06-.14l.15,.1c-.05,0-.1,.01-.15,.03Zm46.41,2.4s0,0-.01,.01c-.07-.02-.14-.04-.2-.04l.19-.11c.02,.05,.03,.1,.05,.15,0-.01-.02-.02-.03-.02Zm4.14-2.58s0,0,0-.01l.64-.38-.64,.39Z"/><path class="cls-1" d="M167.45,171.59h-33.39c-.42-.67-.79-1.5-1.09-2.5-.3-1-.46-2.11-.46-3.32,0-2.24,.51-3.87,1.55-4.87,1.03-1,2.37-1.5,4-1.5h33.39c.36,.61,.71,1.47,1.05,2.59,.33,1.12,.5,2.29,.5,3.5,0,2.24-.52,3.82-1.55,4.73-1.03,.91-2.37,1.36-4,1.36Zm0,19.02h-33.39c-.42-.67-.79-1.5-1.09-2.5-.3-1-.46-2.11-.46-3.32,0-2.24,.51-3.87,1.55-4.87,1.03-1,2.37-1.5,4-1.5h33.39c.36,.61,.71,1.47,1.05,2.59,.33,1.12,.5,2.29,.5,3.5,0,2.25-.52,3.82-1.55,4.73-1.03,.91-2.37,1.36-4,1.36Z"/></g><g><rect class="cls-4" y="0" width="350" height="113.14" rx="14.57" ry="14.57"/><g><g><path class="cls-3" d="M64.54,41.91h-15.32c-4.53,0-8.21,3.68-8.21,8.21v18.17c0,1.3,1.05,2.35,2.35,2.35h2.59l4.29,21.21c.22,1.09,1.18,1.88,2.3,1.88h8.68c1.12,0,2.08-.79,2.3-1.88l4.29-21.21h2.59c1.3,0,2.35-1.05,2.35-2.35v-18.17c0-4.53-3.68-8.21-8.21-8.21Z"/><path class="cls-3" d="M56.88,40.41c5.79,0,10.5-4.71,10.5-10.5s-4.71-10.5-10.5-10.5-10.5,4.71-10.5,10.5,4.71,10.5,10.5,10.5Z"/></g><g class="cls-7"><path class="cls-3" d="M95.94,58.21h-10.66c-3.23,0-5.86,2.63-5.86,5.86v12.21c0,1.3,1.05,2.35,2.35,2.35h1.03l2.68,13.23c.22,1.09,1.18,1.88,2.3,1.88h5.68c1.12,0,2.08-.79,2.3-1.88l2.68-13.23h1.03c1.3,0,2.35-1.05,2.35-2.35v-12.21c0-3.23-2.63-5.86-5.86-5.86Zm-11.83,5.86c0-.65,.53-1.17,1.17-1.17h10.66c.65,0,1.17,.53,1.17,1.17v9.86h-13v-9.86Zm7.42,24.97h-1.84l-2.11-10.42h6.06l-2.11,10.42Z"/><path class="cls-3" d="M90.61,57.38c4.68,0,8.49-3.81,8.49-8.49s-3.81-8.49-8.49-8.49-8.49,3.81-8.49,8.49,3.81,8.49,8.49,8.49Zm0-12.29c2.1,0,3.8,1.7,3.8,3.8s-1.7,3.8-3.8,3.8-3.8-1.7-3.8-3.8,1.7-3.8,3.8-3.8Z"/></g></g><path class="cls-3" d="M311.89,17.56c-.58-.67-1.57-.61-2.43-.6-1.59,.03-3.17-.18-4.69-.63-1.57-.46-3.12-1.19-4.75-1.11-1.95,.09-3.67,1.3-5.11,2.61-1.44,1.31-2.81,2.81-4.55,3.67-1.45,.72-3.08,.96-4.67,1.3-.96,.21-2.07,.59-2.44,1.45l.07-.22c-.3,.33-.22,.9,.09,1.23,.33,.31,.76,.5,1.22,.53,1.09,.16,2.21-.04,3.18-.57,1.08-.6,2.01-1.62,3.24-1.7,.77-.05,1.5,.28,2.22,.6-.31,.67-.6,1.35-.85,2.04-.26,.85-.28,1.44,.49,1.28,.16-.03,.6-.48,.8-.7-.04,.14-.08,.28-.11,.43,.02-.04,.04-.08,.06-.12-.19,.56-.33,1.14-.41,1.73-.11,1.1,.56,2.55,.56,2.55l-4.34,10.23c-.29-.02-.75,.2-1.12,.62-.39,.44-4.29,7.02-4.52,7.24-.22,.22-13.95,.95-14.1,.96-.19-.46-.66-.76-1.18-.71-.1,0-.2,.03-.3,.07-.23,.09-.45,.19-.67,.32l-5.53-.93-1.72-2.68-.4-.02v-1.29s0,0,0,0l.02-1.08c.4-.07,4.38-.89,4.44-5.08,0-.57,0-1.32-.04-2.17,1.67-.34,3.1-1.48,3.78-3.1,.16-.5,.35-.98,.58-1.45,.18-.27,.38-.54,.58-.79,.87-1.15,1.33-2.54,1.34-3.98,0-1.28-.37-2.51-.74-3.73-.39-1.28-.77-2.57-1.44-3.72-.67-1.15-1.62-2.19-2.55-3.18-.7-.75-1.46-1.53-2.46-1.8-.36-.1-.74-.12-1.1-.2-.4-.11-.79-.24-1.16-.4-1.65-.64-3.37-1.04-5.13-1.18-.96-.08-1.98-.07-2.84,.37-.23,.14-.48,.26-.73,.34-.31,.05-.62,.05-.93,0-2.57-.14-4.94,1.41-5.83,3.83-.07,.26-.18,.51-.33,.73-.16,.16-.34,.31-.53,.43-.92,.69-1.3,1.89-1.41,3.03-.29,3.35,1.24,6.59,4.01,8.49,0,0,.46,.6,1.21,1.39,.05,.32,.1,.7,.14,1.06-.87-.11-2.46,0-2.4,2.22,.07,2.24,1.75,2.42,2.61,2.33l.36,8.32h-.16s-1.77,3.21-1.77,3.21c0,0-8.05,3.13-9.54,4.13v.07c-.33,.19-.65,.39-.97,.62-.35,.26-.69,.54-1.01,.85-.35,.33-.7,.72-1.09,1.13-.77,.83-1.63,1.77-2.58,2.81-1.9,2.09-4.14,4.59-6.52,7.47-1.19,1.44-2.42,2.97-3.55,4.66-.29,.43-.55,.87-.78,1.33-.12,.23-.22,.48-.29,.74-.02,.13-.04,.27-.04,.4l.03,.4c.18,1.05,.46,2.09,.82,3.09,.6,1.74,1.26,3.41,1.94,5.02,.67,1.61,1.35,3.17,2.02,4.66,1.34,2.97,2.61,5.69,3.76,8.04l.02,.05,.05-.02,6.07-2.95c.3,.27,2.73,2.45,3.37,2.93,.49,.36,2.15,1.2,3.05,1.65l.09,3.79h3.56c.06,0,.12,0,.17-.01l6.85-.02s0,.04,0,.04c0,0,0-.01,0-.04l22.22-.08-3.75-34.95v-.02s16.95-4.22,17.73-4.73c.46-.29,2.5-4.13,4.21-7.49h.1s.08,0,.11,0c-.07-.01-.13-.02-.2-.03,1.21-2.38,2.26-4.51,2.47-4.96,.44-.97,.36-1.66-.03-2.56l3.35-13.32s1.93-6.56,2.04-7.19c.03-.17-.02-.87-.1-1.79,.21,.1,.43,.19,.66,.2,.49,.03,.99-.34,1.33-.75,.33-.41,.59-.89,.98-1.24,.66-.59,1.6-.74,2.48-.69,.88,.05,1.74,.27,2.62,.32s1.83-.09,2.49-.68c.66-.58,.9-1.7,.32-2.36Zm-71.53,71.73s-4.31-7.3-4.96-7.41c-.66-.1-.93-.84-.93-.84,0,0,.47-1.31,.19-1.96-.28-.65-1.12-2.25-1.12-2.25,0,0,.55-1.18,.13-1.81h0s1.43-1.23,1.43-1.23l4.6-4.01,1.08-.96,.87,4.74,.4,16.18-1.68-.45Z"/><path class="cls-3" d="M167.45,53.16h-33.39c-.42-.67-.79-1.5-1.09-2.5-.3-1-.46-2.11-.46-3.32,0-2.24,.51-3.87,1.55-4.87,1.03-1,2.37-1.5,4-1.5h33.39c.36,.61,.71,1.47,1.05,2.59,.33,1.12,.5,2.29,.5,3.5,0,2.24-.52,3.82-1.55,4.73-1.03,.91-2.37,1.36-4,1.36Zm0,19.02h-33.39c-.42-.67-.79-1.5-1.09-2.5-.3-1-.46-2.11-.46-3.32,0-2.24,.51-3.87,1.55-4.87,1.03-1,2.37-1.5,4-1.5h33.39c.36,.61,.71,1.47,1.05,2.59,.33,1.12,.5,2.29,.5,3.5,0,2.25-.52,3.82-1.55,4.73-1.03,.91-2.37,1.36-4,1.36Z"/></g></svg>