<?xml version="1.0" encoding="UTF-8"?><svg id="Camada_1" xmlns="http://www.w3.org/2000/svg" viewBox="0 0 230 230"><defs><style>.cls-1{fill:#f5db9f;}.cls-2{fill:#eedc9a;}.cls-3{fill:#fff9c1;}.cls-4{fill:#7dc4e3;}.cls-5{fill:#667480;}.cls-6{fill:#b9c4cf;}.cls-7{fill:#cfdbe6;}.cls-8{fill:#2487b3;}.cls-9{fill:#1f7399;}.cls-10{fill:#545c66;}.cls-11{fill:#85d1f2;}</style></defs><path class="cls-11" d="M230.01,125.48v.15s0,.07-.02,.11c-.04,.56-.09,1.11-.17,1.65-3.32,17.99-53.46,32.27-114.82,32.27S3.5,145.38,.18,127.39c-.07-.54-.13-1.09-.17-1.65-.02-.04-.02-.07-.02-.11v-.15C0,106.62,51.48,91.31,115.01,91.31s115,15.3,115,34.17Z"/><path class="cls-4" d="M224.96,149v.05s0,.02-.02,.03c-.03,.17-.09,.35-.16,.52-3.08,5.61-49.62,10.07-106.58,10.07s-103.51-4.46-106.59-10.07c-.07-.17-.12-.34-.15-.52-.02-.01-.02-.02-.02-.03v-.05c0-5.89,47.8-10.66,106.76-10.66s106.75,4.77,106.75,10.66Z"/><path class="cls-3" d="M198.38,157.18v.11s0,.05-.01,.08c-.03,.4-.07,.81-.12,1.2-2.41,13.04-38.76,23.4-83.24,23.4s-80.85-10.35-83.25-23.4c-.05-.39-.09-.79-.12-1.2-.01-.03-.01-.05-.01-.08v-.11c0-13.08,14.75-25.23,69.74-38.24,5.55-1.31,11.31-1.51,16.92-.54,30.26,5.21,89.73,24.08,80.1,38.78Z"/><ellipse class="cls-2" cx="118" cy="148.52" rx="3" ry="1.73"/><ellipse class="cls-2" cx="147.07" cy="142.51" rx="3" ry="1.73"/><ellipse class="cls-2" cx="137.92" cy="143.52" rx="3" ry="1.73"/><ellipse class="cls-2" cx="147.07" cy="148.52" rx="3" ry="1.73"/><ellipse class="cls-2" cx="77.1" cy="145.97" rx="3" ry="1.73"/><ellipse class="cls-2" cx="54.1" cy="149.42" rx="3" ry="1.73"/><ellipse class="cls-2" cx="47.74" cy="145.97" rx="3" ry="1.73"/><ellipse class="cls-2" cx="181.82" cy="147.69" rx="3" ry="1.73"/><ellipse class="cls-2" cx="172.38" cy="151.15" rx="3" ry="1.73"/><ellipse class="cls-2" cx="173.98" cy="144.24" rx="3" ry="1.73"/><ellipse class="cls-1" cx="84.8" cy="140.07" rx="3" ry="1.73"/><ellipse class="cls-2" cx="90" cy="145.97" rx="3" ry="1.73"/><ellipse class="cls-2" cx="106.8" cy="149.42" rx="3" ry="1.73"/><ellipse class="cls-2" cx="123.08" cy="152.88" rx="3" ry="1.73"/><g><path class="cls-7" d="M91.97,191.36c-18.57-12.22-19.23-44.12-1.48-71.1,9.72-14.77,23.27-25.63,37.19-29.8l.35-.11c.54-.15,1.08-.29,1.62-.43l.17-.05c9.09-2.6,31.81-11.28,48.08-35.99l6.36,4.18c-16.24,24.68-15.26,48.93-14.05,58.33l.03,.24c.07,.55,.14,1.05,.22,1.53l.06,.47c1.67,14.43-2.94,31.17-12.66,45.94-17.76,26.98-47.31,38.99-65.88,26.77Zm36.05-66.23h0c-5.2,5.5-10.57,12.38-15.52,19.9-13.97,21.23-18,37.05-16.33,39.94,3.31,.38,16.25-9.58,30.21-30.8,4.97-7.56,9.17-15.2,12.15-22.11,0-.01,.2-.46,.54-1.28,1.89-4.48,7.98-18.79,14.96-33.73-10.7,12.03-21.12,22.98-24.4,26.41l-.16,.16c-.09,.1-.18,.19-.27,.28l-.32,.32c-.21,.22-.42,.44-.63,.66l-.24,.26Zm34.49-28.23c-7.54,15.92-14.4,32.03-16.41,36.81-.36,.88-.57,1.36-.57,1.36-3.15,7.31-7.57,15.37-12.78,23.29-6.53,9.91-17.08,23.47-26.59,30.15,14.57,1.53,32.97-9.29,45.34-28.1,8.76-13.31,12.93-28.21,11.46-40.89-.01-.09-.02-.17-.03-.25-.08-.48-.15-.98-.22-1.52l-.03-.25c-.56-4.32-1.09-11.59-.16-20.58Zm-32.63,.84c-12.24,3.66-24.27,13.39-33.03,26.7-12.38,18.81-15.04,39.98-7.87,52.76,2.37-11.38,10.64-26.43,17.16-36.35,5.15-7.83,10.77-15.03,16.24-20.83,.09-.11,.18-.2,.27-.29,.26-.28,.53-.56,.8-.83l.76-.78c3.46-3.61,15.12-15.86,26.46-28.73-7.28,4.02-13.9,6.41-18.8,7.81l-.24,.07c-.48,.12-.96,.25-1.44,.38-.09,.03-.2,.06-.31,.09Z"/><path class="cls-6" d="M170.5,118.64l-.05-.47c-.09-.48-.16-.98-.23-1.53l-.03-.25c-1.21-9.4-2.19-33.66,14.05-58.34l-6.35-4.18c-16.27,24.71-38.99,33.39-48.08,35.99l-.17,.05c-.53,.13-1.08,.28-1.62,.43l-.34,.11c-13.92,4.17-27.47,15.03-37.19,29.8-17.76,26.98-17.1,58.88,1.48,71.11,18.56,12.22,48.12,.21,65.88-26.78,9.72-14.77,14.33-31.51,12.66-45.95Zm-76.19,69.16c-17.6-11.58-18.23-41.8-1.4-67.37,9.21-14,22.05-24.28,35.23-28.23l.33-.1c.51-.14,1.03-.28,1.53-.41l.16-.05c8.61-2.46,30.14-10.68,45.55-34.1l6.03,3.97c-15.39,23.38-14.46,46.36-13.32,55.27l.03,.22c.07,.53,.14,1,.22,1.46l.05,.44c1.58,13.67-2.78,29.53-11.99,43.52-16.83,25.57-44.83,36.94-62.41,25.37Z"/><g><rect class="cls-5" x="176.13" y="-1.99" width="27.49" height="89.15" rx="5.73" ry="5.73" transform="translate(54.68 -97.37) rotate(33.35)"/><path class="cls-5" d="M211.46,3.43l-49.01,74.47-3.46-2.28c-2.81-1.85-3.6-5.64-1.74-8.46L199.54,2.89c1.85-2.81,5.65-3.6,8.46-1.74l3.46,2.28Z"/><path class="cls-10" d="M211.46,3.43l-49.01,74.47-3.46-2.28c-2.81-1.85-3.6-5.64-1.74-8.46L199.54,2.89c1.85-2.81,5.65-3.6,8.46-1.74l3.46,2.28Z"/><path class="cls-11" d="M200.97,67.11c-1.47-.97-2.12-2.86-1.45-4.57,.77-1.96,2.98-2.92,4.93-2.15,11.51,4.53,17.02,3.56,17.77,2.43,1.62-2.45-5.44-15.34-26.46-29.18-21.02-13.84-35.65-15.22-37.26-12.76-.75,1.13,.55,6.58,9.26,15.36,1.48,1.49,1.47,3.9-.02,5.38-1.49,1.48-3.9,1.48-5.38-.02-10.31-10.39-13.94-19.24-10.21-24.9,2.11-3.2,7.25-6.3,19.75-2.87,8.41,2.31,18.37,7.09,28.06,13.46,9.68,6.37,18.02,13.63,23.46,20.44,8.1,10.12,7.28,16.07,5.17,19.27-3.73,5.66-13.28,5.83-26.91,.47-.25-.1-.49-.22-.7-.36Z"/><path class="cls-8" d="M200.97,67.11c-1.47-.97-2.12-2.86-1.45-4.57,.77-1.96,2.98-2.92,4.93-2.15,11.51,4.53,17.02,3.56,17.77,2.43,1.62-2.45-5.44-15.34-26.46-29.18-21.02-13.84-35.65-15.22-37.26-12.76-.75,1.13,.55,6.58,9.26,15.36,1.48,1.49,1.47,3.9-.02,5.38-1.49,1.48-3.9,1.48-5.38-.02-10.31-10.39-13.94-19.24-10.21-24.9,2.11-3.2,7.25-6.3,19.75-2.87,8.41,2.31,18.37,7.09,28.06,13.46,9.68,6.37,18.02,13.63,23.46,20.44,8.1,10.12,7.28,16.07,5.17,19.27-3.73,5.66-13.28,5.83-26.91,.47-.25-.1-.49-.22-.7-.36Z"/><path class="cls-11" d="M228.57,67.01c-.35,.53-.76,1.02-1.22,1.46,1.29-3.45,.81-9.02-6.04-17.58-5.44-6.81-13.77-14.07-23.46-20.44s-19.64-11.15-28.05-13.46c-10.56-2.91-15.87-1.14-18.53,1.4,.22-.59,.51-1.16,.86-1.69,2.11-3.2,7.25-6.3,19.75-2.87,8.41,2.31,18.37,7.09,28.05,13.46,9.69,6.37,18.01,13.63,23.46,20.44,8.1,10.13,7.28,16.07,5.18,19.28Z"/></g></g><path class="cls-8" d="M229.82,127.39c-4.91,47.9-19.41,68.44-34.63,86.92-8.18,9.93-20.35,15.69-33.21,15.69H68.02c-12.86,0-25.03-5.76-33.2-15.68C19.59,195.84,5.08,175.3,.18,127.39c3.32,17.99,53.46,32.27,114.83,32.27s111.5-14.28,114.82-32.27Z"/><path class="cls-9" d="M89.31,229.99h-21.29c-12.85,0-25.02-5.75-33.2-15.67C19.59,195.85,5.08,175.3,.17,127.38c1.32,7.16,10.07,13.74,24,19.07,6.4,34.72,18.9,52.05,31.94,67.87,8.18,9.92,20.35,15.67,33.2,15.67Z"/><path class="cls-8" d="M229.82,127.38c-.7,6.9-1.61,13.23-2.69,19.07-21.03,8.03-53.88,13.21-90.81,13.21-3.6,0-7.14-.06-10.65-.15,56.41-1.54,101.02-15.19,104.15-32.13Z"/></svg>