<svg width="33" height="32" viewBox="0 0 33 32" fill="none" xmlns="http://www.w3.org/2000/svg">
<g clip-path="url(#clip0_513_7931)">
<path d="M16.8881 3.16968C14.8643 3.16968 13.2209 4.81796 13.2209 6.83685C13.2209 8.85575 14.8643 10.504 16.8881 10.504C18.9119 10.504 20.5553 8.86063 20.5553 6.83685C20.5553 4.81308 18.907 3.16968 16.8881 3.16968ZM16.8881 10.0164C15.1326 10.0164 13.7086 8.59241 13.7086 6.83685C13.7086 5.08129 15.1326 3.65733 16.8881 3.65733C18.6437 3.65733 20.0676 5.08617 20.0676 6.83685C20.0676 8.58754 18.6388 10.0164 16.8881 10.0164Z" fill="#F96163"/>
<path d="M22.2474 11.0698C23.2032 9.87016 23.725 8.38769 23.725 6.83694C23.725 3.06736 20.6576 0 16.888 0C13.1185 0 10.0511 3.06736 10.0511 6.83694C10.0511 8.38769 10.568 9.86528 11.5238 11.0698C6.20349 13.2447 2.68262 18.4529 2.68262 24.2463C2.68262 26.0994 3.7067 27.8598 5.3501 28.8351C8.83196 30.9076 12.821 32 16.888 32C20.9551 32 24.9441 30.9076 28.426 28.8351C30.0694 27.8598 31.0886 26.0994 31.0935 24.2219C31.0935 18.4432 27.5677 13.2447 22.2474 11.0698V11.0698ZM16.888 28.3426C13.4793 28.3426 10.134 27.4258 7.21782 25.6946C6.67652 25.3728 6.34004 24.8071 6.34004 24.2219C6.34004 18.409 11.0703 13.6739 16.888 13.6739C22.7058 13.6739 27.436 18.409 27.436 24.2414C27.436 24.8168 27.0947 25.3728 26.5534 25.6946C23.6372 27.4258 20.2968 28.3426 16.888 28.3426V28.3426ZM16.888 3.16977C18.9069 3.16977 20.5552 4.81804 20.5552 6.83694C20.5552 8.85584 18.9069 10.5041 16.888 10.5041C14.8691 10.5041 13.2209 8.86071 13.2209 6.83694C13.2209 4.81317 14.8643 3.16977 16.888 3.16977V3.16977Z" fill="#F96163"/>
</g>
<defs>
<clipPath id="clip0_513_7931">
<rect width="28.4108" height="32" fill="white" transform="translate(2.68262)"/>
</clipPath>
</defs>
</svg>
