<?xml version="1.0" encoding="UTF-8"?><svg id="Camada_2" xmlns="http://www.w3.org/2000/svg" viewBox="0 0 139.53 160"><defs><style>.cls-1{opacity:.1;}.cls-2{fill:#f96163;}.cls-3{fill:#fa9e9f;}.cls-4{fill:#f5c99d;}.cls-5{fill:#fee7eb;}.cls-6{fill:#e6b37f;}.cls-7{fill:#66191b;}.cls-8{fill:#995c17;}.cls-9{fill:#993d40;}.cls-10{fill:#cc5252;}.cls-11{fill:#8a5315;}.cls-12{fill:#4d1719;}</style></defs><g id="Camada_1-2"><g><path class="cls-2" d="M137.22,67.46c0,8.38-12.51,14.22-15.53,21.51-3.13,7.56,1.47,20.5-4.23,26.19-5.69,5.69-18.64,1.09-26.19,4.23-7.29,3.02-13.12,15.53-21.51,15.53s-14.22-12.51-21.51-15.53c-7.56-3.13-20.5,1.47-26.19-4.23-5.69-5.69-1.09-18.64-4.23-26.19-3.02-7.29-15.53-13.12-15.53-21.51s12.51-14.22,15.53-21.51c3.13-7.56-1.47-20.5,4.23-26.19,5.69-5.69,18.64-1.09,26.19-4.23,7.29-3.02,13.12-15.53,21.51-15.53s14.22,12.51,21.51,15.53c7.56,3.13,20.5-1.47,26.19,4.23,5.69,5.69,1.09,18.64,4.23,26.19,3.02,7.29,15.53,13.12,15.53,21.51Z"/><path class="cls-3" d="M121.69,45.96c-3.13-7.55,1.47-20.51-4.23-26.2-5.69-5.69-18.65-1.1-26.2-4.23C83.97,12.51,78.13,0,69.77,0s-14.23,12.51-21.52,15.52c-7.55,3.13-20.48-1.47-26.17,4.23-5.69,5.69-1.1,18.65-4.23,26.2-3.04,7.3-15.55,13.13-15.55,21.5s12.51,14.23,15.55,21.52c3.13,7.55-1.47,20.48,4.23,26.17,5.69,5.69,18.62,1.1,26.17,4.23,7.3,3.04,13.13,15.55,21.52,15.55s14.2-12.51,21.5-15.55c7.55-3.13,20.51,1.47,26.2-4.23,5.69-5.69,1.1-18.62,4.23-26.17,3.01-7.3,15.52-13.13,15.52-21.52s-12.51-14.2-15.52-21.5Z"/><path class="cls-2" d="M69.77,132.11c-3.66,0-7.27-3.79-10.77-7.46-2.98-3.13-6.06-6.37-9.67-7.87-3.06-1.27-6.67-1.44-9.81-1.44-1,0-2.01,.02-3.02,.04-.97,.02-1.95,.04-2.91,.04-3.78,0-7.55-.28-9.53-2.25-2.4-2.4-2.31-7.28-2.22-12.44,.08-4.44,.17-9.04-1.4-12.82-1.51-3.62-4.75-6.7-7.87-9.68-3.67-3.49-7.46-7.11-7.46-10.77s3.79-7.25,7.45-10.73c3.13-2.98,6.37-6.06,7.88-9.68,1.57-3.79,1.48-8.39,1.4-12.83-.09-4.94-.19-10.05,2.22-12.46,1.98-1.98,5.75-2.25,9.53-2.25,.96,0,1.94,.02,2.91,.04,1.01,.02,2.02,.04,3.02,.04,3.13,0,6.74-.17,9.8-1.44,3.62-1.49,6.7-4.73,9.69-7.86,3.49-3.66,7.1-7.45,10.75-7.45s7.24,3.78,10.72,7.43c2.99,3.14,6.07,6.38,9.7,7.87,3.05,1.27,6.67,1.44,9.8,1.44,1,0,2.01-.02,3.02-.04,.98-.02,1.95-.04,2.92-.04,3.78,0,7.56,.27,9.54,2.25,2.4,2.4,2.31,7.52,2.22,12.46-.08,4.45-.17,9.05,1.4,12.83,1.5,3.62,4.74,6.71,7.87,9.7,3.66,3.48,7.44,7.08,7.44,10.72s-3.79,7.27-7.45,10.76c-3.13,2.99-6.37,6.07-7.87,9.69-1.57,3.78-1.48,8.37-1.4,12.81,.1,5.16,.19,10.04-2.22,12.45-1.98,1.98-5.76,2.25-9.54,2.25h0c-.96,0-1.94-.02-2.91-.04-1.01-.02-2.02-.04-3.02-.04-3.14,0-6.75,.17-9.81,1.44-3.62,1.51-6.7,4.75-9.68,7.88-3.49,3.66-7.09,7.45-10.73,7.45Z"/><path class="cls-3" d="M69.76,123.29c-1.32-.99-3.33-3.1-4.62-4.46-3.43-3.6-7.3-7.67-12.56-9.86-4.44-1.84-9.09-2.09-13.06-2.09-.92,0-1.85,.02-2.78,.03h-.37c-.95,.02-1.87,.04-2.77,.04-1.54,0-2.55-.06-3.21-.13-.17-1.58-.12-4.12-.09-5.95,.1-5.06,.2-10.8-2.04-16.21-2.2-5.27-6.26-9.14-9.84-12.55-1.38-1.31-3.49-3.32-4.49-4.65,.99-1.32,3.1-3.32,4.46-4.62,3.59-3.41,7.66-7.29,9.86-12.55,2.25-5.43,2.15-11.18,2.05-16.24-.03-1.73-.08-4.34,.1-5.97,.67-.07,1.68-.13,3.2-.13,.79,0,1.59,.01,2.39,.03h.38c1.05,.03,2.11,.05,3.16,.05,3.96,0,8.61-.25,13.03-2.08,5.26-2.17,9.15-6.25,12.57-9.84,1.3-1.36,3.31-3.47,4.63-4.46,1.32,.99,3.31,3.08,4.6,4.43,3.43,3.61,7.31,7.68,12.6,9.87,4.41,1.83,9.06,2.08,13.03,2.08,1.05,0,2.12-.02,3.18-.04h.35c.8-.02,1.61-.03,2.4-.03,1.53,0,2.54,.06,3.21,.13,.18,1.63,.13,4.25,.1,5.97-.1,5.07-.2,10.81,2.04,16.22,2.18,5.27,6.25,9.15,9.84,12.57,1.37,1.3,3.47,3.3,4.46,4.62-.99,1.32-3.09,3.33-4.44,4.62-3.61,3.43-7.68,7.32-9.86,12.6-2.23,5.4-2.13,11.13-2.03,16.19,.03,1.83,.08,4.37-.09,5.95-.67,.08-1.68,.14-3.22,.14-.91,0-1.83-.02-2.74-.04h-.41c-.93-.02-1.86-.04-2.78-.04-3.97,0-8.62,.25-13.04,2.08-5.29,2.2-9.16,6.27-12.58,9.87-1.29,1.36-3.29,3.46-4.62,4.46Z"/><path class="cls-2" d="M69.22,114.95c-3.62-3.8-8.12-8.52-14.47-11.17-5.36-2.22-10.71-2.52-15.23-2.52-.82,0-3.24,.04-3.24,.04-.12,0-.24,0-.36,0,0-.1,0-.2,0-.3,.1-5.35,.23-11.98-2.47-18.49-2.66-6.38-7.37-10.87-11.16-14.48-.17-.16-.37-.35-.6-.57,.2-.19,.39-.37,.54-.51,3.82-3.63,8.54-8.12,11.2-14.49,2.71-6.54,2.58-13.18,2.48-18.52,0-.11,0-.22,0-.33h.31c1.11,.03,2.2,.05,3.29,.05,4.51,0,9.85-.3,15.19-2.51,6.36-2.62,10.86-7.35,14.48-11.14,.15-.16,.34-.36,.56-.59,.19,.2,.36,.38,.51,.53,3.64,3.82,8.15,8.56,14.54,11.2,5.32,2.21,10.66,2.5,15.18,2.5,1.09,0,2.2-.02,3.3-.04h.32c0,.08,0,.17,0,.25-.1,5.41-.23,12.06,2.47,18.56,2.63,6.36,7.35,10.86,11.14,14.49,.17,.16,.37,.35,.59,.56-.21,.2-.4,.38-.56,.53-3.8,3.62-8.54,8.13-11.18,14.52-2.69,6.49-2.56,13.12-2.46,18.45,0,.1,0,.21,0,.32h-.73c-.98-.03-1.94-.04-2.89-.04-4.52,0-9.86,.3-15.2,2.51-6.39,2.66-10.89,7.39-14.5,11.18-.16,.17-.34,.36-.54,.57-.2-.21-.39-.4-.54-.57Z"/><circle class="cls-10" cx="69.76" cy="67.46" r="34.69"/><circle class="cls-5" cx="69.76" cy="67.46" r="33.05"/><g><path class="cls-7" d="M59.54,129.25l-29.78,29.78c-1.98,1.98-5.37,.75-5.62-2.04l-1.74-19.4-19.4-1.74c-2.79-.25-4.02-3.64-2.04-5.62l18.9-18.9c.45,1.47,1.16,2.79,2.2,3.83,5.69,5.69,18.62,1.1,26.17,4.23,3.97,1.63,7.52,6.11,11.3,9.86Z"/><path class="cls-7" d="M59.54,129.25l-29.78,29.78c-1.98,1.98-5.37,.75-5.62-2.04l-1.74-19.4-19.4-1.74c-2.79-.25-4.02-3.64-2.04-5.62l18.9-18.9c.45,1.47,1.16,2.79,2.2,3.83,5.69,5.69,18.62,1.1,26.17,4.23,3.97,1.63,7.52,6.11,11.3,9.86Z"/><path class="cls-9" d="M33.51,155.27l-3.75,3.75c-1.97,2-5.35,.76-5.61-2.03l-1.75-19.41-19.41-1.72c-2.76-.25-4-3.63-2.03-5.63l3.75-3.72c-1.97,1.97-.76,5.35,2.03,5.61l19.41,1.75,1.72,19.38c.25,2.79,3.66,4.03,5.63,2.03Z"/><path class="cls-7" d="M136.52,135.85l-19.42,1.74-1.74,19.4c-.25,2.79-3.64,4.02-5.62,2.04l-29.78-29.78c3.78-3.75,7.33-8.23,11.3-9.86,7.55-3.13,20.51,1.46,26.2-4.23,1.04-1.04,1.75-2.34,2.2-3.8l18.89,18.87c1.98,1.98,.75,5.37-2.04,5.62Z"/><path class="cls-12" d="M120.45,112.14c-.2,3.44-.87,6.54-2.99,8.65-5.69,5.69-18.65,1.1-26.2,4.23-2.99,1.24-5.75,4.09-8.51,7.02l-2.79-2.79c3.78-3.75,7.33-8.23,11.3-9.86,7.55-3.13,20.51,1.47,26.2-4.23,1.04-1.04,1.75-2.34,2.2-3.8l.79,.79Z"/><path class="cls-12" d="M59.54,129.24l-2.79,2.79c-2.76-2.93-5.49-5.78-8.51-7.02-7.55-3.13-20.48,1.47-26.17-4.23-2.11-2.11-2.79-5.21-2.99-8.68l.79-.79c.45,1.47,1.16,2.79,2.2,3.83,5.69,5.69,18.62,1.1,26.17,4.23,3.97,1.63,7.52,6.11,11.3,9.86Z"/><path class="cls-9" d="M136.51,135.86l-19.41,1.72-1.75,19.41c-.25,2.79-3.63,4.03-5.61,2.03l-3.27-3.27c1.97,1.8,5.24,.56,5.49-2.17l1.72-19.38,19.44-1.75c2.79-.25,4-3.61,2.06-5.61l3.38,3.38c1.97,1.97,.73,5.38-2.06,5.63Z"/></g><g><path class="cls-11" d="M93.64,68.24h-3.23c0-11.05-8.99-20.05-20.05-20.05s-20.05,8.99-20.05,20.05h-3.23c0-12.83,10.44-23.28,23.28-23.28s23.28,10.44,23.28,23.28Z"/><path class="cls-8" d="M94.28,68.69H45.24l4.22,9.85c.73,2.97,3.4,5.06,6.46,5.06h27.68c3.06,0,5.73-2.09,6.46-5.06l4.22-9.85Z"/><g><path class="cls-6" d="M57.65,67.16c-.41,.1-.43,0-.84,.1s-.4,.13-.81,.23-.39,.17-.8,.28-.43,.02-.84,.12-.38,.21-.79,.31-.43,.02-.84,.13-.41,.1-.82,.2-.38,.2-.79,.31-.41,.11-.82,.22-.43,.03-.84,.13c-.42,.1-.86-.16-.96-.58-.1-.4,0-.42-.1-.82s-.12-.39-.22-.79-.06-.41-.16-.8-.19-.37-.28-.77-.03-.41-.12-.81-.26-.35-.36-.75-.06-.41-.16-.8-.02-.41-.12-.81-.14-.39-.24-.78-.06-.41-.16-.8c-.1-.42,.12-.86,.54-.96s.41-.09,.82-.19,.43-.01,.84-.11,.41-.12,.81-.22,.38-.23,.79-.33,.41-.1,.82-.2,.45,.06,.86-.05,.39-.17,.8-.27,.42-.06,.83-.16,.38-.22,.79-.32,.43-.04,.83-.14,.89,.12,1,.53c.1,.4,.13,.39,.23,.78s0,.42,.1,.82,.11,.39,.21,.79,.02,.42,.12,.81,.19,.37,.29,.77,.16,.38,.26,.78,.05,.41,.15,.8,.09,.4,.19,.79,.02,.42,.12,.81,.11,.39,.2,.79c.1,.42-.1,.85-.52,.96Z"/><path class="cls-4" d="M57.94,67.55c-.44,.11-.46,0-.9,.12s-.43,.14-.87,.24-.42,.18-.86,.29-.46,.03-.89,.14-.41,.21-.85,.32-.46,.03-.89,.14-.44,.11-.88,.21-.41,.21-.85,.32-.43,.12-.87,.23c-.42,.1-.87-.24-.98-.65-.11-.44-.11-.44-.22-.87s-.01-.46-.12-.9-.13-.43-.24-.87-.07-.45-.18-.88-.19-.42-.3-.85-.04-.45-.15-.89-.27-.4-.38-.84-.07-.45-.18-.89-.04-.46-.15-.89c-.1-.42,.12-.84,.53-.95,.44-.11,.45-.07,.88-.18s.43-.15,.86-.26,.44-.1,.88-.21,.46-.02,.9-.13,.43-.12,.87-.23,.41-.23,.84-.34,.44-.1,.88-.21,.48,.04,.91-.06,.42-.17,.86-.28c.42-.1,.76,.14,.86,.56,.11,.44,.22,.41,.33,.85s.05,.45,.16,.89,.19,.42,.3,.85,.14,.43,.24,.87,.01,.46,.12,.9,.12,.43,.23,.87,.03,.46,.14,.89,.2,.42,.3,.85,.17,.42,.28,.86c.1,.42-.23,.88-.64,.99Z"/><polygon class="cls-6" points="48.71 61.18 48.39 61.28 48.1 61.3 47.81 61.37 47.51 61.37 47.23 61.45 46.99 61.5 46.91 61.36 47.2 61.34 47.46 61.16 47.75 61.11 48.05 61.09 48.32 60.99 48.6 60.95 48.71 61.18"/><polygon class="cls-6" points="51.42 63.09 51.11 63.19 50.81 63.21 50.53 63.28 50.23 63.28 49.95 63.37 49.7 63.41 49.63 63.27 49.92 63.26 50.18 63.07 50.47 63.03 50.76 63.01 51.04 62.91 51.32 62.86 51.42 63.09"/><polygon class="cls-6" points="54.6 64.58 54.29 64.68 53.99 64.69 53.71 64.77 53.41 64.77 53.13 64.85 52.88 64.9 52.81 64.76 53.1 64.74 53.35 64.56 53.64 64.51 53.94 64.49 54.22 64.39 54.5 64.35 54.6 64.58"/><polygon class="cls-6" points="57.46 66.11 57.15 66.21 56.86 66.23 56.57 66.3 56.27 66.3 55.99 66.38 55.74 66.43 55.67 66.29 55.96 66.27 56.22 66.09 56.51 66.04 56.8 66.03 57.08 65.92 57.36 65.88 57.46 66.11"/><polygon class="cls-6" points="50.68 67.79 50.37 67.89 50.07 67.91 49.79 67.98 49.49 67.98 49.21 68.07 48.96 68.11 48.89 67.97 49.18 67.96 49.44 67.77 49.73 67.73 50.02 67.71 50.3 67.61 50.58 67.56 50.68 67.79"/><polygon class="cls-6" points="55.67 58.89 55.36 58.98 55.06 59 54.78 59.07 54.48 59.07 54.2 59.16 53.95 59.21 53.88 59.07 54.17 59.05 54.43 58.86 54.72 58.82 55.01 58.8 55.29 58.7 55.57 58.65 55.67 58.89"/></g><g><path class="cls-6" d="M66.32,64.32c0,.33-.02,.66-.07,.97s-.23,.62-.33,.92-.25,.6-.41,.87-.44,.47-.64,.71-.4,.48-.65,.69-.52,.35-.8,.51-.52,.38-.82,.49-.62,.11-.94,.17-.61,.27-.94,.27-.65-.07-.96-.13-.61-.22-.91-.33-.61-.2-.89-.36-.52-.38-.76-.58-.51-.4-.72-.64-.39-.52-.55-.79-.2-.6-.31-.91-.2-.59-.26-.91-.23-.62-.23-.94,.04-.66,.09-.97,.31-.58,.42-.88,.18-.61,.33-.89,.38-.5,.59-.75,.34-.56,.58-.77,.55-.33,.83-.49,.53-.38,.83-.49,.61-.23,.93-.28,.65,.03,.97,.03,.65,0,.96,.06,.6,.22,.9,.33,.63,.15,.91,.31,.59,.29,.84,.5,.45,.48,.65,.72,.39,.52,.55,.8,.21,.6,.32,.91,.2,.6,.25,.92,.22,.62,.22,.95Z"/><path class="cls-4" d="M66.81,64.83c0,.33,0,.66-.06,.97s-.17,.63-.28,.93-.25,.6-.41,.88-.33,.57-.53,.82-.5,.42-.74,.63-.53,.36-.8,.52-.53,.38-.83,.49-.63,.15-.95,.21-.64,.05-.96,.05-.66,.06-.97,0-.59-.29-.89-.39-.61-.2-.88-.36-.61-.26-.85-.47-.37-.55-.57-.79-.44-.47-.6-.74-.32-.56-.43-.86-.08-.63-.14-.95-.11-.62-.11-.94-.05-.65,0-.96,.23-.6,.33-.9,.14-.65,.29-.92,.42-.49,.63-.74,.43-.47,.68-.67,.45-.49,.72-.65,.58-.32,.88-.43,.64-.11,.96-.17,.63-.09,.96-.09,.63,.14,.94,.2,.62,.11,.92,.22,.56,.28,.84,.44,.59,.26,.83,.46,.41,.48,.61,.73,.54,.4,.7,.68,.26,.6,.37,.9,.11,.63,.17,.95,.18,.62,.18,.95Z"/><polygon class="cls-6" points="59.04 61.36 58.67 61.38 58.34 61.32 58 61.32 57.67 61.24 57.34 61.26 57.05 61.24 57.01 61.06 57.34 61.13 57.67 60.99 58 61.02 58.33 61.08 58.67 61.05 58.99 61.07 59.04 61.36"/><polygon class="cls-6" points="62.5 63.96 62.13 63.98 61.8 63.92 61.46 63.92 61.13 63.84 60.8 63.86 60.51 63.84 60.47 63.67 60.8 63.73 61.13 63.59 61.46 63.62 61.79 63.68 62.13 63.65 62.45 63.67 62.5 63.96"/><polygon class="cls-6" points="66.27 66.29 65.9 66.31 65.57 66.25 65.24 66.25 64.9 66.17 64.57 66.19 64.28 66.17 64.24 66 64.57 66.06 64.9 65.92 65.23 65.96 65.57 66.02 65.9 65.98 66.22 66.01 66.27 66.29"/><polygon class="cls-6" points="59.04 66.29 58.67 66.31 58.34 66.25 58 66.25 57.67 66.17 57.34 66.19 57.05 66.17 57.01 66 57.34 66.06 57.67 65.92 58 65.96 58.33 66.02 58.67 65.98 58.99 66.01 59.04 66.29"/><polygon class="cls-6" points="61.79 68.77 61.42 68.79 61.08 68.73 60.75 68.73 60.42 68.65 60.09 68.67 59.8 68.65 59.76 68.48 60.08 68.54 60.42 68.4 60.75 68.43 61.08 68.5 61.42 68.46 61.74 68.49 61.79 68.77"/></g><g><path class="cls-6" d="M67.02,58.4c-.23,.39-.34,.32-.57,.71s-.11,.46-.34,.84-.39,.29-.61,.68-.16,.43-.39,.81-.26,.37-.49,.75-.18,.41-.41,.8-.25,.37-.48,.76-.25,.37-.48,.76-.07,.48-.3,.86-.29,.35-.52,.74-.27,.36-.5,.75-.12,.45-.35,.84c-.17,.29-.05,.54,.29,.54,.45,0,.45,0,.91,0s.46,.01,.91,.01,.46,.05,.91,.05,.46,.09,.91,.09,.46-.17,.91-.17,.46-.03,.91-.03,.46,.03,.91,.03,.46,0,.91,0,.46-.04,.91-.04,.46,.09,.91,.09,.46,.03,.91,.03,.46-.1,.91-.1c.34,0,.52-.27,.34-.56-.23-.39-.2-.4-.43-.79s-.31-.34-.54-.72-.09-.47-.32-.85-.27-.36-.5-.75-.33-.33-.56-.71-.08-.47-.31-.86-.29-.35-.52-.74-.25-.38-.47-.76-.12-.45-.35-.84-.26-.37-.49-.76-.3-.34-.53-.73-.15-.44-.37-.82c-.17-.29-.59-.23-.76,.06Z"/><path class="cls-4" d="M67.28,58.69c-.22,.39-.33,.32-.55,.71s-.11,.45-.33,.84-.38,.3-.6,.68-.16,.42-.38,.81-.25,.37-.48,.75-.18,.41-.4,.8-.25,.37-.47,.76-.25,.37-.47,.76-.07,.47-.29,.86-.28,.35-.5,.74-.27,.36-.49,.75-.12,.45-.34,.83c-.17,.29-.04,.54,.29,.54,.45,0,.45,0,.89,0s.45,.01,.89,.01,.45,.05,.89,.05,.45,.09,.89,.09,.45-.16,.89-.16,.45-.02,.89-.02,.45,.03,.89,.03,.45,0,.89,0,.45-.04,.89-.04,.45,.08,.89,.08,.45,.03,.89,.03,.45-.1,.89-.1c.34,0,.51-.26,.35-.56-.22-.39-.19-.4-.42-.79s-.3-.34-.53-.72-.08-.47-.31-.85-.27-.36-.49-.75-.32-.33-.54-.72-.08-.47-.3-.85-.29-.35-.51-.74-.24-.38-.46-.76-.12-.45-.34-.83-.25-.37-.48-.76-.3-.34-.52-.73-.14-.43-.36-.82c-.17-.29-.59-.23-.76,.06Z"/><polygon class="cls-6" points="71.74 67.39 71.4 67.41 71.1 67.36 70.79 67.36 70.49 67.28 70.18 67.3 69.92 67.29 69.88 67.12 70.18 67.18 70.49 67.06 70.79 67.09 71.09 67.14 71.4 67.11 71.69 67.13 71.74 67.39"/><polygon class="cls-6" points="67.22 65.27 66.88 65.29 66.58 65.24 66.28 65.24 65.97 65.16 65.67 65.18 65.4 65.17 65.37 65 65.67 65.06 65.97 64.94 66.27 64.97 66.58 65.02 66.88 64.99 67.18 65.01 67.22 65.27"/><polygon class="cls-6" points="67.38 61.57 67.04 61.59 66.74 61.54 66.43 61.54 66.13 61.46 65.83 61.48 65.56 61.46 65.52 61.3 65.82 61.36 66.13 61.23 66.43 61.26 66.74 61.32 67.04 61.29 67.34 61.31 67.38 61.57"/><polygon class="cls-6" points="69.47 63.88 69.13 63.9 68.83 63.84 68.53 63.84 68.22 63.77 67.92 63.78 67.66 63.77 67.62 63.61 67.92 63.66 68.22 63.54 68.52 63.57 68.83 63.62 69.13 63.59 69.43 63.62 69.47 63.88"/><polygon class="cls-6" points="64.08 67.17 63.74 67.19 63.44 67.13 63.13 67.13 62.83 67.06 62.52 67.08 62.26 67.06 62.22 66.9 62.52 66.96 62.83 66.83 63.13 66.86 63.43 66.92 63.74 66.88 64.03 66.91 64.08 67.17"/></g><g><path class="cls-6" d="M76.61,66.15c0,.2,0,.41-.04,.6s-.14,.38-.2,.56-.15,.37-.25,.54-.27,.29-.39,.44-.25,.3-.4,.42-.32,.21-.49,.31-.32,.23-.5,.3-.38,.07-.58,.1-.38,.16-.58,.16-.4-.05-.59-.08-.37-.14-.56-.2-.38-.12-.54-.22-.32-.23-.47-.36-.31-.24-.44-.39-.24-.32-.33-.49-.12-.37-.19-.56-.13-.36-.16-.56-.14-.38-.14-.58,.02-.4,.06-.59,.19-.36,.26-.54,.11-.38,.21-.55,.23-.31,.36-.46,.21-.35,.36-.47,.34-.2,.51-.3,.33-.23,.51-.3,.38-.14,.57-.17,.4,.02,.6,.02,.4,0,.59,.04,.37,.14,.55,.2,.39,.09,.56,.19,.36,.18,.51,.3,.27,.29,.4,.44,.24,.32,.34,.49,.13,.37,.2,.56,.12,.37,.16,.56,.14,.38,.14,.58Z"/><path class="cls-4" d="M76.91,66.47c0,.2,0,.41-.04,.6s-.1,.39-.17,.57-.15,.37-.25,.54-.2,.35-.33,.5-.3,.26-.45,.39-.32,.22-.49,.32-.33,.24-.51,.3-.38,.09-.58,.13-.39,.03-.59,.03-.41,.04-.6,0-.36-.18-.55-.24-.37-.12-.54-.22-.37-.16-.52-.29-.22-.33-.35-.48-.27-.29-.37-.46-.19-.34-.26-.53-.05-.39-.08-.58-.07-.38-.07-.58-.03-.4,0-.59,.14-.37,.2-.55,.08-.4,.18-.57,.26-.3,.38-.45,.26-.29,.42-.41,.27-.3,.44-.4,.35-.19,.54-.26,.39-.07,.59-.1,.39-.05,.59-.05,.39,.09,.58,.12,.38,.07,.56,.13,.34,.17,.51,.27,.36,.16,.51,.28,.25,.3,.38,.45,.33,.25,.43,.42,.16,.37,.23,.55,.07,.39,.1,.58,.11,.38,.11,.58Z"/><polygon class="cls-6" points="72.15 64.34 71.92 64.35 71.72 64.32 71.51 64.32 71.31 64.27 71.11 64.28 70.93 64.27 70.9 64.16 71.11 64.2 71.31 64.11 71.51 64.13 71.72 64.17 71.92 64.15 72.12 64.16 72.15 64.34"/><polygon class="cls-6" points="74.27 65.93 74.04 65.95 73.84 65.91 73.63 65.91 73.43 65.86 73.23 65.87 73.05 65.86 73.02 65.75 73.23 65.79 73.43 65.71 73.63 65.73 73.84 65.77 74.04 65.74 74.24 65.76 74.27 65.93"/><polygon class="cls-6" points="76.58 67.36 76.35 67.38 76.15 67.34 75.95 67.34 75.74 67.29 75.54 67.3 75.36 67.29 75.34 67.18 75.54 67.22 75.74 67.14 75.94 67.16 76.15 67.19 76.35 67.17 76.55 67.19 76.58 67.36"/><polygon class="cls-6" points="72.15 67.36 71.92 67.38 71.72 67.34 71.51 67.34 71.31 67.29 71.11 67.3 70.93 67.29 70.9 67.18 71.11 67.22 71.31 67.14 71.51 67.16 71.72 67.19 71.92 67.17 72.12 67.19 72.15 67.36"/><polygon class="cls-6" points="73.83 68.88 73.61 68.9 73.4 68.86 73.2 68.86 72.99 68.81 72.79 68.82 72.61 68.81 72.59 68.7 72.79 68.74 72.99 68.66 73.2 68.68 73.4 68.71 73.61 68.69 73.8 68.71 73.83 68.88"/></g><g><path class="cls-6" d="M81,64.42c0,.24-.01,.49-.05,.72s-.17,.46-.25,.68-.18,.44-.3,.65-.32,.35-.48,.53-.3,.36-.48,.51-.39,.26-.59,.38-.38,.28-.61,.36-.46,.08-.7,.12-.46,.2-.7,.2-.49-.06-.72-.1-.45-.16-.67-.24-.45-.15-.66-.27-.38-.28-.56-.43-.38-.29-.53-.48-.29-.38-.4-.59-.15-.45-.23-.67-.15-.44-.19-.68-.17-.46-.17-.7,.03-.49,.07-.72,.23-.43,.31-.65,.13-.46,.25-.66,.28-.37,.44-.55,.25-.42,.43-.57,.41-.25,.61-.37,.39-.28,.62-.37,.46-.17,.69-.21,.48,.02,.72,.02,.48,0,.71,.05,.45,.17,.67,.25,.47,.11,.67,.23,.44,.22,.62,.37,.33,.35,.48,.54,.29,.38,.41,.59,.16,.45,.24,.67,.15,.44,.19,.68,.16,.46,.16,.7Z"/><path class="cls-4" d="M81.36,64.8c0,.24,0,.49-.04,.72s-.13,.47-.21,.69-.19,.45-.3,.65-.24,.42-.39,.61-.37,.31-.55,.47-.39,.27-.6,.39-.39,.28-.62,.37-.47,.11-.7,.16-.47,.04-.71,.04-.49,.04-.72,0-.44-.21-.66-.29-.45-.15-.66-.27-.45-.19-.63-.35-.27-.4-.42-.59-.33-.35-.45-.55-.23-.42-.32-.64-.06-.47-.1-.71-.08-.46-.08-.7-.04-.48,0-.71,.17-.45,.25-.67,.1-.48,.22-.68,.31-.37,.46-.55,.32-.35,.5-.5,.33-.36,.54-.48,.43-.23,.65-.32,.48-.08,.71-.12,.47-.06,.71-.06,.47,.11,.7,.15,.46,.08,.68,.16,.42,.21,.62,.33,.44,.19,.62,.34,.3,.36,.46,.54,.4,.3,.52,.5,.19,.44,.27,.67,.08,.47,.12,.7,.13,.46,.13,.7Z"/><polygon class="cls-6" points="75.6 62.22 75.32 62.24 75.08 62.19 74.83 62.2 74.58 62.13 74.34 62.15 74.12 62.14 74.09 62.01 74.34 62.05 74.58 61.95 74.83 61.97 75.08 62.02 75.32 61.99 75.56 62.01 75.6 62.22"/><polygon class="cls-6" points="78.17 64.15 77.89 64.17 77.64 64.12 77.4 64.13 77.15 64.06 76.9 64.08 76.69 64.07 76.66 63.94 76.9 63.98 77.15 63.88 77.39 63.9 77.64 63.95 77.89 63.92 78.13 63.94 78.17 64.15"/><polygon class="cls-6" points="80.96 65.88 80.69 65.9 80.44 65.85 80.19 65.85 79.95 65.79 79.7 65.81 79.49 65.8 79.45 65.66 79.7 65.71 79.95 65.61 80.19 65.63 80.44 65.68 80.69 65.65 80.93 65.67 80.96 65.88"/><polygon class="cls-6" points="75.6 65.88 75.32 65.9 75.08 65.85 74.83 65.85 74.58 65.79 74.34 65.81 74.12 65.8 74.09 65.66 74.34 65.71 74.58 65.61 74.83 65.63 75.08 65.68 75.32 65.65 75.56 65.67 75.6 65.88"/><polygon class="cls-6" points="77.64 67.72 77.36 67.74 77.12 67.69 76.87 67.69 76.62 67.63 76.37 67.65 76.16 67.63 76.13 67.5 76.37 67.55 76.62 67.45 76.87 67.47 77.11 67.52 77.36 67.49 77.6 67.51 77.64 67.72"/></g><g><path class="cls-6" d="M90.54,60.47c-.41-.1-.43,0-.84-.1s-.4-.13-.81-.23-.39-.17-.8-.28-.43-.02-.84-.12-.38-.21-.79-.31-.43-.02-.84-.13-.41-.1-.82-.2-.38-.2-.79-.31-.41-.11-.82-.22-.43-.03-.84-.13c-.42-.1-.86,.16-.96,.58-.1,.4,0,.42-.1,.82s-.12,.39-.22,.79-.06,.41-.16,.8-.19,.37-.28,.77-.03,.41-.12,.81-.26,.35-.36,.75-.06,.41-.16,.8-.02,.41-.12,.81-.14,.39-.24,.78-.06,.41-.16,.8c-.1,.42,.12,.86,.54,.96s.41,.09,.82,.19,.43,.01,.84,.11,.41,.12,.81,.22,.38,.23,.79,.33,.41,.1,.82,.2,.45-.06,.86,.05,.39,.17,.8,.27,.42,.06,.83,.16,.38,.22,.79,.32,.43,.04,.83,.14,.89-.12,1-.53c.1-.4,.13-.39,.23-.78s0-.42,.1-.82,.11-.39,.21-.79,.02-.42,.12-.81,.19-.37,.29-.77,.16-.38,.26-.78,.05-.41,.15-.8,.09-.4,.19-.79,.02-.42,.12-.81,.11-.39,.2-.79c.1-.42-.1-.85-.52-.96Z"/><path class="cls-4" d="M90.83,60.07c-.44-.11-.46,0-.9-.12s-.43-.14-.87-.24-.42-.18-.86-.29-.46-.03-.89-.14-.41-.21-.85-.32-.46-.03-.89-.14-.44-.11-.88-.21-.41-.21-.85-.32-.43-.12-.87-.23c-.42-.1-.87,.24-.98,.65-.11,.44-.11,.44-.22,.87s-.01,.46-.12,.9c-.11,.44-.13,.43-.24,.87s-.07,.45-.18,.88-.19,.42-.3,.85-.04,.45-.15,.89-.27,.4-.38,.84-.07,.45-.18,.89-.04,.46-.15,.89c-.1,.42,.12,.84,.53,.95,.44,.11,.45,.07,.88,.18s.43,.15,.86,.26,.44,.1,.88,.21,.46,.02,.9,.13,.43,.12,.87,.23,.41,.23,.84,.34,.44,.1,.88,.21,.48-.04,.91,.06,.42,.17,.86,.28c.42,.1,.76-.14,.86-.56,.11-.44,.22-.41,.33-.85s.05-.45,.16-.89,.19-.42,.3-.85,.14-.43,.24-.87,.01-.46,.12-.9,.12-.43,.23-.87,.03-.46,.14-.89,.2-.42,.3-.85,.17-.42,.28-.86c.1-.42-.23-.88-.64-.99Z"/><polygon class="cls-6" points="81.6 66.45 81.29 66.35 80.99 66.33 80.71 66.26 80.41 66.26 80.13 66.17 79.88 66.12 79.8 66.27 80.1 66.28 80.35 66.47 80.64 66.51 80.94 66.53 81.21 66.63 81.49 66.68 81.6 66.45"/><polygon class="cls-6" points="84.31 64.53 84 64.43 83.71 64.42 83.42 64.34 83.12 64.34 82.84 64.26 82.59 64.21 82.52 64.35 82.81 64.37 83.07 64.55 83.36 64.6 83.65 64.62 83.93 64.72 84.21 64.76 84.31 64.53"/><polygon class="cls-6" points="87.49 63.05 87.18 62.95 86.88 62.93 86.6 62.86 86.3 62.86 86.02 62.77 85.77 62.72 85.7 62.87 85.99 62.88 86.24 63.07 86.53 63.11 86.83 63.13 87.11 63.23 87.39 63.28 87.49 63.05"/><polygon class="cls-6" points="90.36 61.51 90.04 61.42 89.75 61.4 89.47 61.33 89.16 61.33 88.88 61.24 88.64 61.19 88.56 61.33 88.86 61.35 89.11 61.54 89.4 61.58 89.7 61.6 89.97 61.7 90.25 61.75 90.36 61.51"/><polygon class="cls-6" points="83.57 59.83 83.26 59.73 82.97 59.72 82.68 59.65 82.38 59.65 82.1 59.56 81.85 59.51 81.78 59.65 82.07 59.67 82.33 59.86 82.62 59.9 82.91 59.92 83.19 60.02 83.47 60.06 83.57 59.83"/><polygon class="cls-6" points="88.56 68.74 88.25 68.64 87.96 68.62 87.67 68.55 87.37 68.55 87.09 68.46 86.84 68.42 86.77 68.56 87.06 68.58 87.32 68.76 87.61 68.8 87.9 68.82 88.18 68.92 88.46 68.97 88.56 68.74"/></g><rect class="cls-8" x="42.65" y="65.77" width="54.22" height="4.93" rx="1.82" ry="1.82"/><rect class="cls-11" x="69.3" y="72.92" width="7.73" height="1.5" rx=".55" ry=".55"/><rect class="cls-11" x="78.89" y="76.46" width="7.73" height="1.5" rx=".55" ry=".55"/><rect class="cls-11" x="61.6" y="76.36" width="7.73" height="1.5" rx=".55" ry=".55"/><rect class="cls-11" x="50.71" y="72.92" width="7.73" height="1.5" rx=".55" ry=".55"/><rect class="cls-11" x="62.06" y="69.2" width="29.09" height="1.5" rx=".55" ry=".55"/><rect class="cls-11" x="53.93" y="79.68" width="7.73" height="1.5" rx=".55" ry=".55"/><g><g><path class="cls-4" d="M85.33,83.54c0,.58-.2,1.09-.22,1.53-.03,.61,.04,1.16-.13,1.56-.19,.47-.74,.54-1.29,.78-.38,.16-.76,.67-1.38,.74-.44,.06-.96,.03-1.54,.05-.46,.02-.97-.04-1.54-.03-.47,0-.98-.11-1.53-.11s-1.06,.13-1.53,.12c-.56,0-1.08,.04-1.54,.02-.58-.03-1.08-.24-1.51-.29-.62-.08-1.19,.05-1.57-.11-.55-.23-.71-.79-.91-1.26-.16-.39-.03-.86-.06-1.48-.02-.44-.07-.94-.07-1.52s-.3-1.15-.18-1.68,.41-1.06,.65-1.55,.74-.82,1.09-1.26,.7-.81,1.13-1.15,.85-.65,1.35-.9,1-.36,1.55-.49,1.04-.23,1.6-.23,1.15-.22,1.68-.1,1.11,.29,1.61,.53,.79,.82,1.22,1.17,.94,.6,1.29,1.03,.9,.78,1.14,1.28,.41,1.09,.53,1.64,.16,1.14,.16,1.71Z"/><path class="cls-6" d="M85.1,86.08c-.01,.2-.04,.39-.11,.55-.19,.47-.74,.54-1.29,.77-.38,.16-.76,.67-1.38,.74-.44,.05-.96,.02-1.54,.05-.46,.02-.97-.04-1.53-.03-.47,0-.98-.11-1.53-.11s-1.06,.13-1.53,.12c-.56,0-1.07,.04-1.54,.02-.58-.02-1.07-.24-1.51-.29-.62-.08-1.19,.05-1.57-.11-.55-.23-.72-.79-.91-1.26-.04-.09-.06-.19-.07-.29,.15,.33,.35,.63,.73,.79,.39,.17,.99,.03,1.64,.12,.45,.06,.97,.28,1.57,.31,.48,.02,1.01-.03,1.6-.02,.49,0,1.02-.13,1.59-.13s1.1,.12,1.6,.12c.58,0,1.12,.05,1.6,.03,.61-.03,1.15,0,1.6-.05,.64-.08,1.04-.61,1.43-.77,.45-.19,.9-.28,1.17-.55Z"/><polygon class="cls-6" points="70.6 85 70.91 84.93 71.17 84.81 71.44 84.73 71.69 84.59 71.97 84.53 72.2 84.46 72.2 84.31 71.94 84.43 71.64 84.39 71.38 84.49 71.12 84.61 70.84 84.66 70.58 84.75 70.6 85"/><polygon class="cls-6" points="71.83 79.85 72.23 80 72.61 80.05 72.97 80.16 73.37 80.18 73.72 80.32 74.04 80.39 74.15 80.22 73.77 80.17 73.45 79.91 73.08 79.84 72.69 79.79 72.34 79.64 71.98 79.56 71.83 79.85"/><polygon class="cls-6" points="83.07 79.1 82.73 79.08 82.43 79.14 82.12 79.14 81.82 79.21 81.51 79.2 81.25 79.21 81.21 79.37 81.51 79.32 81.81 79.44 82.12 79.41 82.42 79.35 82.73 79.39 83.03 79.36 83.07 79.1"/><polygon class="cls-6" points="74.47 86.92 74.15 86.93 73.88 87.01 73.6 87.03 73.32 87.13 73.04 87.14 72.8 87.17 72.78 87.33 73.05 87.25 73.34 87.34 73.62 87.28 73.89 87.21 74.18 87.21 74.45 87.16 74.47 86.92"/><polygon class="cls-6" points="74.15 77.72 74.61 77.78 75.03 77.72 75.44 77.74 75.86 77.66 76.27 77.71 76.63 77.71 76.69 77.49 76.28 77.55 75.88 77.36 75.46 77.37 75.04 77.43 74.63 77.36 74.23 77.37 74.15 77.72"/><polygon class="cls-6" points="76.23 82.04 76.66 82.09 77.04 82.03 77.43 82.06 77.82 81.98 78.2 82.02 78.54 82.02 78.6 81.82 78.21 81.87 77.84 81.69 77.45 81.71 77.06 81.76 76.68 81.7 76.3 81.71 76.23 82.04"/><polygon class="cls-6" points="80.5 80.96 80.2 80.92 79.93 80.96 79.66 80.94 79.39 81 79.12 80.97 78.89 80.97 78.85 81.11 79.11 81.07 79.38 81.2 79.65 81.18 79.92 81.15 80.18 81.19 80.45 81.18 80.5 80.96"/><polygon class="cls-6" points="75.8 83.62 75.5 83.65 75.23 83.62 74.96 83.63 74.69 83.58 74.42 83.61 74.19 83.61 74.15 83.47 74.42 83.5 74.68 83.38 74.95 83.39 75.22 83.43 75.49 83.38 75.75 83.39 75.8 83.62"/><polygon class="cls-6" points="79.43 83.6 79.86 83.65 80.25 83.59 80.63 83.61 81.02 83.54 81.41 83.58 81.74 83.58 81.8 83.38 81.42 83.43 81.04 83.25 80.65 83.27 80.26 83.32 79.88 83.26 79.51 83.27 79.43 83.6"/><polygon class="cls-6" points="84.68 85.35 84.22 85.3 83.8 85.36 83.39 85.34 82.97 85.42 82.56 85.38 82.2 85.38 82.14 85.6 82.55 85.54 82.96 85.73 83.37 85.71 83.79 85.65 84.2 85.72 84.6 85.7 84.68 85.35"/></g><path class="cls-1" d="M75.13,76.77c-.36,.22-.69,.47-1.04,.74-.47,.38-.85,.78-1.23,1.26-.38,.47-.92,.82-1.19,1.37-.26,.54-.57,1.1-.71,1.69-.13,.58,.19,1.21,.19,1.83s.05,1.17,.08,1.65c.03,.67-.12,1.18,.06,1.61,.13,.3,.24,.64,.44,.92-.07-.01-.13-.03-.19-.06-.55-.23-.72-.79-.91-1.26-.17-.39-.03-.86-.06-1.48-.02-.44-.07-.94-.07-1.52s-.3-1.15-.18-1.68c.12-.55,.41-1.06,.65-1.55,.24-.5,.74-.82,1.09-1.26,.35-.43,.7-.81,1.13-1.15,.43-.34,.85-.65,1.35-.9,.19-.09,.38-.17,.57-.23Z"/></g><g><g><path class="cls-4" d="M89.86,86.44c0,.44-.15,.82-.17,1.15-.02,.46,.03,.88-.09,1.17-.15,.35-.56,.41-.98,.58-.29,.12-.57,.5-1.04,.56-.33,.04-.73,.02-1.16,.04-.35,.02-.73-.03-1.16-.02-.36,0-.74-.08-1.16-.08s-.8,.1-1.16,.09c-.42,0-.81,.03-1.16,.01-.44-.02-.81-.18-1.14-.22-.47-.06-.9,.04-1.19-.08-.42-.17-.54-.6-.69-.95-.12-.3-.02-.65-.04-1.11-.02-.33-.05-.71-.05-1.14s-.23-.87-.13-1.27,.31-.8,.49-1.17,.56-.62,.82-.95,.53-.61,.85-.87,.64-.49,1.02-.68,.75-.27,1.17-.37,.78-.17,1.21-.17,.86-.16,1.27-.07,.84,.22,1.21,.4,.6,.62,.92,.88,.71,.45,.97,.78,.68,.59,.86,.97,.31,.82,.4,1.23,.12,.86,.12,1.29Z"/><path class="cls-6" d="M89.68,88.36c-.01,.15-.03,.29-.08,.41-.15,.35-.56,.41-.98,.58-.28,.12-.57,.5-1.04,.56-.33,.04-.72,.02-1.16,.04-.35,.02-.73-.03-1.16-.02-.36,0-.74-.08-1.16-.08s-.8,.1-1.16,.09c-.42,0-.81,.03-1.16,.01-.44-.02-.81-.18-1.14-.22-.47-.06-.9,.04-1.19-.09-.42-.17-.54-.6-.68-.95-.03-.07-.05-.14-.05-.22,.11,.25,.26,.48,.55,.6,.3,.12,.75,.03,1.23,.09,.34,.04,.73,.21,1.19,.23,.36,.02,.76-.02,1.2-.01,.37,0,.77-.1,1.2-.1s.83,.09,1.2,.09c.44,0,.84,.04,1.2,.02,.46-.02,.87,0,1.21-.04,.49-.06,.78-.46,1.08-.58,.34-.14,.68-.21,.88-.41Z"/><polygon class="cls-6" points="78.75 87.54 78.98 87.49 79.17 87.4 79.38 87.34 79.57 87.23 79.78 87.19 79.95 87.13 79.95 87.02 79.76 87.11 79.53 87.08 79.33 87.16 79.14 87.25 78.92 87.28 78.73 87.35 78.75 87.54"/><polygon class="cls-6" points="79.67 83.66 79.97 83.77 80.26 83.81 80.54 83.89 80.83 83.91 81.1 84.01 81.34 84.07 81.42 83.93 81.13 83.9 80.89 83.7 80.61 83.65 80.32 83.61 80.06 83.5 79.79 83.44 79.67 83.66"/><polygon class="cls-6" points="88.15 83.09 87.89 83.08 87.66 83.12 87.43 83.12 87.2 83.18 86.97 83.16 86.77 83.17 86.75 83.3 86.97 83.25 87.2 83.35 87.43 83.32 87.66 83.28 87.89 83.31 88.12 83.29 88.15 83.09"/><polygon class="cls-6" points="81.66 88.99 81.42 89 81.21 89.06 81 89.07 80.8 89.15 80.58 89.15 80.4 89.18 80.39 89.3 80.59 89.24 80.81 89.3 81.02 89.26 81.23 89.21 81.44 89.21 81.64 89.17 81.66 88.99"/><polygon class="cls-6" points="81.42 82.05 81.77 82.09 82.08 82.05 82.39 82.07 82.71 82.01 83.02 82.04 83.29 82.04 83.34 81.88 83.03 81.92 82.72 81.77 82.41 81.79 82.1 81.83 81.78 81.78 81.48 81.79 81.42 82.05"/><polygon class="cls-6" points="82.99 85.31 83.31 85.34 83.6 85.3 83.89 85.32 84.19 85.26 84.48 85.3 84.73 85.29 84.77 85.14 84.49 85.18 84.2 85.05 83.91 85.06 83.62 85.1 83.33 85.05 83.04 85.06 82.99 85.31"/><polygon class="cls-6" points="86.21 84.49 85.98 84.46 85.78 84.49 85.58 84.48 85.37 84.52 85.17 84.5 84.99 84.5 84.96 84.6 85.16 84.58 85.36 84.67 85.57 84.66 85.77 84.64 85.97 84.67 86.17 84.66 86.21 84.49"/><polygon class="cls-6" points="82.67 86.5 82.44 86.52 82.24 86.5 82.03 86.51 81.83 86.47 81.63 86.49 81.45 86.49 81.42 86.38 81.62 86.41 81.82 86.32 82.02 86.33 82.23 86.35 82.43 86.32 82.63 86.33 82.67 86.5"/><polygon class="cls-6" points="85.4 86.48 85.73 86.52 86.02 86.48 86.31 86.5 86.61 86.44 86.9 86.47 87.15 86.47 87.19 86.32 86.9 86.36 86.62 86.22 86.33 86.24 86.03 86.27 85.74 86.23 85.46 86.23 85.4 86.48"/><polygon class="cls-6" points="89.37 87.81 89.02 87.77 88.7 87.81 88.39 87.8 88.08 87.86 87.77 87.83 87.5 87.83 87.45 87.99 87.76 87.95 88.06 88.09 88.38 88.07 88.69 88.03 89 88.08 89.31 88.07 89.37 87.81"/></g><path class="cls-1" d="M82.16,81.34c-.27,.16-.52,.35-.78,.56-.36,.29-.64,.59-.93,.95-.28,.35-.69,.62-.89,1.03-.2,.41-.43,.83-.53,1.28-.1,.44,.15,.91,.15,1.38s.04,.88,.06,1.25c.02,.5-.09,.89,.05,1.22,.1,.23,.18,.49,.33,.7-.05-.01-.1-.02-.14-.04-.42-.17-.54-.6-.68-.95-.12-.3-.02-.65-.04-1.11-.02-.33-.05-.71-.05-1.14s-.23-.87-.13-1.27c.09-.41,.31-.8,.49-1.17,.18-.38,.56-.62,.82-.95,.26-.33,.53-.61,.85-.87,.33-.26,.64-.49,1.02-.68,.14-.07,.28-.12,.43-.17Z"/></g></g></g></g></svg>