<?xml version="1.0" encoding="UTF-8"?><svg id="Camada_1" xmlns="http://www.w3.org/2000/svg" viewBox="0 0 230 230"><defs><style>.cls-1{opacity:.1;}.cls-2{fill:#6999db;}.cls-3{fill:#f1a948;}.cls-4{fill:#ffc170;}.cls-5{fill:#e6cacc;}.cls-6{fill:#f19824;}.cls-7{fill:#ba3f7b;}.cls-8{fill:#94345c;}.cls-9{fill:#de8740;}.cls-10{fill:#e08304;}.cls-11{fill:#d6a9ac;}.cls-12{fill:#9c3d65;}.cls-13{opacity:.15;}.cls-13,.cls-14,.cls-15{fill:#fff;}.cls-14{opacity:.2;}.cls-16{opacity:.6;}.cls-16,.cls-17,.cls-18,.cls-19{fill:#cbdde6;}.cls-17{opacity:.7;}.cls-18,.cls-15{opacity:.3;}.cls-19{opacity:.4;}</style></defs><g><polygon class="cls-5" points="0 140.35 230 42.88 230 230 0 230 0 140.35"/><polygon class="cls-11" points="0 148.82 230 51.42 230 230 0 230 0 148.82"/><polygon class="cls-5" points="0 157.57 230 60.7 230 230 0 230 0 157.57"/><polygon class="cls-11" points="0 207.6 230 110.73 230 230 0 230 0 207.6"/><polygon class="cls-5" points="0 217.6 230 120.74 230 230 0 230 0 217.6"/><polygon class="cls-11" points="230 167.95 230 230 91.66 230 230 167.95"/><polygon class="cls-5" points="230 179.05 230 230 114.78 230 230 179.05"/></g><g><g><path class="cls-19" d="M108.8,124.39c0,17.25-8.01,53.99-14.79,59.27-8.24,6.42-43.77,10.33-59.7-.82-8.6-6.03-13.79-48.57-13.03-61.98,.68-12.01,.95-22.36,.95-22.36,0,14.3,19.16,25.89,42.81,25.89s42.81-11.59,42.81-25.89c0,0,.95,10.73,.95,25.89Z"/><path class="cls-19" d="M106.2,98.51c0,13.75-18.43,24.9-41.16,24.9s-41.16-11.15-41.16-24.9,18.43-24.89,41.16-24.89,41.16,11.15,41.16,24.89Z"/><path class="cls-3" d="M106.2,134.15s0,.03,0,.03c-.06,.16-.12,.33-.19,.5-3.85,9.79-20.22,17.66-41,17.66s-37.49-8.45-40.59-18.66c-.05-.16-.09-.33-.14-.49-.61-6.93-.46-15.33,0-24.36l81.16-.46c1.89,5.3,1.35,15.49,.76,25.78Z"/><path class="cls-10" d="M105.45,107.12c0,10.95-18.2,20.91-40.62,20.91s-40.55-9.97-40.55-20.91,18.17-19.81,40.58-19.81,40.58,8.87,40.58,19.81Z"/><path class="cls-6" d="M105.45,108.84c0,10.95-18.2,20.91-40.62,20.91s-40.55-9.97-40.55-20.91,18.17-19.81,40.58-19.81,40.58,8.87,40.58,19.81Z"/><path class="cls-15" d="M43.33,106.52c-4.19-1.27,4.59-7.55,9.78-7.55s.04,1.94-3.89,3.5c-5.48,2.18-2.09,5.2-5.9,4.04Z"/><path class="cls-15" d="M91.89,104.22c2.59,3.48-1.68,.83-7.19-2.16-5.5-2.98-8.83-5.39-4.14-4.09,6.54,1.82,8.59,2.56,11.34,6.25Z"/><path class="cls-14" d="M101.79,108.89c0,9.96,1.96-6.64-17.43-12.94-39.5-12.84-55.58,17.6-56.42,12.94-1.77-9.8,16.53-18.03,36.93-18.03s36.93,8.07,36.93,18.03Z"/><path class="cls-4" d="M106.2,134.15s0,.03,0,.03c-.06,.16-.12,.33-.19,.5-3.85,9.79-20.22,17.66-41,17.66s-37.49-8.45-40.59-18.66c-.05-.16-.09-.33-.14-.49-.31-3.51-.42-7.4-.39-11.56,0,3.47,.14,6.73,.39,9.71,.04,.16,.09,.33,.14,.49,3.09,10.21,19.16,18.66,40.59,18.66s37.15-7.87,41-17.66c.07-.16,.13-.33,.19-.5,0,0,0-.03,0-.03,.26-4.45,.5-8.89,.54-12.93,.04,4.5-.24,9.62-.54,14.78Z"/><path class="cls-12" d="M106.2,134.15c-4.04,19.21-8.11,40.77-13.63,45.09-8.06,6.31-40.65,7.49-53.84,1.47-7.31-3.34-9.84-20.97-14.45-47.5,2.72,10.42,18.95,19.14,40.72,19.14s37.73-8.15,41.2-18.2Z"/><path class="cls-8" d="M106.2,134.15c-.24,1.16-.49,2.32-.74,3.49-4.67,9.23-20.52,16.46-40.46,16.46s-36.06-7.72-40.1-17.31c-.21-1.17-.41-2.37-.63-3.59,2.72,10.43,18.96,19.15,40.72,19.15s37.73-8.16,41.19-18.19Z"/><path class="cls-19" d="M65.24,125.79c-14.53,0-27.53-5.44-35.04-12.24,7.77,6.56,20.48,10.84,34.84,10.84s27.09-4.28,34.85-10.85c-7.5,6.81-20.11,12.25-34.65,12.25Z"/><path class="cls-16" d="M108.8,124.39c0,17.25-8.01,53.99-14.79,59.27-8.24,6.42-43.77,10.33-59.7-.82-8.6-6.03-13.79-48.57-13.03-61.98,.68-12.01,.95-22.36,.95-22.36,0,1.72,.28,3.4,.8,5.02-.14,4.02-.4,10.62-.8,17.84-.74,13.12,4.33,54.73,12.75,60.64,15.58,10.91,50.33,7.08,58.39,.8,6.64-5.16,14.47-41.1,14.47-57.97,0-9.64-.39-17.45-.67-21.74,.44-1.49,.67-3.02,.67-4.58,0,0,.95,10.73,.95,25.89Z"/><path class="cls-1" d="M98.77,184.19c-2.28,7-24.64,11.66-46.1,4.96,27.56,2.85,42.45-3.73,43.65-8.38,0,0,2.91,2,2.45,3.42Z"/><path class="cls-19" d="M30.2,113.55c-3.48-2.94-5.96-6.34-7.16-10.03,.09-2.52,.13-4.02,.13-4.02,0,5.2,2.59,10.04,7.03,14.05Z"/><path class="cls-19" d="M107.18,103.09c-1.13,3.83-3.64,7.36-7.23,10.41,4.41-4.01,6.97-8.82,6.97-13.99,0,0,.11,1.29,.26,3.59Z"/><path class="cls-18" d="M101.85,111.73c4.35,9.27,1.68,20.6-2.35,43.41v-39.46l2.35-3.94"/><path class="cls-16" d="M65.04,72.63c-23.64,0-42.81,11.59-42.81,25.88s19.16,25.89,42.81,25.89,42.81-11.59,42.81-25.89-19.17-25.88-42.81-25.88Zm0,50.78c-22.73,0-41.16-11.15-41.16-24.9s18.43-24.89,41.16-24.89,41.16,11.15,41.16,24.89-18.43,24.9-41.16,24.9Z"/><path class="cls-17" d="M48.14,75.83c-4.3,2.72-5.81,8.63-6.05,14.89-1.62,.54-3.15,1.13-4.59,1.77-.51-6.53-.35-12.33,1.63-13.32,4.39-2.21,8.51-3.12,9.01-3.34Z"/><path class="cls-18" d="M32.54,154.53c5.13,13.15,7.69,22.12,19.78,22.41,5.55,.13-9.3,6.16-14.47-1.58-5.17-7.74-11.19-18.17-5.31-20.83Z"/><path class="cls-15" d="M46.62,118.28c4.63,3.63,32.36,5.35,42.07-.94-9.65,2.02-28.48,2.53-42.07,.94Z"/></g><g><g><rect class="cls-2" x="90.84" y="102.94" width="8.53" height="3.3" rx="1.56" ry="1.56" transform="translate(-38.89 149.65) rotate(-66.3)"/><path class="cls-13" d="M95.29,103.28c1.55-1.2-.36,3.52-1.81,4.06-.62,.23,.26-2.86,1.81-4.06Z"/></g><g><rect class="cls-9" x="73.32" y="109.98" width="11.22" height="4.34" rx="1.56" ry="1.56" transform="translate(-56.37 134.48) rotate(-64.23)"/><path class="cls-13" d="M79.03,109.01c1.91-1.87,.06,5.57-1.82,6.4-.8,.35-.1-4.53,1.82-6.4Z"/></g><g><rect class="cls-7" x="47.02" y="88.58" width="11.22" height="4.34" rx="1.56" ry="1.56" transform="translate(-.47 .27) rotate(-.3)"/><path class="cls-13" d="M55.48,90.48c2.53,.9-4.98,2.5-6.55,1.18-.67-.56,4.03-2.08,6.55-1.18Z"/></g><g><rect class="cls-2" x="33" y="106.67" width="8.53" height="3.3" rx="1.56" ry="1.56" transform="translate(130.93 42.37) rotate(73.83)"/><path class="cls-13" d="M37.97,109.44c-.42,1.91-1.98-2.93-1.21-4.28,.33-.57,1.64,2.36,1.21,4.28Z"/></g><g><rect class="cls-2" x="59.45" y="102.58" width="8.53" height="3.3" rx="1.56" ry="1.56" transform="translate(146.09 14.01) rotate(73.83)"/><path class="cls-13" d="M64.43,105.35c-.42,1.91-1.98-2.93-1.21-4.28,.33-.57,1.64,2.36,1.21,4.28Z"/></g><g><rect class="cls-9" x="36.84" y="95.48" width="11.22" height="4.34" rx="1.56" ry="1.56" transform="translate(126.82 32.7) rotate(75.9)"/><path class="cls-13" d="M44.38,100.12c-.27,2.67-3.62-4.24-2.71-6.08,.39-.78,2.98,3.41,2.71,6.08Z"/></g><g><rect class="cls-9" x="68.64" y="90.82" width="11.22" height="4.34" rx="1.56" ry="1.56" transform="translate(146.35 -1.68) rotate(75.9)"/><path class="cls-13" d="M76.18,95.46c-.27,2.67-3.62-4.24-2.71-6.08,.39-.78,2.98,3.41,2.71,6.08Z"/></g><g><rect class="cls-7" x="79.09" y="97.86" width="11.22" height="4.34" rx="1.56" ry="1.56" transform="translate(213.93 121.85) rotate(139.84)"/><path class="cls-13" d="M82.68,102.06c-2.51,.93,2.22-5.11,4.27-5.11,.87,0-1.76,4.17-4.27,5.11Z"/></g><g><rect class="cls-7" x="43.03" y="109.08" width="11.22" height="4.34" rx="1.56" ry="1.56" transform="translate(157.56 164.9) rotate(139.84)"/><path class="cls-13" d="M46.62,113.28c-2.51,.93,2.22-5.11,4.27-5.11,.87,0-1.76,4.17-4.27,5.11Z"/></g></g></g><g><g><path class="cls-18" d="M145.39,118.59c5.13,13.15,7.69,22.12,19.78,22.41,5.55,.13-9.3,6.16-14.47-1.58-5.17-7.74-11.19-18.17-5.31-20.83Z"/><g><path class="cls-19" d="M223.25,84.55c0,17.25-8.01,53.99-14.79,59.27-8.24,6.42-43.77,10.33-59.7-.82-8.6-6.03-13.79-48.57-13.03-61.98,.68-12.01,.95-22.36,.95-22.36,0,14.3,19.16,25.89,42.81,25.89s42.81-11.59,42.81-25.89c0,0,.95,10.73,.95,25.89Z"/><path class="cls-19" d="M220.66,58.66c0,13.75-18.43,24.9-41.16,24.9s-41.16-11.15-41.16-24.9,18.43-24.89,41.16-24.89,41.16,11.15,41.16,24.89Z"/><path class="cls-3" d="M220.65,94.31s0,.03,0,.03c-.06,.16-.12,.33-.19,.5-3.85,9.79-20.22,17.66-41,17.66s-37.49-8.45-40.59-18.66c-.05-.16-.09-.33-.14-.49-.61-6.93-.46-15.33,0-24.36l81.16-.46c1.89,5.3,1.35,15.49,.76,25.78Z"/><path class="cls-10" d="M219.9,67.28c0,10.95-18.2,20.91-40.62,20.91s-40.55-9.97-40.55-20.91,18.17-19.81,40.58-19.81,40.58,8.87,40.58,19.81Z"/><path class="cls-6" d="M219.9,68.99c0,10.95-18.2,20.91-40.62,20.91s-40.55-9.97-40.55-20.91,18.17-19.81,40.58-19.81,40.58,8.87,40.58,19.81Z"/><path class="cls-15" d="M157.78,66.68c-4.19-1.27,4.59-7.55,9.78-7.55s.04,1.94-3.89,3.5c-5.48,2.18-2.09,5.2-5.9,4.04Z"/><path class="cls-15" d="M206.34,64.38c2.59,3.48-1.68,.83-7.19-2.16-5.5-2.98-8.83-5.39-4.14-4.09,6.54,1.82,8.59,2.56,11.34,6.25Z"/><path class="cls-14" d="M216.25,69.04c0,9.96,1.96-6.64-17.43-12.94-39.5-12.84-55.58,17.6-56.42,12.94-1.77-9.8,16.53-18.03,36.93-18.03s36.93,8.07,36.93,18.03Z"/><path class="cls-4" d="M220.65,94.31s0,.03,0,.03c-.06,.16-.12,.33-.19,.5-3.85,9.79-20.22,17.66-41,17.66s-37.49-8.45-40.59-18.66c-.05-.16-.09-.33-.14-.49-.31-3.51-.42-7.4-.39-11.56,0,3.47,.14,6.73,.39,9.71,.04,.16,.09,.33,.14,.49,3.09,10.21,19.16,18.66,40.59,18.66s37.15-7.87,41-17.66c.07-.16,.13-.33,.19-.5,0,0,0-.03,0-.03,.26-4.45,.5-8.89,.54-12.93,.04,4.5-.24,9.62-.54,14.78Z"/><path class="cls-12" d="M220.66,94.3c-4.04,19.21-8.11,40.77-13.63,45.09-8.06,6.31-40.65,7.49-53.84,1.47-7.31-3.34-9.84-20.97-14.45-47.5,2.72,10.42,18.95,19.14,40.72,19.14s37.73-8.15,41.2-18.2Z"/><path class="cls-8" d="M220.65,94.31c-.24,1.16-.49,2.32-.74,3.49-4.67,9.23-20.52,16.46-40.46,16.46s-36.06-7.72-40.1-17.31c-.21-1.17-.41-2.37-.63-3.59,2.72,10.43,18.96,19.15,40.72,19.15s37.73-8.16,41.19-18.19Z"/><path class="cls-19" d="M179.69,85.95c-14.53,0-27.53-5.44-35.04-12.24,7.77,6.56,20.48,10.84,34.84,10.84s27.09-4.28,34.85-10.85c-7.5,6.81-20.11,12.25-34.65,12.25Z"/><path class="cls-16" d="M223.25,84.55c0,17.25-8.01,53.99-14.79,59.27-8.24,6.42-43.77,10.33-59.7-.82-8.6-6.03-13.79-48.57-13.03-61.98,.68-12.01,.95-22.36,.95-22.36,0,1.72,.28,3.4,.8,5.02-.14,4.02-.4,10.62-.8,17.84-.74,13.12,4.33,54.73,12.75,60.64,15.58,10.91,50.33,7.08,58.39,.8,6.64-5.16,14.47-41.1,14.47-57.97,0-9.64-.39-17.45-.67-21.74,.44-1.49,.67-3.02,.67-4.58,0,0,.95,10.73,.95,25.89Z"/><path class="cls-1" d="M213.22,144.35c-2.28,7-24.64,11.66-46.1,4.96,27.56,2.85,42.45-3.73,43.65-8.38,0,0,2.91,2,2.45,3.42Z"/><path class="cls-19" d="M144.65,73.71c-3.48-2.94-5.96-6.34-7.16-10.03,.09-2.52,.13-4.02,.13-4.02,0,5.2,2.59,10.04,7.03,14.05Z"/><path class="cls-19" d="M221.63,63.25c-1.13,3.83-3.64,7.36-7.23,10.41,4.41-4.01,6.97-8.82,6.97-13.99,0,0,.11,1.29,.26,3.59Z"/><path class="cls-18" d="M216.3,71.88c4.35,9.27,1.68,20.6-2.35,43.41v-39.46l2.35-3.94"/><path class="cls-16" d="M179.49,32.78c-23.64,0-42.81,11.59-42.81,25.88s19.16,25.89,42.81,25.89,42.81-11.59,42.81-25.89-19.17-25.88-42.81-25.88Zm0,50.78c-22.73,0-41.16-11.15-41.16-24.9s18.43-24.89,41.16-24.89,41.16,11.15,41.16,24.89-18.43,24.9-41.16,24.9Z"/><path class="cls-17" d="M162.59,35.99c-4.3,2.72-5.81,8.63-6.05,14.89-1.62,.54-3.15,1.13-4.59,1.77-.51-6.53-.35-12.33,1.63-13.32,4.39-2.21,8.51-3.12,9.01-3.34Z"/><path class="cls-18" d="M147,114.69c5.13,13.15,7.69,22.12,19.78,22.41,5.55,.13-9.3,6.16-14.47-1.58-5.17-7.74-11.19-18.17-5.31-20.83Z"/><path class="cls-15" d="M161.08,78.44c4.63,3.63,32.36,5.35,42.07-.94-9.65,2.02-28.48,2.53-42.07,.94Z"/></g></g><g><g><rect class="cls-2" x="206.24" y="64.88" width="8.53" height="3.3" rx="1.56" ry="1.56" transform="translate(64.99 232.55) rotate(-66.3)"/><path class="cls-13" d="M210.68,65.21c1.55-1.2-.36,3.52-1.81,4.06-.62,.23,.26-2.86,1.81-4.06Z"/></g><g><rect class="cls-9" x="188.72" y="71.91" width="11.22" height="4.34" rx="1.56" ry="1.56" transform="translate(43.14 216.88) rotate(-64.23)"/><path class="cls-13" d="M194.43,70.94c1.91-1.87,.06,5.57-1.82,6.4-.8,.35-.1-4.53,1.82-6.4Z"/></g><g><rect class="cls-7" x="162.41" y="50.51" width="11.22" height="4.34" rx="1.56" ry="1.56" transform="translate(-.27 .87) rotate(-.3)"/><path class="cls-13" d="M170.87,52.41c2.53,.9-4.98,2.5-6.55,1.18-.67-.56,4.03-2.08,6.55-1.18Z"/></g><g><rect class="cls-2" x="148.39" y="68.6" width="8.53" height="3.3" rx="1.56" ry="1.56" transform="translate(177.63 -95.93) rotate(73.83)"/><path class="cls-13" d="M153.37,71.37c-.42,1.91-1.98-2.93-1.21-4.28,.33-.57,1.64,2.36,1.21,4.28Z"/></g><g><rect class="cls-2" x="174.85" y="64.52" width="8.53" height="3.3" rx="1.56" ry="1.56" transform="translate(192.79 -124.29) rotate(73.83)"/><path class="cls-13" d="M179.82,67.29c-.42,1.91-1.98-2.93-1.21-4.28,.33-.57,1.64,2.36,1.21,4.28Z"/></g><g><rect class="cls-9" x="152.23" y="57.42" width="11.22" height="4.34" rx="1.56" ry="1.56" transform="translate(177.19 -108.02) rotate(75.9)"/><path class="cls-13" d="M159.78,62.05c-.27,2.67-3.62-4.24-2.71-6.08,.39-.78,2.98,3.41,2.71,6.08Z"/></g><g><rect class="cls-9" x="184.04" y="52.75" width="11.22" height="4.34" rx="1.56" ry="1.56" transform="translate(196.72 -142.39) rotate(75.9)"/><path class="cls-13" d="M191.58,57.39c-.27,2.67-3.62-4.24-2.71-6.08,.39-.78,2.98,3.41,2.71,6.08Z"/></g><g><rect class="cls-7" x="194.48" y="59.79" width="11.22" height="4.34" rx="1.56" ry="1.56" transform="translate(392.97 -19.74) rotate(139.84)"/><path class="cls-13" d="M198.07,63.99c-2.51,.93,2.22-5.11,4.27-5.11,.87,0-1.76,4.17-4.27,5.11Z"/></g><g><rect class="cls-7" x="158.43" y="71.01" width="11.22" height="4.34" rx="1.56" ry="1.56" transform="translate(336.6 23.32) rotate(139.84)"/><path class="cls-13" d="M162.02,75.21c-2.51,.93,2.22-5.11,4.27-5.11,.87,0-1.76,4.17-4.27,5.11Z"/></g></g></g><g><g><path class="cls-19" d="M186.47,160.1c0,17.25-8.01,53.99-14.79,59.27-8.24,6.42-43.77,10.33-59.7-.82-8.6-6.03-13.79-48.57-13.03-61.98,.68-12.01,.95-22.36,.95-22.36,0,14.3,19.16,25.89,42.81,25.89s42.81-11.59,42.81-25.89c0,0,.95,10.73,.95,25.89Z"/><path class="cls-19" d="M183.87,134.21c0,13.75-18.43,24.9-41.16,24.9s-41.16-11.15-41.16-24.9,18.43-24.89,41.16-24.89,41.16,11.15,41.16,24.89Z"/><path class="cls-3" d="M183.86,169.86s0,.03,0,.03c-.06,.16-.12,.33-.19,.5-3.85,9.79-20.22,17.66-41,17.66s-37.49-8.45-40.59-18.66c-.05-.16-.09-.33-.14-.49-.61-6.93-.46-15.33,0-24.36l81.16-.46c1.89,5.3,1.35,15.49,.76,25.78Z"/><path class="cls-10" d="M183.12,142.83c0,10.95-18.2,20.91-40.62,20.91s-40.55-9.97-40.55-20.91,18.17-19.81,40.58-19.81,40.58,8.87,40.58,19.81Z"/><path class="cls-6" d="M183.12,144.54c0,10.95-18.2,20.91-40.62,20.91s-40.55-9.97-40.55-20.91,18.17-19.81,40.58-19.81,40.58,8.87,40.58,19.81Z"/><path class="cls-15" d="M120.99,142.23c-4.19-1.27,4.59-7.55,9.78-7.55s.04,1.94-3.89,3.5c-5.48,2.18-2.09,5.2-5.9,4.04Z"/><path class="cls-15" d="M169.56,139.93c2.59,3.48-1.68,.83-7.19-2.16-5.5-2.98-8.83-5.39-4.14-4.09,6.54,1.82,8.59,2.56,11.34,6.25Z"/><path class="cls-14" d="M179.46,144.59c0,9.96,1.96-6.64-17.43-12.94-39.5-12.84-55.58,17.6-56.42,12.94-1.77-9.8,16.53-18.03,36.93-18.03s36.93,8.07,36.93,18.03Z"/><path class="cls-4" d="M183.86,169.86s0,.03,0,.03c-.06,.16-.12,.33-.19,.5-3.85,9.79-20.22,17.66-41,17.66s-37.49-8.45-40.59-18.66c-.05-.16-.09-.33-.14-.49-.31-3.51-.42-7.4-.39-11.56,0,3.47,.14,6.73,.39,9.71,.04,.16,.09,.33,.14,.49,3.09,10.21,19.16,18.66,40.59,18.66s37.15-7.87,41-17.66c.07-.16,.13-.33,.19-.5,0,0,0-.03,0-.03,.26-4.45,.5-8.89,.54-12.93,.04,4.5-.24,9.62-.54,14.78Z"/><path class="cls-12" d="M183.87,169.86c-4.04,19.21-8.11,40.77-13.63,45.09-8.06,6.31-40.65,7.49-53.84,1.47-7.31-3.34-9.84-20.97-14.45-47.5,2.72,10.42,18.95,19.14,40.72,19.14s37.73-8.15,41.2-18.2Z"/><path class="cls-8" d="M183.86,169.86c-.24,1.16-.49,2.32-.74,3.49-4.67,9.23-20.52,16.46-40.46,16.46s-36.06-7.72-40.1-17.31c-.21-1.17-.41-2.37-.63-3.59,2.72,10.43,18.96,19.15,40.72,19.15s37.73-8.16,41.19-18.19Z"/><path class="cls-19" d="M142.91,161.5c-14.53,0-27.53-5.44-35.04-12.24,7.77,6.56,20.48,10.84,34.84,10.84s27.09-4.28,34.85-10.85c-7.5,6.81-20.11,12.25-34.65,12.25Z"/><path class="cls-16" d="M186.47,160.1c0,17.25-8.01,53.99-14.79,59.27-8.24,6.42-43.77,10.33-59.7-.82-8.6-6.03-13.79-48.57-13.03-61.98,.68-12.01,.95-22.36,.95-22.36,0,1.72,.28,3.4,.8,5.02-.14,4.02-.4,10.62-.8,17.84-.74,13.12,4.33,54.73,12.75,60.64,15.58,10.91,50.33,7.08,58.39,.8,6.64-5.16,14.47-41.1,14.47-57.97,0-9.64-.39-17.45-.67-21.74,.44-1.49,.67-3.02,.67-4.58,0,0,.95,10.73,.95,25.89Z"/><path class="cls-1" d="M176.44,219.9c-2.28,7-24.64,11.66-46.1,4.96,27.56,2.85,42.45-3.73,43.65-8.38,0,0,2.91,2,2.45,3.42Z"/><path class="cls-19" d="M107.86,149.26c-3.48-2.94-5.96-6.34-7.16-10.03,.09-2.52,.13-4.02,.13-4.02,0,5.2,2.59,10.04,7.03,14.05Z"/><path class="cls-19" d="M184.84,138.8c-1.13,3.83-3.64,7.36-7.23,10.41,4.41-4.01,6.97-8.82,6.97-13.99,0,0,.11,1.29,.26,3.59Z"/><path class="cls-18" d="M179.51,147.43c4.35,9.27,1.68,20.6-2.35,43.41v-39.46l2.35-3.94"/><path class="cls-16" d="M142.71,108.33c-23.64,0-42.81,11.59-42.81,25.88s19.16,25.89,42.81,25.89,42.81-11.59,42.81-25.89-19.17-25.88-42.81-25.88Zm0,50.78c-22.73,0-41.16-11.15-41.16-24.9s18.43-24.89,41.16-24.89,41.16,11.15,41.16,24.89-18.43,24.9-41.16,24.9Z"/><path class="cls-17" d="M125.8,111.54c-4.3,2.72-5.81,8.63-6.05,14.89-1.62,.54-3.15,1.13-4.59,1.77-.51-6.53-.35-12.33,1.63-13.32,4.39-2.21,8.51-3.12,9.01-3.34Z"/><path class="cls-18" d="M110.21,190.24c5.13,13.15,7.69,22.12,19.78,22.41,5.55,.13-9.3,6.16-14.47-1.58-5.17-7.74-11.19-18.17-5.31-20.83Z"/><path class="cls-15" d="M124.29,153.99c4.63,3.63,32.36,5.35,42.07-.94-9.65,2.02-28.48,2.53-42.07,.94Z"/></g><g><g><rect class="cls-2" x="107.04" y="141.71" width="8.53" height="3.3" rx="1.56" ry="1.56" transform="translate(280.49 77.64) rotate(106.6)"/><path class="cls-13" d="M111.29,144.68c-1.39,1.38-.08-3.54,1.29-4.25,.58-.3,.1,2.87-1.29,4.25Z"/></g><g><rect class="cls-9" x="120.82" y="131.7" width="11.22" height="4.34" rx="1.56" ry="1.56" transform="translate(293.72 56.94) rotate(108.67)"/><path class="cls-13" d="M126.72,136.99c-1.67,2.1-.75-5.52,1.01-6.58,.75-.45,.66,4.48-1.01,6.58Z"/></g><g><rect class="cls-7" x="149.57" y="149.68" width="11.22" height="4.34" rx="1.56" ry="1.56" transform="translate(328.6 282.47) rotate(172.61)"/><path class="cls-13" d="M152.38,152.47c-2.62-.58,4.63-3.1,6.35-1.98,.73,.47-3.74,2.56-6.35,1.98Z"/></g><g><rect class="cls-2" x="163.98" y="130.86" width="8.53" height="3.3" rx="1.56" ry="1.56" transform="translate(112.97 339.42) rotate(-113.27)"/><path class="cls-13" d="M167.41,131.49c.18-1.95,2.33,2.67,1.73,4.09-.25,.61-1.91-2.14-1.73-4.09Z"/></g><g><rect class="cls-2" x="138.23" y="138.19" width="8.53" height="3.3" rx="1.56" ry="1.56" transform="translate(70.32 325.99) rotate(-113.27)"/><path class="cls-13" d="M141.66,138.81c.18-1.95,2.33,2.67,1.73,4.09-.25,.61-1.91-2.14-1.73-4.09Z"/></g><g><rect class="cls-9" x="158.81" y="141.57" width="11.22" height="4.34" rx="1.56" ry="1.56" transform="translate(89.85 349.01) rotate(-111.19)"/><path class="cls-13" d="M162.2,141.53c-.06-2.68,4.11,3.76,3.44,5.7-.29,.82-3.38-3.02-3.44-5.7Z"/></g><g><rect class="cls-9" x="127.83" y="150.13" width="11.22" height="4.34" rx="1.56" ry="1.56" transform="translate(39.69 331.78) rotate(-111.19)"/><path class="cls-13" d="M131.22,150.09c-.06-2.68,4.11,3.76,3.44,5.7-.29,.82-3.38-3.02-3.44-5.7Z"/></g><g><rect class="cls-7" x="116.6" y="144.44" width="11.22" height="4.34" rx="1.56" ry="1.56" transform="translate(-68.41 136.85) rotate(-47.26)"/><path class="cls-13" d="M123.96,144.34c2.38-1.23-1.57,5.35-3.61,5.59-.87,.1,1.23-4.36,3.61-5.59Z"/></g><g><rect class="cls-7" x="150.99" y="128.85" width="11.22" height="4.34" rx="1.56" ry="1.56" transform="translate(-45.9 157.1) rotate(-47.26)"/><path class="cls-13" d="M158.35,128.75c2.38-1.23-1.57,5.35-3.61,5.59-.87,.1,1.23-4.36,3.61-5.59Z"/></g></g></g></svg>