<?xml version="1.0" encoding="UTF-8"?><svg id="Camada_1" xmlns="http://www.w3.org/2000/svg" viewBox="0 0 230 230"><defs><style>.cls-1{opacity:.05;}.cls-2{fill:#eb9f47;}.cls-3{fill:#f5db9f;}.cls-4{fill:#eedc9a;}.cls-5{fill:#fff9c1;}.cls-6{fill:#ffecbf;}.cls-7{fill:#e6cd95;}.cls-8{fill:#7dc4e3;}.cls-9{fill:#b57b35;}.cls-10{fill:#b8c2cc;}.cls-11{fill:#cfdbe6;}.cls-12{fill:#cc8a3c;}.cls-13{fill:#2487b3;}.cls-14{fill:#1f7399;}.cls-15{fill:#85d1f2;}</style></defs><g><g><g><path class="cls-2" d="M0,49.23H72.12v63.1H3.12C1.4,112.33,0,110.94,0,109.22V49.23H0Z"/><rect class="cls-6" x="5.85" y="62.38" width="60.43" height="36.81" rx="4.81" ry="4.81"/><path class="cls-2" d="M83.62,32.83l3.58-21.29h-3.58s-67.27,0-67.27,0c-2.48,0-4.5,2-4.52,4.48l-.15,16.81H83.62Z"/></g><polygon class="cls-2" points="11.69 32.83 0 49.23 72.12 49.23 83.62 32.83 11.69 32.83"/><path class="cls-1" d="M26.5,11.54c-2.48,0-4.5,2.01-4.52,4.49l-.15,16.81-11.69,16.4v59.61c0,1.93,1.57,3.5,3.5,3.5H3.5c-1.93,0-3.5-1.57-3.5-3.5V49.23l11.69-16.4,.15-16.81c.02-2.48,2.04-4.49,4.52-4.49h10.15Z"/><polygon class="cls-9" points="83.62 32.84 79.59 38.6 7.58 38.6 11.68 32.84 83.62 32.84"/><path class="cls-12" d="M72.12,112.33h23.98c3.25,0,5.89-2.64,5.89-5.89V49.04c0-.31-.1-.62-.27-.88l-10.93-15.74V15.13c0-1.98-1.6-3.58-3.58-3.58h0c-1.98,0-3.58,1.6-3.58,3.58v17.7s-11.5,16.4-11.5,16.4v63.1Z"/></g><g><g><path class="cls-2" d="M51.28,75.34h49.5v43.31H54.4c-1.72,0-3.12-1.4-3.12-3.12v-40.19h0Z"/><rect class="cls-6" x="55.3" y="84.37" width="41.48" height="25.26" rx="4.81" ry="4.81"/><path class="cls-2" d="M108.68,64.08l2.46-14.61h-2.46s-46.17,0-46.17,0c-1.7,0-3.09,1.37-3.1,3.07l-.1,11.54h49.38Z"/></g><polygon class="cls-2" points="59.3 64.08 51.28 75.34 100.78 75.34 108.68 64.08 59.3 64.08"/><path class="cls-1" d="M69.47,49.47c-1.7,0-3.09,1.38-3.1,3.08l-.1,11.54-8.02,11.25v40.91c0,1.32,1.08,2.4,2.4,2.4h-6.97c-1.32,0-2.4-1.08-2.4-2.4v-40.91l8.02-11.25,.1-11.54c.02-1.7,1.4-3.08,3.1-3.08h6.97Z"/><polygon class="cls-9" points="108.67 64.09 105.91 68.04 56.48 68.04 59.29 64.09 108.67 64.09"/><path class="cls-12" d="M100.78,118.65h16.46c2.23,0,4.04-1.81,4.04-4.04v-39.4c0-.22-.07-.43-.19-.6l-7.5-10.8v-11.87c0-1.36-1.1-2.46-2.46-2.46h0c-1.36,0-2.46,1.1-2.46,2.46v12.15s-7.9,11.26-7.9,11.26v43.31Z"/></g></g><g><g><path class="cls-15" d="M230,130.33v.13s0,.06-.02,.09c-.03,.47-.08,.94-.14,1.39-2.8,15.17-45.07,27.21-96.8,27.21s-94.02-12.04-96.82-27.21c-.06-.45-.11-.92-.14-1.39-.02-.03-.02-.06-.02-.09v-.13c0-15.9,43.41-28.81,96.98-28.81s96.96,12.9,96.96,28.81Z"/><path class="cls-8" d="M225.74,150.16v.04s0,.02-.01,.03c-.03,.15-.07,.29-.13,.43-2.6,4.73-41.84,8.49-89.86,8.49s-87.27-3.76-89.87-8.49c-.06-.14-.1-.29-.13-.43-.01,0-.01-.02-.01-.03v-.04c0-4.96,40.3-8.99,90.02-8.99s90,4.03,90,8.99Z"/><g><path class="cls-5" d="M203.33,157.06v.09s0,.05-.01,.07c-.02,.34-.06,.68-.1,1.01-2.03,11-32.68,19.73-70.18,19.73s-68.16-8.73-70.19-19.73c-.05-.33-.08-.67-.1-1.01-.01-.02-.01-.05-.01-.07v-.09c0-11.03,12.44-21.27,58.8-32.24,4.68-1.11,9.53-1.27,14.27-.46,25.51,4.4,75.65,20.31,67.53,32.69Z"/><ellipse class="cls-4" cx="135.56" cy="149.76" rx="2.53" ry="1.46"/><ellipse class="cls-4" cx="160.07" cy="144.69" rx="2.53" ry="1.46"/><ellipse class="cls-4" cx="152.36" cy="145.55" rx="2.53" ry="1.46"/><ellipse class="cls-4" cx="160.07" cy="149.76" rx="2.53" ry="1.46"/><ellipse class="cls-4" cx="101.07" cy="147.61" rx="2.53" ry="1.46"/><ellipse class="cls-4" cx="81.69" cy="150.52" rx="2.53" ry="1.46"/><ellipse class="cls-4" cx="76.32" cy="147.61" rx="2.53" ry="1.46"/><ellipse class="cls-4" cx="189.37" cy="149.06" rx="2.53" ry="1.46"/><ellipse class="cls-4" cx="181.41" cy="151.98" rx="2.53" ry="1.46"/><ellipse class="cls-4" cx="182.76" cy="146.15" rx="2.53" ry="1.46"/><ellipse class="cls-3" cx="107.57" cy="142.63" rx="2.53" ry="1.46"/><ellipse class="cls-4" cx="111.95" cy="147.61" rx="2.53" ry="1.46"/><ellipse class="cls-4" cx="126.12" cy="150.52" rx="2.53" ry="1.46"/><ellipse class="cls-4" cx="139.85" cy="153.43" rx="2.53" ry="1.46"/></g><path class="cls-13" d="M229.84,131.95c-4.14,40.39-16.36,57.71-29.2,73.28-6.89,8.37-17.16,13.23-28,13.23H93.42c-10.84,0-21.1-4.86-27.99-13.22-12.84-15.58-25.07-32.9-29.21-73.29,2.8,15.17,45.07,27.21,96.82,27.21s94-12.04,96.8-27.21Z"/><path class="cls-14" d="M111.37,218.45h-17.95c-10.84,0-21.1-4.85-27.99-13.21-12.84-15.58-25.07-32.9-29.21-73.3,1.11,6.04,8.49,11.59,20.24,16.08,5.4,29.28,15.94,43.88,26.93,57.22,6.9,8.37,17.16,13.21,27.99,13.21Z"/><path class="cls-13" d="M229.84,131.94c-.59,5.82-1.36,11.15-2.27,16.08-17.73,6.77-45.43,11.13-76.57,11.13-3.03,0-6.02-.05-8.98-.13,47.56-1.3,85.17-12.81,87.81-27.09Z"/></g><g><g><g><path class="cls-3" d="M153.25,50.22c-1.02,.72-1.52,.6-2.53,1.32s-.49,.85-1.51,1.57-1.73,.55-2.75,1.27-.72,.79-1.74,1.51-1.16,.69-2.18,1.41-.8,.77-1.82,1.49-1.14,.69-2.16,1.41-1.12,.7-2.14,1.42-.33,.88-1.35,1.6-1.29,.66-2.31,1.38-1.22,.68-2.24,1.4-.55,.83-1.57,1.56c-.77,.54-.19,1.01,1.35,1.01,2.03,0,2.03,0,4.07,0s2.04,.03,4.07,.03,2.04,.1,4.07,.1,2.04,.17,4.07,.17,2.04-.3,4.07-.3,2.04-.05,4.07-.05,2.04,.05,4.07,.05,2.04,0,4.07,0,2.04-.07,4.07-.07,2.04,.16,4.08,.16,2.04,.06,4.08,.06,2.04-.19,4.08-.19c1.54,0,2.35-.49,1.58-1.04-1.02-.72-.89-.75-1.91-1.47s-1.39-.63-2.41-1.35-.39-.87-1.41-1.59-1.22-.67-2.24-1.39-1.47-.62-2.49-1.34-.37-.87-1.39-1.59-1.3-.65-2.32-1.38-1.1-.7-2.12-1.42-.54-.83-1.55-1.56-1.15-.69-2.17-1.41-1.36-.64-2.38-1.36c-1.02-.72-.65-.81-1.67-1.53-.77-.54-2.71-.44-3.48,.11Z"/><path class="cls-1" d="M159.7,52.38c-.58,.28-1.05,.36-1.79,.88-1.03,.72-.48,.84-1.51,1.57-1.03,.72-1.73,.56-2.75,1.27-1.01,.72-.7,.8-1.73,1.53s-1.17,.68-2.19,1.41c-1.01,.72-.8,.76-1.81,1.49-1.03,.72-1.15,.68-2.17,1.41-1.01,.72-1.11,.7-2.13,1.43-1.03,.72-.32,.88-1.35,1.61s-1.29,.64-2.31,1.37c-1.03,.72-1.21,.68-2.23,1.41-.58,.4-.68,.62-.84,.84h-2.49c-2.05,0-2.05-.02-4.08-.02-1.53,0-2.11-.46-1.35-1.01,1.03-.72,.54-.82,1.57-1.55,1.03-.72,1.23-.68,2.23-1.41,1.03-.72,1.29-.66,2.31-1.37,1.03-.72,.34-.88,1.35-1.61,1.03-.72,1.13-.7,2.15-1.43,1.01-.72,1.13-.68,2.15-1.41,1.03-.72,.8-.76,1.83-1.49,1.01-.72,1.17-.68,2.17-1.41,1.03-.72,.72-.8,1.75-1.53,1.01-.7,1.73-.54,2.73-1.27,1.03-.72,.5-.84,1.51-1.57,1.03-.72,1.53-.6,2.53-1.33,.76-.54,2.71-.64,3.48-.1,1.03,.72,.64,.8,1.67,1.53,.56,.4,.92,.56,1.31,.74Z"/><circle class="cls-7" cx="150.77" cy="66.62" r="1.23"/><circle class="cls-7" cx="162.72" cy="58.09" r="1.23"/><circle class="cls-7" cx="167.23" cy="63.01" r="1.23"/><circle class="cls-7" cx="162.04" cy="63.74" r="1.23"/><circle class="cls-7" cx="149.55" cy="62.51" r="1.23"/><circle class="cls-7" cx="152.98" cy="59.82" r="1.23"/></g><rect class="cls-15" x="125.1" y="67.86" width="104.9" height="5.35" rx="1.33" ry="1.33"/><path class="cls-11" d="M183.95,73.2l-3.26,4.02c0,13.62-11.06,24.67-24.68,24.67s-24.68-11.04-24.68-24.67l-3.28-4.02h55.91Z"/><path class="cls-1" d="M161.55,101.24c-1.77,.42-3.62,.64-5.53,.64-13.65,0-24.69-11.04-24.69-24.67l-3.28-4h11.08l3.28,4c0,11.72,8.16,21.53,19.14,24.03Z"/><g><circle class="cls-10" cx="155.42" cy="79.01" r="2.2"/><circle class="cls-10" cx="151.66" cy="89.19" r="1.04"/><circle class="cls-10" cx="147.12" cy="82.3" r="1.77"/><circle class="cls-10" cx="168.45" cy="93.12" r="2.2"/><circle class="cls-10" cx="167.23" cy="85.11" r="1.04"/><circle class="cls-10" cx="173.24" cy="81.85" r="1.77"/></g></g><circle class="cls-3" cx="158.82" cy="116" r="2.81"/><circle class="cls-3" cx="148.9" cy="122.21" r="2.81"/><circle class="cls-3" cx="144.31" cy="139.39" r="2.81"/><circle class="cls-3" cx="147.12" cy="108.93" r="2.81"/><circle class="cls-3" cx="158.82" cy="130.86" r="2.81"/></g></g></svg>