<?xml version="1.0" encoding="UTF-8"?><svg id="Camada_1" xmlns="http://www.w3.org/2000/svg" viewBox="0 0 230 230"><defs><style>.cls-1{fill:#f96163;}.cls-2{fill:#f7c800;}.cls-3{fill:#ffe05e;}.cls-4{fill:#fff;}</style></defs><g><g><g><circle class="cls-3" cx="109.63" cy="104.05" r="9.09"/><path class="cls-2" d="M109.63,113.29c-3.72,.41-7.68-1.9-9.3-5.38-1.69-3.61-1.29-8.57,1.83-11.31,2.06-1.83,5.03-2.61,7.46-1.77v.29c-2.17,.77-3.98,1.87-5.39,3.55-1.27,1.56-2.39,3.31-2.52,5.39-.24,3.18,1.68,6.51,4.61,7.98,1.01,.51,2.13,.85,3.3,.96v.29h0Z"/></g><g><circle class="cls-3" cx="118.51" cy="98.32" r="9.09"/><path class="cls-2" d="M109.33,97.33c0-3.74,2.71-7.44,6.35-8.67,3.77-1.3,8.66-.37,11.05,3.03,1.6,2.25,2.05,5.28,.96,7.61l-.29-.03c-.54-2.24-1.44-4.15-2.96-5.74-1.41-1.43-3.04-2.73-5.09-3.09-3.14-.58-6.66,.97-8.42,3.73-.62,.95-1.07,2.03-1.31,3.18l-.29-.03h0Z"/></g><g><circle class="cls-3" cx="121.58" cy="107.97" r="9.09"/><path class="cls-2" d="M112.4,106.99c0-3.74,2.71-7.44,6.35-8.67,3.77-1.3,8.66-.37,11.05,3.03,1.6,2.25,2.05,5.28,.96,7.61l-.29-.03c-.54-2.24-1.44-4.15-2.96-5.74-1.41-1.43-3.04-2.73-5.09-3.09-3.14-.58-6.66,.97-8.42,3.73-.62,.95-1.07,2.03-1.31,3.18l-.29-.03h0Z"/></g><g><circle class="cls-3" cx="115.84" cy="104.07" r="5.86"/><path class="cls-2" d="M115.84,110.02c-2.62,1.12-5.76-.58-6.91-3.09-.53-1.1-.74-2.39-.61-3.6,.3-3.57,4.12-6.63,7.52-5.22,0,0,0,.19,0,.19-1.51,.03-2.98,.67-4.03,1.73-2.18,2.13-2.18,5.93,0,8.06,1.05,1.06,2.52,1.7,4.03,1.73v.19h0Z"/></g></g><g><g><circle class="cls-3" cx="131.95" cy="109.44" r="9.09"/><path class="cls-2" d="M131.95,118.68c-3.72,.41-7.68-1.9-9.3-5.38-1.69-3.61-1.29-8.57,1.83-11.31,2.06-1.83,5.03-2.61,7.46-1.77v.29c-2.17,.77-3.98,1.87-5.39,3.55-1.27,1.56-2.39,3.31-2.52,5.39-.24,3.18,1.68,6.51,4.61,7.98,1.01,.51,2.13,.85,3.3,.96v.29h0Z"/></g><g><circle class="cls-3" cx="140.83" cy="103.71" r="9.09"/><path class="cls-2" d="M131.65,102.72c0-3.74,2.71-7.44,6.35-8.67,3.77-1.3,8.66-.37,11.05,3.03,1.6,2.25,2.05,5.28,.96,7.61l-.29-.03c-.54-2.24-1.44-4.15-2.96-5.74-1.41-1.43-3.04-2.73-5.09-3.09-3.14-.58-6.66,.97-8.42,3.73-.62,.95-1.07,2.03-1.31,3.18l-.29-.03h0Z"/></g><g><circle class="cls-3" cx="143.9" cy="113.36" r="9.09"/><path class="cls-2" d="M134.72,112.38c0-3.74,2.71-7.44,6.35-8.67,3.77-1.3,8.66-.37,11.05,3.03,1.6,2.25,2.05,5.28,.96,7.61l-.29-.03c-.54-2.24-1.44-4.15-2.96-5.74-1.41-1.43-3.04-2.73-5.09-3.09-3.14-.58-6.66,.97-8.42,3.73-.62,.95-1.07,2.03-1.31,3.18l-.29-.03h0Z"/></g><g><circle class="cls-3" cx="138.16" cy="109.46" r="5.86"/><path class="cls-2" d="M138.16,115.41c-2.62,1.12-5.76-.58-6.91-3.09-.53-1.1-.74-2.39-.61-3.6,.3-3.57,4.12-6.63,7.52-5.22,0,0,0,.19,0,.19-1.51,.03-2.98,.67-4.03,1.73-2.18,2.13-2.18,5.93,0,8.06,1.05,1.06,2.52,1.7,4.03,1.73v.19h0Z"/></g></g><g><g><circle class="cls-3" cx="174.83" cy="109.44" r="9.09"/><path class="cls-2" d="M174.83,118.68c-3.72,.41-7.68-1.9-9.3-5.38-1.69-3.61-1.29-8.57,1.83-11.31,2.06-1.83,5.03-2.61,7.46-1.77v.29c-2.17,.77-3.98,1.87-5.39,3.55-1.27,1.56-2.39,3.31-2.52,5.39-.24,3.18,1.68,6.51,4.61,7.98,1.01,.51,2.13,.85,3.3,.96v.29h0Z"/></g><g><circle class="cls-3" cx="183.71" cy="103.71" r="9.09"/><path class="cls-2" d="M174.53,102.72c0-3.74,2.71-7.44,6.35-8.67,3.77-1.3,8.66-.37,11.05,3.03,1.6,2.25,2.05,5.28,.96,7.61l-.29-.03c-.54-2.24-1.44-4.15-2.96-5.74-1.41-1.43-3.04-2.73-5.09-3.09-3.14-.58-6.66,.97-8.42,3.73-.62,.95-1.07,2.03-1.31,3.18l-.29-.03h0Z"/></g><g><circle class="cls-3" cx="186.78" cy="113.36" r="9.09"/><path class="cls-2" d="M177.6,112.38c0-3.74,2.71-7.44,6.35-8.67,3.77-1.3,8.66-.37,11.05,3.03,1.6,2.25,2.05,5.28,.96,7.61l-.29-.03c-.54-2.24-1.44-4.15-2.96-5.74-1.41-1.43-3.04-2.73-5.09-3.09-3.14-.58-6.66,.97-8.42,3.73-.62,.95-1.07,2.03-1.31,3.18l-.29-.03h0Z"/></g><g><circle class="cls-3" cx="181.03" cy="109.46" r="5.86"/><path class="cls-2" d="M181.03,115.41c-2.62,1.12-5.76-.58-6.91-3.09-.53-1.1-.74-2.39-.61-3.6,.3-3.57,4.12-6.63,7.52-5.22,0,0,0,.19,0,.19-1.51,.03-2.98,.67-4.03,1.73-2.18,2.13-2.18,5.93,0,8.06,1.05,1.06,2.52,1.7,4.03,1.73v.19h0Z"/></g></g><g><g><circle class="cls-3" cx="135.11" cy="92.95" r="9.09"/><path class="cls-2" d="M135.11,102.19c-3.72,.41-7.68-1.9-9.3-5.38-1.69-3.61-1.29-8.57,1.83-11.31,2.06-1.83,5.03-2.61,7.46-1.77v.29c-2.17,.77-3.98,1.87-5.39,3.55-1.27,1.56-2.39,3.31-2.52,5.39-.24,3.18,1.68,6.51,4.61,7.98,1.01,.51,2.13,.85,3.3,.96v.29h0Z"/></g><g><circle class="cls-3" cx="143.98" cy="87.22" r="9.09"/><path class="cls-2" d="M134.81,86.23c0-3.74,2.71-7.44,6.35-8.67,3.77-1.3,8.66-.37,11.05,3.03,1.6,2.25,2.05,5.28,.96,7.61l-.29-.03c-.54-2.24-1.44-4.15-2.96-5.74-1.41-1.43-3.04-2.73-5.09-3.09-3.14-.58-6.66,.97-8.42,3.73-.62,.95-1.07,2.03-1.31,3.18l-.29-.03h0Z"/></g><g><circle class="cls-3" cx="147.06" cy="96.87" r="9.09"/><path class="cls-2" d="M137.88,95.89c0-3.74,2.71-7.44,6.35-8.67,3.77-1.3,8.66-.37,11.05,3.03,1.6,2.25,2.05,5.28,.96,7.61l-.29-.03c-.54-2.24-1.44-4.15-2.96-5.74-1.41-1.43-3.04-2.73-5.09-3.09-3.14-.58-6.66,.97-8.42,3.73-.62,.95-1.07,2.03-1.31,3.18l-.29-.03h0Z"/></g><g><circle class="cls-3" cx="141.31" cy="92.97" r="5.86"/><path class="cls-2" d="M141.31,98.92c-2.62,1.12-5.76-.58-6.91-3.09-.53-1.1-.74-2.39-.61-3.6,.3-3.57,4.12-6.63,7.52-5.22,0,0,0,.19,0,.19-1.51,.03-2.98,.67-4.03,1.73-2.18,2.13-2.18,5.93,0,8.06,1.05,1.06,2.52,1.7,4.03,1.73v.19h0Z"/></g></g><g><g><circle class="cls-3" cx="171.47" cy="101.83" r="9.09"/><path class="cls-2" d="M171.47,111.06c3.72,.41,7.68-1.9,9.3-5.38,1.69-3.61,1.29-8.57-1.83-11.31-2.06-1.83-5.03-2.61-7.46-1.77v.29c2.17,.77,3.98,1.87,5.39,3.55,1.27,1.56,2.39,3.31,2.52,5.39,.24,3.18-1.68,6.51-4.61,7.98-1.01,.51-2.13,.85-3.3,.96v.29h0Z"/></g><g><circle class="cls-3" cx="162.59" cy="96.1" r="9.09"/><path class="cls-2" d="M171.77,95.11c0-3.74-2.71-7.44-6.35-8.67-3.77-1.3-8.66-.37-11.05,3.03-1.6,2.25-2.05,5.28-.96,7.61l.29-.03c.54-2.24,1.44-4.15,2.96-5.74,1.41-1.43,3.04-2.73,5.09-3.09,3.14-.58,6.66,.97,8.42,3.73,.62,.95,1.07,2.03,1.31,3.18l.29-.03h0Z"/></g><g><circle class="cls-3" cx="159.52" cy="105.75" r="9.09"/><path class="cls-2" d="M168.7,104.76c0-3.74-2.71-7.44-6.35-8.67-3.77-1.3-8.66-.37-11.05,3.03-1.6,2.25-2.05,5.28-.96,7.61l.29-.03c.54-2.24,1.44-4.15,2.96-5.74,1.41-1.43,3.04-2.73,5.09-3.09,3.14-.58,6.66,.97,8.42,3.73,.62,.95,1.07,2.03,1.31,3.18l.29-.03h0Z"/></g><g><circle class="cls-3" cx="165.26" cy="101.84" r="5.86"/><path class="cls-2" d="M165.26,107.79c2.62,1.12,5.76-.58,6.91-3.09,.53-1.1,.74-2.39,.61-3.6-.3-3.57-4.12-6.63-7.52-5.22,0,0,0,.19,0,.19,1.51,.03,2.98,.67,4.03,1.73,2.18,2.13,2.18,5.93,0,8.06-1.05,1.06-2.52,1.7-4.03,1.73v.19h0Z"/></g></g></g><g><g><g><circle class="cls-3" cx="33.83" cy="88.22" r="9.09"/><path class="cls-2" d="M33.83,97.45c-3.72,.41-7.68-1.9-9.3-5.38-1.69-3.61-1.29-8.57,1.83-11.31,2.06-1.83,5.03-2.61,7.46-1.77v.29c-2.17,.77-3.98,1.87-5.39,3.55-1.27,1.56-2.39,3.31-2.52,5.39-.24,3.18,1.68,6.51,4.61,7.98,1.01,.51,2.13,.85,3.3,.96v.29h0Z"/></g><g><circle class="cls-3" cx="42.71" cy="82.48" r="9.09"/><path class="cls-2" d="M33.53,81.5c0-3.74,2.71-7.44,6.35-8.67,3.77-1.3,8.66-.37,11.05,3.03,1.6,2.25,2.05,5.28,.96,7.61l-.29-.03c-.54-2.24-1.44-4.15-2.96-5.74-1.41-1.43-3.04-2.73-5.09-3.09-3.14-.58-6.66,.97-8.42,3.73-.62,.95-1.07,2.03-1.31,3.18l-.29-.03h0Z"/></g><g><circle class="cls-3" cx="45.78" cy="92.14" r="9.09"/><path class="cls-2" d="M36.6,91.15c0-3.74,2.71-7.44,6.35-8.67,3.77-1.3,8.66-.37,11.05,3.03,1.6,2.25,2.05,5.28,.96,7.61l-.29-.03c-.54-2.24-1.44-4.15-2.96-5.74-1.41-1.43-3.04-2.73-5.09-3.09-3.14-.58-6.66,.97-8.42,3.73-.62,.95-1.07,2.03-1.31,3.18l-.29-.03h0Z"/></g><g><circle class="cls-3" cx="40.03" cy="88.23" r="5.86"/><path class="cls-2" d="M40.03,94.18c-2.62,1.12-5.76-.58-6.91-3.09-.53-1.1-.74-2.39-.61-3.6,.3-3.57,4.12-6.63,7.52-5.22,0,0,0,.19,0,.19-1.51,.03-2.98,.67-4.03,1.73-2.18,2.13-2.18,5.93,0,8.06,1.05,1.06,2.52,1.7,4.03,1.73v.19h0Z"/></g></g><g><g><circle class="cls-3" cx="56.15" cy="93.61" r="9.09"/><path class="cls-2" d="M56.15,102.84c-3.72,.41-7.68-1.9-9.3-5.38-1.69-3.61-1.29-8.57,1.83-11.31,2.06-1.83,5.03-2.61,7.46-1.77v.29c-2.17,.77-3.98,1.87-5.39,3.55-1.27,1.56-2.39,3.31-2.52,5.39-.24,3.18,1.68,6.51,4.61,7.98,1.01,.51,2.13,.85,3.3,.96v.29h0Z"/></g><g><circle class="cls-3" cx="65.02" cy="87.87" r="9.09"/><path class="cls-2" d="M55.84,86.89c0-3.74,2.71-7.44,6.35-8.67,3.77-1.3,8.66-.37,11.05,3.03,1.6,2.25,2.05,5.28,.96,7.61l-.29-.03c-.54-2.24-1.44-4.15-2.96-5.74-1.41-1.43-3.04-2.73-5.09-3.09-3.14-.58-6.66,.97-8.42,3.73-.62,.95-1.07,2.03-1.31,3.18l-.29-.03h0Z"/></g><g><circle class="cls-3" cx="68.1" cy="97.53" r="9.09"/><path class="cls-2" d="M58.92,96.54c0-3.74,2.71-7.44,6.35-8.67,3.77-1.3,8.66-.37,11.05,3.03,1.6,2.25,2.05,5.28,.96,7.61l-.29-.03c-.54-2.24-1.44-4.15-2.96-5.74-1.41-1.43-3.04-2.73-5.09-3.09-3.14-.58-6.66,.97-8.42,3.73-.62,.95-1.07,2.03-1.31,3.18l-.29-.03h0Z"/></g><g><circle class="cls-3" cx="62.35" cy="93.62" r="5.86"/><path class="cls-2" d="M62.35,99.57c-2.62,1.12-5.76-.58-6.91-3.09-.53-1.1-.74-2.39-.61-3.6,.3-3.57,4.12-6.63,7.52-5.22,0,0,0,.19,0,.19-1.51,.03-2.98,.67-4.03,1.73-2.18,2.13-2.18,5.93,0,8.06,1.05,1.06,2.52,1.7,4.03,1.73v.19h0Z"/></g></g><g><g><circle class="cls-3" cx="99.02" cy="93.61" r="9.09"/><path class="cls-2" d="M99.02,102.84c-3.72,.41-7.68-1.9-9.3-5.38-1.69-3.61-1.29-8.57,1.83-11.31,2.06-1.83,5.03-2.61,7.46-1.77v.29c-2.17,.77-3.98,1.87-5.39,3.55-1.27,1.56-2.39,3.31-2.52,5.39-.24,3.18,1.68,6.51,4.61,7.98,1.01,.51,2.13,.85,3.3,.96v.29h0Z"/></g><g><circle class="cls-3" cx="107.9" cy="87.87" r="9.09"/><path class="cls-2" d="M98.72,86.89c0-3.74,2.71-7.44,6.35-8.67,3.77-1.3,8.66-.37,11.05,3.03,1.6,2.25,2.05,5.28,.96,7.61l-.29-.03c-.54-2.24-1.44-4.15-2.96-5.74-1.41-1.43-3.04-2.73-5.09-3.09-3.14-.58-6.66,.97-8.42,3.73-.62,.95-1.07,2.03-1.31,3.18l-.29-.03h0Z"/></g><g><circle class="cls-3" cx="110.98" cy="97.53" r="9.09"/><path class="cls-2" d="M101.8,96.54c0-3.74,2.71-7.44,6.35-8.67,3.77-1.3,8.66-.37,11.05,3.03,1.6,2.25,2.05,5.28,.96,7.61l-.29-.03c-.54-2.24-1.44-4.15-2.96-5.74-1.41-1.43-3.04-2.73-5.09-3.09-3.14-.58-6.66,.97-8.42,3.73-.62,.95-1.07,2.03-1.31,3.18l-.29-.03h0Z"/></g><g><circle class="cls-3" cx="105.23" cy="93.62" r="5.86"/><path class="cls-2" d="M105.23,99.57c-2.62,1.12-5.76-.58-6.91-3.09-.53-1.1-.74-2.39-.61-3.6,.3-3.57,4.12-6.63,7.52-5.22,0,0,0,.19,0,.19-1.51,.03-2.98,.67-4.03,1.73-2.18,2.13-2.18,5.93,0,8.06,1.05,1.06,2.52,1.7,4.03,1.73v.19h0Z"/></g></g><g><g><circle class="cls-3" cx="59.3" cy="77.12" r="9.09"/><path class="cls-2" d="M59.3,86.35c-3.72,.41-7.68-1.9-9.3-5.38-1.69-3.61-1.29-8.57,1.83-11.31,2.06-1.83,5.03-2.61,7.46-1.77v.29c-2.17,.77-3.98,1.87-5.39,3.55-1.27,1.56-2.39,3.31-2.52,5.39-.24,3.18,1.68,6.51,4.61,7.98,1.01,.51,2.13,.85,3.3,.96v.29h0Z"/></g><g><circle class="cls-3" cx="68.18" cy="71.38" r="9.09"/><path class="cls-2" d="M59,70.4c0-3.74,2.71-7.44,6.35-8.67,3.77-1.3,8.66-.37,11.05,3.03,1.6,2.25,2.05,5.28,.96,7.61l-.29-.03c-.54-2.24-1.44-4.15-2.96-5.74-1.41-1.43-3.04-2.73-5.09-3.09-3.14-.58-6.66,.97-8.42,3.73-.62,.95-1.07,2.03-1.31,3.18l-.29-.03h0Z"/></g><g><circle class="cls-3" cx="71.25" cy="81.04" r="9.09"/><path class="cls-2" d="M62.07,80.05c0-3.74,2.71-7.44,6.35-8.67,3.77-1.3,8.66-.37,11.05,3.03,1.6,2.25,2.05,5.28,.96,7.61l-.29-.03c-.54-2.24-1.44-4.15-2.96-5.74-1.41-1.43-3.04-2.73-5.09-3.09-3.14-.58-6.66,.97-8.42,3.73-.62,.95-1.07,2.03-1.31,3.18l-.29-.03h0Z"/></g><g><circle class="cls-3" cx="65.51" cy="77.13" r="5.86"/><path class="cls-2" d="M65.51,83.08c-2.62,1.12-5.76-.58-6.91-3.09-.53-1.1-.74-2.39-.61-3.6,.3-3.57,4.12-6.63,7.52-5.22,0,0,0,.19,0,.19-1.51,.03-2.98,.67-4.03,1.73-2.18,2.13-2.18,5.93,0,8.06,1.05,1.06,2.52,1.7,4.03,1.73v.19h0Z"/></g></g><g><g><circle class="cls-3" cx="95.66" cy="85.99" r="9.09"/><path class="cls-2" d="M95.66,95.22c3.72,.41,7.68-1.9,9.3-5.38,1.69-3.61,1.29-8.57-1.83-11.31-2.06-1.83-5.03-2.61-7.46-1.77v.29c2.17,.77,3.98,1.87,5.39,3.55,1.27,1.56,2.39,3.31,2.52,5.39,.24,3.18-1.68,6.51-4.61,7.98-1.01,.51-2.13,.85-3.3,.96v.29h0Z"/></g><g><circle class="cls-3" cx="86.78" cy="80.26" r="9.09"/><path class="cls-2" d="M95.96,79.27c0-3.74-2.71-7.44-6.35-8.67-3.77-1.3-8.66-.37-11.05,3.03-1.6,2.25-2.05,5.28-.96,7.61l.29-.03c.54-2.24,1.44-4.15,2.96-5.74,1.41-1.43,3.04-2.73,5.09-3.09,3.14-.58,6.66,.97,8.42,3.73,.62,.95,1.07,2.03,1.31,3.18l.29-.03h0Z"/></g><g><circle class="cls-3" cx="83.71" cy="89.91" r="9.09"/><path class="cls-2" d="M92.89,88.92c0-3.74-2.71-7.44-6.35-8.67-3.77-1.3-8.66-.37-11.05,3.03-1.6,2.25-2.05,5.28-.96,7.61l.29-.03c.54-2.24,1.44-4.15,2.96-5.74,1.41-1.43,3.04-2.73,5.09-3.09,3.14-.58,6.66,.97,8.42,3.73,.62,.95,1.07,2.03,1.31,3.18l.29-.03h0Z"/></g><g><circle class="cls-3" cx="89.46" cy="86" r="5.86"/><path class="cls-2" d="M89.46,91.96c2.62,1.12,5.76-.58,6.91-3.09,.53-1.1,.74-2.39,.61-3.6-.3-3.57-4.12-6.63-7.52-5.22,0,0,0,.19,0,.19,1.51,.03,2.98,.67,4.03,1.73,2.18,2.13,2.18,5.93,0,8.06-1.05,1.06-2.52,1.7-4.03,1.73v.19h0Z"/></g></g></g><g><g><g><circle class="cls-3" cx="15.6" cy="102.81" r="9.09"/><path class="cls-2" d="M15.6,112.04c-3.72,.41-7.68-1.9-9.3-5.38-1.69-3.61-1.29-8.57,1.83-11.31,2.06-1.83,5.03-2.61,7.46-1.77v.29c-2.17,.77-3.98,1.87-5.39,3.55-1.27,1.56-2.39,3.31-2.52,5.39-.24,3.18,1.68,6.51,4.61,7.98,1.01,.51,2.13,.85,3.3,.96v.29h0Z"/></g><g><circle class="cls-3" cx="24.48" cy="97.07" r="9.09"/><path class="cls-2" d="M15.3,96.09c0-3.74,2.71-7.44,6.35-8.67,3.77-1.3,8.66-.37,11.05,3.03,1.6,2.25,2.05,5.28,.96,7.61l-.29-.03c-.54-2.24-1.44-4.15-2.96-5.74-1.41-1.43-3.04-2.73-5.09-3.09-3.14-.58-6.66,.97-8.42,3.73-.62,.95-1.07,2.03-1.31,3.18l-.29-.03h0Z"/></g><g><circle class="cls-3" cx="27.55" cy="106.73" r="9.09"/><path class="cls-2" d="M18.37,105.74c0-3.74,2.71-7.44,6.35-8.67,3.77-1.3,8.66-.37,11.05,3.03,1.6,2.25,2.05,5.28,.96,7.61l-.29-.03c-.54-2.24-1.44-4.15-2.96-5.74-1.41-1.43-3.04-2.73-5.09-3.09-3.14-.58-6.66,.97-8.42,3.73-.62,.95-1.07,2.03-1.31,3.18l-.29-.03h0Z"/></g><g><circle class="cls-3" cx="21.8" cy="102.82" r="5.86"/><path class="cls-2" d="M21.8,108.77c-2.62,1.12-5.76-.58-6.91-3.09-.53-1.1-.74-2.39-.61-3.6,.3-3.57,4.12-6.63,7.52-5.22,0,0,0,.19,0,.19-1.51,.03-2.98,.67-4.03,1.73-2.18,2.13-2.18,5.93,0,8.06,1.05,1.06,2.52,1.7,4.03,1.73v.19h0Z"/></g></g><g><g><circle class="cls-3" cx="37.92" cy="108.2" r="9.09"/><path class="cls-2" d="M37.92,117.43c-3.72,.41-7.68-1.9-9.3-5.38-1.69-3.61-1.29-8.57,1.83-11.31,2.06-1.83,5.03-2.61,7.46-1.77v.29c-2.17,.77-3.98,1.87-5.39,3.55-1.27,1.56-2.39,3.31-2.52,5.39-.24,3.18,1.68,6.51,4.61,7.98,1.01,.51,2.13,.85,3.3,.96v.29h0Z"/></g><g><circle class="cls-3" cx="46.8" cy="102.46" r="9.09"/><path class="cls-2" d="M37.62,101.48c0-3.74,2.71-7.44,6.35-8.67,3.77-1.3,8.66-.37,11.05,3.03,1.6,2.25,2.05,5.28,.96,7.61l-.29-.03c-.54-2.24-1.44-4.15-2.96-5.74-1.41-1.43-3.04-2.73-5.09-3.09-3.14-.58-6.66,.97-8.42,3.73-.62,.95-1.07,2.03-1.31,3.18l-.29-.03h0Z"/></g><g><circle class="cls-3" cx="49.87" cy="112.12" r="9.09"/><path class="cls-2" d="M40.69,111.13c0-3.74,2.71-7.44,6.35-8.67,3.77-1.3,8.66-.37,11.05,3.03,1.6,2.25,2.05,5.28,.96,7.61l-.29-.03c-.54-2.24-1.44-4.15-2.96-5.74-1.41-1.43-3.04-2.73-5.09-3.09-3.14-.58-6.66,.97-8.42,3.73-.62,.95-1.07,2.03-1.31,3.18l-.29-.03h0Z"/></g><g><circle class="cls-3" cx="44.12" cy="108.21" r="5.86"/><path class="cls-2" d="M44.12,114.16c-2.62,1.12-5.76-.58-6.91-3.09-.53-1.1-.74-2.39-.61-3.6,.3-3.57,4.12-6.63,7.52-5.22,0,0,0,.19,0,.19-1.51,.03-2.98,.67-4.03,1.73-2.18,2.13-2.18,5.93,0,8.06,1.05,1.06,2.52,1.7,4.03,1.73v.19h0Z"/></g></g><g><g><circle class="cls-3" cx="80.8" cy="108.2" r="9.09"/><path class="cls-2" d="M80.8,117.43c-3.72,.41-7.68-1.9-9.3-5.38-1.69-3.61-1.29-8.57,1.83-11.31,2.06-1.83,5.03-2.61,7.46-1.77v.29c-2.17,.77-3.98,1.87-5.39,3.55-1.27,1.56-2.39,3.31-2.52,5.39-.24,3.18,1.68,6.51,4.61,7.98,1.01,.51,2.13,.85,3.3,.96v.29h0Z"/></g><g><circle class="cls-3" cx="89.68" cy="102.46" r="9.09"/><path class="cls-2" d="M80.5,101.48c0-3.74,2.71-7.44,6.35-8.67,3.77-1.3,8.66-.37,11.05,3.03,1.6,2.25,2.05,5.28,.96,7.61l-.29-.03c-.54-2.24-1.44-4.15-2.96-5.74-1.41-1.43-3.04-2.73-5.09-3.09-3.14-.58-6.66,.97-8.42,3.73-.62,.95-1.07,2.03-1.31,3.18l-.29-.03h0Z"/></g><g><circle class="cls-3" cx="92.75" cy="112.12" r="9.09"/><path class="cls-2" d="M83.57,111.13c0-3.74,2.71-7.44,6.35-8.67,3.77-1.3,8.66-.37,11.05,3.03,1.6,2.25,2.05,5.28,.96,7.61l-.29-.03c-.54-2.24-1.44-4.15-2.96-5.74-1.41-1.43-3.04-2.73-5.09-3.09-3.14-.58-6.66,.97-8.42,3.73-.62,.95-1.07,2.03-1.31,3.18l-.29-.03h0Z"/></g><g><circle class="cls-3" cx="87" cy="108.21" r="5.86"/><path class="cls-2" d="M87,114.16c-2.62,1.12-5.76-.58-6.91-3.09-.53-1.1-.74-2.39-.61-3.6,.3-3.57,4.12-6.63,7.52-5.22,0,0,0,.19,0,.19-1.51,.03-2.98,.67-4.03,1.73-2.18,2.13-2.18,5.93,0,8.06,1.05,1.06,2.52,1.7,4.03,1.73v.19h0Z"/></g></g><g><g><circle class="cls-3" cx="41.07" cy="91.71" r="9.09"/><path class="cls-2" d="M41.07,100.94c-3.72,.41-7.68-1.9-9.3-5.38-1.69-3.61-1.29-8.57,1.83-11.31,2.06-1.83,5.03-2.61,7.46-1.77v.29c-2.17,.77-3.98,1.87-5.39,3.55-1.27,1.56-2.39,3.31-2.52,5.39-.24,3.18,1.68,6.51,4.61,7.98,1.01,.51,2.13,.85,3.3,.96v.29h0Z"/></g><g><circle class="cls-3" cx="49.95" cy="85.97" r="9.09"/><path class="cls-2" d="M40.77,84.99c0-3.74,2.71-7.44,6.35-8.67,3.77-1.3,8.66-.37,11.05,3.03,1.6,2.25,2.05,5.28,.96,7.61l-.29-.03c-.54-2.24-1.44-4.15-2.96-5.74-1.41-1.43-3.04-2.73-5.09-3.09-3.14-.58-6.66,.97-8.42,3.73-.62,.95-1.07,2.03-1.31,3.18l-.29-.03h0Z"/></g><g><circle class="cls-3" cx="53.02" cy="95.63" r="9.09"/><path class="cls-2" d="M43.84,94.64c0-3.74,2.71-7.44,6.35-8.67,3.77-1.3,8.66-.37,11.05,3.03,1.6,2.25,2.05,5.28,.96,7.61l-.29-.03c-.54-2.24-1.44-4.15-2.96-5.74-1.41-1.43-3.04-2.73-5.09-3.09-3.14-.58-6.66,.97-8.42,3.73-.62,.95-1.07,2.03-1.31,3.18l-.29-.03h0Z"/></g><g><circle class="cls-3" cx="47.28" cy="91.72" r="5.86"/><path class="cls-2" d="M47.28,97.67c-2.62,1.12-5.76-.58-6.91-3.09-.53-1.1-.74-2.39-.61-3.6,.3-3.57,4.12-6.63,7.52-5.22,0,0,0,.19,0,.19-1.51,.03-2.98,.67-4.03,1.73-2.18,2.13-2.18,5.93,0,8.06,1.05,1.06,2.52,1.7,4.03,1.73v.19h0Z"/></g></g><g><g><circle class="cls-3" cx="77.43" cy="100.58" r="9.09"/><path class="cls-2" d="M77.43,109.81c3.72,.41,7.68-1.9,9.3-5.38,1.69-3.61,1.29-8.57-1.83-11.31-2.06-1.83-5.03-2.61-7.46-1.77v.29c2.17,.77,3.98,1.87,5.39,3.55,1.27,1.56,2.39,3.31,2.52,5.39,.24,3.18-1.68,6.51-4.61,7.98-1.01,.51-2.13,.85-3.3,.96v.29h0Z"/></g><g><circle class="cls-3" cx="68.56" cy="94.85" r="9.09"/><path class="cls-2" d="M77.74,93.86c0-3.74-2.71-7.44-6.35-8.67-3.77-1.3-8.66-.37-11.05,3.03-1.6,2.25-2.05,5.28-.96,7.61l.29-.03c.54-2.24,1.44-4.15,2.96-5.74,1.41-1.43,3.04-2.73,5.09-3.09,3.14-.58,6.66,.97,8.42,3.73,.62,.95,1.07,2.03,1.31,3.18l.29-.03h0Z"/></g><g><circle class="cls-3" cx="65.48" cy="104.5" r="9.09"/><path class="cls-2" d="M74.66,103.51c0-3.74-2.71-7.44-6.35-8.67-3.77-1.3-8.66-.37-11.05,3.03-1.6,2.25-2.05,5.28-.96,7.61l.29-.03c.54-2.24,1.44-4.15,2.96-5.74,1.41-1.43,3.04-2.73,5.09-3.09,3.14-.58,6.66,.97,8.42,3.73,.62,.95,1.07,2.03,1.31,3.18l.29-.03h0Z"/></g><g><circle class="cls-3" cx="71.23" cy="100.59" r="5.86"/><path class="cls-2" d="M71.23,106.55c2.62,1.12,5.76-.58,6.91-3.09,.53-1.1,.74-2.39,.61-3.6-.3-3.57-4.12-6.63-7.52-5.22,0,0,0,.19,0,.19,1.51,.03,2.98,.67,4.03,1.73,2.18,2.13,2.18,5.93,0,8.06-1.05,1.06-2.52,1.7-4.03,1.73v.19h0Z"/></g></g></g><g><g><g><circle class="cls-3" cx="77.08" cy="56.55" r="9.09"/><path class="cls-2" d="M77.08,65.78c-3.72,.41-7.68-1.9-9.3-5.38-1.69-3.61-1.29-8.57,1.83-11.31,2.06-1.83,5.03-2.61,7.46-1.77v.29c-2.17,.77-3.98,1.87-5.39,3.55-1.27,1.56-2.39,3.31-2.52,5.39-.24,3.18,1.68,6.51,4.61,7.98,1.01,.51,2.13,.85,3.3,.96v.29h0Z"/></g><g><circle class="cls-3" cx="85.96" cy="50.82" r="9.09"/><path class="cls-2" d="M76.78,49.83c0-3.74,2.71-7.44,6.35-8.67,3.77-1.3,8.66-.37,11.05,3.03,1.6,2.25,2.05,5.28,.96,7.61l-.29-.03c-.54-2.24-1.44-4.15-2.96-5.74-1.41-1.43-3.04-2.73-5.09-3.09-3.14-.58-6.66,.97-8.42,3.73-.62,.95-1.07,2.03-1.31,3.18l-.29-.03h0Z"/></g><g><circle class="cls-3" cx="89.03" cy="60.47" r="9.09"/><path class="cls-2" d="M79.85,59.48c0-3.74,2.71-7.44,6.35-8.67,3.77-1.3,8.66-.37,11.05,3.03,1.6,2.25,2.05,5.28,.96,7.61l-.29-.03c-.54-2.24-1.44-4.15-2.96-5.74-1.41-1.43-3.04-2.73-5.09-3.09-3.14-.58-6.66,.97-8.42,3.73-.62,.95-1.07,2.03-1.31,3.18l-.29-.03h0Z"/></g><g><circle class="cls-3" cx="83.28" cy="56.56" r="5.86"/><path class="cls-2" d="M83.28,62.52c-2.62,1.12-5.76-.58-6.91-3.09-.53-1.1-.74-2.39-.61-3.6,.3-3.57,4.12-6.63,7.52-5.22,0,0,0,.19,0,.19-1.51,.03-2.98,.67-4.03,1.73-2.18,2.13-2.18,5.93,0,8.06,1.05,1.06,2.52,1.7,4.03,1.73v.19h0Z"/></g></g><g><g><circle class="cls-3" cx="99.4" cy="61.94" r="9.09"/><path class="cls-2" d="M99.4,71.17c-3.72,.41-7.68-1.9-9.3-5.38-1.69-3.61-1.29-8.57,1.83-11.31,2.06-1.83,5.03-2.61,7.46-1.77v.29c-2.17,.77-3.98,1.87-5.39,3.55-1.27,1.56-2.39,3.31-2.52,5.39-.24,3.18,1.68,6.51,4.61,7.98,1.01,.51,2.13,.85,3.3,.96v.29h0Z"/></g><g><circle class="cls-3" cx="108.27" cy="56.21" r="9.09"/><path class="cls-2" d="M99.09,55.22c0-3.74,2.71-7.44,6.35-8.67,3.77-1.3,8.66-.37,11.05,3.03,1.6,2.25,2.05,5.28,.96,7.61l-.29-.03c-.54-2.24-1.44-4.15-2.96-5.74-1.41-1.43-3.04-2.73-5.09-3.09-3.14-.58-6.66,.97-8.42,3.73-.62,.95-1.07,2.03-1.31,3.18l-.29-.03h0Z"/></g><g><circle class="cls-3" cx="111.35" cy="65.86" r="9.09"/><path class="cls-2" d="M102.17,64.87c0-3.74,2.71-7.44,6.35-8.67,3.77-1.3,8.66-.37,11.05,3.03,1.6,2.25,2.05,5.28,.96,7.61l-.29-.03c-.54-2.24-1.44-4.15-2.96-5.74-1.41-1.43-3.04-2.73-5.09-3.09-3.14-.58-6.66,.97-8.42,3.73-.62,.95-1.07,2.03-1.31,3.18l-.29-.03h0Z"/></g><g><circle class="cls-3" cx="105.6" cy="61.95" r="5.86"/><path class="cls-2" d="M105.6,67.91c-2.62,1.12-5.76-.58-6.91-3.09-.53-1.1-.74-2.39-.61-3.6,.3-3.57,4.12-6.63,7.52-5.22,0,0,0,.19,0,.19-1.51,.03-2.98,.67-4.03,1.73-2.18,2.13-2.18,5.93,0,8.06,1.05,1.06,2.52,1.7,4.03,1.73v.19h0Z"/></g></g><g><g><circle class="cls-3" cx="142.28" cy="61.94" r="9.09"/><path class="cls-2" d="M142.28,71.17c-3.72,.41-7.68-1.9-9.3-5.38-1.69-3.61-1.29-8.57,1.83-11.31,2.06-1.83,5.03-2.61,7.46-1.77v.29c-2.17,.77-3.98,1.87-5.39,3.55-1.27,1.56-2.39,3.31-2.52,5.39-.24,3.18,1.68,6.51,4.61,7.98,1.01,.51,2.13,.85,3.3,.96v.29h0Z"/></g><g><circle class="cls-3" cx="151.15" cy="56.21" r="9.09"/><path class="cls-2" d="M141.97,55.22c0-3.74,2.71-7.44,6.35-8.67,3.77-1.3,8.66-.37,11.05,3.03,1.6,2.25,2.05,5.28,.96,7.61l-.29-.03c-.54-2.24-1.44-4.15-2.96-5.74-1.41-1.43-3.04-2.73-5.09-3.09-3.14-.58-6.66,.97-8.42,3.73-.62,.95-1.07,2.03-1.31,3.18l-.29-.03h0Z"/></g><g><circle class="cls-3" cx="154.23" cy="65.86" r="9.09"/><path class="cls-2" d="M145.05,64.87c0-3.74,2.71-7.44,6.35-8.67,3.77-1.3,8.66-.37,11.05,3.03,1.6,2.25,2.05,5.28,.96,7.61l-.29-.03c-.54-2.24-1.44-4.15-2.96-5.74-1.41-1.43-3.04-2.73-5.09-3.09-3.14-.58-6.66,.97-8.42,3.73-.62,.95-1.07,2.03-1.31,3.18l-.29-.03h0Z"/></g><g><circle class="cls-3" cx="148.48" cy="61.95" r="5.86"/><path class="cls-2" d="M148.48,67.91c-2.62,1.12-5.76-.58-6.91-3.09-.53-1.1-.74-2.39-.61-3.6,.3-3.57,4.12-6.63,7.52-5.22,0,0,0,.19,0,.19-1.51,.03-2.98,.67-4.03,1.73-2.18,2.13-2.18,5.93,0,8.06,1.05,1.06,2.52,1.7,4.03,1.73v.19h0Z"/></g></g><g><g><circle class="cls-3" cx="102.55" cy="45.45" r="9.09"/><path class="cls-2" d="M102.55,54.68c-3.72,.41-7.68-1.9-9.3-5.38-1.69-3.61-1.29-8.57,1.83-11.31,2.06-1.83,5.03-2.61,7.46-1.77v.29c-2.17,.77-3.98,1.87-5.39,3.55-1.27,1.56-2.39,3.31-2.52,5.39-.24,3.18,1.68,6.51,4.61,7.98,1.01,.51,2.13,.85,3.3,.96v.29h0Z"/></g><g><circle class="cls-3" cx="111.43" cy="39.72" r="9.09"/><path class="cls-2" d="M102.25,38.73c0-3.74,2.71-7.44,6.35-8.67,3.77-1.3,8.66-.37,11.05,3.03,1.6,2.25,2.05,5.28,.96,7.61l-.29-.03c-.54-2.24-1.44-4.15-2.96-5.74-1.41-1.43-3.04-2.73-5.09-3.09-3.14-.58-6.66,.97-8.42,3.73-.62,.95-1.07,2.03-1.31,3.18l-.29-.03h0Z"/></g><g><circle class="cls-3" cx="114.5" cy="49.37" r="9.09"/><path class="cls-2" d="M105.32,48.38c0-3.74,2.71-7.44,6.35-8.67,3.77-1.3,8.66-.37,11.05,3.03,1.6,2.25,2.05,5.28,.96,7.61l-.29-.03c-.54-2.24-1.44-4.15-2.96-5.74-1.41-1.43-3.04-2.73-5.09-3.09-3.14-.58-6.66,.97-8.42,3.73-.62,.95-1.07,2.03-1.31,3.18l-.29-.03h0Z"/></g><g><circle class="cls-3" cx="108.76" cy="45.46" r="5.86"/><path class="cls-2" d="M108.76,51.42c-2.62,1.12-5.76-.58-6.91-3.09-.53-1.1-.74-2.39-.61-3.6,.3-3.57,4.12-6.63,7.52-5.22,0,0,0,.19,0,.19-1.51,.03-2.98,.67-4.03,1.73-2.18,2.13-2.18,5.93,0,8.06,1.05,1.06,2.52,1.7,4.03,1.73v.19h0Z"/></g></g><g><g><circle class="cls-3" cx="138.91" cy="54.32" r="9.09"/><path class="cls-2" d="M138.91,63.56c3.72,.41,7.68-1.9,9.3-5.38,1.69-3.61,1.29-8.57-1.83-11.31-2.06-1.83-5.03-2.61-7.46-1.77v.29c2.17,.77,3.98,1.87,5.39,3.55,1.27,1.56,2.39,3.31,2.52,5.39,.24,3.18-1.68,6.51-4.61,7.98-1.01,.51-2.13,.85-3.3,.96v.29h0Z"/></g><g><circle class="cls-3" cx="130.03" cy="48.59" r="9.09"/><path class="cls-2" d="M139.21,47.6c0-3.74-2.71-7.44-6.35-8.67-3.77-1.3-8.66-.37-11.05,3.03-1.6,2.25-2.05,5.28-.96,7.61l.29-.03c.54-2.24,1.44-4.15,2.96-5.74,1.41-1.43,3.04-2.73,5.09-3.09,3.14-.58,6.66,.97,8.42,3.73,.62,.95,1.07,2.03,1.31,3.18l.29-.03h0Z"/></g><g><circle class="cls-3" cx="126.96" cy="58.24" r="9.09"/><path class="cls-2" d="M136.14,57.26c0-3.74-2.71-7.44-6.35-8.67-3.77-1.3-8.66-.37-11.05,3.03-1.6,2.25-2.05,5.28-.96,7.61l.29-.03c.54-2.24,1.44-4.15,2.96-5.74,1.41-1.43,3.04-2.73,5.09-3.09,3.14-.58,6.66,.97,8.42,3.73,.62,.95,1.07,2.03,1.31,3.18l.29-.03h0Z"/></g><g><circle class="cls-3" cx="132.71" cy="54.34" r="5.86"/><path class="cls-2" d="M132.71,60.29c2.62,1.12,5.76-.58,6.91-3.09,.53-1.1,.74-2.39,.61-3.6-.3-3.57-4.12-6.63-7.52-5.22,0,0,0,.19,0,.19,1.51,.03,2.98,.67,4.03,1.73,2.18,2.13,2.18,5.93,0,8.06-1.05,1.06-2.52,1.7-4.03,1.73v.19h0Z"/></g></g></g><g><g><g><circle class="cls-3" cx="83.72" cy="72.89" r="9.09"/><path class="cls-2" d="M83.72,82.13c-3.72,.41-7.68-1.9-9.3-5.38-1.69-3.61-1.29-8.57,1.83-11.31,2.06-1.83,5.03-2.61,7.46-1.77v.29c-2.17,.77-3.98,1.87-5.39,3.55-1.27,1.56-2.39,3.31-2.52,5.39-.24,3.18,1.68,6.51,4.61,7.98,1.01,.51,2.13,.85,3.3,.96v.29h0Z"/></g><g><circle class="cls-3" cx="92.6" cy="67.16" r="9.09"/><path class="cls-2" d="M83.42,66.17c0-3.74,2.71-7.44,6.35-8.67,3.77-1.3,8.66-.37,11.05,3.03,1.6,2.25,2.05,5.28,.96,7.61l-.29-.03c-.54-2.24-1.44-4.15-2.96-5.74-1.41-1.43-3.04-2.73-5.09-3.09-3.14-.58-6.66,.97-8.42,3.73-.62,.95-1.07,2.03-1.31,3.18l-.29-.03h0Z"/></g><g><circle class="cls-3" cx="95.67" cy="76.81" r="9.09"/><path class="cls-2" d="M86.49,75.82c0-3.74,2.71-7.44,6.35-8.67,3.77-1.3,8.66-.37,11.05,3.03,1.6,2.25,2.05,5.28,.96,7.61l-.29-.03c-.54-2.24-1.44-4.15-2.96-5.74-1.41-1.43-3.04-2.73-5.09-3.09-3.14-.58-6.66,.97-8.42,3.73-.62,.95-1.07,2.03-1.31,3.18l-.29-.03h0Z"/></g><g><circle class="cls-3" cx="89.93" cy="72.91" r="5.86"/><path class="cls-2" d="M89.93,78.86c-2.62,1.12-5.76-.58-6.91-3.09-.53-1.1-.74-2.39-.61-3.6,.3-3.57,4.12-6.63,7.52-5.22,0,0,0,.19,0,.19-1.51,.03-2.98,.67-4.03,1.73-2.18,2.13-2.18,5.93,0,8.06,1.05,1.06,2.52,1.7,4.03,1.73v.19h0Z"/></g></g><g><g><circle class="cls-3" cx="106.04" cy="78.28" r="9.09"/><path class="cls-2" d="M106.04,87.52c-3.72,.41-7.68-1.9-9.3-5.38-1.69-3.61-1.29-8.57,1.83-11.31,2.06-1.83,5.03-2.61,7.46-1.77v.29c-2.17,.77-3.98,1.87-5.39,3.55-1.27,1.56-2.39,3.31-2.52,5.39-.24,3.18,1.68,6.51,4.61,7.98,1.01,.51,2.13,.85,3.3,.96v.29h0Z"/></g><g><circle class="cls-3" cx="114.92" cy="72.55" r="9.09"/><path class="cls-2" d="M105.74,71.56c0-3.74,2.71-7.44,6.35-8.67,3.77-1.3,8.66-.37,11.05,3.03,1.6,2.25,2.05,5.28,.96,7.61l-.29-.03c-.54-2.24-1.44-4.15-2.96-5.74-1.41-1.43-3.04-2.73-5.09-3.09-3.14-.58-6.66,.97-8.42,3.73-.62,.95-1.07,2.03-1.31,3.18l-.29-.03h0Z"/></g><g><circle class="cls-3" cx="117.99" cy="82.2" r="9.09"/><path class="cls-2" d="M108.81,81.21c0-3.74,2.71-7.44,6.35-8.67,3.77-1.3,8.66-.37,11.05,3.03,1.6,2.25,2.05,5.28,.96,7.61l-.29-.03c-.54-2.24-1.44-4.15-2.96-5.74-1.41-1.43-3.04-2.73-5.09-3.09-3.14-.58-6.66,.97-8.42,3.73-.62,.95-1.07,2.03-1.31,3.18l-.29-.03h0Z"/></g><g><circle class="cls-3" cx="112.24" cy="78.3" r="5.86"/><path class="cls-2" d="M112.24,84.25c-2.62,1.12-5.76-.58-6.91-3.09-.53-1.1-.74-2.39-.61-3.6,.3-3.57,4.12-6.63,7.52-5.22,0,0,0,.19,0,.19-1.51,.03-2.98,.67-4.03,1.73-2.18,2.13-2.18,5.93,0,8.06,1.05,1.06,2.52,1.7,4.03,1.73v.19h0Z"/></g></g><g><g><circle class="cls-3" cx="148.92" cy="78.28" r="9.09"/><path class="cls-2" d="M148.92,87.52c-3.72,.41-7.68-1.9-9.3-5.38-1.69-3.61-1.29-8.57,1.83-11.31,2.06-1.83,5.03-2.61,7.46-1.77v.29c-2.17,.77-3.98,1.87-5.39,3.55-1.27,1.56-2.39,3.31-2.52,5.39-.24,3.18,1.68,6.51,4.61,7.98,1.01,.51,2.13,.85,3.3,.96v.29h0Z"/></g><g><circle class="cls-3" cx="157.8" cy="72.55" r="9.09"/><path class="cls-2" d="M148.62,71.56c0-3.74,2.71-7.44,6.35-8.67,3.77-1.3,8.66-.37,11.05,3.03,1.6,2.25,2.05,5.28,.96,7.61l-.29-.03c-.54-2.24-1.44-4.15-2.96-5.74-1.41-1.43-3.04-2.73-5.09-3.09-3.14-.58-6.66,.97-8.42,3.73-.62,.95-1.07,2.03-1.31,3.18l-.29-.03h0Z"/></g><g><circle class="cls-3" cx="160.87" cy="82.2" r="9.09"/><path class="cls-2" d="M151.69,81.21c0-3.74,2.71-7.44,6.35-8.67,3.77-1.3,8.66-.37,11.05,3.03,1.6,2.25,2.05,5.28,.96,7.61l-.29-.03c-.54-2.24-1.44-4.15-2.96-5.74-1.41-1.43-3.04-2.73-5.09-3.09-3.14-.58-6.66,.97-8.42,3.73-.62,.95-1.07,2.03-1.31,3.18l-.29-.03h0Z"/></g><g><circle class="cls-3" cx="155.12" cy="78.3" r="5.86"/><path class="cls-2" d="M155.12,84.25c-2.62,1.12-5.76-.58-6.91-3.09-.53-1.1-.74-2.39-.61-3.6,.3-3.57,4.12-6.63,7.52-5.22,0,0,0,.19,0,.19-1.51,.03-2.98,.67-4.03,1.73-2.18,2.13-2.18,5.93,0,8.06,1.05,1.06,2.52,1.7,4.03,1.73v.19h0Z"/></g></g><g><g><circle class="cls-3" cx="109.2" cy="61.79" r="9.09"/><path class="cls-2" d="M109.2,71.03c-3.72,.41-7.68-1.9-9.3-5.38-1.69-3.61-1.29-8.57,1.83-11.31,2.06-1.83,5.03-2.61,7.46-1.77v.29c-2.17,.77-3.98,1.87-5.39,3.55-1.27,1.56-2.39,3.31-2.52,5.39-.24,3.18,1.68,6.51,4.61,7.98,1.01,.51,2.13,.85,3.3,.96v.29h0Z"/></g><g><circle class="cls-3" cx="118.07" cy="56.06" r="9.09"/><path class="cls-2" d="M108.89,55.07c0-3.74,2.71-7.44,6.35-8.67,3.77-1.3,8.66-.37,11.05,3.03,1.6,2.25,2.05,5.28,.96,7.61l-.29-.03c-.54-2.24-1.44-4.15-2.96-5.74-1.41-1.43-3.04-2.73-5.09-3.09-3.14-.58-6.66,.97-8.42,3.73-.62,.95-1.07,2.03-1.31,3.18l-.29-.03h0Z"/></g><g><circle class="cls-3" cx="121.15" cy="65.71" r="9.09"/><path class="cls-2" d="M111.97,64.72c0-3.74,2.71-7.44,6.35-8.67,3.77-1.3,8.66-.37,11.05,3.03,1.6,2.25,2.05,5.28,.96,7.61l-.29-.03c-.54-2.24-1.44-4.15-2.96-5.74-1.41-1.43-3.04-2.73-5.09-3.09-3.14-.58-6.66,.97-8.42,3.73-.62,.95-1.07,2.03-1.31,3.18l-.29-.03h0Z"/></g><g><circle class="cls-3" cx="115.4" cy="61.81" r="5.86"/><path class="cls-2" d="M115.4,67.76c-2.62,1.12-5.76-.58-6.91-3.09-.53-1.1-.74-2.39-.61-3.6,.3-3.57,4.12-6.63,7.52-5.22,0,0,0,.19,0,.19-1.51,.03-2.98,.67-4.03,1.73-2.18,2.13-2.18,5.93,0,8.06,1.05,1.06,2.52,1.7,4.03,1.73v.19h0Z"/></g></g><g><g><circle class="cls-3" cx="145.56" cy="70.67" r="9.09"/><path class="cls-2" d="M145.56,79.9c3.72,.41,7.68-1.9,9.3-5.38,1.69-3.61,1.29-8.57-1.83-11.31-2.06-1.83-5.03-2.61-7.46-1.77v.29c2.17,.77,3.98,1.87,5.39,3.55,1.27,1.56,2.39,3.31,2.52,5.39,.24,3.18-1.68,6.51-4.61,7.98-1.01,.51-2.13,.85-3.3,.96v.29h0Z"/></g><g><circle class="cls-3" cx="136.68" cy="64.94" r="9.09"/><path class="cls-2" d="M145.86,63.95c0-3.74-2.71-7.44-6.35-8.67-3.77-1.3-8.66-.37-11.05,3.03-1.6,2.25-2.05,5.28-.96,7.61l.29-.03c.54-2.24,1.44-4.15,2.96-5.74,1.41-1.43,3.04-2.73,5.09-3.09,3.14-.58,6.66,.97,8.42,3.73,.62,.95,1.07,2.03,1.31,3.18l.29-.03h0Z"/></g><g><circle class="cls-3" cx="133.6" cy="74.59" r="9.09"/><path class="cls-2" d="M142.78,73.6c0-3.74-2.71-7.44-6.35-8.67-3.77-1.3-8.66-.37-11.05,3.03-1.6,2.25-2.05,5.28-.96,7.61l.29-.03c.54-2.24,1.44-4.15,2.96-5.74,1.41-1.43,3.04-2.73,5.09-3.09,3.14-.58,6.66,.97,8.42,3.73,.62,.95,1.07,2.03,1.31,3.18l.29-.03h0Z"/></g><g><circle class="cls-3" cx="139.35" cy="70.68" r="5.86"/><path class="cls-2" d="M139.35,76.63c2.62,1.12,5.76-.58,6.91-3.09,.53-1.1,.74-2.39,.61-3.6-.3-3.57-4.12-6.63-7.52-5.22,0,0,0,.19,0,.19,1.51,.03,2.98,.67,4.03,1.73,2.18,2.13,2.18,5.93,0,8.06-1.05,1.06-2.52,1.7-4.03,1.73v.19h0Z"/></g></g></g><g><g><g><circle class="cls-3" cx="139.76" cy="99.86" r="9.09"/><path class="cls-2" d="M139.76,109.09c-3.72,.41-7.68-1.9-9.3-5.38-1.69-3.61-1.29-8.57,1.83-11.31,2.06-1.83,5.03-2.61,7.46-1.77v.29c-2.17,.77-3.98,1.87-5.39,3.55-1.27,1.56-2.39,3.31-2.52,5.39-.24,3.18,1.68,6.51,4.61,7.98,1.01,.51,2.13,.85,3.3,.96v.29h0Z"/></g><g><circle class="cls-3" cx="148.64" cy="94.13" r="9.09"/><path class="cls-2" d="M139.46,93.14c0-3.74,2.71-7.44,6.35-8.67,3.77-1.3,8.66-.37,11.05,3.03,1.6,2.25,2.05,5.28,.96,7.61l-.29-.03c-.54-2.24-1.44-4.15-2.96-5.74-1.41-1.43-3.04-2.73-5.09-3.09-3.14-.58-6.66,.97-8.42,3.73-.62,.95-1.07,2.03-1.31,3.18l-.29-.03h0Z"/></g><g><circle class="cls-3" cx="151.71" cy="103.78" r="9.09"/><path class="cls-2" d="M142.53,102.79c0-3.74,2.71-7.44,6.35-8.67,3.77-1.3,8.66-.37,11.05,3.03,1.6,2.25,2.05,5.28,.96,7.61l-.29-.03c-.54-2.24-1.44-4.15-2.96-5.74-1.41-1.43-3.04-2.73-5.09-3.09-3.14-.58-6.66,.97-8.42,3.73-.62,.95-1.07,2.03-1.31,3.18l-.29-.03h0Z"/></g><g><circle class="cls-3" cx="145.96" cy="99.87" r="5.86"/><path class="cls-2" d="M145.96,105.82c-2.62,1.12-5.76-.58-6.91-3.09-.53-1.1-.74-2.39-.61-3.6,.3-3.57,4.12-6.63,7.52-5.22,0,0,0,.19,0,.19-1.51,.03-2.98,.67-4.03,1.73-2.18,2.13-2.18,5.93,0,8.06,1.05,1.06,2.52,1.7,4.03,1.73v.19h0Z"/></g></g><g><g><circle class="cls-3" cx="162.08" cy="105.25" r="9.09"/><path class="cls-2" d="M162.08,114.48c-3.72,.41-7.68-1.9-9.3-5.38-1.69-3.61-1.29-8.57,1.83-11.31,2.06-1.83,5.03-2.61,7.46-1.77v.29c-2.17,.77-3.98,1.87-5.39,3.55-1.27,1.56-2.39,3.31-2.52,5.39-.24,3.18,1.68,6.51,4.61,7.98,1.01,.51,2.13,.85,3.3,.96v.29h0Z"/></g><g><circle class="cls-3" cx="170.96" cy="99.52" r="9.09"/><path class="cls-2" d="M161.78,98.53c0-3.74,2.71-7.44,6.35-8.67,3.77-1.3,8.66-.37,11.05,3.03,1.6,2.25,2.05,5.28,.96,7.61l-.29-.03c-.54-2.24-1.44-4.15-2.96-5.74-1.41-1.43-3.04-2.73-5.09-3.09-3.14-.58-6.66,.97-8.42,3.73-.62,.95-1.07,2.03-1.31,3.18l-.29-.03h0Z"/></g><g><circle class="cls-3" cx="174.03" cy="109.17" r="9.09"/><path class="cls-2" d="M164.85,108.18c0-3.74,2.71-7.44,6.35-8.67,3.77-1.3,8.66-.37,11.05,3.03,1.6,2.25,2.05,5.28,.96,7.61l-.29-.03c-.54-2.24-1.44-4.15-2.96-5.74-1.41-1.43-3.04-2.73-5.09-3.09-3.14-.58-6.66,.97-8.42,3.73-.62,.95-1.07,2.03-1.31,3.18l-.29-.03h0Z"/></g><g><circle class="cls-3" cx="168.28" cy="105.26" r="5.86"/><path class="cls-2" d="M168.28,111.21c-2.62,1.12-5.76-.58-6.91-3.09-.53-1.1-.74-2.39-.61-3.6,.3-3.57,4.12-6.63,7.52-5.22,0,0,0,.19,0,.19-1.51,.03-2.98,.67-4.03,1.73-2.18,2.13-2.18,5.93,0,8.06,1.05,1.06,2.52,1.7,4.03,1.73v.19h0Z"/></g></g><g><g><circle class="cls-3" cx="204.96" cy="105.25" r="9.09"/><path class="cls-2" d="M204.96,114.48c-3.72,.41-7.68-1.9-9.3-5.38-1.69-3.61-1.29-8.57,1.83-11.31,2.06-1.83,5.03-2.61,7.46-1.77v.29c-2.17,.77-3.98,1.87-5.39,3.55-1.27,1.56-2.39,3.31-2.52,5.39-.24,3.18,1.68,6.51,4.61,7.98,1.01,.51,2.13,.85,3.3,.96v.29h0Z"/></g><g><circle class="cls-3" cx="213.84" cy="99.52" r="9.09"/><path class="cls-2" d="M204.66,98.53c0-3.74,2.71-7.44,6.35-8.67,3.77-1.3,8.66-.37,11.05,3.03,1.6,2.25,2.05,5.28,.96,7.61l-.29-.03c-.54-2.24-1.44-4.15-2.96-5.74-1.41-1.43-3.04-2.73-5.09-3.09-3.14-.58-6.66,.97-8.42,3.73-.62,.95-1.07,2.03-1.31,3.18l-.29-.03h0Z"/></g><g><circle class="cls-3" cx="216.91" cy="109.17" r="9.09"/><path class="cls-2" d="M207.73,108.18c0-3.74,2.71-7.44,6.35-8.67,3.77-1.3,8.66-.37,11.05,3.03,1.6,2.25,2.05,5.28,.96,7.61l-.29-.03c-.54-2.24-1.44-4.15-2.96-5.74-1.41-1.43-3.04-2.73-5.09-3.09-3.14-.58-6.66,.97-8.42,3.73-.62,.95-1.07,2.03-1.31,3.18l-.29-.03h0Z"/></g><g><circle class="cls-3" cx="211.16" cy="105.26" r="5.86"/><path class="cls-2" d="M211.16,111.21c-2.62,1.12-5.76-.58-6.91-3.09-.53-1.1-.74-2.39-.61-3.6,.3-3.57,4.12-6.63,7.52-5.22,0,0,0,.19,0,.19-1.51,.03-2.98,.67-4.03,1.73-2.18,2.13-2.18,5.93,0,8.06,1.05,1.06,2.52,1.7,4.03,1.73v.19h0Z"/></g></g><g><g><circle class="cls-3" cx="165.23" cy="88.76" r="9.09"/><path class="cls-2" d="M165.23,97.99c-3.72,.41-7.68-1.9-9.3-5.38-1.69-3.61-1.29-8.57,1.83-11.31,2.06-1.83,5.03-2.61,7.46-1.77v.29c-2.17,.77-3.98,1.87-5.39,3.55-1.27,1.56-2.39,3.31-2.52,5.39-.24,3.18,1.68,6.51,4.61,7.98,1.01,.51,2.13,.85,3.3,.96v.29h0Z"/></g><g><circle class="cls-3" cx="174.11" cy="83.03" r="9.09"/><path class="cls-2" d="M164.93,82.04c0-3.74,2.71-7.44,6.35-8.67,3.77-1.3,8.66-.37,11.05,3.03,1.6,2.25,2.05,5.28,.96,7.61l-.29-.03c-.54-2.24-1.44-4.15-2.96-5.74-1.41-1.43-3.04-2.73-5.09-3.09-3.14-.58-6.66,.97-8.42,3.73-.62,.95-1.07,2.03-1.31,3.18l-.29-.03h0Z"/></g><g><circle class="cls-3" cx="177.18" cy="92.68" r="9.09"/><path class="cls-2" d="M168,91.69c0-3.74,2.71-7.44,6.35-8.67,3.77-1.3,8.66-.37,11.05,3.03,1.6,2.25,2.05,5.28,.96,7.61l-.29-.03c-.54-2.24-1.44-4.15-2.96-5.74-1.41-1.43-3.04-2.73-5.09-3.09-3.14-.58-6.66,.97-8.42,3.73-.62,.95-1.07,2.03-1.31,3.18l-.29-.03h0Z"/></g><g><circle class="cls-3" cx="171.44" cy="88.77" r="5.86"/><path class="cls-2" d="M171.44,94.72c-2.62,1.12-5.76-.58-6.91-3.09-.53-1.1-.74-2.39-.61-3.6,.3-3.57,4.12-6.63,7.52-5.22,0,0,0,.19,0,.19-1.51,.03-2.98,.67-4.03,1.73-2.18,2.13-2.18,5.93,0,8.06,1.05,1.06,2.52,1.7,4.03,1.73v.19h0Z"/></g></g><g><g><circle class="cls-3" cx="201.59" cy="97.63" r="9.09"/><path class="cls-2" d="M201.59,106.87c3.72,.41,7.68-1.9,9.3-5.38,1.69-3.61,1.29-8.57-1.83-11.31-2.06-1.83-5.03-2.61-7.46-1.77v.29c2.17,.77,3.98,1.87,5.39,3.55,1.27,1.56,2.39,3.31,2.52,5.39,.24,3.18-1.68,6.51-4.61,7.98-1.01,.51-2.13,.85-3.3,.96v.29h0Z"/></g><g><circle class="cls-3" cx="192.72" cy="91.9" r="9.09"/><path class="cls-2" d="M201.9,90.91c0-3.74-2.71-7.44-6.35-8.67-3.77-1.3-8.66-.37-11.05,3.03-1.6,2.25-2.05,5.28-.96,7.61l.29-.03c.54-2.24,1.44-4.15,2.96-5.74,1.41-1.43,3.04-2.73,5.09-3.09,3.14-.58,6.66,.97,8.42,3.73,.62,.95,1.07,2.03,1.31,3.18l.29-.03h0Z"/></g><g><circle class="cls-3" cx="189.64" cy="101.55" r="9.09"/><path class="cls-2" d="M198.82,100.56c0-3.74-2.71-7.44-6.35-8.67-3.77-1.3-8.66-.37-11.05,3.03-1.6,2.25-2.05,5.28-.96,7.61l.29-.03c.54-2.24,1.44-4.15,2.96-5.74,1.41-1.43,3.04-2.73,5.09-3.09,3.14-.58,6.66,.97,8.42,3.73,.62,.95,1.07,2.03,1.31,3.18l.29-.03h0Z"/></g><g><circle class="cls-3" cx="195.39" cy="97.64" r="5.86"/><path class="cls-2" d="M195.39,103.6c2.62,1.12,5.76-.58,6.91-3.09,.53-1.1,.74-2.39,.61-3.6-.3-3.57-4.12-6.63-7.52-5.22,0,0,0,.19,0,.19,1.51,.03,2.98,.67,4.03,1.73,2.18,2.13,2.18,5.93,0,8.06-1.05,1.06-2.52,1.7-4.03,1.73v.19h0Z"/></g></g></g><g><g><g><circle class="cls-3" cx="126.9" cy="80.97" r="9.09"/><path class="cls-2" d="M126.9,90.2c-3.72,.41-7.68-1.9-9.3-5.38-1.69-3.61-1.29-8.57,1.83-11.31,2.06-1.83,5.03-2.61,7.46-1.77v.29c-2.17,.77-3.98,1.87-5.39,3.55-1.27,1.56-2.39,3.31-2.52,5.39-.24,3.18,1.68,6.51,4.61,7.98,1.01,.51,2.13,.85,3.3,.96v.29h0Z"/></g><g><circle class="cls-3" cx="135.78" cy="75.24" r="9.09"/><path class="cls-2" d="M126.6,74.25c0-3.74,2.71-7.44,6.35-8.67,3.77-1.3,8.66-.37,11.05,3.03,1.6,2.25,2.05,5.28,.96,7.61l-.29-.03c-.54-2.24-1.44-4.15-2.96-5.74-1.41-1.43-3.04-2.73-5.09-3.09-3.14-.58-6.66,.97-8.42,3.73-.62,.95-1.07,2.03-1.31,3.18l-.29-.03h0Z"/></g><g><circle class="cls-3" cx="138.85" cy="84.89" r="9.09"/><path class="cls-2" d="M129.67,83.9c0-3.74,2.71-7.44,6.35-8.67,3.77-1.3,8.66-.37,11.05,3.03,1.6,2.25,2.05,5.28,.96,7.61l-.29-.03c-.54-2.24-1.44-4.15-2.96-5.74-1.41-1.43-3.04-2.73-5.09-3.09-3.14-.58-6.66,.97-8.42,3.73-.62,.95-1.07,2.03-1.31,3.18l-.29-.03h0Z"/></g><g><circle class="cls-3" cx="133.11" cy="80.98" r="5.86"/><path class="cls-2" d="M133.11,86.93c-2.62,1.12-5.76-.58-6.91-3.09-.53-1.1-.74-2.39-.61-3.6,.3-3.57,4.12-6.63,7.52-5.22,0,0,0,.19,0,.19-1.51,.03-2.98,.67-4.03,1.73-2.18,2.13-2.18,5.93,0,8.06,1.05,1.06,2.52,1.7,4.03,1.73v.19h0Z"/></g></g><g><g><circle class="cls-3" cx="149.22" cy="86.36" r="9.09"/><path class="cls-2" d="M149.22,95.59c-3.72,.41-7.68-1.9-9.3-5.38-1.69-3.61-1.29-8.57,1.83-11.31,2.06-1.83,5.03-2.61,7.46-1.77v.29c-2.17,.77-3.98,1.87-5.39,3.55-1.27,1.56-2.39,3.31-2.52,5.39-.24,3.18,1.68,6.51,4.61,7.98,1.01,.51,2.13,.85,3.3,.96v.29h0Z"/></g><g><circle class="cls-3" cx="158.1" cy="80.63" r="9.09"/><path class="cls-2" d="M148.92,79.64c0-3.74,2.71-7.44,6.35-8.67,3.77-1.3,8.66-.37,11.05,3.03,1.6,2.25,2.05,5.28,.96,7.61l-.29-.03c-.54-2.24-1.44-4.15-2.96-5.74-1.41-1.43-3.04-2.73-5.09-3.09-3.14-.58-6.66,.97-8.42,3.73-.62,.95-1.07,2.03-1.31,3.18l-.29-.03h0Z"/></g><g><circle class="cls-3" cx="161.17" cy="90.28" r="9.09"/><path class="cls-2" d="M151.99,89.29c0-3.74,2.71-7.44,6.35-8.67,3.77-1.3,8.66-.37,11.05,3.03,1.6,2.25,2.05,5.28,.96,7.61l-.29-.03c-.54-2.24-1.44-4.15-2.96-5.74-1.41-1.43-3.04-2.73-5.09-3.09-3.14-.58-6.66,.97-8.42,3.73-.62,.95-1.07,2.03-1.31,3.18l-.29-.03h0Z"/></g><g><circle class="cls-3" cx="155.42" cy="86.37" r="5.86"/><path class="cls-2" d="M155.42,92.32c-2.62,1.12-5.76-.58-6.91-3.09-.53-1.1-.74-2.39-.61-3.6,.3-3.57,4.12-6.63,7.52-5.22,0,0,0,.19,0,.19-1.51,.03-2.98,.67-4.03,1.73-2.18,2.13-2.18,5.93,0,8.06,1.05,1.06,2.52,1.7,4.03,1.73v.19h0Z"/></g></g><g><g><circle class="cls-3" cx="192.1" cy="86.36" r="9.09"/><path class="cls-2" d="M192.1,95.59c-3.72,.41-7.68-1.9-9.3-5.38-1.69-3.61-1.29-8.57,1.83-11.31,2.06-1.83,5.03-2.61,7.46-1.77v.29c-2.17,.77-3.98,1.87-5.39,3.55-1.27,1.56-2.39,3.31-2.52,5.39-.24,3.18,1.68,6.51,4.61,7.98,1.01,.51,2.13,.85,3.3,.96v.29h0Z"/></g><g><circle class="cls-3" cx="200.98" cy="80.63" r="9.09"/><path class="cls-2" d="M191.8,79.64c0-3.74,2.71-7.44,6.35-8.67,3.77-1.3,8.66-.37,11.05,3.03,1.6,2.25,2.05,5.28,.96,7.61l-.29-.03c-.54-2.24-1.44-4.15-2.96-5.74-1.41-1.43-3.04-2.73-5.09-3.09-3.14-.58-6.66,.97-8.42,3.73-.62,.95-1.07,2.03-1.31,3.18l-.29-.03h0Z"/></g><g><circle class="cls-3" cx="204.05" cy="90.28" r="9.09"/><path class="cls-2" d="M194.87,89.29c0-3.74,2.71-7.44,6.35-8.67,3.77-1.3,8.66-.37,11.05,3.03,1.6,2.25,2.05,5.28,.96,7.61l-.29-.03c-.54-2.24-1.44-4.15-2.96-5.74-1.41-1.43-3.04-2.73-5.09-3.09-3.14-.58-6.66,.97-8.42,3.73-.62,.95-1.07,2.03-1.31,3.18l-.29-.03h0Z"/></g><g><circle class="cls-3" cx="198.3" cy="86.37" r="5.86"/><path class="cls-2" d="M198.3,92.32c-2.62,1.12-5.76-.58-6.91-3.09-.53-1.1-.74-2.39-.61-3.6,.3-3.57,4.12-6.63,7.52-5.22,0,0,0,.19,0,.19-1.51,.03-2.98,.67-4.03,1.73-2.18,2.13-2.18,5.93,0,8.06,1.05,1.06,2.52,1.7,4.03,1.73v.19h0Z"/></g></g><g><g><circle class="cls-3" cx="152.38" cy="69.87" r="9.09"/><path class="cls-2" d="M152.38,79.1c-3.72,.41-7.68-1.9-9.3-5.38-1.69-3.61-1.29-8.57,1.83-11.31,2.06-1.83,5.03-2.61,7.46-1.77v.29c-2.17,.77-3.98,1.87-5.39,3.55-1.27,1.56-2.39,3.31-2.52,5.39-.24,3.18,1.68,6.51,4.61,7.98,1.01,.51,2.13,.85,3.3,.96v.29h0Z"/></g><g><circle class="cls-3" cx="161.25" cy="64.14" r="9.09"/><path class="cls-2" d="M152.07,63.15c0-3.74,2.71-7.44,6.35-8.67,3.77-1.3,8.66-.37,11.05,3.03,1.6,2.25,2.05,5.28,.96,7.61l-.29-.03c-.54-2.24-1.44-4.15-2.96-5.74-1.41-1.43-3.04-2.73-5.09-3.09-3.14-.58-6.66,.97-8.42,3.73-.62,.95-1.07,2.03-1.31,3.18l-.29-.03h0Z"/></g><g><circle class="cls-3" cx="164.33" cy="73.79" r="9.09"/><path class="cls-2" d="M155.15,72.8c0-3.74,2.71-7.44,6.35-8.67,3.77-1.3,8.66-.37,11.05,3.03,1.6,2.25,2.05,5.28,.96,7.61l-.29-.03c-.54-2.24-1.44-4.15-2.96-5.74-1.41-1.43-3.04-2.73-5.09-3.09-3.14-.58-6.66,.97-8.42,3.73-.62,.95-1.07,2.03-1.31,3.18l-.29-.03h0Z"/></g><g><circle class="cls-3" cx="158.58" cy="69.88" r="5.86"/><path class="cls-2" d="M158.58,75.83c-2.62,1.12-5.76-.58-6.91-3.09-.53-1.1-.74-2.39-.61-3.6,.3-3.57,4.12-6.63,7.52-5.22,0,0,0,.19,0,.19-1.51,.03-2.98,.67-4.03,1.73-2.18,2.13-2.18,5.93,0,8.06,1.05,1.06,2.52,1.7,4.03,1.73v.19h0Z"/></g></g><g><g><circle class="cls-3" cx="188.74" cy="78.74" r="9.09"/><path class="cls-2" d="M188.74,87.97c3.72,.41,7.68-1.9,9.3-5.38,1.69-3.61,1.29-8.57-1.83-11.31-2.06-1.83-5.03-2.61-7.46-1.77v.29c2.17,.77,3.98,1.87,5.39,3.55,1.27,1.56,2.39,3.31,2.52,5.39,.24,3.18-1.68,6.51-4.61,7.98-1.01,.51-2.13,.85-3.3,.96v.29h0Z"/></g><g><circle class="cls-3" cx="179.86" cy="73.01" r="9.09"/><path class="cls-2" d="M189.04,72.02c0-3.74-2.71-7.44-6.35-8.67-3.77-1.3-8.66-.37-11.05,3.03-1.6,2.25-2.05,5.28-.96,7.61l.29-.03c.54-2.24,1.44-4.15,2.96-5.74,1.41-1.43,3.04-2.73,5.09-3.09,3.14-.58,6.66,.97,8.42,3.73,.62,.95,1.07,2.03,1.31,3.18l.29-.03h0Z"/></g><g><circle class="cls-3" cx="176.78" cy="82.66" r="9.09"/><path class="cls-2" d="M185.96,81.67c0-3.74-2.71-7.44-6.35-8.67-3.77-1.3-8.66-.37-11.05,3.03-1.6,2.25-2.05,5.28-.96,7.61l.29-.03c.54-2.24,1.44-4.15,2.96-5.74,1.41-1.43,3.04-2.73,5.09-3.09,3.14-.58,6.66,.97,8.42,3.73,.62,.95,1.07,2.03,1.31,3.18l.29-.03h0Z"/></g><g><circle class="cls-3" cx="182.53" cy="78.75" r="5.86"/><path class="cls-2" d="M182.53,84.71c2.62,1.12,5.76-.58,6.91-3.09,.53-1.1,.74-2.39,.61-3.6-.3-3.57-4.12-6.63-7.52-5.22,0,0,0,.19,0,.19,1.51,.03,2.98,.67,4.03,1.73,2.18,2.13,2.18,5.93,0,8.06-1.05,1.06-2.52,1.7-4.03,1.73v.19h0Z"/></g></g></g><path class="cls-1" d="M200.19,230H29.81c-4.51,0-8.38-3.18-9.26-7.6L.18,119.67c-1.16-5.84,3.31-11.28,9.26-11.28H220.56c5.95,0,10.42,5.44,9.26,11.28l-20.37,102.72c-.88,4.42-4.75,7.6-9.26,7.6Z"/><path class="cls-4" d="M125,135.28v94.72h-20.01v-94.72c0-5.52,4.48-10,10-10s10,4.48,10,10Z"/><g><path class="cls-4" d="M56.37,230h-20.38l-18.18-92.8c-1.07-5.42,2.47-10.67,7.89-11.73,5.42-1.06,10.67,2.47,11.73,7.89l18.93,96.64Z"/><path class="cls-4" d="M93.7,230h-20.11l-9.38-95.7c-.53-5.49,3.48-10.39,8.98-10.93,5.48-.54,10.39,3.48,10.93,8.98l9.57,97.65Z"/><path class="cls-4" d="M125,135.28v94.72h-20.01v-94.72c0-5.52,4.48-10,10-10s10,4.48,10,10Z"/><path class="cls-4" d="M212.19,137.2l-18.18,92.8h-20.38l18.93-96.64c1.06-5.42,6.31-8.95,11.73-7.89,5.42,1.06,8.95,6.31,7.89,11.73Z"/><path class="cls-4" d="M165.78,134.3l-9.38,95.7h-20.1l9.57-97.65c.54-5.5,5.41-9.52,10.93-8.98,5.49,.54,9.51,5.44,8.97,10.93Z"/></g><g><circle class="cls-3" cx="104.3" cy="32.59" r="6.78"/><path class="cls-2" d="M104.3,39.48c-2.77,.31-5.73-1.42-6.93-4.01-1.26-2.69-.96-6.39,1.37-8.44,1.54-1.37,3.75-1.94,5.57-1.32v.22c-1.61,.58-2.97,1.4-4.02,2.65-.94,1.16-1.78,2.47-1.88,4.02-.18,2.37,1.25,4.86,3.44,5.95,.75,.38,1.59,.63,2.46,.72v.22h0Z"/></g><g><circle class="cls-3" cx="33.68" cy="20.82" r="6.62"/><path class="cls-2" d="M36.53,26.91c3.21-.1,5.62-3.35,5.59-6.47,.02-1.38-.39-2.8-1.1-3.97-2.01-3.51-7.38-4.82-10.18-1.74,0,0,.09,.19,.09,.19,1.56-.69,3.37-.74,4.95-.15,3.25,1.14,5.06,5.03,3.85,8.25-.57,1.59-1.77,2.94-3.3,3.7l.09,.19h0Z"/></g><g><circle class="cls-3" cx="75.1" cy="20.64" r="6.78"/><path class="cls-2" d="M79.77,25.7c3.11-1.1,4.45-5.01,3.46-8.05-.41-1.35-1.25-2.61-2.31-3.54-3.06-2.81-8.71-2.41-10.49,1.46,0,0,.15,.16,.15,.16,1.31-1.16,3.06-1.77,4.79-1.69,3.53,.11,6.5,3.34,6.33,6.86-.06,1.73-.81,3.42-2.07,4.64l.15,.16h0Z"/></g><g><circle class="cls-3" cx="70.6" cy="23.85" r="4.33"/><path class="cls-2" d="M73.39,20.44c-.97-1.87-3.57-2.37-5.4-1.48-.82,.38-1.54,1.02-2.04,1.78-1.51,2.18-.76,5.73,1.85,6.51,0,0,.09-.11,.09-.11-.85-.73-1.39-1.78-1.49-2.88-.24-2.24,1.54-4.41,3.78-4.61,1.1-.11,2.24,.21,3.12,.9l.09-.11h0Z"/></g><g><circle class="cls-3" cx="31.23" cy="57.71" r="4.49"/><path class="cls-2" d="M29.4,53.53c-2.18,.02-3.86,2.19-3.9,4.3-.03,.93,.22,1.9,.69,2.72,1.31,2.42,4.94,3.38,6.89,1.34,0,0-.06-.13-.06-.13-1.07,.44-2.3,.45-3.36,.03-2.19-.82-3.36-3.49-2.49-5.66,.41-1.07,1.24-1.97,2.29-2.46l-.06-.13h0Z"/></g><g><circle class="cls-3" cx="34.74" cy="56.66" r="2.87"/><path class="cls-2" d="M32.26,58.19c.21,1.38,1.73,2.25,3.07,2.09,.59-.06,1.19-.31,1.66-.68,1.41-1.04,1.7-3.43,.24-4.48,0,0-.08,.05-.08,.05,.38,.64,.49,1.42,.32,2.13-.33,1.46-1.91,2.43-3.36,2.08-.71-.16-1.36-.61-1.76-1.23l-.08,.05h0Z"/></g><g><circle class="cls-3" cx="114.05" cy="6.91" r="5.61"/><path class="cls-2" d="M117.92,11.11c2.57-.91,3.68-4.15,2.86-6.67-.34-1.12-1.03-2.16-1.91-2.93-2.53-2.32-7.21-2-8.68,1.21,0,0,.12,.13,.12,.13,1.09-.96,2.54-1.46,3.97-1.4,2.92,.09,5.39,2.76,5.24,5.68-.05,1.43-.67,2.83-1.71,3.84l.12,.13h0Z"/></g><g><circle class="cls-3" cx="17.72" cy="34.68" r="4.51"/><path class="cls-2" d="M19.65,38.83c2.19-.07,3.83-2.28,3.81-4.4,.01-.94-.27-1.91-.75-2.71-1.37-2.39-5.03-3.28-6.94-1.19,0,0,.06,.13,.06,.13,1.06-.47,2.3-.5,3.37-.11,2.21,.78,3.45,3.43,2.63,5.62-.39,1.08-1.2,2.01-2.25,2.52l.06,.13h0Z"/></g><g><circle class="cls-3" cx="33.19" cy="54.64" r="2.99"/><path class="cls-2" d="M36,55.78c1.03-1.02,.83-2.83-.13-3.86-.42-.46-.99-.81-1.58-.98-1.74-.55-3.92,.67-3.91,2.55,0,0,.09,.04,.09,.04,.31-.71,.89-1.28,1.59-1.57,1.42-.62,3.22,.11,3.81,1.55,.3,.7,.32,1.52,.04,2.24l.09,.04h0Z"/></g><g><circle class="cls-3" cx="150.74" cy="18.02" r="5.5"/><path class="cls-2" d="M155.8,15.65c-.09-2.67-2.78-4.67-5.38-4.65-1.14-.01-2.33,.32-3.3,.92-2.92,1.67-4.01,6.14-1.45,8.47,0,0,.16-.08,.16-.08-.57-1.3-.61-2.8-.13-4.12,.95-2.7,4.18-4.21,6.86-3.2,1.32,.47,2.45,1.47,3.08,2.74l.16-.08h0Z"/></g><g><circle class="cls-3" cx="217.33" cy="37.18" r="4.51"/><path class="cls-2" d="M215.39,41.33c-2.19-.07-3.83-2.28-3.81-4.4-.01-.94,.27-1.91,.75-2.71,1.37-2.39,5.03-3.28,6.94-1.19,0,0-.06,.13-.06,.13-1.06-.47-2.3-.5-3.37-.11-2.21,.78-3.45,3.43-2.63,5.62,.39,1.08,1.2,2.01,2.25,2.52l-.06,.13h0Z"/></g><g><circle class="cls-3" cx="202.13" cy="56.75" r="4.51"/><path class="cls-2" d="M200.19,60.9c-2.19-.07-3.83-2.28-3.81-4.4-.01-.94,.27-1.91,.75-2.71,1.37-2.39,5.03-3.28,6.94-1.19,0,0-.06,.13-.06,.13-1.06-.47-2.3-.5-3.37-.11-2.21,.78-3.45,3.43-2.63,5.62,.39,1.08,1.2,2.01,2.25,2.52l-.06,.13h0Z"/></g><g><circle class="cls-3" cx="176.28" cy="36.49" r="3.55"/><path class="cls-2" d="M179.61,37.88c1.24-1.2,1.02-3.36-.12-4.59-.49-.55-1.17-.97-1.87-1.18-2.07-.67-4.67,.76-4.67,2.99,0,0,.11,.04,.11,.04,.37-.84,1.07-1.51,1.91-1.85,1.7-.72,3.82,.17,4.51,1.88,.35,.83,.36,1.81,.03,2.66l.11,.04h0Z"/></g><g><circle class="cls-3" cx="174.85" cy="39" r="2.27"/><path class="cls-2" d="M175.43,36.77c-.87-.68-2.22-.35-2.89,.48-.31,.36-.51,.82-.58,1.29-.24,1.37,.89,2.89,2.3,2.69,0,0,.02-.07,.02-.07-.56-.16-1.05-.54-1.34-1.05-.61-1.01-.23-2.44,.79-3.02,.5-.29,1.11-.39,1.68-.25l.02-.07h0Z"/></g><g><circle class="cls-3" cx="176.84" cy="39.31" r="2.36"/><path class="cls-2" d="M174.6,40.18c-.03,1.15,1.07,2.07,2.18,2.13,.49,.04,1-.08,1.44-.3,1.3-.64,1.88-2.52,.85-3.59,0,0-.07,.03-.07,.03,.21,.57,.19,1.22-.06,1.77-.48,1.13-1.9,1.69-3.02,1.19-.55-.24-1.01-.69-1.24-1.26l-.07,.03h0Z"/></g><g><circle class="cls-3" cx="198.45" cy="17.19" r="4.63"/><path class="cls-2" d="M200.42,21.46c2.25-.06,3.94-2.32,3.94-4.5,.02-.96-.26-1.96-.76-2.78-1.39-2.46-5.15-3.4-7.11-1.26,0,0,.06,.14,.06,.14,1.09-.48,2.36-.5,3.46-.09,2.27,.81,3.52,3.53,2.66,5.78-.4,1.11-1.25,2.05-2.32,2.57l.06,.14h0Z"/></g><g><circle class="cls-3" cx="194.85" cy="18.33" r="2.96"/><path class="cls-2" d="M197.38,16.7c-.24-1.42-1.82-2.29-3.2-2.09-.61,.07-1.22,.34-1.7,.72-1.44,1.1-1.69,3.56-.17,4.61,0,0,.08-.05,.08-.05-.4-.65-.53-1.45-.36-2.18,.31-1.51,1.93-2.54,3.43-2.2,.74,.16,1.41,.61,1.83,1.24l.08-.05h0Z"/></g><g><circle class="cls-3" cx="196.49" cy="20.38" r="3.07"/><path class="cls-2" d="M193.58,19.25c-1.04,1.07-.81,2.93,.2,3.97,.44,.47,1.03,.81,1.65,.98,1.81,.53,4.03-.76,3.98-2.69,0,0-.09-.04-.09-.04-.3,.73-.89,1.33-1.61,1.64-1.46,.66-3.31-.06-3.95-1.53-.32-.72-.35-1.56-.08-2.3l-.09-.04h0Z"/></g></svg>