<?xml version="1.0" encoding="UTF-8"?><svg id="Camada_1" xmlns="http://www.w3.org/2000/svg" viewBox="0 0 230 230"><defs><style>.cls-1{fill:#f96163;}.cls-2{fill:#f7c800;}.cls-3{fill:#ffe05e;}.cls-4,.cls-5{fill:#fff;}.cls-5{fill-rule:evenodd;}</style></defs><path class="cls-5" d="M110.07,230.01c9.36,0,77.82-5.37,95.51-35.17,18.86-31.76,29.1-74.35,22.67-107.78-6.74-34.98-29.42-69.12-62.86-83.22-32.61-13.75-61.92,12.72-92.89,28.44C42.96,47.28,12.02,56.82,3.64,88.3c-8.69,32.64-.67,67.22,20.13,94.13,21.52,27.84,61,47.55,86.3,47.58Z"/><g><g><g><g><circle class="cls-3" cx="110.11" cy="105.02" r="8.28"/><path class="cls-2" d="M110.11,113.44c-3.39,.37-7-1.73-8.47-4.91-1.54-3.29-1.18-7.81,1.67-10.31,1.88-1.67,4.58-2.38,6.8-1.61v.27c-1.97,.7-3.62,1.71-4.91,3.24-1.15,1.42-2.18,3.02-2.3,4.91-.22,2.9,1.53,5.94,4.2,7.27,.92,.47,1.94,.77,3.01,.88v.27h0Z"/></g><g><circle class="cls-3" cx="118.2" cy="99.8" r="8.28"/><path class="cls-2" d="M109.83,98.9c0-3.41,2.47-6.78,5.79-7.9,3.44-1.18,7.89-.33,10.08,2.77,1.46,2.05,1.87,4.81,.88,6.94l-.27-.03c-.49-2.04-1.31-3.79-2.69-5.23-1.29-1.3-2.77-2.49-4.64-2.81-2.86-.52-6.07,.88-7.68,3.4-.56,.86-.98,1.85-1.2,2.9l-.27-.03h0Z"/></g><g><circle class="cls-3" cx="121" cy="108.6" r="8.28"/><path class="cls-2" d="M112.63,107.69c0-3.41,2.47-6.78,5.79-7.9,3.44-1.18,7.89-.33,10.08,2.77,1.46,2.05,1.87,4.81,.88,6.94l-.27-.03c-.49-2.04-1.31-3.79-2.69-5.23-1.29-1.3-2.77-2.49-4.64-2.81-2.86-.52-6.07,.88-7.68,3.4-.56,.86-.98,1.85-1.2,2.9l-.27-.03h0Z"/></g><g><circle class="cls-3" cx="115.76" cy="105.03" r="5.34"/><path class="cls-2" d="M115.76,110.46c-2.39,1.02-5.25-.53-6.3-2.82-.48-1-.67-2.18-.55-3.28,.27-3.26,3.76-6.05,6.85-4.75,0,0,0,.17,0,.17-1.38,.03-2.72,.61-3.68,1.58-1.98,1.94-1.98,5.41,0,7.35,.96,.97,2.3,1.55,3.68,1.58v.17h0Z"/></g></g><g><g><circle class="cls-3" cx="130.45" cy="109.94" r="8.28"/><path class="cls-2" d="M130.45,118.35c-3.39,.37-7-1.73-8.47-4.91-1.54-3.29-1.18-7.81,1.67-10.31,1.88-1.67,4.58-2.38,6.8-1.61v.27c-1.97,.7-3.62,1.71-4.91,3.24-1.15,1.42-2.18,3.02-2.3,4.91-.22,2.9,1.53,5.94,4.2,7.27,.92,.47,1.94,.77,3.01,.88v.27h0Z"/></g><g><circle class="cls-3" cx="138.55" cy="104.71" r="8.28"/><path class="cls-2" d="M130.18,103.81c0-3.41,2.47-6.78,5.79-7.9,3.44-1.18,7.89-.33,10.08,2.77,1.46,2.05,1.87,4.81,.88,6.94l-.27-.03c-.49-2.04-1.31-3.79-2.69-5.23-1.29-1.3-2.77-2.49-4.64-2.81-2.86-.52-6.07,.88-7.68,3.4-.56,.86-.98,1.85-1.2,2.9l-.27-.03h0Z"/></g><g><circle class="cls-3" cx="141.35" cy="113.51" r="8.28"/><path class="cls-2" d="M132.98,112.61c0-3.41,2.47-6.78,5.79-7.9,3.44-1.18,7.89-.33,10.08,2.77,1.46,2.05,1.87,4.81,.88,6.94l-.27-.03c-.49-2.04-1.31-3.79-2.69-5.23-1.29-1.3-2.77-2.49-4.64-2.81-2.86-.52-6.07,.88-7.68,3.4-.56,.86-.98,1.85-1.2,2.9l-.27-.03h0Z"/></g><g><circle class="cls-3" cx="136.11" cy="109.95" r="5.34"/><path class="cls-2" d="M136.11,115.37c-2.39,1.02-5.25-.53-6.3-2.82-.48-1-.67-2.18-.55-3.28,.27-3.26,3.76-6.05,6.85-4.75,0,0,0,.17,0,.17-1.38,.03-2.72,.61-3.68,1.58-1.98,1.94-1.98,5.41,0,7.35,.96,.97,2.3,1.55,3.68,1.58v.17h0Z"/></g></g><g><g><circle class="cls-3" cx="169.54" cy="109.94" r="8.28"/><path class="cls-2" d="M169.54,118.35c-3.39,.37-7-1.73-8.47-4.91-1.54-3.29-1.18-7.81,1.67-10.31,1.88-1.67,4.58-2.38,6.8-1.61v.27c-1.97,.7-3.62,1.71-4.91,3.24-1.15,1.42-2.18,3.02-2.3,4.91-.22,2.9,1.53,5.94,4.2,7.27,.92,.47,1.94,.77,3.01,.88v.27h0Z"/></g><g><circle class="cls-3" cx="177.63" cy="104.71" r="8.28"/><path class="cls-2" d="M169.26,103.81c0-3.41,2.47-6.78,5.79-7.9,3.44-1.18,7.89-.33,10.08,2.77,1.46,2.05,1.87,4.81,.88,6.94l-.27-.03c-.49-2.04-1.31-3.79-2.69-5.23-1.29-1.3-2.77-2.49-4.64-2.81-2.86-.52-6.07,.88-7.68,3.4-.56,.86-.98,1.85-1.2,2.9l-.27-.03h0Z"/></g><g><circle class="cls-3" cx="180.43" cy="113.51" r="8.28"/><path class="cls-2" d="M172.07,112.61c0-3.41,2.47-6.78,5.79-7.9,3.44-1.18,7.89-.33,10.08,2.77,1.46,2.05,1.87,4.81,.88,6.94l-.27-.03c-.49-2.04-1.31-3.79-2.69-5.23-1.29-1.3-2.77-2.49-4.64-2.81-2.86-.52-6.07,.88-7.68,3.4-.56,.86-.98,1.85-1.2,2.9l-.27-.03h0Z"/></g><g><circle class="cls-3" cx="175.2" cy="109.95" r="5.34"/><path class="cls-2" d="M175.2,115.37c-2.39,1.02-5.25-.53-6.3-2.82-.48-1-.67-2.18-.55-3.28,.27-3.26,3.76-6.05,6.85-4.75,0,0,0,.17,0,.17-1.38,.03-2.72,.61-3.68,1.58-1.98,1.94-1.98,5.41,0,7.35,.96,.97,2.3,1.55,3.68,1.58v.17h0Z"/></g></g><g><g><circle class="cls-3" cx="133.33" cy="94.9" r="8.28"/><path class="cls-2" d="M133.33,103.32c-3.39,.37-7-1.73-8.47-4.91-1.54-3.29-1.18-7.81,1.67-10.31,1.88-1.67,4.58-2.38,6.8-1.61v.27c-1.97,.7-3.62,1.71-4.91,3.24-1.15,1.42-2.18,3.02-2.3,4.91-.22,2.9,1.53,5.94,4.2,7.27,.92,.47,1.94,.77,3.01,.88v.27h0Z"/></g><g><circle class="cls-3" cx="141.42" cy="89.68" r="8.28"/><path class="cls-2" d="M133.05,88.78c0-3.41,2.47-6.78,5.79-7.9,3.44-1.18,7.89-.33,10.08,2.77,1.46,2.05,1.87,4.81,.88,6.94l-.27-.03c-.49-2.04-1.31-3.79-2.69-5.23-1.29-1.3-2.77-2.49-4.64-2.81-2.86-.52-6.07,.88-7.68,3.4-.56,.86-.98,1.85-1.2,2.9l-.27-.03h0Z"/></g><g><circle class="cls-3" cx="144.22" cy="98.48" r="8.28"/><path class="cls-2" d="M135.86,97.58c0-3.41,2.47-6.78,5.79-7.9,3.44-1.18,7.89-.33,10.08,2.77,1.46,2.05,1.87,4.81,.88,6.94l-.27-.03c-.49-2.04-1.31-3.79-2.69-5.23-1.29-1.3-2.77-2.49-4.64-2.81-2.86-.52-6.07,.88-7.68,3.4-.56,.86-.98,1.85-1.2,2.9l-.27-.03h0Z"/></g><g><circle class="cls-3" cx="138.98" cy="94.91" r="5.34"/><path class="cls-2" d="M138.98,100.34c-2.39,1.02-5.25-.53-6.3-2.82-.48-1-.67-2.18-.55-3.28,.27-3.26,3.76-6.05,6.85-4.75,0,0,0,.17,0,.17-1.38,.03-2.72,.61-3.68,1.58-1.98,1.94-1.98,5.41,0,7.35,.96,.97,2.3,1.55,3.68,1.58v.17h0Z"/></g></g><g><g><circle class="cls-3" cx="166.47" cy="102.99" r="8.28"/><path class="cls-2" d="M166.47,111.41c3.39,.37,7-1.73,8.47-4.91,1.54-3.29,1.18-7.81-1.67-10.31-1.88-1.67-4.58-2.38-6.8-1.61v.27c1.97,.7,3.62,1.71,4.91,3.24,1.15,1.42,2.18,3.02,2.3,4.91,.22,2.9-1.53,5.94-4.2,7.27-.92,.47-1.94,.77-3.01,.88v.27h0Z"/></g><g><circle class="cls-3" cx="158.38" cy="97.77" r="8.28"/><path class="cls-2" d="M166.75,96.87c0-3.41-2.47-6.78-5.79-7.9-3.44-1.18-7.89-.33-10.08,2.77-1.46,2.05-1.87,4.81-.88,6.94l.27-.03c.49-2.04,1.31-3.79,2.69-5.23,1.29-1.3,2.77-2.49,4.64-2.81,2.86-.52,6.07,.88,7.68,3.4,.56,.86,.98,1.85,1.2,2.9l.27-.03h0Z"/></g><g><circle class="cls-3" cx="155.58" cy="106.57" r="8.28"/><path class="cls-2" d="M163.95,105.67c0-3.41-2.47-6.78-5.79-7.9-3.44-1.18-7.89-.33-10.08,2.77-1.46,2.05-1.87,4.81-.88,6.94l.27-.03c.49-2.04,1.31-3.79,2.69-5.23,1.29-1.3,2.77-2.49,4.64-2.81,2.86-.52,6.07,.88,7.68,3.4,.56,.86,.98,1.85,1.2,2.9l.27-.03h0Z"/></g><g><circle class="cls-3" cx="160.82" cy="103" r="5.34"/><path class="cls-2" d="M160.82,108.43c2.39,1.02,5.25-.53,6.3-2.82,.48-1,.67-2.18,.55-3.28-.27-3.26-3.76-6.05-6.85-4.75,0,0,0,.17,0,.17,1.38,.03,2.72,.61,3.68,1.58,1.98,1.94,1.98,5.41,0,7.35-.96,.97-2.3,1.55-3.68,1.58v.17h0Z"/></g></g></g><g><g><g><circle class="cls-3" cx="41.01" cy="90.58" r="8.28"/><path class="cls-2" d="M41.01,99c-3.39,.37-7-1.73-8.47-4.91-1.54-3.29-1.18-7.81,1.67-10.31,1.88-1.67,4.58-2.38,6.8-1.61v.27c-1.97,.7-3.62,1.71-4.91,3.24-1.15,1.42-2.18,3.02-2.3,4.91-.22,2.9,1.53,5.94,4.2,7.27,.92,.47,1.94,.77,3.01,.88v.27h0Z"/></g><g><circle class="cls-3" cx="49.1" cy="85.36" r="8.28"/><path class="cls-2" d="M40.73,84.46c0-3.41,2.47-6.78,5.79-7.9,3.44-1.18,7.89-.33,10.08,2.77,1.46,2.05,1.87,4.81,.88,6.94l-.27-.03c-.49-2.04-1.31-3.79-2.69-5.23-1.29-1.3-2.77-2.49-4.64-2.81-2.86-.52-6.07,.88-7.68,3.4-.56,.86-.98,1.85-1.2,2.9l-.27-.03h0Z"/></g><g><circle class="cls-3" cx="51.9" cy="94.16" r="8.28"/><path class="cls-2" d="M43.53,93.26c0-3.41,2.47-6.78,5.79-7.9,3.44-1.18,7.89-.33,10.08,2.77,1.46,2.05,1.87,4.81,.88,6.94l-.27-.03c-.49-2.04-1.31-3.79-2.69-5.23-1.29-1.3-2.77-2.49-4.64-2.81-2.86-.52-6.07,.88-7.68,3.4-.56,.86-.98,1.85-1.2,2.9l-.27-.03h0Z"/></g><g><circle class="cls-3" cx="46.66" cy="90.6" r="5.34"/><path class="cls-2" d="M46.66,96.02c-2.39,1.02-5.25-.53-6.3-2.82-.48-1-.67-2.18-.55-3.28,.27-3.26,3.76-6.05,6.85-4.75,0,0,0,.17,0,.17-1.38,.03-2.72,.61-3.68,1.58-1.98,1.94-1.98,5.41,0,7.35,.96,.97,2.3,1.55,3.68,1.58v.17h0Z"/></g></g><g><g><circle class="cls-3" cx="61.35" cy="95.5" r="8.28"/><path class="cls-2" d="M61.35,103.91c-3.39,.37-7-1.73-8.47-4.91-1.54-3.29-1.18-7.81,1.67-10.31,1.88-1.67,4.58-2.38,6.8-1.61v.27c-1.97,.7-3.62,1.71-4.91,3.24-1.15,1.42-2.18,3.02-2.3,4.91-.22,2.9,1.53,5.94,4.2,7.27,.92,.47,1.94,.77,3.01,.88v.27h0Z"/></g><g><circle class="cls-3" cx="69.44" cy="90.27" r="8.28"/><path class="cls-2" d="M61.07,89.37c0-3.41,2.47-6.78,5.79-7.9,3.44-1.18,7.89-.33,10.08,2.77,1.46,2.05,1.87,4.81,.88,6.94l-.27-.03c-.49-2.04-1.31-3.79-2.69-5.23-1.29-1.3-2.77-2.49-4.64-2.81-2.86-.52-6.07,.88-7.68,3.4-.56,.86-.98,1.85-1.2,2.9l-.27-.03h0Z"/></g><g><circle class="cls-3" cx="72.24" cy="99.07" r="8.28"/><path class="cls-2" d="M63.88,98.17c0-3.41,2.47-6.78,5.79-7.9,3.44-1.18,7.89-.33,10.08,2.77,1.46,2.05,1.87,4.81,.88,6.94l-.27-.03c-.49-2.04-1.31-3.79-2.69-5.23-1.29-1.3-2.77-2.49-4.64-2.81-2.86-.52-6.07,.88-7.68,3.4-.56,.86-.98,1.85-1.2,2.9l-.27-.03h0Z"/></g><g><circle class="cls-3" cx="67.01" cy="95.51" r="5.34"/><path class="cls-2" d="M67.01,100.94c-2.39,1.02-5.25-.53-6.3-2.82-.48-1-.67-2.18-.55-3.28,.27-3.26,3.76-6.05,6.85-4.75,0,0,0,.17,0,.17-1.38,.03-2.72,.61-3.68,1.58-1.98,1.94-1.98,5.41,0,7.35,.96,.97,2.3,1.55,3.68,1.58v.17h0Z"/></g></g><g><g><circle class="cls-3" cx="100.44" cy="95.5" r="8.28"/><path class="cls-2" d="M100.44,103.91c-3.39,.37-7-1.73-8.47-4.91-1.54-3.29-1.18-7.81,1.67-10.31,1.88-1.67,4.58-2.38,6.8-1.61v.27c-1.97,.7-3.62,1.71-4.91,3.24-1.15,1.42-2.18,3.02-2.3,4.91-.22,2.9,1.53,5.94,4.2,7.27,.92,.47,1.94,.77,3.01,.88v.27h0Z"/></g><g><circle class="cls-3" cx="108.53" cy="90.27" r="8.28"/><path class="cls-2" d="M100.16,89.37c0-3.41,2.47-6.78,5.79-7.9,3.44-1.18,7.89-.33,10.08,2.77,1.46,2.05,1.87,4.81,.88,6.94l-.27-.03c-.49-2.04-1.31-3.79-2.69-5.23-1.29-1.3-2.77-2.49-4.64-2.81-2.86-.52-6.07,.88-7.68,3.4-.56,.86-.98,1.85-1.2,2.9l-.27-.03h0Z"/></g><g><circle class="cls-3" cx="111.33" cy="99.07" r="8.28"/><path class="cls-2" d="M102.96,98.17c0-3.41,2.47-6.78,5.79-7.9,3.44-1.18,7.89-.33,10.08,2.77,1.46,2.05,1.87,4.81,.88,6.94l-.27-.03c-.49-2.04-1.31-3.79-2.69-5.23-1.29-1.3-2.77-2.49-4.64-2.81-2.86-.52-6.07,.88-7.68,3.4-.56,.86-.98,1.85-1.2,2.9l-.27-.03h0Z"/></g><g><circle class="cls-3" cx="106.09" cy="95.51" r="5.34"/><path class="cls-2" d="M106.09,100.94c-2.39,1.02-5.25-.53-6.3-2.82-.48-1-.67-2.18-.55-3.28,.27-3.26,3.76-6.05,6.85-4.75,0,0,0,.17,0,.17-1.38,.03-2.72,.61-3.68,1.58-1.98,1.94-1.98,5.41,0,7.35,.96,.97,2.3,1.55,3.68,1.58v.17h0Z"/></g></g><g><g><circle class="cls-3" cx="64.23" cy="80.47" r="8.28"/><path class="cls-2" d="M64.23,88.88c-3.39,.37-7-1.73-8.47-4.91-1.54-3.29-1.18-7.81,1.67-10.31,1.88-1.67,4.58-2.38,6.8-1.61v.27c-1.97,.7-3.62,1.71-4.91,3.24-1.15,1.42-2.18,3.02-2.3,4.91-.22,2.9,1.53,5.94,4.2,7.27,.92,.47,1.94,.77,3.01,.88v.27h0Z"/></g><g><circle class="cls-3" cx="72.32" cy="75.24" r="8.28"/><path class="cls-2" d="M63.95,74.34c0-3.41,2.47-6.78,5.79-7.9,3.44-1.18,7.89-.33,10.08,2.77,1.46,2.05,1.87,4.81,.88,6.94l-.27-.03c-.49-2.04-1.31-3.79-2.69-5.23-1.29-1.3-2.77-2.49-4.64-2.81-2.86-.52-6.07,.88-7.68,3.4-.56,.86-.98,1.85-1.2,2.9l-.27-.03h0Z"/></g><g><circle class="cls-3" cx="75.12" cy="84.04" r="8.28"/><path class="cls-2" d="M66.75,83.14c0-3.41,2.47-6.78,5.79-7.9,3.44-1.18,7.89-.33,10.08,2.77,1.46,2.05,1.87,4.81,.88,6.94l-.27-.03c-.49-2.04-1.31-3.79-2.69-5.23-1.29-1.3-2.77-2.49-4.64-2.81-2.86-.52-6.07,.88-7.68,3.4-.56,.86-.98,1.85-1.2,2.9l-.27-.03h0Z"/></g><g><circle class="cls-3" cx="69.88" cy="80.48" r="5.34"/><path class="cls-2" d="M69.88,85.9c-2.39,1.02-5.25-.53-6.3-2.82-.48-1-.67-2.18-.55-3.28,.27-3.26,3.76-6.05,6.85-4.75,0,0,0,.17,0,.17-1.38,.03-2.72,.61-3.68,1.58-1.98,1.94-1.98,5.41,0,7.35,.96,.97,2.3,1.55,3.68,1.58v.17h0Z"/></g></g><g><g><circle class="cls-3" cx="97.37" cy="88.56" r="8.28"/><path class="cls-2" d="M97.37,96.97c3.39,.37,7-1.73,8.47-4.91,1.54-3.29,1.18-7.81-1.67-10.31-1.88-1.67-4.58-2.38-6.8-1.61v.27c1.97,.7,3.62,1.71,4.91,3.24,1.15,1.42,2.18,3.02,2.3,4.91,.22,2.9-1.53,5.94-4.2,7.27-.92,.47-1.94,.77-3.01,.88v.27h0Z"/></g><g><circle class="cls-3" cx="89.28" cy="83.33" r="8.28"/><path class="cls-2" d="M97.65,82.43c0-3.41-2.47-6.78-5.79-7.9-3.44-1.18-7.89-.33-10.08,2.77-1.46,2.05-1.87,4.81-.88,6.94l.27-.03c.49-2.04,1.31-3.79,2.69-5.23,1.29-1.3,2.77-2.49,4.64-2.81,2.86-.52,6.07,.88,7.68,3.4,.56,.86,.98,1.85,1.2,2.9l.27-.03h0Z"/></g><g><circle class="cls-3" cx="86.48" cy="92.13" r="8.28"/><path class="cls-2" d="M94.85,91.23c0-3.41-2.47-6.78-5.79-7.9-3.44-1.18-7.89-.33-10.08,2.77-1.46,2.05-1.87,4.81-.88,6.94l.27-.03c.49-2.04,1.31-3.79,2.69-5.23,1.29-1.3,2.77-2.49,4.64-2.81,2.86-.52,6.07,.88,7.68,3.4,.56,.86,.98,1.85,1.2,2.9l.27-.03h0Z"/></g><g><circle class="cls-3" cx="91.72" cy="88.57" r="5.34"/><path class="cls-2" d="M91.72,93.99c2.39,1.02,5.25-.53,6.3-2.82,.48-1,.67-2.18,.55-3.28-.27-3.26-3.76-6.05-6.85-4.75,0,0,0,.17,0,.17,1.38,.03,2.72,.61,3.68,1.58,1.98,1.94,1.98,5.41,0,7.35-.96,.97-2.3,1.55-3.68,1.58v.17h0Z"/></g></g></g><g><g><g><circle class="cls-3" cx="24.39" cy="103.88" r="8.28"/><path class="cls-2" d="M24.39,112.3c-3.39,.37-7-1.73-8.47-4.91-1.54-3.29-1.18-7.81,1.67-10.31,1.88-1.67,4.58-2.38,6.8-1.61v.27c-1.97,.7-3.62,1.71-4.91,3.24-1.15,1.42-2.18,3.02-2.3,4.91-.22,2.9,1.53,5.94,4.2,7.27,.92,.47,1.94,.77,3.01,.88v.27h0Z"/></g><g><circle class="cls-3" cx="32.48" cy="98.66" r="8.28"/><path class="cls-2" d="M24.11,97.76c0-3.41,2.47-6.78,5.79-7.9,3.44-1.18,7.89-.33,10.08,2.77,1.46,2.05,1.87,4.81,.88,6.94l-.27-.03c-.49-2.04-1.31-3.79-2.69-5.23-1.29-1.3-2.77-2.49-4.64-2.81-2.86-.52-6.07,.88-7.68,3.4-.56,.86-.98,1.85-1.2,2.9l-.27-.03h0Z"/></g><g><circle class="cls-3" cx="35.28" cy="107.46" r="8.28"/><path class="cls-2" d="M26.92,106.56c0-3.41,2.47-6.78,5.79-7.9,3.44-1.18,7.89-.33,10.08,2.77,1.46,2.05,1.87,4.81,.88,6.94l-.27-.03c-.49-2.04-1.31-3.79-2.69-5.23-1.29-1.3-2.77-2.49-4.64-2.81-2.86-.52-6.07,.88-7.68,3.4-.56,.86-.98,1.85-1.2,2.9l-.27-.03h0Z"/></g><g><circle class="cls-3" cx="30.05" cy="103.9" r="5.34"/><path class="cls-2" d="M30.05,109.32c-2.39,1.02-5.25-.53-6.3-2.82-.48-1-.67-2.18-.55-3.28,.27-3.26,3.76-6.05,6.85-4.75,0,0,0,.17,0,.17-1.38,.03-2.72,.61-3.68,1.58-1.98,1.94-1.98,5.41,0,7.35,.96,.97,2.3,1.55,3.68,1.58v.17h0Z"/></g></g><g><g><circle class="cls-3" cx="44.73" cy="108.8" r="8.28"/><path class="cls-2" d="M44.73,117.21c-3.39,.37-7-1.73-8.47-4.91-1.54-3.29-1.18-7.81,1.67-10.31,1.88-1.67,4.58-2.38,6.8-1.61v.27c-1.97,.7-3.62,1.71-4.91,3.24-1.15,1.42-2.18,3.02-2.3,4.91-.22,2.9,1.53,5.94,4.2,7.27,.92,.47,1.94,.77,3.01,.88v.27h0Z"/></g><g><circle class="cls-3" cx="52.83" cy="103.57" r="8.28"/><path class="cls-2" d="M44.46,102.67c0-3.41,2.47-6.78,5.79-7.9,3.44-1.18,7.89-.33,10.08,2.77,1.46,2.05,1.87,4.81,.88,6.94l-.27-.03c-.49-2.04-1.31-3.79-2.69-5.23-1.29-1.3-2.77-2.49-4.64-2.81-2.86-.52-6.07,.88-7.68,3.4-.56,.86-.98,1.85-1.2,2.9l-.27-.03h0Z"/></g><g><circle class="cls-3" cx="55.63" cy="112.37" r="8.28"/><path class="cls-2" d="M47.26,111.47c0-3.41,2.47-6.78,5.79-7.9,3.44-1.18,7.89-.33,10.08,2.77,1.46,2.05,1.87,4.81,.88,6.94l-.27-.03c-.49-2.04-1.31-3.79-2.69-5.23-1.29-1.3-2.77-2.49-4.64-2.81-2.86-.52-6.07,.88-7.68,3.4-.56,.86-.98,1.85-1.2,2.9l-.27-.03h0Z"/></g><g><circle class="cls-3" cx="50.39" cy="108.81" r="5.34"/><path class="cls-2" d="M50.39,114.24c-2.39,1.02-5.25-.53-6.3-2.82-.48-1-.67-2.18-.55-3.28,.27-3.26,3.76-6.05,6.85-4.75,0,0,0,.17,0,.17-1.38,.03-2.72,.61-3.68,1.58-1.98,1.94-1.98,5.41,0,7.35,.96,.97,2.3,1.55,3.68,1.58v.17h0Z"/></g></g><g><g><circle class="cls-3" cx="83.82" cy="108.8" r="8.28"/><path class="cls-2" d="M83.82,117.21c-3.39,.37-7-1.73-8.47-4.91-1.54-3.29-1.18-7.81,1.67-10.31,1.88-1.67,4.58-2.38,6.8-1.61v.27c-1.97,.7-3.62,1.71-4.91,3.24-1.15,1.42-2.18,3.02-2.3,4.91-.22,2.9,1.53,5.94,4.2,7.27,.92,.47,1.94,.77,3.01,.88v.27h0Z"/></g><g><circle class="cls-3" cx="91.91" cy="103.57" r="8.28"/><path class="cls-2" d="M83.55,102.67c0-3.41,2.47-6.78,5.79-7.9,3.44-1.18,7.89-.33,10.08,2.77,1.46,2.05,1.87,4.81,.88,6.94l-.27-.03c-.49-2.04-1.31-3.79-2.69-5.23-1.29-1.3-2.77-2.49-4.64-2.81-2.86-.52-6.07,.88-7.68,3.4-.56,.86-.98,1.85-1.2,2.9l-.27-.03h0Z"/></g><g><circle class="cls-3" cx="94.72" cy="112.37" r="8.28"/><path class="cls-2" d="M86.35,111.47c0-3.41,2.47-6.78,5.79-7.9,3.44-1.18,7.89-.33,10.08,2.77,1.46,2.05,1.87,4.81,.88,6.94l-.27-.03c-.49-2.04-1.31-3.79-2.69-5.23-1.29-1.3-2.77-2.49-4.64-2.81-2.86-.52-6.07,.88-7.68,3.4-.56,.86-.98,1.85-1.2,2.9l-.27-.03h0Z"/></g><g><circle class="cls-3" cx="89.48" cy="108.81" r="5.34"/><path class="cls-2" d="M89.48,114.24c-2.39,1.02-5.25-.53-6.3-2.82-.48-1-.67-2.18-.55-3.28,.27-3.26,3.76-6.05,6.85-4.75,0,0,0,.17,0,.17-1.38,.03-2.72,.61-3.68,1.58-1.98,1.94-1.98,5.41,0,7.35,.96,.97,2.3,1.55,3.68,1.58v.17h0Z"/></g></g><g><g><circle class="cls-3" cx="47.61" cy="93.77" r="8.28"/><path class="cls-2" d="M47.61,102.18c-3.39,.37-7-1.73-8.47-4.91-1.54-3.29-1.18-7.81,1.67-10.31,1.88-1.67,4.58-2.38,6.8-1.61v.27c-1.97,.7-3.62,1.71-4.91,3.24-1.15,1.42-2.18,3.02-2.3,4.91-.22,2.9,1.53,5.94,4.2,7.27,.92,.47,1.94,.77,3.01,.88v.27h0Z"/></g><g><circle class="cls-3" cx="55.7" cy="88.54" r="8.28"/><path class="cls-2" d="M47.34,87.64c0-3.41,2.47-6.78,5.79-7.9,3.44-1.18,7.89-.33,10.08,2.77,1.46,2.05,1.87,4.81,.88,6.94l-.27-.03c-.49-2.04-1.31-3.79-2.69-5.23-1.29-1.3-2.77-2.49-4.64-2.81-2.86-.52-6.07,.88-7.68,3.4-.56,.86-.98,1.85-1.2,2.9l-.27-.03h0Z"/></g><g><circle class="cls-3" cx="58.5" cy="97.34" r="8.28"/><path class="cls-2" d="M50.14,96.44c0-3.41,2.47-6.78,5.79-7.9,3.44-1.18,7.89-.33,10.08,2.77,1.46,2.05,1.87,4.81,.88,6.94l-.27-.03c-.49-2.04-1.31-3.79-2.69-5.23-1.29-1.3-2.77-2.49-4.64-2.81-2.86-.52-6.07,.88-7.68,3.4-.56,.86-.98,1.85-1.2,2.9l-.27-.03h0Z"/></g><g><circle class="cls-3" cx="53.27" cy="93.78" r="5.34"/><path class="cls-2" d="M53.27,99.2c-2.39,1.02-5.25-.53-6.3-2.82-.48-1-.67-2.18-.55-3.28,.27-3.26,3.76-6.05,6.85-4.75,0,0,0,.17,0,.17-1.38,.03-2.72,.61-3.68,1.58-1.98,1.94-1.98,5.41,0,7.35,.96,.97,2.3,1.55,3.68,1.58v.17h0Z"/></g></g><g><g><circle class="cls-3" cx="80.76" cy="101.86" r="8.28"/><path class="cls-2" d="M80.76,110.27c3.39,.37,7-1.73,8.47-4.91,1.54-3.29,1.18-7.81-1.67-10.31-1.88-1.67-4.58-2.38-6.8-1.61v.27c1.97,.7,3.62,1.71,4.91,3.24,1.15,1.42,2.18,3.02,2.3,4.91,.22,2.9-1.53,5.94-4.2,7.27-.92,.47-1.94,.77-3.01,.88v.27h0Z"/></g><g><circle class="cls-3" cx="72.66" cy="96.63" r="8.28"/><path class="cls-2" d="M81.03,95.73c0-3.41-2.47-6.78-5.79-7.9-3.44-1.18-7.89-.33-10.08,2.77-1.46,2.05-1.87,4.81-.88,6.94l.27-.03c.49-2.04,1.31-3.79,2.69-5.23,1.29-1.3,2.77-2.49,4.64-2.81,2.86-.52,6.07,.88,7.68,3.4,.56,.86,.98,1.85,1.2,2.9l.27-.03h0Z"/></g><g><circle class="cls-3" cx="69.86" cy="105.43" r="8.28"/><path class="cls-2" d="M78.23,104.53c0-3.41-2.47-6.78-5.79-7.9-3.44-1.18-7.89-.33-10.08,2.77-1.46,2.05-1.87,4.81-.88,6.94l.27-.03c.49-2.04,1.31-3.79,2.69-5.23,1.29-1.3,2.77-2.49,4.64-2.81,2.86-.52,6.07,.88,7.68,3.4,.56,.86,.98,1.85,1.2,2.9l.27-.03h0Z"/></g><g><circle class="cls-3" cx="75.1" cy="101.87" r="5.34"/><path class="cls-2" d="M75.1,107.29c2.39,1.02,5.25-.53,6.3-2.82,.48-1,.67-2.18,.55-3.28-.27-3.26-3.76-6.05-6.85-4.75,0,0,0,.17,0,.17,1.38,.03,2.72,.61,3.68,1.58,1.98,1.94,1.98,5.41,0,7.35-.96,.97-2.3,1.55-3.68,1.58v.17h0Z"/></g></g></g><g><g><g><circle class="cls-3" cx="80.43" cy="61.72" r="8.28"/><path class="cls-2" d="M80.43,70.13c-3.39,.37-7-1.73-8.47-4.91-1.54-3.29-1.18-7.81,1.67-10.31,1.88-1.67,4.58-2.38,6.8-1.61v.27c-1.97,.7-3.62,1.71-4.91,3.24-1.15,1.42-2.18,3.02-2.3,4.91-.22,2.9,1.53,5.94,4.2,7.27,.92,.47,1.94,.77,3.01,.88v.27h0Z"/></g><g><circle class="cls-3" cx="88.52" cy="56.49" r="8.28"/><path class="cls-2" d="M80.16,55.59c0-3.41,2.47-6.78,5.79-7.9,3.44-1.18,7.89-.33,10.08,2.77,1.46,2.05,1.87,4.81,.88,6.94l-.27-.03c-.49-2.04-1.31-3.79-2.69-5.23-1.29-1.3-2.77-2.49-4.64-2.81-2.86-.52-6.07,.88-7.68,3.4-.56,.86-.98,1.85-1.2,2.9l-.27-.03h0Z"/></g><g><circle class="cls-3" cx="91.33" cy="65.29" r="8.28"/><path class="cls-2" d="M82.96,64.39c0-3.41,2.47-6.78,5.79-7.9,3.44-1.18,7.89-.33,10.08,2.77,1.46,2.05,1.87,4.81,.88,6.94l-.27-.03c-.49-2.04-1.31-3.79-2.69-5.23-1.29-1.3-2.77-2.49-4.64-2.81-2.86-.52-6.07,.88-7.68,3.4-.56,.86-.98,1.85-1.2,2.9l-.27-.03h0Z"/></g><g><circle class="cls-3" cx="86.09" cy="61.73" r="5.34"/><path class="cls-2" d="M86.09,67.16c-2.39,1.02-5.25-.53-6.3-2.82-.48-1-.67-2.18-.55-3.28,.27-3.26,3.76-6.05,6.85-4.75,0,0,0,.17,0,.17-1.38,.03-2.72,.61-3.68,1.58-1.98,1.94-1.98,5.41,0,7.35,.96,.97,2.3,1.55,3.68,1.58v.17h0Z"/></g></g><g><g><circle class="cls-3" cx="100.78" cy="66.63" r="8.28"/><path class="cls-2" d="M100.78,75.05c-3.39,.37-7-1.73-8.47-4.91-1.54-3.29-1.18-7.81,1.67-10.31,1.88-1.67,4.58-2.38,6.8-1.61v.27c-1.97,.7-3.62,1.71-4.91,3.24-1.15,1.42-2.18,3.02-2.3,4.91-.22,2.9,1.53,5.94,4.2,7.27,.92,.47,1.94,.77,3.01,.88v.27h0Z"/></g><g><circle class="cls-3" cx="108.87" cy="61.41" r="8.28"/><path class="cls-2" d="M100.5,60.51c0-3.41,2.47-6.78,5.79-7.9,3.44-1.18,7.89-.33,10.08,2.77,1.46,2.05,1.87,4.81,.88,6.94l-.27-.03c-.49-2.04-1.31-3.79-2.69-5.23-1.29-1.3-2.77-2.49-4.64-2.81-2.86-.52-6.07,.88-7.68,3.4-.56,.86-.98,1.85-1.2,2.9l-.27-.03h0Z"/></g><g><circle class="cls-3" cx="111.67" cy="70.2" r="8.28"/><path class="cls-2" d="M103.3,69.3c0-3.41,2.47-6.78,5.79-7.9,3.44-1.18,7.89-.33,10.08,2.77,1.46,2.05,1.87,4.81,.88,6.94l-.27-.03c-.49-2.04-1.31-3.79-2.69-5.23-1.29-1.3-2.77-2.49-4.64-2.81-2.86-.52-6.07,.88-7.68,3.4-.56,.86-.98,1.85-1.2,2.9l-.27-.03h0Z"/></g><g><circle class="cls-3" cx="106.43" cy="66.64" r="5.34"/><path class="cls-2" d="M106.43,72.07c-2.39,1.02-5.25-.53-6.3-2.82-.48-1-.67-2.18-.55-3.28,.27-3.26,3.76-6.05,6.85-4.75,0,0,0,.17,0,.17-1.38,.03-2.72,.61-3.68,1.58-1.98,1.94-1.98,5.41,0,7.35,.96,.97,2.3,1.55,3.68,1.58v.17h0Z"/></g></g><g><g><circle class="cls-3" cx="139.86" cy="66.63" r="8.28"/><path class="cls-2" d="M139.86,75.05c-3.39,.37-7-1.73-8.47-4.91-1.54-3.29-1.18-7.81,1.67-10.31,1.88-1.67,4.58-2.38,6.8-1.61v.27c-1.97,.7-3.62,1.71-4.91,3.24-1.15,1.42-2.18,3.02-2.3,4.91-.22,2.9,1.53,5.94,4.2,7.27,.92,.47,1.94,.77,3.01,.88v.27h0Z"/></g><g><circle class="cls-3" cx="147.96" cy="61.41" r="8.28"/><path class="cls-2" d="M139.59,60.51c0-3.41,2.47-6.78,5.79-7.9,3.44-1.18,7.89-.33,10.08,2.77,1.46,2.05,1.87,4.81,.88,6.94l-.27-.03c-.49-2.04-1.31-3.79-2.69-5.23-1.29-1.3-2.77-2.49-4.64-2.81-2.86-.52-6.07,.88-7.68,3.4-.56,.86-.98,1.85-1.2,2.9l-.27-.03h0Z"/></g><g><circle class="cls-3" cx="150.76" cy="70.2" r="8.28"/><path class="cls-2" d="M142.39,69.3c0-3.41,2.47-6.78,5.79-7.9,3.44-1.18,7.89-.33,10.08,2.77,1.46,2.05,1.87,4.81,.88,6.94l-.27-.03c-.49-2.04-1.31-3.79-2.69-5.23-1.29-1.3-2.77-2.49-4.64-2.81-2.86-.52-6.07,.88-7.68,3.4-.56,.86-.98,1.85-1.2,2.9l-.27-.03h0Z"/></g><g><circle class="cls-3" cx="145.52" cy="66.64" r="5.34"/><path class="cls-2" d="M145.52,72.07c-2.39,1.02-5.25-.53-6.3-2.82-.48-1-.67-2.18-.55-3.28,.27-3.26,3.76-6.05,6.85-4.75,0,0,0,.17,0,.17-1.38,.03-2.72,.61-3.68,1.58-1.98,1.94-1.98,5.41,0,7.35,.96,.97,2.3,1.55,3.68,1.58v.17h0Z"/></g></g><g><g><circle class="cls-3" cx="103.65" cy="51.6" r="8.28"/><path class="cls-2" d="M103.65,60.02c-3.39,.37-7-1.73-8.47-4.91-1.54-3.29-1.18-7.81,1.67-10.31,1.88-1.67,4.58-2.38,6.8-1.61v.27c-1.97,.7-3.62,1.71-4.91,3.24-1.15,1.42-2.18,3.02-2.3,4.91-.22,2.9,1.53,5.94,4.2,7.27,.92,.47,1.94,.77,3.01,.88v.27h0Z"/></g><g><circle class="cls-3" cx="111.75" cy="46.37" r="8.28"/><path class="cls-2" d="M103.38,45.47c0-3.41,2.47-6.78,5.79-7.9,3.44-1.18,7.89-.33,10.08,2.77,1.46,2.05,1.87,4.81,.88,6.94l-.27-.03c-.49-2.04-1.31-3.79-2.69-5.23-1.29-1.3-2.77-2.49-4.64-2.81-2.86-.52-6.07,.88-7.68,3.4-.56,.86-.98,1.85-1.2,2.9l-.27-.03h0Z"/></g><g><circle class="cls-3" cx="114.55" cy="55.17" r="8.28"/><path class="cls-2" d="M106.18,54.27c0-3.41,2.47-6.78,5.79-7.9,3.44-1.18,7.89-.33,10.08,2.77,1.46,2.05,1.87,4.81,.88,6.94l-.27-.03c-.49-2.04-1.31-3.79-2.69-5.23-1.29-1.3-2.77-2.49-4.64-2.81-2.86-.52-6.07,.88-7.68,3.4-.56,.86-.98,1.85-1.2,2.9l-.27-.03h0Z"/></g><g><circle class="cls-3" cx="109.31" cy="51.61" r="5.34"/><path class="cls-2" d="M109.31,57.04c-2.39,1.02-5.25-.53-6.3-2.82-.48-1-.67-2.18-.55-3.28,.27-3.26,3.76-6.05,6.85-4.75,0,0,0,.17,0,.17-1.38,.03-2.72,.61-3.68,1.58-1.98,1.94-1.98,5.41,0,7.35,.96,.97,2.3,1.55,3.68,1.58v.17h0Z"/></g></g><g><g><circle class="cls-3" cx="136.8" cy="59.69" r="8.28"/><path class="cls-2" d="M136.8,68.11c3.39,.37,7-1.73,8.47-4.91,1.54-3.29,1.18-7.81-1.67-10.31-1.88-1.67-4.58-2.38-6.8-1.61v.27c1.97,.7,3.62,1.71,4.91,3.24,1.15,1.42,2.18,3.02,2.3,4.91,.22,2.9-1.53,5.94-4.2,7.27-.92,.47-1.94,.77-3.01,.88v.27h0Z"/></g><g><circle class="cls-3" cx="128.7" cy="54.46" r="8.28"/><path class="cls-2" d="M137.07,53.56c0-3.41-2.47-6.78-5.79-7.9-3.44-1.18-7.89-.33-10.08,2.77-1.46,2.05-1.87,4.81-.88,6.94l.27-.03c.49-2.04,1.31-3.79,2.69-5.23,1.29-1.3,2.77-2.49,4.64-2.81,2.86-.52,6.07,.88,7.68,3.4,.56,.86,.98,1.85,1.2,2.9l.27-.03h0Z"/></g><g><circle class="cls-3" cx="125.9" cy="63.26" r="8.28"/><path class="cls-2" d="M134.27,62.36c0-3.41-2.47-6.78-5.79-7.9-3.44-1.18-7.89-.33-10.08,2.77-1.46,2.05-1.87,4.81-.88,6.94l.27-.03c.49-2.04,1.31-3.79,2.69-5.23,1.29-1.3,2.77-2.49,4.64-2.81,2.86-.52,6.07,.88,7.68,3.4,.56,.86,.98,1.85,1.2,2.9l.27-.03h0Z"/></g><g><circle class="cls-3" cx="131.14" cy="59.7" r="5.34"/><path class="cls-2" d="M131.14,65.13c2.39,1.02,5.25-.53,6.3-2.82,.48-1,.67-2.18,.55-3.28-.27-3.26-3.76-6.05-6.85-4.75,0,0,0,.17,0,.17,1.38,.03,2.72,.61,3.68,1.58,1.98,1.94,1.98,5.41,0,7.35-.96,.97-2.3,1.55-3.68,1.58v.17h0Z"/></g></g></g><g><g><g><circle class="cls-3" cx="86.49" cy="76.62" r="8.28"/><path class="cls-2" d="M86.49,85.03c-3.39,.37-7-1.73-8.47-4.91-1.54-3.29-1.18-7.81,1.67-10.31,1.88-1.67,4.58-2.38,6.8-1.61v.27c-1.97,.7-3.62,1.71-4.91,3.24-1.15,1.42-2.18,3.02-2.3,4.91-.22,2.9,1.53,5.94,4.2,7.27,.92,.47,1.94,.77,3.01,.88v.27h0Z"/></g><g><circle class="cls-3" cx="94.58" cy="71.39" r="8.28"/><path class="cls-2" d="M86.21,70.49c0-3.41,2.47-6.78,5.79-7.9,3.44-1.18,7.89-.33,10.08,2.77,1.46,2.05,1.87,4.81,.88,6.94l-.27-.03c-.49-2.04-1.31-3.79-2.69-5.23-1.29-1.3-2.77-2.49-4.64-2.81-2.86-.52-6.07,.88-7.68,3.4-.56,.86-.98,1.85-1.2,2.9l-.27-.03h0Z"/></g><g><circle class="cls-3" cx="97.38" cy="80.19" r="8.28"/><path class="cls-2" d="M89.01,79.29c0-3.41,2.47-6.78,5.79-7.9,3.44-1.18,7.89-.33,10.08,2.77,1.46,2.05,1.87,4.81,.88,6.94l-.27-.03c-.49-2.04-1.31-3.79-2.69-5.23-1.29-1.3-2.77-2.49-4.64-2.81-2.86-.52-6.07,.88-7.68,3.4-.56,.86-.98,1.85-1.2,2.9l-.27-.03h0Z"/></g><g><circle class="cls-3" cx="92.14" cy="76.63" r="5.34"/><path class="cls-2" d="M92.14,82.06c-2.39,1.02-5.25-.53-6.3-2.82-.48-1-.67-2.18-.55-3.28,.27-3.26,3.76-6.05,6.85-4.75,0,0,0,.17,0,.17-1.38,.03-2.72,.61-3.68,1.58-1.98,1.94-1.98,5.41,0,7.35,.96,.97,2.3,1.55,3.68,1.58v.17h0Z"/></g></g><g><g><circle class="cls-3" cx="106.83" cy="81.53" r="8.28"/><path class="cls-2" d="M106.83,89.95c-3.39,.37-7-1.73-8.47-4.91-1.54-3.29-1.18-7.81,1.67-10.31,1.88-1.67,4.58-2.38,6.8-1.61v.27c-1.97,.7-3.62,1.71-4.91,3.24-1.15,1.42-2.18,3.02-2.3,4.91-.22,2.9,1.53,5.94,4.2,7.27,.92,.47,1.94,.77,3.01,.88v.27h0Z"/></g><g><circle class="cls-3" cx="114.93" cy="76.31" r="8.28"/><path class="cls-2" d="M106.56,75.4c0-3.41,2.47-6.78,5.79-7.9,3.44-1.18,7.89-.33,10.08,2.77,1.46,2.05,1.87,4.81,.88,6.94l-.27-.03c-.49-2.04-1.31-3.79-2.69-5.23-1.29-1.3-2.77-2.49-4.64-2.81-2.86-.52-6.07,.88-7.68,3.4-.56,.86-.98,1.85-1.2,2.9l-.27-.03h0Z"/></g><g><circle class="cls-3" cx="117.73" cy="85.1" r="8.28"/><path class="cls-2" d="M109.36,84.2c0-3.41,2.47-6.78,5.79-7.9,3.44-1.18,7.89-.33,10.08,2.77,1.46,2.05,1.87,4.81,.88,6.94l-.27-.03c-.49-2.04-1.31-3.79-2.69-5.23-1.29-1.3-2.77-2.49-4.64-2.81-2.86-.52-6.07,.88-7.68,3.4-.56,.86-.98,1.85-1.2,2.9l-.27-.03h0Z"/></g><g><circle class="cls-3" cx="112.49" cy="81.54" r="5.34"/><path class="cls-2" d="M112.49,86.97c-2.39,1.02-5.25-.53-6.3-2.82-.48-1-.67-2.18-.55-3.28,.27-3.26,3.76-6.05,6.85-4.75,0,0,0,.17,0,.17-1.38,.03-2.72,.61-3.68,1.58-1.98,1.94-1.98,5.41,0,7.35,.96,.97,2.3,1.55,3.68,1.58v.17h0Z"/></g></g><g><g><circle class="cls-3" cx="145.92" cy="81.53" r="8.28"/><path class="cls-2" d="M145.92,89.95c-3.39,.37-7-1.73-8.47-4.91-1.54-3.29-1.18-7.81,1.67-10.31,1.88-1.67,4.58-2.38,6.8-1.61v.27c-1.97,.7-3.62,1.71-4.91,3.24-1.15,1.42-2.18,3.02-2.3,4.91-.22,2.9,1.53,5.94,4.2,7.27,.92,.47,1.94,.77,3.01,.88v.27h0Z"/></g><g><circle class="cls-3" cx="154.01" cy="76.31" r="8.28"/><path class="cls-2" d="M145.64,75.4c0-3.41,2.47-6.78,5.79-7.9,3.44-1.18,7.89-.33,10.08,2.77,1.46,2.05,1.87,4.81,.88,6.94l-.27-.03c-.49-2.04-1.31-3.79-2.69-5.23-1.29-1.3-2.77-2.49-4.64-2.81-2.86-.52-6.07,.88-7.68,3.4-.56,.86-.98,1.85-1.2,2.9l-.27-.03h0Z"/></g><g><circle class="cls-3" cx="156.81" cy="85.1" r="8.28"/><path class="cls-2" d="M148.45,84.2c0-3.41,2.47-6.78,5.79-7.9,3.44-1.18,7.89-.33,10.08,2.77,1.46,2.05,1.87,4.81,.88,6.94l-.27-.03c-.49-2.04-1.31-3.79-2.69-5.23-1.29-1.3-2.77-2.49-4.64-2.81-2.86-.52-6.07,.88-7.68,3.4-.56,.86-.98,1.85-1.2,2.9l-.27-.03h0Z"/></g><g><circle class="cls-3" cx="151.58" cy="81.54" r="5.34"/><path class="cls-2" d="M151.58,86.97c-2.39,1.02-5.25-.53-6.3-2.82-.48-1-.67-2.18-.55-3.28,.27-3.26,3.76-6.05,6.85-4.75,0,0,0,.17,0,.17-1.38,.03-2.72,.61-3.68,1.58-1.98,1.94-1.98,5.41,0,7.35,.96,.97,2.3,1.55,3.68,1.58v.17h0Z"/></g></g><g><g><circle class="cls-3" cx="109.71" cy="66.5" r="8.28"/><path class="cls-2" d="M109.71,74.91c-3.39,.37-7-1.73-8.47-4.91-1.54-3.29-1.18-7.81,1.67-10.31,1.88-1.67,4.58-2.38,6.8-1.61v.27c-1.97,.7-3.62,1.71-4.91,3.24-1.15,1.42-2.18,3.02-2.3,4.91-.22,2.9,1.53,5.94,4.2,7.27,.92,.47,1.94,.77,3.01,.88v.27h0Z"/></g><g><circle class="cls-3" cx="117.8" cy="61.27" r="8.28"/><path class="cls-2" d="M109.43,60.37c0-3.41,2.47-6.78,5.79-7.9,3.44-1.18,7.89-.33,10.08,2.77,1.46,2.05,1.87,4.81,.88,6.94l-.27-.03c-.49-2.04-1.31-3.79-2.69-5.23-1.29-1.3-2.77-2.49-4.64-2.81-2.86-.52-6.07,.88-7.68,3.4-.56,.86-.98,1.85-1.2,2.9l-.27-.03h0Z"/></g><g><circle class="cls-3" cx="120.6" cy="70.07" r="8.28"/><path class="cls-2" d="M112.23,69.17c0-3.41,2.47-6.78,5.79-7.9,3.44-1.18,7.89-.33,10.08,2.77,1.46,2.05,1.87,4.81,.88,6.94l-.27-.03c-.49-2.04-1.31-3.79-2.69-5.23-1.29-1.3-2.77-2.49-4.64-2.81-2.86-.52-6.07,.88-7.68,3.4-.56,.86-.98,1.85-1.2,2.9l-.27-.03h0Z"/></g><g><circle class="cls-3" cx="115.36" cy="66.51" r="5.34"/><path class="cls-2" d="M115.36,71.94c-2.39,1.02-5.25-.53-6.3-2.82-.48-1-.67-2.18-.55-3.28,.27-3.26,3.76-6.05,6.85-4.75,0,0,0,.17,0,.17-1.38,.03-2.72,.61-3.68,1.58-1.98,1.94-1.98,5.41,0,7.35,.96,.97,2.3,1.55,3.68,1.58v.17h0Z"/></g></g><g><g><circle class="cls-3" cx="142.85" cy="74.59" r="8.28"/><path class="cls-2" d="M142.85,83c3.39,.37,7-1.73,8.47-4.91,1.54-3.29,1.18-7.81-1.67-10.31-1.88-1.67-4.58-2.38-6.8-1.61v.27c1.97,.7,3.62,1.71,4.91,3.24,1.15,1.42,2.18,3.02,2.3,4.91,.22,2.9-1.53,5.94-4.2,7.27-.92,.47-1.94,.77-3.01,.88v.27h0Z"/></g><g><circle class="cls-3" cx="134.76" cy="69.36" r="8.28"/><path class="cls-2" d="M143.13,68.46c0-3.41-2.47-6.78-5.79-7.9-3.44-1.18-7.89-.33-10.08,2.77-1.46,2.05-1.87,4.81-.88,6.94l.27-.03c.49-2.04,1.31-3.79,2.69-5.23,1.29-1.3,2.77-2.49,4.64-2.81,2.86-.52,6.07,.88,7.68,3.4,.56,.86,.98,1.85,1.2,2.9l.27-.03h0Z"/></g><g><circle class="cls-3" cx="131.96" cy="78.16" r="8.28"/><path class="cls-2" d="M140.33,77.26c0-3.41-2.47-6.78-5.79-7.9-3.44-1.18-7.89-.33-10.08,2.77-1.46,2.05-1.87,4.81-.88,6.94l.27-.03c.49-2.04,1.31-3.79,2.69-5.23,1.29-1.3,2.77-2.49,4.64-2.81,2.86-.52,6.07,.88,7.68,3.4,.56,.86,.98,1.85,1.2,2.9l.27-.03h0Z"/></g><g><circle class="cls-3" cx="137.2" cy="74.6" r="5.34"/><path class="cls-2" d="M137.2,80.03c2.39,1.02,5.25-.53,6.3-2.82,.48-1,.67-2.18,.55-3.28-.27-3.26-3.76-6.05-6.85-4.75,0,0,0,.17,0,.17,1.38,.03,2.72,.61,3.68,1.58,1.98,1.94,1.98,5.41,0,7.35-.96,.97-2.3,1.55-3.68,1.58v.17h0Z"/></g></g></g><g><g><g><circle class="cls-3" cx="137.57" cy="101.2" r="8.28"/><path class="cls-2" d="M137.57,109.61c-3.39,.37-7-1.73-8.47-4.91-1.54-3.29-1.18-7.81,1.67-10.31,1.88-1.67,4.58-2.38,6.8-1.61v.27c-1.97,.7-3.62,1.71-4.91,3.24-1.15,1.42-2.18,3.02-2.3,4.91-.22,2.9,1.53,5.94,4.2,7.27,.92,.47,1.94,.77,3.01,.88v.27h0Z"/></g><g><circle class="cls-3" cx="145.66" cy="95.97" r="8.28"/><path class="cls-2" d="M137.3,95.07c0-3.41,2.47-6.78,5.79-7.9,3.44-1.18,7.89-.33,10.08,2.77,1.46,2.05,1.87,4.81,.88,6.94l-.27-.03c-.49-2.04-1.31-3.79-2.69-5.23-1.29-1.3-2.77-2.49-4.64-2.81-2.86-.52-6.07,.88-7.68,3.4-.56,.86-.98,1.85-1.2,2.9l-.27-.03h0Z"/></g><g><circle class="cls-3" cx="148.47" cy="104.77" r="8.28"/><path class="cls-2" d="M140.1,103.87c0-3.41,2.47-6.78,5.79-7.9,3.44-1.18,7.89-.33,10.08,2.77,1.46,2.05,1.87,4.81,.88,6.94l-.27-.03c-.49-2.04-1.31-3.79-2.69-5.23-1.29-1.3-2.77-2.49-4.64-2.81-2.86-.52-6.07,.88-7.68,3.4-.56,.86-.98,1.85-1.2,2.9l-.27-.03h0Z"/></g><g><circle class="cls-3" cx="143.23" cy="101.21" r="5.34"/><path class="cls-2" d="M143.23,106.64c-2.39,1.02-5.25-.53-6.3-2.82-.48-1-.67-2.18-.55-3.28,.27-3.26,3.76-6.05,6.85-4.75,0,0,0,.17,0,.17-1.38,.03-2.72,.61-3.68,1.58-1.98,1.94-1.98,5.41,0,7.35,.96,.97,2.3,1.55,3.68,1.58v.17h0Z"/></g></g><g><g><circle class="cls-3" cx="157.92" cy="106.11" r="8.28"/><path class="cls-2" d="M157.92,114.53c-3.39,.37-7-1.73-8.47-4.91-1.54-3.29-1.18-7.81,1.67-10.31,1.88-1.67,4.58-2.38,6.8-1.61v.27c-1.97,.7-3.62,1.71-4.91,3.24-1.15,1.42-2.18,3.02-2.3,4.91-.22,2.9,1.53,5.94,4.2,7.27,.92,.47,1.94,.77,3.01,.88v.27h0Z"/></g><g><circle class="cls-3" cx="166.01" cy="100.89" r="8.28"/><path class="cls-2" d="M157.64,99.98c0-3.41,2.47-6.78,5.79-7.9,3.44-1.18,7.89-.33,10.08,2.77,1.46,2.05,1.87,4.81,.88,6.94l-.27-.03c-.49-2.04-1.31-3.79-2.69-5.23-1.29-1.3-2.77-2.49-4.64-2.81-2.86-.52-6.07,.88-7.68,3.4-.56,.86-.98,1.85-1.2,2.9l-.27-.03h0Z"/></g><g><circle class="cls-3" cx="168.81" cy="109.68" r="8.28"/><path class="cls-2" d="M160.44,108.78c0-3.41,2.47-6.78,5.79-7.9,3.44-1.18,7.89-.33,10.08,2.77,1.46,2.05,1.87,4.81,.88,6.94l-.27-.03c-.49-2.04-1.31-3.79-2.69-5.23-1.29-1.3-2.77-2.49-4.64-2.81-2.86-.52-6.07,.88-7.68,3.4-.56,.86-.98,1.85-1.2,2.9l-.27-.03h0Z"/></g><g><circle class="cls-3" cx="163.57" cy="106.12" r="5.34"/><path class="cls-2" d="M163.57,111.55c-2.39,1.02-5.25-.53-6.3-2.82-.48-1-.67-2.18-.55-3.28,.27-3.26,3.76-6.05,6.85-4.75,0,0,0,.17,0,.17-1.38,.03-2.72,.61-3.68,1.58-1.98,1.94-1.98,5.41,0,7.35,.96,.97,2.3,1.55,3.68,1.58v.17h0Z"/></g></g><g><g><circle class="cls-3" cx="197" cy="106.11" r="8.28"/><path class="cls-2" d="M197,114.53c-3.39,.37-7-1.73-8.47-4.91-1.54-3.29-1.18-7.81,1.67-10.31,1.88-1.67,4.58-2.38,6.8-1.61v.27c-1.97,.7-3.62,1.71-4.91,3.24-1.15,1.42-2.18,3.02-2.3,4.91-.22,2.9,1.53,5.94,4.2,7.27,.92,.47,1.94,.77,3.01,.88v.27h0Z"/></g><g><circle class="cls-3" cx="205.1" cy="100.89" r="8.28"/><path class="cls-2" d="M196.73,99.98c0-3.41,2.47-6.78,5.79-7.9,3.44-1.18,7.89-.33,10.08,2.77,1.46,2.05,1.87,4.81,.88,6.94l-.27-.03c-.49-2.04-1.31-3.79-2.69-5.23-1.29-1.3-2.77-2.49-4.64-2.81-2.86-.52-6.07,.88-7.68,3.4-.56,.86-.98,1.85-1.2,2.9l-.27-.03h0Z"/></g><g><circle class="cls-3" cx="207.9" cy="109.68" r="8.28"/><path class="cls-2" d="M199.53,108.78c0-3.41,2.47-6.78,5.79-7.9,3.44-1.18,7.89-.33,10.08,2.77,1.46,2.05,1.87,4.81,.88,6.94l-.27-.03c-.49-2.04-1.31-3.79-2.69-5.23-1.29-1.3-2.77-2.49-4.64-2.81-2.86-.52-6.07,.88-7.68,3.4-.56,.86-.98,1.85-1.2,2.9l-.27-.03h0Z"/></g><g><circle class="cls-3" cx="202.66" cy="106.12" r="5.34"/><path class="cls-2" d="M202.66,111.55c-2.39,1.02-5.25-.53-6.3-2.82-.48-1-.67-2.18-.55-3.28,.27-3.26,3.76-6.05,6.85-4.75,0,0,0,.17,0,.17-1.38,.03-2.72,.61-3.68,1.58-1.98,1.94-1.98,5.41,0,7.35,.96,.97,2.3,1.55,3.68,1.58v.17h0Z"/></g></g><g><g><circle class="cls-3" cx="160.79" cy="91.08" r="8.28"/><path class="cls-2" d="M160.79,99.5c-3.39,.37-7-1.73-8.47-4.91-1.54-3.29-1.18-7.81,1.67-10.31,1.88-1.67,4.58-2.38,6.8-1.61v.27c-1.97,.7-3.62,1.71-4.91,3.24-1.15,1.42-2.18,3.02-2.3,4.91-.22,2.9,1.53,5.94,4.2,7.27,.92,.47,1.94,.77,3.01,.88v.27h0Z"/></g><g><circle class="cls-3" cx="168.88" cy="85.85" r="8.28"/><path class="cls-2" d="M160.52,84.95c0-3.41,2.47-6.78,5.79-7.9,3.44-1.18,7.89-.33,10.08,2.77,1.46,2.05,1.87,4.81,.88,6.94l-.27-.03c-.49-2.04-1.31-3.79-2.69-5.23-1.29-1.3-2.77-2.49-4.64-2.81-2.86-.52-6.07,.88-7.68,3.4-.56,.86-.98,1.85-1.2,2.9l-.27-.03h0Z"/></g><g><circle class="cls-3" cx="171.69" cy="94.65" r="8.28"/><path class="cls-2" d="M163.32,93.75c0-3.41,2.47-6.78,5.79-7.9,3.44-1.18,7.89-.33,10.08,2.77,1.46,2.05,1.87,4.81,.88,6.94l-.27-.03c-.49-2.04-1.31-3.79-2.69-5.23-1.29-1.3-2.77-2.49-4.64-2.81-2.86-.52-6.07,.88-7.68,3.4-.56,.86-.98,1.85-1.2,2.9l-.27-.03h0Z"/></g><g><circle class="cls-3" cx="166.45" cy="91.09" r="5.34"/><path class="cls-2" d="M166.45,96.52c-2.39,1.02-5.25-.53-6.3-2.82-.48-1-.67-2.18-.55-3.28,.27-3.26,3.76-6.05,6.85-4.75,0,0,0,.17,0,.17-1.38,.03-2.72,.61-3.68,1.58-1.98,1.94-1.98,5.41,0,7.35,.96,.97,2.3,1.55,3.68,1.58v.17h0Z"/></g></g><g><g><circle class="cls-3" cx="193.94" cy="99.17" r="8.28"/><path class="cls-2" d="M193.94,107.59c3.39,.37,7-1.73,8.47-4.91,1.54-3.29,1.18-7.81-1.67-10.31-1.88-1.67-4.58-2.38-6.8-1.61v.27c1.97,.7,3.62,1.71,4.91,3.24,1.15,1.42,2.18,3.02,2.3,4.91,.22,2.9-1.53,5.94-4.2,7.27-.92,.47-1.94,.77-3.01,.88v.27h0Z"/></g><g><circle class="cls-3" cx="185.84" cy="93.94" r="8.28"/><path class="cls-2" d="M194.21,93.04c0-3.41-2.47-6.78-5.79-7.9-3.44-1.18-7.89-.33-10.08,2.77-1.46,2.05-1.87,4.81-.88,6.94l.27-.03c.49-2.04,1.31-3.79,2.69-5.23,1.29-1.3,2.77-2.49,4.64-2.81,2.86-.52,6.07,.88,7.68,3.4,.56,.86,.98,1.85,1.2,2.9l.27-.03h0Z"/></g><g><circle class="cls-3" cx="183.04" cy="102.74" r="8.28"/><path class="cls-2" d="M191.41,101.84c0-3.41-2.47-6.78-5.79-7.9-3.44-1.18-7.89-.33-10.08,2.77-1.46,2.05-1.87,4.81-.88,6.94l.27-.03c.49-2.04,1.31-3.79,2.69-5.23,1.29-1.3,2.77-2.49,4.64-2.81,2.86-.52,6.07,.88,7.68,3.4,.56,.86,.98,1.85,1.2,2.9l.27-.03h0Z"/></g><g><circle class="cls-3" cx="188.28" cy="99.18" r="5.34"/><path class="cls-2" d="M188.28,104.61c2.39,1.02,5.25-.53,6.3-2.82,.48-1,.67-2.18,.55-3.28-.27-3.26-3.76-6.05-6.85-4.75,0,0,0,.17,0,.17,1.38,.03,2.72,.61,3.68,1.58,1.98,1.94,1.98,5.41,0,7.35-.96,.97-2.3,1.55-3.68,1.58v.17h0Z"/></g></g></g><g><g><g><circle class="cls-3" cx="125.85" cy="83.98" r="8.28"/><path class="cls-2" d="M125.85,92.39c-3.39,.37-7-1.73-8.47-4.91-1.54-3.29-1.18-7.81,1.67-10.31,1.88-1.67,4.58-2.38,6.8-1.61v.27c-1.97,.7-3.62,1.71-4.91,3.24-1.15,1.42-2.18,3.02-2.3,4.91-.22,2.9,1.53,5.94,4.2,7.27,.92,.47,1.94,.77,3.01,.88v.27h0Z"/></g><g><circle class="cls-3" cx="133.94" cy="78.75" r="8.28"/><path class="cls-2" d="M125.57,77.85c0-3.41,2.47-6.78,5.79-7.9,3.44-1.18,7.89-.33,10.08,2.77,1.46,2.05,1.87,4.81,.88,6.94l-.27-.03c-.49-2.04-1.31-3.79-2.69-5.23-1.29-1.3-2.77-2.49-4.64-2.81-2.86-.52-6.07,.88-7.68,3.4-.56,.86-.98,1.85-1.2,2.9l-.27-.03h0Z"/></g><g><circle class="cls-3" cx="136.74" cy="87.55" r="8.28"/><path class="cls-2" d="M128.38,86.65c0-3.41,2.47-6.78,5.79-7.9,3.44-1.18,7.89-.33,10.08,2.77,1.46,2.05,1.87,4.81,.88,6.94l-.27-.03c-.49-2.04-1.31-3.79-2.69-5.23-1.29-1.3-2.77-2.49-4.64-2.81-2.86-.52-6.07,.88-7.68,3.4-.56,.86-.98,1.85-1.2,2.9l-.27-.03h0Z"/></g><g><circle class="cls-3" cx="131.51" cy="83.99" r="5.34"/><path class="cls-2" d="M131.51,89.41c-2.39,1.02-5.25-.53-6.3-2.82-.48-1-.67-2.18-.55-3.28,.27-3.26,3.76-6.05,6.85-4.75,0,0,0,.17,0,.17-1.38,.03-2.72,.61-3.68,1.58-1.98,1.94-1.98,5.41,0,7.35,.96,.97,2.3,1.55,3.68,1.58v.17h0Z"/></g></g><g><g><circle class="cls-3" cx="146.19" cy="88.89" r="8.28"/><path class="cls-2" d="M146.19,97.31c-3.39,.37-7-1.73-8.47-4.91-1.54-3.29-1.18-7.81,1.67-10.31,1.88-1.67,4.58-2.38,6.8-1.61v.27c-1.97,.7-3.62,1.71-4.91,3.24-1.15,1.42-2.18,3.02-2.3,4.91-.22,2.9,1.53,5.94,4.2,7.27,.92,.47,1.94,.77,3.01,.88v.27h0Z"/></g><g><circle class="cls-3" cx="154.29" cy="83.66" r="8.28"/><path class="cls-2" d="M145.92,82.76c0-3.41,2.47-6.78,5.79-7.9,3.44-1.18,7.89-.33,10.08,2.77,1.46,2.05,1.87,4.81,.88,6.94l-.27-.03c-.49-2.04-1.31-3.79-2.69-5.23-1.29-1.3-2.77-2.49-4.64-2.81-2.86-.52-6.07,.88-7.68,3.4-.56,.86-.98,1.85-1.2,2.9l-.27-.03h0Z"/></g><g><circle class="cls-3" cx="157.09" cy="92.46" r="8.28"/><path class="cls-2" d="M148.72,91.56c0-3.41,2.47-6.78,5.79-7.9,3.44-1.18,7.89-.33,10.08,2.77,1.46,2.05,1.87,4.81,.88,6.94l-.27-.03c-.49-2.04-1.31-3.79-2.69-5.23-1.29-1.3-2.77-2.49-4.64-2.81-2.86-.52-6.07,.88-7.68,3.4-.56,.86-.98,1.85-1.2,2.9l-.27-.03h0Z"/></g><g><circle class="cls-3" cx="151.85" cy="88.9" r="5.34"/><path class="cls-2" d="M151.85,94.33c-2.39,1.02-5.25-.53-6.3-2.82-.48-1-.67-2.18-.55-3.28,.27-3.26,3.76-6.05,6.85-4.75,0,0,0,.17,0,.17-1.38,.03-2.72,.61-3.68,1.58-1.98,1.94-1.98,5.41,0,7.35,.96,.97,2.3,1.55,3.68,1.58v.17h0Z"/></g></g><g><g><circle class="cls-3" cx="185.28" cy="88.89" r="8.28"/><path class="cls-2" d="M185.28,97.31c-3.39,.37-7-1.73-8.47-4.91-1.54-3.29-1.18-7.81,1.67-10.31,1.88-1.67,4.58-2.38,6.8-1.61v.27c-1.97,.7-3.62,1.71-4.91,3.24-1.15,1.42-2.18,3.02-2.3,4.91-.22,2.9,1.53,5.94,4.2,7.27,.92,.47,1.94,.77,3.01,.88v.27h0Z"/></g><g><circle class="cls-3" cx="193.37" cy="83.66" r="8.28"/><path class="cls-2" d="M185.01,82.76c0-3.41,2.47-6.78,5.79-7.9,3.44-1.18,7.89-.33,10.08,2.77,1.46,2.05,1.87,4.81,.88,6.94l-.27-.03c-.49-2.04-1.31-3.79-2.69-5.23-1.29-1.3-2.77-2.49-4.64-2.81-2.86-.52-6.07,.88-7.68,3.4-.56,.86-.98,1.85-1.2,2.9l-.27-.03h0Z"/></g><g><circle class="cls-3" cx="196.18" cy="92.46" r="8.28"/><path class="cls-2" d="M187.81,91.56c0-3.41,2.47-6.78,5.79-7.9,3.44-1.18,7.89-.33,10.08,2.77,1.46,2.05,1.87,4.81,.88,6.94l-.27-.03c-.49-2.04-1.31-3.79-2.69-5.23-1.29-1.3-2.77-2.49-4.64-2.81-2.86-.52-6.07,.88-7.68,3.4-.56,.86-.98,1.85-1.2,2.9l-.27-.03h0Z"/></g><g><circle class="cls-3" cx="190.94" cy="88.9" r="5.34"/><path class="cls-2" d="M190.94,94.33c-2.39,1.02-5.25-.53-6.3-2.82-.48-1-.67-2.18-.55-3.28,.27-3.26,3.76-6.05,6.85-4.75,0,0,0,.17,0,.17-1.38,.03-2.72,.61-3.68,1.58-1.98,1.94-1.98,5.41,0,7.35,.96,.97,2.3,1.55,3.68,1.58v.17h0Z"/></g></g><g><g><circle class="cls-3" cx="149.07" cy="73.86" r="8.28"/><path class="cls-2" d="M149.07,82.27c-3.39,.37-7-1.73-8.47-4.91-1.54-3.29-1.18-7.81,1.67-10.31,1.88-1.67,4.58-2.38,6.8-1.61v.27c-1.97,.7-3.62,1.71-4.91,3.24-1.15,1.42-2.18,3.02-2.3,4.91-.22,2.9,1.53,5.94,4.2,7.27,.92,.47,1.94,.77,3.01,.88v.27h0Z"/></g><g><circle class="cls-3" cx="157.16" cy="68.63" r="8.28"/><path class="cls-2" d="M148.8,67.73c0-3.41,2.47-6.78,5.79-7.9,3.44-1.18,7.89-.33,10.08,2.77,1.46,2.05,1.87,4.81,.88,6.94l-.27-.03c-.49-2.04-1.31-3.79-2.69-5.23-1.29-1.3-2.77-2.49-4.64-2.81-2.86-.52-6.07,.88-7.68,3.4-.56,.86-.98,1.85-1.2,2.9l-.27-.03h0Z"/></g><g><circle class="cls-3" cx="159.96" cy="77.43" r="8.28"/><path class="cls-2" d="M151.6,76.53c0-3.41,2.47-6.78,5.79-7.9,3.44-1.18,7.89-.33,10.08,2.77,1.46,2.05,1.87,4.81,.88,6.94l-.27-.03c-.49-2.04-1.31-3.79-2.69-5.23-1.29-1.3-2.77-2.49-4.64-2.81-2.86-.52-6.07,.88-7.68,3.4-.56,.86-.98,1.85-1.2,2.9l-.27-.03h0Z"/></g><g><circle class="cls-3" cx="154.73" cy="73.87" r="5.34"/><path class="cls-2" d="M154.73,79.3c-2.39,1.02-5.25-.53-6.3-2.82-.48-1-.67-2.18-.55-3.28,.27-3.26,3.76-6.05,6.85-4.75,0,0,0,.17,0,.17-1.38,.03-2.72,.61-3.68,1.58-1.98,1.94-1.98,5.41,0,7.35,.96,.97,2.3,1.55,3.68,1.58v.17h0Z"/></g></g><g><g><circle class="cls-3" cx="182.22" cy="81.95" r="8.28"/><path class="cls-2" d="M182.22,90.36c3.39,.37,7-1.73,8.47-4.91,1.54-3.29,1.18-7.81-1.67-10.31-1.88-1.67-4.58-2.38-6.8-1.61v.27c1.97,.7,3.62,1.71,4.91,3.24,1.15,1.42,2.18,3.02,2.3,4.91,.22,2.9-1.53,5.94-4.2,7.27-.92,.47-1.94,.77-3.01,.88v.27h0Z"/></g><g><circle class="cls-3" cx="174.12" cy="76.72" r="8.28"/><path class="cls-2" d="M182.49,75.82c0-3.41-2.47-6.78-5.79-7.9-3.44-1.18-7.89-.33-10.08,2.77-1.46,2.05-1.87,4.81-.88,6.94l.27-.03c.49-2.04,1.31-3.79,2.69-5.23,1.29-1.3,2.77-2.49,4.64-2.81,2.86-.52,6.07,.88,7.68,3.4,.56,.86,.98,1.85,1.2,2.9l.27-.03h0Z"/></g><g><circle class="cls-3" cx="171.32" cy="85.52" r="8.28"/><path class="cls-2" d="M179.69,84.62c0-3.41-2.47-6.78-5.79-7.9-3.44-1.18-7.89-.33-10.08,2.77-1.46,2.05-1.87,4.81-.88,6.94l.27-.03c.49-2.04,1.31-3.79,2.69-5.23,1.29-1.3,2.77-2.49,4.64-2.81,2.86-.52,6.07,.88,7.68,3.4,.56,.86,.98,1.85,1.2,2.9l.27-.03h0Z"/></g><g><circle class="cls-3" cx="176.56" cy="81.96" r="5.34"/><path class="cls-2" d="M176.56,87.39c2.39,1.02,5.25-.53,6.3-2.82,.48-1,.67-2.18,.55-3.28-.27-3.26-3.76-6.05-6.85-4.75,0,0,0,.17,0,.17,1.38,.03,2.72,.61,3.68,1.58,1.98,1.94,1.98,5.41,0,7.35-.96,.97-2.3,1.55-3.68,1.58v.17h0Z"/></g></g></g><path class="cls-1" d="M192.66,219.83H37.34c-4.11,0-7.64-2.9-8.44-6.93L10.34,119.25c-1.06-5.32,3.02-10.28,8.44-10.28H211.22c5.43,0,9.5,4.96,8.44,10.28l-18.57,93.64c-.8,4.03-4.33,6.93-8.44,6.93Z"/><path class="cls-4" d="M124.12,133.49v86.35h-18.24v-86.35c0-5.03,4.09-9.12,9.12-9.12s9.12,4.09,9.12,9.12Z"/><g><path class="cls-4" d="M61.55,219.83h-18.57l-16.57-84.59c-.98-4.94,2.25-9.73,7.19-10.7,4.94-.97,9.73,2.25,10.7,7.19l17.25,88.1Z"/><path class="cls-4" d="M95.58,219.83h-18.33l-8.55-87.24c-.48-5.01,3.17-9.47,8.19-9.97,5-.49,9.47,3.17,9.97,8.19l8.73,89.02Z"/><path class="cls-4" d="M124.12,133.49v86.35h-18.24v-86.35c0-5.03,4.09-9.12,9.12-9.12s9.12,4.09,9.12,9.12Z"/><path class="cls-4" d="M203.59,135.24l-16.57,84.59h-18.57l17.25-88.1c.97-4.94,5.75-8.16,10.7-7.19,4.94,.97,8.16,5.75,7.19,10.7Z"/><path class="cls-4" d="M161.29,132.59l-8.55,87.24h-18.32l8.73-89.02c.49-5.02,4.93-8.68,9.97-8.19,5.01,.49,8.67,4.96,8.18,9.97Z"/></g><g><circle class="cls-3" cx="105.25" cy="39.88" r="6.18"/><path class="cls-2" d="M105.25,46.16c-2.53,.28-5.22-1.29-6.32-3.66-1.15-2.45-.88-5.83,1.25-7.69,1.4-1.25,3.42-1.77,5.07-1.2v.2c-1.47,.52-2.7,1.27-3.66,2.42-.86,1.06-1.63,2.25-1.72,3.66-.16,2.16,1.14,4.43,3.13,5.42,.69,.35,1.45,.58,2.25,.65v.2h0Z"/></g><g><circle class="cls-3" cx="40.87" cy="29.15" r="6.03"/><path class="cls-2" d="M43.47,34.7c2.93-.09,5.12-3.05,5.1-5.89,.02-1.25-.36-2.55-1-3.62-1.83-3.2-6.73-4.39-9.28-1.59,0,0,.08,.18,.08,.18,1.42-.63,3.07-.67,4.52-.14,2.96,1.04,4.61,4.58,3.51,7.52-.52,1.45-1.61,2.68-3.01,3.37l.08,.18h0Z"/></g><g><circle class="cls-3" cx="78.63" cy="28.98" r="6.18"/><path class="cls-2" d="M82.88,33.6c2.83-1,4.06-4.57,3.15-7.34-.37-1.23-1.14-2.38-2.11-3.23-2.79-2.56-7.94-2.2-9.56,1.33,0,0,.14,.15,.14,.15,1.2-1.06,2.79-1.61,4.37-1.54,3.21,.1,5.93,3.04,5.77,6.25-.05,1.58-.74,3.12-1.89,4.23l.14,.15h0Z"/></g><g><circle class="cls-3" cx="74.53" cy="31.91" r="3.95"/><path class="cls-2" d="M77.07,28.8c-.88-1.7-3.25-2.16-4.93-1.35-.75,.35-1.41,.93-1.86,1.62-1.37,1.99-.69,5.22,1.69,5.94,0,0,.08-.1,.08-.1-.77-.66-1.27-1.63-1.36-2.63-.22-2.04,1.4-4.02,3.45-4.2,1-.1,2.04,.19,2.84,.82l.08-.1h0Z"/></g><g><circle class="cls-3" cx="38.64" cy="62.77" r="4.1"/><path class="cls-2" d="M36.96,58.96c-1.99,.02-3.52,1.99-3.55,3.92-.03,.85,.2,1.74,.63,2.47,1.2,2.2,4.5,3.08,6.28,1.22,0,0-.05-.12-.05-.12-.98,.4-2.1,.41-3.07,.03-1.99-.75-3.06-3.18-2.27-5.16,.37-.98,1.13-1.8,2.09-2.24l-.05-.12h0Z"/></g><g><circle class="cls-3" cx="41.84" cy="61.82" r="2.62"/><path class="cls-2" d="M39.58,63.22c.19,1.26,1.57,2.05,2.8,1.9,.54-.06,1.08-.28,1.51-.62,1.29-.95,1.55-3.12,.22-4.08,0,0-.07,.04-.07,.04,.34,.58,.45,1.29,.29,1.94-.3,1.33-1.74,2.22-3.06,1.89-.65-.15-1.24-.56-1.61-1.13l-.07,.04h0Z"/></g><g><circle class="cls-3" cx="114.14" cy="16.47" r="5.12"/><path class="cls-2" d="M117.66,20.29c2.35-.83,3.36-3.78,2.61-6.08-.31-1.02-.94-1.97-1.74-2.67-2.31-2.12-6.57-1.82-7.92,1.1,0,0,.11,.12,.11,.12,.99-.87,2.31-1.34,3.62-1.27,2.66,.08,4.91,2.52,4.78,5.18-.05,1.3-.61,2.58-1.56,3.5l.11,.12h0Z"/></g><g><circle class="cls-3" cx="26.32" cy="41.79" r="4.11"/><path class="cls-2" d="M28.09,45.57c2-.06,3.49-2.08,3.47-4.02,.01-.85-.24-1.74-.68-2.47-1.25-2.18-4.59-2.99-6.32-1.08,0,0,.06,.12,.06,.12,.97-.43,2.09-.46,3.08-.1,2.02,.71,3.14,3.12,2.39,5.12-.35,.99-1.1,1.83-2.05,2.3l.06,.12h0Z"/></g><g><circle class="cls-3" cx="40.42" cy="59.98" r="2.72"/><path class="cls-2" d="M42.98,61.02c.94-.93,.76-2.58-.12-3.51-.38-.42-.9-.73-1.44-.89-1.59-.5-3.58,.61-3.56,2.32,0,0,.08,.03,.08,.03,.28-.64,.81-1.17,1.45-1.43,1.3-.56,2.93,.1,3.47,1.41,.27,.64,.29,1.38,.04,2.04l.08,.03h0Z"/></g><g><circle class="cls-3" cx="147.58" cy="26.6" r="5.02"/><path class="cls-2" d="M152.19,24.44c-.08-2.44-2.54-4.26-4.9-4.24-1.04-.01-2.12,.3-3.01,.84-2.66,1.52-3.65,5.6-1.32,7.72,0,0,.15-.07,.15-.07-.52-1.18-.56-2.56-.12-3.75,.87-2.46,3.81-3.84,6.25-2.92,1.2,.43,2.23,1.34,2.8,2.5l.15-.07h0Z"/></g><g><circle class="cls-3" cx="208.28" cy="44.06" r="4.11"/><path class="cls-2" d="M206.52,47.84c-2-.06-3.49-2.08-3.47-4.02-.01-.85,.24-1.74,.68-2.47,1.25-2.18,4.59-2.99,6.32-1.08,0,0-.06,.12-.06,.12-.97-.43-2.09-.46-3.08-.1-2.02,.71-3.14,3.12-2.39,5.12,.35,.99,1.1,1.83,2.05,2.3l-.06,.12h0Z"/></g><g><circle class="cls-3" cx="194.43" cy="61.9" r="4.11"/><path class="cls-2" d="M192.66,65.68c-2-.06-3.49-2.08-3.47-4.02-.01-.85,.24-1.74,.68-2.47,1.25-2.18,4.59-2.99,6.32-1.08,0,0-.06,.12-.06,.12-.97-.43-2.09-.46-3.08-.1-2.02,.71-3.14,3.12-2.39,5.12,.35,.99,1.1,1.83,2.05,2.3l-.06,.12h0Z"/></g><g><circle class="cls-3" cx="170.86" cy="43.43" r="3.24"/><path class="cls-2" d="M173.9,44.7c1.13-1.1,.93-3.06-.11-4.18-.45-.5-1.06-.88-1.71-1.07-1.89-.61-4.26,.69-4.26,2.72,0,0,.1,.04,.1,.04,.34-.76,.98-1.38,1.74-1.69,1.55-.66,3.49,.15,4.11,1.71,.32,.76,.33,1.65,.03,2.42l.1,.04h0Z"/></g><g><circle class="cls-3" cx="169.55" cy="45.72" r="2.07"/><path class="cls-2" d="M170.09,43.69c-.79-.62-2.02-.32-2.64,.44-.28,.33-.47,.75-.53,1.18-.22,1.25,.81,2.63,2.1,2.45,0,0,.02-.06,.02-.06-.51-.15-.96-.5-1.22-.95-.55-.92-.21-2.22,.72-2.75,.45-.27,1.01-.35,1.53-.23l.02-.06h0Z"/></g><g><circle class="cls-3" cx="171.37" cy="46" r="2.15"/><path class="cls-2" d="M169.33,46.8c-.03,1.04,.97,1.89,1.98,1.95,.45,.03,.92-.07,1.31-.28,1.18-.58,1.71-2.3,.77-3.27,0,0-.06,.03-.06,.03,.19,.52,.17,1.11-.05,1.61-.44,1.03-1.73,1.54-2.75,1.08-.5-.22-.92-.63-1.13-1.14l-.06,.03h0Z"/></g><g><circle class="cls-3" cx="191.07" cy="25.84" r="4.22"/><path class="cls-2" d="M192.86,29.73c2.05-.06,3.59-2.11,3.59-4.1,.02-.88-.24-1.78-.69-2.54-1.27-2.25-4.69-3.1-6.48-1.15,0,0,.06,.12,.06,.12,1-.43,2.15-.46,3.16-.08,2.07,.74,3.21,3.22,2.43,5.27-.37,1.01-1.14,1.87-2.11,2.35l.06,.12h0Z"/></g><g><circle class="cls-3" cx="187.79" cy="26.87" r="2.7"/><path class="cls-2" d="M190.1,25.4c-.22-1.29-1.65-2.09-2.91-1.91-.56,.07-1.11,.31-1.55,.66-1.31,1-1.55,3.24-.15,4.21,0,0,.07-.05,.07-.05-.36-.59-.48-1.32-.33-1.99,.29-1.37,1.76-2.32,3.12-2,.67,.14,1.28,.55,1.67,1.13l.07-.05h0Z"/></g><g><circle class="cls-3" cx="189.29" cy="28.75" r="2.8"/><path class="cls-2" d="M186.63,27.72c-.95,.97-.74,2.67,.19,3.62,.4,.43,.94,.74,1.5,.89,1.65,.48,3.67-.69,3.62-2.45,0,0-.08-.03-.08-.03-.28,.67-.81,1.21-1.47,1.5-1.33,.6-3.02-.05-3.6-1.39-.29-.65-.32-1.42-.08-2.1l-.08-.03h0Z"/></g></g></svg>