<?xml version="1.0" encoding="UTF-8"?><svg id="Camada_1" xmlns="http://www.w3.org/2000/svg" viewBox="0 0 230 230"><defs><style>.cls-1{fill:#7e8585;}.cls-2{fill:#821b1c;}.cls-3{fill:#b3797d;}.cls-4{fill:#cbdfdd;}.cls-5{fill:#cca7aa;}.cls-6{fill:#cfb6b7;}.cls-7{fill:#c79055;}.cls-8{fill:#d9c3c4;}.cls-9{fill:#b07c43;}.cls-10{fill:#d69751;}.cls-11{fill:#232626;}.cls-12{fill:#452a12;}.cls-13{fill:#634429;}.cls-14{fill:#301d0d;}.cls-15{fill:#dedede;opacity:.4;}</style></defs><g><path class="cls-9" d="M230,146.46l-122.95,82.81c-1.55,1.05-3.61,.96-5.07-.21L0,146.46v-4.91l113.02-50.98,116.98,51.52v4.37Z"/><path class="cls-10" d="M228.86,144.1l-120.24,81.03c-2.49,1.68-5.78,1.54-8.13-.34L1.3,145.02c-2.01-1.61-1.62-4.77,.71-5.86l111.01-51.66,115.46,52.12c1.84,.83,2.06,3.36,.38,4.49Z"/><path class="cls-9" d="M208.32,148.52l-97.49,65.7c-2.88,1.94-6.68,1.78-9.39-.4L20.51,148.76c-2.76-2.22-2.23-6.57,.98-8.06l91.35-42.51c.28-.13,.61-.13,.89,0l93.91,42.39c3.27,1.47,3.65,5.96,.67,7.96Z"/><path class="cls-10" d="M204.85,146.97l-94.37,63.59c-2.29,1.55-5.33,1.42-7.48-.32L24.21,146.9c-1.13-.9-.91-2.68,.4-3.29l88.79-41.32,91.15,41.14c1.45,.66,1.62,2.65,.3,3.54Z"/><path class="cls-9" d="M172.9,149.74l-59.01,39.77c-2.49,1.68-5.78,1.54-8.13-.34l-49.03-39.42,57.19-26.62,58.97,26.62Z"/><path class="cls-10" d="M164.93,150.84l-50.34,33.92c-2.49,1.68-5.78,1.54-8.13-.34l-41.76-33.58,49.34-22.96,50.88,22.96Z"/></g><g><g><path class="cls-3" d="M35.09,115.55s2.23,21.55,4.32,28.43c3.9,12.84,24.31,37.25,68.29,37.25,46.16,0,68.78-18.86,72.07-29.69,2.79-9.18,3.71-41.03,3.71-41.03l-148.41,5.05Z"/><path class="cls-5" d="M33.04,112.47s2.23,21.55,4.32,28.43c3.9,12.84,24.31,37.25,68.29,37.25,46.16,0,68.78-18.86,72.07-29.69,2.79-9.18,5.77-37.95,5.77-37.95l-150.46,1.97Z"/><ellipse class="cls-2" cx="107.62" cy="91.53" rx="81.51" ry="51.86"/><ellipse class="cls-8" cx="107.62" cy="89.34" rx="78.19" ry="49.75"/><path class="cls-6" d="M184.39,92.83c-6.96,22.93-38.68,40.25-76.76,40.25-.59,0-1.19,0-1.78-.01-37.29-.53-68.14-17.67-74.99-40.24,14.28-34.46,35.1-10.86,85.98-26.11,37.44-11.22,59.22,1.56,67.56,26.11Z"/><path class="cls-14" d="M184.39,96.83c-6.96,22.93-38.68,40.25-76.76,40.25-.59,0-1.19,0-1.78-.01-37.29-.53-68.14-17.67-74.99-40.24,14.28-34.46,35.1-10.86,85.98-26.11,37.44-11.22,59.22,1.56,67.56,26.11Z"/><path class="cls-12" d="M184.39,98.83c-6.96,22.93-38.68,40.25-76.76,40.25-.59,0-1.19,0-1.78-.01-37.29-.53-68.14-17.67-74.99-40.24,14.28-34.46,28.61-8.33,79.5-23.58,37.44-11.22,65.71-.97,74.04,23.58Z"/><path class="cls-4" d="M187.81,100.84s2.03,.37,6.1-2.85c4.07-3.21,8.94-14.5,8.94-14.5l-8.1-.33-5.66,6.85-1.28,10.82Z"/><path class="cls-1" d="M189.09,90.02s2.71-.63,3.59-2.78,2.08-4.07,2.08-4.07l-.88-.64s-2.6,5.03-3.75,5.43l-1.15,.39,.12,1.67Z"/><path class="cls-11" d="M191.86,80.79l2.89,2.38,8.1,.33s3.13,.66,6.12-6.6c2.99-7.26-16.23-26.65-22.38-27.68-6.15-1.03-12.81-.26-14.18,2.56-1.37,2.82-1.89,6.76-1.89,6.76,0,0,2.4,2.89,3.69,2.72s5.64-.94,5.64-.94c0,0,11.27,11.52,13.66,15.21,1.22,1.88-1.65,5.25-1.65,5.25Z"/><path class="cls-15" d="M198.84,75.25s.78,.94,1.54,1.12c8.24,1.96,9.02-.59,8.89-1.52-.16-1.19-.83-3.35-.83-3.35,0,0-.07,2.8-2.22,2.7s-6.69-.5-8.09-2.35c-1.4-1.85,.7,3.4,.7,3.4Z"/><path class="cls-4" d="M23.33,126.46s5.04,8.95,13.09,10.47l5.59,.93v-11.33l-7.35-.64s-2.04-2.14-2.7-3.31l-8.63,3.88Z"/><path class="cls-1" d="M22.47,98.75s2.84,2.07,4.77,1.38l.52,1.79s-3.94-.91-5.29-3.17Z"/><path class="cls-4" d="M22.47,98.75s4.1,2.89,5.29,3.17l4.58,9.51s-5.2-.84-6.22-1.85-3.65-9.51-3.65-10.82Z"/><path class="cls-11" d="M31.96,122.58l-4.21-6.46-5.29-17.37-3.09-9.79s-13.48-2.35-13.38,5.56c.07,5.9,6.62,28.55,10.05,30.26,4.6,2.3,7.29,1.67,7.29,1.67l8.63-3.88Z"/><path class="cls-15" d="M19.38,88.96l-13.38,5.56s-.16-3.67,3.46-4.97,8.65-.83,9.93-.59Z"/></g><path class="cls-15" d="M27.24,114.23c-3.72,3.97-8.24,6.36-13.87,6.52,.68,1.58,1.4,3,2.29,3.7,0,0,10.96-7.2,13.49-6.29l-1.34-2.05-.57-1.88Z"/><path class="cls-13" d="M37.7,98.75c-3.97,.28,2.37-10.33,12.34-10.07s15.66,.57,18.51,.65-8.78,5.54-14,5.19-10.87,3.81-16.85,4.23Z"/><path class="cls-13" d="M63.58,119.31c-5.09-3.36,6.82,15.21,20.71,12.89,16.97-2.83-9.94-5.77-20.71-12.89Z"/><path class="cls-13" d="M146.86,75.73s23.44,1.96,27.21,16.28c1.77,6.75-6.53-4.53-13.49-6.89-16.09-5.45-13.73-9.39-13.73-9.39Z"/><path class="cls-13" d="M137.19,127.87s27.84-.85,35.71-20.28c0,0-3.37-7.95-7.97,3.34-5.54,13.57-30.64,10.22-27.74,16.94Z"/><g><path class="cls-13" d="M107.1,97.09s-8.86,6.92,0,8.84,17.51,.23,16.19,2.48-24.63,2.74-24.07-2.48,7.87-8.84,7.87-8.84Z"/><path class="cls-13" d="M132.33,104.16s10.52-3.96,2.64-8.44-16.64-5.45-14.71-7.21,24.32,4.74,22.22,9.56-10.16,6.09-10.16,6.09Z"/><path class="cls-7" d="M134.13,79.41c-2.25-3.82,.35-21.57,9.08-51.97C151.01,.29,153.3,.53,151.38,.05s-8.55,1.52-17.14,37.8c-8.99,38.02-9.31,33.2-17.62,39.08-4.28,3.03-7.91,18.9-4.96,24.39,.95,1.77,13.01,6.21,17.61,3.07,3.7-2.52,10.98-14.61,4.86-24.98Z"/></g></g></svg>