<?xml version="1.0" encoding="UTF-8"?><svg id="Camada_1" xmlns="http://www.w3.org/2000/svg" viewBox="0 0 230 230"><defs><style>.cls-1{fill:#7e8585;}.cls-2{fill:#821b1c;}.cls-3{fill:#b3797d;}.cls-4{fill:#cbdfdd;}.cls-5{fill:#cca7aa;}.cls-6{fill:#cfb6b7;}.cls-7{fill:#c79055;}.cls-8{fill:#d9c3c4;}.cls-9{fill:#b07c43;}.cls-10{fill:#d69751;}.cls-11{fill:#232626;}.cls-12{fill:#452a12;}.cls-13{fill:#634429;}.cls-14{fill:#301d0d;}.cls-15{fill:#dedede;opacity:.4;}</style></defs><g><path class="cls-9" d="M230,146.46l-122.95,82.81c-1.55,1.05-3.61,.96-5.07-.21L0,146.46v-4.91l113.02-50.98,116.98,51.52v4.37Z"/><path class="cls-10" d="M228.86,144.1l-120.24,81.03c-2.49,1.68-5.78,1.54-8.13-.34L1.3,145.02c-2.01-1.61-1.62-4.77,.71-5.86l111.01-51.66,115.46,52.12c1.84,.83,2.06,3.36,.38,4.49Z"/><path class="cls-9" d="M208.32,148.52l-97.49,65.7c-2.88,1.94-6.68,1.78-9.39-.4L20.51,148.76c-2.76-2.22-2.23-6.57,.98-8.06l91.35-42.51c.28-.13,.61-.13,.89,0l93.91,42.39c3.27,1.47,3.65,5.96,.67,7.96Z"/><path class="cls-10" d="M204.85,146.97l-94.37,63.59c-2.29,1.55-5.33,1.42-7.48-.32L24.21,146.9c-1.13-.9-.91-2.68,.4-3.29l88.79-41.32,91.15,41.14c1.45,.66,1.62,2.65,.3,3.54Z"/><path class="cls-9" d="M172.9,149.74l-59.01,39.77c-2.49,1.68-5.78,1.54-8.13-.34l-49.03-39.42,57.19-26.62,58.97,26.62Z"/><path class="cls-10" d="M164.93,150.84l-50.34,33.92c-2.49,1.68-5.78,1.54-8.13-.34l-41.76-33.58,49.34-22.96,50.88,22.96Z"/></g><g><g><path class="cls-3" d="M35.78,120.83s2.33,22.53,4.52,29.73c4.08,13.42,25.42,38.95,71.41,38.95,48.27,0,71.93-19.73,75.37-31.05,2.92-9.6,3.88-42.91,3.88-42.91l-155.18,5.28Z"/><path class="cls-5" d="M33.63,117.61s2.33,22.53,4.52,29.73c4.08,13.42,25.42,38.95,71.41,38.95,48.27,0,71.93-19.73,75.37-31.05,2.92-9.6,6.03-39.69,6.03-39.69l-157.33,2.06Z"/><ellipse class="cls-2" cx="111.62" cy="95.71" rx="85.23" ry="54.23"/><ellipse class="cls-8" cx="111.62" cy="93.42" rx="81.76" ry="52.02"/><path class="cls-6" d="M191.9,97.07c-7.28,23.98-40.45,42.09-80.27,42.09-.62,0-1.24,0-1.87-.01-38.99-.56-71.26-18.48-78.42-42.08,14.93-36.04,36.7-11.36,89.91-27.31,39.15-11.74,61.93,1.63,70.64,27.31Z"/><path class="cls-14" d="M191.9,101.25c-7.28,23.98-40.45,42.09-80.27,42.09-.62,0-1.24,0-1.87-.01-38.99-.56-71.26-18.48-78.42-42.08,14.93-36.04,36.7-11.36,89.91-27.31,39.15-11.74,61.93,1.63,70.64,27.31Z"/><path class="cls-12" d="M191.9,103.34c-7.28,23.98-40.45,42.09-80.27,42.09-.62,0-1.24,0-1.87-.01-38.99-.56-71.26-18.48-78.42-42.08,14.93-36.04,29.92-8.71,83.13-24.66,39.15-11.74,68.71-1.02,77.42,24.66Z"/><path class="cls-4" d="M195.48,105.45s2.12,.38,6.38-2.98c4.25-3.36,9.35-15.16,9.35-15.16l-8.47-.35-5.92,7.17-1.34,11.32Z"/><path class="cls-1" d="M196.81,94.14s2.83-.66,3.75-2.91c.92-2.25,2.17-4.26,2.17-4.26l-.92-.67s-2.72,5.26-3.92,5.68l-1.2,.41,.12,1.75Z"/><path class="cls-11" d="M199.71,84.48l3.02,2.49,8.47,.35s3.28,.69,6.4-6.9c3.13-7.59-16.97-27.87-23.4-28.94-6.43-1.07-13.4-.27-14.83,2.68-1.43,2.95-1.98,7.07-1.98,7.07,0,0,2.51,3.02,3.85,2.84,1.34-.18,5.9-.98,5.9-.98,0,0,11.79,12.05,14.29,15.9,1.28,1.97-1.72,5.49-1.72,5.49Z"/><path class="cls-15" d="M207.01,78.69s.82,.98,1.61,1.17c8.62,2.05,9.43-.61,9.3-1.59-.16-1.25-.86-3.5-.86-3.5,0,0-.07,2.93-2.32,2.83s-7-.52-8.46-2.45c-1.46-1.93,.73,3.55,.73,3.55Z"/><path class="cls-4" d="M23.48,132.24s5.27,9.36,13.69,10.95l5.84,.98v-11.85l-7.69-.67s-2.13-2.24-2.82-3.46l-9.02,4.05Z"/><path class="cls-1" d="M22.58,103.27s2.97,2.16,4.98,1.44l.54,1.87s-4.12-.95-5.53-3.31Z"/><path class="cls-4" d="M22.58,103.27s4.28,3.02,5.53,3.31l4.79,9.94s-5.44-.88-6.5-1.93c-1.07-1.06-3.82-9.94-3.82-11.32Z"/><path class="cls-11" d="M32.5,128.18l-4.4-6.75-5.53-18.16-3.23-10.24s-14.1-2.45-14,5.81c.08,6.17,6.92,29.85,10.51,31.65,4.81,2.41,7.62,1.75,7.62,1.75l9.02-4.05Z"/><path class="cls-15" d="M19.35,93.03l-14,5.81s-.16-3.84,3.62-5.19,9.04-.87,10.38-.62Z"/></g><path class="cls-15" d="M27.57,119.45c-3.89,4.15-8.61,6.65-14.5,6.82,.72,1.65,1.47,3.14,2.39,3.87,0,0,11.46-7.53,14.1-6.58l-1.4-2.15-.6-1.96Z"/><path class="cls-13" d="M38.51,103.27c-4.15,.29,2.48-10.8,12.9-10.53s16.38,.59,19.36,.68-9.18,5.8-14.64,5.42-11.37,3.98-17.62,4.42Z"/><path class="cls-13" d="M65.57,124.76c-5.32-3.52,7.13,15.9,21.65,13.48,17.74-2.96-10.4-6.04-21.65-13.48Z"/><path class="cls-13" d="M152.65,79.19s24.51,2.05,28.46,17.03c1.86,7.06-6.82-4.74-14.1-7.2-16.83-5.7-14.35-9.82-14.35-9.82Z"/><path class="cls-13" d="M142.55,133.71s29.11-.88,37.34-21.21c0,0-3.52-8.32-8.34,3.49-5.79,14.19-32.04,10.68-29,17.72Z"/><g><path class="cls-13" d="M111.08,101.53s-9.26,7.24,0,9.25c9.26,2.01,18.31,.24,16.93,2.6-1.38,2.36-25.75,2.87-25.17-2.6,.59-5.46,8.23-9.25,8.23-9.25Z"/><path class="cls-13" d="M137.46,108.91s11-4.14,2.76-8.82c-8.24-4.68-17.4-5.7-15.38-7.54,2.02-1.84,25.44,4.96,23.24,10-2.2,5.04-10.62,6.36-10.62,6.36Z"/><path class="cls-7" d="M139.34,83.04c-2.36-3.99,.36-22.56,9.5-54.34C156.99,.31,159.39,.56,157.38,.06s-8.94,1.58-17.92,39.53c-9.4,39.75-9.73,34.71-18.42,40.87-4.47,3.17-8.27,19.77-5.19,25.5,1,1.86,13.6,6.5,18.42,3.21,3.87-2.64,11.48-15.28,5.08-26.12Z"/></g></g></svg>