<svg width="33" height="33" viewBox="0 0 33 33" fill="none" xmlns="http://www.w3.org/2000/svg">
<g clip-path="url(#clip0_266_6601)">
<path d="M24.6767 14.8233C24.6767 16.6033 24.1317 18.2533 23.1967 19.6233C21.8517 21.5483 21.1167 23.5683 20.6017 25.3133H11.7017C11.1817 23.5683 10.4467 21.5483 9.1017 19.6233C8.1667 18.2583 7.6167 16.6033 7.6167 14.8233C7.6167 10.1183 11.4367 6.29834 16.1417 6.29834C20.8467 6.29834 24.6667 10.1183 24.6667 14.8233H24.6767Z" fill="#F9941F"/>
<path d="M11.7219 26.4482H20.5169V28.2782C20.5169 28.7332 20.1469 29.1032 19.6919 29.1032H12.5519C12.0969 29.1032 11.7269 28.7332 11.7269 28.2782V26.4482H11.7219Z" fill="#F9941F"/>
<path d="M19.0419 30.188C18.5869 31.353 17.4469 32.178 16.1169 32.178C14.7869 32.178 13.6469 31.353 13.1919 30.188H19.0369H19.0419Z" fill="#F9941F"/>
<path d="M16.2291 0.178223H16.1141C15.7496 0.178223 15.4541 0.473715 15.4541 0.838222V4.51322C15.4541 4.87773 15.7496 5.17322 16.1141 5.17322H16.2291C16.5936 5.17322 16.8891 4.87773 16.8891 4.51322V0.838222C16.8891 0.473715 16.5936 0.178223 16.2291 0.178223Z" fill="#F9941F"/>
<path d="M6.14444 4.31674L6.06313 4.39806C5.80538 4.6558 5.80538 5.07369 6.06313 5.33144L8.66174 7.93005C8.91949 8.1878 9.33738 8.1878 9.59512 7.93005L9.67644 7.84874C9.93419 7.59099 9.93419 7.1731 9.67644 6.91536L7.07782 4.31674C6.82008 4.05899 6.40219 4.05899 6.14444 4.31674Z" fill="#F9941F"/>
<path d="M1.93408 14.3783V14.4933C1.93408 14.8578 2.22957 15.1533 2.59408 15.1533H6.26908C6.63359 15.1533 6.92908 14.8578 6.92908 14.4933V14.3783C6.92908 14.0138 6.63359 13.7183 6.26908 13.7183H2.59408C2.22957 13.7183 1.93408 14.0138 1.93408 14.3783Z" fill="#F9941F"/>
<path d="M22.6185 7.84848L22.6998 7.92979C22.9576 8.18754 23.3754 8.18754 23.6332 7.92979L26.2318 5.33118C26.4896 5.07343 26.4896 4.65554 26.2318 4.3978L26.1505 4.31648C25.8927 4.05873 25.4749 4.05873 25.2171 4.31648L22.6185 6.9151C22.3608 7.17284 22.3608 7.59073 22.6185 7.84848Z" fill="#F9941F"/>
<path d="M25.3643 14.3783V14.4933C25.3643 14.8578 25.6597 15.1533 26.0243 15.1533H29.6993C30.0638 15.1533 30.3593 14.8578 30.3593 14.4933V14.3783C30.3593 14.0138 30.0638 13.7183 29.6993 13.7183H26.0243C25.6597 13.7183 25.3643 14.0138 25.3643 14.3783Z" fill="#F9941F"/>
</g>
<defs>
<clipPath id="clip0_266_6601">
<rect width="32" height="32" fill="white" transform="translate(0.146484 0.178223)"/>
</clipPath>
</defs>
</svg>
