<?xml version="1.0" encoding="UTF-8"?><svg id="Camada_1" xmlns="http://www.w3.org/2000/svg" viewBox="0 0 230 230"><defs><style>.cls-1{letter-spacing:0em;}.cls-2{opacity:.1;}.cls-3{fill:#f9941f;}.cls-4{fill:#667480;}.cls-5,.cls-6{fill:#cfdbe6;}.cls-7{fill:#8699a8;}.cls-8{letter-spacing:-.01em;}.cls-9,.cls-10{letter-spacing:0em;}.cls-9,.cls-11,.cls-12{fill:#1e1e1e;font-family:Baloo2-Bold, 'Baloo 2';font-size:12px;font-variation-settings:'wght' 700;}.cls-13{letter-spacing:0em;}.cls-14{letter-spacing:0em;}.cls-15{fill:none;stroke:#667480;stroke-miterlimit:10;stroke-width:2px;}.cls-16,.cls-17{opacity:.2;}.cls-16,.cls-18,.cls-6,.cls-19{fill-rule:evenodd;}.cls-16,.cls-19{fill:#fff;}.cls-20{opacity:.15;}.cls-18{fill:#f96163;}.cls-12{letter-spacing:0em;}</style></defs><path class="cls-19" d="M117.87,229.55c22.52-1.41,43.81-9.04,62.65-21,18.68-11.87,35.82-26.91,44.23-46.89,8.24-19.57,5.18-41.2,1.65-62.05-3.47-20.5-9.14-40.53-21.85-57.32-13.46-17.77-30.24-34.77-52.27-40.54-21.88-5.73-44.02,3.86-65.89,9.6-22.34,5.85-47.26,8.08-63.22,24.24C6.98,51.99,2.51,75.85,.45,98.38c-1.98,21.66,2.81,42.81,11.22,62.99,8.74,20.97,18.57,42.84,38.09,55.38,19.65,12.61,44.55,14.29,68.12,12.81Z"/><g><text class="cls-11" transform="translate(156.68 39.59)"><tspan class="cls-14" x="0" y="0">2</tspan><tspan x="6.2" y="0">00</tspan></text><text class="cls-11" transform="translate(177.28 35.6) scale(.58)"><tspan x="0" y="0">o</tspan></text><text class="cls-11" transform="translate(181.33 39.59)"><tspan class="cls-13" x="0" y="0">C / </tspan><tspan class="cls-1" x="-24.65" y="14.4">3</tspan><tspan class="cls-8" x="-18.42" y="14.4">9</tspan><tspan class="cls-10" x="-11.88" y="14.4">2</tspan></text><text class="cls-12" transform="translate(175.67 50) scale(.58)"><tspan x="0" y="0">o</tspan></text><text class="cls-9" transform="translate(179.72 53.99)"><tspan x="0" y="0">F</tspan></text><g><g><path class="cls-4" d="M205.87,31.48c2.67,0,4.84,2.17,4.84,4.84V106.81c2.11,1.53,3.4,4.02,3.4,6.66,0,4.55-3.7,8.24-8.24,8.24-.28,0-.57-.01-.86-.04-2.98-.3-5.6-2.26-6.74-5.03-1.52-3.7-.19-7.69,2.77-9.83V36.32c0-2.67,2.17-4.84,4.84-4.84m0-2c-3.77,0-6.84,3.07-6.84,6.84V105.86c-3.21,2.87-4.29,7.47-2.61,11.55,1.41,3.43,4.7,5.88,8.39,6.26,.35,.04,.71,.05,1.07,.05,5.65,0,10.24-4.6,10.24-10.24,0-2.91-1.25-5.69-3.4-7.61V36.32c0-3.77-3.07-6.84-6.84-6.84h0Z"/><path class="cls-6" d="M212.71,114.15c-.3,3.17-2.86,5.78-6.03,6.15-4.15,.48-7.68-2.76-7.68-6.83,0-2.53,1.36-4.73,3.4-5.92V36.79c0-1.92,1.55-3.47,3.47-3.47h0c1.92,0,3.47,1.55,3.47,3.47V107.55c2.22,1.29,3.64,3.79,3.37,6.6Z"/><path class="cls-18" d="M212.74,113.47c0,3.8-3.08,6.87-6.87,6.87s-6.87-3.08-6.87-6.87c0-2.53,1.36-4.73,3.4-5.92v-16.82h6.94v16.82c2.04,1.19,3.4,3.39,3.4,5.92Z"/></g><line class="cls-15" x1="200.68" y1="80.63" x2="205.39" y2="80.63"/><line class="cls-15" x1="200.68" y1="69.64" x2="205.39" y2="69.64"/><line class="cls-15" x1="200.68" y1="58.66" x2="205.39" y2="58.66"/><line class="cls-15" x1="200.68" y1="47.68" x2="205.39" y2="47.68"/><line class="cls-15" x1="200.68" y1="36.69" x2="205.39" y2="36.69"/></g></g><g><g><g><rect class="cls-4" x="24.91" y="210.25" width="9.45" height="19.75" rx="1" ry="1"/><rect class="cls-4" x="158.82" y="210.25" width="9.45" height="19.75" rx="1" ry="1"/></g><path class="cls-5" d="M14.82,203.66H178.36v11.65c0,2.63-2.13,4.76-4.76,4.76H19.58c-2.63,0-4.76-2.13-4.76-4.76v-11.65h0Z"/><path class="cls-4" d="M16.91,109.2H176.26c1.16,0,2.1,.94,2.1,2.1v92.37H14.82V111.3c0-1.16,.94-2.1,2.1-2.1Z"/><rect class="cls-3" x="26.84" y="138.34" width="139.5" height="54.79" rx="1.06" ry="1.06"/><path class="cls-2" d="M158.59,138.34h6.69c.58,0,1.06,.47,1.06,1.06v52.67c0,.58-.47,1.06-1.06,1.06h-6.69v-54.79h0Z"/><rect class="cls-5" x="36.28" y="119.87" width="120.61" height="10.28" rx="2.89" ry="2.89"/><rect class="cls-7" x="22.62" y="97.51" width="147.93" height="11.69"/><rect class="cls-5" x="14.82" y="72.57" width="163.54" height="24.95" rx="2.63" ry="2.63"/><g><g><circle class="cls-7" cx="39.63" cy="85.04" r="5.05"/><circle class="cls-7" cx="64.93" cy="85.04" r="5.05"/><circle class="cls-7" cx="90.22" cy="85.04" r="5.05"/><circle class="cls-7" cx="115.52" cy="85.04" r="5.05"/></g><rect class="cls-7" x="141" y="81.94" width="17.59" height="6.19" rx=".67" ry=".67"/></g><path class="cls-2" d="M170.55,97.51v11.69h4.07c2.06,0,3.74,1.67,3.74,3.74v98.67c0,4.68-3.79,8.47-8.47,8.47h-5.27c4.68,0,8.47-3.79,8.47-8.47V112.94c0-2.06-1.67-3.74-3.74-3.74h-4.07v-11.69h3.13c2.58,0,4.68-2.1,4.68-4.68v-15.58c0-2.6-2.1-4.68-4.68-4.68h5.27c2.58,0,4.68,2.08,4.68,4.68v15.58c0,2.58-2.1,4.68-4.68,4.68h-3.13Z"/></g><g><path class="cls-2" d="M131,187.32v4.75c0,.59-.47,1.06-1.06,1.06H58.51c-.58,0-1.06-.47-1.06-1.06v-4.75h73.55Z"/><path class="cls-17" d="M138.52,181.51v4.75c0,.59-.48,1.06-1.06,1.06h-6.46v-5.81h7.52Z"/><rect class="cls-20" x="57.45" y="181.51" width="73.55" height="5.81"/><path class="cls-17" d="M57.45,181.51v5.81h-6.45c-.59,0-1.06-.47-1.06-1.06v-4.75h7.51Z"/></g><g><path class="cls-16" d="M39.58,158.16c4.61,1.86,26.74-15.45,20.37-15.28-6.36,.17-6.71,2.19-11,6.06-5.88,5.29-12.49,7.96-9.37,9.22Z"/><path class="cls-16" d="M33.85,178.21c7.17,2.89,41.54-24,31.65-23.73s-10.42,3.4-17.1,9.41c-9.13,8.22-19.41,12.36-14.56,14.32Z"/></g><path class="cls-16" d="M92.58,150.67c.32-.57,1.19-.18,.99,.45-.93,2.87-1.43,6.52,.39,9.44,2.73,4.39,1.44,10.55,.69,13.21-.14,.48-.8,.54-1.02,.09-1.26-2.59-4.03-8.78-4.03-13.17,0-3.47,1.34-7.12,2.97-10.02Z"/><path class="cls-16" d="M101.79,159.53c-.22-.41-.84-.15-.71,.3,.54,1.81,.78,4.03-.34,5.83-1.74,2.8-.96,6.72-.47,8.48,.1,.34,.56,.38,.72,.07,.83-1.72,2.57-5.66,2.57-8.46,0-2.14-.79-4.38-1.77-6.21Z"/><path class="cls-16" d="M87.08,175.3c.34,.31,.84-.15,.56-.52-1.13-1.52-2.11-3.52-1.68-5.6,.68-3.23-1.4-6.64-2.46-8.13-.21-.29-.66-.17-.7,.18-.19,1.9-.48,6.2,.48,8.83,.73,2.01,2.24,3.85,3.79,5.23Z"/></g></svg>