<?xml version="1.0" encoding="UTF-8"?><svg id="Camada_1" xmlns="http://www.w3.org/2000/svg" viewBox="0 0 230 230"><defs><style>.cls-1{opacity:.1;}.cls-2{fill:#f9941f;}.cls-3{fill:#667480;}.cls-4{fill:#cfdbe6;}.cls-5{fill:#8699a8;}</style></defs><g><rect class="cls-3" x="14.19" y="197.92" width="13.29" height="27.78" rx="1" ry="1"/><rect class="cls-3" x="202.51" y="197.92" width="13.29" height="27.78" rx="1" ry="1"/></g><path class="cls-4" d="M0,188.67H229.99v18.32c0,2.63-2.13,4.76-4.76,4.76H4.76C2.13,211.74,0,209.61,0,206.98v-18.32H0Z"/><path class="cls-3" d="M2.1,55.82H227.9c1.16,0,2.1,.94,2.1,2.1V188.67H0V57.92C0,56.76,.94,55.82,2.1,55.82Z"/><rect class="cls-2" x="16.9" y="96.8" width="196.19" height="77.06" rx="1.06" ry="1.06"/><path class="cls-1" d="M202.19,96.8h9.84c.58,0,1.06,.47,1.06,1.06v74.94c0,.58-.47,1.06-1.06,1.06h-9.84V96.8h0Z"/><rect class="cls-4" x="30.19" y="70.83" width="169.61" height="14.46" rx="2.89" ry="2.89"/><rect class="cls-5" x="10.97" y="39.38" width="208.05" height="16.44"/><rect class="cls-4" x="0" y="4.3" width="229.99" height="35.08" rx="2.63" ry="2.63"/><g><g><circle class="cls-5" cx="34.9" cy="21.84" r="7.1"/><circle class="cls-5" cx="70.48" cy="21.84" r="7.1"/><circle class="cls-5" cx="106.05" cy="21.84" r="7.1"/><circle class="cls-5" cx="141.62" cy="21.84" r="7.1"/></g><rect class="cls-5" x="177.45" y="17.48" width="24.74" height="8.71" rx=".67" ry=".67"/></g><path class="cls-1" d="M219.02,39.38v16.44h5.73c2.9,0,5.25,2.35,5.25,5.25V199.83c0,6.58-5.33,11.91-11.91,11.91h-7.41c6.58,0,11.91-5.33,11.91-11.91V61.07c0-2.9-2.35-5.25-5.25-5.25h-5.73v-16.44h4.4c3.63,0,6.58-2.95,6.58-6.58V10.88c0-3.65-2.95-6.58-6.58-6.58h7.41c3.63,0,6.58,2.93,6.58,6.58v21.92c0,3.63-2.95,6.58-6.58,6.58h-4.4Z"/></svg>