<?xml version="1.0" encoding="UTF-8"?><svg id="Camada_1" xmlns="http://www.w3.org/2000/svg" viewBox="0 0 230 230"><defs><style>.cls-1{opacity:.1;}.cls-2{fill:#f9941f;}.cls-3{fill:#667480;}.cls-4,.cls-5{fill:#cfdbe6;}.cls-6{fill:#1e1e1e;}.cls-7{fill:#8699a8;}.cls-8{fill:none;stroke:#667480;stroke-miterlimit:10;stroke-width:2px;}.cls-9,.cls-10{opacity:.2;}.cls-9,.cls-11,.cls-5,.cls-12{fill-rule:evenodd;}.cls-9,.cls-12{fill:#fff;}.cls-13{opacity:.15;}.cls-11{fill:#f96163;}</style></defs><path class="cls-12" d="M117.87,229.55c22.52-1.41,43.81-9.04,62.65-21,18.68-11.87,35.82-26.91,44.23-46.89,8.24-19.57,5.18-41.2,1.65-62.05-3.47-20.5-9.14-40.53-21.85-57.32-13.46-17.77-30.24-34.77-52.27-40.54-21.88-5.73-44.02,3.86-65.89,9.6-22.34,5.85-47.26,8.08-63.22,24.24C6.98,51.99,2.51,75.85,.45,98.38c-1.98,21.66,2.81,42.81,11.22,62.99,8.74,20.97,18.57,42.84,38.09,55.38,19.65,12.61,44.55,14.29,68.12,12.81Z"/><g><g><path class="cls-6" d="M158.59,34v4.85c0,.32,.08,.54,.24,.66,.16,.12,.41,.18,.74,.18,.17,0,.32-.01,.47-.04,.14-.02,.26-.05,.34-.07v-6.4c0-.3-.09-.53-.26-.71-.18-.18-.41-.26-.71-.26h-.4l-1.43,.53c-.51,.17-.77,.46-.77,.89,0,.22,.05,.4,.16,.53s.22,.23,.34,.3l1.27-.46Z"/><path class="cls-6" d="M166.24,39.54c.44-.17,.78-.42,1.03-.75s.37-.72,.37-1.18c0-.41-.08-.74-.25-1-.16-.26-.38-.47-.64-.62-.15-.09-.3-.14-.45-.21,.28-.12,.53-.28,.74-.48,.27-.28,.41-.65,.41-1.12,0-.64-.25-1.15-.74-1.52s-1.17-.56-2.03-.56c-.54,0-1.02,.08-1.43,.25s-.73,.41-.97,.72c-.23,.31-.35,.68-.35,1.12,0,.46,.15,.85,.44,1.15,.17,.17,.38,.31,.62,.43-.07,.03-.15,.06-.22,.1-.3,.17-.54,.4-.73,.68-.19,.28-.29,.63-.29,1.05,0,.46,.12,.85,.37,1.18,.24,.33,.59,.58,1.03,.76,.44,.18,.95,.26,1.54,.26s1.12-.09,1.56-.26Zm-2.28-5.86c.18-.15,.42-.22,.72-.22,.32,0,.57,.07,.75,.21,.18,.14,.27,.34,.27,.59,0,.28-.11,.5-.32,.66-.15,.11-.36,.2-.6,.28-.17-.03-.34-.07-.49-.12-.19-.07-.33-.17-.44-.31-.1-.13-.16-.3-.16-.5,0-.25,.09-.45,.26-.59Zm-.43,3.82c0-.3,.12-.56,.36-.78,.16-.14,.38-.25,.65-.33,.34,.06,.64,.15,.86,.29,.32,.21,.47,.48,.47,.82,0,.3-.11,.53-.33,.69-.22,.16-.51,.23-.86,.23s-.63-.08-.84-.25-.31-.39-.31-.68Z"/><path class="cls-6" d="M171.64,39.77c.61,0,1.15-.14,1.62-.43,.47-.28,.84-.71,1.11-1.28,.27-.57,.4-1.28,.4-2.12s-.14-1.54-.41-2.11c-.28-.57-.65-.99-1.12-1.28-.47-.28-1-.43-1.6-.43s-1.13,.14-1.6,.43-.84,.71-1.11,1.27c-.27,.56-.41,1.27-.41,2.12s.13,1.56,.4,2.12c.26,.57,.63,.99,1.1,1.28,.47,.28,1.01,.43,1.63,.43Zm-1.17-5.15c.11-.35,.26-.62,.46-.8,.2-.18,.43-.27,.7-.27s.51,.09,.71,.26c.2,.18,.36,.44,.47,.8,.11,.36,.17,.8,.17,1.33,0,.8-.12,1.4-.35,1.8-.23,.4-.56,.6-1,.6s-.74-.2-.97-.6c-.23-.4-.35-1-.35-1.8,0-.53,.05-.97,.16-1.32Z"/><path class="cls-6" d="M177.26,35.7c.36,0,.67-.07,.94-.22,.27-.14,.47-.35,.62-.62,.15-.27,.22-.58,.22-.95s-.07-.67-.22-.94c-.15-.27-.36-.48-.62-.62-.26-.15-.57-.22-.93-.22s-.67,.07-.93,.22c-.27,.15-.48,.35-.63,.62-.15,.27-.22,.58-.22,.94s.07,.69,.22,.96c.15,.27,.35,.47,.62,.62,.27,.14,.58,.21,.94,.21Zm-.52-2.5c.13-.17,.3-.25,.52-.25s.4,.08,.53,.26c.13,.17,.19,.41,.19,.71s-.06,.54-.19,.71-.3,.25-.53,.25-.4-.08-.52-.25-.19-.4-.19-.72,.06-.55,.19-.71Z"/><path class="cls-6" d="M181.64,39.38c.58,.28,1.22,.41,1.93,.41,.4,0,.74-.04,1.02-.11,.28-.07,.5-.15,.65-.23,.2-.1,.34-.21,.43-.35,.08-.14,.13-.28,.13-.44,0-.18-.04-.35-.11-.49-.08-.14-.17-.25-.29-.34-.21,.12-.44,.23-.68,.32-.25,.1-.54,.14-.89,.14-.67,0-1.2-.2-1.58-.6-.38-.4-.58-.98-.58-1.75,0-.5,.08-.93,.25-1.28,.16-.35,.4-.62,.71-.8,.31-.18,.68-.28,1.1-.28,.34,0,.64,.05,.89,.16,.25,.1,.48,.22,.68,.36,.12-.08,.23-.19,.32-.32,.1-.14,.14-.3,.14-.48,0-.22-.09-.43-.28-.61-.18-.18-.45-.32-.79-.43-.34-.11-.75-.16-1.22-.16-.68,0-1.3,.15-1.86,.44-.56,.3-1.01,.73-1.34,1.3-.33,.57-.5,1.27-.5,2.11,0,.88,.17,1.6,.5,2.17,.34,.56,.79,.98,1.37,1.26Z"/><path class="cls-6" d="M192.25,31.28c-.16-.12-.38-.18-.65-.18-.07,0-.16,0-.25,0-.1,0-.2,.01-.3,.03l-2.14,7.88c-.04,.14-.09,.31-.14,.51-.06,.2-.08,.39-.08,.57,0,.28,.08,.48,.24,.61s.38,.19,.67,.19c.08,0,.16,0,.25,0s.18-.01,.29-.03l2.14-7.88c.05-.18,.1-.37,.15-.55,.05-.18,.08-.37,.08-.56,0-.27-.08-.47-.25-.59Z"/><path class="cls-6" d="M161.74,50.53c-.19-.15-.39-.26-.62-.34,.18-.08,.36-.19,.52-.34,.16-.14,.29-.32,.4-.53,.1-.21,.16-.45,.16-.73,0-.64-.24-1.15-.72-1.52-.48-.37-1.16-.56-2.04-.56-.44,0-.83,.04-1.17,.13s-.6,.21-.79,.37c-.18,.16-.28,.36-.28,.6,0,.17,.04,.32,.13,.44s.19,.24,.31,.32c.17-.12,.38-.22,.64-.31s.56-.13,.89-.13c.4,0,.7,.07,.91,.22,.21,.15,.31,.35,.31,.59s-.08,.45-.25,.59c-.17,.14-.44,.2-.8,.2h-1.07c-.06,.07-.1,.17-.14,.29s-.05,.26-.05,.42,.02,.29,.05,.4,.08,.21,.14,.29h1.09c.43,0,.74,.08,.94,.23,.19,.15,.29,.36,.29,.64s-.12,.5-.35,.67c-.23,.17-.56,.25-1,.25s-.8-.06-1.07-.19c-.28-.13-.5-.25-.68-.37-.14,.07-.25,.18-.34,.32-.09,.14-.14,.31-.14,.5,0,.22,.1,.41,.29,.59,.19,.18,.47,.32,.83,.42,.36,.1,.81,.15,1.33,.15,.58,0,1.08-.09,1.52-.26,.44-.17,.78-.42,1.03-.76,.25-.33,.37-.73,.37-1.18,0-.34-.06-.63-.17-.87-.12-.24-.27-.43-.46-.58Z"/><path class="cls-6" d="M167.71,49.63c-.36-.2-.81-.31-1.36-.31-.25,0-.46,.02-.64,.06-.18,.04-.34,.08-.49,.13l.11-1.38h2.49c.2,0,.36-.06,.47-.18,.11-.12,.17-.31,.17-.56,0-.15-.02-.29-.06-.41s-.08-.22-.13-.29h-3.5c-.3,0-.54,.09-.71,.26-.17,.18-.26,.42-.29,.72l-.16,1.87c0,.1-.01,.17-.01,.23v.17c0,.35,.1,.62,.31,.79s.48,.27,.83,.29c.18-.09,.36-.16,.53-.22,.17-.06,.37-.09,.6-.09,.38,0,.66,.09,.85,.28,.19,.18,.29,.42,.29,.71s-.1,.55-.31,.75-.51,.31-.93,.31-.75-.07-1.02-.2c-.27-.14-.52-.28-.73-.44-.14,.06-.26,.17-.38,.31-.12,.14-.18,.32-.18,.52,0,.26,.1,.48,.31,.66,.2,.18,.49,.33,.85,.43,.36,.1,.79,.15,1.27,.15,.67,0,1.22-.11,1.66-.34,.43-.23,.75-.53,.96-.91,.21-.38,.31-.79,.31-1.24s-.09-.86-.28-1.22c-.19-.36-.46-.64-.82-.84Z"/><path class="cls-6" d="M173.05,49.21c-.33,0-.63,.06-.92,.17s-.51,.23-.67,.35c.08-.58,.27-1.03,.57-1.33,.3-.3,.71-.45,1.22-.45,.22,0,.44,.03,.67,.08,.23,.06,.45,.13,.65,.23,.1-.07,.19-.18,.26-.32,.07-.14,.1-.28,.1-.43,0-.22-.08-.41-.23-.55-.15-.14-.37-.25-.65-.32-.28-.07-.62-.11-1-.11-.48,0-.92,.08-1.33,.24s-.76,.4-1.06,.73c-.3,.33-.54,.75-.71,1.25-.17,.51-.25,1.11-.25,1.79,0,.79,.12,1.46,.37,2s.59,.95,1.04,1.22c.45,.27,.97,.41,1.57,.41s1.12-.11,1.52-.34c.41-.23,.72-.53,.94-.92s.32-.81,.32-1.27c0-.78-.22-1.39-.66-1.81-.44-.42-1.02-.63-1.75-.63Zm.37,3.25c-.17,.2-.41,.31-.73,.31-.34,0-.61-.12-.82-.37-.21-.24-.32-.61-.32-1.1v-.2c.11-.15,.27-.27,.48-.37,.21-.09,.42-.14,.65-.14,.3,0,.55,.09,.73,.28,.18,.18,.27,.44,.27,.78s-.09,.61-.26,.81Z"/><path class="cls-6" d="M178.85,46.76c-.26-.15-.57-.22-.93-.22s-.67,.07-.93,.22c-.27,.15-.48,.35-.63,.62-.15,.27-.22,.58-.22,.94s.07,.69,.22,.96c.15,.27,.35,.47,.62,.62,.27,.14,.58,.21,.94,.21s.67-.07,.94-.22c.27-.14,.47-.35,.62-.62,.15-.27,.22-.58,.22-.95s-.07-.67-.22-.94c-.15-.27-.36-.48-.62-.62Zm-.41,2.28c-.13,.17-.3,.25-.53,.25s-.4-.08-.52-.25-.19-.4-.19-.72,.06-.55,.19-.71c.13-.17,.3-.25,.52-.25s.4,.08,.53,.26c.13,.17,.19,.41,.19,.71s-.06,.54-.19,.71Z"/><path class="cls-6" d="M185.75,46.72h-4c-.3,0-.53,.09-.71,.26-.18,.17-.26,.41-.26,.71v5.53c0,.31,.07,.53,.22,.66,.15,.13,.4,.19,.76,.19,.17,0,.33,0,.49-.03,.16-.02,.28-.04,.35-.07v-2.7h2.28c.2,0,.36-.06,.47-.19,.12-.12,.17-.31,.17-.57,0-.14-.02-.28-.06-.4s-.08-.23-.13-.31h-2.75v-1.63h2.7c.2,0,.36-.06,.47-.19s.17-.31,.17-.57c0-.14-.02-.28-.06-.41s-.08-.23-.13-.3Z"/></g><g><g><path class="cls-3" d="M205.87,31.48c2.67,0,4.84,2.17,4.84,4.84V106.81c2.11,1.53,3.4,4.02,3.4,6.66,0,4.55-3.7,8.24-8.24,8.24-.28,0-.57-.01-.86-.04-2.98-.3-5.6-2.26-6.74-5.03-1.52-3.7-.19-7.69,2.77-9.83V36.32c0-2.67,2.17-4.84,4.84-4.84m0-2c-3.77,0-6.84,3.07-6.84,6.84V105.86c-3.21,2.87-4.29,7.47-2.61,11.55,1.41,3.43,4.7,5.88,8.39,6.26,.35,.04,.71,.05,1.07,.05,5.65,0,10.24-4.6,10.24-10.24,0-2.91-1.25-5.69-3.4-7.61V36.32c0-3.77-3.07-6.84-6.84-6.84h0Z"/><path class="cls-5" d="M212.71,114.15c-.3,3.17-2.86,5.78-6.03,6.15-4.15,.48-7.68-2.76-7.68-6.83,0-2.53,1.36-4.73,3.4-5.92V36.79c0-1.92,1.55-3.47,3.47-3.47h0c1.92,0,3.47,1.55,3.47,3.47V107.55c2.22,1.29,3.64,3.79,3.37,6.6Z"/><path class="cls-11" d="M212.74,113.47c0,3.8-3.08,6.87-6.87,6.87s-6.87-3.08-6.87-6.87c0-2.53,1.36-4.73,3.4-5.92v-16.82h6.94v16.82c2.04,1.19,3.4,3.39,3.4,5.92Z"/></g><line class="cls-8" x1="200.68" y1="80.63" x2="205.39" y2="80.63"/><line class="cls-8" x1="200.68" y1="69.64" x2="205.39" y2="69.64"/><line class="cls-8" x1="200.68" y1="58.66" x2="205.39" y2="58.66"/><line class="cls-8" x1="200.68" y1="47.68" x2="205.39" y2="47.68"/><line class="cls-8" x1="200.68" y1="36.69" x2="205.39" y2="36.69"/></g></g><g><g><g><rect class="cls-3" x="24.91" y="210.25" width="9.45" height="19.75" rx="1" ry="1"/><rect class="cls-3" x="158.82" y="210.25" width="9.45" height="19.75" rx="1" ry="1"/></g><path class="cls-4" d="M14.82,203.66H178.36v11.65c0,2.63-2.13,4.76-4.76,4.76H19.58c-2.63,0-4.76-2.13-4.76-4.76v-11.65h0Z"/><path class="cls-3" d="M16.91,109.2H176.26c1.16,0,2.1,.94,2.1,2.1v92.37H14.82V111.3c0-1.16,.94-2.1,2.1-2.1Z"/><rect class="cls-2" x="26.84" y="138.34" width="139.5" height="54.79" rx="1.06" ry="1.06"/><path class="cls-1" d="M158.59,138.34h6.69c.58,0,1.06,.47,1.06,1.06v52.67c0,.58-.47,1.06-1.06,1.06h-6.69v-54.79h0Z"/><rect class="cls-4" x="36.28" y="119.87" width="120.61" height="10.28" rx="2.89" ry="2.89"/><rect class="cls-7" x="22.62" y="97.51" width="147.93" height="11.69"/><rect class="cls-4" x="14.82" y="72.57" width="163.54" height="24.95" rx="2.63" ry="2.63"/><g><g><circle class="cls-7" cx="39.63" cy="85.04" r="5.05"/><circle class="cls-7" cx="64.93" cy="85.04" r="5.05"/><circle class="cls-7" cx="90.22" cy="85.04" r="5.05"/><circle class="cls-7" cx="115.52" cy="85.04" r="5.05"/></g><rect class="cls-7" x="141" y="81.94" width="17.59" height="6.19" rx=".67" ry=".67"/></g><path class="cls-1" d="M170.55,97.51v11.69h4.07c2.06,0,3.74,1.67,3.74,3.74v98.67c0,4.68-3.79,8.47-8.47,8.47h-5.27c4.68,0,8.47-3.79,8.47-8.47V112.94c0-2.06-1.67-3.74-3.74-3.74h-4.07v-11.69h3.13c2.58,0,4.68-2.1,4.68-4.68v-15.58c0-2.6-2.1-4.68-4.68-4.68h5.27c2.58,0,4.68,2.08,4.68,4.68v15.58c0,2.58-2.1,4.68-4.68,4.68h-3.13Z"/></g><g><path class="cls-1" d="M131,187.32v4.75c0,.59-.47,1.06-1.06,1.06H58.51c-.58,0-1.06-.47-1.06-1.06v-4.75h73.55Z"/><path class="cls-10" d="M138.52,181.51v4.75c0,.59-.48,1.06-1.06,1.06h-6.46v-5.81h7.52Z"/><rect class="cls-13" x="57.45" y="181.51" width="73.55" height="5.81"/><path class="cls-10" d="M57.45,181.51v5.81h-6.45c-.59,0-1.06-.47-1.06-1.06v-4.75h7.51Z"/></g><g><path class="cls-9" d="M39.58,158.16c4.61,1.86,26.74-15.45,20.37-15.28-6.36,.17-6.71,2.19-11,6.06-5.88,5.29-12.49,7.96-9.37,9.22Z"/><path class="cls-9" d="M33.85,178.21c7.17,2.89,41.54-24,31.65-23.73s-10.42,3.4-17.1,9.41c-9.13,8.22-19.41,12.36-14.56,14.32Z"/></g><path class="cls-9" d="M92.58,150.67c.32-.57,1.19-.18,.99,.45-.93,2.87-1.43,6.52,.39,9.44,2.73,4.39,1.44,10.55,.69,13.21-.14,.48-.8,.54-1.02,.09-1.26-2.59-4.03-8.78-4.03-13.17,0-3.47,1.34-7.12,2.97-10.02Z"/><path class="cls-9" d="M101.79,159.53c-.22-.41-.84-.15-.71,.3,.54,1.81,.78,4.03-.34,5.83-1.74,2.8-.96,6.72-.47,8.48,.1,.34,.56,.38,.72,.07,.83-1.72,2.57-5.66,2.57-8.46,0-2.14-.79-4.38-1.77-6.21Z"/><path class="cls-9" d="M87.08,175.3c.34,.31,.84-.15,.56-.52-1.13-1.52-2.11-3.52-1.68-5.6,.68-3.23-1.4-6.64-2.46-8.13-.21-.29-.66-.17-.7,.18-.19,1.9-.48,6.2,.48,8.83,.73,2.01,2.24,3.85,3.79,5.23Z"/></g></svg>