<?xml version="1.0" encoding="UTF-8"?><svg id="Camada_1" xmlns="http://www.w3.org/2000/svg" viewBox="0 0 1920 377.14"><defs><style>.cls-1{fill:#f96163;}.cls-2{fill:#fa9e9f;}</style></defs><g><path class="cls-1" d="M426.73,347.9c-8.38-.34-14.61-3.35-19.03-9.2-21.51-28.47-.04-117.74,17.21-189.47,15.31-63.65,28.53-118.62,18.15-142.04-.77-1.73-2.2-3.09-3.97-3.76-43.2-16.31-63.09,29.19-76.26,59.31-1.17,2.68-2.32,5.3-3.44,7.78-19.79,43.7-40.49,90.09-59.74,139.31,.02-19.6,2.24-44.33,4.41-68.55,5.72-63.83,11.12-124.14-13.31-139.4-1.09-.69-2.35-1.06-3.64-1.08-.19,0-.36,0-.55,0-53.16,0-78.07,120.11-98.09,216.67-7.22,34.85-13.47,64.95-19.38,79.74-.1,.25-.18,.51-.26,.76-5.86,21.45-10.63,28.96-12.76,31.44-2.42-4.28-5.88-17.35-5.21-40.75,1.84-23.36,10.17-49.63,22.65-71.72,3.7-5.78,4.5-11.8,2.24-16.93-2.33-5.28-7.47-8.86-14.5-10.08-2.21-.38-4.46,.3-6.08,1.83-31.75,30.07-57.64,102.09-42.18,146.46,8.08,23.16,26.14,36.61,52.84,38.91,43.04-.05,62.42-101.78,81.16-200.16,5.57-29.25,10.96-57.55,16.54-79.99-.75,12.78-1.94,27.3-3.11,41.61-7.48,91.47-11.01,162.58,16.51,176.81,11.11,5.74,24.59,1.79,41.2-12.12,1.58-1.33,2.51-3.28,2.54-5.34,.7-56.4,34.37-122.87,64.08-181.52,1.96-3.87,3.9-7.69,5.81-11.49-3.79,16.3-7.83,32.82-11.8,49.09-7.27,29.75-14.79,60.52-20.53,88.73-10.68,37.31-24.42,103.26,3.62,125.73,14.66,11.74,37.53,9.3,67.99-7.29,2.8-1.52,4.23-4.73,3.51-7.83-.72-3.1-3.43-5.34-6.61-5.47Z"/><path class="cls-1" d="M853.28,16.74c-8.56-7.19-22.47-5.75-43.8,4.55-2.41,1.16-3.96,3.59-4,6.26-.89,53.95-13.38,101.96-26.6,152.78-2.46,9.45-4.95,19.06-7.43,28.88-2.65,3.24-5.47,6.75-8.4,10.39-12.05,14.98-40.08,49.81-48.35,50.44-6.72-16.59-1-37.45,4.55-57.65,4.38-15.98,8.91-32.5,7.43-47.46-.31-3.12-2.63-5.67-5.71-6.26-2.29-.44-4.56-.54-6.8-.45,1.64-6.07,1.33-11.97-1.01-17.31-4.32-9.85-14.77-16.42-28.67-18.03-.41-.05-.83-.05-1.25-.03-27.83,1.71-55.06,23.24-80.98,64.04-7.12,11.4-12.53,23.26-16.09,35.28l-2.99,3.33c-6.69,7.47-15.87,17.69-18.53,19.17-.83,.4-1.58,.95-2.19,1.65-14.84,16.52-44.61,30.42-62.25,24.28-8.03-2.8-12.89-9.82-14.5-20.91,57.35-30.87,81.75-71.19,80.4-98-.62-12.33-6.78-21.69-16.92-25.69-19.26-7.63-48.19,5.35-79.36,35.53-.4,.39-.75,.82-1.05,1.29-37.42,58.88-41.6,108.54-11.2,132.83,10.86,8.68,24.61,12.84,39.79,12.84,26.93,0,58.36-13.09,86.09-37.21,4.04,17.25,13.97,29.5,27.96,33.79,11.83,3.63,35.08,3.84,65.05-30.04,3.52,16.79,10.5,26.63,21.15,29.94,17.93,5.58,39.97-10.68,59.17-30.79-.69,3.61-1.36,7.17-1.99,10.71-.18,1.02-.14,2.08,.13,3.08,2.2,8.27,8.68,14.84,17.33,17.57,8.32,2.62,17,1.07,23.22-4.15,1.16-.97,1.97-2.28,2.33-3.74l7.94-32.52c14.16-58.02,26.39-108.13,38.87-157.21,1.58-7.56,4-16.09,6.57-25.11,8.01-28.16,15.58-54.76,2.11-66.08Zm-224.17,233.81c-1.65-26.67,27.8-74.93,41.26-87.3-.25,2.47-.83,6.05-2.09,11.17-.58,2.36,.08,4.85,1.77,6.6,1.68,1.75,4.13,2.52,6.53,2.03l1.93-.39c1.7-.35,3.41-.69,5.13-1.06-.79,9.31-3.83,20.95-6.6,31.53-1.64,6.28-3.2,12.23-4.26,17.52-7.48,13.99-21.83,28.88-35.77,31.57-3.76-.93-7.37-3.34-7.89-11.68Zm-108.09-88.41c2.41,2.27,2.77,4.25,2.81,5.65,.22,10.82-18.28,26.79-32.89,37.9,6.98-23.62,17.06-38.22,30.08-43.55Z"/></g><g><path class="cls-2" d="M1503.91,78.36c10.21,0,22.37-7.6,25.05-20.35,2.74-13.31-.14-20.34-3.04-23.9-2.79-3.42-6.92-5.3-11.64-5.3-6.2,0-13.09,3.23-18.41,8.64-6.29,6.38-9.67,14.8-9.51,24.06,1.23,10.39,7.95,16.85,17.56,16.85Z"/><path class="cls-2" d="M1811.55,240.84c-1.56-16.7-9.38-31.67-16.94-46.15-7.54-14.43-15.33-29.34-16.71-45.79,15.62-18.48,15.89-29.08,13.3-34.74-2.46-5.38-8.19-8.35-16.11-8.35-15.76,0-41.09,12.88-47.46,36.5-2.69,5.73-.48,10.91,1.31,15.08,.84,1.97,1.64,3.84,1.68,5.22-3.13,6.2-8.03,13.09-13.21,20.37-4.24,5.97-8.63,12.14-12.18,18.18-4.99,5.14-10.32,11.08-15.48,16.83-7.81,8.7-16.66,18.57-19.66,20.02l-.63,.3-.46,.52c-13.79,15.35-37.55,26.92-55.26,26.92-16.48,0-26.1-9.63-27.93-27.91,60.22-31.74,86.09-76.04,79.8-101.96-2.82-11.63-11.69-18.3-24.34-18.3-17.54,0-40.65,13.02-65.06,36.65l-.3,.29-.22,.35c-11.86,18.61-20.43,36.32-25.46,52.65-3.89,4.29-7.94,8.89-12,13.49-11.48,13.03-28.83,32.71-33.45,33.24l-.79,.1-.67,.42c-9.34,5.79-14.65,7.01-17.47,7.01h0c-2.79,0-3.96-1.15-4.67-2.15-8.28-11.67,8.49-59.51,18.51-88.09,4.64-13.24,8.35-23.82,9.4-29.51,2.12-3.62,2.5-6.72,1.12-9.23-1.51-2.74-4.77-4.13-9.71-4.13-9.42,0-25.97,5.34-30.07,8.96l-.59,.52-.31,.71c-9.9,22.52-16.87,44.06-20.73,64.03l-.33,.51c-1.37,1.77-3.11,4.1-5.14,6.83-13.29,17.88-44.42,59.74-63.98,59.74h0c-4.75,0-8.55-2.72-11.58-8.31,.42-12.63,8.53-23.91,17.1-35.86,11.46-15.97,23.31-32.48,15.74-52.25-4.26-20.86-15.26-23.73-26.5-23.73-1.72,0-3.49,.06-5.29,.12-1.79,.06-3.6,.12-5.43,.12-2.43,0-5.37-.1-8.4-.69,6.18-11.04,5.27-25.98,.71-35.76-4.09-8.77-10.93-13.8-18.77-13.8-5.2,0-10.63,2.16-16.46,6.71-10.92,10.77-23.33,28.63-22.36,43.51,.33,5.16,2.19,9.6,5.53,13.28-17.51,13.06-37.17,27.71-57.53,36.14,.18-25.08-5.98-44.8-17.95-57.28-8.71-9.09-20.06-13.89-32.83-13.89-32.05,0-68.69,31.28-74.47,83.3-.77,3.7-1.33,7.24-1.78,10.69-22.29,29.28-43.16,48.15-53.29,48.15-1.62,0-2.74-.54-3.62-1.76-2.4-3.33-6.24-16.37,10.1-65.9,6.15-26.16,4.7-45.92-4.2-57.16-5.25-6.63-12.92-10.13-22.19-10.13-18.94,0-42,14.51-59.08,36.39,.21-13.07-2.41-22.78-7.84-28.96-4.41-5.02-10.44-7.57-17.92-7.57-18.35,0-41.75,15.48-57.94,33.36,1.72-9.67,.96-16.49-2.25-20.97-1.79-2.48-5.29-5.43-11.87-5.43s-14.81,2.72-25.63,8.32l-2.37,1.23,.53,2.62c2.16,10.71-9.55,57.81-17.3,88.99-4.14,16.66-7.41,29.83-8.28,35.6-2.21,8.88-1.83,15.08,1.2,18.95,1.45,1.85,4.26,4.06,9.41,4.06,8.23,0,19.02-5.49,27.07-9.59l1.5-.76,.36-1.64c.48-2.2,.89-4.46,1.3-6.73,.62-3.45,1.27-7,2.18-10.28l.22,.02c11.27-45.38,28.72-97.48,63.99-97.48,1.08,0,2.17,.05,3.29,.15,6.46,11.14-2.45,38.63-10.34,62.98-8.15,25.15-15.2,46.87-8.32,56.32,1.54,2.12,4.56,4.66,10.16,4.66s12.68-2.37,22.09-7.23l1.68-.87,.21-1.88c3.93-34.43,31.69-112.71,62.7-112.71,2.57,0,5.18,.55,7.77,1.64,1.44,14.08-2.86,29.56-7.39,45.91-4.41,15.9-8.97,32.34-7.91,47.79l.03,.42,.13,.4c8,25.37,22.68,30.7,33.59,30.7,25.99,0,54.74-28.08,69.63-44.91,6.3,24.96,24.44,40.15,48.7,40.15,27.87,0,62.36-21.95,73.02-70.08,8.6-3.49,26.49-13.22,42.95-24.34-30.21,58.07-39.04,80.75-34.67,87.98,1.08,1.79,2.95,2.82,5.12,2.82,3.18,0,7.2-2.14,13.05-6.93l.45-.37,.3-.48c12.5-19.86,26.32-43.55,39.69-66.47,8.71-14.93,17.26-29.6,25.21-42.78,5.12,1.86,10.83,2.8,17.01,2.8,2.92,0,5.9-.21,8.88-.64,8.43,7.33,.06,21.95-12.58,41.59-6.88,10.68-13.38,20.77-14.91,29.36-1.76,20.05,1.24,34.48,8.93,42.87,5.05,5.51,11.92,8.31,20.4,8.31,27.18,0,65.94-29.33,83.91-56.29,1.49,15.74,6.29,28,14.11,35.85,6.09,6.12,13.97,9.36,22.79,9.36,18.67,0,40.48-13.57,63.37-39.35,4.96,26.47,25.55,42.57,55.4,42.57,33.02,0,82.08-20.85,120.36-78.91,6.88-7.45,14.28-19.26,20.23-28.75,2.24-3.58,4.42-7.05,6.27-9.81,2.22,6.76,5.9,14.93,9.97,23.98,9.62,21.37,21.59,47.96,14.28,59.29-2.68,4.14-8.01,6.15-16.31,6.15,0,0-.92,0-1.38-.01-5.94-7.55-9.03-16.21-12.89-27.02l-3.3-9.12-3.3,1.16c-30.32,10.7-30.75,28.48-29.53,35.63,2.92,17.04,22.58,30.9,43.83,30.9h.01c12.69,0,44.09-5.47,61.56-56.08l.25-.72-.07-.76Zm-222.71-36.14c7.57-31.81,19.91-50.78,36.78-56.45,3.73,2.79,5.58,5.95,5.66,9.62,.3,14.79-26.76,35.52-42.44,46.83Zm-391.89,35.59c1.7,0,3.41-.09,5.13-.28-6.28,18.23-21.08,29.29-32.44,29.29-4.34,0-7.98-1.54-10.83-4.59-5.03-5.38-7.22-15.05-6.35-28.25-.08-6.63,1.11-13.6,2.71-20.5,9.21,15.03,24.78,24.32,41.77,24.32Zm13.75-30.97c-2.61,.57-5.17,.86-7.62,.86-8.7,0-16.32-3.7-21.45-10.41-6.07-7.93-8.02-19.11-5.27-30.04,7.31-8.93,14.17-13.63,19.87-13.63,3.74,0,7.09,2.08,9.96,6.18,7.44,10.64,9.38,31.73,4.51,47.03Z"/></g></svg>