<?xml version="1.0" encoding="UTF-8"?><svg id="Camada_1" xmlns="http://www.w3.org/2000/svg" viewBox="0 0 532.26 117.86"><defs><style>.cls-1{fill:#f96163;}.cls-2{fill:#fa9e9f;}</style></defs><g><path class="cls-1" d="M99.48,108.72c-2.62-.11-4.56-1.05-5.95-2.87-6.72-8.9-.01-36.79,5.38-59.21,4.78-19.89,8.91-37.07,5.67-44.39-.24-.54-.69-.96-1.24-1.17-13.5-5.1-19.72,9.12-23.83,18.53-.37,.84-.72,1.66-1.07,2.43-6.18,13.66-12.65,28.15-18.67,43.53,0-6.13,.7-13.85,1.38-21.42,1.79-19.95,3.48-38.79-4.16-43.56-.34-.21-.74-.33-1.14-.34-.06,0-.11,0-.17,0C39.07,.25,31.28,37.78,25.03,67.96c-2.26,10.89-4.21,20.3-6.06,24.92-.03,.08-.06,.16-.08,.24-1.83,6.7-3.32,9.05-3.99,9.83-.76-1.34-1.84-5.42-1.63-12.73,.57-7.3,3.18-15.51,7.08-22.41,1.16-1.81,1.41-3.69,.7-5.29-.73-1.65-2.34-2.77-4.53-3.15-.69-.12-1.39,.09-1.9,.57C4.7,69.32-3.4,91.83,1.44,105.7c2.52,7.24,8.17,11.44,16.51,12.16,13.45-.02,19.51-31.81,25.36-62.55,1.74-9.14,3.43-17.98,5.17-25-.24,3.99-.61,8.53-.97,13-2.34,28.58-3.44,50.81,5.16,55.25,3.47,1.79,7.69,.56,12.87-3.79,.5-.42,.78-1.02,.79-1.67,.22-17.63,10.74-38.4,20.02-56.73,.61-1.21,1.22-2.4,1.82-3.59-1.18,5.09-2.45,10.26-3.69,15.34-2.27,9.3-4.62,18.91-6.42,27.73-3.34,11.66-7.63,32.27,1.13,39.29,4.58,3.67,11.73,2.91,21.25-2.28,.87-.48,1.32-1.48,1.1-2.45-.23-.97-1.07-1.67-2.07-1.71Z"/><path class="cls-1" d="M232.78,5.23c-2.67-2.25-7.02-1.8-13.69,1.42-.75,.36-1.24,1.12-1.25,1.96-.28,16.86-4.18,31.86-8.31,47.74-.77,2.95-1.55,5.96-2.32,9.03-.83,1.01-1.71,2.11-2.63,3.25-3.77,4.68-12.52,15.56-15.11,15.76-2.1-5.18-.31-11.7,1.42-18.01,1.37-4.99,2.79-10.16,2.32-14.83-.1-.98-.82-1.77-1.79-1.96-.72-.14-1.43-.17-2.12-.14,.51-1.9,.42-3.74-.32-5.41-1.35-3.08-4.61-5.13-8.96-5.64-.13-.02-.26-.02-.39-.01-8.7,.53-17.21,7.26-25.31,20.01-2.23,3.56-3.92,7.27-5.03,11.03l-.94,1.04c-2.09,2.33-4.96,5.53-5.79,5.99-.26,.13-.49,.3-.69,.51-4.64,5.16-13.94,9.51-19.45,7.59-2.51-.87-4.03-3.07-4.53-6.53,17.92-9.65,25.55-22.25,25.13-30.62-.19-3.85-2.12-6.78-5.29-8.03-6.02-2.38-15.06,1.67-24.8,11.1-.12,.12-.23,.26-.33,.4-11.69,18.4-13,33.92-3.5,41.51,3.39,2.71,7.69,4.01,12.43,4.01,8.42,0,18.24-4.09,26.9-11.63,1.26,5.39,4.37,9.22,8.74,10.56,3.7,1.14,10.96,1.2,20.33-9.39,1.1,5.25,3.28,8.32,6.61,9.36,5.6,1.75,12.49-3.34,18.49-9.62-.22,1.13-.42,2.24-.62,3.35-.06,.32-.04,.65,.04,.96,.69,2.58,2.71,4.64,5.42,5.49,2.6,.82,5.31,.34,7.26-1.3,.36-.3,.62-.71,.73-1.17l2.48-10.16c4.43-18.13,8.25-33.79,12.15-49.13,.49-2.36,1.25-5.03,2.05-7.85,2.5-8.8,4.87-17.11,.66-20.65Zm-70.05,73.06c-.52-8.33,8.69-23.41,12.89-27.28-.08,.77-.26,1.89-.65,3.49-.18,.74,.03,1.52,.55,2.06,.53,.55,1.29,.79,2.04,.64l.6-.12c.53-.11,1.07-.22,1.6-.33-.25,2.91-1.2,6.55-2.06,9.85-.51,1.96-1,3.82-1.33,5.48-2.34,4.37-6.82,9.03-11.18,9.87-1.18-.29-2.3-1.04-2.47-3.65Zm-33.78-27.63c.75,.71,.87,1.33,.88,1.77,.07,3.38-5.71,8.37-10.28,11.84,2.18-7.38,5.33-11.95,9.4-13.61Z"/></g><g><path class="cls-2" d="M436.1,24.49c3.19,0,6.99-2.38,7.83-6.36,.86-4.16-.04-6.36-.95-7.47-.87-1.07-2.16-1.66-3.64-1.66-1.94,0-4.09,1.01-5.75,2.7-1.96,1.99-3.02,4.63-2.97,7.52,.38,3.25,2.49,5.27,5.49,5.27Z"/><path class="cls-2" d="M532.24,75.26c-.49-5.22-2.93-9.9-5.29-14.42-2.36-4.51-4.79-9.17-5.22-14.31,4.88-5.78,4.96-9.09,4.16-10.86-.77-1.68-2.56-2.61-5.04-2.61-4.92,0-12.84,4.03-14.83,11.41-.84,1.79-.15,3.41,.41,4.71,.26,.62,.51,1.2,.52,1.63-.98,1.94-2.51,4.09-4.13,6.37-1.33,1.87-2.7,3.79-3.81,5.68-1.56,1.61-3.23,3.46-4.84,5.26-2.44,2.72-5.21,5.8-6.14,6.26l-.2,.1-.14,.16c-4.31,4.8-11.74,8.41-17.27,8.41-5.15,0-8.16-3.01-8.73-8.72,18.82-9.92,26.9-23.76,24.94-31.86-.88-3.63-3.65-5.72-7.61-5.72-5.48,0-12.7,4.07-20.33,11.45l-.09,.09-.07,.11c-3.71,5.82-6.38,11.35-7.96,16.45-1.22,1.34-2.48,2.78-3.75,4.21-3.59,4.07-9.01,10.22-10.45,10.39l-.25,.03-.21,.13c-2.92,1.81-4.58,2.19-5.46,2.19h0c-.87,0-1.24-.36-1.46-.67-2.59-3.65,2.65-18.6,5.78-27.53,1.45-4.14,2.61-7.44,2.94-9.22,.66-1.13,.78-2.1,.35-2.88-.47-.86-1.49-1.29-3.03-1.29-2.94,0-8.12,1.67-9.4,2.8l-.18,.16-.1,.22c-3.09,7.04-5.27,13.77-6.48,20.01l-.1,.16c-.43,.55-.97,1.28-1.61,2.13-4.15,5.59-13.88,18.67-19.99,18.67h0c-1.49,0-2.67-.85-3.62-2.6,.13-3.95,2.66-7.47,5.34-11.21,3.58-4.99,7.29-10.15,4.92-16.33-1.33-6.52-4.77-7.41-8.28-7.41-.54,0-1.09,.02-1.65,.04-.56,.02-1.12,.04-1.7,.04-.76,0-1.68-.03-2.63-.21,1.93-3.45,1.65-8.12,.22-11.18-1.28-2.74-3.41-4.31-5.86-4.31-1.63,0-3.32,.67-5.14,2.1-3.41,3.37-7.29,8.95-6.99,13.6,.1,1.61,.68,3,1.73,4.15-5.47,4.08-11.62,8.66-17.98,11.29,.06-7.84-1.87-14-5.61-17.9-2.72-2.84-6.27-4.34-10.26-4.34-10.02,0-21.47,9.77-23.27,26.03-.24,1.16-.42,2.26-.56,3.34-6.97,9.15-13.49,15.05-16.65,15.05-.51,0-.86-.17-1.13-.55-.75-1.04-1.95-5.12,3.16-20.59,1.92-8.17,1.47-14.35-1.31-17.86-1.64-2.07-4.04-3.17-6.93-3.17-5.92,0-13.12,4.53-18.46,11.37,.07-4.08-.75-7.12-2.45-9.05-1.38-1.57-3.26-2.37-5.6-2.37-5.73,0-13.05,4.84-18.11,10.42,.54-3.02,.3-5.15-.7-6.55-.56-.77-1.65-1.7-3.71-1.7s-4.63,.85-8.01,2.6l-.74,.38,.16,.82c.67,3.35-2.99,18.07-5.41,27.81-1.29,5.21-2.32,9.32-2.59,11.13-.69,2.77-.57,4.71,.37,5.92,.45,.58,1.33,1.27,2.94,1.27,2.57,0,5.94-1.71,8.46-3l.47-.24,.11-.51c.15-.69,.28-1.39,.41-2.1,.19-1.08,.4-2.19,.68-3.21h.07c3.52-14.17,8.97-30.46,20-30.46,.34,0,.68,.02,1.03,.05,2.02,3.48-.77,12.07-3.23,19.68-2.55,7.86-4.75,14.65-2.6,17.6,.48,.66,1.43,1.46,3.17,1.46s3.96-.74,6.9-2.26l.53-.27,.07-.59c1.23-10.76,9.9-35.22,19.59-35.22,.8,0,1.62,.17,2.43,.51,.45,4.4-.89,9.24-2.31,14.35-1.38,4.97-2.8,10.11-2.47,14.94v.13s.05,.13,.05,.13c2.5,7.93,7.09,9.59,10.5,9.59,8.12,0,17.11-8.78,21.76-14.03,1.97,7.8,7.64,12.55,15.22,12.55,8.71,0,19.49-6.86,22.82-21.9,2.69-1.09,8.28-4.13,13.42-7.61-9.44,18.15-12.2,25.24-10.84,27.49,.34,.56,.92,.88,1.6,.88,.99,0,2.25-.67,4.08-2.16l.14-.11,.1-.15c3.91-6.21,8.23-13.61,12.4-20.77,2.72-4.66,5.4-9.25,7.88-13.37,1.6,.58,3.38,.88,5.31,.88,.91,0,1.84-.07,2.78-.2,2.63,2.29,.02,6.86-3.93,13-2.15,3.34-4.18,6.49-4.66,9.18-.55,6.27,.39,10.78,2.79,13.4,1.58,1.72,3.72,2.6,6.37,2.6,8.49,0,20.61-9.17,26.22-17.59,.47,4.92,1.97,8.75,4.41,11.2,1.9,1.91,4.36,2.92,7.12,2.92,5.83,0,12.65-4.24,19.8-12.3,1.55,8.27,7.98,13.3,17.31,13.3,10.32,0,25.65-6.52,37.61-24.66,2.15-2.33,4.46-6.02,6.32-8.98,.7-1.12,1.38-2.2,1.96-3.06,.7,2.11,1.84,4.66,3.12,7.49,3.01,6.68,6.75,14.99,4.46,18.53-.84,1.29-2.5,1.92-5.1,1.92,0,0-.29,0-.43,0-1.86-2.36-2.82-5.06-4.03-8.44l-1.03-2.85-1.03,.36c-9.48,3.34-9.61,8.9-9.23,11.13,.91,5.32,7.06,9.66,13.7,9.66h0c3.97,0,13.78-1.71,19.24-17.52l.08-.22-.02-.24Zm-69.6-11.29c2.37-9.94,6.22-15.87,11.49-17.64,1.17,.87,1.75,1.86,1.77,3.01,.1,4.62-8.36,11.1-13.26,14.64Zm-122.47,11.12c.53,0,1.07-.03,1.6-.09-1.96,5.7-6.59,9.15-10.14,9.15-1.36,0-2.49-.48-3.38-1.43-1.57-1.68-2.26-4.7-1.98-8.83-.02-2.07,.35-4.25,.85-6.41,2.88,4.7,7.74,7.6,13.05,7.6Zm4.3-9.68c-.82,.18-1.61,.27-2.38,.27-2.72,0-5.1-1.15-6.7-3.25-1.9-2.48-2.51-5.97-1.65-9.39,2.28-2.79,4.43-4.26,6.21-4.26,1.17,0,2.22,.65,3.11,1.93,2.32,3.32,2.93,9.91,1.41,14.7Z"/></g></svg>