<svg width="32" height="32" viewBox="0 0 32 32" fill="none" xmlns="http://www.w3.org/2000/svg">
<g clip-path="url(#clip0_516_10346)">
<path d="M5.07591 31.9999H4.36224C1.95879 31.9999 0.00195312 30.043 0.00195312 27.6396V24.0068C0.00195312 21.6033 1.95879 19.6465 4.36224 19.6465H5.07591C7.47936 19.6465 9.4362 21.6033 9.4362 24.0068V27.6396C9.4362 30.043 7.47936 31.9999 5.07591 31.9999Z" fill="#F96163"/>
<path d="M16.3564 32.0001H15.6428C13.2393 32.0001 11.2825 30.0432 11.2825 27.6398V14.186C11.2825 11.7825 13.2393 9.82568 15.6428 9.82568H16.3564C18.7599 9.82568 20.7167 11.7825 20.7167 14.186V27.6352C20.7167 30.0386 18.7599 31.9955 16.3564 31.9955V32.0001Z" fill="#F96163"/>
<path d="M27.6369 32H26.9233C24.5198 32 22.563 30.0432 22.563 27.6397V4.36029C22.563 1.95683 24.5198 0 26.9233 0H27.6369C30.0404 0 31.9972 1.95683 31.9972 4.36029V27.6397C31.9972 30.0432 30.0404 32 27.6369 32Z" fill="#F96163"/>
</g>
<defs>
<clipPath id="clip0_516_10346">
<rect width="32" height="32" fill="white"/>
</clipPath>
</defs>
</svg>
