<?xml version="1.0" encoding="UTF-8"?><svg id="Camada_1" xmlns="http://www.w3.org/2000/svg" xmlns:xlink="http://www.w3.org/1999/xlink" viewBox="0 0 1024 1024"><defs><style>.cls-1{fill:none;}.cls-2{clip-path:url(#clippath);}.cls-3{fill:#f96163;}.cls-4{fill:#fa9e9f;}.cls-5{fill:#fff;}.cls-6{opacity:.2;}.cls-7{opacity:.6;}</style><clipPath id="clippath"><circle class="cls-1" cx="512" cy="512" r="512"/></clipPath></defs><circle class="cls-3" cx="512" cy="512" r="512"/><g class="cls-2"><rect class="cls-5" x="0" y="0" width="1023.99" height="1023.99"/><g><g class="cls-7"><path class="cls-3" d="M585.37,0h0s-22.5-.01-22.5-.01h0c1.53,3.12,2.38,6.6,2.38,10.28,0,12.9-10.49,23.4-23.39,23.4s-23.4-10.5-23.4-23.4c0-3.68,.86-7.16,2.38-10.27h0s-22.5-.01-22.5-.01h0c-.79,3.31-1.2,6.74-1.2,10.28,0,24.66,20.06,44.72,44.72,44.72s44.71-20.06,44.71-44.72c0-3.54-.41-6.97-1.2-10.27Z"/><path class="cls-3" d="M317.71,339.77c10.16-11.84,18.82-25.49,28.73-36.17,2.38-2.25,5.22-5.4,7.2-5.17-.28,.64-1.14,.73-1.8,.99-.95,.23-1.72,.08-2.57,.01-.31-.17-.26,0-.26,.07,.44,.62,1.18,1.38,2.1,2.42,14.73,18.16,38.81,30.85,62.6,24.54,20.03-4.97,34.59-24.03,33.49-43.61,0,0-1.97-.82-1.97-.82-3.16,7.04-7.69,13.46-13.53,18.32-18.51,16.67-45.14,9.4-60.46-7.9-9.22-10.63-19.19-19.62-31.95-7.48-13.69,14.89-19.01,35.33-23.67,54.31,0,0,2.08,.48,2.08,.48h0Z"/><path class="cls-3" d="M586.53,139c-4.25-9-13.24-14.1-23.13-14.94-23.56-1.72-44.54,19.58-42.59,43.14,.27,4.76,2.75,16.83,9.49,14.82,0,0,.18-2.13,.18-2.13-.36-.07-.62-1.56-.11-2.99,4.23-10.29,11.87-20.1,19.49-27.95,9.37-8.96,23.48-12.17,35.78-8.02,0,0,.88-1.94,.88-1.94h0Z"/><path class="cls-3" d="M10.23,149.8c24.13-21.25,34.22-45.27,35.68-75.58,1.06-15.85,4.64-31.53,7.75-46.94,.31-1.42,.52-2.87,.59-3.99,.11-1.16,.3-2.43-1.12-3.24l-1.1-1.83c12.73-3.85,13.85,28.08,14.47,36.05,1.96,27.06-.58,56.85-20.52,77.28-9.5,10.09-21.85,17.25-35.34,20.34l-.42-2.09h0Z"/><path class="cls-3" d="M309.14,57.42c-.5-14.5-10.35-35.92-14.87-49.68l-20.47,18.09c-.74,.62-.6,.63-1.1,1.08-5.1,5.54-8.86,11.96-11.6,18.97-1.98,4.36-4.16,9.49-3.62,16.43,.23,5.88,4.91,12.43,11.26,11.84,.59-.07,.51-.13,1.33-.05,10.02,9.33,25.17,10.65,38.19,12.17,.1-5.76,1.55-23.36,.88-28.85Zm-16.45,12.73c-.21-.68-.42-1.36-.63-2.04-7.12,1.16-14.27,2.46-21.54,3.86,.08,.05,.18,.07-.12,.02,.04-.01,.08-.02,.12-.02t-.02-.02l-.23-.16c-5.77-4.18-1.4-11.18,2.62-15.21,3.38-3.46,8.11-8.6,12.03-12.43-.32-1.09-.63-2.19-.94-3.28l3.34,1.01c-.75,.67-1.55,1.44-2.4,2.27,2.28,8.01,4.69,15.99,7.14,23.96,.73-.13,1.45-.24,2.18-.36l-1.55,2.4Z"/><path class="cls-3" d="M825.08,327.42c13.21-6.38,17.15-11.83,24.43-20.57,6.78-8.39,16.49-15.29,27.57-16.86,1.11-.03,2.86,.07,3.16-1.52,0,0,.18-2.12,.18-2.12,7.27,2.38-1.63,15.99-3.88,19.96-10.67,18.82-30.55,32.88-52.34,23.05,0,0,.88-1.94,.88-1.94h0Z"/><path class="cls-3" d="M972.65,57.42c-.5-14.5-10.35-35.92-14.87-49.68l-20.47,18.09c-.74,.62-.6,.63-1.1,1.08-5.1,5.54-8.86,11.96-11.59,18.97-1.99,4.36-4.17,9.49-3.63,16.43,.23,5.88,4.91,12.43,11.26,11.84,.59-.07,.51-.13,1.33-.05,10.02,9.33,25.17,10.65,38.19,12.17,.1-5.76,1.55-23.36,.88-28.85Zm-16.45,12.73c-.21-.68-.42-1.36-.63-2.04-7.12,1.16-14.27,2.46-21.54,3.86,.08,.05,.18,.07-.12,.02,.04-.01,.08-.02,.12-.02t-.02-.02l-.23-.16c-5.77-4.18-1.4-11.18,2.62-15.21,3.38-3.46,8.11-8.6,12.03-12.43-.32-1.09-.63-2.19-.94-3.28l3.34,1.01c-.75,.67-1.55,1.44-2.4,2.27,2.28,8.01,4.69,15.99,7.14,23.96,.73-.13,1.45-.24,2.18-.36l-1.55,2.4Z"/><path class="cls-3" d="M92.25,522.48c11.84,10.16,25.49,18.82,36.17,28.73,2.25,2.38,5.4,5.22,5.17,7.2-.64-.28-.73-1.14-.99-1.8-.23-.95-.08-1.72-.01-2.57,.17-.31,0-.26-.07-.26-.62,.44-1.38,1.18-2.42,2.1-18.16,14.73-30.85,38.81-24.54,62.6,4.97,20.03,24.03,34.59,43.61,33.49,0,0,.82-1.97,.82-1.97-7.04-3.16-13.46-7.69-18.32-13.53-16.67-18.51-9.4-45.14,7.9-60.46,10.63-9.22,19.62-19.19,7.48-31.95-14.89-13.69-35.33-19.01-54.31-23.67,0,0-.48,2.08-.48,2.08h0Z"/><path class="cls-3" d="M1024,840.08v20.57c-11.98-.38-24.11,.35-35.77,1.95-4.15,.94-15.24,2.33-14.48,7.92l-1.83,1.1c-4.63-4.07,.33-10.99,3.54-14.08,13.41-11.26,30.94-16.58,48.54-17.46Z"/><path class="cls-3" d="M909.8,801.52c9-4.25,14.1-13.24,14.94-23.13,1.72-23.56-19.58-44.54-43.14-42.59-4.76,.27-16.83,2.75-14.82,9.49,0,0,2.13,.18,2.13,.18,.07-.36,1.56-.62,2.99-.11,10.29,4.23,20.1,11.87,27.95,19.49,8.96,9.37,12.17,23.48,8.02,35.78,0,0,1.94,.88,1.94,.88h0Z"/><path class="cls-3" d="M926.93,561.06c-25.37,4.87-63.73,.56-74.86-27.18-5.04-13.69,2.32-28.88,12.89-37.49,5.18-4.77,10.03-9.92,13.79-15.81,10.71-16.39,3.97-34.64-9.07-49.11,0,0,.82-1.97,.82-1.97,39.46,15.95,38.96,58.1,8.11,83.09-23.03,18.29,11.03,33.34,26.56,39.12,7.26,2.82,14.72,5.27,22.25,7.28l-.48,2.08h0Z"/><path class="cls-3" d="M1024,269.09v7.53c-9.03,3.86-24.29,4.47-29.46,4.88-27.07,1.96-56.86-.58-77.28-20.52-10.09-9.5-17.26-21.85-20.34-35.34l2.09-.42c21.25,24.13,45.27,34.22,75.57,35.68,15.86,1.06,31.53,4.64,46.95,7.76,.84,.18,1.69,.33,2.47,.43Z"/><path class="cls-3" d="M541.86,928.42c-24.66,0-44.72,20.06-44.72,44.71s20.06,44.72,44.72,44.72,44.71-20.06,44.71-44.72-20.06-44.71-44.71-44.71Zm0,68.11c-12.9,0-23.4-10.5-23.4-23.4s10.5-23.39,23.4-23.39,23.39,10.49,23.39,23.39-10.49,23.4-23.39,23.4Z"/><path class="cls-3" d="M364.67,936.56c10.16-11.84,18.82-25.49,28.73-36.17,2.38-2.25,5.22-5.4,7.2-5.17-.28,.64-1.14,.73-1.8,.99-.95,.23-1.72,.08-2.57,.01-.31-.17-.26,0-.26,.07,.44,.62,1.18,1.38,2.1,2.42,14.73,18.16,38.81,30.85,62.6,24.54,20.03-4.97,34.59-24.03,33.49-43.61,0,0-1.97-.82-1.97-.82-3.16,7.04-7.69,13.46-13.53,18.32-18.51,16.67-45.14,9.4-60.46-7.9-9.22-10.63-19.19-19.62-31.95-7.48-13.69,14.89-19.01,35.33-23.67,54.31,0,0,2.08,.48,2.08,.48h0Z"/><path class="cls-3" d="M698.44,908.16c-25.6,7.09-45.8,29.4-50.43,55.56-3.31,19.29-3.09,40.16-.4,59.71,.04,.17,.08,.36,.13,.56h-13.31c-10.18-19.5-11.52-43.76-7.04-64.64,6.27-31.33,38.01-60.07,70.63-53.28l.42,2.09Z"/><path class="cls-3" d="M11.96,952.42c-4.87-25.37-.56-63.73,27.18-74.86,13.69-5.04,28.88,2.32,37.49,12.89,4.77,5.18,9.92,10.03,15.81,13.79,16.39,10.71,34.64,3.97,49.11-9.07,0,0,1.97,.82,1.97,.82-15.95,39.46-58.1,38.96-83.09,8.11-18.29-23.03-33.34,11.03-39.12,26.56-2.82,7.26-5.27,14.72-7.28,22.25l-2.08-.48h0Z"/><path class="cls-3" d="M347.8,924.5c-24.13,21.25-34.22,45.27-35.68,75.58-.54,8.02-1.72,15.99-3.15,23.91h-17.17c-.12-1.61-.2-2.97-.28-3.96-1.95-27.06,.59-56.86,20.52-77.28,9.5-10.09,21.86-17.25,35.34-20.34l.42,2.09Z"/><path class="cls-3" d="M777.58,806.73c-13.21,6.38-17.15,11.83-24.43,20.57-6.78,8.39-16.49,15.29-27.57,16.86-1.11,.03-2.86-.07-3.16,1.52,0,0-.18,2.12-.18,2.12-7.27-2.38,1.63-15.99,3.88-19.96,10.67-18.82,30.55-32.88,52.34-23.05,0,0-.88,1.94-.88,1.94h0Z"/><path class="cls-3" d="M813.87,697.67c4.87,25.37,.56,63.73-27.18,74.86-13.69,5.04-28.88-2.32-37.49-12.89-4.77-5.18-9.92-10.03-15.81-13.79-16.39-10.71-34.64-3.97-49.11,9.07,0,0-1.97-.82-1.97-.82,15.95-39.46,58.1-38.96,83.09-8.11,18.29,23.03,33.34-11.03,39.12-26.56,2.82-7.26,5.27-14.72,7.28-22.25l2.08,.48h0Z"/></g><g class="cls-6"><path class="cls-3" d="M656.63,76.88c-4.07,4.63-10.99-.33-14.08-3.54C625.92,53.53,622.24,24.77,626.7,0h21.47c-.05,.29-.11,.58-.16,.87-3.31,19.29-3.09,40.15-.4,59.7,.94,4.15,2.33,15.24,7.92,14.49l1.1,1.82Z"/><path class="cls-3" d="M447.29,139c-4.25-9-13.24-14.1-23.13-14.94-23.56-1.72-44.54,19.58-42.59,43.14,.27,4.76,2.75,16.83,9.49,14.82,0,0,.18-2.13,.18-2.13-.36-.07-.62-1.56-.11-2.99,4.23-10.29,11.87-20.1,19.49-27.95,9.37-8.96,23.48-12.17,35.78-8.02,0,0,.88-1.94,.88-1.94h0Z"/><path class="cls-3" d="M477.09,61.65c-2.73-7.01-6.49-13.43-11.59-18.97-.51-.45-.37-.46-1.11-1.08l-20.46-18.08c-4.52,13.75-14.37,35.18-14.87,49.67-.67,5.49,.78,23.09,.88,28.85,13.02-1.52,28.17-2.84,38.19-12.17,.82-.08,.74-.02,1.32,.05,6.36,.59,11.04-5.96,11.27-11.84,.54-6.94-1.64-12.07-3.63-16.43Zm-9.16,25.91l-.23,.16-.02,.02s.08,.01,.12,.02c-.3,.05-.2,.03-.12-.02-7.27-1.4-14.42-2.7-21.54-3.86-.21,.68-.42,1.36-.63,2.04l-1.55-2.4c.73,.12,1.45,.23,2.18,.36,2.45-7.97,4.85-15.95,7.13-23.97-.84-.83-1.65-1.59-2.39-2.26l3.33-1.01c-.31,1.09-.62,2.18-.94,3.27,3.92,3.83,8.65,8.97,12.04,12.44,4.01,4.03,8.39,11.03,2.62,15.21Z"/><path class="cls-3" d="M166.81,40.1c-24.65,0-44.72,20.07-44.72,44.72s20.07,44.72,44.72,44.72,44.72-20.06,44.72-44.72-20.06-44.72-44.72-44.72Zm0,68.12c-12.9,0-23.39-10.5-23.39-23.4s10.49-23.39,23.39-23.39,23.4,10.49,23.4,23.39-10.5,23.4-23.4,23.4Z"/><path class="cls-3" d="M346.07,121.88c4.87,25.37,.56,63.73-27.18,74.86-13.69,5.04-28.88-2.32-37.49-12.89-4.77-5.18-9.92-10.03-15.81-13.79-16.39-10.71-34.64-3.97-49.11,9.07,0,0-1.97-.82-1.97-.82,15.95-39.46,58.1-38.96,83.09-8.11,18.29,23.03,33.34-11.03,39.12-26.56,2.82-7.26,5.27-14.72,7.28-22.25l2.08,.48h0Z"/><path class="cls-3" d="M316.52,423.15c13.21-6.38,17.15-11.83,24.43-20.57,6.78-8.39,16.49-15.29,27.57-16.86,1.11-.03,2.86,.07,3.16-1.52,0,0,.18-2.12,.18-2.12,7.27,2.38-1.63,15.99-3.88,19.96-10.67,18.82-30.55,32.88-52.34,23.05,0,0,.88-1.94,.88-1.94h0Z"/><path class="cls-3" d="M772.16,216.31c13.21-6.38,17.15-11.83,24.43-20.57,6.78-8.39,16.49-15.29,27.57-16.86,1.11-.03,2.86,.07,3.16-1.52,0,0,.18-2.12,.18-2.12,7.27,2.38-1.63,15.99-3.88,19.96-10.67,18.82-30.55,32.88-52.34,23.05,0,0,.88-1.94,.88-1.94h0Z"/><path class="cls-3" d="M830.31,40.1c-24.65,0-44.71,20.07-44.71,44.72s20.06,44.72,44.71,44.72,44.72-20.06,44.72-44.72-20.06-44.72-44.72-44.72Zm0,68.12c-12.9,0-23.39-10.5-23.39-23.4s10.49-23.39,23.39-23.39,23.4,10.49,23.4,23.39-10.5,23.4-23.4,23.4Z"/><path class="cls-3" d="M1009.58,121.88c4.87,25.37,.56,63.73-27.18,74.86-13.69,5.04-28.88-2.32-37.49-12.89-4.77-5.18-9.92-10.03-15.81-13.79-16.39-10.71-34.64-3.97-49.11,9.07,0,0-1.97-.82-1.97-.82,15.95-39.46,58.1-38.96,83.09-8.11,18.29,23.03,33.34-11.03,39.12-26.56,2.82-7.26,5.27-14.72,7.28-22.25l2.08,.48h0Z"/><path class="cls-3" d="M673.73,149.8c24.13-21.25,34.22-45.27,35.68-75.58,1.06-15.85,4.64-31.53,7.75-46.94,.31-1.42,.52-2.87,.59-3.99,.11-1.16,.3-2.43-1.12-3.24l-1.1-1.83c12.73-3.85,13.85,28.08,14.47,36.05,1.96,27.06-.58,56.85-20.52,77.28-9.5,10.09-21.85,17.25-35.34,20.34l-.42-2.09h0Z"/><path class="cls-3" d="M55.67,654.94c-24.65,0-44.71,20.06-44.71,44.72s20.06,44.72,44.71,44.72,44.72-20.06,44.72-44.72-20.06-44.72-44.72-44.72Zm0,68.12c-12.9,0-23.39-10.5-23.39-23.4s10.49-23.39,23.39-23.39,23.4,10.49,23.4,23.39-10.5,23.4-23.4,23.4Z"/><path class="cls-3" d="M122.74,855.82l-2.09,.43c-7.09-25.6-29.4-45.8-55.57-50.43-19.29-3.31-40.15-3.09-59.7-.41-1.3,.3-3.28,.64-5.37,1.14v-11.57c20.21-12.66,46.82-14.63,69.45-9.78,31.32,6.27,60.07,38.01,53.28,70.62Z"/><path class="cls-3" d="M281.59,533.24c9-4.25,14.1-13.24,14.94-23.13,1.72-23.56-19.58-44.54-43.14-42.59-4.76,.27-16.83,2.75-14.82,9.49,0,0,2.13,.18,2.13,.18,.07-.36,1.56-.62,2.99-.11,10.29,4.23,20.1,11.87,27.95,19.49,8.96,9.37,12.17,23.48,8.02,35.78,0,0,1.94,.88,1.94,.88h0Z"/><path class="cls-3" d="M0,587.72v21.62c2,.59,4.01,1.17,6.02,1.74,.83-.85,1.6-1.65,2.27-2.4l1.01,3.34c-1.09-.31-2.19-.62-3.28-.94-1.82,1.86-3.93,3.91-6.02,5.91v19.71c1.53-.56,2.94-1.19,4.29-1.8,7.01-2.74,13.44-6.5,18.97-11.6,.45-.5,.46-.36,1.08-1.1l18.09-20.47c-11.61-3.81-28.67-11.42-42.43-14.01Z"/><path class="cls-3" d="M0,284.08v26.74c2.84,3.87,4.52,8.64,4.52,13.79s-1.68,9.92-4.52,13.79v26.74c15.25-7.13,25.84-22.62,25.84-40.53S15.26,291.2,0,284.08Z"/><path class="cls-3" d="M282.88,374.38c-25.37,4.87-63.73,.56-74.86-27.18-5.04-13.69,2.32-28.88,12.89-37.49,5.18-4.77,10.03-9.92,13.79-15.81,10.71-16.39,3.97-34.64-9.07-49.11,0,0,.82-1.97,.82-1.97,39.46,15.95,38.96,58.1,8.11,83.09-23.03,18.29,11.03,33.34,26.56,39.12,7.26,2.82,14.72,5.27,22.25,7.28l-.48,2.08h0Z"/><path class="cls-3" d="M11.69,224.32c-3.85,.28-7.76,.46-11.68,.51v-20.35c13.04,1.52,25.94,4.41,38.67,6.99,1.42,.31,2.87,.52,3.99,.59,1.16,.12,2.43,.31,3.24-1.12l1.83-1.09c3.84,12.73-28.09,13.84-36.05,14.47Z"/><path class="cls-3" d="M111.79,420.07c6.38,13.21,11.83,17.15,20.57,24.43,8.39,6.78,15.29,16.49,16.86,27.57,.03,1.11-.07,2.86,1.52,3.16,0,0,2.12,.18,2.12,.18-2.38,7.27-15.99-1.63-19.96-3.88-18.82-10.67-32.88-30.55-23.05-52.34,0,0,1.94,.88,1.94,.88h0Z"/><path class="cls-3" d="M111.79,280.83c6.38,13.21,11.83,17.15,20.57,24.43,8.39,6.78,15.29,16.49,16.86,27.57,.03,1.11-.07,2.86,1.52,3.16,0,0,2.12,.18,2.12,.18-2.38,7.27-15.99-1.63-19.96-3.88-18.82-10.67-32.88-30.55-23.05-52.34,0,0,1.94,.88,1.94,.88h0Z"/><path class="cls-3" d="M40.12,431.61c-.62-.74-.63-.6-1.08-1.11-5.53-5.09-11.96-8.85-18.97-11.59-4.36-1.98-9.49-4.16-16.43-3.63-1.2,.05-2.44,.28-3.63,.68v9.37c3.35,.33,6.91,2.92,9.36,5.37,3.47,3.37,8.6,8.11,12.43,12.03,1.09-.32,2.19-.63,3.28-.94l-1.01,3.34c-.68-.75-1.44-1.56-2.27-2.4-7.29,2.07-14.55,4.25-21.79,6.47v17.84c3.59,.11,6.71,.12,8.52-.1,14.5-.5,35.92-10.35,49.68-14.87l-18.09-20.46Z"/><path class="cls-3" d="M1024,738.52v-23.97c-17.55,6.05-30.19,22.72-30.19,42.3s12.64,36.25,30.19,42.29v-23.97c-5.4-4.28-8.87-10.9-8.87-18.32s3.47-14.04,8.87-18.33Z"/><path class="cls-3" d="M725.77,484.56c11.84,10.16,25.49,18.82,36.17,28.73,2.25,2.38,5.4,5.22,5.17,7.2-.64-.28-.73-1.14-.99-1.8-.23-.95-.08-1.72-.01-2.57,.17-.31,0-.26-.07-.26-.62,.44-1.38,1.18-2.42,2.1-18.16,14.73-30.85,38.81-24.54,62.6,4.97,20.03,24.03,34.59,43.61,33.49,0,0,.82-1.97,.82-1.97-7.04-3.16-13.46-7.69-18.32-13.53-16.67-18.51-9.4-45.14,7.9-60.46,10.63-9.22,19.62-19.19,7.48-31.95-14.89-13.69-35.33-19.01-54.31-23.67,0,0-.48,2.08-.48,2.08h0Z"/><path class="cls-3" d="M909.8,662.28c9-4.25,14.1-13.24,14.94-23.13,1.72-23.56-19.58-44.54-43.14-42.59-4.76,.27-16.83,2.75-14.82,9.49,0,0,2.13,.18,2.13,.18,.07-.36,1.56-.62,2.99-.11,10.29,4.23,20.1,11.87,27.95,19.49,8.96,9.37,12.17,23.48,8.02,35.78,0,0,1.94,.88,1.94,.88h0Z"/><path class="cls-3" d="M975.61,644.05c-5.49-.67-23.09,.78-28.85,.88,1.52,13.02,2.84,28.17,12.17,38.19,.08,.82,.02,.74-.05,1.32-.59,6.36,5.96,11.04,11.84,11.27,6.94,.54,12.07-1.64,16.43-3.63,7.01-2.73,13.44-6.49,18.97-11.59,.45-.51,.46-.37,1.08-1.11l16.8-19v-1.89c-13.78-4.69-34.34-13.96-48.39-14.44Zm13.28,24.21c-3.83,3.92-8.97,8.65-12.44,12.04-4.03,4.01-11.03,8.39-15.21,2.62l-.16-.23s-.01-.01-.02-.02c0,.04-.01,.08-.02,.12-.05-.3-.03-.2,.02-.12,1.4-7.27,2.7-14.42,3.86-21.54-.68-.21-1.36-.42-2.04-.63l2.4-1.55c-.12,.73-.23,1.45-.36,2.18,7.97,2.45,15.95,4.85,23.97,7.13,.83-.84,1.59-1.65,2.26-2.39l1.01,3.33c-1.09-.31-2.18-.62-3.27-.94Z"/><path class="cls-3" d="M963.98,337.07c-24.66,0-44.72,20.07-44.72,44.72s20.06,44.72,44.72,44.72,44.72-20.06,44.72-44.72-20.06-44.72-44.72-44.72Zm0,68.12c-12.9,0-23.39-10.5-23.39-23.4s10.49-23.39,23.39-23.39,23.4,10.49,23.4,23.39-10.5,23.4-23.4,23.4Z"/><path class="cls-3" d="M670.67,600.73c6.38,13.21,11.83,17.15,20.57,24.43,8.39,6.78,15.29,16.49,16.86,27.57,.03,1.11-.07,2.86,1.52,3.16,0,0,2.12,.18,2.12,.18-2.38,7.27-15.99-1.63-19.96-3.88-18.82-10.67-32.88-30.55-23.05-52.34,0,0,1.94,.88,1.94,.88h0Z"/><path class="cls-3" d="M641.23,811.32c6.38,13.21,11.83,17.15,20.57,24.43,8.39,6.78,15.29,16.49,16.86,27.57,.03,1.11-.07,2.86,1.52,3.16,0,0,2.12,.18,2.12,.18-2.38,7.27-15.99-1.63-19.96-3.88-18.82-10.67-32.88-30.55-23.05-52.34,0,0,1.94,.88,1.94,.88h0Z"/><path class="cls-3" d="M1022.97,488.79c-.62-.74-.63-.6-1.08-1.1-5.53-5.1-11.96-8.86-18.97-11.6-4.36-1.98-9.49-4.16-16.43-3.62-5.88,.23-12.43,4.91-11.84,11.26,.07,.59,.13,.51,.06,1.33-9.34,10.02-10.66,25.17-12.18,38.19,5.76,.1,23.36,1.55,28.85,.88,9.31-.32,21.47-4.49,32.62-8.64v-25.53l-1.03-1.17Zm-16.05,13.52c-.68-.75-1.44-1.55-2.27-2.4-8.01,2.28-15.99,4.69-23.96,7.14,.13,.73,.24,1.45,.36,2.18l-2.4-1.55c.68-.21,1.36-.42,2.04-.63-1.16-7.12-2.46-14.27-3.86-21.54-.05,.08-.07,.18-.02-.12,0,.04,.02,.08,.02,.12t.02-.02l.16-.23c4.19-5.77,11.18-1.4,15.21,2.62,3.46,3.38,8.6,8.11,12.43,12.03,1.09-.32,2.19-.63,3.28-.94l-1.01,3.34Z"/><path class="cls-3" d="M212.35,734.55c-4.25-9-13.24-14.1-23.13-14.94-23.56-1.72-44.54,19.58-42.59,43.14,.27,4.76,2.75,16.83,9.49,14.82,0,0,.18-2.13,.18-2.13-.36-.07-.62-1.56-.11-2.99,4.23-10.29,11.87-20.1,19.49-27.95,9.37-8.96,23.48-12.17,35.78-8.02,0,0,.88-1.94,.88-1.94h0Z"/><path class="cls-3" d="M261.44,874.71c-4.25-9-13.24-14.1-23.13-14.94-23.56-1.72-44.54,19.58-42.59,43.14,.27,4.76,2.75,16.83,9.49,14.82,0,0,.18-2.13,.18-2.13-.36-.07-.62-1.56-.11-2.99,4.23-10.29,11.87-20.1,19.49-27.95,9.37-8.96,23.48-12.17,35.78-8.02,0,0,.88-1.94,.88-1.94h0Z"/><path class="cls-3" d="M465.5,1005.53c-.51-.45-.37-.46-1.11-1.08l-20.46-18.08c-3.38,10.28-9.74,24.86-12.94,37.62h21.93c.13-.41,.25-.82,.36-1.23-.85-.82-1.65-1.58-2.4-2.26l3.33-1.01c-.31,1.09-.62,2.18-.93,3.27,.4,.4,.81,.81,1.24,1.23h22.36c-2.71-6.82-6.41-13.06-11.38-18.46Z"/><path class="cls-3" d="M191.23,944.76c-24.66,0-44.72,20.06-44.72,44.71,0,13.89,6.36,26.31,16.32,34.52h56.8c9.96-8.21,16.32-20.63,16.32-34.51,0-24.66-20.06-44.72-44.72-44.72Zm0,68.11c-12.9,0-23.39-10.49-23.39-23.4s10.49-23.39,23.39-23.39,23.4,10.49,23.4,23.39-10.5,23.4-23.4,23.4Z"/><path class="cls-3" d="M814.23,644.33c-13.21,6.38-17.15,11.83-24.43,20.57-6.78,8.39-16.49,15.29-27.57,16.86-1.11,.03-2.86-.07-3.16,1.52,0,0-.18,2.12-.18,2.12-7.27-2.38,1.63-15.99,3.88-19.96,10.67-18.82,30.55-32.88,52.34-23.05,0,0-.88,1.94-.88,1.94h0Z"/><path class="cls-3" d="M100.55,1011.99c-.23-5.88-4.9-12.43-11.26-11.84-.59,.07-.51,.13-1.33,.05-10.01-9.34-25.17-10.66-38.19-12.18-.09,5.77-1.55,23.36-.88,28.86,.08,2.22,.37,4.61,.84,7.11h21.6c-1.74-5.95-3.54-11.88-5.37-17.81-.72,.13-1.45,.25-2.17,.36l1.55-2.39c.21,.68,.42,1.35,.62,2.03,7.14-1.15,14.3-2.45,21.57-3.85-.08-.06-.21-.08,.1-.02-.03,.01-.07,.01-.1,.02h0s.22,.17,.22,.17c5.77,4.19,1.4,11.19-2.62,15.22-1.73,1.79-3.83,4.01-5.99,6.27h19.63c1.24-3.38,2.14-7.27,1.77-12Z"/><path class="cls-3" d="M830.31,1002.96c-15.96,0-29.99,8.41-37.91,21.03h75.82c-7.91-12.62-21.94-21.03-37.91-21.03Z"/><path class="cls-3" d="M717.76,986.14c.11-1.16,.3-2.43-1.12-3.24l-1.1-1.83c12.73-3.85,13.85,28.08,14.47,36.05,.16,2.27,.3,4.56,.39,6.87h-19.59c1.6-11.4,4.1-22.7,6.36-33.86,.31-1.43,.52-2.87,.59-3.99Z"/><path class="cls-3" d="M925.76,917.02c13.21-6.38,17.15-11.83,24.43-20.57,6.78-8.39,16.49-15.29,27.57-16.86,1.11-.03,2.86,.07,3.16-1.52,0,0,.18-2.12,.18-2.12,7.27,2.38-1.63,15.99-3.88,19.96-10.67,18.82-30.55,32.88-52.34,23.05,0,0,.88-1.94,.88-1.94h0Z"/><path class="cls-3" d="M786.53,917.02c13.21-6.38,17.15-11.83,24.43-20.57,6.78-8.39,16.49-15.29,27.57-16.86,1.11-.03,2.86,.07,3.16-1.52,0,0,.18-2.12,.18-2.12,7.27,2.38-1.63,15.99-3.88,19.96-10.67,18.82-30.55,32.88-52.34,23.05,0,0,.88-1.94,.88-1.94h0Z"/><path class="cls-3" d="M972.65,1020.27c-.5-14.49-10.35-35.92-14.87-49.67l-20.47,18.08c-.74,.62-.6,.63-1.1,1.08-5.1,5.54-8.86,11.96-11.59,18.98-1.88,4.1-3.92,8.9-3.69,15.25h11.87c1.01-1.7,2.32-3.28,3.6-4.56,3.38-3.46,8.11-8.6,12.03-12.43-.32-1.09-.63-2.19-.94-3.28l3.34,1.01c-.75,.68-1.55,1.44-2.4,2.27,1.61,5.68,3.3,11.34,5.01,16.99h19.39c-.01-1.51-.07-2.78-.18-3.72Z"/></g><g><path class="cls-3" d="M585.49,793.85c-9.46-.38-16.49-3.78-21.47-10.38-24.28-32.13-.05-132.88,19.42-213.84,17.27-71.84,32.19-133.88,20.48-160.31-.87-1.96-2.48-3.48-4.48-4.24-48.75-18.4-71.2,32.94-86.07,66.94-1.32,3.03-2.62,5.98-3.88,8.79-22.33,49.33-45.7,101.67-67.42,157.22,.03-22.12,2.53-50.04,4.98-77.37,6.45-72.04,12.55-140.1-15.03-157.33-1.23-.77-2.66-1.19-4.11-1.21-.21,0-.41,0-.62,0-60,0-88.11,135.55-110.7,244.54-8.15,39.33-15.2,73.3-21.87,90-.11,.28-.21,.57-.29,.86-6.61,24.21-12,32.68-14.4,35.49-2.73-4.83-6.63-19.58-5.88-45.99,2.07-26.36,11.47-56.01,25.56-80.95,4.18-6.53,5.08-13.32,2.53-19.11-2.62-5.96-8.43-10-16.36-11.37-2.5-.43-5.03,.34-6.86,2.07-35.83,33.93-65.06,115.22-47.6,165.3,9.12,26.14,29.5,41.31,59.64,43.91,48.58-.05,70.45-114.87,91.6-225.9,6.29-33.01,12.37-64.95,18.67-90.28-.85,14.42-2.19,30.81-3.51,46.96-8.44,103.23-12.42,183.49,18.63,199.55,12.54,6.48,27.76,2.01,46.49-13.68,1.79-1.5,2.83-3.7,2.86-6.03,.78-63.66,38.79-138.67,72.32-204.87,2.21-4.37,4.4-8.68,6.56-12.96-4.28,18.39-8.83,37.04-13.32,55.4-8.2,33.58-16.69,68.3-23.17,100.14-12.05,42.11-27.56,116.54,4.09,141.9,16.54,13.24,42.35,10.5,76.73-8.22,3.16-1.72,4.78-5.33,3.96-8.84-.82-3.5-3.87-6.03-7.46-6.17Z"/><path class="cls-4" d="M676.02,402.28c-20.3,50.49-17.67,73.24-37.18,90.76-49.61,44.54-118.65-26.31-134.84-38.51-23.77-17.92-3.5-103.27,25.93-116.21,7.98,1.08,15.9,4.73,23.63,10.84l3.59,2.81c25.16,20.01,46.91,37.3,111.29,39.58,3.26,.12,6.01-2.42,6.11-5.69,.12-3.26-2.42-6.01-5.69-6.11-45.64-1.63-67.87-10.79-86.56-23.56-1.75-4.34-6.57-18.95,2.63-30.27,2.07-2.53,1.69-6.25-.84-8.31-2.54-2.04-6.26-1.66-8.32,.87-7.19,8.83-8.6,18.68-8.02,26.84-1.07-.85-2.16-1.74-3.26-2.6l-3.6-2.85c-.92-.75-1.87-1.44-2.81-2.1-.08-.33-.19-.64-.34-.97-.1-.21-10.55-22.76,7.62-51.55,1.73-2.78,.91-6.4-1.86-8.16-2.75-1.74-6.4-.91-8.15,1.83-13.21,20.93-13.58,39.37-11.73,50.81-89.03-31.98-41.81-220.13,115.12-160.86,69.6,26.26,57.57,81.35,50.78,100.76,0,.07-.01,.09-.06,.13-.01,.09-.04,.15-.07,.23-4.52,10.89-10.69,22.24-18.92,31.15-2.2,2.4-2.06,6.14,.34,8.34,.45,.43,1.01,.78,1.54,1.03,2.26,1.03,5.03,.58,6.8-1.37,9.31-10.07,9.94-22.3,27.25-26.9,46.94-12.48,59.14,40.51,45.83,69.63-23.5,51.63-53.04,65.57-96.23,50.41Z"/></g></g></g></svg>