<?xml version="1.0" encoding="UTF-8"?><svg id="Camada_1" xmlns="http://www.w3.org/2000/svg" viewBox="0 0 350 160"><defs><style>.cls-1{opacity:.1;}.cls-2{fill:#f96163;}.cls-3{fill:#fa9e9f;}.cls-4{fill:#f5c99d;}.cls-5{fill:#fee7eb;}.cls-6{fill:#e6b37f;}.cls-7{fill:#66191b;}.cls-8{fill:#995c17;}.cls-9{fill:#993d40;}.cls-10{fill:#cc5252;}.cls-11{fill:#8a5315;}.cls-12{fill:#4d1719;}</style></defs><g><path class="cls-2" d="M242.45,67.46c0,8.38-12.51,14.22-15.53,21.51-3.13,7.56,1.47,20.5-4.23,26.19-5.69,5.69-18.64,1.09-26.19,4.23-7.29,3.02-13.12,15.53-21.51,15.53s-14.22-12.51-21.51-15.53c-7.56-3.13-20.5,1.47-26.19-4.23-5.69-5.69-1.09-18.64-4.23-26.19-3.02-7.29-15.53-13.12-15.53-21.51s12.51-14.22,15.53-21.51c3.13-7.56-1.47-20.5,4.23-26.19,5.69-5.69,18.64-1.09,26.19-4.23,7.29-3.02,13.12-15.53,21.51-15.53s14.22,12.51,21.51,15.53c7.56,3.13,20.5-1.47,26.19,4.23,5.69,5.69,1.09,18.64,4.23,26.19,3.02,7.29,15.53,13.12,15.53,21.51Z"/><path class="cls-3" d="M226.93,45.96c-3.13-7.55,1.47-20.51-4.23-26.2-5.69-5.69-18.65-1.1-26.2-4.23C189.2,12.51,183.37,0,175,0s-14.23,12.51-21.52,15.52c-7.55,3.13-20.48-1.47-26.17,4.23-5.69,5.69-1.1,18.65-4.23,26.2-3.04,7.3-15.55,13.13-15.55,21.5s12.51,14.23,15.55,21.52c3.13,7.55-1.47,20.48,4.23,26.17,5.69,5.69,18.62,1.1,26.17,4.23,7.3,3.04,13.13,15.55,21.52,15.55s14.2-12.51,21.5-15.55c7.55-3.13,20.51,1.47,26.2-4.23,5.69-5.69,1.1-18.62,4.23-26.17,3.01-7.3,15.52-13.13,15.52-21.52s-12.51-14.2-15.52-21.5Z"/><path class="cls-2" d="M175,132.11c-3.66,0-7.27-3.79-10.77-7.46-2.98-3.13-6.06-6.37-9.67-7.87-3.06-1.27-6.67-1.44-9.81-1.44-1,0-2.01,.02-3.02,.04-.97,.02-1.95,.04-2.91,.04-3.78,0-7.55-.28-9.53-2.25-2.4-2.4-2.31-7.28-2.22-12.44,.08-4.44,.17-9.04-1.4-12.82-1.51-3.62-4.75-6.7-7.87-9.68-3.67-3.49-7.46-7.11-7.46-10.77s3.79-7.25,7.45-10.73c3.13-2.98,6.37-6.06,7.88-9.68,1.57-3.79,1.48-8.39,1.4-12.83-.09-4.94-.19-10.05,2.22-12.46,1.98-1.98,5.75-2.25,9.53-2.25,.96,0,1.94,.02,2.91,.04,1.01,.02,2.02,.04,3.02,.04,3.13,0,6.74-.17,9.8-1.44,3.62-1.49,6.7-4.73,9.69-7.86,3.49-3.66,7.1-7.45,10.75-7.45s7.24,3.78,10.72,7.43c2.99,3.14,6.07,6.38,9.7,7.87,3.05,1.27,6.67,1.44,9.8,1.44,1,0,2.01-.02,3.02-.04,.98-.02,1.95-.04,2.92-.04,3.78,0,7.56,.27,9.54,2.25,2.4,2.4,2.31,7.52,2.22,12.46-.08,4.45-.17,9.05,1.4,12.83,1.5,3.62,4.74,6.71,7.87,9.7,3.66,3.48,7.44,7.08,7.44,10.72s-3.79,7.27-7.45,10.76c-3.13,2.99-6.37,6.07-7.87,9.69-1.57,3.78-1.48,8.37-1.4,12.81,.1,5.16,.19,10.04-2.22,12.45-1.98,1.98-5.76,2.25-9.54,2.25h0c-.96,0-1.94-.02-2.91-.04-1.01-.02-2.02-.04-3.02-.04-3.14,0-6.75,.17-9.81,1.44-3.62,1.51-6.7,4.75-9.68,7.88-3.49,3.66-7.09,7.45-10.73,7.45Z"/><path class="cls-3" d="M174.99,123.29c-1.32-.99-3.33-3.1-4.62-4.46-3.43-3.6-7.3-7.67-12.56-9.86-4.44-1.84-9.09-2.09-13.06-2.09-.92,0-1.85,.02-2.78,.03h-.37c-.95,.02-1.87,.04-2.77,.04-1.54,0-2.55-.06-3.21-.13-.17-1.58-.12-4.12-.09-5.95,.1-5.06,.2-10.8-2.04-16.21-2.2-5.27-6.26-9.14-9.84-12.55-1.38-1.31-3.49-3.32-4.49-4.65,.99-1.32,3.1-3.32,4.46-4.62,3.59-3.41,7.66-7.29,9.86-12.55,2.25-5.43,2.15-11.18,2.05-16.24-.03-1.73-.08-4.34,.1-5.97,.67-.07,1.68-.13,3.2-.13,.79,0,1.59,.01,2.39,.03h.38c1.05,.03,2.11,.05,3.16,.05,3.96,0,8.61-.25,13.03-2.08,5.26-2.17,9.15-6.25,12.57-9.84,1.3-1.36,3.31-3.47,4.63-4.46,1.32,.99,3.31,3.08,4.6,4.43,3.43,3.61,7.31,7.68,12.6,9.87,4.41,1.83,9.06,2.08,13.03,2.08,1.05,0,2.12-.02,3.18-.04h.35c.8-.02,1.61-.03,2.4-.03,1.53,0,2.54,.06,3.21,.13,.18,1.63,.13,4.25,.1,5.97-.1,5.07-.2,10.81,2.04,16.22,2.18,5.27,6.25,9.15,9.84,12.57,1.37,1.3,3.47,3.3,4.46,4.62-.99,1.32-3.09,3.33-4.44,4.62-3.61,3.43-7.68,7.32-9.86,12.6-2.23,5.4-2.13,11.13-2.03,16.19,.03,1.83,.08,4.37-.09,5.95-.67,.08-1.68,.14-3.22,.14-.91,0-1.83-.02-2.74-.04h-.41c-.93-.02-1.86-.04-2.78-.04-3.97,0-8.62,.25-13.04,2.08-5.29,2.2-9.16,6.27-12.58,9.87-1.29,1.36-3.29,3.46-4.62,4.46Z"/><path class="cls-2" d="M174.45,114.95c-3.62-3.8-8.12-8.52-14.47-11.17-5.36-2.22-10.71-2.52-15.23-2.52-.82,0-3.24,.04-3.24,.04-.12,0-.24,0-.36,0,0-.1,0-.2,0-.3,.1-5.35,.23-11.98-2.47-18.49-2.66-6.38-7.37-10.87-11.16-14.48-.17-.16-.37-.35-.6-.57,.2-.19,.39-.37,.54-.51,3.82-3.63,8.54-8.12,11.2-14.49,2.71-6.54,2.58-13.18,2.48-18.52,0-.11,0-.22,0-.33h.31c1.11,.03,2.2,.05,3.29,.05,4.51,0,9.85-.3,15.19-2.51,6.36-2.62,10.86-7.35,14.48-11.14,.15-.16,.34-.36,.56-.59,.19,.2,.36,.38,.51,.53,3.64,3.82,8.15,8.56,14.54,11.2,5.32,2.21,10.66,2.5,15.18,2.5,1.09,0,2.2-.02,3.3-.04h.32c0,.08,0,.17,0,.25-.1,5.41-.23,12.06,2.47,18.56,2.63,6.36,7.35,10.86,11.14,14.49,.17,.16,.37,.35,.59,.56-.21,.2-.4,.38-.56,.53-3.8,3.62-8.54,8.13-11.18,14.52-2.69,6.49-2.56,13.12-2.46,18.45,0,.1,0,.21,0,.32h-.73c-.98-.03-1.94-.04-2.89-.04-4.52,0-9.86,.3-15.2,2.51-6.39,2.66-10.89,7.39-14.5,11.18-.16,.17-.34,.36-.54,.57-.2-.21-.39-.4-.54-.57Z"/><circle class="cls-10" cx="174.99" cy="67.46" r="34.69"/><circle class="cls-5" cx="174.99" cy="67.46" r="33.05"/><g><path class="cls-7" d="M164.78,129.25l-29.78,29.78c-1.98,1.98-5.37,.75-5.62-2.04l-1.74-19.4-19.4-1.74c-2.79-.25-4.02-3.64-2.04-5.62l18.9-18.9c.45,1.47,1.16,2.79,2.2,3.83,5.69,5.69,18.62,1.1,26.17,4.23,3.97,1.63,7.52,6.11,11.3,9.86Z"/><path class="cls-7" d="M164.78,129.25l-29.78,29.78c-1.98,1.98-5.37,.75-5.62-2.04l-1.74-19.4-19.4-1.74c-2.79-.25-4.02-3.64-2.04-5.62l18.9-18.9c.45,1.47,1.16,2.79,2.2,3.83,5.69,5.69,18.62,1.1,26.17,4.23,3.97,1.63,7.52,6.11,11.3,9.86Z"/><path class="cls-9" d="M138.74,155.27l-3.75,3.75c-1.97,2-5.35,.76-5.61-2.03l-1.75-19.41-19.41-1.72c-2.76-.25-4-3.63-2.03-5.63l3.75-3.72c-1.97,1.97-.76,5.35,2.03,5.61l19.41,1.75,1.72,19.38c.25,2.79,3.66,4.03,5.63,2.03Z"/><path class="cls-7" d="M241.75,135.85l-19.42,1.74-1.74,19.4c-.25,2.79-3.64,4.02-5.62,2.04l-29.78-29.78c3.78-3.75,7.33-8.23,11.3-9.86,7.55-3.13,20.51,1.46,26.2-4.23,1.04-1.04,1.75-2.34,2.2-3.8l18.89,18.87c1.98,1.98,.75,5.37-2.04,5.62Z"/><path class="cls-12" d="M225.69,112.14c-.2,3.44-.87,6.54-2.99,8.65-5.69,5.69-18.65,1.1-26.2,4.23-2.99,1.24-5.75,4.09-8.51,7.02l-2.79-2.79c3.78-3.75,7.33-8.23,11.3-9.86,7.55-3.13,20.51,1.47,26.2-4.23,1.04-1.04,1.75-2.34,2.2-3.8l.79,.79Z"/><path class="cls-12" d="M164.78,129.24l-2.79,2.79c-2.76-2.93-5.49-5.78-8.51-7.02-7.55-3.13-20.48,1.47-26.17-4.23-2.11-2.11-2.79-5.21-2.99-8.68l.79-.79c.45,1.47,1.16,2.79,2.2,3.83,5.69,5.69,18.62,1.1,26.17,4.23,3.97,1.63,7.52,6.11,11.3,9.86Z"/><path class="cls-9" d="M241.75,135.86l-19.41,1.72-1.75,19.41c-.25,2.79-3.63,4.03-5.61,2.03l-3.27-3.27c1.97,1.8,5.24,.56,5.49-2.17l1.72-19.38,19.44-1.75c2.79-.25,4-3.61,2.06-5.61l3.38,3.38c1.97,1.97,.73,5.38-2.06,5.63Z"/></g><g><path class="cls-11" d="M198.87,68.24h-3.23c0-11.05-8.99-20.05-20.05-20.05s-20.05,8.99-20.05,20.05h-3.23c0-12.83,10.44-23.28,23.28-23.28s23.28,10.44,23.28,23.28Z"/><path class="cls-8" d="M199.51,68.69h-49.04l4.22,9.85c.73,2.97,3.4,5.06,6.46,5.06h27.68c3.06,0,5.73-2.09,6.46-5.06l4.22-9.85Z"/><g><path class="cls-6" d="M162.88,67.16c-.41,.1-.43,0-.84,.1s-.4,.13-.81,.23-.39,.17-.8,.28-.43,.02-.84,.12-.38,.21-.79,.31-.43,.02-.84,.13-.41,.1-.82,.2-.38,.2-.79,.31-.41,.11-.82,.22-.43,.03-.84,.13c-.42,.1-.86-.16-.96-.58-.1-.4,0-.42-.1-.82s-.12-.39-.22-.79-.06-.41-.16-.8-.19-.37-.28-.77-.03-.41-.12-.81-.26-.35-.36-.75-.06-.41-.16-.8-.02-.41-.12-.81-.14-.39-.24-.78-.06-.41-.16-.8c-.1-.42,.12-.86,.54-.96s.41-.09,.82-.19,.43-.01,.84-.11,.41-.12,.81-.22,.38-.23,.79-.33,.41-.1,.82-.2,.45,.06,.86-.05,.39-.17,.8-.27,.42-.06,.83-.16,.38-.22,.79-.32,.43-.04,.83-.14,.89,.12,1,.53c.1,.4,.13,.39,.23,.78s0,.42,.1,.82,.11,.39,.21,.79,.02,.42,.12,.81,.19,.37,.29,.77,.16,.38,.26,.78,.05,.41,.15,.8,.09,.4,.19,.79,.02,.42,.12,.81,.11,.39,.2,.79c.1,.42-.1,.85-.52,.96Z"/><path class="cls-4" d="M163.17,67.55c-.44,.11-.46,0-.9,.12s-.43,.14-.87,.24-.42,.18-.86,.29-.46,.03-.89,.14-.41,.21-.85,.32-.46,.03-.89,.14-.44,.11-.88,.21-.41,.21-.85,.32-.43,.12-.87,.23c-.42,.1-.87-.24-.98-.65-.11-.44-.11-.44-.22-.87s-.01-.46-.12-.9-.13-.43-.24-.87-.07-.45-.18-.88-.19-.42-.3-.85-.04-.45-.15-.89-.27-.4-.38-.84-.07-.45-.18-.89-.04-.46-.15-.89c-.1-.42,.12-.84,.53-.95,.44-.11,.45-.07,.88-.18s.43-.15,.86-.26,.44-.1,.88-.21,.46-.02,.9-.13,.43-.12,.87-.23,.41-.23,.84-.34,.44-.1,.88-.21,.48,.04,.91-.06,.42-.17,.86-.28c.42-.1,.76,.14,.86,.56,.11,.44,.22,.41,.33,.85s.05,.45,.16,.89,.19,.42,.3,.85,.14,.43,.24,.87,.01,.46,.12,.9,.12,.43,.23,.87,.03,.46,.14,.89,.2,.42,.3,.85,.17,.42,.28,.86c.1,.42-.23,.88-.64,.99Z"/><polygon class="cls-6" points="153.94 61.18 153.63 61.28 153.33 61.3 153.05 61.37 152.75 61.37 152.47 61.45 152.22 61.5 152.15 61.36 152.44 61.34 152.69 61.16 152.98 61.11 153.28 61.09 153.56 60.99 153.84 60.95 153.94 61.18"/><polygon class="cls-6" points="156.66 63.09 156.35 63.19 156.05 63.21 155.77 63.28 155.47 63.28 155.18 63.37 154.94 63.41 154.86 63.27 155.16 63.26 155.41 63.07 155.7 63.03 156 63.01 156.27 62.91 156.55 62.86 156.66 63.09"/><polygon class="cls-6" points="159.83 64.58 159.52 64.68 159.23 64.69 158.94 64.77 158.64 64.77 158.36 64.85 158.11 64.9 158.04 64.76 158.33 64.74 158.59 64.56 158.88 64.51 159.17 64.49 159.45 64.39 159.73 64.35 159.83 64.58"/><polygon class="cls-6" points="162.7 66.11 162.39 66.21 162.09 66.23 161.81 66.3 161.51 66.3 161.23 66.38 160.98 66.43 160.91 66.29 161.2 66.27 161.45 66.09 161.74 66.04 162.04 66.03 162.32 65.92 162.6 65.88 162.7 66.11"/><polygon class="cls-6" points="155.92 67.79 155.61 67.89 155.31 67.91 155.03 67.98 154.73 67.98 154.45 68.07 154.2 68.11 154.12 67.97 154.42 67.96 154.67 67.77 154.96 67.73 155.26 67.71 155.53 67.61 155.81 67.56 155.92 67.79"/><polygon class="cls-6" points="160.91 58.89 160.6 58.98 160.3 59 160.02 59.07 159.72 59.07 159.43 59.16 159.19 59.21 159.11 59.07 159.41 59.05 159.66 58.86 159.95 58.82 160.25 58.8 160.52 58.7 160.8 58.65 160.91 58.89"/></g><g><path class="cls-6" d="M171.56,64.32c0,.33-.02,.66-.07,.97s-.23,.62-.33,.92-.25,.6-.41,.87-.44,.47-.64,.71-.4,.48-.65,.69-.52,.35-.8,.51-.52,.38-.82,.49-.62,.11-.94,.17-.61,.27-.94,.27-.65-.07-.96-.13-.61-.22-.91-.33-.61-.2-.89-.36-.52-.38-.76-.58-.51-.4-.72-.64-.39-.52-.55-.79-.2-.6-.31-.91-.2-.59-.26-.91-.23-.62-.23-.94,.04-.66,.09-.97,.31-.58,.42-.88,.18-.61,.33-.89,.38-.5,.59-.75,.34-.56,.58-.77,.55-.33,.83-.49,.53-.38,.83-.49,.61-.23,.93-.28,.65,.03,.97,.03,.65,0,.96,.06,.6,.22,.9,.33,.63,.15,.91,.31,.59,.29,.84,.5,.45,.48,.65,.72,.39,.52,.55,.8,.21,.6,.32,.91,.2,.6,.25,.92,.22,.62,.22,.95Z"/><path class="cls-4" d="M172.05,64.83c0,.33,0,.66-.06,.97s-.17,.63-.28,.93-.25,.6-.41,.88-.33,.57-.53,.82-.5,.42-.74,.63-.53,.36-.8,.52-.53,.38-.83,.49-.63,.15-.95,.21-.64,.05-.96,.05-.66,.06-.97,0-.59-.29-.89-.39-.61-.2-.88-.36-.61-.26-.85-.47-.37-.55-.57-.79-.44-.47-.6-.74-.32-.56-.43-.86-.08-.63-.14-.95-.11-.62-.11-.94-.05-.65,0-.96,.23-.6,.33-.9,.14-.65,.29-.92,.42-.49,.63-.74,.43-.47,.68-.67,.45-.49,.72-.65,.58-.32,.88-.43,.64-.11,.96-.17,.63-.09,.96-.09,.63,.14,.94,.2,.62,.11,.92,.22,.56,.28,.84,.44,.59,.26,.83,.46,.41,.48,.61,.73,.54,.4,.7,.68,.26,.6,.37,.9,.11,.63,.17,.95,.18,.62,.18,.95Z"/><polygon class="cls-6" points="164.28 61.36 163.9 61.38 163.57 61.32 163.24 61.32 162.91 61.24 162.57 61.26 162.29 61.24 162.24 61.06 162.57 61.13 162.9 60.99 163.24 61.02 163.57 61.08 163.9 61.05 164.23 61.07 164.28 61.36"/><polygon class="cls-6" points="167.74 63.96 167.36 63.98 167.03 63.92 166.7 63.92 166.37 63.84 166.03 63.86 165.75 63.84 165.7 63.67 166.03 63.73 166.36 63.59 166.7 63.62 167.03 63.68 167.36 63.65 167.68 63.67 167.74 63.96"/><polygon class="cls-6" points="171.51 66.29 171.14 66.31 170.8 66.25 170.47 66.25 170.14 66.17 169.8 66.19 169.52 66.17 169.47 66 169.8 66.06 170.13 65.92 170.47 65.96 170.8 66.02 171.13 65.98 171.46 66.01 171.51 66.29"/><polygon class="cls-6" points="164.28 66.29 163.9 66.31 163.57 66.25 163.24 66.25 162.91 66.17 162.57 66.19 162.29 66.17 162.24 66 162.57 66.06 162.9 65.92 163.24 65.96 163.57 66.02 163.9 65.98 164.23 66.01 164.28 66.29"/><polygon class="cls-6" points="167.02 68.77 166.65 68.79 166.32 68.73 165.99 68.73 165.65 68.65 165.32 68.67 165.03 68.65 164.99 68.48 165.32 68.54 165.65 68.4 165.98 68.43 166.32 68.5 166.65 68.46 166.97 68.49 167.02 68.77"/></g><g><path class="cls-6" d="M172.25,58.4c-.23,.39-.34,.32-.57,.71s-.11,.46-.34,.84-.39,.29-.61,.68-.16,.43-.39,.81-.26,.37-.49,.75-.18,.41-.41,.8-.25,.37-.48,.76-.25,.37-.48,.76-.07,.48-.3,.86-.29,.35-.52,.74-.27,.36-.5,.75-.12,.45-.35,.84c-.17,.29-.05,.54,.29,.54,.45,0,.45,0,.91,0s.46,.01,.91,.01,.46,.05,.91,.05,.46,.09,.91,.09,.46-.17,.91-.17,.46-.03,.91-.03,.46,.03,.91,.03,.46,0,.91,0,.46-.04,.91-.04,.46,.09,.91,.09,.46,.03,.91,.03,.46-.1,.91-.1c.34,0,.52-.27,.34-.56-.23-.39-.2-.4-.43-.79s-.31-.34-.54-.72-.09-.47-.32-.85-.27-.36-.5-.75-.33-.33-.56-.71-.08-.47-.31-.86-.29-.35-.52-.74-.25-.38-.47-.76-.12-.45-.35-.84-.26-.37-.49-.76-.3-.34-.53-.73-.15-.44-.37-.82c-.17-.29-.59-.23-.76,.06Z"/><path class="cls-4" d="M172.52,58.69c-.22,.39-.33,.32-.55,.71s-.11,.45-.33,.84-.38,.3-.6,.68-.16,.42-.38,.81-.25,.37-.48,.75-.18,.41-.4,.8-.25,.37-.47,.76-.25,.37-.47,.76-.07,.47-.29,.86-.28,.35-.5,.74-.27,.36-.49,.75-.12,.45-.34,.83c-.17,.29-.04,.54,.29,.54,.45,0,.45,0,.89,0s.45,.01,.89,.01,.45,.05,.89,.05,.45,.09,.89,.09,.45-.16,.89-.16,.45-.02,.89-.02,.45,.03,.89,.03,.45,0,.89,0,.45-.04,.89-.04,.45,.08,.89,.08,.45,.03,.89,.03,.45-.1,.89-.1c.34,0,.51-.26,.35-.56-.22-.39-.19-.4-.42-.79s-.3-.34-.53-.72-.08-.47-.31-.85-.27-.36-.49-.75-.32-.33-.54-.72-.08-.47-.3-.85-.29-.35-.51-.74-.24-.38-.46-.76-.12-.45-.34-.83-.25-.37-.48-.76-.3-.34-.52-.73-.14-.43-.36-.82c-.17-.29-.59-.23-.76,.06Z"/><polygon class="cls-6" points="176.97 67.39 176.64 67.41 176.33 67.36 176.03 67.36 175.72 67.28 175.42 67.3 175.16 67.29 175.12 67.12 175.42 67.18 175.72 67.06 176.02 67.09 176.33 67.14 176.63 67.11 176.93 67.13 176.97 67.39"/><polygon class="cls-6" points="172.46 65.27 172.12 65.29 171.81 65.24 171.51 65.24 171.21 65.16 170.9 65.18 170.64 65.17 170.6 65 170.9 65.06 171.2 64.94 171.51 64.97 171.81 65.02 172.12 64.99 172.41 65.01 172.46 65.27"/><polygon class="cls-6" points="172.62 61.57 172.28 61.59 171.97 61.54 171.67 61.54 171.37 61.46 171.06 61.48 170.8 61.46 170.76 61.3 171.06 61.36 171.36 61.23 171.67 61.26 171.97 61.32 172.28 61.29 172.57 61.31 172.62 61.57"/><polygon class="cls-6" points="174.71 63.88 174.37 63.9 174.07 63.84 173.76 63.84 173.46 63.77 173.15 63.78 172.89 63.77 172.85 63.61 173.15 63.66 173.46 63.54 173.76 63.57 174.06 63.62 174.37 63.59 174.66 63.62 174.71 63.88"/><polygon class="cls-6" points="169.31 67.17 168.97 67.19 168.67 67.13 168.37 67.13 168.06 67.06 167.76 67.08 167.5 67.06 167.46 66.9 167.76 66.96 168.06 66.83 168.36 66.86 168.67 66.92 168.97 66.88 169.27 66.91 169.31 67.17"/></g><g><path class="cls-6" d="M181.85,66.15c0,.2,0,.41-.04,.6s-.14,.38-.2,.56-.15,.37-.25,.54-.27,.29-.39,.44-.25,.3-.4,.42-.32,.21-.49,.31-.32,.23-.5,.3-.38,.07-.58,.1-.38,.16-.58,.16-.4-.05-.59-.08-.37-.14-.56-.2-.38-.12-.54-.22-.32-.23-.47-.36-.31-.24-.44-.39-.24-.32-.33-.49-.12-.37-.19-.56-.13-.36-.16-.56-.14-.38-.14-.58,.02-.4,.06-.59,.19-.36,.26-.54,.11-.38,.21-.55,.23-.31,.36-.46,.21-.35,.36-.47,.34-.2,.51-.3,.33-.23,.51-.3,.38-.14,.57-.17,.4,.02,.6,.02,.4,0,.59,.04,.37,.14,.55,.2,.39,.09,.56,.19,.36,.18,.51,.3,.27,.29,.4,.44,.24,.32,.34,.49,.13,.37,.2,.56,.12,.37,.16,.56,.14,.38,.14,.58Z"/><path class="cls-4" d="M182.15,66.47c0,.2,0,.41-.04,.6s-.1,.39-.17,.57-.15,.37-.25,.54-.2,.35-.33,.5-.3,.26-.45,.39-.32,.22-.49,.32-.33,.24-.51,.3-.38,.09-.58,.13-.39,.03-.59,.03-.41,.04-.6,0-.36-.18-.55-.24-.37-.12-.54-.22-.37-.16-.52-.29-.22-.33-.35-.48-.27-.29-.37-.46-.19-.34-.26-.53-.05-.39-.08-.58-.07-.38-.07-.58-.03-.4,0-.59,.14-.37,.2-.55,.08-.4,.18-.57,.26-.3,.38-.45,.26-.29,.42-.41,.27-.3,.44-.4,.35-.19,.54-.26,.39-.07,.59-.1,.39-.05,.59-.05,.39,.09,.58,.12,.38,.07,.56,.13,.34,.17,.51,.27,.36,.16,.51,.28,.25,.3,.38,.45,.33,.25,.43,.42,.16,.37,.23,.55,.07,.39,.1,.58,.11,.38,.11,.58Z"/><polygon class="cls-6" points="177.38 64.34 177.16 64.35 176.95 64.32 176.75 64.32 176.55 64.27 176.34 64.28 176.16 64.27 176.14 64.16 176.34 64.2 176.54 64.11 176.75 64.13 176.95 64.17 177.16 64.15 177.35 64.16 177.38 64.34"/><polygon class="cls-6" points="179.51 65.93 179.28 65.95 179.07 65.91 178.87 65.91 178.67 65.86 178.46 65.87 178.29 65.86 178.26 65.75 178.46 65.79 178.66 65.71 178.87 65.73 179.07 65.77 179.28 65.74 179.47 65.76 179.51 65.93"/><polygon class="cls-6" points="181.82 67.36 181.59 67.38 181.39 67.34 181.18 67.34 180.98 67.29 180.77 67.3 180.6 67.29 180.57 67.18 180.77 67.22 180.98 67.14 181.18 67.16 181.38 67.19 181.59 67.17 181.79 67.19 181.82 67.36"/><polygon class="cls-6" points="177.38 67.36 177.16 67.38 176.95 67.34 176.75 67.34 176.55 67.29 176.34 67.3 176.16 67.29 176.14 67.18 176.34 67.22 176.54 67.14 176.75 67.16 176.95 67.19 177.16 67.17 177.35 67.19 177.38 67.36"/><polygon class="cls-6" points="179.07 68.88 178.84 68.9 178.64 68.86 178.43 68.86 178.23 68.81 178.03 68.82 177.85 68.81 177.82 68.7 178.02 68.74 178.23 68.66 178.43 68.68 178.64 68.71 178.84 68.69 179.04 68.71 179.07 68.88"/></g><g><path class="cls-6" d="M186.24,64.42c0,.24-.01,.49-.05,.72s-.17,.46-.25,.68-.18,.44-.3,.65-.32,.35-.48,.53-.3,.36-.48,.51-.39,.26-.59,.38-.38,.28-.61,.36-.46,.08-.7,.12-.46,.2-.7,.2-.49-.06-.72-.1-.45-.16-.67-.24-.45-.15-.66-.27-.38-.28-.56-.43-.38-.29-.53-.48-.29-.38-.4-.59-.15-.45-.23-.67-.15-.44-.19-.68-.17-.46-.17-.7,.03-.49,.07-.72,.23-.43,.31-.65,.13-.46,.25-.66,.28-.37,.44-.55,.25-.42,.43-.57,.41-.25,.61-.37,.39-.28,.62-.37,.46-.17,.69-.21,.48,.02,.72,.02,.48,0,.71,.05,.45,.17,.67,.25,.47,.11,.67,.23,.44,.22,.62,.37,.33,.35,.48,.54,.29,.38,.41,.59,.16,.45,.24,.67,.15,.44,.19,.68,.16,.46,.16,.7Z"/><path class="cls-4" d="M186.6,64.8c0,.24,0,.49-.04,.72s-.13,.47-.21,.69-.19,.45-.3,.65-.24,.42-.39,.61-.37,.31-.55,.47-.39,.27-.6,.39-.39,.28-.62,.37-.47,.11-.7,.16-.47,.04-.71,.04-.49,.04-.72,0-.44-.21-.66-.29-.45-.15-.66-.27-.45-.19-.63-.35-.27-.4-.42-.59-.33-.35-.45-.55-.23-.42-.32-.64-.06-.47-.1-.71-.08-.46-.08-.7-.04-.48,0-.71,.17-.45,.25-.67,.1-.48,.22-.68,.31-.37,.46-.55,.32-.35,.5-.5,.33-.36,.54-.48,.43-.23,.65-.32,.48-.08,.71-.12,.47-.06,.71-.06,.47,.11,.7,.15,.46,.08,.68,.16,.42,.21,.62,.33,.44,.19,.62,.34,.3,.36,.46,.54,.4,.3,.52,.5,.19,.44,.27,.67,.08,.47,.12,.7,.13,.46,.13,.7Z"/><polygon class="cls-6" points="180.83 62.22 180.56 62.24 180.31 62.19 180.07 62.2 179.82 62.13 179.57 62.15 179.36 62.14 179.33 62.01 179.57 62.05 179.82 61.95 180.06 61.97 180.31 62.02 180.56 61.99 180.8 62.01 180.83 62.22"/><polygon class="cls-6" points="183.4 64.15 183.12 64.17 182.88 64.12 182.63 64.13 182.38 64.06 182.14 64.08 181.92 64.07 181.89 63.94 182.14 63.98 182.38 63.88 182.63 63.9 182.88 63.95 183.12 63.92 183.36 63.94 183.4 64.15"/><polygon class="cls-6" points="186.2 65.88 185.92 65.9 185.68 65.85 185.43 65.85 185.18 65.79 184.93 65.81 184.72 65.8 184.69 65.66 184.93 65.71 185.18 65.61 185.43 65.63 185.67 65.68 185.92 65.65 186.16 65.67 186.2 65.88"/><polygon class="cls-6" points="180.83 65.88 180.56 65.9 180.31 65.85 180.07 65.85 179.82 65.79 179.57 65.81 179.36 65.8 179.33 65.66 179.57 65.71 179.82 65.61 180.06 65.63 180.31 65.68 180.56 65.65 180.8 65.67 180.83 65.88"/><polygon class="cls-6" points="182.87 67.72 182.6 67.74 182.35 67.69 182.1 67.69 181.86 67.63 181.61 67.65 181.4 67.63 181.37 67.5 181.61 67.55 181.86 67.45 182.1 67.47 182.35 67.52 182.6 67.49 182.84 67.51 182.87 67.72"/></g><g><path class="cls-6" d="M195.77,60.47c-.41-.1-.43,0-.84-.1s-.4-.13-.81-.23-.39-.17-.8-.28-.43-.02-.84-.12-.38-.21-.79-.31-.43-.02-.84-.13-.41-.1-.82-.2-.38-.2-.79-.31-.41-.11-.82-.22-.43-.03-.84-.13c-.42-.1-.86,.16-.96,.58-.1,.4,0,.42-.1,.82s-.12,.39-.22,.79-.06,.41-.16,.8-.19,.37-.28,.77-.03,.41-.12,.81-.26,.35-.36,.75-.06,.41-.16,.8-.02,.41-.12,.81-.14,.39-.24,.78-.06,.41-.16,.8c-.1,.42,.12,.86,.54,.96s.41,.09,.82,.19,.43,.01,.84,.11,.41,.12,.81,.22,.38,.23,.79,.33,.41,.1,.82,.2,.45-.06,.86,.05,.39,.17,.8,.27,.42,.06,.83,.16,.38,.22,.79,.32,.43,.04,.83,.14,.89-.12,1-.53c.1-.4,.13-.39,.23-.78s0-.42,.1-.82,.11-.39,.21-.79,.02-.42,.12-.81,.19-.37,.29-.77,.16-.38,.26-.78,.05-.41,.15-.8,.09-.4,.19-.79,.02-.42,.12-.81,.11-.39,.2-.79c.1-.42-.1-.85-.52-.96Z"/><path class="cls-4" d="M196.06,60.07c-.44-.11-.46,0-.9-.12s-.43-.14-.87-.24-.42-.18-.86-.29-.46-.03-.89-.14-.41-.21-.85-.32-.46-.03-.89-.14-.44-.11-.88-.21-.41-.21-.85-.32-.43-.12-.87-.23c-.42-.1-.87,.24-.98,.65-.11,.44-.11,.44-.22,.87s-.01,.46-.12,.9c-.11,.44-.13,.43-.24,.87s-.07,.45-.18,.88-.19,.42-.3,.85-.04,.45-.15,.89-.27,.4-.38,.84-.07,.45-.18,.89-.04,.46-.15,.89c-.1,.42,.12,.84,.53,.95,.44,.11,.45,.07,.88,.18s.43,.15,.86,.26,.44,.1,.88,.21,.46,.02,.9,.13,.43,.12,.87,.23,.41,.23,.84,.34,.44,.1,.88,.21,.48-.04,.91,.06,.42,.17,.86,.28c.42,.1,.76-.14,.86-.56,.11-.44,.22-.41,.33-.85s.05-.45,.16-.89,.19-.42,.3-.85,.14-.43,.24-.87,.01-.46,.12-.9,.12-.43,.23-.87,.03-.46,.14-.89,.2-.42,.3-.85,.17-.42,.28-.86c.1-.42-.23-.88-.64-.99Z"/><polygon class="cls-6" points="186.83 66.45 186.52 66.35 186.22 66.33 185.94 66.26 185.64 66.26 185.36 66.17 185.11 66.12 185.04 66.27 185.33 66.28 185.59 66.47 185.88 66.51 186.17 66.53 186.45 66.63 186.73 66.68 186.83 66.45"/><polygon class="cls-6" points="189.55 64.53 189.24 64.43 188.94 64.42 188.66 64.34 188.36 64.34 188.08 64.26 187.83 64.21 187.76 64.35 188.05 64.37 188.3 64.55 188.59 64.6 188.89 64.62 189.17 64.72 189.45 64.76 189.55 64.53"/><polygon class="cls-6" points="192.73 63.05 192.41 62.95 192.12 62.93 191.84 62.86 191.53 62.86 191.25 62.77 191.01 62.72 190.93 62.87 191.23 62.88 191.48 63.07 191.77 63.11 192.07 63.13 192.34 63.23 192.62 63.28 192.73 63.05"/><polygon class="cls-6" points="195.59 61.51 195.28 61.42 194.98 61.4 194.7 61.33 194.4 61.33 194.12 61.24 193.87 61.19 193.8 61.33 194.09 61.35 194.34 61.54 194.63 61.58 194.93 61.6 195.21 61.7 195.49 61.75 195.59 61.51"/><polygon class="cls-6" points="188.81 59.83 188.5 59.73 188.2 59.72 187.92 59.65 187.62 59.65 187.34 59.56 187.09 59.51 187.02 59.65 187.31 59.67 187.56 59.86 187.85 59.9 188.15 59.92 188.43 60.02 188.71 60.06 188.81 59.83"/><polygon class="cls-6" points="193.8 68.74 193.49 68.64 193.19 68.62 192.91 68.55 192.61 68.55 192.33 68.46 192.08 68.42 192.01 68.56 192.3 68.58 192.55 68.76 192.84 68.8 193.14 68.82 193.42 68.92 193.7 68.97 193.8 68.74"/></g><rect class="cls-8" x="147.88" y="65.77" width="54.22" height="4.93" rx="1.82" ry="1.82"/><rect class="cls-11" x="174.54" y="72.92" width="7.73" height="1.5" rx=".55" ry=".55"/><rect class="cls-11" x="184.12" y="76.46" width="7.73" height="1.5" rx=".55" ry=".55"/><rect class="cls-11" x="166.84" y="76.36" width="7.73" height="1.5" rx=".55" ry=".55"/><rect class="cls-11" x="155.95" y="72.92" width="7.73" height="1.5" rx=".55" ry=".55"/><rect class="cls-11" x="167.29" y="69.2" width="29.09" height="1.5" rx=".55" ry=".55"/><rect class="cls-11" x="159.16" y="79.68" width="7.73" height="1.5" rx=".55" ry=".55"/><g><g><path class="cls-4" d="M190.57,83.54c0,.58-.2,1.09-.22,1.53-.03,.61,.04,1.16-.13,1.56-.19,.47-.74,.54-1.29,.78-.38,.16-.76,.67-1.38,.74-.44,.06-.96,.03-1.54,.05-.46,.02-.97-.04-1.54-.03-.47,0-.98-.11-1.53-.11s-1.06,.13-1.53,.12c-.56,0-1.08,.04-1.54,.02-.58-.03-1.08-.24-1.51-.29-.62-.08-1.19,.05-1.57-.11-.55-.23-.71-.79-.91-1.26-.16-.39-.03-.86-.06-1.48-.02-.44-.07-.94-.07-1.52s-.3-1.15-.18-1.68,.41-1.06,.65-1.55,.74-.82,1.09-1.26,.7-.81,1.13-1.15,.85-.65,1.35-.9,1-.36,1.55-.49,1.04-.23,1.6-.23,1.15-.22,1.68-.1,1.11,.29,1.61,.53,.79,.82,1.22,1.17,.94,.6,1.29,1.03,.9,.78,1.14,1.28,.41,1.09,.53,1.64,.16,1.14,.16,1.71Z"/><path class="cls-6" d="M190.33,86.08c-.01,.2-.04,.39-.11,.55-.19,.47-.74,.54-1.29,.77-.38,.16-.76,.67-1.38,.74-.44,.05-.96,.02-1.54,.05-.46,.02-.97-.04-1.53-.03-.47,0-.98-.11-1.53-.11s-1.06,.13-1.53,.12c-.56,0-1.07,.04-1.54,.02-.58-.02-1.07-.24-1.51-.29-.62-.08-1.19,.05-1.57-.11-.55-.23-.72-.79-.91-1.26-.04-.09-.06-.19-.07-.29,.15,.33,.35,.63,.73,.79,.39,.17,.99,.03,1.64,.12,.45,.06,.97,.28,1.57,.31,.48,.02,1.01-.03,1.6-.02,.49,0,1.02-.13,1.59-.13s1.1,.12,1.6,.12c.58,0,1.12,.05,1.6,.03,.61-.03,1.15,0,1.6-.05,.64-.08,1.04-.61,1.43-.77,.45-.19,.9-.28,1.17-.55Z"/><polygon class="cls-6" points="175.84 85 176.15 84.93 176.41 84.81 176.68 84.73 176.93 84.59 177.21 84.53 177.44 84.46 177.43 84.31 177.18 84.43 176.88 84.39 176.61 84.49 176.35 84.61 176.07 84.66 175.82 84.75 175.84 85"/><polygon class="cls-6" points="177.06 79.85 177.46 80 177.85 80.05 178.21 80.16 178.6 80.18 178.96 80.32 179.28 80.39 179.38 80.22 179 80.17 178.69 79.91 178.31 79.84 177.93 79.79 177.58 79.64 177.22 79.56 177.06 79.85"/><polygon class="cls-6" points="188.31 79.1 187.97 79.08 187.66 79.14 187.36 79.14 187.05 79.21 186.74 79.2 186.48 79.21 186.44 79.37 186.74 79.32 187.05 79.44 187.35 79.41 187.66 79.35 187.96 79.39 188.26 79.36 188.31 79.1"/><polygon class="cls-6" points="179.7 86.92 179.39 86.93 179.11 87.01 178.83 87.03 178.56 87.13 178.27 87.14 178.03 87.17 178.01 87.33 178.28 87.25 178.57 87.34 178.85 87.28 179.13 87.21 179.41 87.21 179.68 87.16 179.7 86.92"/><polygon class="cls-6" points="179.38 77.72 179.84 77.78 180.26 77.72 180.67 77.74 181.09 77.66 181.51 77.71 181.86 77.71 181.93 77.49 181.52 77.55 181.11 77.36 180.7 77.37 180.28 77.43 179.87 77.36 179.46 77.37 179.38 77.72"/><polygon class="cls-6" points="181.46 82.04 181.89 82.09 182.28 82.03 182.66 82.06 183.05 81.98 183.44 82.02 183.77 82.02 183.83 81.82 183.45 81.87 183.07 81.69 182.68 81.71 182.3 81.76 181.91 81.7 181.54 81.71 181.46 82.04"/><polygon class="cls-6" points="185.73 80.96 185.43 80.92 185.16 80.96 184.89 80.94 184.62 81 184.35 80.97 184.12 80.97 184.08 81.11 184.35 81.07 184.61 81.2 184.88 81.18 185.15 81.15 185.42 81.19 185.68 81.18 185.73 80.96"/><polygon class="cls-6" points="181.04 83.62 180.74 83.65 180.47 83.62 180.2 83.63 179.93 83.58 179.66 83.61 179.42 83.61 179.38 83.47 179.65 83.5 179.91 83.38 180.18 83.39 180.45 83.43 180.72 83.38 180.98 83.39 181.04 83.62"/><polygon class="cls-6" points="184.67 83.6 185.09 83.65 185.48 83.59 185.87 83.61 186.26 83.54 186.64 83.58 186.98 83.58 187.04 83.38 186.65 83.43 186.28 83.25 185.89 83.27 185.5 83.32 185.12 83.26 184.74 83.27 184.67 83.6"/><polygon class="cls-6" points="189.92 85.35 189.46 85.3 189.04 85.36 188.63 85.34 188.21 85.42 187.8 85.38 187.44 85.38 187.37 85.6 187.79 85.54 188.19 85.73 188.61 85.71 189.02 85.65 189.44 85.72 189.84 85.7 189.92 85.35"/></g><path class="cls-1" d="M180.36,76.77c-.36,.22-.69,.47-1.04,.74-.47,.38-.85,.78-1.23,1.26-.38,.47-.92,.82-1.19,1.37-.26,.54-.57,1.1-.71,1.69-.13,.58,.19,1.21,.19,1.83s.05,1.17,.08,1.65c.03,.67-.12,1.18,.06,1.61,.13,.3,.24,.64,.44,.92-.07-.01-.13-.03-.19-.06-.55-.23-.72-.79-.91-1.26-.17-.39-.03-.86-.06-1.48-.02-.44-.07-.94-.07-1.52s-.3-1.15-.18-1.68c.12-.55,.41-1.06,.65-1.55,.24-.5,.74-.82,1.09-1.26,.35-.43,.7-.81,1.13-1.15,.43-.34,.85-.65,1.35-.9,.19-.09,.38-.17,.57-.23Z"/></g><g><g><path class="cls-4" d="M195.09,86.44c0,.44-.15,.82-.17,1.15-.02,.46,.03,.88-.09,1.17-.15,.35-.56,.41-.98,.58-.29,.12-.57,.5-1.04,.56-.33,.04-.73,.02-1.16,.04-.35,.02-.73-.03-1.16-.02-.36,0-.74-.08-1.16-.08s-.8,.1-1.16,.09c-.42,0-.81,.03-1.16,.01-.44-.02-.81-.18-1.14-.22-.47-.06-.9,.04-1.19-.08-.42-.17-.54-.6-.69-.95-.12-.3-.02-.65-.04-1.11-.02-.33-.05-.71-.05-1.14s-.23-.87-.13-1.27,.31-.8,.49-1.17,.56-.62,.82-.95,.53-.61,.85-.87,.64-.49,1.02-.68,.75-.27,1.17-.37,.78-.17,1.21-.17,.86-.16,1.27-.07,.84,.22,1.21,.4,.6,.62,.92,.88,.71,.45,.97,.78,.68,.59,.86,.97,.31,.82,.4,1.23,.12,.86,.12,1.29Z"/><path class="cls-6" d="M194.91,88.36c-.01,.15-.03,.29-.08,.41-.15,.35-.56,.41-.98,.58-.28,.12-.57,.5-1.04,.56-.33,.04-.72,.02-1.16,.04-.35,.02-.73-.03-1.16-.02-.36,0-.74-.08-1.16-.08s-.8,.1-1.16,.09c-.42,0-.81,.03-1.16,.01-.44-.02-.81-.18-1.14-.22-.47-.06-.9,.04-1.19-.09-.42-.17-.54-.6-.68-.95-.03-.07-.05-.14-.05-.22,.11,.25,.26,.48,.55,.6,.3,.12,.75,.03,1.23,.09,.34,.04,.73,.21,1.19,.23,.36,.02,.76-.02,1.2-.01,.37,0,.77-.1,1.2-.1s.83,.09,1.2,.09c.44,0,.84,.04,1.2,.02,.46-.02,.87,0,1.21-.04,.49-.06,.78-.46,1.08-.58,.34-.14,.68-.21,.88-.41Z"/><polygon class="cls-6" points="183.98 87.54 184.21 87.49 184.41 87.4 184.61 87.34 184.8 87.23 185.01 87.19 185.19 87.13 185.18 87.02 184.99 87.11 184.76 87.08 184.57 87.16 184.37 87.25 184.16 87.28 183.97 87.35 183.98 87.54"/><polygon class="cls-6" points="184.91 83.66 185.21 83.77 185.5 83.81 185.77 83.89 186.07 83.91 186.34 84.01 186.58 84.07 186.66 83.93 186.37 83.9 186.13 83.7 185.85 83.65 185.56 83.61 185.29 83.5 185.02 83.44 184.91 83.66"/><polygon class="cls-6" points="193.39 83.09 193.13 83.08 192.9 83.12 192.67 83.12 192.44 83.18 192.21 83.16 192.01 83.17 191.98 83.3 192.21 83.25 192.44 83.35 192.67 83.32 192.9 83.28 193.13 83.31 193.35 83.29 193.39 83.09"/><polygon class="cls-6" points="186.89 88.99 186.66 89 186.45 89.06 186.24 89.07 186.03 89.15 185.82 89.15 185.64 89.18 185.62 89.3 185.83 89.24 186.05 89.3 186.25 89.26 186.46 89.21 186.68 89.21 186.88 89.17 186.89 88.99"/><polygon class="cls-6" points="186.66 82.05 187 82.09 187.32 82.05 187.63 82.07 187.94 82.01 188.26 82.04 188.52 82.04 188.57 81.88 188.26 81.92 187.96 81.77 187.65 81.79 187.33 81.83 187.02 81.78 186.72 81.79 186.66 82.05"/><polygon class="cls-6" points="188.22 85.31 188.55 85.34 188.84 85.3 189.13 85.32 189.42 85.26 189.71 85.3 189.96 85.29 190.01 85.14 189.72 85.18 189.44 85.05 189.15 85.06 188.85 85.1 188.56 85.05 188.28 85.06 188.22 85.31"/><polygon class="cls-6" points="191.44 84.49 191.22 84.46 191.01 84.49 190.81 84.48 190.61 84.52 190.4 84.5 190.23 84.5 190.2 84.6 190.4 84.58 190.6 84.67 190.8 84.66 191.01 84.64 191.21 84.67 191.4 84.66 191.44 84.49"/><polygon class="cls-6" points="187.9 86.5 187.68 86.52 187.47 86.5 187.27 86.51 187.06 86.47 186.86 86.49 186.69 86.49 186.66 86.38 186.86 86.41 187.05 86.32 187.26 86.33 187.46 86.35 187.66 86.32 187.86 86.33 187.9 86.5"/><polygon class="cls-6" points="190.64 86.48 190.96 86.52 191.26 86.48 191.55 86.5 191.84 86.44 192.13 86.47 192.38 86.47 192.43 86.32 192.14 86.36 191.85 86.22 191.56 86.24 191.27 86.27 190.98 86.23 190.7 86.23 190.64 86.48"/><polygon class="cls-6" points="194.6 87.81 194.25 87.77 193.94 87.81 193.63 87.8 193.31 87.86 193 87.83 192.73 87.83 192.68 87.99 192.99 87.95 193.3 88.09 193.61 88.07 193.93 88.03 194.24 88.08 194.54 88.07 194.6 87.81"/></g><path class="cls-1" d="M187.39,81.34c-.27,.16-.52,.35-.78,.56-.36,.29-.64,.59-.93,.95-.28,.35-.69,.62-.89,1.03-.2,.41-.43,.83-.53,1.28-.1,.44,.15,.91,.15,1.38s.04,.88,.06,1.25c.02,.5-.09,.89,.05,1.22,.1,.23,.18,.49,.33,.7-.05-.01-.1-.02-.14-.04-.42-.17-.54-.6-.68-.95-.12-.3-.02-.65-.04-1.11-.02-.33-.05-.71-.05-1.14s-.23-.87-.13-1.27c.09-.41,.31-.8,.49-1.17,.18-.38,.56-.62,.82-.95,.26-.33,.53-.61,.85-.87,.33-.26,.64-.49,1.02-.68,.14-.07,.28-.12,.43-.17Z"/></g></g></g><g><g><path class="cls-2" d="M263.73,60.91c-6.36,0-11.54-5.17-11.54-11.54s5.17-11.54,11.54-11.54,11.54,5.17,11.54,11.54-5.17,11.54-11.54,11.54Zm0-17.57c-3.33,0-6.04,2.71-6.04,6.04s2.71,6.04,6.04,6.04,6.04-2.71,6.04-6.04-2.71-6.04-6.04-6.04Z"/><path class="cls-2" d="M254.3,3.67c-3.05,2.62-6.58,4.86-9.33,7.41-.58,.61-1.39,1.35-1.33,1.86,.17-.07,.19-.29,.26-.46,.06-.24,.02-.44,0-.66-.04-.08,0-.07,.02-.07,.16,.11,.35,.31,.62,.54,4.69,3.8,7.96,10.01,6.33,16.15-1.28,5.17-6.2,8.92-11.25,8.64,0,0-.21-.51-.21-.51,1.82-.81,3.47-1.98,4.73-3.49,4.3-4.77,2.42-11.65-2.04-15.6-2.74-2.38-5.06-4.95-1.93-8.24,3.84-3.53,9.11-4.9,14.01-6.11,0,0,.12,.54,.12,.54h0Z"/><path class="cls-2" d="M246.43,89.66c-1.75-8.41,5.66-16.6,13.74-18.22,6.58-1.41,14.47-.58,19.82,3.91,.83,.8,2.11,2.58,.91,3.63,0,0-.47-.28-.47-.28,.19-1.44-2.67-1.8-3.74-2.04-5.04-.69-10.43-.75-15.4,.1-6.75,1.2-12.5,6.4-14.33,13.01,0,0-.54-.11-.54-.11h0Z"/><path class="cls-2" d="M296.94,24.98c-2.32-1.1-3.64-3.42-3.85-5.97-.44-6.08,5.05-11.49,11.13-10.99,1.23,.07,4.34,.71,3.82,2.45,0,0-.55,.05-.55,.05-.02-.09-.4-.16-.77-.03-2.66,1.09-5.19,3.06-7.21,5.03-2.31,2.42-3.14,6.06-2.07,9.23,0,0-.5,.23-.5,.23h0Z"/><path class="cls-2" d="M296.94,60.9c-2.32-1.1-3.64-3.42-3.85-5.97-.44-6.08,5.05-11.49,11.13-10.99,1.23,.07,4.34,.71,3.82,2.45,0,0-.55,.05-.55,.05-.02-.09-.4-.16-.77-.03-2.66,1.09-5.19,3.06-7.21,5.03-2.31,2.42-3.14,6.06-2.07,9.23,0,0-.5,.23-.5,.23h0Z"/><path class="cls-2" d="M284.26,30.36c-.02,.21,0,.19,.01,.34,.15,1.64-1.54,2.85-3.05,2.91-1.79,.14-3.11-.42-4.24-.94-1.81-.71-3.47-1.68-4.89-2.99-.12-.13-.12-.09-.28-.29,0,0-4.67-5.28-4.67-5.28,3.55-1.17,9.08-3.71,12.81-3.84,1.42-.17,5.96,.2,7.44,.23-.39,3.36-.73,7.27-3.14,9.85h0Zm-.54-.08c-.4-2.08-.77-4.12-1.09-6.15l.62,.4c-2.51,.77-5.02,1.53-7.55,2.25,0,0,.26-.86,.26-.86,.98,1.09,2.71,2.66,3.79,3.72,1.04,1.04,2.84,2.17,3.92,.68,0,0,.04-.06,.04-.06,.02-.02,.02-.06,0,.02h0Z"/></g><g><path class="cls-2" d="M86.27,60.91c-6.36,0-11.54-5.17-11.54-11.54s5.17-11.54,11.54-11.54,11.54,5.17,11.54,11.54-5.17,11.54-11.54,11.54Zm0-17.57c-3.33,0-6.04,2.71-6.04,6.04s2.71,6.04,6.04,6.04,6.04-2.71,6.04-6.04-2.71-6.04-6.04-6.04Z"/><path class="cls-2" d="M95.83,3.13c6.54-1.26,16.44-.14,19.31,7.01,1.3,3.53-.6,7.45-3.32,9.67-1.34,1.23-2.59,2.56-3.56,4.08-2.76,4.23-1.02,8.93,2.34,12.67,0,0-.21,.51-.21,.51-10.18-4.11-10.05-14.99-2.09-21.43,5.94-4.72-2.85-8.6-6.85-10.09-1.87-.73-3.8-1.36-5.74-1.88l.12-.54h0Z"/><path class="cls-2" d="M103.03,89.77c-5.48-6.22-11.68-8.83-19.5-9.2-4.09-.27-8.13-1.2-12.11-2-.37-.08-.74-.13-1.03-.15-.3-.03-.63-.08-.84,.29l-.47,.28c-.99-3.28,7.24-3.57,9.3-3.73,6.98-.5,14.67,.15,19.93,5.29,2.6,2.45,4.45,5.64,5.25,9.12l-.54,.11h0Z"/><path class="cls-2" d="M52.56,24.75c-1.65-3.41-3.05-4.42-5.31-6.3-2.17-1.75-3.94-4.25-4.35-7.11,0-.29,.02-.74-.39-.82,0,0-.55-.05-.55-.05,.61-1.88,4.13,.42,5.15,1,4.85,2.75,8.48,7.88,5.95,13.5,0,0-.5-.23-.5-.23h0Z"/><path class="cls-2" d="M52.56,60.67c-1.65-3.41-3.05-4.42-5.31-6.3-2.17-1.75-3.94-4.25-4.35-7.11,0-.29,.02-.74-.39-.82,0,0-.55-.05-.55-.05,.61-1.88,4.13,.42,5.15,1,4.85,2.75,8.48,7.88,5.95,13.5,0,0-.5-.23-.5-.23h0Z"/><path class="cls-2" d="M83.5,22.74c-.02,.21,0,.19,.01,.34,.15,1.64-1.54,2.85-3.05,2.91-1.79,.14-3.11-.42-4.24-.94-1.81-.71-3.47-1.68-4.89-2.99-.12-.13-.12-.09-.28-.29,0,0-4.67-5.28-4.67-5.28,3.55-1.17,9.08-3.71,12.81-3.84,1.42-.17,5.96,.2,7.44,.23-.39,3.36-.73,7.27-3.14,9.85h0Zm-.54-.08c-.4-2.08-.77-4.12-1.09-6.15l.62,.4c-2.51,.77-5.02,1.53-7.55,2.25,0,0,.26-.86,.26-.86,.98,1.09,2.71,2.66,3.79,3.72,1.04,1.04,2.84,2.17,3.92,.68,0,0,.04-.06,.04-.06,.02-.02,.02-.06,0,.02h0Z"/></g></g><g><path class="cls-2" d="M324.93,125.56c-6.36,0-11.54-5.17-11.54-11.54s5.17-11.54,11.54-11.54,11.54,5.17,11.54,11.54-5.17,11.54-11.54,11.54Zm0-17.57c-3.33,0-6.04,2.71-6.04,6.04s2.71,6.04,6.04,6.04,6.04-2.71,6.04-6.04-2.71-6.04-6.04-6.04Z"/><path class="cls-2" d="M304.4,133.04c-.06-.83,.03-1.5,.64-2.15,2.9-2.88,8.56,.47,11.04,2.39,.45,.23,4.97,5.51,5.43,6-3.55,1.17-9.08,3.71-12.81,3.84-1.42,.17-5.96-.2-7.44-.23,.39-3.36,.73-7.27,3.14-9.85h0Zm.54,.08c.4,2.08,.77,4.12,1.09,6.15l-.62-.4c2.51-.77,5.02-1.53,7.55-2.25,0,0-.26,.86-.26,.86-.98-1.09-2.71-2.66-3.79-3.72-1.04-1.04-2.84-2.17-3.92-.68,0,0-.04,.06-.04,.06-.02,.02-.02,.06,0-.02h0Z"/><path class="cls-2" d="M334.36,159.73c3.05-2.62,6.58-4.86,9.33-7.41,.58-.61,1.39-1.35,1.33-1.86-.17,.07-.19,.29-.26,.46-.06,.24-.02,.44,0,.66,.04,.08,0,.07-.02,.07-.16-.11-.35-.31-.62-.54-4.69-3.8-7.96-10.01-6.33-16.15,1.28-5.17,6.2-8.92,11.25-8.64l.21,.51c-1.82,.81-3.47,1.98-4.73,3.49-4.3,4.78-2.42,11.64,2.04,15.6,2.74,2.38,5.06,4.95,1.93,8.24-3.84,3.53-9.11,4.9-14.01,6.11,0,0-.12-.54-.12-.54h0Z"/><path class="cls-2" d="M342.23,73.74c1.75,8.41-5.66,16.6-13.74,18.22-6.58,1.41-14.47,.58-19.82-3.91-.83-.8-2.11-2.58-.91-3.63,0,0,.47,.28,.47,.28-.19,1.44,2.67,1.8,3.74,2.04,5.04,.69,10.43,.75,15.4-.1,6.75-1.19,12.5-6.4,14.33-13.01,0,0,.54,.11,.54,.11h0Z"/><path class="cls-2" d="M291.72,138.42c2.32,1.1,3.64,3.42,3.85,5.97,.44,6.08-5.05,11.49-11.13,10.99-1.21-.06-4.36-.73-3.82-2.45,0,0,.55-.05,.55-.05,.02,.09,.4,.16,.77,.03,2.66-1.09,5.19-3.06,7.21-5.03,2.31-2.42,3.14-6.06,2.07-9.23,0,0,.5-.23,.5-.23h0Z"/><path class="cls-2" d="M291.72,102.5c2.32,1.1,3.64,3.42,3.85,5.97,.44,6.08-5.05,11.49-11.13,10.99-1.21-.06-4.36-.73-3.82-2.45,0,0,.55-.05,.55-.05,.02,.09,.4,.16,.77,.03,2.66-1.09,5.19-3.06,7.21-5.03,2.31-2.42,3.14-6.06,2.07-9.23,0,0,.5-.23,.5-.23h0Z"/></g><path class="cls-2" d="M23.82,69.42c5.48,6.22,11.68,8.83,19.5,9.2,4.09,.27,8.13,1.2,12.11,2,.37,.08,.74,.13,1.03,.15,.3,.03,.63,.08,.84-.29l.47-.28c.99,3.28-7.24,3.57-9.3,3.73-6.98,.5-14.67-.15-19.93-5.29-2.6-2.45-4.45-5.64-5.25-9.12l.54-.11h0Z"/><g><path class="cls-2" d="M29.29,124.84c-6.36,0-11.54-5.17-11.54-11.54s5.17-11.54,11.54-11.54,11.54,5.17,11.54,11.54-5.17,11.54-11.54,11.54Zm0-17.57c-3.33,0-6.04,2.71-6.04,6.04s2.71,6.04,6.04,6.04,6.04-2.71,6.04-6.04-2.71-6.04-6.04-6.04Z"/><path class="cls-2" d="M19.73,159.55c-6.54,1.26-16.44,.14-19.31-7.01-1.3-3.53,.6-7.45,3.32-9.67,1.34-1.23,2.59-2.56,3.56-4.08,2.76-4.23,1.02-8.93-2.34-12.67,0,0,.21-.51,.21-.51,10.18,4.11,10.05,14.99,2.09,21.43-5.94,4.72,2.85,8.6,6.85,10.09,1.87,.73,3.8,1.36,5.74,1.88l-.12,.54h0Z"/><path class="cls-2" d="M62.99,137.93c1.65,3.41,3.05,4.42,5.31,6.3,2.17,1.75,3.94,4.25,4.35,7.11,0,.29-.02,.74,.39,.82,0,0,.55,.05,.55,.05-.61,1.88-4.13-.42-5.15-1-4.85-2.75-8.48-7.88-5.95-13.5,0,0,.5,.23,.5,.23h0Z"/><path class="cls-2" d="M48.49,140.45c-.02,.21,0,.19,.01,.34,.15,1.64-1.54,2.85-3.05,2.91-1.79,.14-3.11-.42-4.24-.94-1.81-.71-3.47-1.68-4.89-2.99-.12-.13-.12-.09-.28-.29l-4.67-5.28c3.55-1.17,9.08-3.71,12.81-3.84,1.42-.17,5.96,.2,7.44,.23-.39,3.36-.73,7.27-3.14,9.85h0Zm-.54-.08c-.4-2.08-.77-4.12-1.09-6.15l.62,.4c-2.51,.77-5.02,1.53-7.55,2.25,0,0,.26-.86,.26-.86,.98,1.09,2.71,2.66,3.79,3.72,1.04,1.04,2.84,2.17,3.92,.68,0,0,.04-.06,.04-.06,.02-.02,.02-.06,0,.02h0Z"/><path class="cls-2" d="M62.99,102.01c1.65,3.41,3.05,4.42,5.31,6.3,2.17,1.75,3.94,4.25,4.35,7.11,0,.29-.02,.74,.39,.82,0,0,.55,.05,.55,.05-.61,1.88-4.13-.42-5.15-1-4.85-2.75-8.48-7.88-5.95-13.5,0,0,.5,.23,.5,.23h0Z"/></g></svg>