<?xml version="1.0" encoding="UTF-8"?><svg id="Camada_1" xmlns="http://www.w3.org/2000/svg" viewBox="0 0 230 230"><defs><style>.cls-1{fill:#ffeac4;}.cls-2{fill:#edc58c;}.cls-3{fill:#8f6735;}.cls-4{fill:#b57b35;fill-rule:evenodd;}</style></defs><path class="cls-4" d="M113.16,.01c35.19,.52,64.41,23.19,86.17,50.18,21.56,26.73,35.54,59.32,29.09,92.75-6.75,34.98-29.1,66.99-62.61,81.04-32.11,13.46-67.69,2.32-98.7-13.4-29.58-14.99-55.25-37.4-63.64-68.88-8.71-32.63-.67-67.22,20.16-94.12C45.18,19.74,77.41-.52,113.16,.01Z"/><g><g><path class="cls-3" d="M217.27,50.32c0,2.22-.04,4.51-.41,6.63s-1.16,4.33-1.9,6.36-1.71,4.12-2.8,6c-1.1,1.9-2.22,3.9-3.62,5.57-1.41,1.67-3.38,2.89-5.06,4.29-1.67,1.4-3.59,2.48-5.48,3.58s-3.62,2.62-5.69,3.37-4.28,1.05-6.46,1.44-4.34,.36-6.56,.36-4.52,.41-6.63,.04-4.05-1.95-6.08-2.69-4.15-1.37-6.03-2.46c-1.9-1.1-4.16-1.79-5.82-3.19s-2.5-3.72-3.9-5.39c-1.4-1.67-3.03-3.17-4.12-5.07-1.09-1.88-2.16-3.83-2.91-5.9-.74-2.03-.54-4.32-.92-6.5s-.78-4.2-.78-6.42-.36-4.44,0-6.56c.38-2.18,1.54-4.12,2.28-6.15s.92-4.41,2.01-6.29c1.1-1.9,2.86-3.37,4.26-5.04,1.41-1.67,2.95-3.19,4.62-4.6s3.04-3.33,4.94-4.43,3.93-2.16,6-2.91c2.03-.74,4.37-.76,6.55-1.14s4.32-.58,6.55-.58,4.29,.97,6.41,1.34,4.25,.75,6.28,1.49,3.83,1.9,5.71,2.99c1.9,1.1,4.02,1.76,5.69,3.17,1.67,1.41,2.79,3.31,4.19,4.98s3.71,2.73,4.8,4.63c1.09,1.88,1.77,4.07,2.53,6.14,.74,2.03,.76,4.3,1.14,6.48,.37,2.12,1.23,4.26,1.23,6.48Z"/><path class="cls-2" d="M210.93,45.8c0,2.22-.1,4.53-.48,6.65s-1.54,4.21-2.28,6.24c-.75,2.07-1.68,4.08-2.77,5.96s-2.97,3.21-4.37,4.88-2.76,3.28-4.43,4.69c-1.67,1.4-3.54,2.36-5.44,3.46s-3.51,2.6-5.58,3.35-4.23,.75-6.41,1.14c-2.12,.37-4.19,1.84-6.41,1.84s-4.46-.51-6.58-.88-4.15-1.5-6.19-2.24c-2.07-.75-4.18-1.37-6.06-2.46s-3.53-2.58-5.2-3.98c-1.67-1.41-3.48-2.7-4.89-4.37s-2.63-3.52-3.72-5.42c-1.09-1.88-1.38-4.12-2.13-6.19s-1.4-4.03-1.78-6.21c-.37-2.12-1.56-4.22-1.56-6.45s.25-4.49,.62-6.61c.38-2.18,2.12-3.96,2.86-5.99s1.19-4.19,2.28-6.07,2.61-3.43,4.01-5.1,2.31-3.85,3.98-5.25c1.67-1.4,3.76-2.27,5.66-3.36s3.62-2.6,5.69-3.36,4.19-1.55,6.37-1.93,4.42,.21,6.64,.21,4.41,.06,6.53,.44c2.18,.38,4.1,1.52,6.13,2.26s4.31,1.04,6.19,2.13,4.04,1.98,5.71,3.39,3.05,3.25,4.45,4.93,2.63,3.54,3.73,5.44c1.09,1.88,1.44,4.12,2.19,6.19s1.35,4.07,1.73,6.25c.37,2.12,1.51,4.24,1.51,6.47Z"/><path class="cls-1" d="M214.27,49.32c0,2.22-.04,4.51-.41,6.63s-1.16,4.33-1.9,6.36-1.71,4.12-2.8,6c-1.1,1.9-2.22,3.9-3.62,5.57-1.41,1.67-3.38,2.89-5.06,4.29-1.67,1.4-3.59,2.48-5.48,3.58s-3.62,2.62-5.69,3.37-4.28,1.05-6.46,1.44-4.34,.36-6.56,.36-4.52,.41-6.63,.04-4.05-1.95-6.08-2.69-4.15-1.37-6.03-2.46c-1.9-1.1-4.16-1.79-5.82-3.19s-2.5-3.72-3.9-5.39c-1.4-1.67-3.03-3.17-4.12-5.07-1.09-1.88-2.16-3.83-2.91-5.9-.74-2.03-.54-4.32-.92-6.5s-.78-4.2-.78-6.42-.36-4.44,0-6.56c.38-2.18,1.54-4.12,2.28-6.15s.92-4.41,2.01-6.29c1.1-1.9,2.86-3.37,4.26-5.04,1.41-1.67,2.95-3.19,4.62-4.6s3.04-3.33,4.94-4.43,3.93-2.16,6-2.91c2.03-.74,4.37-.76,6.55-1.14s4.32-.58,6.55-.58,4.29,.97,6.41,1.34,4.25,.75,6.28,1.49,3.83,1.9,5.71,2.99c1.9,1.1,4.02,1.76,5.69,3.17,1.67,1.41,2.79,3.31,4.19,4.98s3.71,2.73,4.8,4.63c1.09,1.88,1.77,4.07,2.53,6.14,.74,2.03,.76,4.3,1.14,6.48,.37,2.12,1.23,4.26,1.23,6.48Z"/><polygon class="cls-2" points="161.24 25.61 158.71 25.77 156.44 25.34 154.17 25.35 151.9 24.78 149.62 24.92 147.66 24.81 147.37 23.61 149.61 24.02 151.88 23.09 154.15 23.32 156.42 23.73 158.7 23.49 160.9 23.66 161.24 25.61"/><polygon class="cls-2" points="184.84 43.36 182.31 43.52 180.04 43.09 177.77 43.1 175.5 42.53 173.22 42.66 171.27 42.56 170.97 41.36 173.21 41.77 175.48 40.84 177.75 41.07 180.02 41.48 182.3 41.24 184.5 41.41 184.84 43.36"/><polygon class="cls-2" points="210.57 59.26 208.03 59.42 205.76 58.99 203.5 59 201.22 58.44 198.95 58.57 196.99 58.46 196.7 57.26 198.94 57.68 201.21 56.75 203.48 56.97 205.75 57.39 208.03 57.14 210.23 57.32 210.57 59.26"/><polygon class="cls-2" points="161.24 59.26 158.71 59.42 156.44 58.99 154.17 59 151.9 58.44 149.62 58.57 147.66 58.46 147.37 57.26 149.61 57.68 151.88 56.75 154.15 56.97 156.42 57.39 158.7 57.14 160.9 57.32 161.24 59.26"/><polygon class="cls-2" points="179.99 76.17 177.45 76.33 175.18 75.91 172.92 75.92 170.64 75.35 168.37 75.48 166.41 75.37 166.12 74.17 168.36 74.59 170.63 73.66 172.9 73.88 175.17 74.3 177.45 74.05 179.65 74.23 179.99 76.17"/></g><g><path class="cls-3" d="M196.77,213.75c-3.46,0-3.46-.78-6.91-.78-3.46,0-3.46,.22-6.91,.22-3.46,0-3.46,.55-6.91,.55-3.46,0-3.46-.6-6.91-.6s-3.46,.83-6.92,.83c-3.46,0-3.46-.59-6.91-.59-3.46,0-3.46-.02-6.92-.02-3.46,0-3.46,.78-6.92,.78-3.46,0-3.46,.1-6.92,.1-3.28,0-6.08-3.38-6.08-6.66,0-3.46-.01-3.46-.01-6.91,0-3.46,.77-3.46,.77-6.91,0-3.46-.18-3.46-.18-6.91,0-3.46,.29-3.46,.29-6.91,0-3.46-.67-3.46-.67-6.92,0-3.46,.55-3.46,.55-6.91s-1.27-3.46-1.27-6.92c0-3.46,.31-3.46,.31-6.92,0-3.46,.56-3.46,.56-6.92,0-3.28,2.44-6.06,5.72-6.06,3.46,0,3.46,.27,6.91,.27s3.46-.36,6.91-.36,3.46,.06,6.91,.06,3.46,.68,6.91,.68,3.46-.11,6.92-.11,3.46-.99,6.91-.99,3.46,.05,6.92,.05,3.46,1.21,6.92,1.21,3.46-.5,6.92-.5c3.28,0,5.4,2.47,5.4,5.75,0,3.46,.89,3.46,.89,6.91s-.49,3.46-.49,6.91,.63,3.46,.63,6.91c0,3.46,.22,3.46,.22,6.91s-.77,3.46-.77,6.92c0,3.46,.13,3.46,.13,6.91,0,3.46-.6,3.46-.6,6.92,0,3.46,.68,3.46,.68,6.92,0,3.46,.5,3.46,.5,6.92,0,3.28-3.31,6.17-6.59,6.17Z"/><path class="cls-2" d="M192.32,214.28c-3.23,0-3.23-.81-6.46-.81-3.23,0-3.23,.22-6.46,.22-3.23,0-3.23,.57-6.46,.57-3.23,0-3.23-.62-6.46-.62s-3.23,.86-6.46,.86c-3.23,0-3.23-.61-6.46-.61-3.23,0-3.23-.02-6.46-.02-3.23,0-3.23,.81-6.47,.81s-3.24,.1-6.47,.1-3.24-.6-6.47-.6c-3.28,0-6.1-2.8-6.1-6.08,0-3.13,.8-3.13,.8-6.26s-.19-3.13-.19-6.26,.3-3.13,.3-6.26-.69-3.13-.69-6.26c0-3.13,.57-3.13,.57-6.26,0-3.13-1.31-3.13-1.31-6.26,0-3.13,.32-3.13,.32-6.26,0-3.13,.58-3.13,.58-6.27,0-3.14-.34-3.14-.34-6.27,0-3.14,.28-3.14,.28-6.27,0-3.28,2.49-6.15,5.78-6.15s3.23,.06,6.46,.06,3.23,.7,6.46,.7,3.23-.12,6.46-.12,3.23-1.03,6.46-1.03,3.23,.05,6.46,.05,3.23,1.25,6.46,1.25,3.23-.51,6.46-.51,3.23,.36,6.47,.36,3.24-.92,6.47-.92,3.24,.5,6.47,.5,6.44,2.51,6.44,5.79c0,3.13,.23,3.13,.23,6.26,0,3.13-.8,3.13-.8,6.26s.13,3.13,.13,6.26-.62,3.13-.62,6.26c0,3.13,.71,3.13,.71,6.26,0,3.13,.52,3.13,.52,6.26s-.34,3.13-.34,6.26-.07,3.13-.07,6.27c0,3.14-.64,3.14-.64,6.27s.06,3.14,.06,6.27c0,3.28-2.33,6.18-5.62,6.18Z"/><path class="cls-1" d="M193.76,217.75c-3.46,0-3.46-.78-6.91-.78-3.46,0-3.46,.22-6.91,.22-3.46,0-3.46,.55-6.91,.55-3.46,0-3.46-.6-6.91-.6s-3.46,.83-6.92,.83c-3.46,0-3.46-.59-6.91-.59-3.46,0-3.46-.02-6.92-.02-3.46,0-3.46,.78-6.92,.78-3.46,0-3.46,.1-6.92,.1-3.28,0-6.08-3.38-6.08-6.66,0-3.46-.01-3.46-.01-6.91,0-3.46,.77-3.46,.77-6.91,0-3.46-.18-3.46-.18-6.91,0-3.46,.29-3.46,.29-6.91,0-3.46-.67-3.46-.67-6.92,0-3.46,.55-3.46,.55-6.91s-1.27-3.46-1.27-6.92c0-3.46,.31-3.46,.31-6.92,0-3.46,.56-3.46,.56-6.92,0-3.28,2.44-6.06,5.72-6.06,3.46,0,3.46,.27,6.91,.27s3.46-.36,6.91-.36,3.46,.06,6.91,.06,3.46,.68,6.91,.68,3.46-.11,6.92-.11,3.46-.99,6.91-.99,3.46,.05,6.92,.05,3.46,1.21,6.92,1.21,3.46-.5,6.92-.5c3.28,0,5.4,2.47,5.4,5.75,0,3.46,.89,3.46,.89,6.91s-.49,3.46-.49,6.91,.63,3.46,.63,6.91c0,3.46,.22,3.46,.22,6.91s-.77,3.46-.77,6.92c0,3.46,.13,3.46,.13,6.91,0,3.46-.6,3.46-.6,6.92,0,3.46,.68,3.46,.68,6.92,0,3.46,.5,3.46,.5,6.92,0,3.28-3.31,6.17-6.59,6.17Z"/><polygon class="cls-2" points="136.78 153.23 134.28 153.39 132.04 152.97 129.8 152.98 127.56 152.42 125.31 152.55 123.38 152.44 123.09 151.26 125.3 151.67 127.54 150.75 129.78 150.97 132.02 151.38 134.27 151.14 136.44 151.31 136.78 153.23"/><polygon class="cls-2" points="153.48 172.51 150.98 172.67 148.74 172.25 146.5 172.26 144.25 171.69 142.01 171.83 140.08 171.72 139.79 170.54 142 170.95 144.24 170.03 146.48 170.25 148.72 170.66 150.97 170.42 153.14 170.59 153.48 172.51"/><polygon class="cls-2" points="174.4 189.44 171.9 189.6 169.66 189.18 167.42 189.19 165.17 188.63 162.93 188.76 161 188.65 160.71 187.47 162.92 187.88 165.16 186.96 167.4 187.18 169.64 187.59 171.89 187.35 174.06 187.52 174.4 189.44"/><polygon class="cls-2" points="192.91 206.14 190.41 206.3 188.17 205.88 185.93 205.89 183.68 205.33 181.44 205.46 179.51 205.35 179.22 204.17 181.43 204.58 183.67 203.66 185.91 203.88 188.15 204.29 190.4 204.05 192.57 204.22 192.91 206.14"/><polygon class="cls-2" points="139.29 206.14 136.79 206.3 134.54 205.88 132.31 205.89 130.06 205.33 127.82 205.46 125.88 205.35 125.6 204.17 127.81 204.58 130.05 203.66 132.29 203.88 134.53 204.29 136.78 204.05 138.95 204.22 139.29 206.14"/><polygon class="cls-2" points="192.91 149.02 190.41 149.18 188.17 148.76 185.93 148.77 183.68 148.21 181.44 148.34 179.51 148.23 179.22 147.05 181.43 147.46 183.67 146.54 185.91 146.76 188.15 147.17 190.4 146.93 192.57 147.1 192.91 149.02"/></g><g><path class="cls-2" d="M52.03,54.19c-1.83,3.1-2.72,2.58-4.54,5.67s-.88,3.66-2.71,6.76c-1.83,3.1-3.09,2.35-4.92,5.45s-1.3,3.42-3.12,6.52-2.09,2.95-3.91,6.06-1.45,3.33-3.27,6.43c-1.83,3.1-2.05,2.98-3.87,6.08-1.83,3.1-2.01,2.99-3.84,6.1-1.83,3.1-.6,3.83-2.43,6.93-1.83,3.11-2.31,2.82-4.14,5.93-1.83,3.11-2.18,2.9-4.01,6.01s-.99,3.61-2.82,6.71c-1.38,2.34-.38,4.34,2.34,4.34,3.65,0,3.65,.03,7.3,.03s3.66,.11,7.31,.11,3.65,.43,7.31,.43,3.66,.76,7.31,.76,3.66-1.33,7.31-1.33,3.66-.2,7.31-.2,3.66,.24,7.31,.24,3.66,0,7.32,0,3.66-.29,7.31-.29,3.66,.69,7.32,.69,3.66,.28,7.32,.28,3.66-.82,7.32-.82c2.72,0,4.14-2.13,2.76-4.47-1.83-3.1-1.6-3.24-3.42-6.33-1.83-3.1-2.5-2.71-4.32-5.81s-.7-3.76-2.53-6.86c-1.83-3.1-2.18-2.89-4.01-5.99s-2.63-2.63-4.46-5.73c-1.83-3.1-.68-3.78-2.51-6.88-1.83-3.1-2.33-2.81-4.16-5.91-1.83-3.1-1.98-3.01-3.81-6.11s-.97-3.61-2.8-6.71c-1.83-3.11-2.07-2.96-3.9-6.07-1.83-3.11-2.44-2.75-4.27-5.86s-1.17-3.5-3-6.61c-1.36-2.31-4.72-1.82-6.08,.49Z"/><path class="cls-3" d="M58.15,58.53c-1.79,3.1-2.66,2.59-4.45,5.68-1.79,3.1-.86,3.63-2.65,6.73-1.79,3.1-3.04,2.37-4.82,5.47-1.79,3.1-1.26,3.4-3.05,6.5-1.79,3.1-2.04,2.95-3.83,6.05-1.79,3.1-1.41,3.32-3.2,6.42s-2,2.98-3.79,6.07c-1.79,3.1-1.97,2.99-3.76,6.09-1.79,3.1-.58,3.8-2.37,6.9-1.79,3.1-2.26,2.83-4.05,5.93s-2.13,2.91-3.93,6.01c-1.79,3.1-.96,3.58-2.75,6.69-1.35,2.34-.34,4.34,2.37,4.34,3.57,0,3.57,.03,7.15,.03s3.58,.11,7.15,.11,3.58,.42,7.15,.42,3.58,.74,7.15,.74,3.58-1.31,7.16-1.31,3.58-.2,7.16-.2,3.58,.23,7.16,.23,3.58,0,7.15,0,3.58-.28,7.16-.28,3.58,.67,7.16,.67,3.58,.27,7.17,.27,3.58-.8,7.17-.8c2.7,0,4.13-2.12,2.78-4.46-1.79-3.1-1.56-3.23-3.35-6.32-1.79-3.1-2.45-2.72-4.24-5.82-1.79-3.1-.68-3.73-2.47-6.83-1.79-3.1-2.14-2.9-3.93-5.99-1.79-3.1-2.58-2.64-4.37-5.74-1.79-3.1-.66-3.75-2.45-6.85-1.79-3.1-2.29-2.81-4.08-5.91-1.79-3.1-1.94-3.01-3.73-6.11-1.79-3.1-.94-3.59-2.73-6.69-1.79-3.1-2.03-2.97-3.82-6.07-1.79-3.1-2.39-2.76-4.18-5.86-1.79-3.1-1.14-3.48-2.93-6.59-1.35-2.34-4.76-1.87-6.11,.47Z"/><path class="cls-1" d="M54.15,56.52c-1.79,3.1-2.66,2.59-4.45,5.68-1.79,3.1-.86,3.63-2.65,6.73-1.79,3.1-3.04,2.37-4.82,5.47-1.79,3.1-1.26,3.4-3.05,6.5-1.79,3.1-2.04,2.95-3.83,6.05-1.79,3.1-1.41,3.32-3.2,6.42s-2,2.98-3.79,6.07c-1.79,3.1-1.97,2.99-3.76,6.09-1.79,3.1-.58,3.8-2.37,6.9-1.79,3.1-2.26,2.83-4.05,5.93s-2.13,2.91-3.93,6.01c-1.79,3.1-.96,3.58-2.75,6.69-1.35,2.34-.34,4.34,2.37,4.34,3.57,0,3.57,.03,7.15,.03s3.58,.11,7.15,.11,3.58,.42,7.15,.42,3.58,.74,7.15,.74,3.58-1.31,7.16-1.31,3.58-.2,7.16-.2,3.58,.23,7.16,.23,3.58,0,7.15,0,3.58-.28,7.16-.28,3.58,.67,7.16,.67,3.58,.27,7.17,.27,3.58-.8,7.17-.8c2.7,0,4.13-2.12,2.78-4.46-1.79-3.1-1.56-3.23-3.35-6.32-1.79-3.1-2.45-2.72-4.24-5.82-1.79-3.1-.68-3.73-2.47-6.83-1.79-3.1-2.14-2.9-3.93-5.99-1.79-3.1-2.58-2.64-4.37-5.74-1.79-3.1-.66-3.75-2.45-6.85-1.79-3.1-2.29-2.81-4.08-5.91-1.79-3.1-1.94-3.01-3.73-6.11-1.79-3.1-.94-3.59-2.73-6.69-1.79-3.1-2.03-2.97-3.82-6.07-1.79-3.1-2.39-2.76-4.18-5.86-1.79-3.1-1.14-3.48-2.93-6.59-1.35-2.34-4.76-1.87-6.11,.47Z"/><polygon class="cls-2" points="89.93 126.39 87.2 126.56 84.76 126.1 82.32 126.11 79.88 125.5 77.43 125.64 75.33 125.53 75.01 124.23 77.42 124.68 79.86 123.68 82.3 123.92 84.74 124.37 87.19 124.11 89.55 124.3 89.93 126.39"/><polygon class="cls-2" points="53.66 109.36 50.93 109.54 48.49 109.08 46.06 109.09 43.61 108.47 41.16 108.62 39.06 108.5 38.75 107.21 41.16 107.66 43.6 106.66 46.03 106.9 48.48 107.35 50.92 107.08 53.29 107.27 53.66 109.36"/><polygon class="cls-2" points="54.94 79.65 52.21 79.82 49.77 79.36 47.34 79.37 44.89 78.76 42.45 78.91 40.34 78.79 40.03 77.5 42.44 77.95 44.88 76.95 47.32 77.19 49.76 77.63 52.21 77.37 54.57 77.56 54.94 79.65"/><polygon class="cls-2" points="71.74 98.15 69.01 98.32 66.57 97.86 64.13 97.88 61.69 97.26 59.24 97.41 57.14 97.29 56.83 96 59.23 96.45 61.68 95.45 64.11 95.69 66.56 96.14 69 95.87 71.37 96.06 71.74 98.15"/><polygon class="cls-2" points="28.43 124.59 25.7 124.76 23.26 124.3 20.82 124.31 18.38 123.7 15.93 123.84 13.83 123.73 13.52 122.44 15.92 122.88 18.36 121.88 20.8 122.12 23.24 122.57 25.69 122.31 28.06 122.5 28.43 124.59"/></g></g></svg>