<?xml version="1.0" encoding="UTF-8"?><svg id="Camada_1" xmlns="http://www.w3.org/2000/svg" viewBox="0 0 230 230"><defs><style>.cls-1{fill:#ffeac4;}.cls-2{fill:#edc58c;}</style></defs><g><path class="cls-2" d="M226.66,37.81c0,2.22-.1,4.53-.48,6.65s-1.54,4.21-2.28,6.24c-.75,2.07-1.68,4.08-2.77,5.96s-2.97,3.21-4.37,4.88-2.76,3.28-4.43,4.69c-1.67,1.4-3.54,2.36-5.44,3.46s-3.51,2.6-5.58,3.35-4.23,.75-6.41,1.14c-2.12,.37-4.19,1.84-6.41,1.84s-4.46-.51-6.58-.88-4.15-1.5-6.19-2.24c-2.07-.75-4.18-1.37-6.06-2.46s-3.53-2.58-5.2-3.98c-1.67-1.41-3.48-2.7-4.89-4.37s-2.63-3.52-3.72-5.42c-1.09-1.88-1.38-4.12-2.13-6.19s-1.4-4.03-1.78-6.21c-.37-2.12-1.56-4.22-1.56-6.45s.25-4.49,.62-6.61c.38-2.18,2.12-3.96,2.86-5.99s1.19-4.19,2.28-6.07,2.61-3.43,4.01-5.1,2.31-3.85,3.98-5.25c1.67-1.4,3.76-2.27,5.66-3.36s3.62-2.6,5.69-3.36,4.19-1.55,6.37-1.93,4.42,.21,6.64,.21,4.41,.06,6.53,.44c2.18,.38,4.1,1.52,6.13,2.26s4.31,1.04,6.19,2.13,4.04,1.98,5.71,3.39,3.05,3.25,4.45,4.93,2.63,3.54,3.73,5.44c1.09,1.88,1.44,4.12,2.19,6.19s1.35,4.07,1.73,6.25c.37,2.12,1.51,4.24,1.51,6.47Z"/><path class="cls-1" d="M230,41.33c0,2.22-.04,4.51-.41,6.63s-1.16,4.33-1.9,6.36-1.71,4.12-2.8,6c-1.1,1.9-2.22,3.9-3.62,5.57-1.41,1.67-3.38,2.89-5.06,4.29-1.67,1.4-3.59,2.48-5.48,3.58s-3.62,2.62-5.69,3.37-4.28,1.05-6.46,1.44-4.34,.36-6.56,.36-4.52,.41-6.63,.04-4.05-1.95-6.08-2.69-4.15-1.37-6.03-2.46c-1.9-1.1-4.16-1.79-5.82-3.19s-2.5-3.72-3.9-5.39c-1.4-1.67-3.03-3.17-4.12-5.07-1.09-1.88-2.16-3.83-2.91-5.9-.74-2.03-.54-4.32-.92-6.5s-.78-4.2-.78-6.42-.36-4.44,0-6.56c.38-2.18,1.54-4.12,2.28-6.15s.92-4.41,2.01-6.29c1.1-1.9,2.86-3.37,4.26-5.04,1.41-1.67,2.95-3.19,4.62-4.6s3.04-3.33,4.94-4.43,3.93-2.16,6-2.91c2.03-.74,4.37-.76,6.55-1.14s4.32-.58,6.55-.58,4.29,.97,6.41,1.34,4.25,.75,6.28,1.49,3.83,1.9,5.71,2.99c1.9,1.1,4.02,1.76,5.69,3.17,1.67,1.41,2.79,3.31,4.19,4.98s3.71,2.73,4.8,4.63c1.09,1.88,1.77,4.07,2.53,6.14,.74,2.03,.76,4.3,1.14,6.48,.37,2.12,1.23,4.26,1.23,6.48Z"/><polygon class="cls-2" points="176.98 17.61 174.44 17.78 172.17 17.35 169.9 17.36 167.63 16.79 165.35 16.92 163.4 16.82 163.11 15.62 165.35 16.03 167.62 15.1 169.88 15.33 172.16 15.74 174.43 15.5 176.63 15.67 176.98 17.61"/><polygon class="cls-2" points="200.58 35.36 198.04 35.52 195.77 35.1 193.5 35.11 191.23 34.54 188.96 34.67 187 34.56 186.71 33.36 188.95 33.78 191.22 32.85 193.48 33.07 195.76 33.49 198.03 33.24 200.23 33.42 200.58 35.36"/><polygon class="cls-2" points="226.3 51.27 223.77 51.43 221.5 51 219.23 51.01 216.96 50.44 214.68 50.58 212.73 50.47 212.44 49.27 214.67 49.69 216.94 48.75 219.21 48.98 221.48 49.39 223.76 49.15 225.96 49.32 226.3 51.27"/><polygon class="cls-2" points="176.98 51.27 174.44 51.43 172.17 51 169.9 51.01 167.63 50.44 165.35 50.58 163.4 50.47 163.11 49.27 165.35 49.69 167.62 48.75 169.88 48.98 172.16 49.39 174.43 49.15 176.63 49.32 176.98 51.27"/><polygon class="cls-2" points="195.72 68.18 193.19 68.34 190.92 67.91 188.65 67.92 186.38 67.36 184.1 67.49 182.15 67.38 181.86 66.18 184.09 66.6 186.36 65.67 188.63 65.89 190.9 66.31 193.18 66.06 195.38 66.24 195.72 68.18"/></g><g><path class="cls-2" d="M168.88,226.04c-3.23,0-3.23-.81-6.46-.81-3.23,0-3.23,.22-6.46,.22-3.23,0-3.23,.57-6.46,.57-3.23,0-3.23-.62-6.46-.62s-3.23,.86-6.46,.86c-3.23,0-3.23-.61-6.46-.61-3.23,0-3.23-.02-6.46-.02-3.23,0-3.23,.81-6.47,.81s-3.24,.1-6.47,.1-3.24-.6-6.47-.6c-3.28,0-6.1-2.8-6.1-6.08,0-3.13,.8-3.13,.8-6.26s-.19-3.13-.19-6.26,.3-3.13,.3-6.26-.69-3.13-.69-6.26c0-3.13,.57-3.13,.57-6.26,0-3.13-1.31-3.13-1.31-6.26,0-3.13,.32-3.13,.32-6.26,0-3.13,.58-3.13,.58-6.27,0-3.14-.34-3.14-.34-6.27,0-3.14,.28-3.14,.28-6.27,0-3.28,2.49-6.15,5.78-6.15s3.23,.06,6.46,.06,3.23,.7,6.46,.7,3.23-.12,6.46-.12,3.23-1.03,6.46-1.03,3.23,.05,6.46,.05,3.23,1.25,6.46,1.25,3.23-.51,6.46-.51,3.23,.36,6.47,.36,3.24-.92,6.47-.92,3.24,.5,6.47,.5,6.44,2.51,6.44,5.79c0,3.13,.23,3.13,.23,6.26,0,3.13-.8,3.13-.8,6.26s.13,3.13,.13,6.26-.62,3.13-.62,6.26c0,3.13,.71,3.13,.71,6.26,0,3.13,.52,3.13,.52,6.26s-.34,3.13-.34,6.26-.07,3.13-.07,6.27c0,3.14-.64,3.14-.64,6.27s.06,3.14,.06,6.27c0,3.28-2.33,6.18-5.62,6.18Z"/><path class="cls-1" d="M170.33,229.51c-3.46,0-3.46-.78-6.91-.78-3.46,0-3.46,.22-6.91,.22-3.46,0-3.46,.55-6.91,.55-3.46,0-3.46-.6-6.91-.6s-3.46,.83-6.92,.83c-3.46,0-3.46-.59-6.91-.59-3.46,0-3.46-.02-6.92-.02-3.46,0-3.46,.78-6.92,.78-3.46,0-3.46,.1-6.92,.1-3.28,0-6.08-3.38-6.08-6.66,0-3.46-.01-3.46-.01-6.91,0-3.46,.77-3.46,.77-6.91,0-3.46-.18-3.46-.18-6.91,0-3.46,.29-3.46,.29-6.91,0-3.46-.67-3.46-.67-6.92,0-3.46,.55-3.46,.55-6.91s-1.27-3.46-1.27-6.92c0-3.46,.31-3.46,.31-6.92,0-3.46,.56-3.46,.56-6.92,0-3.28,2.44-6.06,5.72-6.06,3.46,0,3.46,.27,6.91,.27s3.46-.36,6.91-.36,3.46,.06,6.91,.06,3.46,.68,6.91,.68,3.46-.11,6.92-.11,3.46-.99,6.91-.99,3.46,.05,6.92,.05,3.46,1.21,6.92,1.21,3.46-.5,6.92-.5c3.28,0,5.4,2.47,5.4,5.75,0,3.46,.89,3.46,.89,6.91s-.49,3.46-.49,6.91,.63,3.46,.63,6.91c0,3.46,.22,3.46,.22,6.91s-.77,3.46-.77,6.92c0,3.46,.13,3.46,.13,6.91,0,3.46-.6,3.46-.6,6.92,0,3.46,.68,3.46,.68,6.92,0,3.46,.5,3.46,.5,6.92,0,3.28-3.31,6.17-6.59,6.17Z"/><polygon class="cls-2" points="113.35 164.99 110.84 165.15 108.6 164.73 106.36 164.74 104.12 164.18 101.87 164.31 99.94 164.2 99.65 163.02 101.86 163.43 104.1 162.51 106.34 162.73 108.59 163.14 110.83 162.9 113.01 163.07 113.35 164.99"/><polygon class="cls-2" points="130.04 184.27 127.54 184.43 125.3 184.01 123.06 184.02 120.82 183.45 118.57 183.59 116.64 183.48 116.35 182.29 118.56 182.71 120.8 181.79 123.04 182.01 125.28 182.42 127.53 182.18 129.7 182.35 130.04 184.27"/><polygon class="cls-2" points="150.96 201.2 148.46 201.36 146.22 200.94 143.98 200.95 141.74 200.39 139.49 200.52 137.56 200.41 137.27 199.23 139.48 199.64 141.72 198.72 143.96 198.94 146.2 199.35 148.45 199.11 150.62 199.28 150.96 201.2"/><polygon class="cls-2" points="169.48 217.9 166.97 218.06 164.73 217.64 162.49 217.65 160.25 217.09 158 217.22 156.07 217.11 155.78 215.93 157.99 216.34 160.23 215.42 162.47 215.64 164.72 216.05 166.96 215.81 169.13 215.98 169.48 217.9"/><polygon class="cls-2" points="115.85 217.9 113.35 218.06 111.11 217.64 108.87 217.65 106.62 217.09 104.38 217.22 102.45 217.11 102.16 215.93 104.37 216.34 106.61 215.42 108.85 215.64 111.09 216.05 113.34 215.81 115.51 215.98 115.85 217.9"/><polygon class="cls-2" points="169.48 160.78 166.97 160.94 164.73 160.52 162.49 160.53 160.25 159.97 158 160.1 156.07 159.99 155.78 158.81 157.99 159.22 160.23 158.3 162.47 158.52 164.72 158.93 166.96 158.69 169.13 158.86 169.48 160.78"/></g><g><path class="cls-2" d="M44.21,34.1c-1.83,3.1-2.72,2.58-4.54,5.67s-.88,3.66-2.71,6.76c-1.83,3.1-3.09,2.35-4.92,5.45s-1.3,3.42-3.12,6.52-2.09,2.95-3.91,6.06-1.45,3.33-3.27,6.43c-1.83,3.1-2.05,2.98-3.87,6.08-1.83,3.1-2.01,2.99-3.84,6.1-1.83,3.1-.6,3.83-2.43,6.93-1.83,3.11-2.31,2.82-4.14,5.93-1.83,3.11-2.18,2.9-4.01,6.01s-.99,3.61-2.82,6.71c-1.38,2.34-.38,4.34,2.34,4.34,3.65,0,3.65,.03,7.3,.03s3.66,.11,7.31,.11,3.65,.43,7.31,.43,3.66,.76,7.31,.76,3.66-1.33,7.31-1.33,3.66-.2,7.31-.2,3.66,.24,7.31,.24,3.66,0,7.32,0,3.66-.29,7.31-.29,3.66,.69,7.32,.69,3.66,.28,7.32,.28,3.66-.82,7.32-.82c2.72,0,4.14-2.13,2.76-4.47-1.83-3.1-1.6-3.24-3.42-6.33-1.83-3.1-2.5-2.71-4.32-5.81s-.7-3.76-2.53-6.86c-1.83-3.1-2.18-2.89-4.01-5.99s-2.63-2.63-4.46-5.73c-1.83-3.1-.68-3.78-2.51-6.88-1.83-3.1-2.33-2.81-4.16-5.91-1.83-3.1-1.98-3.01-3.81-6.11s-.97-3.61-2.8-6.71c-1.83-3.11-2.07-2.96-3.9-6.07-1.83-3.11-2.44-2.75-4.27-5.86s-1.17-3.5-3-6.61c-1.36-2.31-4.72-1.82-6.08,.49Z"/><path class="cls-1" d="M46.33,36.43c-1.79,3.1-2.66,2.59-4.45,5.68-1.79,3.1-.86,3.63-2.65,6.73-1.79,3.1-3.04,2.37-4.82,5.47-1.79,3.1-1.26,3.4-3.05,6.5-1.79,3.1-2.04,2.95-3.83,6.05-1.79,3.1-1.41,3.32-3.2,6.42s-2,2.98-3.79,6.07c-1.79,3.1-1.97,2.99-3.76,6.09-1.79,3.1-.58,3.8-2.37,6.9-1.79,3.1-2.26,2.83-4.05,5.93s-2.13,2.91-3.93,6.01c-1.79,3.1-.96,3.58-2.75,6.69-1.35,2.34-.34,4.34,2.37,4.34,3.57,0,3.57,.03,7.15,.03s3.58,.11,7.15,.11,3.58,.42,7.15,.42,3.58,.74,7.15,.74,3.58-1.31,7.16-1.31,3.58-.2,7.16-.2,3.58,.23,7.16,.23,3.58,0,7.15,0,3.58-.28,7.16-.28,3.58,.67,7.16,.67,3.58,.27,7.17,.27,3.58-.8,7.17-.8c2.7,0,4.13-2.12,2.78-4.46-1.79-3.1-1.56-3.23-3.35-6.32-1.79-3.1-2.45-2.72-4.24-5.82-1.79-3.1-.68-3.73-2.47-6.83-1.79-3.1-2.14-2.9-3.93-5.99-1.79-3.1-2.58-2.64-4.37-5.74-1.79-3.1-.66-3.75-2.45-6.85-1.79-3.1-2.29-2.81-4.08-5.91-1.79-3.1-1.94-3.01-3.73-6.11-1.79-3.1-.94-3.59-2.73-6.69-1.79-3.1-2.03-2.97-3.82-6.07-1.79-3.1-2.39-2.76-4.18-5.86-1.79-3.1-1.14-3.48-2.93-6.59-1.35-2.34-4.76-1.87-6.11,.47Z"/><polygon class="cls-2" points="82.11 106.29 79.38 106.47 76.94 106.01 74.5 106.02 72.06 105.41 69.61 105.55 67.51 105.43 67.2 104.14 69.61 104.59 72.05 103.59 74.48 103.83 76.93 104.28 79.37 104.02 81.74 104.2 82.11 106.29"/><polygon class="cls-2" points="45.85 89.27 43.12 89.44 40.68 88.98 38.24 88.99 35.8 88.38 33.35 88.53 31.25 88.41 30.93 87.12 33.34 87.57 35.78 86.57 38.22 86.81 40.66 87.26 43.11 86.99 45.48 87.18 45.85 89.27"/><polygon class="cls-2" points="47.13 59.56 44.4 59.73 41.96 59.27 39.52 59.28 37.08 58.67 34.63 58.81 32.53 58.7 32.22 57.41 34.62 57.86 37.06 56.86 39.5 57.1 41.94 57.54 44.39 57.28 46.76 57.47 47.13 59.56"/><polygon class="cls-2" points="63.93 78.06 61.2 78.23 58.76 77.77 56.32 77.78 53.88 77.17 51.43 77.32 49.33 77.2 49.01 75.91 51.42 76.36 53.86 75.36 56.3 75.6 58.74 76.04 61.19 75.78 63.55 75.97 63.93 78.06"/><polygon class="cls-2" points="20.61 104.49 17.89 104.67 15.45 104.21 13.01 104.22 10.56 103.61 8.12 103.75 6.01 103.63 5.7 102.34 8.11 102.79 10.55 101.79 12.99 102.03 15.43 102.48 17.88 102.22 20.24 102.4 20.61 104.49"/></g></svg>