<?xml version="1.0" encoding="UTF-8"?><svg id="Camada_1" xmlns="http://www.w3.org/2000/svg" viewBox="0 0 64 64"><defs><style>.cls-1{fill:#1f3e4d;}.cls-2{fill:#85d1f2;}.cls-3{opacity:.5;}</style></defs><circle class="cls-2" cx="32" cy="32" r="32"/><g><g><path class="cls-1" d="M28.67,24.9h-7.42c-2.19,0-3.98,1.78-3.98,3.98v8.8c0,.63,.51,1.14,1.14,1.14h1.26l2.08,10.27c.11,.53,.57,.91,1.11,.91h4.21c.54,0,1.01-.38,1.11-.91l2.08-10.27h1.26c.63,0,1.14-.51,1.14-1.14v-8.8c0-2.19-1.78-3.98-3.98-3.98Z"/><path class="cls-1" d="M24.96,24.17c2.8,0,5.08-2.28,5.08-5.08s-2.28-5.08-5.08-5.08-5.08,2.28-5.08,5.08,2.28,5.08,5.08,5.08Z"/></g><g class="cls-3"><path class="cls-1" d="M43.88,32.79h-5.16c-1.57,0-2.84,1.27-2.84,2.84v5.91c0,.63,.51,1.14,1.14,1.14h.5l1.3,6.41c.11,.53,.57,.91,1.11,.91h2.75c.54,0,1.01-.38,1.11-.91l1.3-6.41h.5c.63,0,1.14-.51,1.14-1.14v-5.91c0-1.57-1.27-2.84-2.84-2.84Zm-5.73,2.84c0-.31,.25-.57,.57-.57h5.16c.31,0,.57,.25,.57,.57v4.78h-6.3v-4.78Zm3.6,12.09h-.89l-1.02-5.05h2.93l-1.02,5.05Z"/><path class="cls-1" d="M41.3,32.39c2.27,0,4.11-1.84,4.11-4.11s-1.84-4.11-4.11-4.11-4.11,1.84-4.11,4.11,1.84,4.11,4.11,4.11Zm0-5.95c1.02,0,1.84,.82,1.84,1.84s-.82,1.84-1.84,1.84-1.84-.82-1.84-1.84,.82-1.84,1.84-1.84Z"/></g></g></svg>