<svg width="19" height="13" viewBox="0 0 19 13" fill="none" xmlns="http://www.w3.org/2000/svg">
<path d="M3.44592 3.77608C3.39278 3.0387 3.47251 2.44347 4.01279 1.866C6.58137 -0.692628 11.5945 2.28355 13.7911 3.98931C14.1896 4.19364 18.1931 8.88446 18.6005 9.31979C15.4562 10.3592 10.5582 12.6158 7.25451 12.7313C5.9968 12.8823 1.97565 12.5536 0.664795 12.527C1.01022 9.54189 1.31135 6.06819 3.44592 3.77608ZM3.92422 3.84716C4.2785 5.69506 4.60621 7.50743 4.88964 9.31091L4.3405 8.95553C6.56365 8.27146 8.78678 7.59626 11.0276 6.9566L10.7974 7.72064C9.92937 6.75227 8.39708 5.35746 7.4405 4.41574C6.51936 3.49179 4.92506 2.48789 3.96849 3.81163L3.93308 3.86493C3.91537 3.8827 3.91537 3.91823 3.93308 3.84716H3.92422Z" fill="#F96163"/>
</svg>
