<svg width="33" height="32" viewBox="0 0 33 32" fill="none" xmlns="http://www.w3.org/2000/svg">
<g clip-path="url(#clip0_317_7003)">
<path d="M31.5044 12.6854C30.9724 12.1534 30.2359 11.8261 29.4174 11.8261H29.3492C29.1174 11.1031 28.8309 10.4211 28.4899 9.7664C28.5172 9.75276 28.5308 9.73912 28.5445 9.72548C29.6902 8.56606 29.6902 6.69735 28.5445 5.55157L26.8122 3.81926C26.2256 3.24637 25.4754 2.95993 24.7252 2.95993C23.975 2.95993 23.2111 3.24637 22.6383 3.81926C22.6246 3.81926 22.611 3.86018 22.5973 3.87382C21.9426 3.53282 21.2606 3.24637 20.5377 3.01449V2.94629C20.5377 1.3231 19.2146 0 17.5777 0H15.1361C14.3314 0 13.5948 0.327365 13.0492 0.859334C12.5172 1.40494 12.1898 2.14152 12.1898 2.94629V3.01449C11.4669 3.23273 10.7849 3.51918 10.1302 3.87382C10.1029 3.86018 10.0892 3.8329 10.0756 3.81926C8.92983 2.67348 7.06112 2.67348 5.91534 3.81926L4.18303 5.55157C3.61014 6.12446 3.3237 6.87467 3.3237 7.63852C3.3237 8.40238 3.61014 9.15259 4.18303 9.72548C4.19667 9.73912 4.21031 9.75276 4.23759 9.7664C3.89659 10.4211 3.61014 11.1031 3.37826 11.8261H3.31006C1.68687 11.8261 0.36377 13.1492 0.36377 14.7724V17.2276C0.36377 18.046 0.691135 18.7826 1.2231 19.3146C1.75507 19.8465 2.49164 20.1739 3.31006 20.1739H3.37826C3.61014 20.8968 3.89659 21.5788 4.23759 22.2336C4.21031 22.2336 4.19667 22.2608 4.18303 22.2745C3.03725 23.4339 3.03725 25.3026 4.18303 26.4484L5.91534 28.1807C6.48823 28.7536 7.23844 29.04 8.00229 29.04C8.76615 29.04 9.50272 28.7536 10.0756 28.1807C10.0756 28.1671 10.1029 28.1398 10.1302 28.1261C10.7849 28.4808 11.4669 28.7672 12.1898 28.9855V29.0537C12.1898 30.6769 13.5129 32 15.1361 32H17.5777C18.3961 32 19.1327 31.6726 19.6783 31.1406C20.2103 30.595 20.5377 29.8584 20.5377 29.0537V28.9855C21.2606 28.7536 21.9426 28.4671 22.5973 28.1261C22.611 28.1261 22.6246 28.1671 22.6383 28.1807C23.784 29.3265 25.6527 29.3265 26.8122 28.1807L28.5445 26.4484C29.1174 25.8755 29.4038 25.1253 29.4038 24.3614C29.4038 23.5976 29.1174 22.8474 28.5445 22.2745C28.5308 22.2608 28.5172 22.2472 28.4899 22.2336C28.8309 21.5788 29.1174 20.8968 29.3492 20.1739H29.4174C31.0406 20.1739 32.3637 18.8508 32.3637 17.2276V14.7724C32.3637 13.9539 32.0364 13.2174 31.5044 12.6854ZM16.3637 24.6752C11.576 24.6752 7.68857 20.7877 7.68857 16C7.68857 11.2123 11.576 7.3248 16.3637 7.3248C21.1515 7.3248 25.0389 11.2123 25.0389 16C25.0389 20.7877 21.1515 24.6752 16.3637 24.6752Z" fill="#F96163"/>
</g>
<defs>
<clipPath id="clip0_317_7003">
<rect width="32" height="32" fill="white" transform="translate(0.36377)"/>
</clipPath>
</defs>
</svg>
