<svg width="33" height="32" viewBox="0 0 33 32" fill="none" xmlns="http://www.w3.org/2000/svg">
<g clip-path="url(#clip0_741_10403)">
<path d="M31.6064 12.6854C31.0745 12.1534 30.3379 11.8261 29.5195 11.8261H29.4513C29.2194 11.1031 28.933 10.4211 28.592 9.7664C28.6192 9.75276 28.6329 9.73912 28.6465 9.72548C29.7923 8.56606 29.7923 6.69735 28.6465 5.55157L26.9142 3.81926C26.3277 3.24637 25.5775 2.95993 24.8273 2.95993C24.077 2.95993 23.3132 3.24637 22.7403 3.81926C22.7267 3.81926 22.713 3.86018 22.6994 3.87382C22.0447 3.53282 21.3626 3.24637 20.6397 3.01449V2.94629C20.6397 1.3231 19.3166 0 17.6798 0H15.2382C14.4334 0 13.6968 0.327365 13.1512 0.859334C12.6193 1.40494 12.2919 2.14152 12.2919 2.94629V3.01449C11.569 3.23273 10.887 3.51918 10.2322 3.87382C10.2049 3.86018 10.1913 3.8329 10.1777 3.81926C9.03188 2.67348 7.16317 2.67348 6.01739 3.81926L4.28508 5.55157C3.71219 6.12446 3.42575 6.87467 3.42575 7.63852C3.42575 8.40238 3.71219 9.15259 4.28508 9.72548C4.29872 9.73912 4.31236 9.75276 4.33964 9.7664C3.99864 10.4211 3.71219 11.1031 3.48031 11.8261H3.41211C1.78892 11.8261 0.46582 13.1492 0.46582 14.7724V17.2276C0.46582 18.046 0.793186 18.7826 1.32515 19.3146C1.85712 19.8465 2.5937 20.1739 3.41211 20.1739H3.48031C3.71219 20.8968 3.99864 21.5788 4.33964 22.2336C4.31236 22.2336 4.29872 22.2608 4.28508 22.2745C3.1393 23.4339 3.1393 25.3026 4.28508 26.4484L6.01739 28.1807C6.59028 28.7536 7.34049 29.04 8.10434 29.04C8.8682 29.04 9.60477 28.7536 10.1777 28.1807C10.1777 28.1671 10.2049 28.1398 10.2322 28.1261C10.887 28.4808 11.569 28.7672 12.2919 28.9855V29.0537C12.2919 30.6769 13.615 32 15.2382 32H17.6798C18.4982 32 19.2348 31.6726 19.7804 31.1406C20.3123 30.595 20.6397 29.8584 20.6397 29.0537V28.9855C21.3626 28.7536 22.0447 28.4671 22.6994 28.1261C22.713 28.1261 22.7267 28.1671 22.7403 28.1807C23.8861 29.3265 25.7548 29.3265 26.9142 28.1807L28.6465 26.4484C29.2194 25.8755 29.5059 25.1253 29.5059 24.3614C29.5059 23.5976 29.2194 22.8474 28.6465 22.2745C28.6329 22.2608 28.6192 22.2472 28.592 22.2336C28.933 21.5788 29.2194 20.8968 29.4513 20.1739H29.5195C31.1427 20.1739 32.4658 18.8508 32.4658 17.2276V14.7724C32.4658 13.9539 32.1384 13.2174 31.6064 12.6854ZM16.4658 24.6752C11.6781 24.6752 7.79062 20.7877 7.79062 16C7.79062 11.2123 11.6781 7.3248 16.4658 7.3248C21.2535 7.3248 25.141 11.2123 25.141 16C25.141 20.7877 21.2535 24.6752 16.4658 24.6752Z" fill="white"/>
</g>
<defs>
<clipPath id="clip0_741_10403">
<rect width="32" height="32" fill="white" transform="translate(0.46582)"/>
</clipPath>
</defs>
</svg>
