<svg width="33" height="32" viewBox="0 0 33 32" fill="none" xmlns="http://www.w3.org/2000/svg">
<g clip-path="url(#clip0_741_10401)">
<path d="M31.4605 12.6854C30.9285 12.1534 30.1919 11.8261 29.3735 11.8261H29.3053C29.0734 11.1031 28.787 10.4211 28.446 9.7664C28.4732 9.75276 28.4869 9.73912 28.5005 9.72548C29.6463 8.56606 29.6463 6.69735 28.5005 5.55157L26.7682 3.81926C26.1817 3.24637 25.4315 2.95993 24.6813 2.95993C23.931 2.95993 23.1672 3.24637 22.5943 3.81926C22.5807 3.81926 22.567 3.86018 22.5534 3.87382C21.8987 3.53282 21.2166 3.24637 20.4937 3.01449V2.94629C20.4937 1.3231 19.1706 0 17.5338 0H15.0922C14.2874 0 13.5508 0.327365 13.0052 0.859334C12.4733 1.40494 12.1459 2.14152 12.1459 2.94629V3.01449C11.423 3.23273 10.741 3.51918 10.0862 3.87382C10.0589 3.86018 10.0453 3.8329 10.0317 3.81926C8.88588 2.67348 7.01717 2.67348 5.8714 3.81926L4.13909 5.55157C3.5662 6.12446 3.27975 6.87467 3.27975 7.63852C3.27975 8.40238 3.5662 9.15259 4.13909 9.72548C4.15273 9.73912 4.16637 9.75276 4.19365 9.7664C3.85264 10.4211 3.5662 11.1031 3.33431 11.8261H3.26611C1.64293 11.8261 0.319824 13.1492 0.319824 14.7724V17.2276C0.319824 18.046 0.64719 18.7826 1.17916 19.3146C1.71113 19.8465 2.4477 20.1739 3.26611 20.1739H3.33431C3.5662 20.8968 3.85264 21.5788 4.19365 22.2336C4.16637 22.2336 4.15273 22.2608 4.13909 22.2745C2.99331 23.4339 2.99331 25.3026 4.13909 26.4484L5.8714 28.1807C6.44428 28.7536 7.1945 29.04 7.95835 29.04C8.7222 29.04 9.45877 28.7536 10.0317 28.1807C10.0317 28.1671 10.0589 28.1398 10.0862 28.1261C10.741 28.4808 11.423 28.7672 12.1459 28.9855V29.0537C12.1459 30.6769 13.469 32 15.0922 32H17.5338C18.3522 32 19.0888 31.6726 19.6344 31.1406C20.1663 30.595 20.4937 29.8584 20.4937 29.0537V28.9855C21.2166 28.7536 21.8987 28.4671 22.5534 28.1261C22.567 28.1261 22.5807 28.1671 22.5943 28.1807C23.7401 29.3265 25.6088 29.3265 26.7682 28.1807L28.5005 26.4484C29.0734 25.8755 29.3599 25.1253 29.3599 24.3614C29.3599 23.5976 29.0734 22.8474 28.5005 22.2745C28.4869 22.2608 28.4732 22.2472 28.446 22.2336C28.787 21.5788 29.0734 20.8968 29.3053 20.1739H29.3735C30.9967 20.1739 32.3198 18.8508 32.3198 17.2276V14.7724C32.3198 13.9539 31.9924 13.2174 31.4605 12.6854ZM16.3198 24.6752C11.5321 24.6752 7.64462 20.7877 7.64462 16C7.64462 11.2123 11.5321 7.3248 16.3198 7.3248C21.1075 7.3248 24.995 11.2123 24.995 16C24.995 20.7877 21.1075 24.6752 16.3198 24.6752Z" fill="#242424"/>
</g>
<defs>
<clipPath id="clip0_741_10401">
<rect width="32" height="32" fill="white" transform="translate(0.319824)"/>
</clipPath>
</defs>
</svg>
