<?xml version="1.0" encoding="UTF-8"?><svg id="Camada_1" xmlns="http://www.w3.org/2000/svg" viewBox="0 0 230 230"><defs><style>.cls-1{opacity:.05;}.cls-1,.cls-2,.cls-3{fill:#fff;}.cls-2{opacity:.1;}.cls-4{fill:#f8931f;}.cls-5,.cls-6{fill:#f5c465;}.cls-7{fill:#f5c364;}.cls-8{fill:#e6b147;}.cls-9{fill:#692343;}.cls-10{fill:#a15600;}.cls-11{fill:#c1cad6;}.cls-12{fill:#8c939c;}.cls-13{fill:#bd6500;}.cls-14{fill:#d1a140;}.cls-15{fill:#d8e3f0;}.cls-16{fill:#c8d2de;}.cls-17{fill:#45172c;}.cls-18{fill:#78284e;}.cls-19{fill:#e6cacc;fill-rule:evenodd;}.cls-6{opacity:.6;}.cls-3{opacity:.3;}.cls-20{fill:#3e3e42;opacity:.4;}</style></defs><path class="cls-19" d="M113.16,.01c35.19,.52,64.41,23.19,86.17,50.18,21.56,26.73,35.54,59.32,29.09,92.75-6.75,34.98-29.1,66.99-62.61,81.04-32.11,13.46-67.69,2.32-98.7-13.4-29.58-14.99-55.25-37.4-63.64-68.88-8.71-32.63-.67-67.22,20.16-94.12C45.18,19.74,77.41-.52,113.16,.01Z"/><g><g><path class="cls-20" d="M210.33,152.61c0,31.56-17.88,52.27-88.44,54.61-59.31,1.97-98.95-23.05-98.95-54.61s41.95-57.14,93.7-57.14,93.7,25.58,93.7,57.14Z"/><ellipse class="cls-12" cx="115" cy="146.58" rx="95.33" ry="58.28"/><ellipse class="cls-16" cx="115" cy="144.09" rx="95.33" ry="55.79"/><ellipse class="cls-15" cx="116.42" cy="146.09" rx="64.82" ry="35.47"/><path class="cls-11" d="M179.79,128.56c-12.15-10.33-33.34-17.15-57.44-17.15-37.71,0-68.29,16.73-68.29,37.37,0,5.94,2.53,11.56,7.04,16.54-6.89-5.84-10.89-12.79-10.89-20.26,0-20.64,30.57-37.37,68.29-37.37,26.89,0,50.15,8.51,61.29,20.87Z"/></g><g><path class="cls-9" d="M191.48,145.32c.15,19.15-17.39,40.32-78.2,40.32s-78.61-19.89-78.77-39.05,34.86-29.96,78.2-30.31,78.61,9.89,78.77,29.04Z"/><ellipse class="cls-18" cx="113" cy="145.95" rx="78.49" ry="34.68" transform="translate(-1.18 .92) rotate(-.46)"/><ellipse class="cls-9" cx="113.86" cy="145.94" rx="71.92" ry="31.46"/><path class="cls-1" d="M181.87,143.25c0,11.68-31.74-32.08-121.62-11.98-11.4,2.55,33.28-14.94,59.97-14.94s61.65,15.25,61.65,26.93Z"/><g><ellipse class="cls-17" cx="103.07" cy="152.26" rx="1.64" ry="1.08" transform="translate(-80.7 158.23) rotate(-57.76)"/><ellipse class="cls-17" cx="137.23" cy="151.36" rx="1.64" ry="1.08" transform="translate(-64 186.71) rotate(-57.76)"/><ellipse class="cls-17" cx="146.99" cy="136.46" rx="1.64" ry="1.08" transform="translate(-46.84 188) rotate(-57.76)"/><ellipse class="cls-17" cx="84.63" cy="139.11" rx="1.64" ry="1.08" transform="translate(-78.18 136.5) rotate(-57.76)"/><ellipse class="cls-17" cx="122.65" cy="129.77" rx="1.64" ry="1.08" transform="translate(-52.54 164.29) rotate(-57.76)"/><ellipse class="cls-17" cx="73.05" cy="162.34" rx="1.64" ry="1.08" transform="translate(-103.23 137.53) rotate(-57.76)"/><ellipse class="cls-17" cx="70.47" cy="128.59" rx="1.64" ry="1.08" transform="translate(-75.88 119.61) rotate(-57.76)"/><ellipse class="cls-17" cx="131.38" cy="171.44" rx="1.64" ry="1.08" transform="translate(-83.71 191.12) rotate(-57.76)"/><ellipse class="cls-17" cx="105.44" cy="168.73" rx="1.64" ry="1.08" transform="translate(-93.52 167.91) rotate(-57.76)"/><ellipse class="cls-17" cx="163.34" cy="153.76" rx="1.64" ry="1.08" transform="translate(-53.85 209.91) rotate(-57.76)"/></g></g><g><path class="cls-13" d="M196.49,135.31c.15,19.15-17.39,40.32-78.2,40.32s-78.61-19.89-78.77-39.05,34.86-29.96,78.2-30.31c43.35-.35,78.61,9.89,78.77,29.04Z"/><ellipse class="cls-4" cx="118" cy="135.95" rx="78.49" ry="34.68" transform="translate(-1.1 .96) rotate(-.46)"/><ellipse class="cls-13" cx="118.86" cy="135.94" rx="71.92" ry="31.46"/><path class="cls-1" d="M186.87,133.24c0,11.68-31.74-32.08-121.62-11.98-11.4,2.55,33.28-14.94,59.97-14.94s61.65,15.25,61.65,26.93Z"/><g><ellipse class="cls-10" cx="108.07" cy="142.26" rx="1.64" ry="1.08" transform="translate(-69.9 157.79) rotate(-57.76)"/><ellipse class="cls-10" cx="142.23" cy="141.36" rx="1.64" ry="1.08" transform="translate(-53.2 186.27) rotate(-57.76)"/><ellipse class="cls-10" cx="151.99" cy="126.45" rx="1.64" ry="1.08" transform="translate(-36.04 187.56) rotate(-57.76)"/><ellipse class="cls-10" cx="89.64" cy="129.1" rx="1.64" ry="1.08" transform="translate(-67.38 136.06) rotate(-57.76)"/><ellipse class="cls-10" cx="127.65" cy="119.76" rx="1.64" ry="1.08" transform="translate(-41.74 163.86) rotate(-57.76)"/><ellipse class="cls-10" cx="78.05" cy="152.33" rx="1.64" ry="1.08" transform="translate(-92.43 137.1) rotate(-57.76)"/><ellipse class="cls-10" cx="75.48" cy="118.58" rx="1.64" ry="1.08" transform="translate(-65.08 119.17) rotate(-57.76)"/><ellipse class="cls-10" cx="136.38" cy="161.43" rx="1.64" ry="1.08" transform="translate(-72.91 190.69) rotate(-57.76)"/><ellipse class="cls-10" cx="110.44" cy="158.72" rx="1.64" ry="1.08" transform="translate(-82.72 167.48) rotate(-57.76)"/><ellipse class="cls-10" cx="168.35" cy="143.76" rx="1.64" ry="1.08" transform="translate(-43.05 209.48) rotate(-57.76)"/></g></g><g><path class="cls-9" d="M196.49,125.3c.15,19.15-17.39,40.32-78.2,40.32s-78.61-19.89-78.77-39.05,34.86-29.96,78.2-30.31,78.61,9.89,78.77,29.04Z"/><ellipse class="cls-18" cx="118" cy="125.94" rx="78.49" ry="34.68" transform="translate(-1.01 .96) rotate(-.46)"/><ellipse class="cls-9" cx="118.86" cy="125.93" rx="71.92" ry="31.46"/><path class="cls-1" d="M186.87,123.24c0,11.68-31.74-32.08-121.62-11.98-11.4,2.55,33.28-14.94,59.97-14.94s61.65,15.25,61.65,26.93Z"/><g><ellipse class="cls-17" cx="108.07" cy="132.25" rx="1.64" ry="1.08" transform="translate(-61.44 153.12) rotate(-57.76)"/><ellipse class="cls-17" cx="142.23" cy="131.35" rx="1.64" ry="1.08" transform="translate(-44.74 181.6) rotate(-57.76)"/><ellipse class="cls-17" cx="151.99" cy="116.44" rx="1.64" ry="1.08" transform="translate(-27.58 182.9) rotate(-57.76)"/><ellipse class="cls-17" cx="89.64" cy="119.1" rx="1.64" ry="1.08" transform="translate(-58.92 131.39) rotate(-57.76)"/><ellipse class="cls-17" cx="127.65" cy="109.75" rx="1.64" ry="1.08" transform="translate(-33.27 159.19) rotate(-57.76)"/><ellipse class="cls-17" cx="78.05" cy="142.32" rx="1.64" ry="1.08" transform="translate(-83.97 132.43) rotate(-57.76)"/><ellipse class="cls-17" cx="75.48" cy="108.57" rx="1.64" ry="1.08" transform="translate(-56.62 114.5) rotate(-57.76)"/><ellipse class="cls-17" cx="136.38" cy="151.43" rx="1.64" ry="1.08" transform="translate(-64.45 186.02) rotate(-57.76)"/><ellipse class="cls-17" cx="110.44" cy="148.71" rx="1.64" ry="1.08" transform="translate(-74.26 162.81) rotate(-57.76)"/><ellipse class="cls-17" cx="168.35" cy="133.75" rx="1.64" ry="1.08" transform="translate(-34.59 204.81) rotate(-57.76)"/></g></g><g><path class="cls-13" d="M189.48,115.3c.15,19.15-17.39,40.32-78.2,40.32s-78.61-19.89-78.77-39.05,34.86-29.96,78.2-30.31c43.35-.35,78.61,9.89,78.77,29.04Z"/><ellipse class="cls-4" cx="111" cy="115.93" rx="78.49" ry="34.68" transform="translate(-.93 .9) rotate(-.46)"/><ellipse class="cls-13" cx="111.86" cy="115.93" rx="71.92" ry="31.46"/><path class="cls-1" d="M179.87,113.23c0,11.68-31.74-32.08-121.62-11.98-11.4,2.55,33.28-14.94,59.97-14.94s61.65,15.25,61.65,26.93Z"/><g><ellipse class="cls-10" cx="101.07" cy="122.24" rx="1.64" ry="1.08" transform="translate(-56.24 142.53) rotate(-57.76)"/><ellipse class="cls-10" cx="135.23" cy="121.34" rx="1.64" ry="1.08" transform="translate(-39.54 171.01) rotate(-57.76)"/><ellipse class="cls-10" cx="144.99" cy="106.44" rx="1.64" ry="1.08" transform="translate(-22.38 172.3) rotate(-57.76)"/><ellipse class="cls-10" cx="82.63" cy="109.09" rx="1.64" ry="1.08" transform="translate(-53.72 120.8) rotate(-57.76)"/><ellipse class="cls-10" cx="120.65" cy="99.75" rx="1.64" ry="1.08" transform="translate(-28.08 148.59) rotate(-57.76)"/><ellipse class="cls-10" cx="71.05" cy="132.32" rx="1.64" ry="1.08" transform="translate(-78.77 121.83) rotate(-57.76)"/><ellipse class="cls-10" cx="68.47" cy="98.57" rx="1.64" ry="1.08" transform="translate(-51.42 103.91) rotate(-57.76)"/><ellipse class="cls-10" cx="129.38" cy="141.42" rx="1.64" ry="1.08" transform="translate(-59.25 175.42) rotate(-57.76)"/><ellipse class="cls-10" cx="103.43" cy="138.71" rx="1.64" ry="1.08" transform="translate(-69.07 152.21) rotate(-57.76)"/><ellipse class="cls-10" cx="161.34" cy="123.75" rx="1.64" ry="1.08" transform="translate(-29.39 194.21) rotate(-57.76)"/></g></g><g><path class="cls-9" d="M196.49,105.29c.15,19.15-17.39,40.32-78.2,40.32s-78.61-19.89-78.77-39.05,34.86-29.96,78.2-30.31,78.61,9.89,78.77,29.04Z"/><ellipse class="cls-18" cx="118" cy="105.93" rx="78.49" ry="34.68" transform="translate(-.85 .96) rotate(-.46)"/><ellipse class="cls-9" cx="118.86" cy="105.92" rx="71.92" ry="31.46"/><path class="cls-1" d="M186.87,103.23c0,11.68-31.74-32.08-121.62-11.98-11.4,2.55,33.28-14.94,59.97-14.94s61.65,15.25,61.65,26.93Z"/><g><ellipse class="cls-17" cx="108.07" cy="112.24" rx="1.64" ry="1.08" transform="translate(-44.51 143.78) rotate(-57.76)"/><ellipse class="cls-17" cx="142.23" cy="111.34" rx="1.64" ry="1.08" transform="translate(-27.81 172.26) rotate(-57.76)"/><ellipse class="cls-17" cx="151.99" cy="96.43" rx="1.64" ry="1.08" transform="translate(-10.65 173.56) rotate(-57.76)"/><ellipse class="cls-17" cx="89.64" cy="99.09" rx="1.64" ry="1.08" transform="translate(-41.99 122.05) rotate(-57.76)"/><ellipse class="cls-17" cx="127.65" cy="89.74" rx="1.64" ry="1.08" transform="translate(-16.35 149.85) rotate(-57.76)"/><ellipse class="cls-17" cx="78.05" cy="122.31" rx="1.64" ry="1.08" transform="translate(-67.04 123.09) rotate(-57.76)"/><ellipse class="cls-17" cx="75.48" cy="88.56" rx="1.64" ry="1.08" transform="translate(-39.69 105.17) rotate(-57.76)"/><ellipse class="cls-17" cx="136.38" cy="131.41" rx="1.64" ry="1.08" transform="translate(-47.52 176.68) rotate(-57.76)"/><ellipse class="cls-17" cx="110.44" cy="128.7" rx="1.64" ry="1.08" transform="translate(-57.33 153.47) rotate(-57.76)"/><ellipse class="cls-17" cx="168.35" cy="113.74" rx="1.64" ry="1.08" transform="translate(-17.66 195.47) rotate(-57.76)"/></g></g><g><path class="cls-13" d="M189.48,95.29c.15,19.15-17.39,40.32-78.2,40.32s-78.61-19.89-78.77-39.05,34.86-29.96,78.2-30.31,78.61,9.89,78.77,29.04Z"/><ellipse class="cls-4" cx="111" cy="95.92" rx="78.49" ry="34.68" transform="translate(-.77 .9) rotate(-.46)"/><ellipse class="cls-13" cx="111.86" cy="95.91" rx="71.92" ry="31.46"/><path class="cls-1" d="M179.87,93.22c0,11.68-31.74-32.08-121.62-11.98-11.4,2.55,33.28-14.94,59.97-14.94s61.65,15.25,61.65,26.93Z"/><g><ellipse class="cls-10" cx="101.07" cy="102.23" rx="1.64" ry="1.08" transform="translate(-39.32 133.19) rotate(-57.76)"/><ellipse class="cls-10" cx="135.23" cy="101.33" rx="1.64" ry="1.08" transform="translate(-22.61 161.67) rotate(-57.76)"/><ellipse class="cls-10" cx="144.99" cy="86.42" rx="1.64" ry="1.08" transform="translate(-5.45 162.96) rotate(-57.76)"/><ellipse class="cls-10" cx="82.63" cy="89.08" rx="1.64" ry="1.08" transform="translate(-36.79 111.46) rotate(-57.76)"/><ellipse class="cls-10" cx="120.65" cy="79.74" rx="1.64" ry="1.08" transform="translate(-11.15 139.26) rotate(-57.76)"/><ellipse class="cls-10" cx="71.05" cy="112.3" rx="1.64" ry="1.08" transform="translate(-61.84 112.5) rotate(-57.76)"/><ellipse class="cls-10" cx="68.47" cy="78.55" rx="1.64" ry="1.08" transform="translate(-34.5 94.57) rotate(-57.76)"/><ellipse class="cls-10" cx="129.38" cy="121.41" rx="1.64" ry="1.08" transform="translate(-42.32 166.09) rotate(-57.76)"/><ellipse class="cls-10" cx="103.43" cy="118.69" rx="1.64" ry="1.08" transform="translate(-52.14 142.87) rotate(-57.76)"/><ellipse class="cls-10" cx="161.34" cy="103.73" rx="1.64" ry="1.08" transform="translate(-12.46 184.87) rotate(-57.76)"/></g></g><g><path class="cls-9" d="M197.72,85.06c.15,19.15-17.39,40.32-78.2,40.32s-78.61-19.89-78.77-39.05,34.86-29.96,78.2-30.31,78.61,9.89,78.77,29.04Z"/><ellipse class="cls-18" cx="119.23" cy="85.69" rx="78.49" ry="34.68" transform="translate(-.69 .97) rotate(-.46)"/><ellipse class="cls-9" cx="120.1" cy="85.69" rx="71.92" ry="31.46"/><path class="cls-1" d="M188.11,82.99c0,11.68-31.74-32.08-121.62-11.98-11.4,2.55,33.28-14.94,59.97-14.94s61.65,15.25,61.65,26.93Z"/><g><ellipse class="cls-17" cx="109.3" cy="92" rx="1.64" ry="1.08" transform="translate(-26.82 135.39) rotate(-57.76)"/><ellipse class="cls-17" cx="143.47" cy="91.1" rx="1.64" ry="1.08" transform="translate(-10.12 163.86) rotate(-57.76)"/><ellipse class="cls-17" cx="153.22" cy="76.2" rx="1.64" ry="1.08" transform="translate(7.04 165.16) rotate(-57.76)"/><ellipse class="cls-17" cx="90.87" cy="78.85" rx="1.64" ry="1.08" transform="translate(-24.3 113.65) rotate(-57.76)"/><ellipse class="cls-17" cx="128.89" cy="69.51" rx="1.64" ry="1.08" transform="translate(1.34 141.45) rotate(-57.76)"/><ellipse class="cls-17" cx="79.28" cy="102.08" rx="1.64" ry="1.08" transform="translate(-49.35 114.69) rotate(-57.76)"/><ellipse class="cls-17" cx="76.71" cy="68.33" rx="1.64" ry="1.08" transform="translate(-22 96.77) rotate(-57.76)"/><ellipse class="cls-17" cx="137.62" cy="111.18" rx="1.64" ry="1.08" transform="translate(-29.83 168.28) rotate(-57.76)"/><ellipse class="cls-17" cx="111.67" cy="108.47" rx="1.64" ry="1.08" transform="translate(-39.64 145.07) rotate(-57.76)"/><ellipse class="cls-17" cx="169.58" cy="93.5" rx="1.64" ry="1.08" transform="translate(.03 187.07) rotate(-57.76)"/></g></g><g><path class="cls-13" d="M195.49,75.27c.15,19.15-17.39,40.32-78.2,40.32s-78.61-19.89-78.77-39.05,34.86-29.96,78.2-30.31c43.35-.35,78.61,9.89,78.77,29.04Z"/><ellipse class="cls-4" cx="117" cy="75.91" rx="78.49" ry="34.68" transform="translate(-.61 .95) rotate(-.46)"/><ellipse class="cls-13" cx="117.86" cy="75.9" rx="71.92" ry="31.46"/><path class="cls-1" d="M185.87,73.21c0,11.68-31.74-32.08-121.62-11.98-11.4,2.55,33.28-14.94,59.97-14.94s61.65,15.25,61.65,26.93Z"/><g><ellipse class="cls-10" cx="107.07" cy="82.22" rx="1.64" ry="1.08" transform="translate(-19.59 128.93) rotate(-57.76)"/><ellipse class="cls-10" cx="141.23" cy="81.32" rx="1.64" ry="1.08" transform="translate(-2.89 157.41) rotate(-57.76)"/><ellipse class="cls-10" cx="150.99" cy="66.41" rx="1.64" ry="1.08" transform="translate(14.28 158.7) rotate(-57.76)"/><ellipse class="cls-10" cx="88.63" cy="69.07" rx="1.64" ry="1.08" transform="translate(-17.06 107.2) rotate(-57.76)"/><ellipse class="cls-10" cx="126.65" cy="59.72" rx="1.64" ry="1.08" transform="translate(8.58 135) rotate(-57.76)"/><ellipse class="cls-10" cx="77.05" cy="92.29" rx="1.64" ry="1.08" transform="translate(-42.11 108.24) rotate(-57.76)"/><ellipse class="cls-10" cx="74.48" cy="58.54" rx="1.64" ry="1.08" transform="translate(-14.77 90.31) rotate(-57.76)"/><ellipse class="cls-10" cx="135.38" cy="101.39" rx="1.64" ry="1.08" transform="translate(-22.6 161.83) rotate(-57.76)"/><ellipse class="cls-10" cx="109.44" cy="98.68" rx="1.64" ry="1.08" transform="translate(-32.41 138.61) rotate(-57.76)"/><ellipse class="cls-10" cx="167.34" cy="83.72" rx="1.64" ry="1.08" transform="translate(7.27 180.62) rotate(-57.76)"/></g></g><g><path class="cls-9" d="M188.34,66.51c.15,19.15-17.39,40.32-78.2,40.32S31.53,86.94,31.37,67.78s34.86-29.96,78.2-30.31,78.61,9.89,78.77,29.04Z"/><ellipse class="cls-18" cx="109.86" cy="67.15" rx="78.49" ry="34.68" transform="translate(-.54 .89) rotate(-.46)"/><ellipse class="cls-9" cx="110.72" cy="67.14" rx="71.92" ry="31.46"/><path class="cls-1" d="M178.73,64.45c0,11.68-31.74-32.08-121.62-11.98-11.4,2.55,33.28-14.94,59.97-14.94s61.65,15.25,61.65,26.93Z"/><g><ellipse class="cls-17" cx="99.93" cy="73.46" rx="1.64" ry="1.08" transform="translate(-15.51 118.8) rotate(-57.76)"/><ellipse class="cls-17" cx="134.09" cy="72.56" rx="1.64" ry="1.08" transform="translate(1.19 147.28) rotate(-57.76)"/><ellipse class="cls-17" cx="143.85" cy="57.65" rx="1.64" ry="1.08" transform="translate(18.35 148.58) rotate(-57.76)"/><ellipse class="cls-17" cx="81.49" cy="60.31" rx="1.64" ry="1.08" transform="translate(-12.99 97.07) rotate(-57.76)"/><ellipse class="cls-17" cx="119.51" cy="50.96" rx="1.64" ry="1.08" transform="translate(12.65 124.87) rotate(-57.76)"/><ellipse class="cls-17" cx="69.91" cy="83.53" rx="1.64" ry="1.08" transform="translate(-38.04 98.11) rotate(-57.76)"/><ellipse class="cls-17" cx="67.33" cy="49.78" rx="1.64" ry="1.08" transform="translate(-10.69 80.18) rotate(-57.76)"/><ellipse class="cls-17" cx="128.24" cy="92.64" rx="1.64" ry="1.08" transform="translate(-18.52 151.7) rotate(-57.76)"/><ellipse class="cls-17" cx="102.29" cy="89.92" rx="1.64" ry="1.08" transform="translate(-28.33 128.49) rotate(-57.76)"/><ellipse class="cls-17" cx="160.2" cy="74.96" rx="1.64" ry="1.08" transform="translate(11.34 170.49) rotate(-57.76)"/></g></g><g><path class="cls-6" d="M134.85,59.52c13.35,4.53,9.21,21.69-17.13,16.73-21.78-4.1-29.09-2.79-29.09-15.94,0-6.36,14.77,.05,25.17,.05s18.07-1.85,21.04-.84Z"/><g><g><path class="cls-14" d="M98.44,52.95s-.19,7.66,1.73,9.09c9.18,6.84,10.91,7.21,12.58,4.91,1.12-1.55-.5-8.78-.5-8.78"/><path class="cls-5" d="M130.51,51.61l-.46,9.13c-.95,3.78-5.74,6.67-19.04,7.57l1.25-10.15,18.25-6.56Z"/><path class="cls-8" d="M98.44,52.95c-.41-.7,7.69,5.33,13.81,5.22,10.06,0,16.13-.79,18.25-6.56-11.35-2.2-22.14-2.14-32.06,1.34Z"/></g><path class="cls-7" d="M115.07,56.96s5.6,.38,9.07-1.19c3.25-1.46,5.01-3.16,2.06-2.2-2.95,.96-6.24,2.95-11.13,3.39Z"/><path class="cls-3" d="M113.27,61.14s1.06,1.03,3.34,.63c2.28-.41,2.55-1.06,2.55-1.06,0,0-3.41-.24-4.44-.44s-1.45,.87-1.45,.87Z"/><path class="cls-2" d="M104.97,59c1.25,.16-4.95,1.72-4.95-1.03,0-3.14,1.89,.63,4.95,1.03Z"/></g></g></g></svg>