<?xml version="1.0" encoding="UTF-8"?><svg id="Camada_1" xmlns="http://www.w3.org/2000/svg" viewBox="0 0 230 230"><defs><style>.cls-1{opacity:.05;}.cls-2{fill:#f5c99d;}.cls-3{fill:#f2af44;}.cls-4{fill:#ffc770;}.cls-5,.cls-6{fill:#9cb8b8;}.cls-7{fill:#667480;}.cls-8{fill:#bacdea;}.cls-9{fill:#d8e2f3;}.cls-10{opacity:.15;}.cls-6{opacity:.5;}.cls-11{fill:#a6c4c4;opacity:.4;}</style></defs><g><g><g><g><g><circle class="cls-4" cx="152.82" cy="205.45" r="1.38"/><path class="cls-3" d="M152.01,206.56c.24,.29,.65,.45,1.05,.42,.86-.05,1.5-.94,1.29-1.78-.09-.4-.37-.73-.72-.87,.24,.29,.36,.61,.38,.92,.06,1.06-1.03,1.71-1.99,1.3h0Z"/></g><g><circle class="cls-4" cx="147.44" cy="205.81" r="1.38"/><path class="cls-3" d="M148.33,206.87c.34-.16,.6-.52,.66-.92,.16-.84-.54-1.69-1.4-1.68-.41,0-.8,.18-1.02,.49,.34-.16,.68-.2,.99-.14,1.04,.21,1.41,1.42,.77,2.25h0Z"/></g><g><circle class="cls-4" cx="150.07" cy="204.15" r="1.38"/><path class="cls-3" d="M151.43,204.32c.14-.35,.08-.78-.14-1.12-.46-.73-1.55-.87-2.18-.28-.3,.27-.47,.68-.42,1.05,.14-.35,.36-.61,.63-.78,.91-.56,1.99,.08,2.1,1.12h0Z"/></g><g><circle class="cls-4" cx="150.33" cy="207.12" r="1.38"/><path class="cls-3" d="M151.7,207.29c.14-.35,.08-.78-.14-1.12-.46-.73-1.55-.87-2.18-.28-.3,.27-.47,.68-.42,1.05,.14-.35,.36-.61,.63-.78,.91-.56,1.99,.08,2.1,1.12h0Z"/></g></g><g><g><circle class="cls-4" cx="147.12" cy="208.7" r="1.38"/><path class="cls-3" d="M146.31,209.82c.24,.29,.65,.45,1.05,.42,.86-.05,1.5-.94,1.29-1.78-.09-.4-.37-.73-.72-.87,.24,.29,.36,.61,.38,.92,.06,1.06-1.03,1.71-1.99,1.3h0Z"/></g><g><circle class="cls-4" cx="141.74" cy="209.07" r="1.38"/><path class="cls-3" d="M142.62,210.13c.34-.16,.6-.52,.66-.92,.16-.84-.54-1.69-1.4-1.68-.41,0-.8,.18-1.02,.49,.34-.16,.68-.2,.99-.14,1.04,.21,1.41,1.42,.77,2.25h0Z"/></g><g><circle class="cls-4" cx="144.36" cy="207.41" r="1.38"/><path class="cls-3" d="M145.73,207.58c.14-.35,.08-.78-.14-1.12-.46-.73-1.55-.87-2.18-.28-.3,.27-.47,.68-.42,1.05,.14-.35,.36-.61,.63-.78,.91-.56,1.99,.08,2.1,1.12h0Z"/></g><g><circle class="cls-4" cx="144.63" cy="210.38" r="1.38"/><path class="cls-3" d="M145.99,210.55c.14-.35,.08-.78-.14-1.12-.46-.73-1.55-.87-2.18-.28-.3,.27-.47,.68-.42,1.05,.14-.35,.36-.61,.63-.78,.91-.56,1.99,.08,2.1,1.12h0Z"/></g></g><g><g><circle class="cls-4" cx="156.04" cy="210" r="1.38"/><path class="cls-3" d="M155.24,211.12c.24,.29,.65,.45,1.05,.42,.86-.05,1.5-.94,1.29-1.78-.09-.4-.37-.73-.72-.87,.24,.29,.36,.61,.38,.92,.06,1.06-1.03,1.71-1.99,1.3h0Z"/></g><g><circle class="cls-4" cx="150.67" cy="210.37" r="1.38"/><path class="cls-3" d="M151.55,211.43c.34-.16,.6-.52,.66-.92,.16-.84-.54-1.69-1.4-1.68-.41,0-.8,.18-1.02,.49,.34-.16,.68-.2,.99-.14,1.04,.21,1.41,1.42,.77,2.25h0Z"/></g><g><circle class="cls-4" cx="153.29" cy="208.7" r="1.38"/><path class="cls-3" d="M154.66,208.88c.14-.35,.08-.78-.14-1.12-.46-.73-1.55-.87-2.18-.28-.3,.27-.47,.68-.42,1.05,.14-.35,.36-.61,.63-.78,.91-.56,1.99,.08,2.1,1.12h0Z"/></g><g><circle class="cls-4" cx="153.56" cy="211.67" r="1.38"/><path class="cls-3" d="M154.92,211.85c.14-.35,.08-.78-.14-1.12-.46-.73-1.55-.87-2.18-.28-.3,.27-.47,.68-.42,1.05,.14-.35,.36-.61,.63-.78,.91-.56,1.99,.08,2.1,1.12h0Z"/></g></g><g><g><circle class="cls-4" cx="150.38" cy="213.61" r="1.38"/><path class="cls-3" d="M149.57,214.72c.24,.29,.65,.45,1.05,.42,.86-.05,1.5-.94,1.29-1.78-.09-.4-.37-.73-.72-.87,.24,.29,.36,.61,.38,.92,.06,1.06-1.03,1.71-1.99,1.3h0Z"/></g><g><circle class="cls-4" cx="145" cy="213.97" r="1.38"/><path class="cls-3" d="M145.88,215.03c.34-.16,.6-.52,.66-.92,.16-.84-.54-1.69-1.4-1.68-.41,0-.8,.18-1.02,.49,.34-.16,.68-.2,.99-.14,1.04,.21,1.41,1.42,.77,2.25h0Z"/></g><g><circle class="cls-4" cx="147.62" cy="212.31" r="1.38"/><path class="cls-3" d="M148.99,212.48c.14-.35,.08-.78-.14-1.12-.46-.73-1.55-.87-2.18-.28-.3,.27-.47,.68-.42,1.05,.14-.35,.36-.61,.63-.78,.91-.56,1.99,.08,2.1,1.12h0Z"/></g><g><circle class="cls-4" cx="147.89" cy="215.28" r="1.38"/><path class="cls-3" d="M149.25,215.45c.14-.35,.08-.78-.14-1.12-.46-.73-1.55-.87-2.18-.28-.3,.27-.47,.68-.42,1.05,.14-.35,.36-.61,.63-.78,.91-.56,1.99,.08,2.1,1.12h0Z"/></g></g><g><g><circle class="cls-4" cx="141.73" cy="212.35" r="1.38"/><path class="cls-3" d="M140.93,213.46c.24,.29,.65,.45,1.05,.42,.86-.05,1.5-.94,1.29-1.78-.09-.4-.37-.73-.72-.87,.24,.29,.36,.61,.38,.92,.06,1.06-1.03,1.71-1.99,1.3h0Z"/></g><g><circle class="cls-4" cx="136.36" cy="212.72" r="1.38"/><path class="cls-3" d="M137.24,213.78c.34-.16,.6-.52,.66-.92,.16-.84-.54-1.69-1.4-1.68-.41,0-.8,.18-1.02,.49,.34-.16,.68-.2,.99-.14,1.04,.21,1.41,1.42,.77,2.25h0Z"/></g><g><circle class="cls-4" cx="138.98" cy="211.05" r="1.38"/><path class="cls-3" d="M140.35,211.23c.14-.35,.08-.78-.14-1.12-.46-.73-1.55-.87-2.18-.28-.3,.27-.47,.68-.42,1.05,.14-.35,.36-.61,.63-.78,.91-.56,1.99,.08,2.1,1.12h0Z"/></g><g><circle class="cls-4" cx="139.25" cy="214.02" r="1.38"/><path class="cls-3" d="M140.61,214.2c.14-.35,.08-.78-.14-1.12-.46-.73-1.55-.87-2.18-.28-.3,.27-.47,.68-.42,1.05,.14-.35,.36-.61,.63-.78,.91-.56,1.99,.08,2.1,1.12h0Z"/></g></g><g><circle class="cls-4" cx="142.24" cy="216.16" r="1.38"/><path class="cls-3" d="M143.61,216.34c.14-.35,.08-.78-.14-1.12-.46-.73-1.55-.87-2.18-.28-.3,.27-.47,.68-.42,1.05,.14-.35,.36-.61,.63-.78,.91-.56,1.99,.08,2.1,1.12h0Z"/></g><g><circle class="cls-4" cx="136.93" cy="216.37" r="1.38"/><g><circle class="cls-4" cx="134.17" cy="215.08" r="1.38"/><path class="cls-3" d="M135.54,215.25c.14-.35,.08-.78-.14-1.12-.46-.73-1.55-.87-2.18-.28-.3,.27-.47,.68-.42,1.05,.14-.35,.36-.61,.63-.78,.91-.56,1.99,.08,2.1,1.12h0Z"/></g></g><g><circle class="cls-4" cx="127.35" cy="218.4" r="1.38"/><path class="cls-3" d="M128.71,218.57c.14-.35,.08-.78-.14-1.12-.46-.73-1.55-.87-2.18-.28-.3,.27-.47,.68-.42,1.05,.14-.35,.36-.61,.63-.78,.91-.56,1.99,.08,2.1,1.12h0Z"/></g><g><circle class="cls-4" cx="153.57" cy="215.28" r="1.38"/><path class="cls-3" d="M154.93,215.45c.14-.35,.08-.78-.14-1.12-.46-.73-1.55-.87-2.18-.28-.3,.27-.47,.68-.42,1.05,.14-.35,.36-.61,.63-.78,.91-.56,1.99,.08,2.1,1.12h0Z"/></g><g><g><circle class="cls-4" cx="161.76" cy="212.97" r="1.38"/><path class="cls-3" d="M160.95,214.09c.24,.29,.65,.45,1.05,.42,.86-.05,1.5-.94,1.29-1.78-.09-.4-.37-.73-.72-.87,.24,.29,.36,.61,.38,.92,.06,1.06-1.03,1.71-1.99,1.3h0Z"/></g><g><circle class="cls-4" cx="156.38" cy="213.34" r="1.38"/><path class="cls-3" d="M157.27,214.4c.34-.16,.6-.52,.66-.92,.16-.84-.54-1.69-1.4-1.68-.41,0-.8,.18-1.02,.49,.34-.16,.68-.2,.99-.14,1.04,.21,1.41,1.42,.77,2.25h0Z"/></g><g><circle class="cls-4" cx="159.01" cy="211.67" r="1.38"/><path class="cls-3" d="M160.37,211.85c.14-.35,.08-.78-.14-1.12-.46-.73-1.55-.87-2.18-.28-.3,.27-.47,.68-.42,1.05,.14-.35,.36-.61,.63-.78,.91-.56,1.99,.08,2.1,1.12h0Z"/></g><g><circle class="cls-4" cx="159.27" cy="214.65" r="1.38"/><path class="cls-3" d="M160.64,214.82c.14-.35,.08-.78-.14-1.12-.46-.73-1.55-.87-2.18-.28-.3,.27-.47,.68-.42,1.05,.14-.35,.36-.61,.63-.78,.91-.56,1.99,.08,2.1,1.12h0Z"/></g></g><g><circle class="cls-4" cx="159.18" cy="208.27" r="1.38"/><path class="cls-3" d="M158.37,209.38c.24,.29,.65,.45,1.05,.42,.86-.05,1.5-.94,1.29-1.78-.09-.4-.37-.73-.72-.87,.24,.29,.36,.61,.38,.92,.06,1.06-1.03,1.71-1.99,1.3h0Z"/></g><g><circle class="cls-4" cx="156.42" cy="206.97" r="1.38"/><path class="cls-3" d="M157.79,207.14c.14-.35,.08-.78-.14-1.12-.46-.73-1.55-.87-2.18-.28-.3,.27-.47,.68-.42,1.05,.14-.35,.36-.61,.63-.78,.91-.56,1.99,.08,2.1,1.12h0Z"/></g><g><circle class="cls-4" cx="164.88" cy="211.23" r="1.38"/><path class="cls-3" d="M164.07,212.34c.24,.29,.65,.45,1.05,.42,.86-.05,1.5-.94,1.29-1.78-.09-.4-.37-.73-.72-.87,.24,.29,.36,.61,.38,.92,.06,1.06-1.03,1.71-1.99,1.3h0Z"/></g><g><circle class="cls-4" cx="162.13" cy="209.93" r="1.38"/><path class="cls-3" d="M163.49,210.11c.14-.35,.08-.78-.14-1.12-.46-.73-1.55-.87-2.18-.28-.3,.27-.47,.68-.42,1.05,.14-.35,.36-.61,.63-.78,.91-.56,1.99,.08,2.1,1.12h0Z"/></g><g><circle class="cls-4" cx="174.1" cy="215.8" r="1.38"/><path class="cls-3" d="M175.13,216.72c.31-.21,.52-.6,.52-1,.04-.86-.78-1.6-1.63-1.47-.4,.05-.77,.3-.94,.63,.31-.21,.64-.3,.96-.28,1.06,.06,1.6,1.2,1.09,2.12h0Z"/></g><g><circle class="cls-4" cx="130.5" cy="215.99" r="1.38"/><path class="cls-3" d="M131.53,216.91c.31-.21,.52-.6,.52-1,.04-.86-.78-1.6-1.63-1.47-.4,.05-.77,.3-.94,.63,.31-.21,.64-.3,.96-.28,1.06,.06,1.6,1.2,1.09,2.12h0Z"/></g><g><circle class="cls-4" cx="130.68" cy="219.76" r="1.38"/><path class="cls-3" d="M131.7,220.68c.31-.21,.52-.6,.52-1,.04-.86-.78-1.6-1.63-1.47-.4,.05-.77,.3-.94,.63,.31-.21,.64-.3,.96-.28,1.06,.06,1.6,1.2,1.09,2.12h0Z"/></g><g><circle class="cls-4" cx="133.82" cy="218.16" r="1.38"/><path class="cls-3" d="M134.84,219.08c.31-.21,.52-.6,.52-1,.04-.86-.78-1.6-1.63-1.47-.4,.05-.77,.3-.94,.63,.31-.21,.64-.3,.96-.28,1.06,.06,1.6,1.2,1.09,2.12h0Z"/></g><g><g><circle class="cls-4" cx="170.77" cy="214.27" r="1.28"/><path class="cls-3" d="M169.93,215.24c.2,.29,.56,.47,.94,.47,.8,.02,1.47-.76,1.33-1.54-.06-.37-.29-.71-.6-.86,.2,.28,.29,.59,.28,.89-.03,.99-1.08,1.51-1.95,1.05h0Z"/></g><g><circle class="cls-4" cx="165.76" cy="214.19" r="1.28"/><path class="cls-3" d="M166.5,215.24c.33-.12,.59-.43,.69-.8,.21-.77-.37-1.61-1.17-1.67-.38-.04-.76,.11-.98,.37,.32-.12,.64-.13,.93-.05,.95,.27,1.19,1.42,.54,2.15h0Z"/></g><g><circle class="cls-4" cx="168.32" cy="212.85" r="1.28"/><path class="cls-3" d="M169.57,213.12c.16-.31,.14-.72-.04-1.05-.37-.71-1.37-.92-1.99-.43-.3,.23-.48,.59-.47,.94,.16-.31,.38-.54,.64-.67,.88-.45,1.84,.23,1.86,1.21h0Z"/></g><g><circle class="cls-4" cx="168.34" cy="215.62" r="1.28"/><path class="cls-3" d="M169.59,215.89c.16-.31,.14-.72-.04-1.05-.37-.71-1.37-.92-1.99-.43-.3,.23-.48,.59-.47,.94,.16-.31,.38-.54,.64-.67,.88-.45,1.84,.23,1.86,1.21h0Z"/></g></g><circle class="cls-4" cx="162.02" cy="216.36" r="1.38"/></g><g><circle class="cls-4" cx="84.54" cy="216.35" r="1.38"/><path class="cls-3" d="M85.84,215.89c-.03-.37-.28-.74-.63-.94-.74-.45-1.77-.08-2.07,.73-.15,.38-.11,.82,.1,1.13-.03-.37,.05-.71,.21-.98,.56-.9,1.82-.82,2.38,.06h0Z"/></g><g><circle class="cls-4" cx="139.55" cy="218.07" r="1.38"/><path class="cls-3" d="M138.53,217.15c-.31,.21-.52,.6-.52,1-.04,.86,.78,1.6,1.63,1.47,.4-.05,.77-.3,.94-.63-.31,.21-.64,.3-.96,.28-1.06-.06-1.6-1.2-1.09-2.12h0Z"/></g><g><circle class="cls-4" cx="150.85" cy="216.56" r="1.38"/><path class="cls-3" d="M149.82,215.64c-.31,.21-.52,.6-.52,1-.04,.86,.78,1.6,1.63,1.47,.4-.05,.77-.3,.94-.63-.31,.21-.64,.3-.96,.28-1.06-.06-1.6-1.2-1.09-2.12h0Z"/></g><g><circle class="cls-4" cx="156.54" cy="216.56" r="1.38"/><path class="cls-3" d="M155.52,215.64c-.31,.21-.52,.6-.52,1-.04,.86,.78,1.6,1.63,1.47,.4-.05,.77-.3,.94-.63-.31,.21-.64,.3-.96,.28-1.06-.06-1.6-1.2-1.09-2.12h0Z"/></g><g><circle class="cls-4" cx="165.33" cy="216.81" r="1.03"/><path class="cls-3" d="M164.57,216.12c-.23,.15-.38,.44-.39,.75-.03,.64,.58,1.19,1.22,1.09,.3-.04,.58-.22,.7-.47-.23,.15-.48,.22-.72,.21-.79-.04-1.19-.9-.81-1.58h0Z"/></g><g><circle class="cls-4" cx="171.4" cy="216.81" r="1.03"/><path class="cls-3" d="M170.63,216.13c-.23,.15-.38,.44-.39,.75-.03,.64,.58,1.19,1.22,1.09,.3-.04,.58-.22,.7-.47-.23,.15-.48,.22-.72,.21-.79-.04-1.19-.9-.81-1.58h0Z"/></g><g><circle class="cls-4" cx="146.09" cy="218.29" r="1.38"/><path class="cls-3" d="M145.07,217.37c-.31,.21-.52,.6-.52,1-.04,.86,.78,1.6,1.63,1.47,.4-.05,.77-.3,.94-.63-.31,.21-.64,.3-.96,.28-1.06-.06-1.6-1.2-1.09-2.12h0Z"/></g><g><circle class="cls-4" cx="124.25" cy="216.28" r="1.38"/><path class="cls-3" d="M123.23,215.36c-.31,.21-.52,.6-.52,1-.04,.86,.78,1.6,1.63,1.47,.4-.05,.77-.3,.94-.63-.31,.21-.64,.3-.96,.28-1.06-.06-1.6-1.2-1.09-2.12h0Z"/></g><g><circle class="cls-4" cx="120.73" cy="216.24" r="1.38"/><path class="cls-3" d="M119.71,215.32c-.31,.21-.52,.6-.52,1-.04,.86,.78,1.6,1.63,1.47,.4-.05,.77-.3,.94-.63-.31,.21-.64,.3-.96,.28-1.06-.06-1.6-1.2-1.09-2.12h0Z"/></g><g><circle class="cls-4" cx="117.15" cy="217.41" r="1.38"/><path class="cls-3" d="M116.12,216.49c-.31,.21-.52,.6-.52,1-.04,.86,.78,1.6,1.63,1.47,.4-.05,.77-.3,.94-.63-.31,.21-.64,.3-.96,.28-1.06-.06-1.6-1.2-1.09-2.12h0Z"/></g><g><circle class="cls-4" cx="80.99" cy="218.18" r="1.38"/><path class="cls-3" d="M82.28,217.72c-.03-.37-.28-.74-.63-.94-.74-.45-1.77-.08-2.07,.73-.15,.38-.11,.82,.1,1.13-.03-.37,.05-.71,.21-.98,.56-.9,1.82-.82,2.38,.06h0Z"/></g><g><circle class="cls-4" cx="76.16" cy="217.35" r="1.38"/><path class="cls-3" d="M77.46,216.89c-.03-.37-.28-.74-.63-.94-.74-.45-1.77-.08-2.07,.73-.15,.38-.11,.82,.1,1.13-.03-.37,.05-.71,.21-.98,.56-.9,1.82-.82,2.38,.06h0Z"/></g><g><circle class="cls-4" cx="72.65" cy="215.57" r="1.38"/><path class="cls-3" d="M73.95,215.11c-.03-.37-.28-.74-.63-.94-.74-.45-1.77-.08-2.07,.73-.15,.38-.11,.82,.1,1.13-.03-.37,.05-.71,.21-.98,.56-.9,1.82-.82,2.38,.06h0Z"/></g><g><circle class="cls-4" cx="69.73" cy="216.69" r="1.38"/><path class="cls-3" d="M71.02,216.24c-.03-.37-.28-.74-.63-.94-.74-.45-1.77-.08-2.07,.73-.15,.38-.11,.82,.1,1.13-.03-.37,.05-.71,.21-.98,.56-.9,1.82-.82,2.38,.06h0Z"/></g><g><circle class="cls-4" cx="63.37" cy="216.92" r="1.38"/><path class="cls-3" d="M64.67,216.46c-.03-.37-.28-.74-.63-.94-.74-.45-1.77-.08-2.07,.73-.15,.38-.11,.82,.1,1.13-.03-.37,.05-.71,.21-.98,.56-.9,1.82-.82,2.38,.06h0Z"/></g><g><circle class="cls-4" cx="60.18" cy="215.76" r="1.38"/><path class="cls-3" d="M61.48,215.3c-.03-.37-.28-.74-.63-.94-.74-.45-1.77-.08-2.07,.73-.15,.38-.11,.82,.1,1.13-.03-.37,.05-.71,.21-.98,.56-.9,1.82-.82,2.38,.06h0Z"/></g><g><circle class="cls-4" cx="44.41" cy="221.93" r="1.38"/><path class="cls-3" d="M45.71,221.48c-.03-.37-.28-.74-.63-.94-.74-.45-1.77-.08-2.07,.73-.15,.38-.11,.82,.1,1.13-.03-.37,.05-.71,.21-.98,.56-.9,1.82-.82,2.38,.06h0Z"/></g><g><circle class="cls-4" cx="69.37" cy="214.02" r="1.38"/><path class="cls-3" d="M70.67,213.56c-.03-.37-.28-.74-.63-.94-.74-.45-1.77-.08-2.07,.73-.15,.38-.11,.82,.1,1.13-.03-.37,.05-.71,.21-.98,.56-.9,1.82-.82,2.38,.06h0Z"/></g><g><circle class="cls-4" cx="118.04" cy="222.52" r="1.38"/><path class="cls-3" d="M119.33,222.06c-.03-.37-.28-.74-.63-.94-.74-.45-1.77-.08-2.07,.73-.15,.38-.11,.82,.1,1.13-.03-.37,.05-.71,.21-.98,.56-.9,1.82-.82,2.38,.06h0Z"/></g><g><circle class="cls-4" cx="113.77" cy="223.29" r="1.38"/><path class="cls-3" d="M115.06,222.84c-.03-.37-.28-.74-.63-.94-.74-.45-1.77-.08-2.07,.73-.15,.38-.11,.82,.1,1.13-.03-.37,.05-.71,.21-.98,.56-.9,1.82-.82,2.38,.06h0Z"/></g><g><circle class="cls-4" cx="107.29" cy="225.63" r="1.38"/><path class="cls-3" d="M108.59,225.18c-.03-.37-.28-.74-.63-.94-.74-.45-1.77-.08-2.07,.73-.15,.38-.11,.82,.1,1.13-.03-.37,.05-.71,.21-.98,.56-.9,1.82-.82,2.38,.06h0Z"/></g><g><circle class="cls-4" cx="103.37" cy="225.38" r="1.38"/><path class="cls-3" d="M104.67,224.92c-.03-.37-.28-.74-.63-.94-.74-.45-1.77-.08-2.07,.73-.15,.38-.11,.82,.1,1.13-.03-.37,.05-.71,.21-.98,.56-.9,1.82-.82,2.38,.06h0Z"/></g><g><circle class="cls-4" cx="98.37" cy="223.21" r="1.38"/><path class="cls-3" d="M99.66,222.75c-.03-.37-.28-.74-.63-.94-.74-.45-1.77-.08-2.07,.73-.15,.38-.11,.82,.1,1.13-.03-.37,.05-.71,.21-.98,.56-.9,1.82-.82,2.38,.06h0Z"/></g><g><circle class="cls-4" cx="97.54" cy="228.44" r="1.38"/><path class="cls-3" d="M98.84,227.99c-.03-.37-.28-.74-.63-.94-.74-.45-1.77-.08-2.07,.73-.15,.38-.11,.82,.1,1.13-.03-.37,.05-.71,.21-.98,.56-.9,1.82-.82,2.38,.06h0Z"/></g><g><circle class="cls-4" cx="92.64" cy="227.2" r="1.38"/><path class="cls-3" d="M93.94,226.74c-.03-.37-.28-.74-.63-.94-.74-.45-1.77-.08-2.07,.73-.15,.38-.11,.82,.1,1.13-.03-.37,.05-.71,.21-.98,.56-.9,1.82-.82,2.38,.06h0Z"/></g><g><circle class="cls-4" cx="78.21" cy="227.62" r="1.38"/><path class="cls-3" d="M79.5,227.17c-.03-.37-.28-.74-.63-.94-.74-.45-1.77-.08-2.07,.73-.15,.38-.11,.82,.1,1.13-.03-.37,.05-.71,.21-.98,.56-.9,1.82-.82,2.38,.06h0Z"/></g><g><circle class="cls-4" cx="66.51" cy="217.24" r="1.38"/><path class="cls-3" d="M67.81,216.78c-.03-.37-.28-.74-.63-.94-.74-.45-1.77-.08-2.07,.73-.15,.38-.11,.82,.1,1.13-.03-.37,.05-.71,.21-.98,.56-.9,1.82-.82,2.38,.06h0Z"/></g><g><circle class="cls-4" cx="127.08" cy="214.51" r="1.38"/><path class="cls-3" d="M125.71,214.33c-.14,.35-.08,.78,.14,1.12,.46,.73,1.55,.87,2.18,.28,.3-.27,.47-.68,.42-1.05-.14,.35-.36,.61-.63,.78-.91,.56-1.99-.08-2.1-1.12h0Z"/></g><g><circle class="cls-4" cx="93.97" cy="213.61" r="1.38"/><path class="cls-3" d="M92.6,213.43c-.14,.35-.08,.78,.14,1.12,.46,.73,1.55,.87,2.18,.28,.3-.27,.47-.68,.42-1.05-.14,.35-.36,.61-.63,.78-.91,.56-1.99-.08-2.1-1.12h0Z"/></g><g><g><circle class="cls-4" cx="113.32" cy="216.42" r="1.38"/><path class="cls-3" d="M111.95,216.25c-.14,.35-.08,.78,.14,1.12,.46,.73,1.55,.87,2.18,.28,.3-.27,.47-.68,.42-1.05-.14,.35-.36,.61-.63,.78-.91,.56-1.99-.08-2.1-1.12h0Z"/></g><g><circle class="cls-4" cx="109.73" cy="216.42" r="1.38"/><path class="cls-3" d="M108.36,216.25c-.14,.35-.08,.78,.14,1.12,.46,.73,1.55,.87,2.18,.28,.3-.27,.47-.68,.42-1.05-.14,.35-.36,.61-.63,.78-.91,.56-1.99-.08-2.1-1.12h0Z"/></g><g><circle class="cls-4" cx="106.14" cy="216.42" r="1.38"/><path class="cls-3" d="M104.77,216.25c-.14,.35-.08,.78,.14,1.12,.46,.73,1.55,.87,2.18,.28,.3-.27,.47-.68,.42-1.05-.14,.35-.36,.61-.63,.78-.91,.56-1.99-.08-2.1-1.12h0Z"/></g><g><circle class="cls-4" cx="102.55" cy="216.42" r="1.38"/><path class="cls-3" d="M101.19,216.25c-.14,.35-.08,.78,.14,1.12,.46,.73,1.55,.87,2.18,.28,.3-.27,.47-.68,.42-1.05-.14,.35-.36,.61-.63,.78-.91,.56-1.99-.08-2.1-1.12h0Z"/></g><g><circle class="cls-4" cx="98.96" cy="216.42" r="1.38"/><path class="cls-3" d="M97.6,216.25c-.14,.35-.08,.78,.14,1.12,.46,.73,1.55,.87,2.18,.28,.3-.27,.47-.68,.42-1.05-.14,.35-.36,.61-.63,.78-.91,.56-1.99-.08-2.1-1.12h0Z"/></g><g><circle class="cls-4" cx="95.37" cy="216.42" r="1.38"/><path class="cls-3" d="M94.01,216.25c-.14,.35-.08,.78,.14,1.12,.46,.73,1.55,.87,2.18,.28,.3-.27,.47-.68,.42-1.05-.14,.35-.36,.61-.63,.78-.91,.56-1.99-.08-2.1-1.12h0Z"/></g><g><circle class="cls-4" cx="91.79" cy="216.42" r="1.38"/><path class="cls-3" d="M90.42,216.25c-.14,.35-.08,.78,.14,1.12,.46,.73,1.55,.87,2.18,.28,.3-.27,.47-.68,.42-1.05-.14,.35-.36,.61-.63,.78-.91,.56-1.99-.08-2.1-1.12h0Z"/></g><g><circle class="cls-4" cx="88.2" cy="216.42" r="1.38"/><path class="cls-3" d="M86.83,216.25c-.14,.35-.08,.78,.14,1.12,.46,.73,1.55,.87,2.18,.28,.3-.27,.47-.68,.42-1.05-.14,.35-.36,.61-.63,.78-.91,.56-1.99-.08-2.1-1.12h0Z"/></g></g><g><g><circle class="cls-4" cx="113.91" cy="219.81" r="1.38"/><path class="cls-3" d="M112.55,219.64c-.14,.35-.08,.78,.14,1.12,.46,.73,1.55,.87,2.18,.28,.3-.27,.47-.68,.42-1.05-.14,.35-.36,.61-.63,.78-.91,.56-1.99-.08-2.1-1.12h0Z"/></g><g><circle class="cls-4" cx="107.57" cy="219.8" r="1.38"/><path class="cls-3" d="M108.37,218.68c-.24-.29-.65-.45-1.05-.42-.86,.05-1.5,.94-1.29,1.78,.09,.4,.37,.73,.72,.87-.24-.29-.36-.61-.38-.92-.06-1.06,1.03-1.71,1.99-1.3h0Z"/></g><g><circle class="cls-4" cx="142.82" cy="219.57" r="1.38"/><path class="cls-3" d="M141.8,218.65c-.31,.21-.52,.6-.52,1-.04,.86,.78,1.6,1.63,1.47,.4-.05,.77-.3,.94-.63-.31,.21-.64,.3-.96,.28-1.06-.06-1.6-1.2-1.09-2.12h0Z"/></g><g><circle class="cls-4" cx="136.79" cy="219.76" r="1.38"/><path class="cls-3" d="M135.77,218.84c-.31,.21-.52,.6-.52,1-.04,.86,.78,1.6,1.63,1.47,.4-.05,.77-.3,.94-.63-.31,.21-.64,.3-.96,.28-1.06-.06-1.6-1.2-1.09-2.12h0Z"/></g><g><circle class="cls-4" cx="110.79" cy="219.9" r="1.38"/><path class="cls-3" d="M109.77,218.98c-.31,.21-.52,.6-.52,1-.04,.86,.78,1.6,1.63,1.47,.4-.05,.77-.3,.94-.63-.31,.21-.64,.3-.96,.28-1.06-.06-1.6-1.2-1.09-2.12h0Z"/></g><g><circle class="cls-4" cx="83.77" cy="219.55" r="1.38"/><path class="cls-3" d="M85.07,219.1c-.03-.37-.28-.74-.63-.94-.74-.45-1.77-.08-2.07,.73-.15,.38-.11,.82,.1,1.13-.03-.37,.05-.71,.21-.98,.56-.9,1.82-.82,2.38,.06h0Z"/></g><g><circle class="cls-4" cx="120.11" cy="219.79" r="1.38"/><path class="cls-3" d="M119.09,218.87c-.31,.21-.52,.6-.52,1-.04,.86,.78,1.6,1.63,1.47,.4-.05,.77-.3,.94-.63-.31,.21-.64,.3-.96,.28-1.06-.06-1.6-1.2-1.09-2.12h0Z"/></g><g><circle class="cls-4" cx="103.98" cy="219.7" r="1.38"/><path class="cls-3" d="M105.28,219.24c-.03-.37-.28-.74-.63-.94-.74-.45-1.77-.08-2.07,.73-.15,.38-.11,.82,.1,1.13-.03-.37,.05-.71,.21-.98,.56-.9,1.82-.82,2.38,.06h0Z"/></g><g><circle class="cls-4" cx="99.8" cy="219.7" r="1.38"/><path class="cls-3" d="M101.1,219.24c-.03-.37-.28-.74-.63-.94-.74-.45-1.77-.08-2.07,.73-.15,.38-.11,.82,.1,1.13-.03-.37,.05-.71,.21-.98,.56-.9,1.82-.82,2.38,.06h0Z"/></g><g><circle class="cls-4" cx="95.61" cy="219.7" r="1.38"/><path class="cls-3" d="M96.91,219.24c-.03-.37-.28-.74-.63-.94-.74-.45-1.77-.08-2.07,.73-.15,.38-.11,.82,.1,1.13-.03-.37,.05-.71,.21-.98,.56-.9,1.82-.82,2.38,.06h0Z"/></g><g><circle class="cls-4" cx="91.43" cy="219.7" r="1.38"/><path class="cls-3" d="M92.73,219.24c-.03-.37-.28-.74-.63-.94-.74-.45-1.77-.08-2.07,.73-.15,.38-.11,.82,.1,1.13-.03-.37,.05-.71,.21-.98,.56-.9,1.82-.82,2.38,.06h0Z"/></g><g><circle class="cls-4" cx="87.24" cy="219.7" r="1.38"/><path class="cls-3" d="M88.54,219.24c-.03-.37-.28-.74-.63-.94-.74-.45-1.77-.08-2.07,.73-.15,.38-.11,.82,.1,1.13-.03-.37,.05-.71,.21-.98,.56-.9,1.82-.82,2.38,.06h0Z"/></g><g><circle class="cls-4" cx="73.03" cy="219.08" r="1.38"/><path class="cls-3" d="M74.33,218.62c-.03-.37-.28-.74-.63-.94-.74-.45-1.77-.08-2.07,.73-.15,.38-.11,.82,.1,1.13-.03-.37,.05-.71,.21-.98,.56-.9,1.82-.82,2.38,.06h0Z"/></g><g><circle class="cls-4" cx="78.4" cy="219.91" r="1.38"/><path class="cls-3" d="M79.7,219.45c-.03-.37-.28-.74-.63-.94-.74-.45-1.77-.08-2.07,.73-.15,.38-.11,.82,.1,1.13-.03-.37,.05-.71,.21-.98,.56-.9,1.82-.82,2.38,.06h0Z"/></g><g><circle class="cls-4" cx="68.91" cy="219.64" r="1.38"/><path class="cls-3" d="M70.21,219.18c-.03-.37-.28-.74-.63-.94-.74-.45-1.77-.08-2.07,.73-.15,.38-.11,.82,.1,1.13-.03-.37,.05-.71,.21-.98,.56-.9,1.82-.82,2.38,.06h0Z"/></g><g><circle class="cls-4" cx="123.82" cy="219.77" r="1.38"/><path class="cls-3" d="M122.94,218.71c-.34,.16-.6,.52-.66,.92-.16,.84,.54,1.69,1.4,1.68,.41,0,.8-.18,1.02-.49-.34,.16-.68,.2-.99,.14-1.04-.21-1.41-1.42-.77-2.25h0Z"/></g><g><g><circle class="cls-4" cx="175.73" cy="219.55" r="1.38"/><path class="cls-3" d="M174.36,219.38c-.14,.35-.08,.78,.14,1.12,.46,.73,1.55,.87,2.18,.28,.3-.27,.47-.68,.42-1.05-.14,.35-.36,.61-.63,.78-.91,.56-1.99-.08-2.1-1.12h0Z"/></g><g><circle class="cls-4" cx="172.14" cy="219.55" r="1.38"/><path class="cls-3" d="M170.77,219.38c-.14,.35-.08,.78,.14,1.12,.46,.73,1.55,.87,2.18,.28,.3-.27,.47-.68,.42-1.05-.14,.35-.36,.61-.63,.78-.91,.56-1.99-.08-2.1-1.12h0Z"/></g><g><circle class="cls-4" cx="168.55" cy="219.55" r="1.38"/><path class="cls-3" d="M167.19,219.38c-.14,.35-.08,.78,.14,1.12,.46,.73,1.55,.87,2.18,.28,.3-.27,.47-.68,.42-1.05-.14,.35-.36,.61-.63,.78-.91,.56-1.99-.08-2.1-1.12h0Z"/></g><g><circle class="cls-4" cx="164.96" cy="219.55" r="1.38"/><path class="cls-3" d="M163.6,219.38c-.14,.35-.08,.78,.14,1.12,.46,.73,1.55,.87,2.18,.28,.3-.27,.47-.68,.42-1.05-.14,.35-.36,.61-.63,.78-.91,.56-1.99-.08-2.1-1.12h0Z"/></g><g><circle class="cls-4" cx="161.37" cy="219.55" r="1.38"/><path class="cls-3" d="M160.01,219.38c-.14,.35-.08,.78,.14,1.12,.46,.73,1.55,.87,2.18,.28,.3-.27,.47-.68,.42-1.05-.14,.35-.36,.61-.63,.78-.91,.56-1.99-.08-2.1-1.12h0Z"/></g><g><circle class="cls-4" cx="157.79" cy="219.55" r="1.38"/><path class="cls-3" d="M156.42,219.38c-.14,.35-.08,.78,.14,1.12,.46,.73,1.55,.87,2.18,.28,.3-.27,.47-.68,.42-1.05-.14,.35-.36,.61-.63,.78-.91,.56-1.99-.08-2.1-1.12h0Z"/></g><g><circle class="cls-4" cx="154.2" cy="219.55" r="1.38"/><path class="cls-3" d="M152.83,219.38c-.14,.35-.08,.78,.14,1.12,.46,.73,1.55,.87,2.18,.28,.3-.27,.47-.68,.42-1.05-.14,.35-.36,.61-.63,.78-.91,.56-1.99-.08-2.1-1.12h0Z"/></g><g><circle class="cls-4" cx="150.61" cy="219.55" r="1.38"/><path class="cls-3" d="M149.24,219.38c-.14,.35-.08,.78,.14,1.12,.46,.73,1.55,.87,2.18,.28,.3-.27,.47-.68,.42-1.05-.14,.35-.36,.61-.63,.78-.91,.56-1.99-.08-2.1-1.12h0Z"/></g></g></g><g><g><circle class="cls-4" cx="131.49" cy="222.99" r="1.38"/><path class="cls-3" d="M132.86,222.81c.14,.35,.08,.78-.14,1.12-.46,.73-1.55,.87-2.18,.28-.3-.27-.47-.68-.42-1.05,.14,.35,.36,.61,.63,.78,.91,.56,1.99-.08,2.1-1.12h0Z"/></g><g><circle class="cls-4" cx="137.84" cy="222.98" r="1.38"/><path class="cls-3" d="M137.03,221.86c.24-.29,.65-.45,1.05-.42,.86,.05,1.5,.94,1.29,1.78-.09,.4-.37,.73-.72,.87,.24-.29,.36-.61,.38-.92,.06-1.06-1.03-1.71-1.99-1.3h0Z"/></g><g><circle class="cls-4" cx="102.58" cy="222.75" r="1.38"/><path class="cls-3" d="M103.6,221.83c.31,.21,.52,.6,.52,1,.04,.86-.78,1.6-1.63,1.47-.4-.05-.77-.3-.94-.63,.31,.21,.64,.3,.96,.28,1.06-.06,1.6-1.2,1.09-2.12h0Z"/></g><g><circle class="cls-4" cx="108.61" cy="222.93" r="1.38"/><path class="cls-3" d="M109.64,222.01c.31,.21,.52,.6,.52,1,.04,.86-.78,1.6-1.63,1.47-.4-.05-.77-.3-.94-.63,.31,.21,.64,.3,.96,.28,1.06-.06,1.6-1.2,1.09-2.12h0Z"/></g><g><circle class="cls-4" cx="134.61" cy="223.08" r="1.38"/><path class="cls-3" d="M135.63,222.16c.31,.21,.52,.6,.52,1,.04,.86-.78,1.6-1.63,1.47-.4-.05-.77-.3-.94-.63,.31,.21,.64,.3,.96,.28,1.06-.06,1.6-1.2,1.09-2.12h0Z"/></g><g><circle class="cls-4" cx="161.63" cy="222.73" r="1.38"/><path class="cls-3" d="M160.33,222.27c.03-.37,.28-.74,.63-.94,.74-.45,1.77-.08,2.07,.73,.15,.38,.11,.82-.1,1.13,.03-.37-.05-.71-.21-.98-.56-.9-1.82-.82-2.38,.06h0Z"/></g><g><circle class="cls-4" cx="125.29" cy="222.96" r="1.38"/><path class="cls-3" d="M126.32,222.04c.31,.21,.52,.6,.52,1,.04,.86-.78,1.6-1.63,1.47-.4-.05-.77-.3-.94-.63,.31,.21,.64,.3,.96,.28,1.06-.06,1.6-1.2,1.09-2.12h0Z"/></g><g><circle class="cls-4" cx="141.42" cy="222.87" r="1.38"/><path class="cls-3" d="M140.12,222.41c.03-.37,.28-.74,.63-.94,.74-.45,1.77-.08,2.07,.73,.15,.38,.11,.82-.1,1.13,.03-.37-.05-.71-.21-.98-.56-.9-1.82-.82-2.38,.06h0Z"/></g><g><circle class="cls-4" cx="145.6" cy="222.87" r="1.38"/><path class="cls-3" d="M144.31,222.41c.03-.37,.28-.74,.63-.94,.74-.45,1.77-.08,2.07,.73,.15,.38,.11,.82-.1,1.13,.03-.37-.05-.71-.21-.98-.56-.9-1.82-.82-2.38,.06h0Z"/></g><g><circle class="cls-4" cx="149.79" cy="222.87" r="1.38"/><path class="cls-3" d="M148.49,222.41c.03-.37,.28-.74,.63-.94,.74-.45,1.77-.08,2.07,.73,.15,.38,.11,.82-.1,1.13,.03-.37-.05-.71-.21-.98-.56-.9-1.82-.82-2.38,.06h0Z"/></g><g><circle class="cls-4" cx="153.97" cy="222.87" r="1.38"/><path class="cls-3" d="M152.68,222.41c.03-.37,.28-.74,.63-.94,.74-.45,1.77-.08,2.07,.73,.15,.38,.11,.82-.1,1.13,.03-.37-.05-.71-.21-.98-.56-.9-1.82-.82-2.38,.06h0Z"/></g><g><circle class="cls-4" cx="158.16" cy="222.87" r="1.38"/><path class="cls-3" d="M156.86,222.41c.03-.37,.28-.74,.63-.94,.74-.45,1.77-.08,2.07,.73,.15,.38,.11,.82-.1,1.13,.03-.37-.05-.71-.21-.98-.56-.9-1.82-.82-2.38,.06h0Z"/></g><g><circle class="cls-4" cx="172.37" cy="222.25" r="1.38"/><path class="cls-3" d="M171.07,221.79c.03-.37,.28-.74,.63-.94,.74-.45,1.77-.08,2.07,.73,.15,.38,.11,.82-.1,1.13,.03-.37-.05-.71-.21-.98-.56-.9-1.82-.82-2.38,.06h0Z"/></g><g><circle class="cls-4" cx="167" cy="223.08" r="1.38"/><path class="cls-3" d="M165.7,222.62c.03-.37,.28-.74,.63-.94,.74-.45,1.77-.08,2.07,.73,.15,.38,.11,.82-.1,1.13,.03-.37-.05-.71-.21-.98-.56-.9-1.82-.82-2.38,.06h0Z"/></g><g><circle class="cls-4" cx="176.49" cy="222.82" r="1.38"/><path class="cls-3" d="M175.2,222.36c.03-.37,.28-.74,.63-.94,.74-.45,1.77-.08,2.07,.73,.15,.38,.11,.82-.1,1.13,.03-.37-.05-.71-.21-.98-.56-.9-1.82-.82-2.38,.06h0Z"/></g><g><circle class="cls-4" cx="121.58" cy="222.94" r="1.38"/><path class="cls-3" d="M122.47,221.89c.34,.16,.6,.52,.66,.92,.16,.84-.54,1.69-1.4,1.68-.41,0-.8-.18-1.02-.49,.34,.16,.68,.2,.99,.14,1.04-.21,1.41-1.42,.77-2.25h0Z"/></g><g><g><circle class="cls-4" cx="69.68" cy="222.73" r="1.38"/><path class="cls-3" d="M71.04,222.56c.14,.35,.08,.78-.14,1.12-.46,.73-1.55,.87-2.18,.28-.3-.27-.47-.68-.42-1.05,.14,.35,.36,.61,.63,.78,.91,.56,1.99-.08,2.1-1.12h0Z"/></g><g><circle class="cls-4" cx="73.26" cy="222.73" r="1.38"/><path class="cls-3" d="M74.63,222.56c.14,.35,.08,.78-.14,1.12-.46,.73-1.55,.87-2.18,.28-.3-.27-.47-.68-.42-1.05,.14,.35,.36,.61,.63,.78,.91,.56,1.99-.08,2.1-1.12h0Z"/></g><g><circle class="cls-4" cx="76.85" cy="222.73" r="1.38"/><path class="cls-3" d="M78.22,222.56c.14,.35,.08,.78-.14,1.12-.46,.73-1.55,.87-2.18,.28-.3-.27-.47-.68-.42-1.05,.14,.35,.36,.61,.63,.78,.91,.56,1.99-.08,2.1-1.12h0Z"/></g><g><circle class="cls-4" cx="80.44" cy="222.73" r="1.38"/><path class="cls-3" d="M81.81,222.56c.14,.35,.08,.78-.14,1.12-.46,.73-1.55,.87-2.18,.28-.3-.27-.47-.68-.42-1.05,.14,.35,.36,.61,.63,.78,.91,.56,1.99-.08,2.1-1.12h0Z"/></g><g><circle class="cls-4" cx="84.03" cy="222.73" r="1.38"/><path class="cls-3" d="M85.39,222.56c.14,.35,.08,.78-.14,1.12-.46,.73-1.55,.87-2.18,.28-.3-.27-.47-.68-.42-1.05,.14,.35,.36,.61,.63,.78,.91,.56,1.99-.08,2.1-1.12h0Z"/></g><g><circle class="cls-4" cx="87.62" cy="222.73" r="1.38"/><path class="cls-3" d="M88.98,222.56c.14,.35,.08,.78-.14,1.12-.46,.73-1.55,.87-2.18,.28-.3-.27-.47-.68-.42-1.05,.14,.35,.36,.61,.63,.78,.91,.56,1.99-.08,2.1-1.12h0Z"/></g><g><circle class="cls-4" cx="91.21" cy="222.73" r="1.38"/><path class="cls-3" d="M92.57,222.56c.14,.35,.08,.78-.14,1.12-.46,.73-1.55,.87-2.18,.28-.3-.27-.47-.68-.42-1.05,.14,.35,.36,.61,.63,.78,.91,.56,1.99-.08,2.1-1.12h0Z"/></g><g><circle class="cls-4" cx="94.79" cy="222.73" r="1.38"/><path class="cls-3" d="M96.16,222.56c.14,.35,.08,.78-.14,1.12-.46,.73-1.55,.87-2.18,.28-.3-.27-.47-.68-.42-1.05,.14,.35,.36,.61,.63,.78,.91,.56,1.99-.08,2.1-1.12h0Z"/></g></g></g><g><g><circle class="cls-4" cx="89.45" cy="225.45" r="1.38"/><path class="cls-3" d="M88.09,225.27c-.14,.35-.08,.78,.14,1.12,.46,.73,1.55,.87,2.18,.28,.3-.27,.47-.68,.42-1.05-.14,.35-.36,.61-.63,.78-.91,.56-1.99-.08-2.1-1.12h0Z"/></g><g><circle class="cls-4" cx="83.11" cy="225.44" r="1.38"/><path class="cls-3" d="M83.92,224.32c-.24-.29-.65-.45-1.05-.42-.86,.05-1.5,.94-1.29,1.78,.09,.4,.37,.73,.72,.87-.24-.29-.36-.61-.38-.92-.06-1.06,1.03-1.71,1.99-1.3h0Z"/></g><g><circle class="cls-4" cx="118.37" cy="225.21" r="1.38"/><path class="cls-3" d="M117.34,224.29c-.31,.21-.52,.6-.52,1-.04,.86,.78,1.6,1.63,1.47,.4-.05,.77-.3,.94-.63-.31,.21-.64,.3-.96,.28-1.06-.06-1.6-1.2-1.09-2.12h0Z"/></g><g><circle class="cls-4" cx="112.33" cy="225.39" r="1.38"/><path class="cls-3" d="M111.31,224.47c-.31,.21-.52,.6-.52,1-.04,.86,.78,1.6,1.63,1.47,.4-.05,.77-.3,.94-.63-.31,.21-.64,.3-.96,.28-1.06-.06-1.6-1.2-1.09-2.12h0Z"/></g><g><circle class="cls-4" cx="86.34" cy="225.54" r="1.38"/><path class="cls-3" d="M85.31,224.62c-.31,.21-.52,.6-.52,1-.04,.86,.78,1.6,1.63,1.47,.4-.05,.77-.3,.94-.63-.31,.21-.64,.3-.96,.28-1.06-.06-1.6-1.2-1.09-2.12h0Z"/></g><g><circle class="cls-4" cx="59.32" cy="225.19" r="1.38"/><path class="cls-3" d="M60.61,224.73c-.03-.37-.28-.74-.63-.94-.74-.45-1.77-.08-2.07,.73-.15,.38-.11,.82,.1,1.13-.03-.37,.05-.71,.21-.98,.56-.9,1.82-.82,2.38,.06h0Z"/></g><g><circle class="cls-4" cx="95.66" cy="225.42" r="1.38"/><path class="cls-3" d="M94.63,224.5c-.31,.21-.52,.6-.52,1-.04,.86,.78,1.6,1.63,1.47,.4-.05,.77-.3,.94-.63-.31,.21-.64,.3-.96,.28-1.06-.06-1.6-1.2-1.09-2.12h0Z"/></g><g><circle class="cls-4" cx="79.53" cy="225.33" r="1.38"/><path class="cls-3" d="M80.82,224.87c-.03-.37-.28-.74-.63-.94-.74-.45-1.77-.08-2.07,.73-.15,.38-.11,.82,.1,1.13-.03-.37,.05-.71,.21-.98,.56-.9,1.82-.82,2.38,.06h0Z"/></g><g><circle class="cls-4" cx="75.34" cy="225.33" r="1.38"/><path class="cls-3" d="M76.64,224.87c-.03-.37-.28-.74-.63-.94-.74-.45-1.77-.08-2.07,.73-.15,.38-.11,.82,.1,1.13-.03-.37,.05-.71,.21-.98,.56-.9,1.82-.82,2.38,.06h0Z"/></g><g><circle class="cls-4" cx="71.16" cy="225.33" r="1.38"/><path class="cls-3" d="M72.46,224.87c-.03-.37-.28-.74-.63-.94-.74-.45-1.77-.08-2.07,.73-.15,.38-.11,.82,.1,1.13-.03-.37,.05-.71,.21-.98,.56-.9,1.82-.82,2.38,.06h0Z"/></g><g><circle class="cls-4" cx="66.97" cy="225.33" r="1.38"/><path class="cls-3" d="M68.27,224.87c-.03-.37-.28-.74-.63-.94-.74-.45-1.77-.08-2.07,.73-.15,.38-.11,.82,.1,1.13-.03-.37,.05-.71,.21-.98,.56-.9,1.82-.82,2.38,.06h0Z"/></g><g><circle class="cls-4" cx="62.79" cy="225.33" r="1.38"/><path class="cls-3" d="M64.09,224.87c-.03-.37-.28-.74-.63-.94-.74-.45-1.77-.08-2.07,.73-.15,.38-.11,.82,.1,1.13-.03-.37,.05-.71,.21-.98,.56-.9,1.82-.82,2.38,.06h0Z"/></g><g><circle class="cls-4" cx="48.58" cy="224.71" r="1.38"/><path class="cls-3" d="M49.87,224.26c-.03-.37-.28-.74-.63-.94-.74-.45-1.77-.08-2.07,.73-.15,.38-.11,.82,.1,1.13-.03-.37,.05-.71,.21-.98,.56-.9,1.82-.82,2.38,.06h0Z"/></g><g><circle class="cls-4" cx="53.95" cy="225.54" r="1.38"/><path class="cls-3" d="M55.24,225.08c-.03-.37-.28-.74-.63-.94-.74-.45-1.77-.08-2.07,.73-.15,.38-.11,.82,.1,1.13-.03-.37,.05-.71,.21-.98,.56-.9,1.82-.82,2.38,.06h0Z"/></g><g><circle class="cls-4" cx="44.45" cy="225.28" r="1.38"/><path class="cls-3" d="M45.75,224.82c-.03-.37-.28-.74-.63-.94-.74-.45-1.77-.08-2.07,.73-.15,.38-.11,.82,.1,1.13-.03-.37,.05-.71,.21-.98,.56-.9,1.82-.82,2.38,.06h0Z"/></g><g><circle class="cls-4" cx="99.36" cy="225.4" r="1.38"/><path class="cls-3" d="M98.48,224.35c-.34,.16-.6,.52-.66,.92-.16,.84,.54,1.69,1.4,1.68,.41,0,.8-.18,1.02-.49-.34,.16-.68,.2-.99,.14-1.04-.21-1.41-1.42-.77-2.25h0Z"/></g><g><g><circle class="cls-4" cx="151.27" cy="225.19" r="1.38"/><path class="cls-3" d="M149.91,225.02c-.14,.35-.08,.78,.14,1.12,.46,.73,1.55,.87,2.18,.28,.3-.27,.47-.68,.42-1.05-.14,.35-.36,.61-.63,.78-.91,.56-1.99-.08-2.1-1.12h0Z"/></g><g><circle class="cls-4" cx="147.68" cy="225.19" r="1.38"/><path class="cls-3" d="M146.32,225.02c-.14,.35-.08,.78,.14,1.12,.46,.73,1.55,.87,2.18,.28,.3-.27,.47-.68,.42-1.05-.14,.35-.36,.61-.63,.78-.91,.56-1.99-.08-2.1-1.12h0Z"/></g><g><circle class="cls-4" cx="144.09" cy="225.19" r="1.38"/><path class="cls-3" d="M142.73,225.02c-.14,.35-.08,.78,.14,1.12,.46,.73,1.55,.87,2.18,.28,.3-.27,.47-.68,.42-1.05-.14,.35-.36,.61-.63,.78-.91,.56-1.99-.08-2.1-1.12h0Z"/></g><g><circle class="cls-4" cx="140.51" cy="225.19" r="1.38"/><path class="cls-3" d="M139.14,225.02c-.14,.35-.08,.78,.14,1.12,.46,.73,1.55,.87,2.18,.28,.3-.27,.47-.68,.42-1.05-.14,.35-.36,.61-.63,.78-.91,.56-1.99-.08-2.1-1.12h0Z"/></g><g><circle class="cls-4" cx="136.92" cy="225.19" r="1.38"/><path class="cls-3" d="M135.55,225.02c-.14,.35-.08,.78,.14,1.12,.46,.73,1.55,.87,2.18,.28,.3-.27,.47-.68,.42-1.05-.14,.35-.36,.61-.63,.78-.91,.56-1.99-.08-2.1-1.12h0Z"/></g><g><circle class="cls-4" cx="133.33" cy="225.19" r="1.38"/><path class="cls-3" d="M131.97,225.02c-.14,.35-.08,.78,.14,1.12,.46,.73,1.55,.87,2.18,.28,.3-.27,.47-.68,.42-1.05-.14,.35-.36,.61-.63,.78-.91,.56-1.99-.08-2.1-1.12h0Z"/></g><g><circle class="cls-4" cx="129.74" cy="225.19" r="1.38"/><path class="cls-3" d="M128.38,225.02c-.14,.35-.08,.78,.14,1.12,.46,.73,1.55,.87,2.18,.28,.3-.27,.47-.68,.42-1.05-.14,.35-.36,.61-.63,.78-.91,.56-1.99-.08-2.1-1.12h0Z"/></g><g><circle class="cls-4" cx="126.15" cy="225.19" r="1.38"/><path class="cls-3" d="M124.79,225.02c-.14,.35-.08,.78,.14,1.12,.46,.73,1.55,.87,2.18,.28,.3-.27,.47-.68,.42-1.05-.14,.35-.36,.61-.63,.78-.91,.56-1.99-.08-2.1-1.12h0Z"/></g></g></g><g><g><circle class="cls-4" cx="110.78" cy="228.64" r="1.38"/><path class="cls-3" d="M112.15,228.47c.14,.35,.08,.78-.14,1.12-.46,.73-1.55,.87-2.18,.28-.3-.27-.47-.68-.42-1.05,.14,.35,.36,.61,.63,.78,.91,.56,1.99-.08,2.1-1.12h0Z"/></g><g><circle class="cls-4" cx="117.12" cy="228.63" r="1.38"/><path class="cls-3" d="M116.32,227.51c.24-.29,.65-.45,1.05-.42,.86,.05,1.5,.94,1.29,1.78-.09,.4-.37,.73-.72,.87,.24-.29,.36-.61,.38-.92,.06-1.06-1.03-1.71-1.99-1.3h0Z"/></g><g><circle class="cls-4" cx="81.87" cy="228.4" r="1.38"/><path class="cls-3" d="M82.89,227.48c.31,.21,.52,.6,.52,1,.04,.86-.78,1.6-1.63,1.47-.4-.05-.77-.3-.94-.63,.31,.21,.64,.3,.96,.28,1.06-.06,1.6-1.2,1.09-2.12h0Z"/></g><g><circle class="cls-4" cx="87.9" cy="228.59" r="1.38"/><path class="cls-3" d="M88.92,227.67c.31,.21,.52,.6,.52,1,.04,.86-.78,1.6-1.63,1.47-.4-.05-.77-.3-.94-.63,.31,.21,.64,.3,.96,.28,1.06-.06,1.6-1.2,1.09-2.12h0Z"/></g><g><circle class="cls-4" cx="113.9" cy="228.73" r="1.38"/><path class="cls-3" d="M114.92,227.81c.31,.21,.52,.6,.52,1,.04,.86-.78,1.6-1.63,1.47-.4-.05-.77-.3-.94-.63,.31,.21,.64,.3,.96,.28,1.06-.06,1.6-1.2,1.09-2.12h0Z"/></g><g><circle class="cls-4" cx="140.92" cy="228.38" r="1.38"/><path class="cls-3" d="M139.62,227.92c.03-.37,.28-.74,.63-.94,.74-.45,1.77-.08,2.07,.73,.15,.38,.11,.82-.1,1.13,.03-.37-.05-.71-.21-.98-.56-.9-1.82-.82-2.38,.06h0Z"/></g><g><circle class="cls-4" cx="104.58" cy="228.62" r="1.38"/><path class="cls-3" d="M105.6,227.7c.31,.21,.52,.6,.52,1,.04,.86-.78,1.6-1.63,1.47-.4-.05-.77-.3-.94-.63,.31,.21,.64,.3,.96,.28,1.06-.06,1.6-1.2,1.09-2.12h0Z"/></g><g><circle class="cls-4" cx="120.71" cy="228.53" r="1.38"/><path class="cls-3" d="M119.41,228.07c.03-.37,.28-.74,.63-.94,.74-.45,1.77-.08,2.07,.73,.15,.38,.11,.82-.1,1.13,.03-.37-.05-.71-.21-.98-.56-.9-1.82-.82-2.38,.06h0Z"/></g><g><circle class="cls-4" cx="124.89" cy="228.53" r="1.38"/><path class="cls-3" d="M123.59,228.07c.03-.37,.28-.74,.63-.94,.74-.45,1.77-.08,2.07,.73,.15,.38,.11,.82-.1,1.13,.03-.37-.05-.71-.21-.98-.56-.9-1.82-.82-2.38,.06h0Z"/></g><g><circle class="cls-4" cx="129.08" cy="228.53" r="1.38"/><path class="cls-3" d="M127.78,228.07c.03-.37,.28-.74,.63-.94,.74-.45,1.77-.08,2.07,.73,.15,.38,.11,.82-.1,1.13,.03-.37-.05-.71-.21-.98-.56-.9-1.82-.82-2.38,.06h0Z"/></g><g><circle class="cls-4" cx="133.26" cy="228.53" r="1.38"/><path class="cls-3" d="M131.96,228.07c.03-.37,.28-.74,.63-.94,.74-.45,1.77-.08,2.07,.73,.15,.38,.11,.82-.1,1.13,.03-.37-.05-.71-.21-.98-.56-.9-1.82-.82-2.38,.06h0Z"/></g><g><circle class="cls-4" cx="137.45" cy="228.53" r="1.38"/><path class="cls-3" d="M136.15,228.07c.03-.37,.28-.74,.63-.94,.74-.45,1.77-.08,2.07,.73,.15,.38,.11,.82-.1,1.13,.03-.37-.05-.71-.21-.98-.56-.9-1.82-.82-2.38,.06h0Z"/></g><g><circle class="cls-4" cx="151.66" cy="227.91" r="1.38"/><path class="cls-3" d="M150.36,227.45c.03-.37,.28-.74,.63-.94,.74-.45,1.77-.08,2.07,.73,.15,.38,.11,.82-.1,1.13,.03-.37-.05-.71-.21-.98-.56-.9-1.82-.82-2.38,.06h0Z"/></g><g><circle class="cls-4" cx="146.29" cy="228.74" r="1.38"/><path class="cls-3" d="M144.99,228.28c.03-.37,.28-.74,.63-.94,.74-.45,1.77-.08,2.07,.73,.15,.38,.11,.82-.1,1.13,.03-.37-.05-.71-.21-.98-.56-.9-1.82-.82-2.38,.06h0Z"/></g><g><circle class="cls-4" cx="155.78" cy="228.47" r="1.38"/><path class="cls-3" d="M154.48,228.01c.03-.37,.28-.74,.63-.94,.74-.45,1.77-.08,2.07,.73,.15,.38,.11,.82-.1,1.13,.03-.37-.05-.71-.21-.98-.56-.9-1.82-.82-2.38,.06h0Z"/></g><g><circle class="cls-4" cx="100.87" cy="228.6" r="1.38"/><path class="cls-3" d="M101.75,227.54c.34,.16,.6,.52,.66,.92,.16,.84-.54,1.69-1.4,1.68-.41,0-.8-.18-1.02-.49,.34,.16,.68,.2,.99,.14,1.04-.21,1.41-1.42,.77-2.25h0Z"/></g><g><g><circle class="cls-4" cx="52.55" cy="228.38" r="1.38"/><path class="cls-3" d="M53.92,228.21c.14,.35,.08,.78-.14,1.12-.46,.73-1.55,.87-2.18,.28-.3-.27-.47-.68-.42-1.05,.14,.35,.36,.61,.63,.78,.91,.56,1.99-.08,2.1-1.12h0Z"/></g><g><circle class="cls-4" cx="49.44" cy="227.11" r="1.38"/><path class="cls-3" d="M50.81,226.94c.14,.35,.08,.78-.14,1.12-.46,.73-1.55,.87-2.18,.28-.3-.27-.47-.68-.42-1.05,.14,.35,.36,.61,.63,.78,.91,.56,1.99-.08,2.1-1.12h0Z"/></g><g><circle class="cls-4" cx="56.14" cy="228.38" r="1.38"/><path class="cls-3" d="M57.51,228.21c.14,.35,.08,.78-.14,1.12-.46,.73-1.55,.87-2.18,.28-.3-.27-.47-.68-.42-1.05,.14,.35,.36,.61,.63,.78,.91,.56,1.99-.08,2.1-1.12h0Z"/></g><g><circle class="cls-4" cx="59.73" cy="228.38" r="1.38"/><path class="cls-3" d="M61.09,228.21c.14,.35,.08,.78-.14,1.12-.46,.73-1.55,.87-2.18,.28-.3-.27-.47-.68-.42-1.05,.14,.35,.36,.61,.63,.78,.91,.56,1.99-.08,2.1-1.12h0Z"/></g><g><circle class="cls-4" cx="63.32" cy="228.38" r="1.38"/><path class="cls-3" d="M64.68,228.21c.14,.35,.08,.78-.14,1.12-.46,.73-1.55,.87-2.18,.28-.3-.27-.47-.68-.42-1.05,.14,.35,.36,.61,.63,.78,.91,.56,1.99-.08,2.1-1.12h0Z"/></g><g><circle class="cls-4" cx="66.9" cy="228.38" r="1.38"/><path class="cls-3" d="M68.27,228.21c.14,.35,.08,.78-.14,1.12-.46,.73-1.55,.87-2.18,.28-.3-.27-.47-.68-.42-1.05,.14,.35,.36,.61,.63,.78,.91,.56,1.99-.08,2.1-1.12h0Z"/></g><g><circle class="cls-4" cx="70.49" cy="228.38" r="1.38"/><path class="cls-3" d="M71.86,228.21c.14,.35,.08,.78-.14,1.12-.46,.73-1.55,.87-2.18,.28-.3-.27-.47-.68-.42-1.05,.14,.35,.36,.61,.63,.78,.91,.56,1.99-.08,2.1-1.12h0Z"/></g><g><circle class="cls-4" cx="74.08" cy="228.38" r="1.38"/><path class="cls-3" d="M75.45,228.21c.14,.35,.08,.78-.14,1.12-.46,.73-1.55,.87-2.18,.28-.3-.27-.47-.68-.42-1.05,.14,.35,.36,.61,.63,.78,.91,.56,1.99-.08,2.1-1.12h0Z"/></g></g></g><g><g><circle class="cls-4" cx="79.33" cy="208.61" r="1.38"/><path class="cls-3" d="M80.14,209.72c-.24,.29-.65,.45-1.05,.42-.86-.05-1.5-.94-1.29-1.78,.09-.4,.37-.73,.72-.87-.24,.29-.36,.61-.38,.92-.06,1.06,1.03,1.71,1.99,1.3h0Z"/></g><g><circle class="cls-4" cx="84.71" cy="208.98" r="1.38"/><path class="cls-3" d="M83.83,210.03c-.34-.16-.6-.52-.66-.92-.16-.84,.54-1.69,1.4-1.68,.41,0,.8,.18,1.02,.49-.34-.16-.68-.2-.99-.14-1.04,.21-1.41,1.42-.77,2.25h0Z"/></g><g><circle class="cls-4" cx="82.09" cy="207.31" r="1.38"/><path class="cls-3" d="M80.72,207.48c-.14-.35-.08-.78,.14-1.12,.46-.73,1.55-.87,2.18-.28,.3,.27,.47,.68,.42,1.05-.14-.35-.36-.61-.63-.78-.91-.56-1.99,.08-2.1,1.12h0Z"/></g><g><circle class="cls-4" cx="81.82" cy="210.28" r="1.38"/><path class="cls-3" d="M80.45,210.45c-.14-.35-.08-.78,.14-1.12,.46-.73,1.55-.87,2.18-.28,.3,.27,.47,.68,.42,1.05-.14-.35-.36-.61-.63-.78-.91-.56-1.99,.08-2.1,1.12h0Z"/></g></g><g><g><circle class="cls-4" cx="85.04" cy="211.87" r="1.38"/><path class="cls-3" d="M85.84,212.98c-.24,.29-.65,.45-1.05,.42-.86-.05-1.5-.94-1.29-1.78,.09-.4,.37-.73,.72-.87-.24,.29-.36,.61-.38,.92-.06,1.06,1.03,1.71,1.99,1.3h0Z"/></g><g><circle class="cls-4" cx="90.41" cy="212.23" r="1.38"/><path class="cls-3" d="M89.53,213.29c-.34-.16-.6-.52-.66-.92-.16-.84,.54-1.69,1.4-1.68,.41,0,.8,.18,1.02,.49-.34-.16-.68-.2-.99-.14-1.04,.21-1.41,1.42-.77,2.25h0Z"/></g><g><circle class="cls-4" cx="87.79" cy="210.57" r="1.38"/><path class="cls-3" d="M86.42,210.74c-.14-.35-.08-.78,.14-1.12,.46-.73,1.55-.87,2.18-.28,.3,.27,.47,.68,.42,1.05-.14-.35-.36-.61-.63-.78-.91-.56-1.99,.08-2.1,1.12h0Z"/></g><g><circle class="cls-4" cx="87.52" cy="213.54" r="1.38"/><path class="cls-3" d="M86.16,213.71c-.14-.35-.08-.78,.14-1.12,.46-.73,1.55-.87,2.18-.28,.3,.27,.47,.68,.42,1.05-.14-.35-.36-.61-.63-.78-.91-.56-1.99,.08-2.1,1.12h0Z"/></g></g><g><g><circle class="cls-4" cx="76.11" cy="213.16" r="1.38"/><path class="cls-3" d="M76.91,214.28c-.24,.29-.65,.45-1.05,.42-.86-.05-1.5-.94-1.29-1.78,.09-.4,.37-.73,.72-.87-.24,.29-.36,.61-.38,.92-.06,1.06,1.03,1.71,1.99,1.3h0Z"/></g><g><circle class="cls-4" cx="81.48" cy="213.53" r="1.38"/><path class="cls-3" d="M80.6,214.59c-.34-.16-.6-.52-.66-.92-.16-.84,.54-1.69,1.4-1.68,.41,0,.8,.18,1.02,.49-.34-.16-.68-.2-.99-.14-1.04,.21-1.41,1.42-.77,2.25h0Z"/></g><g><circle class="cls-4" cx="78.86" cy="211.87" r="1.38"/><path class="cls-3" d="M77.49,212.04c-.14-.35-.08-.78,.14-1.12,.46-.73,1.55-.87,2.18-.28,.3,.27,.47,.68,.42,1.05-.14-.35-.36-.61-.63-.78-.91-.56-1.99,.08-2.1,1.12h0Z"/></g><g><circle class="cls-4" cx="78.59" cy="214.84" r="1.38"/><path class="cls-3" d="M77.23,215.01c-.14-.35-.08-.78,.14-1.12,.46-.73,1.55-.87,2.18-.28,.3,.27,.47,.68,.42,1.05-.14-.35-.36-.61-.63-.78-.91-.56-1.99,.08-2.1,1.12h0Z"/></g></g><g><circle class="cls-4" cx="72.98" cy="211.43" r="1.38"/><path class="cls-3" d="M73.78,212.54c-.24,.29-.65,.45-1.05,.42-.86-.05-1.5-.94-1.29-1.78,.09-.4,.37-.73,.72-.87-.24,.29-.36,.61-.38,.92-.06,1.06,1.03,1.71,1.99,1.3h0Z"/></g><g><circle class="cls-4" cx="75.73" cy="210.13" r="1.38"/><path class="cls-3" d="M74.36,210.31c-.14-.35-.08-.78,.14-1.12,.46-.73,1.55-.87,2.18-.28,.3,.27,.47,.68,.42,1.05-.14-.35-.36-.61-.63-.78-.91-.56-1.99,.08-2.1,1.12h0Z"/></g><g><g><circle class="cls-4" cx="53.62" cy="217.99" r="1.38"/><path class="cls-3" d="M54.42,219.11c-.24,.29-.65,.45-1.05,.42-.86-.05-1.5-.94-1.29-1.78,.09-.4,.37-.73,.72-.87-.24,.29-.36,.61-.38,.92-.06,1.06,1.03,1.71,1.99,1.3h0Z"/></g><g><circle class="cls-4" cx="58.99" cy="218.36" r="1.38"/><path class="cls-3" d="M58.11,219.42c-.34-.16-.6-.52-.66-.92-.16-.84,.54-1.69,1.4-1.68,.41,0,.8,.18,1.02,.49-.34-.16-.68-.2-.99-.14-1.04,.21-1.41,1.42-.77,2.25h0Z"/></g><g><circle class="cls-4" cx="56.37" cy="216.69" r="1.38"/><path class="cls-3" d="M55,216.87c-.14-.35-.08-.78,.14-1.12,.46-.73,1.55-.87,2.18-.28,.3,.27,.47,.68,.42,1.05-.14-.35-.36-.61-.63-.78-.91-.56-1.99,.08-2.1,1.12h0Z"/></g><g><circle class="cls-4" cx="56.1" cy="219.67" r="1.38"/><path class="cls-3" d="M54.74,219.84c-.14-.35-.08-.78,.14-1.12,.46-.73,1.55-.87,2.18-.28,.3,.27,.47,.68,.42,1.05-.14-.35-.36-.61-.63-.78-.91-.56-1.99,.08-2.1,1.12h0Z"/></g></g><g><g><circle class="cls-4" cx="59.32" cy="221.25" r="1.38"/><path class="cls-3" d="M60.13,222.37c-.24,.29-.65,.45-1.05,.42-.86-.05-1.5-.94-1.29-1.78,.09-.4,.37-.73,.72-.87-.24,.29-.36,.61-.38,.92-.06,1.06,1.03,1.71,1.99,1.3h0Z"/></g><g><circle class="cls-4" cx="64.69" cy="221.62" r="1.38"/><path class="cls-3" d="M63.81,222.68c-.34-.16-.6-.52-.66-.92-.16-.84,.54-1.69,1.4-1.68,.41,0,.8,.18,1.02,.49-.34-.16-.68-.2-.99-.14-1.04,.21-1.41,1.42-.77,2.25h0Z"/></g><g><circle class="cls-4" cx="62.07" cy="219.95" r="1.38"/><path class="cls-3" d="M60.71,220.13c-.14-.35-.08-.78,.14-1.12,.46-.73,1.55-.87,2.18-.28,.3,.27,.47,.68,.42,1.05-.14-.35-.36-.61-.63-.78-.91-.56-1.99,.08-2.1,1.12h0Z"/></g><g><circle class="cls-4" cx="61.81" cy="222.92" r="1.38"/><path class="cls-3" d="M60.44,223.1c-.14-.35-.08-.78,.14-1.12,.46-.73,1.55-.87,2.18-.28,.3,.27,.47,.68,.42,1.05-.14-.35-.36-.61-.63-.78-.91-.56-1.99,.08-2.1,1.12h0Z"/></g></g><g><g><circle class="cls-4" cx="50.39" cy="222.55" r="1.38"/><path class="cls-3" d="M51.2,223.66c-.24,.29-.65,.45-1.05,.42-.86-.05-1.5-.94-1.29-1.78,.09-.4,.37-.73,.72-.87-.24,.29-.36,.61-.38,.92-.06,1.06,1.03,1.71,1.99,1.3h0Z"/></g><g><circle class="cls-4" cx="55.76" cy="222.92" r="1.38"/><path class="cls-3" d="M54.88,223.97c-.34-.16-.6-.52-.66-.92-.16-.84,.54-1.69,1.4-1.68,.41,0,.8,.18,1.02,.49-.34-.16-.68-.2-.99-.14-1.04,.21-1.41,1.42-.77,2.25h0Z"/></g><g><circle class="cls-4" cx="53.14" cy="221.25" r="1.38"/><path class="cls-3" d="M51.78,221.42c-.14-.35-.08-.78,.14-1.12,.46-.73,1.55-.87,2.18-.28,.3,.27,.47,.68,.42,1.05-.14-.35-.36-.61-.63-.78-.91-.56-1.99,.08-2.1,1.12h0Z"/></g><g><circle class="cls-4" cx="52.88" cy="224.22" r="1.38"/><path class="cls-3" d="M51.51,224.4c-.14-.35-.08-.78,.14-1.12,.46-.73,1.55-.87,2.18-.28,.3,.27,.47,.68,.42,1.05-.14-.35-.36-.61-.63-.78-.91-.56-1.99,.08-2.1,1.12h0Z"/></g></g><g><circle class="cls-4" cx="47.26" cy="220.81" r="1.38"/><path class="cls-3" d="M48.07,221.93c-.24,.29-.65,.45-1.05,.42-.86-.05-1.5-.94-1.29-1.78,.09-.4,.37-.73,.72-.87-.24,.29-.36,.61-.38,.92-.06,1.06,1.03,1.71,1.99,1.3h0Z"/></g><g><circle class="cls-4" cx="50.01" cy="219.52" r="1.38"/><path class="cls-3" d="M48.65,219.69c-.14-.35-.08-.78,.14-1.12,.46-.73,1.55-.87,2.18-.28,.3,.27,.47,.68,.42,1.05-.14-.35-.36-.61-.63-.78-.91-.56-1.99,.08-2.1,1.12h0Z"/></g><g><circle class="cls-4" cx="163.76" cy="224.93" r="1.38"/><path class="cls-3" d="M162.47,224.48c.03-.37,.28-.74,.63-.94,.74-.45,1.77-.08,2.07,.73,.15,.38,.11,.82-.1,1.13,.03-.37-.05-.71-.21-.98-.56-.9-1.82-.82-2.38,.06h0Z"/></g><g><circle class="cls-4" cx="147.44" cy="220.78" r="1.38"/><path class="cls-3" d="M146.15,220.33c.03-.37,.28-.74,.63-.94,.74-.45,1.77-.08,2.07,.73,.15,.38,.11,.82-.1,1.13,.03-.37-.05-.71-.21-.98-.56-.9-1.82-.82-2.38,.06h0Z"/></g><g><circle class="cls-4" cx="127.76" cy="222.15" r="1.38"/><path class="cls-3" d="M126.46,221.69c.03-.37,.28-.74,.63-.94,.74-.45,1.77-.08,2.07,.73,.15,.38,.11,.82-.1,1.13,.03-.37-.05-.71-.21-.98-.56-.9-1.82-.82-2.38,.06h0Z"/></g><g><circle class="cls-4" cx="133.53" cy="220.78" r="1.38"/><path class="cls-3" d="M132.23,220.33c.03-.37,.28-.74,.63-.94,.74-.45,1.77-.08,2.07,.73,.15,.38,.11,.82-.1,1.13,.03-.37-.05-.71-.21-.98-.56-.9-1.82-.82-2.38,.06h0Z"/></g><g><circle class="cls-4" cx="139.6" cy="220.63" r="1.38"/><path class="cls-3" d="M138.3,220.17c.03-.37,.28-.74,.63-.94,.74-.45,1.77-.08,2.07,.73,.15,.38,.11,.82-.1,1.13,.03-.37-.05-.71-.21-.98-.56-.9-1.82-.82-2.38,.06h0Z"/></g><g><circle class="cls-4" cx="156.11" cy="225.08" r="1.38"/><path class="cls-3" d="M154.81,224.62c.03-.37,.28-.74,.63-.94,.74-.45,1.77-.08,2.07,.73,.15,.38,.11,.82-.1,1.13,.03-.37-.05-.71-.21-.98-.56-.9-1.82-.82-2.38,.06h0Z"/></g><g><circle class="cls-4" cx="160.29" cy="225.08" r="1.38"/><path class="cls-3" d="M158.99,224.62c.03-.37,.28-.74,.63-.94,.74-.45,1.77-.08,2.07,.73,.15,.38,.11,.82-.1,1.13,.03-.37-.05-.71-.21-.98-.56-.9-1.82-.82-2.38,.06h0Z"/></g><g><circle class="cls-4" cx="174.51" cy="224.46" r="1.38"/><path class="cls-3" d="M173.21,224c.03-.37,.28-.74,.63-.94,.74-.45,1.77-.08,2.07,.73,.15,.38,.11,.82-.1,1.13,.03-.37-.05-.71-.21-.98-.56-.9-1.82-.82-2.38,.06h0Z"/></g><g><circle class="cls-4" cx="169.14" cy="225.29" r="1.38"/><path class="cls-3" d="M167.84,224.83c.03-.37,.28-.74,.63-.94,.74-.45,1.77-.08,2.07,.73,.15,.38,.11,.82-.1,1.13,.03-.37-.05-.71-.21-.98-.56-.9-1.82-.82-2.38,.06h0Z"/></g><g><circle class="cls-4" cx="178.63" cy="225.02" r="1.38"/><path class="cls-3" d="M177.33,224.56c.03-.37,.28-.74,.63-.94,.74-.45,1.77-.08,2.07,.73,.15,.38,.11,.82-.1,1.13,.03-.37-.05-.71-.21-.98-.56-.9-1.82-.82-2.38,.06h0Z"/></g><g><circle class="cls-4" cx="177.81" cy="217.47" r="1.38"/><path class="cls-3" d="M176.52,217.02c.03-.37,.28-.74,.63-.94,.74-.45,1.77-.08,2.07,.73,.15,.38,.11,.82-.1,1.13,.03-.37-.05-.71-.21-.98-.56-.9-1.82-.82-2.38,.06h0Z"/></g><g><circle class="cls-4" cx="179.95" cy="220.67" r="1.38"/><path class="cls-3" d="M178.65,220.21c.03-.37,.28-.74,.63-.94,.74-.45,1.77-.08,2.07,.73,.15,.38,.11,.82-.1,1.13,.03-.37-.05-.71-.21-.98-.56-.9-1.82-.82-2.38,.06h0Z"/></g><g><circle class="cls-4" cx="174.05" cy="227.15" r="1.38"/><path class="cls-3" d="M172.75,226.69c.03-.37,.28-.74,.63-.94,.74-.45,1.77-.08,2.07,.73,.15,.38,.11,.82-.1,1.13,.03-.37-.05-.71-.21-.98-.56-.9-1.82-.82-2.38,.06h0Z"/></g><g><circle class="cls-4" cx="159.8" cy="227.45" r="1.38"/><path class="cls-3" d="M158.5,227c.03-.37,.28-.74,.63-.94,.74-.45,1.77-.08,2.07,.73,.15,.38,.11,.82-.1,1.13,.03-.37-.05-.71-.21-.98-.56-.9-1.82-.82-2.38,.06h0Z"/></g><g><circle class="cls-4" cx="163.98" cy="227.45" r="1.38"/><path class="cls-3" d="M162.69,227c.03-.37,.28-.74,.63-.94,.74-.45,1.77-.08,2.07,.73,.15,.38,.11,.82-.1,1.13,.03-.37-.05-.71-.21-.98-.56-.9-1.82-.82-2.38,.06h0Z"/></g><g><circle class="cls-4" cx="168.17" cy="227.45" r="1.38"/><path class="cls-3" d="M166.87,227c.03-.37,.28-.74,.63-.94,.74-.45,1.77-.08,2.07,.73,.15,.38,.11,.82-.1,1.13,.03-.37-.05-.71-.21-.98-.56-.9-1.82-.82-2.38,.06h0Z"/></g><g><circle class="cls-4" cx="185.08" cy="226.37" r="1.38"/><path class="cls-3" d="M183.78,225.92c.03-.37,.28-.74,.63-.94,.74-.45,1.77-.08,2.07,.73,.15,.38,.11,.82-.1,1.13,.03-.37-.05-.71-.21-.98-.56-.9-1.82-.82-2.38,.06h0Z"/></g><g><circle class="cls-4" cx="180.52" cy="227.39" r="1.38"/><path class="cls-3" d="M179.22,226.93c.03-.37,.28-.74,.63-.94,.74-.45,1.77-.08,2.07,.73,.15,.38,.11,.82-.1,1.13,.03-.37-.05-.71-.21-.98-.56-.9-1.82-.82-2.38,.06h0Z"/></g><g><circle class="cls-4" cx="182.27" cy="223.74" r="1.38"/><path class="cls-3" d="M180.97,223.28c.03-.37,.28-.74,.63-.94,.74-.45,1.77-.08,2.07,.73,.15,.38,.11,.82-.1,1.13,.03-.37-.05-.71-.21-.98-.56-.9-1.82-.82-2.38,.06h0Z"/></g></g><g><path class="cls-11" d="M230,145.11v5.7c0,.79-.12,1.55-.34,2.27-.14,.48-.34,.94-.58,1.37-.24,.44-.52,.85-.82,1.23-.31,.37-.66,.72-1.03,1.03-.38,.3-.79,.58-1.23,.82-.43,.24-.89,.44-1.37,.58-.72,.22-1.48,.34-2.27,.34h-12.32l-14.96,60.71c-3.14,6.62-9.82,10.84-17.15,10.84H52.07c-7.33,0-14.01-4.22-17.15-10.84l-14.96-60.71H7.64c-.79,0-1.55-.12-2.27-.34-.48-.14-.94-.34-1.37-.58-.44-.24-.85-.52-1.23-.82-.37-.31-.72-.66-1.03-1.03-.3-.38-.58-.79-.82-1.23-.24-.43-.44-.89-.58-1.37-.22-.72-.34-1.48-.34-2.27v-5.7c0-.21,.01-.42,.03-.62,.01-.04,.01-.08,.01-.11,.01-.05,.01-.09,.02-.13v-.02c.04-.36,.11-.71,.21-1.05,.02-.1,.04-.19,.07-.29,.01-.03,.02-.05,.03-.08,.02-.06,.04-.13,.06-.19,.05-.14,.1-.28,.16-.41,.01-.02,.02-.05,.03-.07,.08-.19,.17-.37,.27-.55,.04-.07,.07-.14,.11-.21,.05-.08,.1-.16,.15-.24,.02-.05,.05-.1,.08-.14,.02-.04,.05-.07,.07-.11,.05-.08,.1-.15,.16-.22,.05-.08,.11-.15,.17-.23,.04-.05,.08-.09,.11-.14,.03-.03,.05-.06,.08-.09,.09-.11,.19-.22,.29-.33,.12-.14,.26-.26,.39-.37,.02-.02,.03-.03,.05-.05,.17-.15,.34-.29,.52-.42t.01-.01c.18-.13,.36-.26,.55-.37,.05-.04,.1-.07,.15-.09,.07-.05,.14-.09,.22-.13,.04-.02,.08-.05,.13-.07,.09-.04,.18-.09,.27-.13,.04-.02,.08-.04,.13-.06,.08-.04,.17-.08,.26-.11,.07-.03,.14-.06,.22-.08,.12-.05,.24-.09,.36-.13,.02-.01,.05-.01,.08-.02,.02-.01,.05-.02,.08-.03,.06-.01,.13-.03,.2-.05,.03-.01,.05-.01,.08-.02,.13-.04,.26-.06,.39-.09,.08-.01,.15-.02,.23-.03,.14-.03,.28-.05,.43-.06,.07-.01,.14-.01,.21-.02,.15-.01,.3-.02,.46-.02H29.54v3.44c0,1.03,.84,1.86,1.87,1.86s1.86-.83,1.86-1.86v-3.44h2.39v3.44c0,1.03,.84,1.86,1.87,1.86h.2c1.03,0,1.86-.83,1.86-1.86v-3.44h2.39v3.44c0,1.03,.84,1.86,1.87,1.86h.21c1.03,0,1.86-.83,1.86-1.86v-3.44h2.39v3.44c0,1.03,.84,1.86,1.87,1.86s1.86-.83,1.86-1.86v-3.44h30.22v3.44c0,1.03,.83,1.86,1.86,1.86s1.87-.83,1.87-1.86v-3.44h2.39v3.44c0,1.03,.83,1.86,1.86,1.86h.2c1.03,0,1.87-.83,1.87-1.86v-3.44h2.39v3.44c0,1.03,.83,1.86,1.86,1.86h.21c1.03,0,1.87-.83,1.87-1.86v-3.44h2.39v3.44c0,1.03,.83,1.86,1.86,1.86s1.87-.83,1.87-1.86v-3.44h30.21v3.44c0,1.03,.84,1.86,1.87,1.86s1.86-.83,1.86-1.86v-3.44h2.39v3.44c0,1.03,.84,1.86,1.87,1.86h.2c1.03,0,1.86-.83,1.86-1.86v-3.44h2.39v3.44c0,1.03,.84,1.86,1.87,1.86h.21c1.03,0,1.86-.83,1.86-1.86v-3.44h2.39v3.44c0,1.03,.84,1.86,1.87,1.86s1.86-.83,1.86-1.86v-3.44h30.21v3.44c0,1.03,.84,1.86,1.87,1.86s1.86-.83,1.86-1.86v-3.44h2.39v3.44c0,1.03,.84,1.86,1.87,1.86h.2c1.03,0,1.86-.83,1.86-1.86v-3.44h2.39v3.44c0,1.03,.84,1.86,1.87,1.86h.21c1.03,0,1.86-.83,1.86-1.86v-3.44h2.39v3.44c0,1.03,.84,1.86,1.87,1.86s1.86-.83,1.86-1.86v-3.44h12.29c.16,0,.31,.01,.46,.02,.07,.01,.14,.01,.21,.02,.15,.01,.29,.03,.43,.06,.08,.01,.15,.02,.23,.03,.13,.03,.26,.05,.39,.09,.03,0,.05,0,.08,.02,.07,.02,.14,.04,.2,.05,.03,.01,.06,.02,.08,.03,.03,.01,.06,.01,.08,.02,.12,.04,.24,.08,.36,.13,.08,.02,.15,.05,.22,.08,.09,.03,.18,.07,.26,.11,.05,.02,.09,.04,.13,.06,.09,.04,.18,.09,.27,.13,.05,.02,.09,.05,.13,.07,.08,.04,.15,.08,.22,.13,.05,.02,.1,.05,.15,.09,.19,.11,.37,.24,.55,.37t0,.01c.18,.13,.35,.27,.52,.42l.05,.05c.13,.11,.27,.23,.39,.37,.1,.11,.2,.22,.29,.33,.03,.03,.05,.06,.08,.09,.03,.05,.07,.09,.11,.14,.06,.08,.12,.15,.17,.23,.06,.07,.11,.14,.16,.22,.02,.04,.05,.07,.07,.11,.03,.04,.06,.09,.08,.14,.05,.08,.1,.16,.15,.24,.04,.07,.07,.14,.11,.21,.1,.18,.19,.36,.27,.55,0,.02,.02,.05,.03,.07,.06,.13,.11,.27,.16,.41,.02,.06,.04,.13,.06,.19,0,.03,.02,.05,.03,.08,.03,.1,.05,.19,.07,.29,.1,.34,.17,.69,.21,1.05v.02s.01,.08,.02,.13c0,.03,0,.07,.01,.11,.02,.2,.03,.41,.03,.62Z"/><path class="cls-6" d="M230,145.11v5.7c0,.79-.12,1.55-.34,2.27-.15,.48-.35,.94-.58,1.37-.24,.44-.52,.85-.82,1.23-.32,.37-.66,.71-1.03,1.03-.38,.3-.79,.58-1.23,.82-.43,.23-.89,.43-1.37,.58-.72,.22-1.48,.34-2.27,.34H7.64c-.79,0-1.55-.12-2.27-.34-.48-.15-.94-.35-1.37-.58-.44-.24-.85-.52-1.23-.82-.37-.32-.71-.66-1.03-1.03-.3-.38-.58-.79-.82-1.23-.23-.43-.43-.89-.58-1.37-.22-.72-.34-1.48-.34-2.27v-5.7c0-.21,.01-.42,.03-.62,.01-.04,.01-.08,.01-.11,.01-.05,.01-.09,.02-.13v-.02c.04-.36,.11-.71,.21-1.05,.02-.1,.04-.19,.07-.29,.01-.03,.02-.05,.03-.08,.02-.06,.04-.13,.06-.19,.04-.09,.07-.18,.11-.26,.01-.05,.03-.1,.05-.15,.01-.02,.02-.05,.03-.07,.08-.19,.17-.37,.27-.55,.04-.07,.07-.14,.11-.21,.05-.08,.1-.16,.15-.24,.02-.05,.05-.1,.08-.14,.02-.04,.05-.07,.07-.11,.05-.08,.1-.15,.16-.22,.05-.08,.11-.15,.17-.23,.04-.05,.08-.09,.11-.14,.03-.03,.05-.06,.08-.09,.14-.16,.28-.31,.42-.45,.08-.09,.17-.17,.26-.25,.02-.02,.03-.03,.05-.05,.17-.15,.34-.29,.52-.42t.01-.01c.18-.13,.36-.26,.55-.37,.05-.04,.1-.07,.15-.09,.07-.05,.14-.09,.22-.13,.04-.02,.08-.05,.13-.07,.09-.04,.18-.09,.27-.13,.04-.02,.08-.04,.13-.06,.08-.04,.17-.08,.26-.11,.07-.03,.14-.06,.22-.08,.12-.05,.24-.09,.36-.13,.02-.01,.05-.01,.08-.02,.02-.01,.05-.02,.08-.03,.06-.01,.13-.03,.2-.05,.03-.01,.05-.01,.08-.02,.02,0,.05-.01,.07-.01,.07-.02,.15-.04,.22-.05,.11-.03,.22-.05,.33-.06,.14-.03,.28-.05,.43-.06,.07-.01,.14-.01,.21-.02,.15-.01,.3-.02,.46-.02H29.54v3.44c0,1.03,.84,1.86,1.87,1.86s1.86-.83,1.86-1.86v-3.44h2.39v3.44c0,1.03,.84,1.86,1.87,1.86h.2c1.03,0,1.86-.83,1.86-1.86v-3.44h2.39v3.44c0,1.03,.84,1.86,1.87,1.86h.21c1.03,0,1.86-.83,1.86-1.86v-3.44h2.39v3.44c0,1.03,.84,1.86,1.87,1.86s1.86-.83,1.86-1.86v-3.44h30.22v3.44c0,1.03,.83,1.86,1.86,1.86s1.87-.83,1.87-1.86v-3.44h2.39v3.44c0,1.03,.83,1.86,1.86,1.86h.2c1.03,0,1.87-.83,1.87-1.86v-3.44h2.39v3.44c0,1.03,.83,1.86,1.86,1.86h.21c1.03,0,1.87-.83,1.87-1.86v-3.44h2.39v3.44c0,1.03,.83,1.86,1.86,1.86s1.87-.83,1.87-1.86v-3.44h30.21v3.44c0,1.03,.84,1.86,1.87,1.86s1.86-.83,1.86-1.86v-3.44h2.39v3.44c0,1.03,.84,1.86,1.87,1.86h.2c1.03,0,1.86-.83,1.86-1.86v-3.44h2.39v3.44c0,1.03,.84,1.86,1.87,1.86h.21c1.03,0,1.86-.83,1.86-1.86v-3.44h2.39v3.44c0,1.03,.84,1.86,1.87,1.86s1.86-.83,1.86-1.86v-3.44h30.21v3.44c0,1.03,.84,1.86,1.87,1.86s1.86-.83,1.86-1.86v-3.44h2.39v3.44c0,1.03,.84,1.86,1.87,1.86h.2c1.03,0,1.86-.83,1.86-1.86v-3.44h2.39v3.44c0,1.03,.84,1.86,1.87,1.86h.21c1.03,0,1.86-.83,1.86-1.86v-3.44h2.39v3.44c0,1.03,.84,1.86,1.87,1.86s1.86-.83,1.86-1.86v-3.44h12.29c.16,0,.31,.01,.46,.02,.07,.01,.14,.01,.21,.02,.15,.01,.29,.03,.43,.06,.11,.01,.22,.03,.33,.06,.07,0,.15,.03,.22,.05,.02,0,.05,.01,.07,.01,.03,0,.05,0,.08,.02,.07,.02,.14,.04,.2,.05,.03,.01,.06,.02,.08,.03,.03,.01,.06,.01,.08,.02,.12,.04,.24,.08,.36,.13,.08,.02,.15,.05,.22,.08,.09,.03,.18,.07,.26,.11,.05,.02,.09,.04,.13,.06,.09,.04,.18,.09,.27,.13,.05,.02,.09,.05,.13,.07,.08,.04,.15,.08,.22,.13,.05,.02,.1,.05,.15,.09,.19,.11,.37,.24,.55,.37t0,.01c.18,.13,.35,.27,.52,.42l.05,.05c.09,.08,.18,.16,.26,.25,.14,.14,.28,.29,.42,.45,.03,.03,.05,.06,.08,.09,.03,.05,.07,.09,.11,.14,.06,.08,.12,.15,.17,.23,.06,.07,.11,.14,.16,.22,.02,.04,.05,.07,.07,.11,.03,.04,.06,.09,.08,.14,.05,.08,.1,.16,.15,.24,.04,.07,.07,.14,.11,.21,.1,.18,.19,.36,.27,.55,0,.02,.02,.05,.03,.07,.02,.05,.04,.1,.05,.15,.04,.08,.07,.17,.11,.26,.02,.06,.04,.13,.06,.19,0,.03,.02,.05,.03,.08,.03,.1,.05,.19,.07,.29,.1,.34,.17,.69,.21,1.05v.02s.01,.08,.02,.13c0,.03,0,.07,.01,.11,.02,.2,.03,.41,.03,.62Z"/><path class="cls-6" d="M230,145.11v5.7c0,.79-.12,1.55-.34,2.27-.15,.48-.35,.94-.58,1.37-.24,.44-.52,.85-.82,1.23-.32,.37-.66,.71-1.03,1.03-.38,.3-.79,.58-1.23,.82-.43,.23-.89,.43-1.37,.58-.72,.22-1.48,.34-2.27,.34H7.64c-.79,0-1.55-.12-2.27-.34-.48-.15-.94-.35-1.37-.58-.44-.24-.85-.52-1.23-.82-.37-.32-.71-.66-1.03-1.03-.3-.38-.58-.79-.82-1.23-.23-.43-.43-.89-.58-1.37-.22-.72-.34-1.48-.34-2.27v-5.7c0-.21,.01-.42,.03-.62,.01-.04,.01-.08,.01-.11,.01-.05,.01-.09,.02-.13v-.02c.04-.36,.11-.71,.21-1.05,.03-.12,.06-.25,.1-.37,.06-.15,.11-.3,.17-.45,.01-.05,.03-.1,.05-.15,.01-.02,.02-.05,.03-.07,.08-.19,.17-.37,.27-.55,.04-.07,.07-.14,.11-.21,.05-.08,.1-.16,.15-.24,.02-.05,.05-.1,.08-.14,.02-.04,.05-.07,.07-.11,.05-.08,.1-.15,.16-.22,.05-.08,.11-.15,.17-.23,.04-.05,.08-.09,.11-.14,.03-.03,.05-.06,.08-.09,.09-.11,.19-.22,.29-.33,.04-.04,.09-.08,.13-.12,.08-.09,.17-.17,.26-.25,.02-.02,.03-.03,.05-.05,.17-.15,.34-.29,.52-.42t.01-.01c.18-.13,.36-.26,.55-.37,.05-.04,.1-.07,.15-.09,.07-.05,.14-.09,.22-.13,.04-.02,.08-.05,.13-.07,.09-.04,.18-.09,.27-.13,.04-.02,.08-.04,.13-.06,.08-.04,.17-.08,.26-.11,.07-.03,.14-.06,.22-.08,.12-.05,.24-.09,.36-.13,.02-.01,.05-.01,.08-.02,.02-.01,.05-.02,.08-.03,.06-.01,.13-.03,.2-.05,.03-.01,.05-.01,.08-.02,.02,0,.05-.01,.07-.01,.07-.02,.15-.04,.22-.05,.03-.01,.07-.02,.1-.03,.08-.01,.15-.02,.23-.03,.14-.03,.28-.05,.43-.06,.07-.01,.14-.01,.21-.02,.15-.01,.3-.02,.46-.02H29.54v3.44c0,1.03,.84,1.86,1.87,1.86s1.86-.83,1.86-1.86v-3.44h2.39v3.44c0,1.03,.84,1.86,1.87,1.86h.2c1.03,0,1.86-.83,1.86-1.86v-3.44h2.39v3.44c0,1.03,.84,1.86,1.87,1.86h.21c1.03,0,1.86-.83,1.86-1.86v-3.44h2.39v3.44c0,1.03,.84,1.86,1.87,1.86s1.86-.83,1.86-1.86v-3.44h30.22v3.44c0,1.03,.83,1.86,1.86,1.86s1.87-.83,1.87-1.86v-3.44h2.39v3.44c0,1.03,.83,1.86,1.86,1.86h.2c1.03,0,1.87-.83,1.87-1.86v-3.44h2.39v3.44c0,1.03,.83,1.86,1.86,1.86h.21c1.03,0,1.87-.83,1.87-1.86v-3.44h2.39v3.44c0,1.03,.83,1.86,1.86,1.86s1.87-.83,1.87-1.86v-3.44h30.21v3.44c0,1.03,.84,1.86,1.87,1.86s1.86-.83,1.86-1.86v-3.44h2.39v3.44c0,1.03,.84,1.86,1.87,1.86h.2c1.03,0,1.86-.83,1.86-1.86v-3.44h2.39v3.44c0,1.03,.84,1.86,1.87,1.86h.21c1.03,0,1.86-.83,1.86-1.86v-3.44h2.39v3.44c0,1.03,.84,1.86,1.87,1.86s1.86-.83,1.86-1.86v-3.44h30.21v3.44c0,1.03,.84,1.86,1.87,1.86s1.86-.83,1.86-1.86v-3.44h2.39v3.44c0,1.03,.84,1.86,1.87,1.86h.2c1.03,0,1.86-.83,1.86-1.86v-3.44h2.39v3.44c0,1.03,.84,1.86,1.87,1.86h.21c1.03,0,1.86-.83,1.86-1.86v-3.44h2.39v3.44c0,1.03,.84,1.86,1.87,1.86s1.86-.83,1.86-1.86v-3.44h12.29c.16,0,.31,.01,.46,.02,.07,.01,.14,.01,.21,.02,.15,.01,.29,.03,.43,.06,.08,.01,.15,.02,.23,.03,.03,.01,.07,.02,.1,.03,.07,0,.15,.03,.22,.05,.02,0,.05,.01,.07,.01,.03,0,.05,0,.08,.02,.07,.02,.14,.04,.2,.05,.03,.01,.06,.02,.08,.03,.03,.01,.06,.01,.08,.02,.12,.04,.24,.08,.36,.13,.08,.02,.15,.05,.22,.08,.09,.03,.18,.07,.26,.11,.05,.02,.09,.04,.13,.06,.09,.04,.18,.09,.27,.13,.05,.02,.09,.05,.13,.07,.08,.04,.15,.08,.22,.13,.05,.02,.1,.05,.15,.09,.19,.11,.37,.24,.55,.37t0,.01c.18,.13,.35,.27,.52,.42l.05,.05c.09,.08,.18,.16,.26,.25,.04,.04,.09,.08,.13,.12,.1,.11,.2,.22,.29,.33,.03,.03,.05,.06,.08,.09,.03,.05,.07,.09,.11,.14,.06,.08,.12,.15,.17,.23,.06,.07,.11,.14,.16,.22,.02,.04,.05,.07,.07,.11,.03,.04,.06,.09,.08,.14,.05,.08,.1,.16,.15,.24,.04,.07,.07,.14,.11,.21,.1,.18,.19,.36,.27,.55,0,.02,.02,.05,.03,.07,.02,.05,.04,.1,.05,.15,.06,.15,.11,.3,.17,.45,.04,.12,.07,.25,.1,.37,.1,.34,.17,.69,.21,1.05v.02s.01,.08,.02,.13c0,.03,0,.07,.01,.11,.02,.2,.03,.41,.03,.62Z"/><rect class="cls-5" x="43.93" y="155.26" width="136.45" height="6.37" rx="3.18" ry="3.18"/></g></g><path class="cls-9" d="M229.94,144.23h0s-6.49,3.11-19.09,3.75c-12.61,.64-31.32-1.18-49.49-1.09-19.13,.1-39.7-2.02-56.66-2.02-38.54,0-48.13,1.3-69.64,1.3-8.53,0-35-1.93-35-1.93H.06c.04-.37,.11-.72,.21-1.06,.03-.12,.06-.25,.1-.37,.06-.15,.11-.3,.17-.45,.01-.05,.03-.1,.05-.15,.01-.02,.02-.05,.03-.07,.08-.19,.17-.37,.27-.55,.04-.07,.07-.14,.11-.21,.05-.08,.1-.16,.15-.24,.02-.05,.05-.1,.08-.14,.02-.04,.05-.07,.07-.11,.05-.08,.1-.15,.16-.22,.05-.08,.11-.15,.17-.23,.04-.05,.08-.09,.11-.14,.03-.03,.05-.06,.08-.09,.09-.11,.19-.22,.29-.33,.04-.04,.09-.08,.13-.12,.08-.09,.17-.17,.26-.25,.02-.02,.03-.03,.05-.05,.17-.15,.34-.29,.52-.42t.01-.01c.18-.13,.36-.26,.55-.37,.05-.04,.1-.07,.15-.09,.07-.05,.14-.09,.22-.13,.04-.02,.08-.05,.13-.07,.09-.04,.18-.09,.27-.13,.04-.02,.08-.04,.13-.06,.08-.04,.17-.08,.26-.11,.07-.03,.14-.06,.22-.08,.12-.05,.24-.09,.36-.13,.02-.01,.05-.01,.08-.02,.02-.01,.05-.02,.08-.03,.06-.01,.13-.03,.2-.05,.03-.01,.05-.01,.08-.02,.02,0,.05-.01,.07-.01,.07-.02,.15-.04,.22-.05,.03-.01,.07-.02,.1-.03,.08-.01,.15-.02,.23-.03,.14-.03,.28-.05,.43-.06,.07-.01,.14-.01,.21-.02,.15-.01,.3-.02,.46-.02H29.54v3.44c0,1.03,.84,1.86,1.87,1.86s1.86-.83,1.86-1.86v-3.44h2.39v3.44c0,1.03,.84,1.86,1.87,1.86h.2c1.03,0,1.86-.83,1.86-1.86v-3.44h2.39v3.44c0,1.03,.84,1.86,1.87,1.86h.21c1.03,0,1.86-.83,1.86-1.86v-3.44h2.39v3.44c0,1.03,.84,1.86,1.87,1.86s1.86-.83,1.86-1.86v-3.44h30.22v3.44c0,1.03,.83,1.86,1.86,1.86s1.87-.83,1.87-1.86v-3.44h2.39v3.44c0,1.03,.83,1.86,1.86,1.86h.2c1.03,0,1.87-.83,1.87-1.86v-3.44h2.39v3.44c0,1.03,.83,1.86,1.86,1.86h.21c1.03,0,1.87-.83,1.87-1.86v-3.44h2.39v3.44c0,1.03,.83,1.86,1.86,1.86s1.87-.83,1.87-1.86v-3.44h30.21v3.44c0,1.03,.84,1.86,1.87,1.86s1.86-.83,1.86-1.86v-3.44h2.39v3.44c0,1.03,.84,1.86,1.87,1.86h.2c1.03,0,1.86-.83,1.86-1.86v-3.44h2.39v3.44c0,1.03,.84,1.86,1.87,1.86h.21c1.03,0,1.86-.83,1.86-1.86v-3.44h2.39v3.44c0,1.03,.84,1.86,1.87,1.86s1.86-.83,1.86-1.86v-3.44h30.21v3.44c0,1.03,.84,1.86,1.87,1.86s1.86-.83,1.86-1.86v-3.44h2.39v3.44c0,1.03,.84,1.86,1.87,1.86h.2c1.03,0,1.86-.83,1.86-1.86v-3.44h2.39v3.44c0,1.03,.84,1.86,1.87,1.86h.21c1.03,0,1.86-.83,1.86-1.86v-3.44h2.39v3.44c0,1.03,.84,1.86,1.87,1.86s1.86-.83,1.86-1.86v-3.44h12.29c.16,0,.31,.01,.46,.02,.07,.01,.14,.01,.21,.02,.15,.01,.29,.03,.43,.06,.08,.01,.15,.02,.23,.03,.03,.01,.07,.02,.1,.03,.07,0,.15,.03,.22,.05,.02,0,.05,.01,.07,.01,.03,0,.05,0,.08,.02,.07,.02,.14,.04,.2,.05,.03,.01,.06,.02,.08,.03,.03,.01,.06,.01,.08,.02,.12,.04,.24,.08,.36,.13,.08,.02,.15,.05,.22,.08,.09,.03,.18,.07,.26,.11,.05,.02,.09,.04,.13,.06,.09,.04,.18,.09,.27,.13,.05,.02,.09,.05,.13,.07,.08,.04,.15,.08,.22,.13,.05,.02,.1,.05,.15,.09,.19,.11,.37,.24,.55,.37t0,.01c.18,.13,.35,.27,.52,.42l.05,.05c.09,.08,.18,.16,.26,.25,.04,.04,.09,.08,.13,.12,.1,.11,.2,.22,.29,.33,.03,.03,.05,.06,.08,.09,.03,.05,.07,.09,.11,.14,.06,.08,.12,.15,.17,.23,.06,.07,.11,.14,.16,.22,.02,.04,.05,.07,.07,.11,.03,.04,.06,.09,.08,.14,.05,.08,.1,.16,.15,.24,.04,.07,.07,.14,.11,.21,.1,.18,.19,.36,.27,.55,0,.02,.02,.05,.03,.07,.02,.05,.04,.1,.05,.15,.06,.15,.11,.3,.17,.45,.04,.12,.07,.25,.1,.37,.1,.34,.17,.69,.21,1.05Z"/><path class="cls-1" d="M190.02,225.65c-3.34,2.76-7.59,4.35-12.09,4.35H52.06c-7.32,0-14-4.22-17.15-10.84l-14.96-60.71H7.64c-.79,0-1.55-.12-2.27-.34-.36-.11-.71-.25-1.04-.41-.33-.16-.65-.34-.96-.55-.21-.14-.41-.29-.6-.44-.28-.24-.54-.49-.78-.76-.17-.19-.32-.37-.47-.57-.15-.2-.28-.4-.41-.61-.13-.21-.25-.42-.35-.65-.11-.22-.21-.45-.29-.68-.05-.12-.09-.24-.13-.36s-.07-.25-.11-.38c-.05-.22-.1-.45-.13-.68-.03-.15-.05-.31-.06-.47-.03-.23-.04-.46-.04-.7v-5.75c0-.22,.01-.44,.04-.66,.01-.16,.03-.32,.06-.48,.03-.24,.08-.46,.13-.69,.04-.13,.07-.26,.11-.38,.04-.12,.08-.24,.13-.36,.08-.23,.18-.46,.29-.68,.1-.22,.22-.44,.35-.65,.13-.21,.26-.41,.41-.61,.15-.2,.3-.38,.47-.57,.16-.18,.33-.35,.51-.51,.19-.17,.37-.32,.57-.47s.4-.28,.61-.41c.21-.13,.43-.25,.65-.35,.22-.11,.45-.21,.68-.29,.12-.05,.24-.09,.36-.13,.12-.04,.25-.07,.38-.11,.23-.05,.45-.1,.69-.13,.16-.03,.32-.05,.48-.06,.22-.03,.44-.04,.66-.04h.5c-.08,.13-.17,.27-.24,.41-.17,.31-.32,.63-.44,.97h0c-.04,.12-.08,.24-.11,.35-.22,.72-.34,1.48-.34,2.27v5.65c0,.79,.12,1.55,.34,2.27,.14,.48,.34,.94,.58,1.37,.24,.44,.52,.85,.82,1.23,.31,.37,.65,.72,1.03,1.03,.38,.3,.79,.58,1.23,.82,.43,.24,.89,.44,1.37,.58,.72,.22,1.48,.34,2.27,.34h12.31l.9,3.64,14.06,57.07c3.15,6.62,9.82,10.84,17.15,10.84h125.87c1.77,0,3.49-.25,5.14-.71Z"/><g><g><path class="cls-2" d="M113.08,5.66c0-3.13,2.53-5.66,5.66-5.66s5.66,2.53,5.66,5.66c0,.36-1.8,50.28-1.8,50.28h-7.72s-1.8-49.92-1.8-50.28Z"/><rect class="cls-8" x="114.88" y="55.94" width="7.72" height="2.39"/><rect class="cls-9" x="114.88" y="58.33" width="7.72" height="7.58"/><path class="cls-9" d="M107.49,93.68v-21.25c0-3.6,2.92-6.52,6.52-6.52h9.45c3.6,0,6.52,2.92,6.52,6.52v21.25c0,1.03-.83,1.86-1.86,1.86h0c-1.03,0-1.86-.83-1.86-1.86v-18.93c0-.66-.53-1.19-1.19-1.19h0c-.66,0-1.19,.53-1.19,1.19v18.93c0,1.03-.83,1.86-1.86,1.86h-.21c-1.03,0-1.86-.83-1.86-1.86v-18.93c0-.66-.53-1.19-1.19-1.19h0c-.66,0-1.19,.53-1.19,1.19v18.93c0,1.03-.83,1.86-1.86,1.86h-.2c-1.03,0-1.86-.83-1.86-1.86v-18.93c0-.66-.53-1.19-1.19-1.19h0c-.66,0-1.19,.53-1.19,1.19v18.93c0,1.03-.83,1.86-1.86,1.86h0c-1.03,0-1.86-.83-1.86-1.86Z"/></g><g class="cls-10"><path d="M107.48,93.69v-21.26c0-3.6,2.93-6.52,6.53-6.52h.86v-9.97s-1.79-49.92-1.79-50.28c0-3.13,2.52-5.66,5.65-5.66,1.74,0,3.29,.78,4.32,2.02-.88-.58-1.93-.91-3.06-.91-3.13,0-5.66,2.53-5.66,5.66,0,.33,1.49,41.81,1.76,49.17,.03,.72,.04,1.11,.04,1.11v9.97h-.86c-3.61,0-6.53,2.92-6.53,6.52v21.25c0,.24,.05,.48,.14,.69-.8-.2-1.4-.92-1.4-1.79Z"/></g></g><path class="cls-7" d="M47.05,120.46c-.67-.67-1.77-.67-2.44,0l-3.21,3.21v-15.14c0-.95-.77-1.72-1.72-1.72s-1.72,.77-1.72,1.72v15.14l-3.21-3.21c-.67-.67-1.76-.67-2.44,0s-.67,1.77,0,2.44l6.15,6.15c.08,.08,.17,.15,.26,.21,.04,.03,.09,.05,.14,.07,.05,.03,.1,.06,.16,.09,.06,.02,.12,.04,.18,.05,.05,.01,.1,.03,.15,.04,.22,.04,.45,.04,.68,0,.05-.01,.1-.03,.15-.04,.06-.02,.12-.03,.18-.05,.06-.02,.11-.06,.16-.09,.05-.02,.09-.04,.13-.07,.09-.06,.18-.13,.26-.21l6.15-6.15c.67-.67,.67-1.77,0-2.44Z"/><path class="cls-7" d="M99.77,120.46c-.67-.67-1.77-.67-2.44,0l-3.21,3.21v-15.14c0-.95-.77-1.72-1.72-1.72s-1.72,.77-1.72,1.72v15.14l-3.21-3.21c-.67-.67-1.76-.67-2.44,0s-.67,1.77,0,2.44l6.15,6.15c.08,.08,.17,.15,.26,.21,.04,.03,.09,.05,.14,.07,.05,.03,.1,.06,.16,.09,.06,.02,.12,.04,.18,.05,.05,.01,.1,.03,.15,.04,.22,.04,.45,.04,.68,0,.05-.01,.1-.03,.15-.04,.06-.02,.12-.03,.18-.05,.06-.02,.11-.06,.16-.09,.05-.02,.09-.04,.13-.07,.09-.06,.18-.13,.26-.21l6.15-6.15c.67-.67,.67-1.77,0-2.44Z"/><path class="cls-7" d="M152.49,120.46c-.67-.67-1.77-.67-2.44,0l-3.21,3.21v-15.14c0-.95-.77-1.72-1.72-1.72s-1.72,.77-1.72,1.72v15.14l-3.21-3.21c-.67-.67-1.76-.67-2.44,0s-.67,1.77,0,2.44l6.15,6.15c.08,.08,.17,.15,.26,.21,.04,.03,.09,.05,.14,.07,.05,.03,.1,.06,.16,.09,.06,.02,.12,.04,.18,.05,.05,.01,.1,.03,.15,.04,.22,.04,.45,.04,.68,0,.05-.01,.1-.03,.15-.04,.06-.02,.12-.03,.18-.05,.06-.02,.11-.06,.16-.09,.05-.02,.09-.04,.13-.07,.09-.06,.18-.13,.26-.21l6.15-6.15c.67-.67,.67-1.77,0-2.44Z"/><path class="cls-7" d="M205.21,120.46c-.67-.67-1.77-.67-2.44,0l-3.21,3.21v-15.14c0-.95-.77-1.72-1.72-1.72s-1.72,.77-1.72,1.72v15.14l-3.21-3.21c-.67-.67-1.76-.67-2.44,0s-.67,1.77,0,2.44l6.15,6.15c.08,.08,.17,.15,.26,.21,.04,.03,.09,.05,.14,.07,.05,.03,.1,.06,.16,.09,.06,.02,.12,.04,.18,.05,.05,.01,.1,.03,.15,.04,.22,.04,.45,.04,.68,0,.05-.01,.1-.03,.15-.04,.06-.02,.12-.03,.18-.05,.06-.02,.11-.06,.16-.09,.05-.02,.09-.04,.13-.07,.09-.06,.18-.13,.26-.21l6.15-6.15c.67-.67,.67-1.77,0-2.44Z"/></svg>