<?xml version="1.0" encoding="UTF-8"?><svg id="Camada_1" xmlns="http://www.w3.org/2000/svg" viewBox="0 0 230 230"><defs><style>.cls-1{fill:#f86163;}.cls-2,.cls-3,.cls-4{fill:#fff;}.cls-5{fill:#b07c43;}.cls-6{fill:#d69751;}.cls-7{fill:#452a12;}.cls-8{fill:#9c3d3e;}.cls-9{fill:#2e1c0d;}.cls-10{fill:#26170b;}.cls-3{opacity:.15;}.cls-4{opacity:.2;}</style></defs><g><path class="cls-5" d="M230,146.46l-122.95,82.81c-1.55,1.05-3.61,.96-5.07-.21L0,146.46v-4.91l113.02-50.98,116.98,51.52v4.37Z"/><path class="cls-6" d="M228.86,144.1l-120.24,81.03c-2.49,1.68-5.78,1.54-8.13-.34L1.3,145.02c-2.01-1.61-1.62-4.77,.71-5.86l111.01-51.66,115.46,52.12c1.84,.83,2.06,3.36,.38,4.49Z"/><path class="cls-5" d="M208.32,148.52l-97.49,65.7c-2.88,1.94-6.68,1.78-9.39-.4L20.51,148.76c-2.76-2.22-2.23-6.57,.98-8.06l91.35-42.51c.28-.13,.61-.13,.89,0l93.91,42.39c3.27,1.47,3.65,5.96,.67,7.96Z"/><path class="cls-6" d="M204.85,146.97l-94.37,63.59c-2.29,1.55-5.33,1.42-7.48-.32L24.21,146.9c-1.13-.9-.91-2.68,.4-3.29l88.79-41.32,91.15,41.14c1.45,.66,1.62,2.65,.3,3.54Z"/><path class="cls-4" d="M164.93,150.84l-50.34,33.92c-2.49,1.68-5.78,1.54-8.13-.34l-41.76-33.58,49.34-22.96,50.88,22.96Z"/></g><g><g><path class="cls-9" d="M82.67,111.88s-.22-1.03-1.05-1.63c-.31-.22-.74,.16-1.23-.11-3.48-1.9-11.84-4.6-30.97-4.08-18.04,.49-26.51,2.62-30.33,4.17-.78,.32-1.47-.01-1.91,.23-.85,.48-1.02,1.42-1.02,1.42-.03,1.47,16.36,5.28,32.31,4.79,15.15-.46,28.96-2.16,34.2-4.79Z"/><g><g><path class="cls-7" d="M77.49,118.71c-5.63,9-19.15,11.21-28.09,11.39-9.51,.19-22.47-2.11-27.89-12.02-6.22-11.37-.64-44.89,31.85-37.23,26.88,6.33,30.28,28.03,24.12,37.86Z"/><path class="cls-3" d="M41.35,86.1s-10.09-.25-12.83,9.47c-2.74,9.72,5.86-2.87,8.72-2.87s9.72-5.86,4.11-6.6Z"/><path class="cls-3" d="M64.76,91.53c6.28,1.15,12.09,9.5,8.4,12.33-1.64,1.26,.04-5.26-5.18-7.15-3.69-1.34-4.55-5.43-3.22-5.18Z"/></g><rect class="cls-10" x="64.12" y="86.95" width="8.15" height="3.15" rx="1.38" ry="1.38" transform="translate(19.97 -12.28) rotate(12.04)"/><rect class="cls-10" x="54.46" y="90.14" width="8.15" height="3.15" rx="1.38" ry="1.38" transform="translate(94.35 -11.02) rotate(51.76)"/><rect class="cls-10" x="71.54" y="93.68" width="8.15" height="3.15" rx="1.38" ry="1.38" transform="translate(103.64 -23.09) rotate(51.76)"/><rect class="cls-10" x="69.72" y="104.87" width="8.15" height="3.15" rx="1.38" ry="1.38" transform="translate(194.44 153.6) rotate(146.08)"/><rect class="cls-10" x="75.84" y="102.91" width="8.15" height="3.15" rx="1.38" ry="1.38" transform="translate(130.44 -16.97) rotate(60)"/><rect class="cls-10" x="60.1" y="99.17" width="8.15" height="3.15" rx="1.38" ry="1.38" transform="translate(173.65 148.53) rotate(146.08)"/><rect class="cls-10" x="58.11" y="82.47" width="8.15" height="3.15" rx="1.38" ry="1.38" transform="translate(160.69 119.09) rotate(146.08)"/><rect class="cls-10" x="50.22" y="80.27" width="8.15" height="3.15" rx="1.38" ry="1.38" transform="translate(91.92 -8.88) rotate(56.08)"/><rect class="cls-10" x="51.45" y="95.04" width="8.15" height="3.15" rx="1.38" ry="1.38" transform="translate(122.18 7.3) rotate(66.62)"/><rect class="cls-10" x="46.57" y="84.82" width="8.15" height="3.15" rx="1.38" ry="1.38" transform="translate(5.56 -3.03) rotate(3.62)"/><rect class="cls-10" x="42.05" y="79.39" width="8.15" height="3.15" rx="1.38" ry="1.38" transform="translate(58.05 -11.45) rotate(37.02)"/><rect class="cls-10" x="34.08" y="80.27" width="8.15" height="3.15" rx="1.38" ry="1.38" transform="translate(5.25 -2.25) rotate(3.62)"/><rect class="cls-10" x="44.39" y="93.12" width="8.15" height="3.15" rx="1.38" ry="1.38" transform="translate(-46.24 143.16) rotate(-90)"/><rect class="cls-10" x="36.33" y="94.1" width="8.15" height="3.15" rx="1.38" ry="1.38" transform="translate(-60.32 70.33) rotate(-52.98)"/><rect class="cls-10" x="25.65" y="83.5" width="8.15" height="3.15" rx="1.38" ry="1.38" transform="translate(-35.55 22.95) rotate(-27.16)"/><rect class="cls-10" x="20.12" y="91.52" width="8.15" height="3.15" rx="1.38" ry="1.38" transform="translate(-62.24 50.9) rotate(-49.41)"/><rect class="cls-10" x="15.21" y="101.9" width="8.15" height="3.15" rx="1.38" ry="1.38" transform="translate(-71.84 50.79) rotate(-49.41)"/><rect class="cls-10" x="20.93" y="99.17" width="8.15" height="3.15" rx="1.38" ry="1.38" transform="translate(-44.63 177.71) rotate(-123.92)"/><rect class="cls-10" x="28.45" y="99.76" width="8.15" height="3.15" rx="1.38" ry="1.38" transform="translate(-65.59 60.11) rotate(-49.41)"/><rect class="cls-10" x="61.96" y="105.3" width="8.15" height="3.15" rx="1.38" ry="1.38" transform="translate(188.43 78.52) rotate(108.67)"/><rect class="cls-10" x="45.62" y="102.91" width="8.15" height="3.15" rx="1.38" ry="1.38" transform="translate(164.59 90.85) rotate(108.67)"/><rect class="cls-10" x="52.53" y="106.33" width="8.15" height="3.15" rx="1.38" ry="1.38" transform="translate(121.75 4.92) rotate(60)"/><rect class="cls-10" x="33.45" y="104.49" width="8.15" height="3.15" rx="1.38" ry="1.38" transform="translate(150.03 104.46) rotate(108.67)"/><rect class="cls-10" x="40.37" y="107.91" width="8.15" height="3.15" rx="1.38" ry="1.38" transform="translate(117.04 16.25) rotate(60)"/><rect class="cls-10" x="19.16" y="106.3" width="8.15" height="3.15" rx="1.38" ry="1.38" transform="translate(132.87 120.4) rotate(108.67)"/><rect class="cls-10" x="26.07" y="109.72" width="8.15" height="3.15" rx="1.38" ry="1.38" transform="translate(111.46 29.54) rotate(60)"/></g><path class="cls-8" d="M82.67,111.88s-4.73,32.44-7.9,37.59-43.13,6.6-49.34-.94c-2.43-2.95-8.86-35.87-8.86-35.87,.68,.19,1.43-.76,2.11-.59,.73,.19,1.4,1.51,2.13,1.69,1.02,.25,1.83-.49,2.84-.27,.81,.18,1.82,1.32,2.63,1.49,.9,.18,1.77-1.05,2.66-.88s1.9,1.72,2.83,1.87,2.12-1.44,3.06-1.31,1.67,1.97,2.62,2.07c.87,.1,1.81-1.15,2.68-1.07,1.12,.1,2.14,1.52,3.25,1.59s2.32-1.34,3.37-1.3c1.2,.04,2.19,1.52,3.38,1.53,.72,0,1.28-1.4,1.99-1.41,.84-.01,1.85,1.37,2.68,1.33,1.06-.04,1.88-1.15,2.93-1.21,.76-.05,1.77,.95,2.53,.88,.68-.06,1.2-1.29,1.88-1.36,.89-.09,1.93,.97,2.81,.86,.79-.1,1.46-1.26,2.24-1.38s1.7,.8,2.49,.67c.91-.16,1.54-.97,2.44-1.15,.78-.16,1.85,.32,2.63,.15,.57-.13,1.09-.7,1.66-.83,.84-.2,1.72,.03,2.55-.18,.75-.2,1.35-.73,2.1-.94,.63-.18,1-.81,1.63-1Z"/><path class="cls-1" d="M82.67,111.88s-6.11,31.51-9.27,36.65-43.25,6.32-47.97,0c-2.28-3.06-9.27-36.65-9.27-36.65,.68,.19,1.43-.76,2.11-.59,.73,.19,1.4,1.51,2.13,1.69,1.02,.25,1.83-.49,2.84-.27,.81,.18,1.82,1.32,2.63,1.49,.9,.18,1.77-1.05,2.66-.88s1.9,1.72,2.83,1.87,2.12-1.44,3.06-1.31,1.67,1.97,2.62,2.07c.87,.1,1.81-1.15,2.68-1.07,1.12,.1,2.14,1.52,3.25,1.59s2.32-1.34,3.37-1.3c1.2,.04,2.19,1.52,3.38,1.53,.72,0,1.28-1.4,1.99-1.41,.84-.01,1.85,1.37,2.68,1.33,1.06-.04,1.88-1.15,2.93-1.21,.76-.05,1.77,.95,2.53,.88,.68-.06,1.2-1.29,1.88-1.36,.89-.09,1.93,.97,2.81,.86,.79-.1,1.46-1.26,2.24-1.38s1.7,.8,2.49,.67c.91-.16,1.54-.97,2.44-1.15,.78-.16,1.85,.32,2.63,.15,.57-.13,1.09-.7,1.66-.83,.84-.2,1.72,.03,2.55-.18,.75-.2,1.35-.73,2.1-.94,.63-.18,1.41-.04,2.04-.23Z"/><path class="cls-4" d="M16.16,111.88s.12,.54,.31,1.49c.59-.08,1.22-.75,1.79-.6,.74,.19,1.4,1.51,2.13,1.69,1.02,.25,1.83-.5,2.84-.27,.81,.18,1.82,1.33,2.63,1.49,.9,.17,1.77-1.05,2.67-.89,.94,.17,1.9,1.72,2.83,1.86,.95,.15,2.12-1.43,3.07-1.3,.94,.12,1.67,1.96,2.61,2.07,.87,.09,1.81-1.15,2.68-1.08,1.12,.11,2.14,1.52,3.25,1.59,1.06,.07,2.31-1.34,3.36-1.31,1.2,.04,2.19,1.52,3.38,1.53,.71,0,1.28-1.4,1.99-1.41,.85-.02,1.85,1.37,2.68,1.33,1.06-.04,1.88-1.14,2.93-1.22,.77-.05,1.77,.94,2.53,.89,.69-.06,1.21-1.29,1.88-1.37,.89-.09,1.93,.98,2.81,.86,.8-.1,1.46-1.26,2.25-1.38,.79-.12,1.7,.8,2.49,.67,.91-.16,1.53-.97,2.44-1.15,.78-.15,1.85,.32,2.63,.16,.57-.13,1.09-.7,1.66-.84,.85-.2,1.72,.03,2.55-.18,.75-.2,1.35-.73,2.1-.94,.54-.16,1.17-.07,1.73-.17,.2-.99,.31-1.55,.31-1.55-.63,.19-1.4,.05-2.04,.22-.75,.22-1.34,.75-2.1,.94-.83,.22-1.71-.02-2.55,.18-.56,.13-1.09,.7-1.66,.83-.78,.17-1.85-.31-2.63-.15-.91,.18-1.53,.99-2.44,1.15-.79,.13-1.7-.79-2.49-.67-.79,.12-1.45,1.28-2.25,1.38-.88,.11-1.92-.95-2.81-.86-.67,.07-1.19,1.3-1.88,1.36-.75,.07-1.76-.93-2.53-.88-1.04,.07-1.86,1.18-2.93,1.21-.84,.03-1.84-1.34-2.68-1.33-.71,.02-1.28,1.42-1.99,1.41-1.19,0-2.18-1.48-3.38-1.52-1.05-.04-2.3,1.37-3.36,1.3-1.11-.07-2.13-1.48-3.25-1.58-.86-.07-1.81,1.17-2.68,1.07-.94-.11-1.67-1.94-2.61-2.07-.94-.12-2.11,1.46-3.07,1.31-.93-.15-1.89-1.7-2.83-1.87-.9-.16-1.77,1.07-2.67,.89-.8-.17-1.81-1.31-2.63-1.48-1.01-.22-1.82,.51-2.84,.27-.73-.17-1.39-1.49-2.13-1.68-.67-.17-1.43,.78-2.1,.59Z"/><path class="cls-4" d="M64.75,151.65s3.69-26.87,5.86-27.47c2.16-.6,1.46,22.55,.02,26.08-2.24,.77-4.28,1.09-5.88,1.38Z"/><path class="cls-4" d="M33.38,151.73s-3.68-27.57-5.84-28.17c-2.16-.6-1.47,22.96-.04,26.49,2.04,.89,4.13,1.42,5.88,1.68Z"/><path class="cls-4" d="M53.23,152.74c-3.26,.08-6.32,.12-8.79,.02,0,0,1.24-25.35,4.02-25.35,2.78,0,4.97,15.03,4.77,25.33Z"/></g><g><path class="cls-9" d="M213.86,105.56s-.22-1.03-1.05-1.63c-.31-.22-.74,.16-1.23-.11-3.48-1.9-11.84-4.6-30.97-4.08-18.04,.49-26.51,2.62-30.33,4.17-.78,.32-1.47-.01-1.91,.23-.85,.48-1.02,1.42-1.02,1.42-.03,1.47,16.36,5.28,32.31,4.79,15.15-.46,28.96-2.16,34.2-4.79Z"/><g><g><path class="cls-7" d="M208.68,112.39c-5.63,9-19.15,11.21-28.09,11.39-9.51,.19-22.47-2.11-27.89-12.02-6.22-11.37-.64-44.89,31.85-37.23,26.88,6.33,30.28,28.03,24.12,37.86Z"/><path class="cls-3" d="M172.54,79.77s-10.09-.25-12.83,9.47,5.86-2.87,8.72-2.87,9.72-5.86,4.11-6.6Z"/><path class="cls-3" d="M195.96,85.2c6.28,1.15,12.09,9.5,8.4,12.33-1.64,1.26,.04-5.26-5.18-7.15-3.69-1.34-4.55-5.43-3.22-5.18Z"/></g><rect class="cls-10" x="195.32" y="80.63" width="8.15" height="3.15" rx="1.38" ry="1.38" transform="translate(21.54 -39.8) rotate(12.04)"/><rect class="cls-10" x="185.65" y="83.82" width="8.15" height="3.15" rx="1.38" ry="1.38" transform="translate(139.38 -116.48) rotate(51.76)"/><rect class="cls-10" x="202.74" y="87.36" width="8.15" height="3.15" rx="1.38" ry="1.38" transform="translate(148.67 -128.55) rotate(51.76)"/><rect class="cls-10" x="200.92" y="98.55" width="8.15" height="3.15" rx="1.38" ry="1.38" transform="translate(430.97 68.81) rotate(146.08)"/><rect class="cls-10" x="207.03" y="96.58" width="8.15" height="3.15" rx="1.38" ry="1.38" transform="translate(190.56 -133.75) rotate(60)"/><rect class="cls-10" x="191.29" y="92.84" width="8.15" height="3.15" rx="1.38" ry="1.38" transform="translate(410.18 63.74) rotate(146.08)"/><rect class="cls-10" x="189.3" y="76.15" width="8.15" height="3.15" rx="1.38" ry="1.38" transform="translate(397.22 34.31) rotate(146.08)"/><rect class="cls-10" x="181.41" y="73.94" width="8.15" height="3.15" rx="1.38" ry="1.38" transform="translate(144.65 -120.55) rotate(56.08)"/><rect class="cls-10" x="182.65" y="88.71" width="8.15" height="3.15" rx="1.38" ry="1.38" transform="translate(195.5 -116.93) rotate(66.62)"/><rect class="cls-10" x="177.76" y="78.49" width="8.15" height="3.15" rx="1.38" ry="1.38" transform="translate(5.42 -11.32) rotate(3.62)"/><rect class="cls-10" x="173.24" y="73.06" width="8.15" height="3.15" rx="1.38" ry="1.38" transform="translate(80.69 -91.72) rotate(37.02)"/><rect class="cls-10" x="165.27" y="73.94" width="8.15" height="3.15" rx="1.38" ry="1.38" transform="translate(5.11 -10.54) rotate(3.62)"/><rect class="cls-10" x="175.58" y="86.8" width="8.15" height="3.15" rx="1.38" ry="1.38" transform="translate(91.28 268.03) rotate(-90)"/><rect class="cls-10" x="167.52" y="87.78" width="8.15" height="3.15" rx="1.38" ry="1.38" transform="translate(-3.07 172.55) rotate(-52.98)"/><rect class="cls-10" x="156.84" y="77.17" width="8.15" height="3.15" rx="1.38" ry="1.38" transform="translate(-18.2 82.13) rotate(-27.16)"/><rect class="cls-10" x="151.31" y="85.19" width="8.15" height="3.15" rx="1.38" ry="1.38" transform="translate(-11.6 148.32) rotate(-49.41)"/><rect class="cls-10" x="146.4" y="95.57" width="8.15" height="3.15" rx="1.38" ry="1.38" transform="translate(-21.2 148.21) rotate(-49.41)"/><rect class="cls-10" x="152.12" y="92.84" width="8.15" height="3.15" rx="1.38" ry="1.38" transform="translate(165.02 276.72) rotate(-123.92)"/><rect class="cls-10" x="159.65" y="93.44" width="8.15" height="3.15" rx="1.38" ry="1.38" transform="translate(-14.95 157.52) rotate(-49.41)"/><rect class="cls-10" x="193.16" y="98.97" width="8.15" height="3.15" rx="1.38" ry="1.38" transform="translate(355.62 -54.13) rotate(108.67)"/><rect class="cls-10" x="176.82" y="96.58" width="8.15" height="3.15" rx="1.38" ry="1.38" transform="translate(331.79 -41.79) rotate(108.67)"/><rect class="cls-10" x="183.73" y="100" width="8.15" height="3.15" rx="1.38" ry="1.38" transform="translate(181.87 -111.85) rotate(60)"/><rect class="cls-10" x="164.65" y="98.16" width="8.15" height="3.15" rx="1.38" ry="1.38" transform="translate(317.22 -28.18) rotate(108.67)"/><rect class="cls-10" x="171.56" y="101.58" width="8.15" height="3.15" rx="1.38" ry="1.38" transform="translate(177.15 -100.53) rotate(60)"/><rect class="cls-10" x="150.35" y="99.97" width="8.15" height="3.15" rx="1.38" ry="1.38" transform="translate(300.07 -12.25) rotate(108.67)"/><rect class="cls-10" x="157.26" y="103.39" width="8.15" height="3.15" rx="1.38" ry="1.38" transform="translate(171.58 -87.24) rotate(60)"/></g><path class="cls-8" d="M213.86,105.56s-4.73,32.44-7.9,37.59-43.13,6.6-49.34-.94c-2.43-2.95-8.86-35.87-8.86-35.87,.68,.19,1.43-.76,2.11-.59,.73,.19,1.4,1.51,2.13,1.69,1.02,.25,1.83-.49,2.84-.27,.81,.18,1.82,1.32,2.63,1.49,.9,.18,1.77-1.05,2.66-.88s1.9,1.72,2.83,1.87,2.12-1.44,3.06-1.31,1.67,1.97,2.62,2.07c.87,.1,1.81-1.15,2.68-1.07,1.12,.1,2.14,1.52,3.25,1.59s2.32-1.34,3.37-1.3c1.2,.04,2.19,1.52,3.38,1.53,.72,0,1.28-1.4,1.99-1.41,.84-.01,1.85,1.37,2.68,1.33,1.06-.04,1.88-1.15,2.93-1.21,.76-.05,1.77,.95,2.53,.88,.68-.06,1.2-1.29,1.88-1.36,.89-.09,1.93,.97,2.81,.86,.79-.1,1.46-1.26,2.24-1.38s1.7,.8,2.49,.67c.91-.16,1.54-.97,2.44-1.15,.78-.16,1.85,.32,2.63,.15,.57-.13,1.09-.7,1.66-.83,.84-.2,1.72,.03,2.55-.18,.75-.2,1.35-.73,2.1-.94,.63-.18,1-.81,1.63-1Z"/><path class="cls-1" d="M213.86,105.56s-6.11,31.51-9.27,36.65c-3.12,5.07-43.25,6.32-47.97,0-2.28-3.06-9.27-36.65-9.27-36.65,.68,.19,1.43-.76,2.11-.59,.73,.19,1.4,1.51,2.13,1.69,1.02,.25,1.83-.49,2.84-.27,.81,.18,1.82,1.32,2.63,1.49,.9,.18,1.77-1.05,2.66-.88s1.9,1.72,2.83,1.87,2.12-1.44,3.06-1.31,1.67,1.97,2.62,2.07c.87,.1,1.81-1.15,2.68-1.07,1.12,.1,2.14,1.52,3.25,1.59s2.32-1.34,3.37-1.3c1.2,.04,2.19,1.52,3.38,1.53,.72,0,1.28-1.4,1.99-1.41,.84-.01,1.85,1.37,2.68,1.33,1.06-.04,1.88-1.15,2.93-1.21,.76-.05,1.77,.95,2.53,.88,.68-.06,1.2-1.29,1.88-1.36,.89-.09,1.93,.97,2.81,.86,.79-.1,1.46-1.26,2.24-1.38s1.7,.8,2.49,.67c.91-.16,1.54-.97,2.44-1.15,.78-.16,1.85,.32,2.63,.15,.57-.13,1.09-.7,1.66-.83,.84-.2,1.72,.03,2.55-.18,.75-.2,1.35-.73,2.1-.94,.63-.18,1.41-.04,2.04-.23Z"/><path class="cls-4" d="M147.35,105.56s.12,.54,.31,1.49c.59-.08,1.22-.75,1.79-.6,.74,.19,1.4,1.51,2.13,1.69,1.02,.25,1.83-.5,2.84-.27,.81,.18,1.82,1.33,2.63,1.49,.9,.17,1.77-1.05,2.67-.89,.94,.17,1.9,1.72,2.83,1.86,.95,.15,2.12-1.43,3.07-1.3,.94,.12,1.67,1.96,2.61,2.07,.87,.09,1.81-1.15,2.68-1.08,1.12,.11,2.14,1.52,3.25,1.59,1.06,.07,2.31-1.34,3.36-1.31,1.2,.04,2.19,1.52,3.38,1.53,.71,0,1.28-1.4,1.99-1.41,.85-.02,1.85,1.37,2.68,1.33,1.06-.04,1.88-1.14,2.93-1.22,.77-.05,1.77,.94,2.53,.89,.69-.06,1.21-1.29,1.88-1.37,.89-.09,1.93,.98,2.81,.86,.8-.1,1.46-1.26,2.25-1.38,.79-.12,1.7,.8,2.49,.67,.91-.16,1.53-.97,2.44-1.15,.78-.15,1.85,.32,2.63,.16,.57-.13,1.09-.7,1.66-.84,.85-.2,1.72,.03,2.55-.18,.75-.2,1.35-.73,2.1-.94,.54-.16,1.17-.07,1.73-.17,.2-.99,.31-1.55,.31-1.55-.63,.19-1.4,.05-2.04,.22-.75,.22-1.34,.75-2.1,.94-.83,.22-1.71-.02-2.55,.18-.56,.13-1.09,.7-1.66,.83-.78,.17-1.85-.31-2.63-.15-.91,.18-1.53,.99-2.44,1.15-.79,.13-1.7-.79-2.49-.67-.79,.12-1.45,1.28-2.25,1.38-.88,.11-1.92-.95-2.81-.86-.67,.07-1.19,1.3-1.88,1.36-.75,.07-1.76-.93-2.53-.88-1.04,.07-1.86,1.18-2.93,1.21-.84,.03-1.84-1.34-2.68-1.33-.71,.02-1.28,1.42-1.99,1.41-1.19,0-2.18-1.48-3.38-1.52-1.05-.04-2.3,1.37-3.36,1.3-1.11-.07-2.13-1.48-3.25-1.58-.86-.07-1.81,1.17-2.68,1.07-.94-.11-1.67-1.94-2.61-2.07-.94-.12-2.11,1.46-3.07,1.31-.93-.15-1.89-1.7-2.83-1.87-.9-.16-1.77,1.07-2.67,.89-.8-.17-1.81-1.31-2.63-1.48-1.01-.22-1.82,.51-2.84,.27-.73-.17-1.39-1.49-2.13-1.68-.67-.17-1.43,.78-2.1,.59Z"/><path class="cls-4" d="M195.95,145.32s3.69-26.87,5.86-27.47c2.16-.6,1.46,22.55,.02,26.08-2.24,.77-4.28,1.09-5.88,1.38Z"/><path class="cls-4" d="M164.57,145.41s-3.68-27.57-5.84-28.17-1.47,22.96-.04,26.49c2.04,.89,4.13,1.42,5.88,1.68Z"/><path class="cls-4" d="M184.42,146.41c-3.26,.08-6.32,.12-8.79,.02,0,0,1.24-25.35,4.02-25.35s4.97,15.03,4.77,25.33Z"/></g><g><path class="cls-9" d="M69.46,128.98s.31-1.42,1.45-2.24c.43-.31,1.02,.22,1.7-.15,4.78-2.61,16.3-6.33,42.62-5.61,24.82,.67,36.47,3.61,41.73,5.73,1.08,.43,2.03-.02,2.63,.32,1.17,.67,1.4,1.95,1.4,1.95,.04,2.02-22.51,7.26-44.46,6.59-20.85-.64-39.85-2.97-47.07-6.59Z"/><g><g><path class="cls-7" d="M76.59,138.38c7.75,12.38,26.35,15.43,38.65,15.68,13.08,.26,30.92-2.9,38.37-16.54,8.56-15.65,.88-61.77-43.83-51.23-36.98,8.72-41.67,38.56-33.2,52.1Z"/><path class="cls-3" d="M126.32,93.51s13.89-.34,17.66,13.03c3.77,13.37-8.06-3.94-12-3.94s-13.37-8.06-5.66-9.09Z"/><path class="cls-3" d="M94.1,100.98c-8.65,1.58-16.64,13.08-11.56,16.97,2.26,1.73-.05-7.23,7.13-9.83,5.08-1.84,6.26-7.47,4.43-7.13Z"/></g><rect class="cls-10" x="83.76" y="94.68" width="11.22" height="4.34" rx="1.56" ry="1.56" transform="translate(196.99 172.92) rotate(167.96)"/><rect class="cls-10" x="97.06" y="99.07" width="11.22" height="4.34" rx="1.56" ry="1.56" transform="translate(245.74 83.25) rotate(128.24)"/><rect class="cls-10" x="73.55" y="103.94" width="11.22" height="4.34" rx="1.56" ry="1.56" transform="translate(211.5 109.6) rotate(128.24)"/><rect class="cls-10" x="76.06" y="119.34" width="11.22" height="4.34" rx="1.56" ry="1.56" transform="translate(81.7 -24.89) rotate(33.92)"/><rect class="cls-10" x="67.64" y="116.63" width="11.22" height="4.34" rx="1.56" ry="1.56" transform="translate(212.76 114.77) rotate(120)"/><rect class="cls-10" x="89.3" y="111.49" width="11.22" height="4.34" rx="1.56" ry="1.56" transform="translate(79.57 -33.62) rotate(33.92)"/><rect class="cls-10" x="92.04" y="88.51" width="11.22" height="4.34" rx="1.56" ry="1.56" transform="translate(67.22 -39.06) rotate(33.92)"/><rect class="cls-10" x="102.89" y="85.48" width="11.22" height="4.34" rx="1.56" ry="1.56" transform="translate(241.79 46.53) rotate(123.92)"/><rect class="cls-10" x="101.19" y="105.8" width="11.22" height="4.34" rx="1.56" ry="1.56" transform="translate(248.3 52.79) rotate(113.38)"/><rect class="cls-10" x="107.92" y="91.74" width="11.22" height="4.34" rx="1.56" ry="1.56" transform="translate(232.76 180.47) rotate(176.38)"/><rect class="cls-10" x="114.14" y="84.27" width="11.22" height="4.34" rx="1.56" ry="1.56" transform="translate(267.4 83.35) rotate(142.98)"/><rect class="cls-10" x="125.1" y="85.48" width="11.22" height="4.34" rx="1.56" ry="1.56" transform="translate(266.7 166.87) rotate(176.38)"/><rect class="cls-10" x="110.92" y="103.17" width="11.22" height="4.34" rx="1.56" ry="1.56" transform="translate(11.19 221.87) rotate(-90)"/><rect class="cls-10" x="122.01" y="104.52" width="11.22" height="4.34" rx="1.56" ry="1.56" transform="translate(119.28 272.82) rotate(-127.02)"/><rect class="cls-10" x="136.7" y="89.92" width="11.22" height="4.34" rx="1.56" ry="1.56" transform="translate(226.9 238.98) rotate(-152.84)"/><rect class="cls-10" x="144.31" y="100.96" width="11.22" height="4.34" rx="1.56" ry="1.56" transform="translate(169.15 284.08) rotate(-130.59)"/><rect class="cls-10" x="151.07" y="115.24" width="11.22" height="4.34" rx="1.56" ry="1.56" transform="translate(169.47 312.79) rotate(-130.59)"/><rect class="cls-10" x="143.2" y="111.49" width="11.22" height="4.34" rx="1.56" ry="1.56" transform="translate(-28.54 173.71) rotate(-56.08)"/><rect class="cls-10" x="132.85" y="112.31" width="11.22" height="4.34" rx="1.56" ry="1.56" transform="translate(141.61 294.1) rotate(-130.59)"/><rect class="cls-10" x="86.73" y="119.92" width="11.22" height="4.34" rx="1.56" ry="1.56" transform="translate(178.45 -4.48) rotate(71.33)"/><rect class="cls-10" x="109.22" y="116.63" width="11.22" height="4.34" rx="1.56" ry="1.56" transform="translate(190.62 -28.01) rotate(71.33)"/><rect class="cls-10" x="99.71" y="121.34" width="11.22" height="4.34" rx="1.56" ry="1.56" transform="translate(264.94 94.05) rotate(120)"/><rect class="cls-10" x="125.97" y="118.81" width="11.22" height="4.34" rx="1.56" ry="1.56" transform="translate(204.07 -42.4) rotate(71.33)"/><rect class="cls-10" x="116.45" y="123.51" width="11.22" height="4.34" rx="1.56" ry="1.56" transform="translate(291.94 82.81) rotate(120)"/><rect class="cls-10" x="145.64" y="121.3" width="11.22" height="4.34" rx="1.56" ry="1.56" transform="translate(219.8 -59.34) rotate(71.33)"/><rect class="cls-10" x="136.12" y="126.01" width="11.22" height="4.34" rx="1.56" ry="1.56" transform="translate(323.6 69.52) rotate(120)"/></g><path class="cls-8" d="M70.6,130.13s10.22,41.1,11.62,49.29c1.23,7.22,60.05,9.86,66.55,1.16,3.14-4.21,12.22-51.6,12.22-51.6-33.53,9.23-62.62,9.53-90.38,1.14Z"/><path class="cls-1" d="M69.46,128.98s8.4,43.35,12.76,50.43,59.51,8.69,66.01,0c3.14-4.21,12.76-50.43,12.76-50.43-.94,.26-1.97-1.05-2.9-.81-1.01,.26-1.92,2.08-2.93,2.32-1.4,.34-2.52-.68-3.91-.37-1.12,.25-2.51,1.82-3.62,2.04-1.24,.25-2.43-1.44-3.66-1.22s-2.62,2.37-3.9,2.57-2.92-1.98-4.21-1.8-2.3,2.71-3.6,2.85c-1.19,.13-2.5-1.58-3.68-1.47-1.53,.14-2.95,2.09-4.47,2.18s-3.19-1.85-4.63-1.8c-1.65,.06-3.01,2.1-4.65,2.11-.99,0-1.76-1.93-2.74-1.94-1.16-.02-2.54,1.88-3.69,1.84-1.46-.05-2.58-1.58-4.03-1.67-1.05-.07-2.43,1.3-3.48,1.21-.94-.08-1.66-1.78-2.59-1.87-1.22-.13-2.65,1.34-3.86,1.18-1.09-.14-2-1.74-3.09-1.9s-2.34,1.11-3.42,.92c-1.26-.22-2.12-1.33-3.36-1.58-1.08-.21-2.55,.45-3.62,.21-.78-.17-1.51-.96-2.29-1.15-1.15-.27-2.37,.05-3.51-.25-1.03-.27-1.86-1-2.89-1.29-.87-.25-1.94-.05-2.8-.31Z"/><path class="cls-4" d="M160.99,128.99s-.16,.74-.43,2.05c-.81-.11-1.68-1.03-2.46-.82-1.01,.26-1.93,2.08-2.93,2.33-1.4,.34-2.52-.68-3.91-.38-1.12,.25-2.51,1.82-3.61,2.05-1.24,.24-2.43-1.45-3.67-1.22-1.29,.23-2.61,2.37-3.89,2.57-1.31,.21-2.92-1.97-4.22-1.79-1.3,.17-2.29,2.7-3.59,2.85-1.2,.13-2.5-1.58-3.68-1.48-1.54,.15-2.94,2.09-4.47,2.19-1.46,.09-3.18-1.85-4.63-1.8-1.65,.06-3.01,2.1-4.65,2.11-.98,0-1.76-1.93-2.74-1.94-1.16-.02-2.54,1.88-3.69,1.84-1.46-.06-2.59-1.57-4.03-1.68-1.06-.07-2.44,1.3-3.48,1.22-.95-.08-1.66-1.78-2.59-1.88-1.22-.13-2.66,1.35-3.87,1.19-1.09-.14-2.01-1.73-3.09-1.9-1.08-.16-2.34,1.11-3.42,.92-1.25-.22-2.11-1.33-3.36-1.58-1.07-.21-2.54,.44-3.61,.22-.79-.18-1.51-.97-2.28-1.15-1.16-.27-2.37,.05-3.51-.25-1.04-.27-1.86-1-2.88-1.29-.74-.22-1.61-.1-2.38-.23-.27-1.36-.42-2.13-.42-2.13,.87,.26,1.93,.07,2.81,.31,1.03,.3,1.85,1.03,2.88,1.3,1.14,.3,2.35-.02,3.51,.25,.78,.18,1.49,.97,2.28,1.14,1.07,.24,2.54-.42,3.61-.21,1.25,.25,2.11,1.37,3.36,1.58,1.08,.18,2.34-1.08,3.42-.92,1.08,.16,2,1.76,3.09,1.9,1.21,.15,2.65-1.31,3.87-1.19,.92,.09,1.64,1.79,2.59,1.87,1.04,.09,2.42-1.28,3.48-1.21,1.44,.09,2.57,1.62,4.03,1.66,1.15,.05,2.53-1.85,3.69-1.84,.98,.02,1.76,1.95,2.74,1.94,1.64,0,3-2.04,4.65-2.1,1.45-.06,3.17,1.88,4.63,1.79,1.53-.09,2.93-2.04,4.47-2.18,1.19-.1,2.49,1.61,3.68,1.47,1.3-.15,2.29-2.67,3.59-2.85,1.3-.17,2.91,2.01,4.22,1.8,1.28-.21,2.6-2.34,3.89-2.58,1.24-.22,2.43,1.47,3.67,1.22,1.11-.23,2.5-1.8,3.61-2.04,1.39-.31,2.51,.71,3.91,.36,1-.24,1.92-2.05,2.93-2.31,.92-.24,1.96,1.07,2.9,.81Z"/><path class="cls-4" d="M94.11,183.7s-5.08-36.97-8.06-37.79c-2.98-.83-2,31.03-.03,35.89,3.08,1.07,5.89,1.5,8.09,1.9Z"/><path class="cls-4" d="M137.29,183.82s5.06-37.93,8.04-38.76,2.02,31.59,.05,36.45c-2.8,1.22-5.68,1.96-8.08,2.31Z"/><path class="cls-4" d="M109.97,185.2c4.49,.11,8.7,.16,12.09,.03,0,0-1.71-34.88-5.53-34.88s-6.84,20.68-6.56,34.86Z"/></g></g><g><rect class="cls-10" x="33.42" y="3.42" width="11.22" height="4.34" rx="1.56" ry="1.56" transform="translate(56.82 -29.6) rotate(108.67)"/><rect class="cls-10" x="99.28" y="64.67" width="8.53" height="3.3" rx="1.56" ry="1.56" transform="translate(81.9 -54.73) rotate(47.22)"/><rect class="cls-10" x="28.26" y="38.93" width="8.53" height="3.3" rx="1.56" ry="1.56" transform="translate(40.22 -10.86) rotate(47.22)"/><rect class="cls-10" x="110.92" y="37.83" width="11.22" height="4.34" rx="1.56" ry="1.56" transform="translate(62.41 -70.68) rotate(45)"/><rect class="cls-10" x="131.26" y="66.7" width="11.22" height="4.34" rx="1.56" ry="1.56" transform="translate(88.78 -76.61) rotate(45)"/><rect class="cls-10" x="125.97" y="19.37" width="11.22" height="4.34" rx="1.56" ry="1.56" transform="translate(194.1 -96.22) rotate(108.67)"/><rect class="cls-10" x="170.41" y="35.32" width="8.53" height="3.3" rx="1.56" ry="1.56" transform="translate(83.18 -116.36) rotate(47.22)"/><rect class="cls-10" x="194.83" y="30.12" width="11.22" height="4.34" rx="1.56" ry="1.56" transform="translate(81.54 -132.28) rotate(45)"/><rect class="cls-10" x="178.83" y="3.42" width="11.22" height="4.34" rx="1.56" ry="1.56" transform="translate(248.77 -167.35) rotate(108.67)"/><rect class="cls-10" x="162.66" y="59.4" width="8.53" height="3.3" rx="1.56" ry="1.56" transform="translate(273.12 -81.48) rotate(106.6)"/><rect class="cls-10" x="92.04" y="3.42" width="11.22" height="4.34" rx="1.56" ry="1.56" transform="translate(134.2 -85.13) rotate(108.67)"/><rect class="cls-10" x="62.51" y="30.22" width="11.22" height="4.34" rx="1.56" ry="1.56" transform="translate(120.61 -21.78) rotate(108.67)"/><rect class="cls-10" x="198.63" y="64.14" width="8.53" height="3.3" rx="1.56" ry="1.56" transform="translate(370.71 -65.87) rotate(123.92)"/><rect class="cls-10" x="53.31" y="64.14" width="8.53" height="3.3" rx="1.56" ry="1.56" transform="translate(144.29 54.72) rotate(123.92)"/><path class="cls-3" d="M119.69,41.42c1.12,2.43-5.27-1.82-5.42-3.87-.06-.87,4.3,1.44,5.42,3.87Z"/><path class="cls-3" d="M104.52,67.2c.66,1.96-3.11-1.47-3.2-3.12-.04-.7,2.54,1.16,3.2,3.12Z"/><path class="cls-3" d="M138.38,70.15c1.02,2.58-4.8-1.93-4.93-4.1-.06-.92,3.91,1.52,4.93,4.1Z"/><path class="cls-3" d="M166.91,62.38c-1.39,1.38-.08-3.54,1.29-4.25,.58-.3,.1,2.87-1.29,4.25Z"/><path class="cls-3" d="M175.64,37.97c.57,1.88-3.16-1.59-3.15-3.14,0-.66,2.58,1.26,3.15,3.14Z"/><path class="cls-3" d="M202.49,33.98c.98,2.45-5.24-2.14-5.26-4.15,0-.85,4.28,1.7,5.26,4.15Z"/><path class="cls-3" d="M183.64,8.45c-1.8,1.93-.29-5.66,1.52-6.52,.77-.37,.28,4.6-1.52,6.52Z"/><path class="cls-3" d="M201.41,67.49c-1.73,.98,1.1-4.21,2.6-4.41,.63-.09-.86,3.43-2.6,4.41Z"/><path class="cls-3" d="M131.98,24.66c-1.67,2.1-.75-5.52,1.01-6.58,.75-.45,.66,4.48-1.01,6.58Z"/><path class="cls-3" d="M97.94,8.71c-1.67,2.1-.75-5.52,1.01-6.58,.75-.45,.66,4.48-1.01,6.58Z"/><path class="cls-3" d="M38.36,8.38c-1.67,2.1-.75-5.52,1.01-6.58,.75-.45,.66,4.48-1.01,6.58Z"/><path class="cls-3" d="M68.63,35.41c-1.67,2.1-.75-5.52,1.01-6.58,.75-.45,.66,4.48-1.01,6.58Z"/><path class="cls-3" d="M57.28,67.43c-1.63,.99,.74-3.37,2.2-3.73,.62-.15-.56,2.74-2.2,3.73Z"/><path class="cls-3" d="M33.57,40.55c.84,1.6-3.41-.97-3.61-2.35-.09-.59,2.77,.75,3.61,2.35Z"/><path class="cls-2" d="M141.49,52.71c3.22,0,3.22-5,0-5s-3.22,5,0,5h0Z"/></g></svg>