<?xml version="1.0" encoding="UTF-8"?><svg id="Camada_1" xmlns="http://www.w3.org/2000/svg" viewBox="0 0 230 230"><defs><style>.cls-1{fill:#f86163;}.cls-2,.cls-3,.cls-4{fill:#fff;}.cls-5{fill:#b07c43;}.cls-6{fill:#d69751;}.cls-7{fill:#452a12;}.cls-8{fill:#9c3d3e;}.cls-9{fill:#2e1c0d;}.cls-10{fill:#26170b;}.cls-3{opacity:.15;}.cls-4{opacity:.2;}</style></defs><g><path class="cls-5" d="M230,146.46l-122.95,82.81c-1.55,1.05-3.61,.96-5.07-.21L0,146.46v-4.91l113.02-50.98,116.98,51.52v4.37Z"/><path class="cls-6" d="M228.86,144.1l-120.24,81.03c-2.49,1.68-5.78,1.54-8.13-.34L1.3,145.02c-2.01-1.61-1.62-4.77,.71-5.86l111.01-51.66,115.46,52.12c1.84,.83,2.06,3.36,.38,4.49Z"/><path class="cls-5" d="M208.32,148.52l-97.49,65.7c-2.88,1.94-6.68,1.78-9.39-.4L20.51,148.76c-2.76-2.22-2.23-6.57,.98-8.06l91.35-42.51c.28-.13,.61-.13,.89,0l93.91,42.39c3.27,1.47,3.65,5.96,.67,7.96Z"/><path class="cls-6" d="M204.85,146.97l-94.37,63.59c-2.29,1.55-5.33,1.42-7.48-.32L24.21,146.9c-1.13-.9-.91-2.68,.4-3.29l88.79-41.32,91.15,41.14c1.45,.66,1.62,2.65,.3,3.54Z"/><path class="cls-4" d="M164.93,150.84l-50.34,33.92c-2.49,1.68-5.78,1.54-8.13-.34l-41.76-33.58,49.34-22.96,50.88,22.96Z"/></g><g><g><path class="cls-9" d="M80.62,114.45s-.24-1.1-1.12-1.73c-.33-.24-.79,.17-1.31-.12-3.7-2.02-12.59-4.89-32.94-4.34-19.18,.52-28.19,2.79-32.25,4.43-.83,.34-1.57-.01-2.03,.25-.91,.51-1.08,1.51-1.08,1.51-.03,1.56,17.4,5.61,34.36,5.09,16.11-.49,30.8-2.29,36.37-5.09Z"/><g><g><path class="cls-7" d="M75.11,121.71c-5.99,9.57-20.36,11.93-29.87,12.11-10.11,.2-23.89-2.24-29.66-12.78-6.61-12.09-.68-47.74,33.87-39.59,28.58,6.74,32.2,29.8,25.65,40.26Z"/><path class="cls-3" d="M36.67,87.03s-10.73-.26-13.65,10.07c-2.91,10.33,6.23-3.05,9.27-3.05s10.33-6.23,4.37-7.02Z"/><path class="cls-3" d="M61.58,92.8c6.68,1.22,12.86,10.11,8.94,13.11-1.75,1.34,.04-5.59-5.51-7.6-3.93-1.42-4.84-5.77-3.42-5.51Z"/></g><rect class="cls-10" x="60.9" y="87.94" width="8.67" height="3.35" rx="1.38" ry="1.38" transform="translate(20.13 -11.64) rotate(12.04)"/><rect class="cls-10" x="50.62" y="91.33" width="8.67" height="3.35" rx="1.38" ry="1.38" transform="translate(93.99 -7.72) rotate(51.76)"/><rect class="cls-10" x="68.79" y="95.09" width="8.67" height="3.35" rx="1.38" ry="1.38" transform="translate(103.87 -20.56) rotate(51.76)"/><rect class="cls-10" x="66.85" y="106.99" width="8.67" height="3.35" rx="1.38" ry="1.38" transform="translate(190.9 159.12) rotate(146.08)"/><rect class="cls-10" x="73.36" y="104.9" width="8.67" height="3.35" rx="1.38" ry="1.38" transform="translate(131.14 -13.99) rotate(60)"/><rect class="cls-10" x="56.62" y="100.92" width="8.67" height="3.35" rx="1.38" ry="1.38" transform="translate(168.79 153.72) rotate(146.08)"/><rect class="cls-10" x="54.5" y="83.17" width="8.67" height="3.35" rx="1.38" ry="1.38" transform="translate(155 122.42) rotate(146.08)"/><rect class="cls-10" x="46.11" y="80.83" width="8.67" height="3.35" rx="1.38" ry="1.38" transform="translate(90.76 -5.4) rotate(56.08)"/><rect class="cls-10" x="47.42" y="96.53" width="8.67" height="3.35" rx="1.38" ry="1.38" transform="translate(121.36 11.73) rotate(66.62)"/><rect class="cls-10" x="42.23" y="85.67" width="8.67" height="3.35" rx="1.38" ry="1.38" transform="translate(5.61 -2.77) rotate(3.62)"/><rect class="cls-10" x="37.42" y="79.89" width="8.67" height="3.35" rx="1.38" ry="1.38" transform="translate(57.53 -8.7) rotate(37.02)"/><rect class="cls-10" x="28.95" y="80.83" width="8.67" height="3.35" rx="1.38" ry="1.38" transform="translate(5.28 -1.94) rotate(3.62)"/><rect class="cls-10" x="39.91" y="94.49" width="8.67" height="3.35" rx="1.38" ry="1.38" transform="translate(-51.93 140.41) rotate(-90)"/><rect class="cls-10" x="31.34" y="95.54" width="8.67" height="3.35" rx="1.38" ry="1.38" transform="translate(-63.42 67.16) rotate(-52.98)"/><rect class="cls-10" x="19.99" y="84.26" width="8.67" height="3.35" rx="1.38" ry="1.38" transform="translate(-36.54 20.57) rotate(-27.16)"/><rect class="cls-10" x="14.1" y="92.79" width="8.67" height="3.35" rx="1.38" ry="1.38" transform="translate(-65.3 47.01) rotate(-49.41)"/><rect class="cls-10" x="8.88" y="103.83" width="8.67" height="3.35" rx="1.38" ry="1.38" transform="translate(-75.5 46.89) rotate(-49.41)"/><rect class="cls-10" x="14.97" y="100.92" width="8.67" height="3.35" rx="1.38" ry="1.38" transform="translate(-55.07 175.87) rotate(-123.92)"/><rect class="cls-10" x="22.96" y="101.56" width="8.67" height="3.35" rx="1.38" ry="1.38" transform="translate(-68.86 56.8) rotate(-49.41)"/><rect class="cls-10" x="58.6" y="107.44" width="8.67" height="3.35" rx="1.38" ry="1.38" transform="translate(186.46 84.42) rotate(108.67)"/><rect class="cls-10" x="41.22" y="104.9" width="8.67" height="3.35" rx="1.38" ry="1.38" transform="translate(161.11 97.53) rotate(108.67)"/><rect class="cls-10" x="48.57" y="108.54" width="8.67" height="3.35" rx="1.38" ry="1.38" transform="translate(121.9 9.29) rotate(60)"/><rect class="cls-10" x="28.28" y="106.58" width="8.67" height="3.35" rx="1.38" ry="1.38" transform="translate(145.62 112.01) rotate(108.67)"/><rect class="cls-10" x="35.63" y="110.22" width="8.67" height="3.35" rx="1.38" ry="1.38" transform="translate(116.89 21.33) rotate(60)"/><rect class="cls-10" x="13.08" y="108.51" width="8.67" height="3.35" rx="1.38" ry="1.38" transform="translate(127.37 128.96) rotate(108.67)"/><rect class="cls-10" x="20.43" y="112.14" width="8.67" height="3.35" rx="1.38" ry="1.38" transform="translate(110.95 35.46) rotate(60)"/></g><path class="cls-8" d="M80.62,114.45s-5.03,34.5-8.4,39.97c-3.32,5.39-45.87,7.02-52.47-1-2.58-3.13-9.42-38.15-9.42-38.15,.72,.2,1.52-.81,2.24-.63,.78,.2,1.49,1.6,2.26,1.79,1.08,.26,1.95-.52,3.02-.29,.86,.19,1.94,1.41,2.8,1.58,.96,.19,1.88-1.11,2.83-.94s2.03,1.83,3.01,1.99,2.25-1.53,3.25-1.39c1.01,.14,1.78,2.09,2.78,2.2,.92,.1,1.93-1.22,2.84-1.14,1.19,.11,2.28,1.61,3.45,1.69s2.46-1.43,3.58-1.39c1.28,.04,2.33,1.62,3.59,1.63,.77,0,1.36-1.49,2.12-1.5,.9-.01,1.96,1.45,2.85,1.42,1.13-.04,1.99-1.22,3.11-1.29,.81-.05,1.88,1.01,2.69,.94,.72-.06,1.28-1.37,2-1.45,.94-.1,2.05,1.03,2.99,.91,.84-.11,1.55-1.34,2.38-1.47s1.81,.86,2.64,.71c.97-.17,1.63-1.03,2.6-1.22,.83-.17,1.97,.34,2.79,.16,.61-.13,1.16-.74,1.77-.89,.89-.21,1.83,.04,2.71-.19,.8-.21,1.44-.77,2.23-1,.67-.19,1.06-.87,1.73-1.07Z"/><path class="cls-1" d="M80.62,114.45s-6.49,33.5-9.86,38.98c-3.32,5.39-45.99,6.72-51.01,0-2.43-3.25-9.86-38.98-9.86-38.98,.72,.2,1.52-.81,2.24-.63,.78,.2,1.49,1.6,2.26,1.79,1.08,.26,1.95-.52,3.02-.29,.86,.19,1.94,1.41,2.8,1.58,.96,.19,1.88-1.11,2.83-.94s2.03,1.83,3.01,1.99c1.01,.16,2.25-1.53,3.25-1.39s1.78,2.09,2.78,2.2c.92,.1,1.93-1.22,2.84-1.14,1.19,.11,2.28,1.61,3.45,1.69s2.46-1.43,3.58-1.39c1.28,.04,2.33,1.62,3.59,1.63,.77,0,1.36-1.49,2.12-1.5,.9-.01,1.96,1.45,2.85,1.42,1.13-.04,1.99-1.22,3.11-1.29,.81-.05,1.88,1.01,2.69,.94,.72-.06,1.28-1.37,2-1.45,.94-.1,2.05,1.03,2.99,.91,.84-.11,1.55-1.34,2.38-1.47s1.81,.86,2.64,.71c.97-.17,1.63-1.03,2.6-1.22,.83-.17,1.97,.34,2.79,.16,.61-.13,1.16-.74,1.77-.89,.89-.21,1.83,.04,2.71-.19,.8-.21,1.44-.77,2.23-1,.67-.19,1.5-.04,2.17-.24Z"/><path class="cls-4" d="M9.89,114.45s.12,.57,.33,1.59c.63-.09,1.3-.79,1.9-.63,.78,.2,1.49,1.6,2.26,1.8,1.08,.26,1.95-.53,3.02-.29,.86,.19,1.94,1.41,2.79,1.59,.96,.19,1.88-1.12,2.84-.94,1,.18,2.02,1.83,3.01,1.98,1.01,.16,2.26-1.52,3.26-1.38,1,.13,1.77,2.09,2.78,2.2,.93,.1,1.93-1.22,2.85-1.15,1.19,.11,2.27,1.61,3.45,1.69,1.13,.07,2.46-1.43,3.58-1.39,1.28,.04,2.33,1.62,3.6,1.63,.76,0,1.36-1.49,2.12-1.5,.9-.02,1.97,1.45,2.86,1.42,1.13-.04,2-1.22,3.11-1.3,.82-.05,1.89,1,2.69,.94,.73-.06,1.29-1.37,2-1.45,.94-.1,2.05,1.04,2.99,.92,.85-.11,1.55-1.34,2.39-1.47,.84-.12,1.81,.86,2.64,.71,.97-.17,1.63-1.03,2.6-1.22,.83-.16,1.97,.34,2.79,.17,.61-.14,1.16-.75,1.76-.89,.9-.21,1.83,.04,2.71-.19,.8-.21,1.44-.78,2.23-1,.57-.17,1.24-.08,1.84-.18,.21-1.05,.33-1.65,.33-1.65-.67,.2-1.49,.05-2.17,.24-.79,.23-1.43,.79-2.23,1-.88,.23-1.82-.02-2.71,.19-.6,.14-1.15,.75-1.76,.88-.83,.19-1.97-.33-2.79-.16-.97,.19-1.63,1.06-2.6,1.22-.84,.14-1.81-.84-2.64-.71-.84,.12-1.54,1.36-2.39,1.47-.93,.11-2.04-1.01-2.99-.92-.71,.07-1.27,1.38-2,1.45-.8,.07-1.87-.99-2.69-.93-1.11,.07-1.98,1.25-3.11,1.29-.89,.04-1.96-1.43-2.86-1.42-.76,.02-1.36,1.51-2.12,1.5-1.27,0-2.32-1.58-3.6-1.62-1.12-.04-2.45,1.45-3.58,1.38-1.18-.07-2.26-1.58-3.45-1.68-.92-.08-1.92,1.24-2.85,1.14-1-.11-1.77-2.06-2.78-2.2-1-.13-2.25,1.55-3.26,1.39-.99-.16-2.01-1.81-3.01-1.99-.96-.17-1.88,1.14-2.84,.94-.85-.18-1.93-1.39-2.79-1.58-1.08-.24-1.94,.55-3.02,.28-.78-.19-1.48-1.59-2.26-1.79-.71-.19-1.52,.83-2.24,.63Z"/><path class="cls-4" d="M61.57,156.73s3.93-28.57,6.23-29.21,1.55,23.98,.02,27.74c-2.38,.82-4.55,1.16-6.25,1.47Z"/><path class="cls-4" d="M28.2,156.82s-3.91-29.31-6.21-29.95-1.56,24.41-.04,28.17c2.17,.94,4.39,1.51,6.25,1.78Z"/><path class="cls-4" d="M49.31,157.89c-3.47,.09-6.73,.12-9.35,.02,0,0,1.32-26.96,4.28-26.96,2.96,0,5.29,15.98,5.07,26.94Z"/></g><g><path class="cls-9" d="M220.13,107.72s-.24-1.1-1.12-1.73c-.33-.24-.79,.17-1.31-.12-3.7-2.02-12.59-4.89-32.94-4.34-19.18,.52-28.19,2.79-32.25,4.43-.83,.34-1.57-.01-2.03,.25-.91,.51-1.08,1.51-1.08,1.51-.03,1.56,17.4,5.61,34.36,5.09,16.11-.49,30.8-2.29,36.37-5.09Z"/><g><g><path class="cls-7" d="M214.63,114.98c-5.99,9.57-20.36,11.93-29.87,12.11-10.11,.2-23.89-2.24-29.66-12.78-6.61-12.09-.68-47.74,33.87-39.59,28.58,6.74,32.2,29.8,25.65,40.26Z"/><path class="cls-3" d="M176.19,80.3s-10.73-.26-13.65,10.07c-2.91,10.33,6.23-3.05,9.27-3.05s10.33-6.23,4.37-7.02Z"/><path class="cls-3" d="M201.09,86.08c6.68,1.22,12.86,10.11,8.94,13.11-1.75,1.34,.04-5.59-5.51-7.6-3.93-1.42-4.84-5.77-3.42-5.51Z"/></g><rect class="cls-10" x="200.41" y="81.21" width="8.67" height="3.35" rx="1.38" ry="1.38" transform="translate(21.8 -40.9) rotate(12.04)"/><rect class="cls-10" x="190.13" y="84.6" width="8.67" height="3.35" rx="1.38" ry="1.38" transform="translate(141.87 -119.87) rotate(51.76)"/><rect class="cls-10" x="208.3" y="88.36" width="8.67" height="3.35" rx="1.38" ry="1.38" transform="translate(151.76 -132.7) rotate(51.76)"/><rect class="cls-10" x="206.36" y="100.26" width="8.67" height="3.35" rx="1.38" ry="1.38" transform="translate(442.43 68.95) rotate(146.08)"/><rect class="cls-10" x="212.87" y="98.17" width="8.67" height="3.35" rx="1.38" ry="1.38" transform="translate(195.08 -138.18) rotate(60)"/><rect class="cls-10" x="196.13" y="94.2" width="8.67" height="3.35" rx="1.38" ry="1.38" transform="translate(420.32 63.56) rotate(146.08)"/><rect class="cls-10" x="194.01" y="76.44" width="8.67" height="3.35" rx="1.38" ry="1.38" transform="translate(406.53 32.26) rotate(146.08)"/><rect class="cls-10" x="185.63" y="74.1" width="8.67" height="3.35" rx="1.38" ry="1.38" transform="translate(146.84 -124.14) rotate(56.08)"/><rect class="cls-10" x="186.94" y="89.81" width="8.67" height="3.35" rx="1.38" ry="1.38" transform="translate(199.34 -120.39) rotate(66.62)"/><rect class="cls-10" x="181.74" y="78.94" width="8.67" height="3.35" rx="1.38" ry="1.38" transform="translate(5.46 -11.59) rotate(3.62)"/><rect class="cls-10" x="176.94" y="73.16" width="8.67" height="3.35" rx="1.38" ry="1.38" transform="translate(81.61 -94.06) rotate(37.02)"/><rect class="cls-10" x="168.46" y="74.1" width="8.67" height="3.35" rx="1.38" ry="1.38" transform="translate(5.13 -10.76) rotate(3.62)"/><rect class="cls-10" x="179.42" y="87.77" width="8.67" height="3.35" rx="1.38" ry="1.38" transform="translate(94.31 273.2) rotate(-90)"/><rect class="cls-10" x="170.85" y="88.81" width="8.67" height="3.35" rx="1.38" ry="1.38" transform="translate(-2.54 175.87) rotate(-52.98)"/><rect class="cls-10" x="159.5" y="77.53" width="8.67" height="3.35" rx="1.38" ry="1.38" transform="translate(-18.09 83.51) rotate(-27.16)"/><rect class="cls-10" x="153.62" y="86.06" width="8.67" height="3.35" rx="1.38" ry="1.38" transform="translate(-11.45 150.6) rotate(-49.41)"/><rect class="cls-10" x="148.39" y="97.1" width="8.67" height="3.35" rx="1.38" ry="1.38" transform="translate(-21.65 150.49) rotate(-49.41)"/><rect class="cls-10" x="154.48" y="94.2" width="8.67" height="3.35" rx="1.38" ry="1.38" transform="translate(167.88 281.16) rotate(-123.92)"/><rect class="cls-10" x="162.48" y="94.83" width="8.67" height="3.35" rx="1.38" ry="1.38" transform="translate(-15.01 160.39) rotate(-49.41)"/><rect class="cls-10" x="198.11" y="100.71" width="8.67" height="3.35" rx="1.38" ry="1.38" transform="translate(364.25 -56.63) rotate(108.67)"/><rect class="cls-10" x="180.74" y="98.17" width="8.67" height="3.35" rx="1.38" ry="1.38" transform="translate(338.91 -43.52) rotate(108.67)"/><rect class="cls-10" x="188.09" y="101.81" width="8.67" height="3.35" rx="1.38" ry="1.38" transform="translate(185.83 -114.9) rotate(60)"/><rect class="cls-10" x="167.79" y="99.85" width="8.67" height="3.35" rx="1.38" ry="1.38" transform="translate(323.42 -29.04) rotate(108.67)"/><rect class="cls-10" x="175.14" y="103.49" width="8.67" height="3.35" rx="1.38" ry="1.38" transform="translate(180.82 -102.85) rotate(60)"/><rect class="cls-10" x="152.59" y="101.78" width="8.67" height="3.35" rx="1.38" ry="1.38" transform="translate(305.17 -12.1) rotate(108.67)"/><rect class="cls-10" x="159.94" y="105.42" width="8.67" height="3.35" rx="1.38" ry="1.38" transform="translate(174.88 -88.72) rotate(60)"/></g><path class="cls-8" d="M220.13,107.72s-5.03,34.5-8.4,39.97c-3.32,5.39-45.87,7.02-52.47-1-2.58-3.13-9.42-38.15-9.42-38.15,.72,.2,1.52-.81,2.24-.63,.78,.2,1.49,1.6,2.26,1.79,1.08,.26,1.95-.52,3.02-.29,.86,.19,1.94,1.41,2.8,1.58,.96,.19,1.88-1.11,2.83-.94s2.03,1.83,3.01,1.99c1.01,.16,2.25-1.53,3.25-1.39,1.01,.14,1.78,2.09,2.78,2.2,.92,.1,1.93-1.22,2.84-1.14,1.19,.11,2.28,1.61,3.45,1.69s2.46-1.43,3.58-1.39c1.28,.04,2.33,1.62,3.59,1.63,.77,0,1.36-1.49,2.12-1.5,.9-.01,1.96,1.45,2.85,1.42,1.13-.04,1.99-1.22,3.11-1.29,.81-.05,1.88,1.01,2.69,.94,.72-.06,1.28-1.37,2-1.45,.94-.1,2.05,1.03,2.99,.91,.84-.11,1.55-1.34,2.38-1.47s1.81,.86,2.64,.71c.97-.17,1.63-1.03,2.6-1.22,.83-.17,1.97,.34,2.79,.16,.61-.13,1.16-.74,1.77-.89,.89-.21,1.83,.04,2.71-.19,.8-.21,1.44-.77,2.23-1,.67-.19,1.06-.87,1.73-1.07Z"/><path class="cls-1" d="M220.13,107.72s-6.49,33.5-9.86,38.98-45.99,6.72-51.01,0c-2.43-3.25-9.86-38.98-9.86-38.98,.72,.2,1.52-.81,2.24-.63,.78,.2,1.49,1.6,2.26,1.79,1.08,.26,1.95-.52,3.02-.29,.86,.19,1.94,1.41,2.8,1.58,.96,.19,1.88-1.11,2.83-.94s2.03,1.83,3.01,1.99c1.01,.16,2.25-1.53,3.25-1.39s1.78,2.09,2.78,2.2c.92,.1,1.93-1.22,2.84-1.14,1.19,.11,2.28,1.61,3.45,1.69,1.13,.07,2.46-1.43,3.58-1.39,1.28,.04,2.33,1.62,3.59,1.63,.77,0,1.36-1.49,2.12-1.5,.9-.01,1.96,1.45,2.85,1.42,1.13-.04,1.99-1.22,3.11-1.29,.81-.05,1.88,1.01,2.69,.94,.72-.06,1.28-1.37,2-1.45,.94-.1,2.05,1.03,2.99,.91,.84-.11,1.55-1.34,2.38-1.47s1.81,.86,2.64,.71c.97-.17,1.63-1.03,2.6-1.22,.83-.17,1.97,.34,2.79,.16,.61-.13,1.16-.74,1.77-.89,.89-.21,1.83,.04,2.71-.19,.8-.21,1.44-.77,2.23-1,.67-.19,1.5-.04,2.17-.24Z"/><path class="cls-4" d="M149.4,107.72s.12,.57,.33,1.59c.63-.09,1.3-.79,1.9-.63,.78,.2,1.49,1.6,2.26,1.8,1.08,.26,1.95-.53,3.02-.29,.86,.19,1.94,1.41,2.79,1.59,.96,.19,1.88-1.12,2.84-.94,1,.18,2.02,1.83,3.01,1.98,1.01,.16,2.26-1.52,3.26-1.38,1,.13,1.77,2.09,2.78,2.2,.93,.1,1.93-1.22,2.85-1.15,1.19,.11,2.27,1.61,3.45,1.69,1.13,.07,2.46-1.43,3.58-1.39,1.28,.04,2.33,1.62,3.6,1.63,.76,0,1.36-1.49,2.12-1.5,.9-.02,1.97,1.45,2.86,1.42,1.13-.04,2-1.22,3.11-1.3,.82-.05,1.89,1,2.69,.94,.73-.06,1.29-1.37,2-1.45,.94-.1,2.05,1.04,2.99,.92,.85-.11,1.55-1.34,2.39-1.47,.84-.12,1.81,.86,2.64,.71,.97-.17,1.63-1.03,2.6-1.22,.83-.16,1.97,.34,2.79,.17,.61-.14,1.16-.75,1.76-.89,.9-.21,1.83,.04,2.71-.19,.8-.21,1.44-.78,2.23-1,.57-.17,1.24-.08,1.84-.18,.21-1.05,.33-1.65,.33-1.65-.67,.2-1.49,.05-2.17,.24-.79,.23-1.43,.79-2.23,1-.88,.23-1.82-.02-2.71,.19-.6,.14-1.15,.75-1.76,.88-.83,.19-1.97-.33-2.79-.16-.97,.19-1.63,1.06-2.6,1.22-.84,.14-1.81-.84-2.64-.71-.84,.12-1.54,1.36-2.39,1.47-.93,.11-2.04-1.01-2.99-.92-.71,.07-1.27,1.38-2,1.45-.8,.07-1.87-.99-2.69-.93-1.11,.07-1.98,1.25-3.11,1.29-.89,.04-1.96-1.43-2.86-1.42-.76,.02-1.36,1.51-2.12,1.5-1.27,0-2.32-1.58-3.6-1.62-1.12-.04-2.45,1.45-3.58,1.38-1.18-.07-2.26-1.58-3.45-1.68-.92-.08-1.92,1.24-2.85,1.14-1-.11-1.77-2.06-2.78-2.2-1-.13-2.25,1.55-3.26,1.39-.99-.16-2.01-1.81-3.01-1.99-.96-.17-1.88,1.14-2.84,.94-.85-.18-1.93-1.39-2.79-1.58-1.08-.24-1.94,.55-3.02,.28-.78-.19-1.48-1.59-2.26-1.79-.71-.19-1.52,.83-2.24,.63Z"/><path class="cls-4" d="M201.08,150s3.93-28.57,6.23-29.21,1.55,23.98,.02,27.74c-2.38,.82-4.55,1.16-6.25,1.47Z"/><path class="cls-4" d="M167.71,150.09s-3.91-29.31-6.21-29.95-1.56,24.41-.04,28.17c2.17,.94,4.39,1.51,6.25,1.78Z"/><path class="cls-4" d="M188.83,151.17c-3.47,.09-6.73,.12-9.35,.02,0,0,1.32-26.96,4.28-26.96,2.96,0,5.29,15.98,5.07,26.94Z"/></g><g><path class="cls-9" d="M66.57,132.63s.33-1.51,1.54-2.38c.46-.33,1.09,.23,1.81-.16,5.09-2.78,17.33-6.73,45.32-5.97,26.4,.72,38.79,3.84,44.38,6.1,1.15,.46,2.16-.02,2.8,.34,1.25,.71,1.49,2.08,1.49,2.08,.04,2.15-23.94,7.72-47.28,7.01-22.17-.68-42.38-3.15-50.05-7.01Z"/><g><g><path class="cls-7" d="M74.15,142.62c8.24,13.17,28.02,16.41,41.1,16.67,13.91,.28,32.88-3.09,40.81-17.59,9.1-16.64,.94-65.69-46.61-54.48-39.33,9.27-44.31,41.01-35.3,55.4Z"/><path class="cls-3" d="M127.04,94.9s14.77-.36,18.78,13.86c4.01,14.22-8.57-4.19-12.76-4.19s-14.22-8.57-6.02-9.66Z"/><path class="cls-3" d="M92.77,102.85c-9.19,1.68-17.7,13.91-12.3,18.04,2.4,1.84-.06-7.69,7.59-10.46,5.4-1.95,6.65-7.94,4.71-7.59Z"/></g><rect class="cls-10" x="81.78" y="96.15" width="11.93" height="4.61" rx="1.56" ry="1.56" transform="translate(194.11 176.44) rotate(167.96)"/><rect class="cls-10" x="95.93" y="100.82" width="11.93" height="4.61" rx="1.56" ry="1.56" transform="translate(245.95 86.92) rotate(128.24)"/><rect class="cls-10" x="70.92" y="106" width="11.93" height="4.61" rx="1.56" ry="1.56" transform="translate(209.55 114.94) rotate(128.24)"/><rect class="cls-10" x="73.59" y="122.37" width="11.93" height="4.61" rx="1.56" ry="1.56" transform="translate(83.11 -23.18) rotate(33.92)"/><rect class="cls-10" x="64.64" y="119.5" width="11.93" height="4.61" rx="1.56" ry="1.56" transform="translate(211.39 121.56) rotate(120)"/><rect class="cls-10" x="87.67" y="114.02" width="11.93" height="4.61" rx="1.56" ry="1.56" transform="translate(80.85 -32.45) rotate(33.92)"/><rect class="cls-10" x="90.58" y="89.59" width="11.93" height="4.61" rx="1.56" ry="1.56" transform="translate(67.71 -38.24) rotate(33.92)"/><rect class="cls-10" x="102.12" y="86.37" width="11.93" height="4.61" rx="1.56" ry="1.56" transform="translate(241.99 48.47) rotate(123.92)"/><rect class="cls-10" x="100.32" y="107.98" width="11.93" height="4.61" rx="1.56" ry="1.56" transform="translate(249.69 56.5) rotate(113.38)"/><rect class="cls-10" x="107.47" y="93.03" width="11.93" height="4.61" rx="1.56" ry="1.56" transform="translate(232.66 183.32) rotate(176.38)"/><rect class="cls-10" x="114.08" y="85.08" width="11.93" height="4.61" rx="1.56" ry="1.56" transform="translate(268.51 84.88) rotate(142.98)"/><rect class="cls-10" x="125.74" y="86.37" width="11.93" height="4.61" rx="1.56" ry="1.56" transform="translate(268.76 168.86) rotate(176.38)"/><rect class="cls-10" x="110.66" y="105.18" width="11.93" height="4.61" rx="1.56" ry="1.56" transform="translate(9.14 224.11) rotate(-90)"/><rect class="cls-10" x="122.45" y="106.61" width="11.93" height="4.61" rx="1.56" ry="1.56" transform="translate(118.78 277.04) rotate(-127.02)"/><rect class="cls-10" x="138.08" y="91.09" width="11.93" height="4.61" rx="1.56" ry="1.56" transform="translate(229.57 242.24) rotate(-152.84)"/><rect class="cls-10" x="146.17" y="102.83" width="11.93" height="4.61" rx="1.56" ry="1.56" transform="translate(171.28 289.08) rotate(-130.59)"/><rect class="cls-10" x="153.36" y="118.02" width="11.93" height="4.61" rx="1.56" ry="1.56" transform="translate(171.62 319.6) rotate(-130.59)"/><rect class="cls-10" x="144.98" y="114.02" width="11.93" height="4.61" rx="1.56" ry="1.56" transform="translate(-29.82 176.67) rotate(-56.08)"/><rect class="cls-10" x="133.98" y="114.9" width="11.93" height="4.61" rx="1.56" ry="1.56" transform="translate(141.99 299.73) rotate(-130.59)"/><rect class="cls-10" x="84.94" y="122.99" width="11.93" height="4.61" rx="1.56" ry="1.56" transform="translate(180.51 -.93) rotate(71.33)"/><rect class="cls-10" x="108.85" y="119.5" width="11.93" height="4.61" rx="1.56" ry="1.56" transform="translate(193.46 -25.96) rotate(71.33)"/><rect class="cls-10" x="98.74" y="124.5" width="11.93" height="4.61" rx="1.56" ry="1.56" transform="translate(266.87 99.53) rotate(120)"/><rect class="cls-10" x="126.66" y="121.81" width="11.93" height="4.61" rx="1.56" ry="1.56" transform="translate(207.76 -41.26) rotate(71.33)"/><rect class="cls-10" x="116.55" y="126.81" width="11.93" height="4.61" rx="1.56" ry="1.56" transform="translate(295.59 87.58) rotate(120)"/><rect class="cls-10" x="147.58" y="124.46" width="11.93" height="4.61" rx="1.56" ry="1.56" transform="translate(224.49 -59.28) rotate(71.33)"/><rect class="cls-10" x="137.46" y="129.46" width="11.93" height="4.61" rx="1.56" ry="1.56" transform="translate(329.26 73.44) rotate(120)"/></g><path class="cls-8" d="M67.79,133.84s10.86,43.7,12.35,52.42c1.31,7.68,63.86,10.48,70.77,1.24,3.34-4.48,12.99-54.87,12.99-54.87-35.66,9.81-66.59,10.14-96.11,1.21Z"/><path class="cls-1" d="M66.57,132.63s8.94,46.1,13.57,53.63c4.56,7.42,63.29,9.24,70.19,0,3.34-4.48,13.57-53.63,13.57-53.63-1,.27-2.09-1.12-3.08-.86-1.07,.28-2.04,2.21-3.11,2.47-1.49,.36-2.68-.72-4.16-.4-1.19,.26-2.67,1.94-3.85,2.17-1.32,.27-2.58-1.53-3.9-1.29-1.37,.25-2.79,2.52-4.15,2.74-1.39,.22-3.1-2.1-4.48-1.92-1.39,.19-2.45,2.88-3.83,3.03-1.27,.14-2.66-1.68-3.91-1.57-1.63,.15-3.13,2.22-4.75,2.32s-3.39-1.96-4.93-1.91c-1.75,.06-3.2,2.23-4.94,2.24-1.05,0-1.87-2.05-2.92-2.06-1.24-.02-2.7,2-3.93,1.95-1.55-.06-2.74-1.68-4.28-1.78-1.12-.07-2.59,1.38-3.7,1.29-1-.09-1.76-1.89-2.75-1.99-1.3-.14-2.82,1.42-4.11,1.26-1.16-.15-2.13-1.85-3.28-2.02s-2.49,1.18-3.64,.98c-1.34-.23-2.25-1.42-3.58-1.68-1.15-.23-2.71,.47-3.85,.22-.83-.18-1.6-1.02-2.43-1.22-1.23-.29-2.52,.05-3.73-.27-1.1-.29-1.98-1.06-3.07-1.37-.93-.26-2.06-.05-2.98-.33Z"/><path class="cls-4" d="M163.9,132.63s-.17,.79-.46,2.18c-.86-.12-1.78-1.09-2.62-.87-1.08,.28-2.05,2.21-3.12,2.47-1.49,.36-2.68-.73-4.16-.4-1.19,.27-2.67,1.94-3.84,2.18-1.32,.25-2.58-1.54-3.9-1.3-1.37,.24-2.78,2.52-4.14,2.73-1.39,.22-3.1-2.1-4.49-1.9-1.38,.18-2.44,2.87-3.82,3.03-1.27,.13-2.66-1.69-3.92-1.58-1.64,.16-3.13,2.22-4.75,2.33-1.55,.1-3.38-1.96-4.92-1.92-1.76,.06-3.2,2.23-4.95,2.24-1.04,0-1.87-2.05-2.91-2.06-1.24-.02-2.7,2-3.93,1.95-1.55-.06-2.75-1.67-4.28-1.78-1.13-.07-2.6,1.38-3.7,1.3-1.01-.08-1.77-1.89-2.75-2-1.3-.13-2.83,1.43-4.11,1.26-1.16-.15-2.13-1.84-3.29-2.03-1.15-.17-2.49,1.18-3.64,.98-1.33-.23-2.24-1.42-3.58-1.69-1.14-.22-2.7,.47-3.84,.23-.84-.19-1.6-1.03-2.43-1.22-1.24-.29-2.52,.05-3.73-.27-1.1-.29-1.98-1.07-3.07-1.37-.79-.23-1.71-.11-2.53-.24-.29-1.44-.45-2.27-.45-2.27,.92,.28,2.05,.07,2.98,.33,1.09,.32,1.96,1.09,3.07,1.38,1.21,.32,2.5-.02,3.73,.27,.82,.19,1.59,1.03,2.43,1.21,1.14,.25,2.7-.45,3.84-.22,1.33,.27,2.24,1.46,3.58,1.69,1.15,.19,2.49-1.15,3.64-.98,1.15,.17,2.12,1.87,3.29,2.03,1.29,.16,2.81-1.39,4.11-1.26,.98,.1,1.75,1.9,2.75,1.99,1.1,.1,2.57-1.36,3.7-1.29,1.53,.1,2.73,1.72,4.28,1.77,1.22,.05,2.69-1.96,3.93-1.95,1.04,.02,1.87,2.07,2.91,2.06,1.75,0,3.19-2.17,4.95-2.23,1.54-.06,3.37,2,4.92,1.9,1.62-.1,3.12-2.17,4.75-2.32,1.26-.11,2.64,1.71,3.92,1.56,1.38-.16,2.44-2.84,3.82-3.03,1.38-.18,3.09,2.13,4.49,1.92,1.36-.22,2.76-2.49,4.14-2.74,1.32-.23,2.58,1.56,3.9,1.3,1.18-.24,2.66-1.92,3.84-2.17,1.48-.33,2.67,.75,4.16,.39,1.07-.25,2.04-2.18,3.12-2.46,.98-.25,2.09,1.14,3.08,.86Z"/><path class="cls-4" d="M92.79,190.81s-5.41-39.31-8.57-40.19c-3.16-.88-2.13,32.99-.03,38.17,3.27,1.13,6.27,1.59,8.6,2.02Z"/><path class="cls-4" d="M138.7,190.94s5.38-40.34,8.55-41.22c3.16-.88,2.15,33.59,.05,38.77-2.98,1.3-6.04,2.08-8.6,2.45Z"/><path class="cls-4" d="M109.65,192.42c4.78,.12,9.26,.17,12.86,.03,0,0-1.82-37.1-5.88-37.1s-7.27,21.99-6.97,37.07Z"/></g></g><g><rect class="cls-10" x="33.42" y="3.42" width="11.22" height="4.34" rx="1.56" ry="1.56" transform="translate(56.82 -29.6) rotate(108.67)"/><rect class="cls-10" x="99.28" y="64.67" width="8.53" height="3.3" rx="1.56" ry="1.56" transform="translate(81.9 -54.73) rotate(47.22)"/><rect class="cls-10" x="28.26" y="38.93" width="8.53" height="3.3" rx="1.56" ry="1.56" transform="translate(40.22 -10.86) rotate(47.22)"/><rect class="cls-10" x="110.92" y="37.83" width="11.22" height="4.34" rx="1.56" ry="1.56" transform="translate(62.41 -70.68) rotate(45)"/><rect class="cls-10" x="131.26" y="66.7" width="11.22" height="4.34" rx="1.56" ry="1.56" transform="translate(88.78 -76.61) rotate(45)"/><rect class="cls-10" x="125.97" y="19.37" width="11.22" height="4.34" rx="1.56" ry="1.56" transform="translate(194.1 -96.22) rotate(108.67)"/><rect class="cls-10" x="170.41" y="35.32" width="8.53" height="3.3" rx="1.56" ry="1.56" transform="translate(83.18 -116.36) rotate(47.22)"/><rect class="cls-10" x="194.83" y="30.12" width="11.22" height="4.34" rx="1.56" ry="1.56" transform="translate(81.54 -132.28) rotate(45)"/><rect class="cls-10" x="178.83" y="3.42" width="11.22" height="4.34" rx="1.56" ry="1.56" transform="translate(248.77 -167.35) rotate(108.67)"/><rect class="cls-10" x="162.66" y="59.4" width="8.53" height="3.3" rx="1.56" ry="1.56" transform="translate(273.12 -81.48) rotate(106.6)"/><rect class="cls-10" x="92.04" y="3.42" width="11.22" height="4.34" rx="1.56" ry="1.56" transform="translate(134.2 -85.13) rotate(108.67)"/><rect class="cls-10" x="62.51" y="30.22" width="11.22" height="4.34" rx="1.56" ry="1.56" transform="translate(120.61 -21.78) rotate(108.67)"/><rect class="cls-10" x="198.63" y="64.14" width="8.53" height="3.3" rx="1.56" ry="1.56" transform="translate(370.71 -65.87) rotate(123.92)"/><rect class="cls-10" x="53.31" y="64.14" width="8.53" height="3.3" rx="1.56" ry="1.56" transform="translate(144.29 54.72) rotate(123.92)"/><path class="cls-3" d="M119.69,41.42c1.12,2.43-5.27-1.82-5.42-3.87-.06-.87,4.3,1.44,5.42,3.87Z"/><path class="cls-3" d="M104.52,67.2c.66,1.96-3.11-1.47-3.2-3.12-.04-.7,2.54,1.16,3.2,3.12Z"/><path class="cls-3" d="M138.38,70.15c1.02,2.58-4.8-1.93-4.93-4.1-.06-.92,3.91,1.52,4.93,4.1Z"/><path class="cls-3" d="M166.91,62.38c-1.39,1.38-.08-3.54,1.29-4.25,.58-.3,.1,2.87-1.29,4.25Z"/><path class="cls-3" d="M175.64,37.97c.57,1.88-3.16-1.59-3.15-3.14,0-.66,2.58,1.26,3.15,3.14Z"/><path class="cls-3" d="M202.49,33.98c.98,2.45-5.24-2.14-5.26-4.15,0-.85,4.28,1.7,5.26,4.15Z"/><path class="cls-3" d="M183.64,8.45c-1.8,1.93-.29-5.66,1.52-6.52,.77-.37,.28,4.6-1.52,6.52Z"/><path class="cls-3" d="M201.41,67.49c-1.73,.98,1.1-4.21,2.6-4.41,.63-.09-.86,3.43-2.6,4.41Z"/><path class="cls-3" d="M131.98,24.66c-1.67,2.1-.75-5.52,1.01-6.58,.75-.45,.66,4.48-1.01,6.58Z"/><path class="cls-3" d="M97.94,8.71c-1.67,2.1-.75-5.52,1.01-6.58,.75-.45,.66,4.48-1.01,6.58Z"/><path class="cls-3" d="M38.36,8.38c-1.67,2.1-.75-5.52,1.01-6.58,.75-.45,.66,4.48-1.01,6.58Z"/><path class="cls-3" d="M68.63,35.41c-1.67,2.1-.75-5.52,1.01-6.58,.75-.45,.66,4.48-1.01,6.58Z"/><path class="cls-3" d="M57.28,67.43c-1.63,.99,.74-3.37,2.2-3.73,.62-.15-.56,2.74-2.2,3.73Z"/><path class="cls-3" d="M33.57,40.55c.84,1.6-3.41-.97-3.61-2.35-.09-.59,2.77,.75,3.61,2.35Z"/><path class="cls-2" d="M141.49,52.71c3.22,0,3.22-5,0-5s-3.22,5,0,5h0Z"/></g></svg>