<?xml version="1.0" encoding="UTF-8"?><svg id="Camada_1" xmlns="http://www.w3.org/2000/svg" viewBox="0 0 350 160"><defs><style>.cls-1{fill:#f86163;}.cls-2{fill:#f99d9e;}.cls-3{fill:#fde6ea;}.cls-4{fill:#66191b;}.cls-5{fill:#983d40;}.cls-6{fill:#cb5252;}.cls-7{fill:#452a12;}.cls-8{fill:#9c3d3e;}.cls-9{fill:#2e1c0d;}.cls-10{fill:#4d1719;}.cls-11{fill:#26170b;}.cls-12{opacity:.15;}.cls-12,.cls-13{fill:#fff;}.cls-13{opacity:.2;}</style></defs><g><path class="cls-1" d="M242.45,67.46c0,8.38-12.51,14.22-15.53,21.51-3.13,7.56,1.47,20.5-4.23,26.19-5.69,5.69-18.64,1.09-26.19,4.23-7.29,3.02-13.12,15.53-21.51,15.53s-14.22-12.51-21.51-15.53c-7.56-3.13-20.5,1.47-26.19-4.23-5.69-5.69-1.09-18.64-4.23-26.19-3.02-7.29-15.53-13.12-15.53-21.51s12.51-14.22,15.53-21.51c3.13-7.56-1.47-20.5,4.23-26.19,5.69-5.69,18.64-1.09,26.19-4.23,7.29-3.02,13.12-15.53,21.51-15.53s14.22,12.51,21.51,15.53c7.56,3.13,20.5-1.47,26.19,4.23,5.69,5.69,1.09,18.64,4.23,26.19,3.02,7.29,15.53,13.12,15.53,21.51Z"/><path class="cls-2" d="M226.93,45.96c-3.13-7.55,1.47-20.51-4.23-26.2-5.69-5.69-18.65-1.1-26.2-4.23C189.2,12.51,183.37,0,175,0s-14.23,12.51-21.52,15.52c-7.55,3.13-20.48-1.47-26.17,4.23-5.69,5.69-1.1,18.65-4.23,26.2-3.04,7.3-15.55,13.13-15.55,21.5s12.51,14.23,15.55,21.52c3.13,7.55-1.47,20.48,4.23,26.17,5.69,5.69,18.62,1.1,26.17,4.23,7.3,3.04,13.13,15.55,21.52,15.55s14.2-12.51,21.5-15.55c7.55-3.13,20.51,1.47,26.2-4.23,5.69-5.69,1.1-18.62,4.23-26.17,3.01-7.3,15.52-13.13,15.52-21.52s-12.51-14.2-15.52-21.5Z"/><path class="cls-1" d="M175,132.11c-3.66,0-7.27-3.79-10.77-7.46-2.98-3.13-6.06-6.37-9.67-7.87-3.06-1.27-6.67-1.44-9.81-1.44-1,0-2.01,.02-3.02,.04-.97,.02-1.95,.04-2.91,.04-3.78,0-7.55-.28-9.53-2.25-2.4-2.4-2.31-7.28-2.22-12.44,.08-4.44,.17-9.04-1.4-12.82-1.51-3.62-4.75-6.7-7.87-9.68-3.67-3.49-7.46-7.11-7.46-10.77s3.79-7.25,7.45-10.73c3.13-2.98,6.37-6.06,7.88-9.68,1.57-3.79,1.48-8.39,1.4-12.83-.09-4.94-.19-10.05,2.22-12.46,1.98-1.98,5.75-2.25,9.53-2.25,.96,0,1.94,.02,2.91,.04,1.01,.02,2.02,.04,3.02,.04,3.13,0,6.74-.17,9.8-1.44,3.62-1.49,6.7-4.73,9.69-7.86,3.49-3.66,7.1-7.45,10.75-7.45s7.24,3.78,10.72,7.43c2.99,3.14,6.07,6.38,9.7,7.87,3.05,1.27,6.67,1.44,9.8,1.44,1,0,2.01-.02,3.02-.04,.98-.02,1.95-.04,2.92-.04,3.78,0,7.56,.27,9.54,2.25,2.4,2.4,2.31,7.52,2.22,12.46-.08,4.45-.17,9.05,1.4,12.83,1.5,3.62,4.74,6.71,7.87,9.7,3.66,3.48,7.44,7.08,7.44,10.72s-3.79,7.27-7.45,10.76c-3.13,2.99-6.37,6.07-7.87,9.69-1.57,3.78-1.48,8.37-1.4,12.81,.1,5.16,.19,10.04-2.22,12.45-1.98,1.98-5.76,2.25-9.54,2.25h0c-.96,0-1.94-.02-2.91-.04-1.01-.02-2.02-.04-3.02-.04-3.14,0-6.75,.17-9.81,1.44-3.62,1.51-6.7,4.75-9.68,7.88-3.49,3.66-7.09,7.45-10.73,7.45Z"/><path class="cls-2" d="M174.99,123.29c-1.32-.99-3.33-3.1-4.62-4.46-3.43-3.6-7.3-7.67-12.56-9.86-4.44-1.84-9.09-2.09-13.06-2.09-.92,0-1.85,.02-2.78,.03h-.37c-.95,.02-1.87,.04-2.77,.04-1.54,0-2.55-.06-3.21-.13-.17-1.58-.12-4.12-.09-5.95,.1-5.06,.2-10.8-2.04-16.21-2.2-5.27-6.26-9.14-9.84-12.55-1.38-1.31-3.49-3.32-4.49-4.65,.99-1.32,3.1-3.32,4.46-4.62,3.59-3.41,7.66-7.29,9.86-12.55,2.25-5.43,2.15-11.18,2.05-16.24-.03-1.73-.08-4.34,.1-5.97,.67-.07,1.68-.13,3.2-.13,.79,0,1.59,.01,2.39,.03h.38c1.05,.03,2.11,.05,3.16,.05,3.96,0,8.61-.25,13.03-2.08,5.26-2.17,9.15-6.25,12.57-9.84,1.3-1.36,3.31-3.47,4.63-4.46,1.32,.99,3.31,3.08,4.6,4.43,3.43,3.61,7.31,7.68,12.6,9.87,4.41,1.83,9.06,2.08,13.03,2.08,1.05,0,2.12-.02,3.18-.04h.35c.8-.02,1.61-.03,2.4-.03,1.53,0,2.54,.06,3.21,.13,.18,1.63,.13,4.25,.1,5.97-.1,5.07-.2,10.81,2.04,16.22,2.18,5.27,6.25,9.15,9.84,12.57,1.37,1.3,3.47,3.3,4.46,4.62-.99,1.32-3.09,3.33-4.44,4.62-3.61,3.43-7.68,7.32-9.86,12.6-2.23,5.4-2.13,11.13-2.03,16.19,.03,1.83,.08,4.37-.09,5.95-.67,.08-1.68,.14-3.22,.14-.91,0-1.83-.02-2.74-.04h-.41c-.93-.02-1.86-.04-2.78-.04-3.97,0-8.62,.25-13.04,2.08-5.29,2.2-9.16,6.27-12.58,9.87-1.29,1.36-3.29,3.46-4.62,4.46Z"/><path class="cls-1" d="M174.45,114.95c-3.62-3.8-8.12-8.52-14.47-11.17-5.36-2.22-10.71-2.52-15.23-2.52-.82,0-3.24,.04-3.24,.04-.12,0-.24,0-.36,0,0-.1,0-.2,0-.3,.1-5.35,.23-11.98-2.47-18.49-2.66-6.38-7.37-10.87-11.16-14.48-.17-.16-.37-.35-.6-.57,.2-.19,.39-.37,.54-.51,3.82-3.63,8.54-8.12,11.2-14.49,2.71-6.54,2.58-13.18,2.48-18.52,0-.11,0-.22,0-.33h.31c1.11,.03,2.2,.05,3.29,.05,4.51,0,9.85-.3,15.19-2.51,6.36-2.62,10.86-7.35,14.48-11.14,.15-.16,.34-.36,.56-.59,.19,.2,.36,.38,.51,.53,3.64,3.82,8.15,8.56,14.54,11.2,5.32,2.21,10.66,2.5,15.18,2.5,1.09,0,2.2-.02,3.3-.04h.32c0,.08,0,.17,0,.25-.1,5.41-.23,12.06,2.47,18.56,2.63,6.36,7.35,10.86,11.14,14.49,.17,.16,.37,.35,.59,.56-.21,.2-.4,.38-.56,.53-3.8,3.62-8.54,8.13-11.18,14.52-2.69,6.49-2.56,13.12-2.46,18.45,0,.1,0,.21,0,.32h-.73c-.98-.03-1.94-.04-2.89-.04-4.52,0-9.86,.3-15.2,2.51-6.39,2.66-10.89,7.39-14.5,11.18-.16,.17-.34,.36-.54,.57-.2-.21-.39-.4-.54-.57Z"/><circle class="cls-6" cx="174.99" cy="67.46" r="34.69"/><circle class="cls-3" cx="174.99" cy="67.46" r="33.05"/><g><g><g><path class="cls-9" d="M166.51,71.72s-.06-.27-.28-.43c-.08-.06-.19,.04-.32-.03-.91-.5-3.11-1.21-8.12-1.07-4.73,.13-6.95,.69-7.95,1.09-.21,.08-.39,0-.5,.06-.22,.13-.27,.37-.27,.37,0,.39,4.29,1.38,8.47,1.26,3.97-.12,7.6-.57,8.97-1.26Z"/><g><g><path class="cls-7" d="M165.16,73.51c-1.48,2.36-5.02,2.94-7.37,2.99-2.49,.05-5.89-.55-7.31-3.15-1.63-2.98-.17-11.77,8.35-9.76,7.05,1.66,7.94,7.35,6.33,9.93Z"/><path class="cls-12" d="M155.68,64.95s-2.65-.07-3.37,2.48,1.54-.75,2.29-.75,2.55-1.54,1.08-1.73Z"/><path class="cls-12" d="M161.82,66.38c1.65,.3,3.17,2.49,2.2,3.23-.43,.33,.01-1.38-1.36-1.87-.97-.35-1.19-1.42-.84-1.36Z"/></g><rect class="cls-11" x="161.65" y="65.18" width="2.14" height=".83" rx=".41" ry=".41" transform="translate(17.27 -32.51) rotate(12.04)"/><rect class="cls-11" x="159.11" y="66.01" width="2.14" height=".83" rx=".41" ry=".41" transform="translate(113.22 -100.5) rotate(51.76)"/><rect class="cls-11" x="163.6" y="66.94" width="2.14" height=".83" rx=".41" ry=".41" transform="translate(115.66 -103.67) rotate(51.76)"/><rect class="cls-11" x="163.12" y="69.88" width="2.14" height=".83" rx=".41" ry=".41" transform="translate(339.66 37) rotate(146.08)"/><rect class="cls-11" x="164.72" y="69.36" width="2.14" height=".83" rx=".41" ry=".41" transform="translate(143.32 -108.69) rotate(60)"/><rect class="cls-11" x="160.59" y="68.38" width="2.14" height=".83" rx=".41" ry=".41" transform="translate(334.2 35.67) rotate(146.08)"/><rect class="cls-11" x="160.07" y="64" width="2.14" height=".83" rx=".41" ry=".41" transform="translate(330.81 27.95) rotate(146.08)"/><rect class="cls-11" x="158" y="63.43" width="2.14" height=".83" rx=".41" ry=".41" transform="translate(123.28 -103.79) rotate(56.08)"/><rect class="cls-11" x="158.33" y="67.3" width="2.14" height=".83" rx=".41" ry=".41" transform="translate(158.29 -105.47) rotate(66.62)"/><rect class="cls-11" x="157.05" y="64.62" width="2.14" height=".83" rx=".41" ry=".41" transform="translate(4.42 -9.86) rotate(3.62)"/><rect class="cls-11" x="155.86" y="63.19" width="2.14" height=".83" rx=".41" ry=".41" transform="translate(69.94 -81.67) rotate(37.02)"/><rect class="cls-11" x="153.77" y="63.43" width="2.14" height=".83" rx=".41" ry=".41" transform="translate(4.34 -9.65) rotate(3.62)"/><rect class="cls-11" x="156.47" y="66.8" width="2.14" height=".83" rx=".41" ry=".41" transform="translate(90.33 224.75) rotate(-90)"/><rect class="cls-11" x="154.36" y="67.05" width="2.14" height=".83" rx=".41" ry=".41" transform="translate(7.98 150.94) rotate(-52.98)"/><rect class="cls-11" x="151.56" y="64.27" width="2.14" height=".83" rx=".41" ry=".41" transform="translate(-12.7 76.79) rotate(-27.16)"/><rect class="cls-11" x="150.11" y="66.38" width="2.14" height=".83" rx=".41" ry=".41" transform="translate(2.1 138.14) rotate(-49.41)"/><rect class="cls-11" x="148.82" y="69.1" width="2.14" height=".83" rx=".41" ry=".41" transform="translate(-.42 138.11) rotate(-49.41)"/><rect class="cls-11" x="150.32" y="68.38" width="2.14" height=".83" rx=".41" ry=".41" transform="translate(178.78 232.81) rotate(-123.92)"/><rect class="cls-11" x="152.29" y="68.54" width="2.14" height=".83" rx=".41" ry=".41" transform="translate(1.22 140.55) rotate(-49.41)"/><rect class="cls-11" x="161.08" y="69.99" width="2.14" height=".83" rx=".41" ry=".41" transform="translate(280.76 -60.68) rotate(108.67)"/><rect class="cls-11" x="156.8" y="69.36" width="2.14" height=".83" rx=".41" ry=".41" transform="translate(274.5 -57.45) rotate(108.67)"/><rect class="cls-11" x="158.61" y="70.26" width="2.14" height=".83" rx=".41" ry=".41" transform="translate(141.04 -102.95) rotate(60)"/><rect class="cls-11" x="153.61" y="69.78" width="2.14" height=".83" rx=".41" ry=".41" transform="translate(270.68 -53.88) rotate(108.67)"/><rect class="cls-11" x="155.42" y="70.67" width="2.14" height=".83" rx=".41" ry=".41" transform="translate(139.81 -99.98) rotate(60)"/><rect class="cls-11" x="149.86" y="70.25" width="2.14" height=".83" rx=".41" ry=".41" transform="translate(266.18 -49.7) rotate(108.67)"/><rect class="cls-11" x="151.67" y="71.15" width="2.14" height=".83" rx=".41" ry=".41" transform="translate(138.34 -96.49) rotate(60)"/></g><path class="cls-8" d="M166.51,71.72s-1.24,8.51-2.07,9.86-11.31,1.73-12.94-.25c-.64-.77-2.32-9.41-2.32-9.41,.18,.05,.38-.2,.55-.15,.19,.05,.37,.4,.56,.44,.27,.06,.48-.13,.75-.07,.21,.05,.48,.35,.69,.39,.24,.05,.46-.27,.7-.23s.5,.45,.74,.49,.56-.38,.8-.34,.44,.52,.69,.54c.23,.03,.48-.3,.7-.28,.29,.03,.56,.4,.85,.42s.61-.35,.88-.34c.31,.01,.57,.4,.89,.4,.19,0,.34-.37,.52-.37,.22,0,.48,.36,.7,.35,.28-.01,.49-.3,.77-.32,.2-.01,.46,.25,.66,.23,.18-.02,.32-.34,.49-.36,.23-.02,.51,.26,.74,.23,.21-.03,.38-.33,.59-.36s.45,.21,.65,.18c.24-.04,.4-.25,.64-.3,.21-.04,.49,.08,.69,.04,.15-.03,.29-.18,.44-.22,.22-.05,.45,0,.67-.05,.2-.05,.35-.19,.55-.25,.17-.05,.26-.21,.43-.26Z"/><path class="cls-1" d="M166.51,71.72s-1.6,8.26-2.43,9.61-11.34,1.66-12.58,0c-.6-.8-2.43-9.61-2.43-9.61,.18,.05,.38-.2,.55-.15,.19,.05,.37,.4,.56,.44,.27,.06,.48-.13,.75-.07,.21,.05,.48,.35,.69,.39,.24,.05,.46-.27,.7-.23s.5,.45,.74,.49,.56-.38,.8-.34,.44,.52,.69,.54c.23,.03,.48-.3,.7-.28,.29,.03,.56,.4,.85,.42s.61-.35,.88-.34c.31,.01,.57,.4,.89,.4,.19,0,.34-.37,.52-.37,.22,0,.48,.36,.7,.35,.28-.01,.49-.3,.77-.32,.2-.01,.46,.25,.66,.23,.18-.02,.32-.34,.49-.36,.23-.02,.51,.26,.74,.23,.21-.03,.38-.33,.59-.36s.45,.21,.65,.18c.24-.04,.4-.25,.64-.3,.21-.04,.49,.08,.69,.04,.15-.03,.29-.18,.44-.22,.22-.05,.45,0,.67-.05,.2-.05,.35-.19,.55-.25,.17-.05,.37,0,.53-.06Z"/><path class="cls-13" d="M149.07,71.72s.03,.14,.08,.39c.15-.02,.32-.2,.47-.16,.19,.05,.37,.4,.56,.44,.27,.07,.48-.13,.75-.07,.21,.05,.48,.35,.69,.39,.24,.05,.46-.28,.7-.23,.25,.04,.5,.45,.74,.49,.25,.04,.56-.38,.8-.34,.25,.03,.44,.52,.68,.54,.23,.02,.48-.3,.7-.28,.29,.03,.56,.4,.85,.42,.28,.02,.61-.35,.88-.34,.32,.01,.57,.4,.89,.4,.19,0,.33-.37,.52-.37,.22,0,.48,.36,.7,.35,.28-.01,.49-.3,.77-.32,.2-.01,.47,.25,.66,.23,.18-.02,.32-.34,.49-.36,.23-.02,.51,.26,.74,.23,.21-.03,.38-.33,.59-.36,.21-.03,.45,.21,.65,.18,.24-.04,.4-.25,.64-.3,.2-.04,.48,.08,.69,.04,.15-.03,.29-.18,.43-.22,.22-.05,.45,0,.67-.05,.2-.05,.35-.19,.55-.25,.14-.04,.31-.02,.45-.04,.05-.26,.08-.41,.08-.41-.17,.05-.37,.01-.53,.06-.2,.06-.35,.2-.55,.25-.22,.06-.45,0-.67,.05-.15,.03-.28,.18-.43,.22-.2,.05-.48-.08-.69-.04-.24,.05-.4,.26-.64,.3-.21,.03-.45-.21-.65-.18-.21,.03-.38,.33-.59,.36-.23,.03-.5-.25-.74-.23-.18,.02-.31,.34-.49,.36-.2,.02-.46-.24-.66-.23-.27,.02-.49,.31-.77,.32-.22,0-.48-.35-.7-.35-.19,0-.33,.37-.52,.37-.31,0-.57-.39-.89-.4-.28-.01-.6,.36-.88,.34-.29-.02-.56-.39-.85-.42-.23-.02-.47,.31-.7,.28-.25-.03-.44-.51-.68-.54-.25-.03-.55,.38-.8,.34-.24-.04-.5-.45-.74-.49-.24-.04-.46,.28-.7,.23-.21-.04-.48-.34-.69-.39-.27-.06-.48,.13-.75,.07-.19-.05-.37-.39-.56-.44-.18-.05-.37,.2-.55,.15Z"/><path class="cls-13" d="M161.81,82.14s.97-7.05,1.54-7.2,.38,5.91,0,6.84c-.59,.2-1.12,.29-1.54,.36Z"/><path class="cls-13" d="M153.59,82.17s-.96-7.23-1.53-7.39-.39,6.02,0,6.95c.53,.23,1.08,.37,1.54,.44Z"/><path class="cls-13" d="M158.79,82.43c-.86,.02-1.66,.03-2.3,0,0,0,.33-6.65,1.05-6.65s1.3,3.94,1.25,6.64Z"/></g><g><path class="cls-9" d="M200.92,70.06s-.06-.27-.28-.43c-.08-.06-.19,.04-.32-.03-.91-.5-3.11-1.21-8.12-1.07-4.73,.13-6.95,.69-7.95,1.09-.21,.08-.39,0-.5,.06-.22,.13-.27,.37-.27,.37,0,.39,4.29,1.38,8.47,1.26,3.97-.12,7.6-.57,8.97-1.26Z"/><g><g><path class="cls-7" d="M199.56,71.85c-1.48,2.36-5.02,2.94-7.37,2.99-2.49,.05-5.89-.55-7.31-3.15-1.63-2.98-.17-11.77,8.35-9.76,7.05,1.66,7.94,7.35,6.33,9.93Z"/><path class="cls-12" d="M190.08,63.3s-2.65-.07-3.37,2.48,1.54-.75,2.29-.75,2.55-1.54,1.08-1.73Z"/><path class="cls-12" d="M196.23,64.72c1.65,.3,3.17,2.49,2.2,3.23-.43,.33,.01-1.38-1.36-1.87-.97-.35-1.19-1.42-.84-1.36Z"/></g><rect class="cls-11" x="196.06" y="63.52" width="2.14" height=".83" rx=".41" ry=".41" transform="translate(17.68 -39.73) rotate(12.04)"/><rect class="cls-11" x="193.52" y="64.36" width="2.14" height=".83" rx=".41" ry=".41" transform="translate(125.03 -128.16) rotate(51.76)"/><rect class="cls-11" x="198" y="65.28" width="2.14" height=".83" rx=".41" ry=".41" transform="translate(127.47 -131.33) rotate(51.76)"/><rect class="cls-11" x="197.53" y="68.22" width="2.14" height=".83" rx=".41" ry=".41" transform="translate(401.69 14.76) rotate(146.08)"/><rect class="cls-11" x="199.13" y="67.7" width="2.14" height=".83" rx=".41" ry=".41" transform="translate(159.09 -139.32) rotate(60)"/><rect class="cls-11" x="195" y="66.72" width="2.14" height=".83" rx=".41" ry=".41" transform="translate(396.24 13.43) rotate(146.08)"/><rect class="cls-11" x="194.48" y="62.34" width="2.14" height=".83" rx=".41" ry=".41" transform="translate(392.84 5.71) rotate(146.08)"/><rect class="cls-11" x="192.41" y="61.77" width="2.14" height=".83" rx=".41" ry=".41" transform="translate(137.11 -133.07) rotate(56.08)"/><rect class="cls-11" x="192.73" y="65.64" width="2.14" height=".83" rx=".41" ry=".41" transform="translate(177.52 -138.05) rotate(66.62)"/><rect class="cls-11" x="191.45" y="62.96" width="2.14" height=".83" rx=".41" ry=".41" transform="translate(4.39 -12.03) rotate(3.62)"/><rect class="cls-11" x="190.27" y="61.54" width="2.14" height=".83" rx=".41" ry=".41" transform="translate(75.87 -102.72) rotate(37.02)"/><rect class="cls-11" x="188.18" y="61.77" width="2.14" height=".83" rx=".41" ry=".41" transform="translate(4.3 -11.83) rotate(3.62)"/><rect class="cls-11" x="190.88" y="65.14" width="2.14" height=".83" rx=".41" ry=".41" transform="translate(126.4 257.5) rotate(-90)"/><rect class="cls-11" x="188.77" y="65.39" width="2.14" height=".83" rx=".41" ry=".41" transform="translate(22.99 177.75) rotate(-52.98)"/><rect class="cls-11" x="185.97" y="62.61" width="2.14" height=".83" rx=".41" ry=".41" transform="translate(-8.15 92.32) rotate(-27.16)"/><rect class="cls-11" x="184.52" y="64.72" width="2.14" height=".83" rx=".41" ry=".41" transform="translate(15.38 163.68) rotate(-49.41)"/><rect class="cls-11" x="183.23" y="67.44" width="2.14" height=".83" rx=".41" ry=".41" transform="translate(12.86 163.66) rotate(-49.41)"/><rect class="cls-11" x="184.73" y="66.72" width="2.14" height=".83" rx=".41" ry=".41" transform="translate(233.77 258.78) rotate(-123.92)"/><rect class="cls-11" x="186.7" y="66.88" width="2.14" height=".83" rx=".41" ry=".41" transform="translate(14.5 166.1) rotate(-49.41)"/><rect class="cls-11" x="195.49" y="68.33" width="2.14" height=".83" rx=".41" ry=".41" transform="translate(324.6 -95.47) rotate(108.67)"/><rect class="cls-11" x="191.2" y="67.7" width="2.14" height=".83" rx=".41" ry=".41" transform="translate(318.35 -92.24) rotate(108.67)"/><rect class="cls-11" x="193.02" y="68.6" width="2.14" height=".83" rx=".41" ry=".41" transform="translate(156.81 -133.58) rotate(60)"/><rect class="cls-11" x="188.01" y="68.12" width="2.14" height=".83" rx=".41" ry=".41" transform="translate(314.53 -88.67) rotate(108.67)"/><rect class="cls-11" x="189.83" y="69.01" width="2.14" height=".83" rx=".41" ry=".41" transform="translate(155.57 -130.61) rotate(60)"/><rect class="cls-11" x="184.26" y="68.59" width="2.14" height=".83" rx=".41" ry=".41" transform="translate(310.03 -84.49) rotate(108.67)"/><rect class="cls-11" x="186.08" y="69.49" width="2.14" height=".83" rx=".41" ry=".41" transform="translate(154.11 -127.12) rotate(60)"/></g><path class="cls-8" d="M200.92,70.06s-1.24,8.51-2.07,9.86-11.31,1.73-12.94-.25c-.64-.77-2.32-9.41-2.32-9.41,.18,.05,.38-.2,.55-.15,.19,.05,.37,.4,.56,.44,.27,.06,.48-.13,.75-.07,.21,.05,.48,.35,.69,.39,.24,.05,.46-.27,.7-.23s.5,.45,.74,.49,.56-.38,.8-.34,.44,.52,.69,.54c.23,.03,.48-.3,.7-.28,.29,.03,.56,.4,.85,.42s.61-.35,.88-.34c.31,.01,.57,.4,.89,.4,.19,0,.34-.37,.52-.37,.22,0,.48,.36,.7,.35,.28-.01,.49-.3,.77-.32,.2-.01,.46,.25,.66,.23,.18-.02,.32-.34,.49-.36,.23-.02,.51,.26,.74,.23,.21-.03,.38-.33,.59-.36s.45,.21,.65,.18c.24-.04,.4-.25,.64-.3,.21-.04,.49,.08,.69,.04,.15-.03,.29-.18,.44-.22,.22-.05,.45,0,.67-.05,.2-.05,.35-.19,.55-.25,.17-.05,.26-.21,.43-.26Z"/><path class="cls-1" d="M200.92,70.06s-1.6,8.26-2.43,9.61-11.34,1.66-12.58,0c-.6-.8-2.43-9.61-2.43-9.61,.18,.05,.38-.2,.55-.15,.19,.05,.37,.4,.56,.44,.27,.06,.48-.13,.75-.07,.21,.05,.48,.35,.69,.39,.24,.05,.46-.27,.7-.23s.5,.45,.74,.49,.56-.38,.8-.34,.44,.52,.69,.54c.23,.03,.48-.3,.7-.28,.29,.03,.56,.4,.85,.42s.61-.35,.88-.34c.31,.01,.57,.4,.89,.4,.19,0,.34-.37,.52-.37,.22,0,.48,.36,.7,.35,.28-.01,.49-.3,.77-.32,.2-.01,.46,.25,.66,.23,.18-.02,.32-.34,.49-.36,.23-.02,.51,.26,.74,.23,.21-.03,.38-.33,.59-.36s.45,.21,.65,.18c.24-.04,.4-.25,.64-.3,.21-.04,.49,.08,.69,.04,.15-.03,.29-.18,.44-.22,.22-.05,.45,0,.67-.05,.2-.05,.35-.19,.55-.25,.17-.05,.37,0,.53-.06Z"/><path class="cls-13" d="M183.48,70.06s.03,.14,.08,.39c.15-.02,.32-.2,.47-.16,.19,.05,.37,.4,.56,.44,.27,.07,.48-.13,.75-.07,.21,.05,.48,.35,.69,.39,.24,.05,.46-.28,.7-.23,.25,.04,.5,.45,.74,.49,.25,.04,.56-.38,.8-.34,.25,.03,.44,.52,.68,.54,.23,.02,.48-.3,.7-.28,.29,.03,.56,.4,.85,.42,.28,.02,.61-.35,.88-.34,.32,.01,.57,.4,.89,.4,.19,0,.33-.37,.52-.37,.22,0,.48,.36,.7,.35,.28-.01,.49-.3,.77-.32,.2-.01,.47,.25,.66,.23,.18-.02,.32-.34,.49-.36,.23-.02,.51,.26,.74,.23,.21-.03,.38-.33,.59-.36,.21-.03,.45,.21,.65,.18,.24-.04,.4-.25,.64-.3,.2-.04,.48,.08,.69,.04,.15-.03,.29-.18,.43-.22,.22-.05,.45,0,.67-.05,.2-.05,.35-.19,.55-.25,.14-.04,.31-.02,.45-.04,.05-.26,.08-.41,.08-.41-.17,.05-.37,.01-.53,.06-.2,.06-.35,.2-.55,.25-.22,.06-.45,0-.67,.05-.15,.03-.28,.18-.43,.22-.2,.05-.48-.08-.69-.04-.24,.05-.4,.26-.64,.3-.21,.03-.45-.21-.65-.18-.21,.03-.38,.33-.59,.36-.23,.03-.5-.25-.74-.23-.18,.02-.31,.34-.49,.36-.2,.02-.46-.24-.66-.23-.27,.02-.49,.31-.77,.32-.22,0-.48-.35-.7-.35-.19,0-.33,.37-.52,.37-.31,0-.57-.39-.89-.4-.28-.01-.6,.36-.88,.34-.29-.02-.56-.39-.85-.42-.23-.02-.47,.31-.7,.28-.25-.03-.44-.51-.68-.54-.25-.03-.55,.38-.8,.34-.24-.04-.5-.45-.74-.49-.24-.04-.46,.28-.7,.23-.21-.04-.48-.34-.69-.39-.27-.06-.48,.13-.75,.07-.19-.05-.37-.39-.56-.44-.18-.05-.37,.2-.55,.15Z"/><path class="cls-13" d="M196.22,80.48s.97-7.05,1.54-7.2,.38,5.91,0,6.84c-.59,.2-1.12,.29-1.54,.36Z"/><path class="cls-13" d="M187.99,80.51s-.96-7.23-1.53-7.39-.39,6.02,0,6.95c.53,.23,1.08,.37,1.54,.44Z"/><path class="cls-13" d="M193.2,80.77c-.86,.02-1.66,.03-2.3,0,0,0,.33-6.65,1.05-6.65s1.3,3.94,1.25,6.64Z"/></g><g><path class="cls-9" d="M163.05,76.2s.08-.37,.38-.59c.11-.08,.27,.06,.45-.04,1.25-.68,4.27-1.66,11.18-1.47,6.51,.18,9.57,.95,10.94,1.5,.28,.11,.53,0,.69,.08,.31,.17,.37,.51,.37,.51,.01,.53-5.9,1.9-11.66,1.73-5.47-.17-10.45-.78-12.34-1.73Z"/><g><g><path class="cls-7" d="M164.92,78.67c2.03,3.25,6.91,4.05,10.14,4.11,3.43,.07,8.11-.76,10.06-4.34,2.24-4.1,.23-16.2-11.49-13.44-9.7,2.29-10.93,10.11-8.71,13.66Z"/><path class="cls-12" d="M177.96,66.9s3.64-.09,4.63,3.42-2.11-1.03-3.15-1.03-3.51-2.11-1.48-2.38Z"/><path class="cls-12" d="M169.51,68.86c-2.27,.41-4.36,3.43-3.03,4.45,.59,.45-.01-1.9,1.87-2.58,1.33-.48,1.64-1.96,1.16-1.87Z"/></g><rect class="cls-11" x="166.8" y="67.2" width="2.94" height="1.14" rx=".57" ry=".57" transform="translate(346.98 98.94) rotate(167.96)"/><rect class="cls-11" x="170.29" y="68.36" width="2.94" height="1.14" rx=".57" ry=".57" transform="translate(332.2 -23.33) rotate(128.24)"/><rect class="cls-11" x="164.12" y="69.63" width="2.94" height="1.14" rx=".57" ry=".57" transform="translate(323.22 -16.42) rotate(128.24)"/><rect class="cls-11" x="164.78" y="73.67" width="2.94" height="1.14" rx=".57" ry=".57" transform="translate(69.72 -80.14) rotate(33.92)"/><rect class="cls-11" x="162.57" y="72.96" width="2.94" height="1.14" rx=".57" ry=".57" transform="translate(309.74 -31.77) rotate(120)"/><rect class="cls-11" x="168.25" y="71.61" width="2.94" height="1.14" rx=".57" ry=".57" transform="translate(69.16 -82.43) rotate(33.92)"/><rect class="cls-11" x="168.97" y="65.59" width="2.94" height="1.14" rx=".57" ry=".57" transform="translate(65.92 -83.85) rotate(33.92)"/><rect class="cls-11" x="171.82" y="64.79" width="2.94" height="1.14" rx=".57" ry=".57" transform="translate(324.23 -41.96) rotate(123.92)"/><rect class="cls-11" x="171.37" y="70.12" width="2.94" height="1.14" rx=".57" ry=".57" transform="translate(306.32 -59.91) rotate(113.38)"/><rect class="cls-11" x="173.14" y="66.43" width="2.94" height="1.14" rx=".57" ry=".57" transform="translate(353.1 122.84) rotate(176.38)"/><rect class="cls-11" x="174.77" y="64.47" width="2.94" height="1.14" rx=".57" ry=".57" transform="translate(356.11 10.86) rotate(142.98)"/><rect class="cls-11" x="177.64" y="64.79" width="2.94" height="1.14" rx=".57" ry=".57" transform="translate(362 119.28) rotate(176.38)"/><rect class="cls-11" x="173.92" y="69.43" width="2.94" height="1.14" rx=".57" ry=".57" transform="translate(105.39 245.39) rotate(-90)"/><rect class="cls-11" x="176.83" y="69.78" width="2.94" height="1.14" rx=".57" ry=".57" transform="translate(229.49 255.07) rotate(-127.02)"/><rect class="cls-11" x="180.68" y="65.96" width="2.94" height="1.14" rx=".57" ry=".57" transform="translate(313.87 208.86) rotate(-152.84)"/><rect class="cls-11" x="182.68" y="68.85" width="2.94" height="1.14" rx=".57" ry=".57" transform="translate(251.25 254.43) rotate(-130.59)"/><rect class="cls-11" x="184.45" y="72.6" width="2.94" height="1.14" rx=".57" ry=".57" transform="translate(251.33 261.96) rotate(-130.59)"/><rect class="cls-11" x="182.39" y="71.61" width="2.94" height="1.14" rx=".57" ry=".57" transform="translate(21.36 184.47) rotate(-56.08)"/><rect class="cls-11" x="179.67" y="71.83" width="2.94" height="1.14" rx=".57" ry=".57" transform="translate(244.03 257.06) rotate(-130.59)"/><rect class="cls-11" x="167.58" y="73.82" width="2.94" height="1.14" rx=".57" ry=".57" transform="translate(185.41 -109.58) rotate(71.33)"/><rect class="cls-11" x="173.48" y="72.96" width="2.94" height="1.14" rx=".57" ry=".57" transform="translate(188.61 -115.75) rotate(71.33)"/><rect class="cls-11" x="170.98" y="74.2" width="2.94" height="1.14" rx=".57" ry=".57" transform="translate(323.43 -37.2) rotate(120)"/><rect class="cls-11" x="177.87" y="73.53" width="2.94" height="1.14" rx=".57" ry=".57" transform="translate(192.13 -119.52) rotate(71.33)"/><rect class="cls-11" x="175.37" y="74.77" width="2.94" height="1.14" rx=".57" ry=".57" transform="translate(330.51 -40.15) rotate(120)"/><rect class="cls-11" x="183.03" y="74.19" width="2.94" height="1.14" rx=".57" ry=".57" transform="translate(196.26 -123.97) rotate(71.33)"/><rect class="cls-11" x="180.53" y="75.42" width="2.94" height="1.14" rx=".57" ry=".57" transform="translate(338.81 -43.64) rotate(120)"/></g><path class="cls-8" d="M163.35,76.5s2.68,10.78,3.05,12.93c.32,1.89,15.75,2.58,17.45,.3,.82-1.1,3.2-13.53,3.2-13.53-8.79,2.42-16.42,2.5-23.7,.3Z"/><path class="cls-1" d="M163.05,76.2s2.2,11.37,3.35,13.23,15.61,2.28,17.31,0c.82-1.1,3.35-13.23,3.35-13.23-.25,.07-.52-.28-.76-.21-.26,.07-.5,.54-.77,.61-.37,.09-.66-.18-1.03-.1-.29,.06-.66,.48-.95,.54-.33,.07-.64-.38-.96-.32s-.69,.62-1.02,.67-.76-.52-1.1-.47-.6,.71-.94,.75c-.31,.03-.65-.41-.97-.39-.4,.04-.77,.55-1.17,.57s-.84-.48-1.22-.47c-.43,.02-.79,.55-1.22,.55-.26,0-.46-.51-.72-.51-.3,0-.67,.49-.97,.48-.38-.01-.68-.41-1.06-.44-.28-.02-.64,.34-.91,.32-.25-.02-.43-.47-.68-.49-.32-.03-.7,.35-1.01,.31-.29-.04-.53-.46-.81-.5s-.61,.29-.9,.24c-.33-.06-.55-.35-.88-.42-.28-.06-.67,.12-.95,.05-.21-.05-.39-.25-.6-.3-.3-.07-.62,.01-.92-.07-.27-.07-.49-.26-.76-.34-.23-.06-.51-.01-.73-.08Z"/><path class="cls-13" d="M187.05,76.2s-.04,.19-.11,.54c-.21-.03-.44-.27-.65-.22-.27,.07-.51,.54-.77,.61-.37,.09-.66-.18-1.03-.1-.29,.07-.66,.48-.95,.54-.33,.06-.64-.38-.96-.32-.34,.06-.68,.62-1.02,.67-.34,.05-.77-.52-1.11-.47-.34,.04-.6,.71-.94,.75-.31,.03-.65-.42-.97-.39-.4,.04-.77,.55-1.17,.57-.38,.02-.83-.48-1.21-.47-.43,.01-.79,.55-1.22,.55-.26,0-.46-.51-.72-.51-.31,0-.67,.49-.97,.48-.38-.01-.68-.41-1.06-.44-.28-.02-.64,.34-.91,.32-.25-.02-.44-.47-.68-.49-.32-.03-.7,.35-1.01,.31-.29-.04-.53-.45-.81-.5-.28-.04-.61,.29-.9,.24-.33-.06-.55-.35-.88-.42-.28-.05-.67,.12-.95,.06-.21-.05-.39-.25-.6-.3-.31-.07-.62,.01-.92-.07-.27-.07-.49-.26-.76-.34-.19-.06-.42-.03-.63-.06-.07-.36-.11-.56-.11-.56,.23,.07,.51,.02,.74,.08,.27,.08,.48,.27,.76,.34,.3,.08,.62,0,.92,.07,.2,.05,.39,.25,.6,.3,.28,.06,.67-.11,.95-.05,.33,.07,.55,.36,.88,.42,.28,.05,.61-.28,.9-.24,.28,.04,.52,.46,.81,.5,.32,.04,.69-.34,1.01-.31,.24,.02,.43,.47,.68,.49,.27,.02,.63-.33,.91-.32,.38,.02,.67,.42,1.06,.44,.3,.01,.66-.48,.97-.48,.26,0,.46,.51,.72,.51,.43,0,.79-.54,1.22-.55,.38-.01,.83,.49,1.21,.47,.4-.02,.77-.54,1.17-.57,.31-.03,.65,.42,.97,.39,.34-.04,.6-.7,.94-.75,.34-.04,.76,.53,1.11,.47,.33-.05,.68-.61,1.02-.68,.33-.06,.64,.39,.96,.32,.29-.06,.65-.47,.95-.54,.36-.08,.66,.19,1.03,.1,.26-.06,.5-.54,.77-.61,.24-.06,.51,.28,.76,.21Z"/><path class="cls-13" d="M169.52,90.55s-1.33-9.7-2.11-9.91-.53,8.14,0,9.41c.81,.28,1.55,.39,2.12,.5Z"/><path class="cls-13" d="M180.84,90.58s1.33-9.95,2.11-10.17,.53,8.28,.01,9.56c-.74,.32-1.49,.51-2.12,.6Z"/><path class="cls-13" d="M173.67,90.95c1.18,.03,2.28,.04,3.17,0,0,0-.45-9.15-1.45-9.15s-1.79,5.42-1.72,9.14Z"/></g></g><g><rect class="cls-11" x="155.59" y="44.52" width="2.67" height="1.03" rx=".52" ry=".52" transform="translate(249.83 -89.21) rotate(108.67)"/><rect class="cls-11" x="171.26" y="59.09" width="2.03" height=".78" rx=".39" ry=".39" transform="translate(98.94 -107.36) rotate(47.22)"/><rect class="cls-11" x="154.36" y="52.97" width="2.03" height=".78" rx=".39" ry=".39" transform="translate(89.02 -96.93) rotate(47.22)"/><rect class="cls-11" x="174.02" y="52.71" width="2.67" height="1.03" rx=".52" ry=".52" transform="translate(89 -108.41) rotate(45)"/><rect class="cls-11" x="178.86" y="59.57" width="2.67" height="1.03" rx=".52" ry=".52" transform="translate(95.27 -109.82) rotate(45)"/><rect class="cls-11" x="177.6" y="48.32" width="2.67" height="1.03" rx=".52" ry=".52" transform="translate(282.48 -105.06) rotate(108.67)"/><rect class="cls-11" x="188.17" y="52.11" width="2.03" height=".78" rx=".39" ry=".39" transform="translate(99.24 -122.02) rotate(47.22)"/><rect class="cls-11" x="193.98" y="50.87" width="2.67" height="1.03" rx=".52" ry=".52" transform="translate(93.54 -123.06) rotate(45)"/><rect class="cls-11" x="190.17" y="44.52" width="2.67" height="1.03" rx=".52" ry=".52" transform="translate(295.48 -121.97) rotate(108.67)"/><rect class="cls-11" x="186.33" y="57.84" width="2.03" height=".78" rx=".39" ry=".39" transform="translate(296.66 -104.67) rotate(106.6)"/><rect class="cls-11" x="169.53" y="44.52" width="2.67" height="1.03" rx=".52" ry=".52" transform="translate(268.23 -102.42) rotate(108.67)"/><rect class="cls-11" x="162.51" y="50.9" width="2.67" height="1.03" rx=".52" ry=".52" transform="translate(265 -87.35) rotate(108.67)"/><rect class="cls-11" x="194.88" y="58.96" width="2.03" height=".78" rx=".39" ry=".39" transform="translate(354.47 -70.08) rotate(123.92)"/><rect class="cls-11" x="160.32" y="58.96" width="2.03" height=".78" rx=".39" ry=".39" transform="translate(300.62 -41.4) rotate(123.92)"/><path class="cls-12" d="M176.11,53.56c.27,.58-1.25-.43-1.29-.92-.02-.21,1.02,.34,1.29,.92Z"/><path class="cls-12" d="M172.5,59.69c.16,.47-.74-.35-.76-.74,0-.17,.6,.28,.76,.74Z"/><path class="cls-12" d="M180.55,60.39c.24,.61-1.14-.46-1.17-.97-.01-.22,.93,.36,1.17,.97Z"/><path class="cls-12" d="M187.34,58.55c-.33,.33-.02-.84,.31-1.01,.14-.07,.02,.68-.31,1.01Z"/><path class="cls-12" d="M189.41,52.74c.13,.45-.75-.38-.75-.75,0-.16,.61,.3,.75,.75Z"/><path class="cls-12" d="M195.8,51.79c.23,.58-1.25-.51-1.25-.99,0-.2,1.02,.4,1.25,.99Z"/><path class="cls-12" d="M191.32,45.72c-.43,.46-.07-1.35,.36-1.55,.18-.09,.07,1.09-.36,1.55Z"/><path class="cls-12" d="M195.54,59.76c-.41,.23,.26-1,.62-1.05,.15-.02-.21,.82-.62,1.05Z"/><path class="cls-12" d="M179.03,49.58c-.4,.5-.18-1.31,.24-1.56,.18-.11,.16,1.07-.24,1.56Z"/><path class="cls-12" d="M170.94,45.78c-.4,.5-.18-1.31,.24-1.56,.18-.11,.16,1.07-.24,1.56Z"/><path class="cls-12" d="M156.76,45.7c-.4,.5-.18-1.31,.24-1.56,.18-.11,.16,1.07-.24,1.56Z"/><path class="cls-12" d="M163.96,52.13c-.4,.5-.18-1.31,.24-1.56,.18-.11,.16,1.07-.24,1.56Z"/><path class="cls-12" d="M161.26,59.75c-.39,.24,.18-.8,.52-.89,.15-.04-.13,.65-.52,.89Z"/><path class="cls-12" d="M155.63,53.35c.2,.38-.81-.23-.86-.56-.02-.14,.66,.18,.86,.56Z"/></g></g><g><path class="cls-4" d="M164.78,129.25l-29.78,29.78c-1.98,1.98-5.37,.75-5.62-2.04l-1.74-19.4-19.4-1.74c-2.79-.25-4.02-3.64-2.04-5.62l18.9-18.9c.45,1.47,1.16,2.79,2.2,3.83,5.69,5.69,18.62,1.1,26.17,4.23,3.97,1.63,7.52,6.11,11.3,9.86Z"/><path class="cls-4" d="M164.78,129.25l-29.78,29.78c-1.98,1.98-5.37,.75-5.62-2.04l-1.74-19.4-19.4-1.74c-2.79-.25-4.02-3.64-2.04-5.62l18.9-18.9c.45,1.47,1.16,2.79,2.2,3.83,5.69,5.69,18.62,1.1,26.17,4.23,3.97,1.63,7.52,6.11,11.3,9.86Z"/><path class="cls-5" d="M138.74,155.27l-3.75,3.75c-1.97,2-5.35,.76-5.61-2.03l-1.75-19.41-19.41-1.72c-2.76-.25-4-3.63-2.03-5.63l3.75-3.72c-1.97,1.97-.76,5.35,2.03,5.61l19.41,1.75,1.72,19.38c.25,2.79,3.66,4.03,5.63,2.03Z"/><path class="cls-4" d="M241.75,135.85l-19.42,1.74-1.74,19.4c-.25,2.79-3.64,4.02-5.62,2.04l-29.78-29.78c3.78-3.75,7.33-8.23,11.3-9.86,7.55-3.13,20.51,1.46,26.2-4.23,1.04-1.04,1.75-2.34,2.2-3.8l18.89,18.87c1.98,1.98,.75,5.37-2.04,5.62Z"/><path class="cls-10" d="M225.69,112.14c-.2,3.44-.87,6.54-2.99,8.65-5.69,5.69-18.65,1.1-26.2,4.23-2.99,1.24-5.75,4.09-8.51,7.02l-2.79-2.79c3.78-3.75,7.33-8.23,11.3-9.86,7.55-3.13,20.51,1.47,26.2-4.23,1.04-1.04,1.75-2.34,2.2-3.8l.79,.79Z"/><path class="cls-10" d="M164.78,129.24l-2.79,2.79c-2.76-2.93-5.49-5.78-8.51-7.02-7.55-3.13-20.48,1.47-26.17-4.23-2.11-2.11-2.79-5.21-2.99-8.68l.79-.79c.45,1.47,1.16,2.79,2.2,3.83,5.69,5.69,18.62,1.1,26.17,4.23,3.97,1.63,7.52,6.11,11.3,9.86Z"/><path class="cls-5" d="M241.75,135.86l-19.41,1.72-1.75,19.41c-.25,2.79-3.63,4.03-5.61,2.03l-3.27-3.27c1.97,1.8,5.24,.56,5.49-2.17l1.72-19.38,19.44-1.75c2.79-.25,4-3.61,2.06-5.61l3.38,3.38c1.97,1.97,.73,5.38-2.06,5.63Z"/></g></g><g><g><path class="cls-1" d="M263.73,60.91c-6.36,0-11.54-5.17-11.54-11.54s5.17-11.54,11.54-11.54,11.54,5.17,11.54,11.54-5.17,11.54-11.54,11.54Zm0-17.57c-3.33,0-6.04,2.71-6.04,6.04s2.71,6.04,6.04,6.04,6.04-2.71,6.04-6.04-2.71-6.04-6.04-6.04Z"/><path class="cls-1" d="M254.3,3.67c-3.05,2.62-6.58,4.86-9.33,7.41-.58,.61-1.39,1.35-1.33,1.86,.17-.07,.19-.29,.26-.46,.06-.24,.02-.44,0-.66-.04-.08,0-.07,.02-.07,.16,.11,.35,.31,.62,.54,4.69,3.8,7.96,10.01,6.33,16.15-1.28,5.17-6.2,8.92-11.25,8.64,0,0-.21-.51-.21-.51,1.82-.81,3.47-1.98,4.73-3.49,4.3-4.77,2.42-11.65-2.04-15.6-2.74-2.38-5.06-4.95-1.93-8.24,3.84-3.53,9.11-4.9,14.01-6.11,0,0,.12,.54,.12,.54h0Z"/><path class="cls-1" d="M246.43,89.66c-1.75-8.41,5.66-16.6,13.74-18.22,6.58-1.41,14.47-.58,19.82,3.91,.83,.8,2.11,2.58,.91,3.63,0,0-.47-.28-.47-.28,.19-1.44-2.67-1.8-3.74-2.04-5.04-.69-10.43-.75-15.4,.1-6.75,1.2-12.5,6.4-14.33,13.01,0,0-.54-.11-.54-.11h0Z"/><path class="cls-1" d="M296.94,24.98c-2.32-1.1-3.64-3.42-3.85-5.97-.44-6.08,5.05-11.49,11.13-10.99,1.23,.07,4.34,.71,3.82,2.45,0,0-.55,.05-.55,.05-.02-.09-.4-.16-.77-.03-2.66,1.09-5.19,3.06-7.21,5.03-2.31,2.42-3.14,6.06-2.07,9.23,0,0-.5,.23-.5,.23h0Z"/><path class="cls-1" d="M296.94,60.9c-2.32-1.1-3.64-3.42-3.85-5.97-.44-6.08,5.05-11.49,11.13-10.99,1.23,.07,4.34,.71,3.82,2.45,0,0-.55,.05-.55,.05-.02-.09-.4-.16-.77-.03-2.66,1.09-5.19,3.06-7.21,5.03-2.31,2.42-3.14,6.06-2.07,9.23,0,0-.5,.23-.5,.23h0Z"/><path class="cls-1" d="M284.26,30.36c-.02,.21,0,.19,.01,.34,.15,1.64-1.54,2.85-3.05,2.91-1.79,.14-3.11-.42-4.24-.94-1.81-.71-3.47-1.68-4.89-2.99-.12-.13-.12-.09-.28-.29,0,0-4.67-5.28-4.67-5.28,3.55-1.17,9.08-3.71,12.81-3.84,1.42-.17,5.96,.2,7.44,.23-.39,3.36-.73,7.27-3.14,9.85h0Zm-.54-.08c-.4-2.08-.77-4.12-1.09-6.15l.62,.4c-2.51,.77-5.02,1.53-7.55,2.25,0,0,.26-.86,.26-.86,.98,1.09,2.71,2.66,3.79,3.72,1.04,1.04,2.84,2.17,3.92,.68,0,0,.04-.06,.04-.06,.02-.02,.02-.06,0,.02h0Z"/></g><g><path class="cls-1" d="M86.27,60.91c-6.36,0-11.54-5.17-11.54-11.54s5.17-11.54,11.54-11.54,11.54,5.17,11.54,11.54-5.17,11.54-11.54,11.54Zm0-17.57c-3.33,0-6.04,2.71-6.04,6.04s2.71,6.04,6.04,6.04,6.04-2.71,6.04-6.04-2.71-6.04-6.04-6.04Z"/><path class="cls-1" d="M95.83,3.13c6.54-1.26,16.44-.14,19.31,7.01,1.3,3.53-.6,7.45-3.32,9.67-1.34,1.23-2.59,2.56-3.56,4.08-2.76,4.23-1.02,8.93,2.34,12.67,0,0-.21,.51-.21,.51-10.18-4.11-10.05-14.99-2.09-21.43,5.94-4.72-2.85-8.6-6.85-10.09-1.87-.73-3.8-1.36-5.74-1.88l.12-.54h0Z"/><path class="cls-1" d="M103.03,89.77c-5.48-6.22-11.68-8.83-19.5-9.2-4.09-.27-8.13-1.2-12.11-2-.37-.08-.74-.13-1.03-.15-.3-.03-.63-.08-.84,.29l-.47,.28c-.99-3.28,7.24-3.57,9.3-3.73,6.98-.5,14.67,.15,19.93,5.29,2.6,2.45,4.45,5.64,5.25,9.12l-.54,.11h0Z"/><path class="cls-1" d="M52.56,24.75c-1.65-3.41-3.05-4.42-5.31-6.3-2.17-1.75-3.94-4.25-4.35-7.11,0-.29,.02-.74-.39-.82,0,0-.55-.05-.55-.05,.61-1.88,4.13,.42,5.15,1,4.85,2.75,8.48,7.88,5.95,13.5,0,0-.5-.23-.5-.23h0Z"/><path class="cls-1" d="M52.56,60.67c-1.65-3.41-3.05-4.42-5.31-6.3-2.17-1.75-3.94-4.25-4.35-7.11,0-.29,.02-.74-.39-.82,0,0-.55-.05-.55-.05,.61-1.88,4.13,.42,5.15,1,4.85,2.75,8.48,7.88,5.95,13.5,0,0-.5-.23-.5-.23h0Z"/><path class="cls-1" d="M83.5,22.74c-.02,.21,0,.19,.01,.34,.15,1.64-1.54,2.85-3.05,2.91-1.79,.14-3.11-.42-4.24-.94-1.81-.71-3.47-1.68-4.89-2.99-.12-.13-.12-.09-.28-.29,0,0-4.67-5.28-4.67-5.28,3.55-1.17,9.08-3.71,12.81-3.84,1.42-.17,5.96,.2,7.44,.23-.39,3.36-.73,7.27-3.14,9.85h0Zm-.54-.08c-.4-2.08-.77-4.12-1.09-6.15l.62,.4c-2.51,.77-5.02,1.53-7.55,2.25,0,0,.26-.86,.26-.86,.98,1.09,2.71,2.66,3.79,3.72,1.04,1.04,2.84,2.17,3.92,.68,0,0,.04-.06,.04-.06,.02-.02,.02-.06,0,.02h0Z"/></g></g><g><path class="cls-1" d="M324.93,125.56c-6.36,0-11.54-5.17-11.54-11.54s5.17-11.54,11.54-11.54,11.54,5.17,11.54,11.54-5.17,11.54-11.54,11.54Zm0-17.57c-3.33,0-6.04,2.71-6.04,6.04s2.71,6.04,6.04,6.04,6.04-2.71,6.04-6.04-2.71-6.04-6.04-6.04Z"/><path class="cls-1" d="M304.4,133.04c-.06-.83,.03-1.5,.64-2.15,2.9-2.88,8.56,.47,11.04,2.39,.45,.23,4.97,5.51,5.43,6-3.55,1.17-9.08,3.71-12.81,3.84-1.42,.17-5.96-.2-7.44-.23,.39-3.36,.73-7.27,3.14-9.85h0Zm.54,.08c.4,2.08,.77,4.12,1.09,6.15l-.62-.4c2.51-.77,5.02-1.53,7.55-2.25,0,0-.26,.86-.26,.86-.98-1.09-2.71-2.66-3.79-3.72-1.04-1.04-2.84-2.17-3.92-.68,0,0-.04,.06-.04,.06-.02,.02-.02,.06,0-.02h0Z"/><path class="cls-1" d="M334.36,159.73c3.05-2.62,6.58-4.86,9.33-7.41,.58-.61,1.39-1.35,1.33-1.86-.17,.07-.19,.29-.26,.46-.06,.24-.02,.44,0,.66,.04,.08,0,.07-.02,.07-.16-.11-.35-.31-.62-.54-4.69-3.8-7.96-10.01-6.33-16.15,1.28-5.17,6.2-8.92,11.25-8.64,0,0,.21,.51,.21,.51-1.82,.81-3.47,1.98-4.73,3.49-4.3,4.78-2.42,11.64,2.04,15.6,2.74,2.38,5.06,4.95,1.93,8.24-3.84,3.53-9.11,4.9-14.01,6.11,0,0-.12-.54-.12-.54h0Z"/><path class="cls-1" d="M342.23,73.74c1.75,8.41-5.66,16.6-13.74,18.22-6.58,1.41-14.47,.58-19.82-3.91-.83-.8-2.11-2.58-.91-3.63,0,0,.47,.28,.47,.28-.19,1.44,2.67,1.8,3.74,2.04,5.04,.69,10.43,.75,15.4-.1,6.75-1.19,12.5-6.4,14.33-13.01,0,0,.54,.11,.54,.11h0Z"/><path class="cls-1" d="M291.72,138.42c2.32,1.1,3.64,3.42,3.85,5.97,.44,6.08-5.05,11.49-11.13,10.99-1.21-.06-4.36-.73-3.82-2.45,0,0,.55-.05,.55-.05,.02,.09,.4,.16,.77,.03,2.66-1.09,5.19-3.06,7.21-5.03,2.31-2.42,3.14-6.06,2.07-9.23,0,0,.5-.23,.5-.23h0Z"/><path class="cls-1" d="M291.72,102.5c2.32,1.1,3.64,3.42,3.85,5.97,.44,6.08-5.05,11.49-11.13,10.99-1.21-.06-4.36-.73-3.82-2.45,0,0,.55-.05,.55-.05,.02,.09,.4,.16,.77,.03,2.66-1.09,5.19-3.06,7.21-5.03,2.31-2.42,3.14-6.06,2.07-9.23,0,0,.5-.23,.5-.23h0Z"/></g><path class="cls-1" d="M23.82,69.42c5.48,6.22,11.68,8.83,19.5,9.2,4.09,.27,8.13,1.2,12.11,2,.37,.08,.74,.13,1.03,.15,.3,.03,.63,.08,.84-.29l.47-.28c.99,3.28-7.24,3.57-9.3,3.73-6.98,.5-14.67-.15-19.93-5.29-2.6-2.45-4.45-5.64-5.25-9.12l.54-.11h0Z"/><g><path class="cls-1" d="M29.29,124.84c-6.36,0-11.54-5.17-11.54-11.54s5.17-11.54,11.54-11.54,11.54,5.17,11.54,11.54-5.17,11.54-11.54,11.54Zm0-17.57c-3.33,0-6.04,2.71-6.04,6.04s2.71,6.04,6.04,6.04,6.04-2.71,6.04-6.04-2.71-6.04-6.04-6.04Z"/><path class="cls-1" d="M19.73,159.55c-6.54,1.26-16.44,.14-19.31-7.01-1.3-3.53,.6-7.45,3.32-9.67,1.34-1.23,2.59-2.56,3.56-4.08,2.76-4.23,1.02-8.93-2.34-12.67,0,0,.21-.51,.21-.51,10.18,4.11,10.05,14.99,2.09,21.43-5.94,4.72,2.85,8.6,6.85,10.09,1.87,.73,3.8,1.36,5.74,1.88l-.12,.54h0Z"/><path class="cls-1" d="M62.99,137.93c1.65,3.41,3.05,4.42,5.31,6.3,2.17,1.75,3.94,4.25,4.35,7.11,0,.29-.02,.74,.39,.82,0,0,.55,.05,.55,.05-.61,1.88-4.13-.42-5.15-1-4.85-2.75-8.48-7.88-5.95-13.5,0,0,.5,.23,.5,.23h0Z"/><path class="cls-1" d="M48.49,140.45c-.02,.21,0,.19,.01,.34,.15,1.64-1.54,2.85-3.05,2.91-1.79,.14-3.11-.42-4.24-.94-1.81-.71-3.47-1.68-4.89-2.99-.12-.13-.12-.09-.28-.29,0,0-4.67-5.28-4.67-5.28,3.55-1.17,9.08-3.71,12.81-3.84,1.42-.17,5.96,.2,7.44,.23-.39,3.36-.73,7.27-3.14,9.85h0Zm-.54-.08c-.4-2.08-.77-4.12-1.09-6.15l.62,.4c-2.51,.77-5.02,1.53-7.55,2.25,0,0,.26-.86,.26-.86,.98,1.09,2.71,2.66,3.79,3.72,1.04,1.04,2.84,2.17,3.92,.68,0,0,.04-.06,.04-.06,.02-.02,.02-.06,0,.02h0Z"/><path class="cls-1" d="M62.99,102.01c1.65,3.41,3.05,4.42,5.31,6.3,2.17,1.75,3.94,4.25,4.35,7.11,0,.29-.02,.74,.39,.82,0,0,.55,.05,.55,.05-.61,1.88-4.13-.42-5.15-1-4.85-2.75-8.48-7.88-5.95-13.5,0,0,.5,.23,.5,.23h0Z"/></g></svg>