<?xml version="1.0" encoding="UTF-8"?><svg id="Camada_1" xmlns="http://www.w3.org/2000/svg" viewBox="0 0 230 230"><defs><style>.cls-1{fill:#677070;}.cls-2{fill:#7e8585;}.cls-3{fill:#821b1c;}.cls-4{fill:#bccccc;}.cls-5{fill:#cbdfdd;}.cls-6{fill:#cca7aa;}.cls-7{fill:#cfb6b7;}.cls-8{fill:#c79055;}.cls-9{fill:#d9c3c4;}.cls-10{fill:#d9543f;}.cls-11{fill:#232626;}.cls-12{fill:#121414;}.cls-13{fill:#452a12;}.cls-14{fill:#1d2121;}.cls-15{fill:#6e7878;}.cls-16{fill:#634429;}.cls-17{fill:#2f3333;}.cls-18{fill:#301d0d;}.cls-19{fill:#3a4040;}.cls-20{fill:#778282;}.cls-21{fill:#d9a198;opacity:.3;}.cls-22{fill:#dedede;opacity:.4;}</style></defs><g><g><polygon class="cls-11" points="204.09 120.04 137.03 201.6 24.39 152.64 104.89 83.78 204.09 120.04"/><path class="cls-1" d="M220.35,139.33l-70.56,86.31c-3.38,4.16-9.14,5.52-14.02,3.31L10.87,173.45c-3.99-1.77-6.56-5.73-6.56-10.09v-8.62c31.87,11.62,133.81,63.92,133.81,63.92l87.58-100.74-.49,8.83c-.25,4.6-1.95,9-4.86,12.58Z"/><path class="cls-4" d="M223.81,124.62l-73.65,89.58c-3.61,4.39-9.7,5.86-14.92,3.59L8.91,162.88c-5.19-2.26-6.22-9.17-1.92-12.84L100.97,69.65c.82-.7,1.95-.9,2.96-.53l116.35,42.53c5.34,1.95,7.14,8.59,3.54,12.97Z"/><polygon class="cls-20" points="204.09 120.04 137.03 201.6 24.39 152.64 104.89 83.78 204.09 120.04"/><polygon class="cls-15" points="204.09 120.04 137.03 201.6 135.92 201.12 199.88 123.3 103.18 87.96 26.49 153.55 24.39 152.64 104.89 83.78 204.09 120.04"/><path class="cls-14" d="M185.9,123.64c-.07,.98-.44,1.93-1.05,2.7l-40.04,51c-5.29,6.58-14.36,8.75-22.05,5.28l-71.53-32.25c-1.88-.85-3.09-2.71-3.11-4.77l-.03-2.92,62.65-48.3,75.6,23.52-.43,5.73Z"/><path class="cls-17" d="M185.94,119.56l-42.85,52.12c-4.72,5.74-12.68,7.66-19.49,4.69l-74.82-32.52c-.74-.32-.89-1.31-.28-1.84l61.52-52.62,75.19,27.48c1.1,.4,1.47,1.77,.73,2.68Z"/><path class="cls-21" d="M178.42,125.37l-37.16,38.8c-4.09,4.27-10.99,5.7-16.9,3.49l-64.87-24.21c-.64-.24-.77-.98-.24-1.37l53.34-39.17,65.2,20.46c.95,.3,1.28,1.32,.63,1.99Z"/><path class="cls-10" d="M178.41,123.74l-38.16,36.59c-4.2,4.03-11.29,5.38-17.36,3.3l-66.62-22.83c-.66-.23-.79-.92-.25-1.29l54.78-36.94,66.95,19.29c.98,.28,1.31,1.24,.65,1.88Z"/><polygon class="cls-14" points="123.86 176.41 125.92 157.25 132.83 156.28 142.38 172.31 134.5 181.1 123.86 176.41"/><polygon class="cls-12" points="133.61 180.71 122.61 176.42 124.67 157.25 131.58 156.28 131.67 156.44 125.91 157.25 123.86 176.42 133.61 180.71"/><polygon class="cls-19" points="142.38 172.31 133.61 180.71 141.13 172.31 131.67 156.44 132.83 156.28 142.38 172.31"/></g><g><path class="cls-6" d="M38.42,94.08s2.18,21.02,4.22,27.73c3.81,12.52,23.72,36.34,66.63,36.34,45.03,0,67.11-18.4,70.31-28.97,2.72-8.96,5.63-37.03,5.63-37.03l-146.78,1.92Z"/><ellipse class="cls-3" cx="111.18" cy="73.64" rx="79.52" ry="50.59"/><ellipse class="cls-9" cx="111.18" cy="71.5" rx="76.28" ry="48.53"/><path class="cls-7" d="M186.08,76.76c-6.79,22.37-37.74,39.27-74.89,39.27-.58,0-1.16,0-1.74-.01-36.38-.52-66.48-17.24-73.16-39.26,3.43-23.88,41.16-37.42,74.9-30.57,43.51,8.84,66.77,6.62,74.9,30.57Z"/><path class="cls-18" d="M186.08,80.77c-6.79,22.37-37.74,39.27-74.89,39.27-.58,0-1.16,0-1.74-.01-36.38-.52-66.48-17.24-73.16-39.26,3.43-23.88,41.16-37.42,74.9-30.57,43.51,8.84,66.77,6.62,74.9,30.57Z"/><path class="cls-13" d="M186.08,80.77c-6.79,22.37-37.74,39.27-74.89,39.27-.58,0-1.16,0-1.74-.01-36.38-.52-66.48-17.24-73.16-39.26,6.78-15.21,41.16-33.55,74.9-26.7,43.51,8.84,66.76,2.75,74.89,26.7Z"/><path class="cls-5" d="M189.42,82.73s1.98,.36,5.95-2.78c3.97-3.14,8.72-14.14,8.72-14.14l-7.9-.32-5.52,6.69-1.25,10.56Z"/><path class="cls-2" d="M190.66,72.17s2.64-.61,3.5-2.71,2.02-3.97,2.02-3.97l-.86-.62s-2.54,4.91-3.66,5.29l-1.12,.38,.11,1.63Z"/><path class="cls-11" d="M193.37,63.16l2.82,2.32,7.9,.32s3.06,.64,5.98-6.44c2.92-7.08-15.83-26-21.84-27-6-1-12.5-.25-13.83,2.5s-1.85,6.6-1.85,6.6c0,0,2.35,2.82,3.6,2.65s5.5-.92,5.5-.92c0,0,11,11.24,13.33,14.84,1.19,1.83-1.61,5.12-1.61,5.12Z"/><path class="cls-22" d="M200.18,57.77s.77,.92,1.5,1.09c8.04,1.91,8.8-.57,8.68-1.48-.15-1.16-.81-3.27-.81-3.27,0,0-.07,2.74-2.16,2.64s-6.53-.49-7.89-2.29c-1.36-1.8,.68,3.31,.68,3.31Z"/><path class="cls-5" d="M28.95,107.72s4.92,8.73,12.77,10.22l5.45,.91v-11.05l-7.17-.63s-1.99-2.09-2.63-3.23l-8.42,3.78Z"/><path class="cls-2" d="M28.11,80.69s2.77,2.02,4.65,1.34l.51,1.74s-3.85-.89-5.16-3.09Z"/><path class="cls-5" d="M28.11,80.69s4,2.82,5.16,3.09l4.47,9.28s-5.07-.82-6.07-1.81-3.56-9.28-3.56-10.56Z"/><path class="cls-11" d="M37.37,103.94l-4.11-6.3-5.16-16.95-3.01-9.55s-13.15-2.29-13.06,5.42c.07,5.75,6.46,27.85,9.8,29.53,4.49,2.24,7.11,1.63,7.11,1.63l8.42-3.78Z"/><path class="cls-22" d="M25.1,71.07l-13.06,5.42s-.15-3.58,3.37-4.84,8.44-.81,9.68-.58Z"/></g></g><path class="cls-22" d="M32.88,96c-3.63,3.87-8.04,6.2-13.53,6.36,.67,1.54,1.37,2.93,2.23,3.61,0,0,10.69-7.03,13.16-6.14l-1.3-2-.56-1.83Z"/><path class="cls-16" d="M155.7,98.21c4.67-3.09-6.25,13.95-19,11.83-15.57-2.6,9.12-5.3,19-11.83Z"/><path class="cls-16" d="M73.78,61.5s-21.51,1.8-24.97,14.94c-1.63,6.19,5.99-4.16,12.38-6.32,14.77-5,12.59-8.62,12.59-8.62Z"/><path class="cls-16" d="M140.6,67.29s24.42-7.52,37.02,7.02c0,0-.56,7.9-7.91-.54-8.83-10.14-29.64,.22-29.11-6.49Z"/><path class="cls-16" d="M105.21,96.63s8.13,6.35,0,8.11-16.06,.21-14.86,2.28,22.6,2.52,22.08-2.28-7.23-8.11-7.23-8.11Z"/><path class="cls-16" d="M80.19,104.03s-9.66-3.63-2.42-7.74,15.27-5,13.5-6.61-22.32,4.35-20.39,8.77c1.93,4.42,9.32,5.58,9.32,5.58Z"/><path class="cls-8" d="M78.37,77.47c2.2-3.72-.34-21.05-8.86-50.7C61.9,.29,59.67,.52,61.54,.05s8.35,1.48,16.72,36.88c8.77,37.09,9.08,32.39,17.19,38.13,4.17,2.96,7.72,18.44,4.84,23.79-.93,1.73-12.69,6.06-17.18,3-3.61-2.46-10.71-14.25-4.74-24.37Z"/><path class="cls-16" d="M98.1,57.68s16.38-3.06,20.73,2.87,.71,3.06-5.42,2.87-14.93-2.68-15.32-5.74Z"/></svg>