<?xml version="1.0" encoding="UTF-8"?><svg id="Camada_1" xmlns="http://www.w3.org/2000/svg" viewBox="0 0 230 230"><defs><style>.cls-1{fill:#677070;}.cls-2{fill:#7e8585;}.cls-3{fill:#821b1c;}.cls-4{fill:#bccccc;}.cls-5{fill:#cbdfdd;}.cls-6{fill:#cca7aa;}.cls-7{fill:#cfb6b7;}.cls-8{fill:#c79055;}.cls-9{fill:#d9c3c4;}.cls-10{fill:#d9543f;}.cls-11{fill:#232626;}.cls-12{fill:#121414;}.cls-13{fill:#452a12;}.cls-14{fill:#1d2121;}.cls-15{fill:#6e7878;}.cls-16{fill:#634429;}.cls-17{fill:#2f3333;}.cls-18{fill:#301d0d;}.cls-19{fill:#3a4040;}.cls-20{fill:#778282;}.cls-21{fill:#fff;opacity:.15;}.cls-22{fill:#d9a198;opacity:.3;}.cls-23{fill:#dedede;opacity:.4;}</style></defs><g><g><polygon class="cls-11" points="207.55 115.76 137.89 200.5 20.87 149.63 104.5 78.09 207.55 115.76"/><path class="cls-1" d="M224.45,135.8l-73.3,89.67c-3.51,4.32-9.49,5.74-14.57,3.44L6.82,171.25c-4.14-1.84-6.82-5.95-6.82-10.49v-8.95c33.11,12.08,139.01,66.41,139.01,66.41l90.99-104.66-.5,9.18c-.26,4.78-2.03,9.35-5.05,13.07Z"/><path class="cls-4" d="M228.05,120.52l-76.52,93.07c-3.75,4.57-10.08,6.09-15.5,3.73L4.79,160.27c-5.39-2.34-6.47-9.52-2-13.34L100.42,63.41c.85-.73,2.02-.94,3.07-.55l120.88,44.18c5.54,2.03,7.42,8.92,3.67,13.48Z"/><polygon class="cls-20" points="207.55 115.76 137.89 200.5 20.87 149.63 104.5 78.09 207.55 115.76"/><polygon class="cls-15" points="207.56 115.76 137.89 200.5 136.73 199.99 203.19 119.15 102.72 82.44 23.05 150.57 20.87 149.63 104.5 78.1 207.56 115.76"/><path class="cls-14" d="M188.65,119.5c-.08,1.02-.46,2-1.09,2.81l-41.6,52.99c-5.49,6.84-14.92,9.09-22.91,5.49l-74.32-33.5c-1.95-.88-3.21-2.81-3.23-4.95l-.03-3.03,65.09-50.18,78.54,24.43-.45,5.95Z"/><path class="cls-17" d="M188.7,115.27l-44.52,54.15c-4.9,5.97-13.17,7.96-20.25,4.88l-77.73-33.79c-.77-.34-.92-1.36-.29-1.91l63.91-54.67,78.12,28.55c1.14,.42,1.53,1.84,.76,2.78Z"/><path class="cls-22" d="M180.89,121.29l-38.6,40.31c-4.25,4.44-11.42,5.92-17.56,3.63l-67.4-25.15c-.67-.25-.8-1.01-.25-1.42l55.42-40.69,67.74,21.26c.99,.31,1.33,1.37,.66,2.07Z"/><path class="cls-10" d="M180.88,119.61l-39.64,38.01c-4.37,4.19-11.73,5.58-18.03,3.42l-69.21-23.72c-.69-.24-.82-.96-.25-1.34l56.91-38.37,69.56,20.04c1.02,.29,1.36,1.29,.68,1.95Z"/><polygon class="cls-14" points="124.21 174.33 126.34 154.41 133.52 153.41 143.44 170.07 135.26 179.2 124.21 174.33"/><polygon class="cls-12" points="134.33 178.79 122.91 174.33 125.04 154.42 132.23 153.41 132.32 153.58 126.34 154.42 124.21 174.33 134.33 178.79"/><polygon class="cls-19" points="143.45 170.07 134.33 178.79 142.14 170.07 132.32 153.58 133.52 153.41 143.45 170.07"/></g><g><path class="cls-6" d="M35.44,88.79s2.26,21.84,4.38,28.81c3.96,13.01,24.64,37.76,69.22,37.76,46.79,0,69.72-19.12,73.05-30.1,2.83-9.31,5.84-38.47,5.84-38.47l-152.49,2Z"/><ellipse class="cls-3" cx="111.03" cy="67.56" rx="82.61" ry="52.56"/><ellipse class="cls-9" cx="111.03" cy="65.34" rx="79.25" ry="50.42"/><path class="cls-7" d="M188.84,70.8c-7.05,23.24-39.21,40.8-77.8,40.8-.6,0-1.21,0-1.81-.01-37.8-.54-69.07-17.91-76.01-40.79,3.57-24.81,42.76-38.88,77.81-31.76,45.2,9.18,69.36,6.88,77.81,31.76Z"/><path class="cls-18" d="M188.84,74.96c-7.05,23.24-39.21,40.8-77.8,40.8-.6,0-1.21,0-1.81-.01-37.8-.54-69.07-17.91-76.01-40.79,3.57-24.81,42.76-38.88,77.81-31.76,45.2,9.18,69.36,6.88,77.81,31.76Z"/><path class="cls-13" d="M188.84,74.96c-7.05,23.24-39.21,40.8-77.8,40.8-.6,0-1.21,0-1.81-.01-37.8-.54-69.07-17.91-76.01-40.79,7.04-15.8,42.76-34.86,77.81-27.74,45.2,9.18,69.36,2.86,77.8,27.74Z"/><path class="cls-5" d="M192.31,77s2.06,.37,6.18-2.89c4.12-3.26,9.06-14.69,9.06-14.69l-8.21-.34-5.74,6.95-1.29,10.97Z"/><path class="cls-2" d="M193.61,66.03s2.75-.64,3.64-2.82,2.1-4.13,2.1-4.13l-.89-.65s-2.64,5.1-3.8,5.5l-1.17,.4,.12,1.69Z"/><path class="cls-11" d="M196.42,56.67l2.93,2.41,8.21,.34s3.18,.67,6.21-6.69c3.03-7.36-16.45-27.01-22.68-28.05-6.23-1.04-12.99-.26-14.37,2.6-1.39,2.86-1.92,6.86-1.92,6.86,0,0,2.44,2.93,3.74,2.75,1.3-.17,5.71-.95,5.71-.95,0,0,11.42,11.68,13.85,15.42,1.24,1.9-1.67,5.32-1.67,5.32Z"/><path class="cls-23" d="M203.49,51.06s.8,.95,1.56,1.13c8.35,1.98,9.14-.59,9.01-1.54-.16-1.21-.84-3.4-.84-3.4,0,0-.07,2.84-2.25,2.74-2.18-.1-6.78-.51-8.2-2.38-1.42-1.87,.71,3.44,.71,3.44Z"/><path class="cls-5" d="M25.6,102.97s5.11,9.07,13.27,10.62l5.66,.95v-11.48l-7.45-.65s-2.07-2.17-2.73-3.36l-8.75,3.93Z"/><path class="cls-2" d="M24.72,74.88s2.88,2.1,4.83,1.4l.53,1.81s-3.99-.92-5.36-3.21Z"/><path class="cls-5" d="M24.72,74.88s4.15,2.93,5.36,3.21l4.64,9.64s-5.27-.85-6.3-1.88c-1.03-1.03-3.7-9.64-3.7-10.97Z"/><path class="cls-11" d="M34.35,99.04l-4.27-6.55-5.36-17.61-3.13-9.92s-13.67-2.38-13.57,5.63c.07,5.98,6.71,28.94,10.18,30.67,4.66,2.33,7.39,1.7,7.39,1.7l8.75-3.93Z"/><path class="cls-23" d="M21.6,64.89l-13.57,5.63s-.16-3.72,3.51-5.03c3.66-1.31,8.77-.84,10.06-.6Z"/></g></g><path class="cls-23" d="M32.88,96c-3.63,3.87-8.04,6.2-13.53,6.36,.67,1.54,1.37,2.93,2.23,3.61,0,0,10.69-7.03,13.16-6.14l-1.3-2-.56-1.83Z"/><path class="cls-16" d="M155.7,98.21c4.67-3.09-6.25,13.95-19,11.83-15.57-2.6,9.12-5.3,19-11.83Z"/><path class="cls-16" d="M73.78,61.5s-21.51,1.8-24.97,14.94c-1.63,6.19,5.99-4.16,12.38-6.32,14.77-5,12.59-8.62,12.59-8.62Z"/><path class="cls-16" d="M140.6,67.29s24.42-7.52,37.02,7.02c0,0-.56,7.9-7.91-.54-8.83-10.14-29.64,.22-29.11-6.49Z"/><path class="cls-16" d="M105.21,96.63s8.13,6.35,0,8.11c-8.13,1.76-16.06,.21-14.86,2.28s22.6,2.52,22.08-2.28-7.23-8.11-7.23-8.11Z"/><path class="cls-16" d="M80.19,104.03s-9.66-3.63-2.42-7.74c7.23-4.11,15.27-5,13.5-6.61s-22.32,4.35-20.39,8.77c1.93,4.42,9.32,5.58,9.32,5.58Z"/><path class="cls-8" d="M78.37,77.47c2.2-3.72-.34-21.05-8.86-50.7C61.9,.29,59.67,.52,61.54,.05s8.35,1.48,16.72,36.88c8.77,37.09,9.08,32.39,17.19,38.13,4.17,2.96,7.72,18.44,4.84,23.79-.93,1.73-12.69,6.06-17.18,3-3.61-2.46-10.71-14.25-4.74-24.37Z"/><path class="cls-21" d="M135.87,10.24s11.68,6.99,10.98,24.77c-.7,17.78,2.73,9.81,.26,26.39-2.47,16.58,1.55,30.56-2.58,35.04-4.14,4.48-5.65,13.58-10.16,6.29s-5.82-8.05-6.3-19.88-.06-24.29-3.49-29.04c-3.43-4.75-4.63-5.79-3.55-21.5,1.08-15.72,2.8-31.65,7.73-26.74s7.11,4.68,7.11,4.68Z"/><path class="cls-16" d="M98.1,57.68s16.38-3.06,20.73,2.87c4.35,5.94,.71,3.06-5.42,2.87-6.13-.19-14.93-2.68-15.32-5.74Z"/><path class="cls-21" d="M67.8,23.77s12.5,6.24,10.47,20.04c-2.03,13.8,2.35,7.83-1.56,20.58-3.91,12.75-.42,23.91-5.33,27.12s-7.24,10.19-11.74,4.21c-4.5-5.98-5.91-6.67-5.61-15.92,.3-9.25,1.63-18.93-1.84-22.86-3.48-3.93-4.74-4.82-2.44-16.99s5.33-24.47,10.47-20.31,7.58,4.13,7.58,4.13Z"/></svg>