<svg width="32" height="32" viewBox="0 0 32 32" fill="none" xmlns="http://www.w3.org/2000/svg">
<path fill-rule="evenodd" clip-rule="evenodd" d="M16.023 11.7751C13.1986 11.7751 10.9431 14.0266 10.9431 16.7623C10.9431 19.498 13.1986 21.7495 16.023 21.7495C18.8474 21.7495 21.1029 19.498 21.1029 16.7623C21.1029 14.0266 18.8474 11.7751 16.023 11.7751ZM8.2002 16.7623C8.2002 12.4744 11.7214 9.03223 16.023 9.03223C20.3246 9.03223 23.8458 12.4744 23.8458 16.7623C23.8458 21.0501 20.3246 24.4923 16.023 24.4923C11.7214 24.4923 8.2002 21.0501 8.2002 16.7623Z" fill="white"/>
<path fill-rule="evenodd" clip-rule="evenodd" d="M7.25205 6.29873C7.25205 4.2685 8.91756 2.65527 10.9286 2.65527H21.0714C23.0824 2.65527 24.748 4.2685 24.748 6.29873C24.748 6.3745 24.8094 6.43593 24.8852 6.43593H28.3234C30.3345 6.43593 32 8.04915 32 10.0794V25.7018C32 27.7321 30.3345 29.3453 28.3234 29.3453H3.67659C1.6591 29.3453 0 27.7303 0 25.7018V10.0794C0 8.05093 1.6591 6.43593 3.67659 6.43593H7.11485C7.19062 6.43593 7.25205 6.3745 7.25205 6.29873ZM10.9286 5.39813C10.3948 5.39813 9.9949 5.82064 9.9949 6.29873C9.9949 7.88934 8.70546 9.17879 7.11485 9.17879H3.67659C3.13996 9.17879 2.74286 9.59952 2.74286 10.0794V25.7018C2.74286 26.1817 3.13996 26.6024 3.67659 26.6024H28.3234C28.8572 26.6024 29.2571 26.1799 29.2571 25.7018V10.0794C29.2571 9.6013 28.8572 9.17879 28.3234 9.17879H24.8852C23.2945 9.17879 22.0051 7.88934 22.0051 6.29873C22.0051 5.82064 21.6052 5.39813 21.0714 5.39813H10.9286Z" fill="white"/>
</svg>
