<svg width="33" height="33" viewBox="0 0 33 33" fill="none" xmlns="http://www.w3.org/2000/svg">
<g clip-path="url(#clip0_170_8958)">
<path d="M7.12231 16.0254C7.12231 16.6401 7.35734 17.1644 7.84548 17.6344L21.9472 31.4288C22.3268 31.8265 22.833 32.0254 23.4116 32.0254C24.5867 32.0254 25.5088 31.1214 25.5088 29.9282C25.5088 29.3497 25.2737 28.8254 24.876 28.4277L12.1664 16.0254L24.876 3.62313C25.2737 3.20731 25.5088 2.68302 25.5088 2.10449C25.5088 0.929345 24.5867 0.0253906 23.4116 0.0253906C22.833 0.0253906 22.3268 0.224261 21.9472 0.622001L7.84548 14.4164C7.35734 14.8864 7.14039 15.4107 7.12231 16.0254Z" fill="white"/>
</g>
<defs>
<clipPath id="clip0_170_8958">
<rect width="32" height="32" fill="white" transform="translate(0.31543 0.0253906)"/>
</clipPath>
</defs>
</svg>
