<svg width="32" height="33" viewBox="0 0 32 33" fill="none" xmlns="http://www.w3.org/2000/svg">
<g clip-path="url(#clip0_294_6287)">
<path d="M6.80688 16.0254C6.80688 16.6401 7.04191 17.1644 7.53005 17.6344L21.6317 31.4288C22.0114 31.8265 22.5176 32.0254 23.0962 32.0254C24.2713 32.0254 25.1933 31.1214 25.1933 29.9282C25.1933 29.3497 24.9583 28.8254 24.5606 28.4277L11.851 16.0254L24.5606 3.62313C24.9583 3.20731 25.1933 2.68302 25.1933 2.10449C25.1933 0.929345 24.2713 0.0253906 23.0962 0.0253906C22.5176 0.0253906 22.0114 0.224261 21.6317 0.622001L7.53005 14.4164C7.04191 14.8864 6.82496 15.4107 6.80688 16.0254Z" fill="#242424"/>
</g>
<defs>
<clipPath id="clip0_294_6287">
<rect width="32" height="32" fill="white" transform="translate(0 0.0253906)"/>
</clipPath>
</defs>
</svg>
