<svg width="221" height="213" viewBox="0 0 221 213" fill="none" xmlns="http://www.w3.org/2000/svg">
<g clip-path="url(#clip0_1034_12620)">
<g clip-path="url(#clip1_1034_12620)">
<path d="M188.841 154.706C187.098 160.823 180.706 164.388 174.58 162.642C168.454 160.896 164.899 154.507 166.645 148.381C168.39 142.255 174.779 138.7 180.905 140.446C187.031 142.191 190.587 148.58 188.841 154.706ZM171.944 149.891C171.031 153.094 172.895 156.443 176.097 157.355C179.3 158.268 182.648 156.404 183.561 153.202C184.474 149.999 182.61 146.65 179.408 145.738C176.205 144.825 172.856 146.689 171.944 149.891Z" fill="#007FAC"/>
<path d="M190.408 176.5C189.593 176.33 188.973 176.06 188.515 175.296C186.54 171.717 191.313 167.192 193.84 165.333C194.184 164.963 200.501 162.064 201.098 161.755C201.25 165.49 202.177 171.505 201.28 175.127C201.055 176.54 199.455 180.804 199.02 182.219C195.896 180.924 192.228 179.525 190.408 176.5V176.5ZM190.633 176.003C192.743 176.188 194.806 176.391 196.846 176.64L196.291 177.127C196.239 174.502 196.196 171.88 196.197 169.249L196.952 169.735C195.636 170.379 193.652 171.612 192.336 172.36C191.051 173.075 189.471 174.497 190.608 175.944L190.655 175.999C190.668 176.023 190.707 176.034 190.635 175.993L190.633 176.003Z" fill="#007FAC"/>
<path d="M224.29 154.992C222.606 151.341 221.419 147.332 219.72 143.989C219.292 143.264 218.803 142.282 218.296 142.2C218.317 142.383 218.523 142.462 218.667 142.576C218.881 142.7 219.085 142.716 219.302 142.757C219.39 142.74 219.369 142.776 219.364 142.795C219.214 142.919 218.97 143.047 218.674 143.244C213.735 146.713 206.866 148.156 201.408 144.905C196.787 142.257 194.529 136.498 196.182 131.718L196.73 131.656C197.01 133.628 197.683 135.536 198.79 137.161C202.208 142.607 209.321 142.679 214.352 139.475C217.392 137.492 220.499 135.965 222.805 139.877C225.148 144.537 225.021 149.981 224.842 155.025L224.29 154.992V154.992Z" fill="#007FAC"/>
<path d="M143.746 123.867C152.313 124.489 158.159 133.86 157.503 142.074C157.055 148.789 154.095 156.149 148.311 160.064C147.314 160.643 145.251 161.386 144.57 159.944L144.968 159.569C146.301 160.146 147.431 157.495 147.955 156.531C150 151.873 151.535 146.706 152.079 141.694C152.785 134.876 149.35 127.918 143.495 124.347L143.749 123.857L143.746 123.867Z" fill="#007FAC"/>
<path d="M192.11 190.16C193.803 188.23 196.396 187.596 198.906 188.093C204.874 189.336 208.572 196.099 206.425 201.809C206.036 202.956 204.528 205.802 203.022 204.811L203.125 204.269C203.217 204.274 203.388 203.928 203.365 203.536C203.045 200.679 201.844 197.706 200.503 195.224C198.809 192.339 195.536 190.543 192.194 190.704L192.11 190.16V190.16Z" fill="#007FAC"/>
<path d="M157.565 180.315C159.259 178.386 161.851 177.752 164.361 178.249C170.329 179.492 174.027 186.255 171.88 191.965C171.491 193.112 169.983 195.958 168.477 194.967L168.58 194.424C168.672 194.43 168.843 194.084 168.82 193.692C168.5 190.835 167.299 187.862 165.958 185.38C164.264 182.495 160.991 180.699 157.649 180.859L157.565 180.315V180.315Z" fill="#007FAC"/>
</g>
<g clip-path="url(#clip2_1034_12620)">
<path d="M176.031 59.2682C172.444 64.52 165.253 65.8813 159.993 62.2883C154.733 58.6954 153.38 51.5102 156.973 46.2502C160.566 40.9902 167.751 39.6371 173.011 43.2301C178.271 46.823 179.624 54.0082 176.031 59.2682ZM161.523 49.358C159.645 52.1078 160.354 55.8741 163.103 57.7523C165.853 59.6306 169.62 58.9214 171.498 56.1716C173.376 53.4219 172.667 49.6556 169.917 47.7773C167.167 45.8991 163.401 46.6083 161.523 49.358Z" fill="#007FAC"/>
<path d="M170.628 80.4397C169.909 80.0211 169.407 79.5689 169.214 78.6986C168.471 74.6795 174.43 71.8953 177.414 70.9304C177.858 70.6885 184.768 69.9343 185.432 69.8308C184.395 73.4221 183.374 79.4212 181.377 82.5746C180.717 83.843 177.85 87.3832 176.991 88.5884C174.436 86.3712 171.399 83.885 170.628 80.4397V80.4397ZM170.999 80.039C172.942 80.8819 174.835 81.727 176.692 82.6077L176.012 82.8941C176.792 80.3872 177.58 77.8859 178.413 75.3906L178.976 76.0904C177.523 76.2848 175.251 76.8278 173.767 77.1217C172.321 77.3939 170.373 78.2429 170.994 79.9751L171.021 80.042C171.026 80.0698 171.059 80.0923 171.005 80.0307L170.999 80.039Z" fill="#007FAC"/>
<path d="M209.572 70.7464C209.128 66.7501 209.27 62.5718 208.715 58.8627C208.539 58.0397 208.385 56.9534 207.93 56.7153C207.891 56.8952 208.062 57.0358 208.163 57.1895C208.327 57.3744 208.515 57.4542 208.708 57.5617C208.796 57.5738 208.766 57.6012 208.754 57.6177C208.573 57.6878 208.301 57.7319 207.959 57.8251C202.175 59.5545 195.203 58.752 191.052 53.9428C187.505 49.9698 187.184 43.792 190.263 39.7799L190.803 39.8941C190.445 41.8539 190.481 43.8763 191.017 45.7684C192.539 52.0152 199.264 54.3321 205.049 52.8829C208.56 51.9628 211.991 51.4966 212.942 55.9369C213.691 61.0988 211.85 66.2233 210.085 70.9519L209.572 70.7464V70.7464Z" fill="#007FAC"/>
<path d="M142.999 15.7541C150.931 19.0527 153.514 29.7909 150.294 37.3767C147.747 43.6054 142.611 49.6524 135.886 51.5376C134.758 51.7718 132.566 51.8248 132.376 50.2416L132.872 50.0114C133.954 50.9806 135.864 48.822 136.666 48.0738C140.078 44.3012 143.168 39.8843 145.27 35.3009C148.094 29.0559 147.035 21.3692 142.609 16.1298L143.005 15.7459L142.999 15.7541Z" fill="#007FAC"/>
<path d="M167.924 93.9366C170.141 92.6413 172.801 92.8599 175.025 94.1248C180.294 97.1908 181.665 104.776 177.823 109.514C177.09 110.479 174.761 112.703 173.645 111.287L173.914 110.804C173.999 110.838 174.271 110.564 174.373 110.185C174.973 107.374 174.773 104.174 174.286 101.395C173.591 98.1221 171.053 95.3836 167.832 94.4792L167.924 93.9366V93.9366Z" fill="#007FAC"/>
<path d="M138.263 73.6761C140.48 72.3808 143.141 72.5994 145.365 73.8643C150.633 76.9303 152.004 84.5151 148.162 89.2537C147.43 90.219 145.1 92.4422 143.984 91.0261L144.253 90.5437C144.339 90.578 144.611 90.3037 144.712 89.9248C145.312 87.1136 145.113 83.9133 144.625 81.1341C143.93 77.8616 141.392 75.1232 138.171 74.2187L138.263 73.6761V73.6761Z" fill="#007FAC"/>
</g>
<g clip-path="url(#clip3_1034_12620)">
<path d="M88.4938 124.393C92.9656 119.87 100.284 119.822 104.814 124.301C109.343 128.779 109.384 136.091 104.906 140.62C100.427 145.15 93.1155 145.191 88.5859 140.713C84.0563 136.234 84.0151 128.922 88.4938 124.393ZM100.988 136.746C103.329 134.378 103.307 130.546 100.939 128.205C98.5715 125.863 94.739 125.885 92.3977 128.253C90.0564 130.621 90.078 134.453 92.4459 136.795C94.8138 139.136 98.6463 139.114 100.988 136.746Z" fill="#007FAC"/>
<path d="M97.6096 104.535C98.242 105.076 98.6551 105.611 98.6884 106.502C98.6973 110.589 92.3356 112.258 89.2266 112.672C88.7467 112.83 81.8141 112.332 81.1423 112.314C82.8063 108.967 84.8883 103.249 87.4185 100.505C88.296 99.3761 91.7512 96.4079 92.8131 95.3766C94.9282 98.0163 97.4695 101.007 97.6096 104.535V104.535ZM97.173 104.863C95.4127 103.685 93.7019 102.513 92.0334 101.314L92.7538 101.154C91.5365 103.48 90.3122 105.799 89.0453 108.105L88.6166 107.315C90.0807 107.385 92.4135 107.258 93.9266 107.236C95.3973 107.227 97.4665 106.742 97.1663 104.926L97.1518 104.856C97.1516 104.827 97.1232 104.799 97.166 104.87L97.173 104.863Z" fill="#007FAC"/>
<path d="M57.5589 107.08C57.2774 111.091 56.3883 115.176 56.268 118.925C56.294 119.766 56.2507 120.862 56.6555 121.178C56.7253 121.008 56.5829 120.839 56.5112 120.67C56.3827 120.458 56.2124 120.346 56.0419 120.206C55.9569 120.178 55.9921 120.157 56.0062 120.142C56.1969 120.106 56.4727 120.111 56.8261 120.081C62.8258 119.418 69.5408 121.459 72.7608 126.935C75.5371 131.48 74.7444 137.616 70.9946 141.01L70.4843 140.8C71.188 138.937 71.5161 136.941 71.3283 134.983C70.9527 128.565 64.7528 125.078 58.801 125.465C55.1822 125.74 51.7235 125.583 51.5847 121.044C51.7745 115.832 54.5057 111.121 57.0905 106.786L57.5589 107.08V107.08Z" fill="#007FAC"/>
<path d="M113.179 173.129C105.968 168.461 105.354 157.433 109.883 150.549C113.507 144.878 119.645 139.851 126.599 139.204C127.752 139.176 129.918 139.518 129.82 141.109L129.291 141.247C128.4 140.099 126.134 141.88 125.211 142.472C121.176 145.57 117.344 149.361 114.454 153.493C110.554 159.129 110.216 166.881 113.63 172.83L113.172 173.137L113.179 173.129Z" fill="#007FAC"/>
<path d="M102.693 91.7428C100.279 92.6191 97.7015 91.9265 95.7405 90.2829C91.1078 86.3209 91.1209 78.6133 95.7513 74.6414C96.6447 73.8232 99.3359 72.0544 100.179 73.6477L99.8282 74.074C99.7501 74.0249 99.4331 74.2459 99.2654 74.6004C98.1703 77.2583 97.7922 80.4424 97.7728 83.2639C97.8695 86.6081 99.8742 89.7576 102.881 91.2256L102.693 91.7428V91.7428Z" fill="#007FAC"/>
<path d="M128.235 116.998C125.821 117.875 123.243 117.182 121.283 115.539C116.65 111.577 116.663 103.869 121.293 99.897C122.187 99.0788 124.878 97.31 125.721 98.9033L125.37 99.3296C125.292 99.2805 124.975 99.5015 124.807 99.856C123.712 102.514 123.334 105.698 123.315 108.52C123.411 111.864 125.416 115.013 128.423 116.481L128.235 116.998V116.998Z" fill="#007FAC"/>
</g>
<g clip-path="url(#clip4_1034_12620)">
<path d="M51.1924 45.7026C57.5358 46.1609 62.3298 51.6908 61.8707 58.0442C61.4116 64.3976 55.8825 69.1816 49.5291 68.7226C43.1756 68.2635 38.3917 62.7344 38.8507 56.3809C39.3098 50.0275 44.8389 45.2435 51.1924 45.7026ZM49.9262 63.2269C53.2475 63.4669 56.1457 60.9592 56.3857 57.6379C56.6257 54.3165 54.1181 51.4183 50.7967 51.1783C47.4754 50.9383 44.5771 53.446 44.3371 56.7673C44.0972 60.0886 46.6048 62.9869 49.9262 63.2269Z" fill="#007FAC"/>
<path d="M72.2085 39.7216C72.2085 40.5537 72.0704 41.2155 71.4152 41.8199C68.3152 44.4834 62.9113 40.7342 60.5761 38.6405C60.1439 38.3786 56.0161 32.7866 55.5926 32.2647C59.2177 31.3536 64.9164 29.2188 68.6461 29.3579C70.0746 29.2907 74.5762 29.9869 76.0502 30.1235C75.419 33.4466 74.7981 37.322 72.2085 39.7216V39.7216ZM71.6756 39.6029C71.4266 37.4994 71.2045 35.4381 71.0317 33.3903L71.6212 33.8339C69.0623 34.4211 66.504 34.9982 63.9287 35.534L64.25 34.695C65.1489 35.8528 66.7613 37.5434 67.7621 38.6784C68.7244 39.7907 70.4383 41.0475 71.6229 39.6392L71.6671 39.5822C71.6885 39.5637 71.6914 39.5238 71.6657 39.6021L71.6756 39.6029Z" fill="#007FAC"/>
<path d="M44.2398 10.941C41.009 13.3344 37.3267 15.3142 34.4001 17.6594C33.7776 18.226 32.9164 18.9057 32.9395 19.4187C33.1141 19.3611 33.1499 19.1431 33.232 18.9786C33.3091 18.7436 33.2836 18.5412 33.2796 18.3203C33.2454 18.2377 33.2846 18.2505 33.3045 18.252C33.4562 18.3732 33.6313 18.5864 33.884 18.8352C38.288 22.9633 41.1019 29.3929 39.0337 35.3994C37.3844 40.4637 32.207 43.8494 27.1903 43.2062L27.0176 42.6824C28.8912 42.0057 30.6213 40.9576 31.9868 39.5424C36.6201 35.0847 35.2394 28.107 31.0763 23.8359C28.515 21.2646 26.3862 18.5341 29.7452 15.4782C33.8296 12.2341 39.1846 11.2475 44.1591 10.3938L44.2398 10.941V10.941Z" fill="#007FAC"/>
<path d="M30.203 96.1411C29.0636 87.6269 37.0446 79.9922 45.2203 78.9587C51.8848 78.0266 59.6945 79.423 64.707 84.2869C65.4772 85.1446 66.6256 87.0122 65.353 87.973L64.9044 87.6599C65.1977 86.2373 62.3711 85.6721 61.3212 85.3557C56.344 84.3042 50.9724 83.856 45.954 84.3456C39.1358 85.046 33.0253 89.8281 30.7237 96.289L30.193 96.1404L30.203 96.1411Z" fill="#007FAC"/>
<path d="M85.2331 35.2686C82.9984 34.0043 81.849 31.5952 81.8233 29.0367C81.8226 22.9408 87.6882 17.9405 93.7164 18.8774C94.9189 19.0244 98.0124 19.9197 97.3499 21.5963L96.7977 21.6065C96.7842 21.5153 96.4103 21.4181 96.0319 21.5211C93.3002 22.4166 90.6348 24.1991 88.4781 26.0184C85.9997 28.2657 84.9096 31.8364 85.7483 35.0753L85.2331 35.2686V35.2686Z" fill="#007FAC"/>
<path d="M82.6442 71.095C80.4095 69.8307 79.2601 67.4216 79.2344 64.8631C79.2337 58.7672 85.0994 53.7669 91.1275 54.7038C92.33 54.8508 95.4236 55.7461 94.761 57.4227L94.2088 57.4329C94.1954 57.3417 93.8214 57.2445 93.443 57.3475C90.7114 58.243 88.046 60.0255 85.8893 61.8448C83.4109 64.0921 82.3207 67.6628 83.1595 70.9017L82.6442 71.095V71.095Z" fill="#007FAC"/>
</g>
</g>
<defs>
<clipPath id="clip0_1034_12620">
<rect width="220.212" height="212.027" fill="white" transform="translate(0 0.701904)"/>
</clipPath>
<clipPath id="clip1_1034_12620">
<rect width="69.43" height="86.64" fill="white" transform="translate(126.742 183.136) rotate(-74.0941)"/>
</clipPath>
<clipPath id="clip2_1034_12620">
<rect width="69.43" height="86.64" fill="white" transform="translate(108.129 66.6077) rotate(-55.6643)"/>
</clipPath>
<clipPath id="clip3_1034_12620">
<rect width="69.43" height="86.64" fill="white" transform="translate(156.61 129.361) rotate(134.677)"/>
</clipPath>
<clipPath id="clip4_1034_12620">
<rect width="69.43" height="86.64" fill="white" transform="translate(91.6948 100.694) rotate(-175.867)"/>
</clipPath>
</defs>
</svg>
