<svg width="350" height="351" viewBox="0 0 350 351" fill="none" xmlns="http://www.w3.org/2000/svg">
<rect y="0.838867" width="350" height="350" rx="4.69746" fill="#FEE7EB"/>
<g clip-path="url(#clip0_948_12823)">
<path d="M175.079 183.578C183.782 183.578 190.837 176.523 190.837 167.82C190.837 159.118 183.782 152.062 175.079 152.062C166.376 152.062 159.321 159.118 159.321 167.82C159.321 176.523 166.376 183.578 175.079 183.578Z" fill="#F96C6D"/>
<path d="M217.121 130.427H200.213V125.195C200.213 120.846 196.683 117.316 192.334 117.316H157.666C153.317 117.316 149.787 120.846 149.787 125.195V130.427H132.879C128.514 130.427 125 133.957 125 138.306V192.482C125 196.831 128.514 200.361 132.879 200.361H217.121C221.47 200.361 225 196.831 225 192.482V138.306C225 133.957 221.47 130.427 217.121 130.427ZM175.079 193.033C161.165 193.033 149.866 181.751 149.866 167.821C149.866 153.891 161.165 142.608 175.079 142.608C188.993 142.608 200.292 153.891 200.292 167.821C200.292 181.751 189.009 193.033 175.079 193.033Z" fill="#F96C6D"/>
</g>
<path d="M58.0306 218.411C58.0306 218.601 57.9756 218.771 57.8656 218.921C57.7656 219.061 57.6456 219.171 57.5056 219.251C57.2556 219.081 56.9656 218.926 56.6356 218.786C56.3056 218.646 55.9006 218.576 55.4206 218.576C54.8606 218.576 54.3656 218.701 53.9356 218.951C53.5156 219.191 53.1856 219.556 52.9456 220.046C52.7156 220.526 52.6006 221.116 52.6006 221.816C52.6006 222.876 52.8656 223.681 53.3956 224.231C53.9256 224.771 54.6306 225.041 55.5106 225.041C55.9806 225.041 56.3856 224.976 56.7256 224.846C57.0656 224.716 57.3606 224.566 57.6106 224.396C57.7406 224.476 57.8506 224.596 57.9406 224.756C58.0406 224.906 58.0906 225.076 58.0906 225.266C58.0906 225.436 58.0456 225.591 57.9556 225.731C57.8756 225.871 57.7306 225.996 57.5206 226.106C57.3106 226.226 57.0206 226.336 56.6506 226.436C56.2906 226.536 55.8356 226.586 55.2856 226.586C54.4256 226.586 53.6406 226.416 52.9306 226.076C52.2306 225.726 51.6756 225.201 51.2656 224.501C50.8556 223.791 50.6506 222.896 50.6506 221.816C50.6506 220.766 50.8556 219.886 51.2656 219.176C51.6756 218.466 52.2256 217.931 52.9156 217.571C53.6056 217.201 54.3606 217.016 55.1806 217.016C55.7606 217.016 56.2606 217.081 56.6806 217.211C57.1106 217.341 57.4406 217.511 57.6706 217.721C57.9106 217.931 58.0306 218.161 58.0306 218.411ZM59.7418 222.401L61.5868 222.491V226.331C61.5068 226.361 61.3918 226.386 61.2418 226.406C61.0918 226.436 60.9268 226.451 60.7468 226.451C60.4068 226.451 60.1518 226.391 59.9818 226.271C59.8218 226.141 59.7418 225.916 59.7418 225.596V222.401ZM61.5868 223.436L59.7418 223.346V216.611C59.8118 216.591 59.9218 216.566 60.0718 216.536C60.2318 216.506 60.3968 216.491 60.5668 216.491C60.9268 216.491 61.1868 216.556 61.3468 216.686C61.5068 216.806 61.5868 217.026 61.5868 217.346V223.436ZM63.5165 217.151C63.5165 216.861 63.6165 216.616 63.8165 216.416C64.0265 216.216 64.2865 216.116 64.5965 216.116C64.9165 216.116 65.1715 216.216 65.3615 216.416C65.5615 216.616 65.6615 216.861 65.6615 217.151C65.6615 217.431 65.5615 217.676 65.3615 217.886C65.1715 218.086 64.9165 218.186 64.5965 218.186C64.2865 218.186 64.0265 218.086 63.8165 217.886C63.6165 217.676 63.5165 217.431 63.5165 217.151ZM63.6665 222.401H65.5265V226.331C65.4465 226.361 65.3315 226.386 65.1815 226.406C65.0315 226.436 64.8665 226.451 64.6865 226.451C64.3465 226.451 64.0915 226.391 63.9215 226.271C63.7515 226.141 63.6665 225.916 63.6665 225.596V222.401ZM65.5265 223.346H63.6665V219.326C63.7465 219.296 63.8615 219.271 64.0115 219.251C64.1715 219.221 64.3415 219.206 64.5215 219.206C64.8715 219.206 65.1265 219.271 65.2865 219.401C65.4465 219.521 65.5265 219.746 65.5265 220.076V223.346ZM74.0726 225.326L72.2276 225.311V220.826C72.0976 220.746 71.9326 220.676 71.7326 220.616C71.5426 220.556 71.3176 220.526 71.0576 220.526C70.6676 220.526 70.3176 220.606 70.0076 220.766C69.7076 220.926 69.4726 221.176 69.3026 221.516C69.1326 221.856 69.0476 222.301 69.0476 222.851C69.0476 223.631 69.2226 224.201 69.5726 224.561C69.9326 224.921 70.4126 225.101 71.0126 225.101C71.3126 225.101 71.5826 225.051 71.8226 224.951C72.0726 224.851 72.2726 224.731 72.4226 224.591V226.166C72.2326 226.276 71.9926 226.371 71.7026 226.451C71.4226 226.531 71.0976 226.571 70.7276 226.571C70.0476 226.571 69.4376 226.441 68.8976 226.181C68.3576 225.911 67.9326 225.501 67.6226 224.951C67.3126 224.391 67.1576 223.691 67.1576 222.851C67.1576 222.001 67.3226 221.296 67.6526 220.736C67.9826 220.166 68.4326 219.746 69.0026 219.476C69.5826 219.196 70.2526 219.056 71.0126 219.056C71.5226 219.056 71.9976 219.121 72.4376 219.251C72.8876 219.371 73.2426 219.516 73.5026 219.686C73.6726 219.796 73.8076 219.931 73.9076 220.091C74.0176 220.241 74.0726 220.426 74.0726 220.646V225.326ZM72.2276 225.056L74.0726 225.041V229.091C73.9926 229.121 73.8726 229.146 73.7126 229.166C73.5626 229.196 73.4026 229.211 73.2326 229.211C72.8826 229.211 72.6276 229.146 72.4676 229.016C72.3076 228.886 72.2276 228.661 72.2276 228.341V225.056ZM76.0137 223.646V222.461H77.8587V223.616C77.8587 224.146 77.9937 224.526 78.2637 224.756C78.5437 224.986 78.9287 225.101 79.4187 225.101C79.7387 225.101 80.0087 225.071 80.2287 225.011C80.4487 224.951 80.6137 224.886 80.7237 224.816V222.461H82.5687V224.966C82.5687 225.196 82.5287 225.391 82.4487 225.551C82.3787 225.701 82.2387 225.841 82.0287 225.971C81.7387 226.141 81.3687 226.281 80.9187 226.391C80.4787 226.511 79.9737 226.571 79.4037 226.571C78.7137 226.571 78.1137 226.471 77.6037 226.271C77.0937 226.071 76.6987 225.756 76.4187 225.326C76.1487 224.886 76.0137 224.326 76.0137 223.646ZM82.5687 223.181H80.7237V219.281C80.8037 219.261 80.9187 219.241 81.0687 219.221C81.2287 219.191 81.3937 219.176 81.5637 219.176C81.9137 219.176 82.1687 219.236 82.3287 219.356C82.4887 219.476 82.5687 219.701 82.5687 220.031V223.181ZM77.8587 223.181H76.0137V219.281C76.0937 219.261 76.2087 219.241 76.3587 219.221C76.5087 219.191 76.6737 219.176 76.8537 219.176C77.2037 219.176 77.4587 219.236 77.6187 219.356C77.7787 219.476 77.8587 219.701 77.8587 220.031V223.181ZM85.3052 223.751L85.2302 222.461L89.2502 221.861C89.2202 221.481 89.0752 221.151 88.8152 220.871C88.5552 220.591 88.1752 220.451 87.6752 220.451C87.1652 220.451 86.7402 220.631 86.4002 220.991C86.0602 221.341 85.8852 221.846 85.8752 222.506L85.9202 223.286C86.0102 223.926 86.2552 224.396 86.6552 224.696C87.0652 224.996 87.5802 225.146 88.2002 225.146C88.6202 225.146 89.0102 225.086 89.3702 224.966C89.7302 224.836 90.0152 224.696 90.2252 224.546C90.3652 224.636 90.4752 224.751 90.5552 224.891C90.6452 225.021 90.6902 225.166 90.6902 225.326C90.6902 225.586 90.5752 225.811 90.3452 226.001C90.1152 226.181 89.8052 226.321 89.4152 226.421C89.0252 226.521 88.5802 226.571 88.0802 226.571C87.3102 226.571 86.6252 226.431 86.0252 226.151C85.4352 225.861 84.9702 225.431 84.6302 224.861C84.3002 224.291 84.1352 223.581 84.1352 222.731C84.1352 222.121 84.2302 221.586 84.4202 221.126C84.6102 220.666 84.8652 220.286 85.1852 219.986C85.5152 219.676 85.8952 219.446 86.3252 219.296C86.7552 219.136 87.2052 219.056 87.6752 219.056C88.3352 219.056 88.9102 219.191 89.4002 219.461C89.9002 219.721 90.2902 220.086 90.5702 220.556C90.8602 221.026 91.0052 221.566 91.0052 222.176C91.0052 222.456 90.9302 222.666 90.7802 222.806C90.6402 222.936 90.4402 223.016 90.1802 223.046L85.3052 223.751ZM98.2861 225.176C98.5861 225.176 98.8561 225.146 99.0961 225.086C99.3361 225.026 99.5111 224.961 99.6211 224.891V223.181L98.1361 223.331C97.7261 223.361 97.4111 223.451 97.1911 223.601C96.9811 223.741 96.8761 223.951 96.8761 224.231C96.8761 224.521 96.9911 224.751 97.2211 224.921C97.4511 225.091 97.8061 225.176 98.2861 225.176ZM98.2111 219.056C99.1911 219.056 99.9711 219.266 100.551 219.686C101.131 220.096 101.421 220.746 101.421 221.636V225.086C101.421 225.326 101.361 225.516 101.241 225.656C101.131 225.796 100.986 225.921 100.806 226.031C100.526 226.191 100.171 226.321 99.7411 226.421C99.3111 226.531 98.8261 226.586 98.2861 226.586C97.2861 226.586 96.5011 226.396 95.9311 226.016C95.3611 225.626 95.0761 225.051 95.0761 224.291C95.0761 223.621 95.2861 223.111 95.7061 222.761C96.1361 222.401 96.7561 222.181 97.5661 222.101L99.6061 221.891V221.621C99.6061 221.221 99.4661 220.931 99.1861 220.751C98.9161 220.571 98.5311 220.481 98.0311 220.481C97.6411 220.481 97.2611 220.531 96.8911 220.631C96.5211 220.731 96.1911 220.851 95.9011 220.991C95.8011 220.911 95.7111 220.801 95.6311 220.661C95.5511 220.521 95.5111 220.376 95.5111 220.226C95.5111 219.866 95.7111 219.601 96.1111 219.431C96.3911 219.301 96.7161 219.206 97.0861 219.146C97.4661 219.086 97.8411 219.056 98.2111 219.056ZM109.873 225.326L108.028 225.311V220.826C107.898 220.746 107.733 220.676 107.533 220.616C107.343 220.556 107.118 220.526 106.858 220.526C106.468 220.526 106.118 220.606 105.808 220.766C105.508 220.926 105.273 221.176 105.103 221.516C104.933 221.856 104.848 222.301 104.848 222.851C104.848 223.631 105.023 224.201 105.373 224.561C105.733 224.921 106.213 225.101 106.813 225.101C107.113 225.101 107.383 225.051 107.623 224.951C107.873 224.851 108.073 224.731 108.223 224.591V226.166C108.033 226.276 107.793 226.371 107.503 226.451C107.223 226.531 106.898 226.571 106.528 226.571C105.848 226.571 105.238 226.441 104.698 226.181C104.158 225.911 103.733 225.501 103.423 224.951C103.113 224.391 102.958 223.691 102.958 222.851C102.958 222.001 103.123 221.296 103.453 220.736C103.783 220.166 104.233 219.746 104.803 219.476C105.383 219.196 106.053 219.056 106.813 219.056C107.323 219.056 107.798 219.121 108.238 219.251C108.688 219.371 109.043 219.516 109.303 219.686C109.473 219.796 109.608 219.931 109.708 220.091C109.818 220.241 109.873 220.426 109.873 220.646V225.326ZM108.028 225.056L109.873 225.041V229.091C109.793 229.121 109.673 229.146 109.513 229.166C109.363 229.196 109.203 229.211 109.033 229.211C108.683 229.211 108.428 229.146 108.268 229.016C108.108 228.886 108.028 228.661 108.028 228.341V225.056ZM111.814 223.646V222.461H113.659V223.616C113.659 224.146 113.794 224.526 114.064 224.756C114.344 224.986 114.729 225.101 115.219 225.101C115.539 225.101 115.809 225.071 116.029 225.011C116.249 224.951 116.414 224.886 116.524 224.816V222.461H118.369V224.966C118.369 225.196 118.329 225.391 118.249 225.551C118.179 225.701 118.039 225.841 117.829 225.971C117.539 226.141 117.169 226.281 116.719 226.391C116.279 226.511 115.774 226.571 115.204 226.571C114.514 226.571 113.914 226.471 113.404 226.271C112.894 226.071 112.499 225.756 112.219 225.326C111.949 224.886 111.814 224.326 111.814 223.646ZM118.369 223.181H116.524V219.281C116.604 219.261 116.719 219.241 116.869 219.221C117.029 219.191 117.194 219.176 117.364 219.176C117.714 219.176 117.969 219.236 118.129 219.356C118.289 219.476 118.369 219.701 118.369 220.031V223.181ZM113.659 223.181H111.814V219.281C111.894 219.261 112.009 219.241 112.159 219.221C112.309 219.191 112.474 219.176 112.654 219.176C113.004 219.176 113.259 219.236 113.419 219.356C113.579 219.476 113.659 219.701 113.659 220.031V223.181ZM120.206 217.151C120.206 216.861 120.306 216.616 120.506 216.416C120.716 216.216 120.976 216.116 121.286 216.116C121.606 216.116 121.861 216.216 122.051 216.416C122.251 216.616 122.351 216.861 122.351 217.151C122.351 217.431 122.251 217.676 122.051 217.886C121.861 218.086 121.606 218.186 121.286 218.186C120.976 218.186 120.716 218.086 120.506 217.886C120.306 217.676 120.206 217.431 120.206 217.151ZM120.356 222.401H122.216V226.331C122.136 226.361 122.021 226.386 121.871 226.406C121.721 226.436 121.556 226.451 121.376 226.451C121.036 226.451 120.781 226.391 120.611 226.271C120.441 226.141 120.356 225.916 120.356 225.596V222.401ZM122.216 223.346H120.356V219.326C120.436 219.296 120.551 219.271 120.701 219.251C120.861 219.221 121.031 219.206 121.211 219.206C121.561 219.206 121.816 219.271 121.976 219.401C122.136 219.521 122.216 219.746 122.216 220.076V223.346ZM130.555 226.571C131.245 226.571 131.855 226.431 132.385 226.151C132.925 225.861 133.345 225.436 133.645 224.876C133.955 224.316 134.11 223.616 134.11 222.776C134.11 221.906 133.945 221.196 133.615 220.646C133.295 220.096 132.85 219.696 132.28 219.446C131.71 219.186 131.06 219.056 130.33 219.056C129.79 219.056 129.305 219.121 128.875 219.251C128.445 219.371 128.085 219.516 127.795 219.686C127.585 219.816 127.435 219.956 127.345 220.106C127.255 220.256 127.21 220.446 127.21 220.676V225.596H129.055V220.856C129.205 220.766 129.385 220.691 129.595 220.631C129.805 220.561 130.05 220.526 130.33 220.526C130.69 220.526 131.015 220.601 131.305 220.751C131.595 220.901 131.82 221.141 131.98 221.471C132.15 221.791 132.235 222.226 132.235 222.776C132.235 223.566 132.06 224.151 131.71 224.531C131.36 224.901 130.885 225.086 130.285 225.086C129.925 225.086 129.61 225.026 129.34 224.906C129.08 224.776 128.855 224.631 128.665 224.471V226.061C128.875 226.191 129.14 226.306 129.46 226.406C129.79 226.516 130.155 226.571 130.555 226.571ZM129.055 225.086L127.21 225.071V228.296C127.21 228.616 127.29 228.841 127.45 228.971C127.62 229.101 127.875 229.166 128.215 229.166C128.395 229.166 128.56 229.151 128.71 229.121C128.86 229.101 128.975 229.076 129.055 229.046V225.086ZM138.511 225.176C138.811 225.176 139.081 225.146 139.321 225.086C139.561 225.026 139.736 224.961 139.846 224.891V223.181L138.361 223.331C137.951 223.361 137.636 223.451 137.416 223.601C137.206 223.741 137.101 223.951 137.101 224.231C137.101 224.521 137.216 224.751 137.446 224.921C137.676 225.091 138.031 225.176 138.511 225.176ZM138.436 219.056C139.416 219.056 140.196 219.266 140.776 219.686C141.356 220.096 141.646 220.746 141.646 221.636V225.086C141.646 225.326 141.586 225.516 141.466 225.656C141.356 225.796 141.211 225.921 141.031 226.031C140.751 226.191 140.396 226.321 139.966 226.421C139.536 226.531 139.051 226.586 138.511 226.586C137.511 226.586 136.726 226.396 136.156 226.016C135.586 225.626 135.301 225.051 135.301 224.291C135.301 223.621 135.511 223.111 135.931 222.761C136.361 222.401 136.981 222.181 137.791 222.101L139.831 221.891V221.621C139.831 221.221 139.691 220.931 139.411 220.751C139.141 220.571 138.756 220.481 138.256 220.481C137.866 220.481 137.486 220.531 137.116 220.631C136.746 220.731 136.416 220.851 136.126 220.991C136.026 220.911 135.936 220.801 135.856 220.661C135.776 220.521 135.736 220.376 135.736 220.226C135.736 219.866 135.936 219.601 136.336 219.431C136.616 219.301 136.941 219.206 137.311 219.146C137.691 219.086 138.066 219.056 138.436 219.056ZM145.388 220.961V223.016H143.543V220.811C143.543 220.561 143.603 220.351 143.723 220.181C143.843 220.001 144.013 219.836 144.233 219.686C144.533 219.506 144.913 219.356 145.373 219.236C145.833 219.116 146.328 219.056 146.858 219.056C147.798 219.056 148.268 219.346 148.268 219.926C148.268 220.066 148.248 220.196 148.208 220.316C148.168 220.426 148.118 220.526 148.058 220.616C147.958 220.596 147.833 220.581 147.683 220.571C147.533 220.551 147.373 220.541 147.203 220.541C146.843 220.541 146.503 220.581 146.183 220.661C145.873 220.731 145.608 220.831 145.388 220.961ZM143.543 222.401L145.388 222.491V226.331C145.308 226.361 145.193 226.386 145.043 226.406C144.893 226.436 144.728 226.451 144.548 226.451C144.208 226.451 143.953 226.391 143.783 226.271C143.623 226.141 143.543 225.916 143.543 225.596V222.401ZM152.134 225.176C152.434 225.176 152.704 225.146 152.944 225.086C153.184 225.026 153.359 224.961 153.469 224.891V223.181L151.984 223.331C151.574 223.361 151.259 223.451 151.039 223.601C150.829 223.741 150.724 223.951 150.724 224.231C150.724 224.521 150.839 224.751 151.069 224.921C151.299 225.091 151.654 225.176 152.134 225.176ZM152.059 219.056C153.039 219.056 153.819 219.266 154.399 219.686C154.979 220.096 155.269 220.746 155.269 221.636V225.086C155.269 225.326 155.209 225.516 155.089 225.656C154.979 225.796 154.834 225.921 154.654 226.031C154.374 226.191 154.019 226.321 153.589 226.421C153.159 226.531 152.674 226.586 152.134 226.586C151.134 226.586 150.349 226.396 149.779 226.016C149.209 225.626 148.924 225.051 148.924 224.291C148.924 223.621 149.134 223.111 149.554 222.761C149.984 222.401 150.604 222.181 151.414 222.101L153.454 221.891V221.621C153.454 221.221 153.314 220.931 153.034 220.751C152.764 220.571 152.379 220.481 151.879 220.481C151.489 220.481 151.109 220.531 150.739 220.631C150.369 220.731 150.039 220.851 149.749 220.991C149.649 220.911 149.559 220.801 149.479 220.661C149.399 220.521 149.359 220.376 149.359 220.226C149.359 219.866 149.559 219.601 149.959 219.431C150.239 219.301 150.564 219.206 150.934 219.146C151.314 219.086 151.689 219.056 152.059 219.056ZM162.014 220.961V223.016H160.169V220.811C160.169 220.561 160.229 220.351 160.349 220.181C160.469 220.001 160.639 219.836 160.859 219.686C161.159 219.506 161.539 219.356 161.999 219.236C162.459 219.116 162.954 219.056 163.484 219.056C164.424 219.056 164.894 219.346 164.894 219.926C164.894 220.066 164.874 220.196 164.834 220.316C164.794 220.426 164.744 220.526 164.684 220.616C164.584 220.596 164.459 220.581 164.309 220.571C164.159 220.551 163.999 220.541 163.829 220.541C163.469 220.541 163.129 220.581 162.809 220.661C162.499 220.731 162.234 220.831 162.014 220.961ZM160.169 222.401L162.014 222.491V226.331C161.934 226.361 161.819 226.386 161.669 226.406C161.519 226.436 161.354 226.451 161.174 226.451C160.834 226.451 160.579 226.391 160.409 226.271C160.249 226.141 160.169 225.916 160.169 225.596V222.401ZM166.721 223.751L166.646 222.461L170.666 221.861C170.636 221.481 170.491 221.151 170.231 220.871C169.971 220.591 169.591 220.451 169.091 220.451C168.581 220.451 168.156 220.631 167.816 220.991C167.476 221.341 167.301 221.846 167.291 222.506L167.336 223.286C167.426 223.926 167.671 224.396 168.071 224.696C168.481 224.996 168.996 225.146 169.616 225.146C170.036 225.146 170.426 225.086 170.786 224.966C171.146 224.836 171.431 224.696 171.641 224.546C171.781 224.636 171.891 224.751 171.971 224.891C172.061 225.021 172.106 225.166 172.106 225.326C172.106 225.586 171.991 225.811 171.761 226.001C171.531 226.181 171.221 226.321 170.831 226.421C170.441 226.521 169.996 226.571 169.496 226.571C168.726 226.571 168.041 226.431 167.441 226.151C166.851 225.861 166.386 225.431 166.046 224.861C165.716 224.291 165.551 223.581 165.551 222.731C165.551 222.121 165.646 221.586 165.836 221.126C166.026 220.666 166.281 220.286 166.601 219.986C166.931 219.676 167.311 219.446 167.741 219.296C168.171 219.136 168.621 219.056 169.091 219.056C169.751 219.056 170.326 219.191 170.816 219.461C171.316 219.721 171.706 220.086 171.986 220.556C172.276 221.026 172.421 221.566 172.421 222.176C172.421 222.456 172.346 222.666 172.196 222.806C172.056 222.936 171.856 223.016 171.596 223.046L166.721 223.751ZM176.849 226.106C176.259 226.106 175.714 225.996 175.214 225.776C174.714 225.546 174.314 225.171 174.014 224.651C173.714 224.131 173.564 223.446 173.564 222.596C173.564 221.816 173.714 221.166 174.014 220.646C174.324 220.116 174.754 219.721 175.304 219.461C175.864 219.191 176.504 219.056 177.224 219.056C177.734 219.056 178.204 219.121 178.634 219.251C179.074 219.381 179.424 219.531 179.684 219.701C179.854 219.811 179.989 219.946 180.089 220.106C180.199 220.256 180.254 220.441 180.254 220.661V225.341H178.454V220.826C178.324 220.746 178.164 220.676 177.974 220.616C177.784 220.556 177.549 220.526 177.269 220.526C176.719 220.526 176.269 220.696 175.919 221.036C175.579 221.376 175.409 221.896 175.409 222.596C175.409 223.366 175.574 223.906 175.904 224.216C176.244 224.526 176.659 224.681 177.149 224.681C177.529 224.681 177.834 224.616 178.064 224.486C178.304 224.356 178.504 224.216 178.664 224.066L178.724 225.566C178.544 225.706 178.294 225.831 177.974 225.941C177.664 226.051 177.289 226.106 176.849 226.106ZM178.484 226.406V224.936H180.254V226.466C180.254 227.146 180.099 227.696 179.789 228.116C179.479 228.546 179.054 228.861 178.514 229.061C177.984 229.261 177.389 229.361 176.729 229.361C176.209 229.361 175.754 229.311 175.364 229.211C174.984 229.111 174.704 229.006 174.524 228.896C174.194 228.696 174.029 228.421 174.029 228.071C174.029 227.891 174.069 227.731 174.149 227.591C174.229 227.451 174.324 227.346 174.434 227.276C174.684 227.436 174.994 227.576 175.364 227.696C175.744 227.816 176.144 227.876 176.564 227.876C177.164 227.876 177.634 227.756 177.974 227.516C178.314 227.286 178.484 226.916 178.484 226.406ZM182.066 217.151C182.066 216.861 182.166 216.616 182.366 216.416C182.576 216.216 182.836 216.116 183.146 216.116C183.466 216.116 183.721 216.216 183.911 216.416C184.111 216.616 184.211 216.861 184.211 217.151C184.211 217.431 184.111 217.676 183.911 217.886C183.721 218.086 183.466 218.186 183.146 218.186C182.836 218.186 182.576 218.086 182.366 217.886C182.166 217.676 182.066 217.431 182.066 217.151ZM182.216 222.401H184.076V226.331C183.996 226.361 183.881 226.386 183.731 226.406C183.581 226.436 183.416 226.451 183.236 226.451C182.896 226.451 182.641 226.391 182.471 226.271C182.301 226.141 182.216 225.916 182.216 225.596V222.401ZM184.076 223.346H182.216V219.326C182.296 219.296 182.411 219.271 182.561 219.251C182.721 219.221 182.891 219.206 183.071 219.206C183.421 219.206 183.676 219.271 183.836 219.401C183.996 219.521 184.076 219.746 184.076 220.076V223.346ZM191.557 224.351C191.557 225.051 191.297 225.601 190.777 226.001C190.257 226.391 189.502 226.586 188.512 226.586C187.712 226.586 187.057 226.466 186.547 226.226C186.037 225.986 185.782 225.666 185.782 225.266C185.782 225.096 185.822 224.941 185.902 224.801C185.982 224.651 186.087 224.536 186.217 224.456C186.497 224.636 186.822 224.796 187.192 224.936C187.562 225.076 187.982 225.146 188.452 225.146C189.302 225.146 189.727 224.886 189.727 224.366C189.727 224.146 189.652 223.971 189.502 223.841C189.352 223.701 189.122 223.601 188.812 223.541L187.957 223.316C187.227 223.156 186.682 222.906 186.322 222.566C185.972 222.226 185.797 221.771 185.797 221.201C185.797 220.571 186.057 220.056 186.577 219.656C187.097 219.246 187.817 219.041 188.737 219.041C189.217 219.041 189.647 219.091 190.027 219.191C190.407 219.281 190.702 219.416 190.912 219.596C191.132 219.776 191.242 219.991 191.242 220.241C191.242 220.411 191.202 220.566 191.122 220.706C191.052 220.836 190.957 220.936 190.837 221.006C190.717 220.936 190.552 220.861 190.342 220.781C190.142 220.691 189.912 220.621 189.652 220.571C189.392 220.511 189.132 220.481 188.872 220.481C188.482 220.481 188.172 220.546 187.942 220.676C187.722 220.796 187.612 220.971 187.612 221.201C187.612 221.371 187.677 221.516 187.807 221.636C187.937 221.756 188.157 221.851 188.467 221.921L189.232 222.101C190.042 222.291 190.632 222.571 191.002 222.941C191.372 223.301 191.557 223.771 191.557 224.351ZM193.114 222.401H194.959V224.171C194.959 224.501 195.054 224.736 195.244 224.876C195.444 225.016 195.724 225.086 196.084 225.086C196.244 225.086 196.414 225.066 196.594 225.026C196.784 224.986 196.944 224.936 197.074 224.876C197.144 224.956 197.209 225.051 197.269 225.161C197.329 225.271 197.359 225.406 197.359 225.566C197.359 225.856 197.219 226.096 196.939 226.286C196.669 226.476 196.244 226.571 195.664 226.571C194.874 226.571 194.249 226.396 193.789 226.046C193.339 225.686 193.114 225.106 193.114 224.306V222.401ZM194.239 220.871V219.416H197.179C197.219 219.486 197.259 219.586 197.299 219.716C197.349 219.846 197.374 219.981 197.374 220.121C197.374 220.371 197.314 220.561 197.194 220.691C197.074 220.811 196.919 220.871 196.729 220.871H194.239ZM194.959 222.806H193.114V217.406C193.194 217.376 193.309 217.346 193.459 217.316C193.619 217.286 193.784 217.271 193.954 217.271C194.304 217.271 194.559 217.336 194.719 217.466C194.879 217.586 194.959 217.806 194.959 218.126V222.806ZM200.701 220.961V223.016H198.856V220.811C198.856 220.561 198.916 220.351 199.036 220.181C199.156 220.001 199.326 219.836 199.546 219.686C199.846 219.506 200.226 219.356 200.686 219.236C201.146 219.116 201.641 219.056 202.171 219.056C203.111 219.056 203.581 219.346 203.581 219.926C203.581 220.066 203.561 220.196 203.521 220.316C203.481 220.426 203.431 220.526 203.371 220.616C203.271 220.596 203.146 220.581 202.996 220.571C202.846 220.551 202.686 220.541 202.516 220.541C202.156 220.541 201.816 220.581 201.496 220.661C201.186 220.731 200.921 220.831 200.701 220.961ZM198.856 222.401L200.701 222.491V226.331C200.621 226.361 200.506 226.386 200.356 226.406C200.206 226.436 200.041 226.451 199.861 226.451C199.521 226.451 199.266 226.391 199.096 226.271C198.936 226.141 198.856 225.916 198.856 225.596V222.401ZM207.446 225.176C207.746 225.176 208.016 225.146 208.256 225.086C208.496 225.026 208.671 224.961 208.781 224.891V223.181L207.296 223.331C206.886 223.361 206.571 223.451 206.351 223.601C206.141 223.741 206.036 223.951 206.036 224.231C206.036 224.521 206.151 224.751 206.381 224.921C206.611 225.091 206.966 225.176 207.446 225.176ZM207.371 219.056C208.351 219.056 209.131 219.266 209.711 219.686C210.291 220.096 210.581 220.746 210.581 221.636V225.086C210.581 225.326 210.521 225.516 210.401 225.656C210.291 225.796 210.146 225.921 209.966 226.031C209.686 226.191 209.331 226.321 208.901 226.421C208.471 226.531 207.986 226.586 207.446 226.586C206.446 226.586 205.661 226.396 205.091 226.016C204.521 225.626 204.236 225.051 204.236 224.291C204.236 223.621 204.446 223.111 204.866 222.761C205.296 222.401 205.916 222.181 206.726 222.101L208.766 221.891V221.621C208.766 221.221 208.626 220.931 208.346 220.751C208.076 220.571 207.691 220.481 207.191 220.481C206.801 220.481 206.421 220.531 206.051 220.631C205.681 220.731 205.351 220.851 205.061 220.991C204.961 220.911 204.871 220.801 204.791 220.661C204.711 220.521 204.671 220.376 204.671 220.226C204.671 219.866 204.871 219.601 205.271 219.431C205.551 219.301 205.876 219.206 206.246 219.146C206.626 219.086 207.001 219.056 207.371 219.056ZM214.324 220.961V223.016H212.479V220.811C212.479 220.561 212.539 220.351 212.659 220.181C212.779 220.001 212.949 219.836 213.169 219.686C213.469 219.506 213.849 219.356 214.309 219.236C214.769 219.116 215.264 219.056 215.794 219.056C216.734 219.056 217.204 219.346 217.204 219.926C217.204 220.066 217.184 220.196 217.144 220.316C217.104 220.426 217.054 220.526 216.994 220.616C216.894 220.596 216.769 220.581 216.619 220.571C216.469 220.551 216.309 220.541 216.139 220.541C215.779 220.541 215.439 220.581 215.119 220.661C214.809 220.731 214.544 220.831 214.324 220.961ZM212.479 222.401L214.324 222.491V226.331C214.244 226.361 214.129 226.386 213.979 226.406C213.829 226.436 213.664 226.451 213.484 226.451C213.144 226.451 212.889 226.391 212.719 226.271C212.559 226.141 212.479 225.916 212.479 225.596V222.401ZM228.389 222.806C228.389 223.576 228.239 224.246 227.939 224.816C227.639 225.376 227.214 225.811 226.664 226.121C226.124 226.421 225.484 226.571 224.744 226.571C224.004 226.571 223.359 226.421 222.809 226.121C222.259 225.811 221.829 225.376 221.519 224.816C221.219 224.256 221.069 223.586 221.069 222.806C221.069 222.036 221.224 221.371 221.534 220.811C221.844 220.251 222.274 219.821 222.824 219.521C223.374 219.211 224.014 219.056 224.744 219.056C225.474 219.056 226.109 219.211 226.649 219.521C227.199 219.821 227.624 220.256 227.924 220.826C228.234 221.386 228.389 222.046 228.389 222.806ZM224.744 220.526C224.194 220.526 223.759 220.726 223.439 221.126C223.129 221.526 222.974 222.086 222.974 222.806C222.974 223.546 223.129 224.116 223.439 224.516C223.749 224.906 224.184 225.101 224.744 225.101C225.294 225.101 225.724 224.901 226.034 224.501C226.344 224.101 226.499 223.536 226.499 222.806C226.499 222.096 226.344 221.541 226.034 221.141C225.724 220.731 225.294 220.526 224.744 220.526ZM234.817 220.961V223.016H232.972V220.811C232.972 220.561 233.032 220.351 233.152 220.181C233.272 220.001 233.442 219.836 233.662 219.686C233.962 219.506 234.342 219.356 234.802 219.236C235.262 219.116 235.757 219.056 236.287 219.056C237.227 219.056 237.697 219.346 237.697 219.926C237.697 220.066 237.677 220.196 237.637 220.316C237.597 220.426 237.547 220.526 237.487 220.616C237.387 220.596 237.262 220.581 237.112 220.571C236.962 220.551 236.802 220.541 236.632 220.541C236.272 220.541 235.932 220.581 235.612 220.661C235.302 220.731 235.037 220.831 234.817 220.961ZM232.972 222.401L234.817 222.491V226.331C234.737 226.361 234.622 226.386 234.472 226.406C234.322 226.436 234.157 226.451 233.977 226.451C233.637 226.451 233.382 226.391 233.212 226.271C233.052 226.141 232.972 225.916 232.972 225.596V222.401ZM239.524 223.751L239.449 222.461L243.469 221.861C243.439 221.481 243.294 221.151 243.034 220.871C242.774 220.591 242.394 220.451 241.894 220.451C241.384 220.451 240.959 220.631 240.619 220.991C240.279 221.341 240.104 221.846 240.094 222.506L240.139 223.286C240.229 223.926 240.474 224.396 240.874 224.696C241.284 224.996 241.799 225.146 242.419 225.146C242.839 225.146 243.229 225.086 243.589 224.966C243.949 224.836 244.234 224.696 244.444 224.546C244.584 224.636 244.694 224.751 244.774 224.891C244.864 225.021 244.909 225.166 244.909 225.326C244.909 225.586 244.794 225.811 244.564 226.001C244.334 226.181 244.024 226.321 243.634 226.421C243.244 226.521 242.799 226.571 242.299 226.571C241.529 226.571 240.844 226.431 240.244 226.151C239.654 225.861 239.189 225.431 238.849 224.861C238.519 224.291 238.354 223.581 238.354 222.731C238.354 222.121 238.449 221.586 238.639 221.126C238.829 220.666 239.084 220.286 239.404 219.986C239.734 219.676 240.114 219.446 240.544 219.296C240.974 219.136 241.424 219.056 241.894 219.056C242.554 219.056 243.129 219.191 243.619 219.461C244.119 219.721 244.509 220.086 244.789 220.556C245.079 221.026 245.224 221.566 245.224 222.176C245.224 222.456 245.149 222.666 244.999 222.806C244.859 222.936 244.659 223.016 244.399 223.046L239.524 223.751ZM252.246 224.351C252.246 225.051 251.986 225.601 251.466 226.001C250.946 226.391 250.191 226.586 249.201 226.586C248.401 226.586 247.746 226.466 247.236 226.226C246.726 225.986 246.471 225.666 246.471 225.266C246.471 225.096 246.511 224.941 246.591 224.801C246.671 224.651 246.776 224.536 246.906 224.456C247.186 224.636 247.511 224.796 247.881 224.936C248.251 225.076 248.671 225.146 249.141 225.146C249.991 225.146 250.416 224.886 250.416 224.366C250.416 224.146 250.341 223.971 250.191 223.841C250.041 223.701 249.811 223.601 249.501 223.541L248.646 223.316C247.916 223.156 247.371 222.906 247.011 222.566C246.661 222.226 246.486 221.771 246.486 221.201C246.486 220.571 246.746 220.056 247.266 219.656C247.786 219.246 248.506 219.041 249.426 219.041C249.906 219.041 250.336 219.091 250.716 219.191C251.096 219.281 251.391 219.416 251.601 219.596C251.821 219.776 251.931 219.991 251.931 220.241C251.931 220.411 251.891 220.566 251.811 220.706C251.741 220.836 251.646 220.936 251.526 221.006C251.406 220.936 251.241 220.861 251.031 220.781C250.831 220.691 250.601 220.621 250.341 220.571C250.081 220.511 249.821 220.481 249.561 220.481C249.171 220.481 248.861 220.546 248.631 220.676C248.411 220.796 248.301 220.971 248.301 221.201C248.301 221.371 248.366 221.516 248.496 221.636C248.626 221.756 248.846 221.851 249.156 221.921L249.921 222.101C250.731 222.291 251.321 222.571 251.691 222.941C252.061 223.301 252.246 223.771 252.246 224.351ZM253.787 223.646V222.461H255.632V223.616C255.632 224.146 255.767 224.526 256.037 224.756C256.317 224.986 256.702 225.101 257.192 225.101C257.512 225.101 257.782 225.071 258.002 225.011C258.222 224.951 258.387 224.886 258.497 224.816V222.461H260.342V224.966C260.342 225.196 260.302 225.391 260.222 225.551C260.152 225.701 260.012 225.841 259.802 225.971C259.512 226.141 259.142 226.281 258.692 226.391C258.252 226.511 257.747 226.571 257.177 226.571C256.487 226.571 255.887 226.471 255.377 226.271C254.867 226.071 254.472 225.756 254.192 225.326C253.922 224.886 253.787 224.326 253.787 223.646ZM260.342 223.181H258.497V219.281C258.577 219.261 258.692 219.241 258.842 219.221C259.002 219.191 259.167 219.176 259.337 219.176C259.687 219.176 259.942 219.236 260.102 219.356C260.262 219.476 260.342 219.701 260.342 220.031V223.181ZM255.632 223.181H253.787V219.281C253.867 219.261 253.982 219.241 254.132 219.221C254.282 219.191 254.447 219.176 254.627 219.176C254.977 219.176 255.232 219.236 255.392 219.356C255.552 219.476 255.632 219.701 255.632 220.031V223.181ZM262.374 222.401L264.219 222.491V226.331C264.139 226.361 264.024 226.386 263.874 226.406C263.724 226.436 263.559 226.451 263.379 226.451C263.039 226.451 262.784 226.391 262.614 226.271C262.454 226.141 262.374 225.916 262.374 225.596V222.401ZM264.219 223.436L262.374 223.346V216.611C262.444 216.591 262.554 216.566 262.704 216.536C262.864 216.506 263.029 216.491 263.199 216.491C263.559 216.491 263.819 216.556 263.979 216.686C264.139 216.806 264.219 217.026 264.219 217.346V223.436ZM266.239 222.401H268.084V224.171C268.084 224.501 268.179 224.736 268.369 224.876C268.569 225.016 268.849 225.086 269.209 225.086C269.369 225.086 269.539 225.066 269.719 225.026C269.909 224.986 270.069 224.936 270.199 224.876C270.269 224.956 270.334 225.051 270.394 225.161C270.454 225.271 270.484 225.406 270.484 225.566C270.484 225.856 270.344 226.096 270.064 226.286C269.794 226.476 269.369 226.571 268.789 226.571C267.999 226.571 267.374 226.396 266.914 226.046C266.464 225.686 266.239 225.106 266.239 224.306V222.401ZM267.364 220.871V219.416H270.304C270.344 219.486 270.384 219.586 270.424 219.716C270.474 219.846 270.499 219.981 270.499 220.121C270.499 220.371 270.439 220.561 270.319 220.691C270.199 220.811 270.044 220.871 269.854 220.871H267.364ZM268.084 222.806H266.239V217.406C266.319 217.376 266.434 217.346 266.584 217.316C266.744 217.286 266.909 217.271 267.079 217.271C267.429 217.271 267.684 217.336 267.844 217.466C268.004 217.586 268.084 217.806 268.084 218.126V222.806ZM274.814 225.176C275.114 225.176 275.384 225.146 275.624 225.086C275.864 225.026 276.039 224.961 276.149 224.891V223.181L274.664 223.331C274.254 223.361 273.939 223.451 273.719 223.601C273.509 223.741 273.404 223.951 273.404 224.231C273.404 224.521 273.519 224.751 273.749 224.921C273.979 225.091 274.334 225.176 274.814 225.176ZM274.739 219.056C275.719 219.056 276.499 219.266 277.079 219.686C277.659 220.096 277.949 220.746 277.949 221.636V225.086C277.949 225.326 277.889 225.516 277.769 225.656C277.659 225.796 277.514 225.921 277.334 226.031C277.054 226.191 276.699 226.321 276.269 226.421C275.839 226.531 275.354 226.586 274.814 226.586C273.814 226.586 273.029 226.396 272.459 226.016C271.889 225.626 271.604 225.051 271.604 224.291C271.604 223.621 271.814 223.111 272.234 222.761C272.664 222.401 273.284 222.181 274.094 222.101L276.134 221.891V221.621C276.134 221.221 275.994 220.931 275.714 220.751C275.444 220.571 275.059 220.481 274.559 220.481C274.169 220.481 273.789 220.531 273.419 220.631C273.049 220.731 272.719 220.851 272.429 220.991C272.329 220.911 272.239 220.801 272.159 220.661C272.079 220.521 272.039 220.376 272.039 220.226C272.039 219.866 272.239 219.601 272.639 219.431C272.919 219.301 273.244 219.206 273.614 219.146C273.994 219.086 274.369 219.056 274.739 219.056ZM284.542 224.801V220.091H286.387V224.996C286.387 225.216 286.337 225.401 286.237 225.551C286.147 225.691 285.997 225.826 285.787 225.956C285.547 226.116 285.217 226.256 284.797 226.376C284.387 226.506 283.917 226.571 283.387 226.571C282.597 226.571 281.907 226.441 281.317 226.181C280.737 225.911 280.287 225.501 279.967 224.951C279.647 224.391 279.487 223.686 279.487 222.836C279.487 221.966 279.647 221.251 279.967 220.691C280.297 220.131 280.737 219.721 281.287 219.461C281.837 219.191 282.447 219.056 283.117 219.056C283.487 219.056 283.822 219.101 284.122 219.191C284.432 219.281 284.682 219.386 284.872 219.506V221.081C284.712 220.931 284.502 220.801 284.242 220.691C283.982 220.581 283.682 220.526 283.342 220.526C282.972 220.526 282.637 220.606 282.337 220.766C282.037 220.916 281.802 221.166 281.632 221.516C281.462 221.856 281.377 222.301 281.377 222.851C281.377 223.631 281.557 224.201 281.917 224.561C282.277 224.921 282.762 225.101 283.372 225.101C283.642 225.101 283.872 225.071 284.062 225.011C284.252 224.951 284.412 224.881 284.542 224.801ZM286.387 220.466L284.542 220.481V216.611C284.612 216.591 284.722 216.566 284.872 216.536C285.032 216.506 285.197 216.491 285.367 216.491C285.727 216.491 285.987 216.556 286.147 216.686C286.307 216.806 286.387 217.026 286.387 217.346V220.466ZM295.303 222.806C295.303 223.576 295.153 224.246 294.853 224.816C294.553 225.376 294.128 225.811 293.578 226.121C293.038 226.421 292.398 226.571 291.658 226.571C290.918 226.571 290.273 226.421 289.723 226.121C289.173 225.811 288.743 225.376 288.433 224.816C288.133 224.256 287.983 223.586 287.983 222.806C287.983 222.036 288.138 221.371 288.448 220.811C288.758 220.251 289.188 219.821 289.738 219.521C290.288 219.211 290.928 219.056 291.658 219.056C292.388 219.056 293.023 219.211 293.563 219.521C294.113 219.821 294.538 220.256 294.838 220.826C295.148 221.386 295.303 222.046 295.303 222.806ZM291.658 220.526C291.108 220.526 290.673 220.726 290.353 221.126C290.043 221.526 289.888 222.086 289.888 222.806C289.888 223.546 290.043 224.116 290.353 224.516C290.663 224.906 291.098 225.101 291.658 225.101C292.208 225.101 292.638 224.901 292.948 224.501C293.258 224.101 293.413 223.536 293.413 222.806C293.413 222.096 293.258 221.541 292.948 221.141C292.638 220.731 292.208 220.526 291.658 220.526ZM298.908 217.811C298.908 218.071 298.903 218.426 298.893 218.876C298.883 219.316 298.868 219.796 298.848 220.316C298.828 220.836 298.798 221.351 298.758 221.861C298.728 222.371 298.693 222.831 298.653 223.241C298.583 223.291 298.473 223.336 298.323 223.376C298.183 223.406 298.053 223.421 297.933 223.421C297.733 223.421 297.558 223.386 297.408 223.316C297.268 223.236 297.183 223.101 297.153 222.911C297.123 222.651 297.093 222.286 297.063 221.816C297.033 221.346 297.008 220.831 296.988 220.271C296.968 219.701 296.953 219.146 296.943 218.606C296.933 218.066 296.928 217.591 296.928 217.181C297.248 217.001 297.598 216.911 297.978 216.911C298.278 216.911 298.508 216.986 298.668 217.136C298.828 217.276 298.908 217.501 298.908 217.811ZM296.823 225.461C296.823 225.141 296.923 224.876 297.123 224.666C297.323 224.456 297.598 224.351 297.948 224.351C298.298 224.351 298.573 224.456 298.773 224.666C298.973 224.876 299.073 225.141 299.073 225.461C299.073 225.781 298.973 226.046 298.773 226.256C298.573 226.466 298.298 226.571 297.948 226.571C297.598 226.571 297.323 226.466 297.123 226.256C296.923 226.046 296.823 225.781 296.823 225.461Z" fill="#66191B"/>
<defs>
<clipPath id="clip0_948_12823">
<rect width="100" height="83.0444" fill="white" transform="translate(125 117.316)"/>
</clipPath>
</defs>
</svg>
