<svg width="33" height="32" viewBox="0 0 33 32" fill="none" xmlns="http://www.w3.org/2000/svg">
<g clip-path="url(#clip0_170_8953)">
<path d="M31.5845 12.019C29.813 5.0095 23.5464 0.0571426 16.3464 0C15.5464 0 14.9179 0.209523 14.4798 0.666664C14.0226 1.10476 13.8131 1.73333 13.8131 2.53332V8.41901C13.8131 8.59044 13.8131 8.78092 13.8322 8.95234C13.9083 9.58091 14.2702 10.1523 14.8036 10.5142C15.3369 10.8761 16.0036 11.0095 16.6131 10.8571C17.6988 10.5904 18.3845 9.67615 18.3845 8.4952C18.3845 7.46664 18.3845 6.43807 18.3845 5.4095V4.85712C24.3654 6.05712 28.3654 11.9238 27.3369 17.9618C26.8035 21.0856 25.0512 23.7904 22.4035 25.5428C19.775 27.2951 16.6131 27.8666 13.5274 27.1618C9.81312 26.3047 6.8798 23.7713 5.47028 20.2094C4.07981 16.6475 4.49886 12.7999 6.65123 9.63806C7.6417 8.17139 8.91789 6.99045 10.556 6.05712C11.1084 5.73331 11.4893 5.25712 11.6417 4.66665C11.7941 4.07617 11.7179 3.46665 11.3941 2.91427C10.7465 1.82856 9.37503 1.46666 8.25122 2.09523C7.88932 2.30475 7.50837 2.53332 7.16551 2.76189C3.45124 5.29522 1.14649 8.83806 0.346495 13.2761C0.270305 13.6761 0.23221 14.0761 0.175067 14.4761L0.098877 15.1047V16.9904L0.175067 17.5428C0.23221 17.9618 0.270305 18.3618 0.346495 18.7809C1.37506 24.0761 4.32743 27.9808 9.12741 30.3999C10.8798 31.2761 12.8226 31.8094 14.956 31.9618L15.2036 31.9999H17.0893L17.6798 31.9237C18.1178 31.8665 18.575 31.8094 19.0131 31.7332C23.4131 30.9142 27.1654 28.3808 29.5845 24.6285C32.0035 20.8571 32.7083 16.3809 31.6035 12.038L31.5845 12.019Z" fill="#F96163"/>
<path d="M9.92756 11.1997C9.69899 11.4282 9.37519 11.9044 9.73709 12.7616C10.518 14.6092 11.4514 16.3616 12.518 17.9997C13.0704 18.8377 13.6228 19.5615 14.1942 20.1901C14.8037 20.8568 15.6799 21.2187 16.5752 21.2187C17.0323 21.2187 17.5085 21.1234 17.9656 20.933C19.1847 20.4187 19.9466 19.1996 19.9466 17.752C19.9275 16.8187 19.5275 15.9806 18.8418 15.4282C17.8323 14.6092 16.9752 13.9806 16.1371 13.4473C14.6894 12.514 13.0895 11.6949 11.3752 10.9711C10.5942 10.6473 10.118 10.9711 9.90852 11.1997H9.92756Z" fill="#F96163"/>
</g>
<defs>
<clipPath id="clip0_170_8953">
<rect width="32" height="32" fill="white" transform="translate(0.105469)"/>
</clipPath>
</defs>
</svg>
