<?xml version="1.0" encoding="UTF-8"?><svg id="Camada_1" xmlns="http://www.w3.org/2000/svg" viewBox="0 0 230 230"><defs><style>.cls-1{fill:#f5db9f;}.cls-2{fill:#f5f1dd;}.cls-3{fill:#eedc9a;}.cls-4{fill:#fff9c1;}.cls-5{fill:#fffcf2;}.cls-6{fill:#fff9e2;}.cls-7{fill:#e2eded;}.cls-8{fill:#7dc4e3;}.cls-9{fill:#2487b3;}.cls-10{fill:#1f7399;}.cls-11{fill:#85d1f2;}</style></defs><g><path class="cls-11" d="M184.49,146.17v.12s0,.06-.01,.09c-.03,.45-.07,.89-.13,1.32-2.66,14.43-42.88,25.89-92.09,25.89S2.81,162.13,.15,147.7c-.06-.43-.1-.88-.13-1.32-.01-.03-.01-.06-.01-.09v-.12C0,131.04,41.3,118.76,92.25,118.76s92.24,12.27,92.24,27.4Z"/><path class="cls-8" d="M9.19,165.03v.04s0,.02,.01,.03c.03,.14,.07,.28,.12,.41,2.47,4.5,39.8,8.08,85.48,8.08s83.02-3.57,85.49-8.08c.06-.13,.1-.27,.12-.41,.01,0,.01-.02,.01-.03v-.04c0-4.72-38.33-8.55-85.63-8.55s-85.62,3.83-85.62,8.55Z"/><path class="cls-4" d="M30.5,171.59v.09s0,.04,.01,.06c.02,.32,.05,.65,.1,.96,1.93,10.46,31.08,18.77,66.76,18.77s64.84-8.3,66.77-18.77c.04-.31,.08-.64,.1-.96,.01-.02,.01-.04,.01-.06v-.09c37.13-19.32-2.73-42.15-73.36-21.6-45.66,13.29-98.07,1.14-60.39,21.6Z"/><ellipse class="cls-3" cx="94.97" cy="164.65" rx="2.4" ry="1.39"/><ellipse class="cls-3" cx="71.66" cy="159.83" rx="2.4" ry="1.39"/><ellipse class="cls-3" cx="78.99" cy="160.64" rx="2.4" ry="1.39"/><ellipse class="cls-3" cx="71.66" cy="164.65" rx="2.4" ry="1.39"/><ellipse class="cls-3" cx="135.36" cy="154.49" rx="2.4" ry="1.39"/><ellipse class="cls-3" cx="156.97" cy="160.64" rx="2.4" ry="1.39"/><ellipse class="cls-3" cx="162.07" cy="157.87" rx="2.4" ry="1.39"/><ellipse class="cls-3" cx="43.78" cy="163.99" rx="2.4" ry="1.39"/><ellipse class="cls-3" cx="51.36" cy="166.76" rx="2.4" ry="1.39"/><ellipse class="cls-3" cx="50.07" cy="161.21" rx="2.4" ry="1.39"/><ellipse class="cls-1" cx="129.18" cy="149.75" rx="2.4" ry="1.39"/><ellipse class="cls-3" cx="125.01" cy="154.49" rx="2.4" ry="1.39"/><ellipse class="cls-3" cx="103.95" cy="165.37" rx="2.4" ry="1.39"/><ellipse class="cls-3" cx="90.89" cy="168.14" rx="2.4" ry="1.39"/><path class="cls-9" d="M184.34,147.7c-3.93,38.42-15.57,54.9-27.77,69.71-6.56,7.96-16.32,12.59-26.64,12.59H54.57c-10.31,0-20.07-4.62-26.63-12.58C15.72,202.6,4.08,186.12,.15,147.7c2.66,14.43,42.88,25.89,92.1,25.89s89.43-11.46,92.09-25.89Z"/><path class="cls-10" d="M71.64,230h-17.08c-10.31,0-20.07-4.61-26.63-12.57C15.72,202.61,4.09,186.12,.14,147.7c1.06,5.74,8.08,11.02,19.25,15.29,5.13,27.85,15.16,41.74,25.62,54.43,6.56,7.96,16.32,12.57,26.63,12.57Z"/></g><g><g><path class="cls-7" d="M123.24,69.52L179.1,1.89c1.83-2.21,5.11-2.54,7.34-.7l41.67,34.42c2.22,1.83,2.53,5.12,.7,7.34l-55.85,67.63c-6.44,6.59-14.9,11.38-25.22,14.53,0,0-5.64,1.7-13.81,10.92-1.6,1.81-4.34,2.04-6.2,.51l-21.43-17.7c-1.86-1.54-2.15-4.27-.68-6.18,7.51-9.77,8.12-15.62,8.12-15.62,1.15-10.73,4.25-19.95,9.51-27.51Z"/><path class="cls-2" d="M128.55,73.54L181.78,9.09c.85-1.02,2.36-1.17,3.39-.32l35.75,29.52c1.02,.85,1.17,2.36,.32,3.39l-53.22,64.44c-5.51,5.56-12.98,9.81-22.22,12.64-1.16,.35-6.38,2.23-13.65,9.48-1.03,1.03-2.67,1.12-3.79,.19l-14.2-11.73c-1.12-.93-1.34-2.55-.53-3.76,5.74-8.52,6.6-13.99,6.74-15.22,1.02-9.6,3.79-17.74,8.2-24.19Z"/><path class="cls-6" d="M171.28,35.55c.96-8.93,10.49-26.46,10.49-26.46,.85-1.03,2.37-1.17,3.39-.33l35.74,29.52c1.03,.85,1.17,2.37,.32,3.4l-53.22,64.44c-5.51,5.56-12.98,9.81-22.22,12.64-1.18,.35-6.56,2.3-14.04,9.87-.45,.46-1.24,.08-1.15-.56,.84-6.09,4.08-24.77,13.74-38.66,10.59-15.23,23.67-23.47,26.94-53.86Z"/></g><circle class="cls-5" cx="181.42" cy="39.32" r="3.66"/><circle class="cls-5" cx="207.22" cy="40.77" r="2.67"/><circle class="cls-5" cx="168.9" cy="88.08" r="5.18"/></g></svg>