<svg width="32" height="32" viewBox="0 0 32 32" fill="none" xmlns="http://www.w3.org/2000/svg">
<path fill-rule="evenodd" clip-rule="evenodd" d="M16 29C23.1797 29 29 23.1797 29 16C29 8.8203 23.1797 3 16 3C8.8203 3 3 8.8203 3 16C3 23.1797 8.8203 29 16 29ZM16 32C24.8366 32 32 24.8366 32 16C32 7.16344 24.8366 0 16 0C7.16344 0 0 7.16344 0 16C0 24.8366 7.16344 32 16 32Z" fill="#8A510F"/>
<path d="M18.2482 19.1584H14.9702V12.2724L12.6382 13.1084C12.4182 12.9764 12.2055 12.7931 12.0002 12.5584C11.8095 12.3237 11.7142 12.0011 11.7142 11.5904C11.7142 10.8131 12.1835 10.2704 13.1222 9.96241L15.7402 8.99441H16.4662C17.0088 8.99441 17.4415 9.15575 17.7642 9.47841C18.0868 9.80108 18.2482 10.2337 18.2482 10.7764V19.1584ZM14.9702 16.7164H18.2482V22.5024C18.1015 22.5464 17.8962 22.5904 17.6322 22.6344C17.3682 22.6784 17.0822 22.7004 16.7742 22.7004C16.1582 22.7004 15.7035 22.5904 15.4102 22.3704C15.1168 22.1504 14.9702 21.7471 14.9702 21.1604V16.7164Z" fill="#8A510F"/>
</svg>
