<?xml version="1.0" encoding="UTF-8"?><svg id="Camada_1" xmlns="http://www.w3.org/2000/svg" viewBox="0 0 160 160"><defs><style>.cls-1{opacity:.1;}.cls-2{fill:#f86163;}.cls-3{fill:#f99d9e;}.cls-4{fill:#6999db;}.cls-5{fill:#f1a948;}.cls-6{fill:#ffc170;}.cls-7{fill:#f19824;}.cls-8{fill:#fde6ea;}.cls-9{fill:#66191b;}.cls-10{fill:#983d40;}.cls-11{fill:#ba3f7b;}.cls-12{fill:#94345c;}.cls-13{fill:#cb5252;}.cls-14{fill:#de8740;}.cls-15{fill:#e08304;}.cls-16{fill:#9c3d65;}.cls-17{fill:#4d1719;}.cls-18{opacity:.15;}.cls-18,.cls-19,.cls-20{fill:#fff;}.cls-19{opacity:.2;}.cls-21{opacity:.6;}.cls-21,.cls-22,.cls-23,.cls-24{fill:#cbdde6;}.cls-22{opacity:.7;}.cls-23,.cls-20{opacity:.3;}.cls-24{opacity:.4;}</style></defs><path class="cls-2" d="M147.45,67.46c0,8.38-12.51,14.22-15.53,21.51-3.13,7.56,1.47,20.5-4.23,26.19-5.69,5.69-18.64,1.09-26.19,4.23-7.29,3.02-13.12,15.53-21.51,15.53s-14.22-12.51-21.51-15.53c-7.56-3.13-20.5,1.47-26.19-4.23-5.69-5.69-1.09-18.64-4.23-26.19-3.02-7.29-15.53-13.12-15.53-21.51s12.51-14.22,15.53-21.51-1.47-20.5,4.23-26.19c5.69-5.69,18.64-1.09,26.19-4.23,7.29-3.02,13.12-15.53,21.51-15.53s14.22,12.51,21.51,15.53c7.56,3.13,20.5-1.47,26.19,4.23,5.69,5.69,1.09,18.64,4.23,26.19,3.02,7.29,15.53,13.12,15.53,21.51Z"/><path class="cls-3" d="M131.93,45.96c-3.13-7.55,1.47-20.51-4.23-26.2-5.69-5.69-18.65-1.1-26.2-4.23C94.2,12.51,88.37,0,80,0s-14.23,12.51-21.52,15.52c-7.55,3.13-20.48-1.47-26.17,4.23-5.69,5.69-1.1,18.65-4.23,26.2-3.04,7.3-15.55,13.13-15.55,21.5s12.51,14.23,15.55,21.52c3.13,7.55-1.47,20.48,4.23,26.17,5.69,5.69,18.62,1.1,26.17,4.23,7.3,3.04,13.13,15.55,21.52,15.55s14.2-12.51,21.5-15.55c7.55-3.13,20.51,1.47,26.2-4.23,5.69-5.69,1.1-18.62,4.23-26.17,3.01-7.3,15.52-13.13,15.52-21.52s-12.51-14.2-15.52-21.5Z"/><path class="cls-2" d="M80,132.11c-3.66,0-7.27-3.79-10.77-7.46-2.98-3.13-6.06-6.37-9.67-7.87-3.06-1.27-6.67-1.44-9.81-1.44-1,0-2.01,.02-3.02,.04-.97,.02-1.95,.04-2.91,.04-3.78,0-7.55-.28-9.53-2.25-2.4-2.4-2.31-7.28-2.22-12.44,.08-4.44,.17-9.04-1.4-12.82-1.51-3.62-4.75-6.7-7.87-9.68-3.67-3.49-7.46-7.11-7.46-10.77s3.79-7.25,7.45-10.73c3.13-2.98,6.37-6.06,7.88-9.68,1.57-3.79,1.48-8.39,1.4-12.83-.09-4.94-.19-10.05,2.22-12.46,1.98-1.98,5.75-2.25,9.53-2.25,.96,0,1.94,.02,2.91,.04,1.01,.02,2.02,.04,3.02,.04,3.13,0,6.74-.17,9.8-1.44,3.62-1.49,6.7-4.73,9.69-7.86,3.49-3.66,7.1-7.45,10.75-7.45s7.24,3.78,10.72,7.43c2.99,3.14,6.07,6.38,9.7,7.87,3.05,1.27,6.67,1.44,9.8,1.44,1,0,2.01-.02,3.02-.04,.98-.02,1.95-.04,2.92-.04,3.78,0,7.56,.27,9.54,2.25,2.4,2.4,2.31,7.52,2.22,12.46-.08,4.45-.17,9.05,1.4,12.83,1.5,3.62,4.74,6.71,7.87,9.7,3.66,3.48,7.44,7.08,7.44,10.72s-3.79,7.27-7.45,10.76c-3.13,2.99-6.37,6.07-7.87,9.69-1.57,3.78-1.48,8.37-1.4,12.81,.1,5.16,.19,10.04-2.22,12.45-1.98,1.98-5.76,2.25-9.54,2.25h0c-.96,0-1.94-.02-2.91-.04-1.01-.02-2.02-.04-3.02-.04-3.14,0-6.75,.17-9.81,1.44-3.62,1.51-6.7,4.75-9.68,7.88-3.49,3.66-7.09,7.45-10.73,7.45Z"/><path class="cls-3" d="M79.99,123.29c-1.32-.99-3.33-3.1-4.62-4.46-3.43-3.6-7.3-7.67-12.56-9.86-4.44-1.84-9.09-2.09-13.06-2.09-.92,0-1.85,.02-2.78,.03h-.37c-.95,.02-1.87,.04-2.77,.04-1.54,0-2.55-.06-3.21-.13-.17-1.58-.12-4.12-.09-5.95,.1-5.06,.2-10.8-2.04-16.21-2.2-5.27-6.26-9.14-9.84-12.55-1.38-1.31-3.49-3.32-4.49-4.65,.99-1.32,3.1-3.32,4.46-4.62,3.59-3.41,7.66-7.29,9.86-12.55,2.25-5.43,2.15-11.18,2.05-16.24-.03-1.73-.08-4.34,.1-5.97,.67-.07,1.68-.13,3.2-.13,.79,0,1.59,.01,2.39,.03h.38c1.05,.03,2.11,.05,3.16,.05,3.96,0,8.61-.25,13.03-2.08,5.26-2.17,9.15-6.25,12.57-9.84,1.3-1.36,3.31-3.47,4.63-4.46,1.32,.99,3.31,3.08,4.6,4.43,3.43,3.61,7.31,7.68,12.6,9.87,4.41,1.83,9.06,2.08,13.03,2.08,1.05,0,2.12-.02,3.18-.04h.35c.8-.02,1.61-.03,2.4-.03,1.53,0,2.54,.06,3.21,.13,.18,1.63,.13,4.25,.1,5.97-.1,5.07-.2,10.81,2.04,16.22,2.18,5.27,6.25,9.15,9.84,12.57,1.37,1.3,3.47,3.3,4.46,4.62-.99,1.32-3.09,3.33-4.44,4.62-3.61,3.43-7.68,7.32-9.86,12.6-2.23,5.4-2.13,11.13-2.03,16.19,.03,1.83,.08,4.37-.09,5.95-.67,.08-1.68,.14-3.22,.14-.91,0-1.83-.02-2.74-.04h-.41c-.93-.02-1.86-.04-2.78-.04-3.97,0-8.62,.25-13.04,2.08-5.29,2.2-9.16,6.27-12.58,9.87-1.29,1.36-3.29,3.46-4.62,4.46Z"/><path class="cls-2" d="M79.45,114.95c-3.62-3.8-8.12-8.52-14.47-11.17-5.36-2.22-10.71-2.52-15.23-2.52-.82,0-3.24,.04-3.24,.04-.12,0-.24,0-.36,0,0-.1,0-.2,0-.3,.1-5.35,.23-11.98-2.47-18.49-2.66-6.38-7.37-10.87-11.16-14.48-.17-.16-.37-.35-.6-.57,.2-.19,.39-.37,.54-.51,3.82-3.63,8.54-8.12,11.2-14.49,2.71-6.54,2.58-13.18,2.48-18.52,0-.11,0-.22,0-.33h.31c1.11,.03,2.2,.05,3.29,.05,4.51,0,9.85-.3,15.19-2.51,6.36-2.62,10.86-7.35,14.48-11.14,.15-.16,.34-.36,.56-.59,.19,.2,.36,.38,.51,.53,3.64,3.82,8.15,8.56,14.54,11.2,5.32,2.21,10.66,2.5,15.18,2.5,1.09,0,2.2-.02,3.3-.04h.32c0,.08,0,.17,0,.25-.1,5.41-.23,12.06,2.47,18.56,2.63,6.36,7.35,10.86,11.14,14.49,.17,.16,.37,.35,.59,.56-.21,.2-.4,.38-.56,.53-3.8,3.62-8.54,8.13-11.18,14.52-2.69,6.49-2.56,13.12-2.46,18.45,0,.1,0,.21,0,.32h-.73c-.98-.03-1.94-.04-2.89-.04-4.52,0-9.86,.3-15.2,2.51-6.39,2.66-10.89,7.39-14.5,11.18-.16,.17-.34,.36-.54,.57-.2-.21-.39-.4-.54-.57Z"/><circle class="cls-13" cx="79.99" cy="67.46" r="34.69"/><circle class="cls-8" cx="79.99" cy="67.46" r="33.05"/><g><path class="cls-9" d="M69.78,129.25l-29.78,29.78c-1.98,1.98-5.37,.75-5.62-2.04l-1.74-19.4-19.4-1.74c-2.79-.25-4.02-3.64-2.04-5.62l18.9-18.9c.45,1.47,1.16,2.79,2.2,3.83,5.69,5.69,18.62,1.1,26.17,4.23,3.97,1.63,7.52,6.11,11.3,9.86Z"/><path class="cls-9" d="M69.78,129.25l-29.78,29.78c-1.98,1.98-5.37,.75-5.62-2.04l-1.74-19.4-19.4-1.74c-2.79-.25-4.02-3.64-2.04-5.62l18.9-18.9c.45,1.47,1.16,2.79,2.2,3.83,5.69,5.69,18.62,1.1,26.17,4.23,3.97,1.63,7.52,6.11,11.3,9.86Z"/><path class="cls-10" d="M43.74,155.27l-3.75,3.75c-1.97,2-5.35,.76-5.61-2.03l-1.75-19.41-19.41-1.72c-2.76-.25-4-3.63-2.03-5.63l3.75-3.72c-1.97,1.97-.76,5.35,2.03,5.61l19.41,1.75,1.72,19.38c.25,2.79,3.66,4.03,5.63,2.03Z"/><path class="cls-9" d="M146.75,135.85l-19.42,1.74-1.74,19.4c-.25,2.79-3.64,4.02-5.62,2.04l-29.78-29.78c3.78-3.75,7.33-8.23,11.3-9.86,7.55-3.13,20.51,1.46,26.2-4.23,1.04-1.04,1.75-2.34,2.2-3.8l18.89,18.87c1.98,1.98,.75,5.37-2.04,5.62Z"/><path class="cls-17" d="M130.69,112.14c-.2,3.44-.87,6.54-2.99,8.65-5.69,5.69-18.65,1.1-26.2,4.23-2.99,1.24-5.75,4.09-8.51,7.02l-2.79-2.79c3.78-3.75,7.33-8.23,11.3-9.86,7.55-3.13,20.51,1.47,26.2-4.23,1.04-1.04,1.75-2.34,2.2-3.8l.79,.79Z"/><path class="cls-17" d="M69.78,129.24l-2.79,2.79c-2.76-2.93-5.49-5.78-8.51-7.02-7.55-3.13-20.48,1.47-26.17-4.23-2.11-2.11-2.79-5.21-2.99-8.68l.79-.79c.45,1.47,1.16,2.79,2.2,3.83,5.69,5.69,18.62,1.1,26.17,4.23,3.97,1.63,7.52,6.11,11.3,9.86Z"/><path class="cls-10" d="M146.75,135.86l-19.41,1.72-1.75,19.41c-.25,2.79-3.63,4.03-5.61,2.03l-3.27-3.27c1.97,1.8,5.24,.56,5.49-2.17l1.72-19.38,19.44-1.75c2.79-.25,4-3.61,2.06-5.61l3.38,3.38c1.97,1.97,.73,5.38-2.06,5.63Z"/></g><g><g><g><path class="cls-24" d="M76.97,71.27c0,3.88-1.8,12.15-3.33,13.34-1.86,1.44-9.85,2.33-13.44-.18-1.94-1.36-3.1-10.93-2.93-13.95,.15-2.7,.21-5.03,.21-5.03,0,3.22,4.31,5.83,9.63,5.83s9.63-2.61,9.63-5.83c0,0,.21,2.41,.21,5.83Z"/><path class="cls-24" d="M76.39,65.44c0,3.09-4.15,5.6-9.26,5.6s-9.26-2.51-9.26-5.6,4.15-5.6,9.26-5.6,9.26,2.51,9.26,5.6Z"/><path class="cls-5" d="M76.39,73.47s0,0,0,0c-.01,.04-.03,.08-.04,.11-.87,2.2-4.55,3.98-9.23,3.98s-8.44-1.9-9.13-4.2c-.01-.04-.02-.07-.03-.11-.14-1.56-.1-3.45,0-5.48l18.27-.1c.43,1.19,.3,3.49,.17,5.8Z"/><path class="cls-15" d="M76.22,67.38c0,2.46-4.1,4.71-9.14,4.71s-9.13-2.24-9.13-4.71,4.09-4.46,9.13-4.46,9.13,2,9.13,4.46Z"/><path class="cls-7" d="M76.22,67.77c0,2.46-4.1,4.71-9.14,4.71s-9.13-2.24-9.13-4.71,4.09-4.46,9.13-4.46,9.13,2,9.13,4.46Z"/><path class="cls-20" d="M62.24,67.25c-.94-.29,1.03-1.7,2.2-1.7s0,.44-.87,.79c-1.23,.49-.47,1.17-1.33,.91Z"/><path class="cls-20" d="M73.17,66.73c.58,.78-.38,.19-1.62-.49s-1.99-1.21-.93-.92c1.47,.41,1.93,.58,2.55,1.41Z"/><path class="cls-19" d="M75.39,67.78c0,2.24,.44-1.49-3.92-2.91-8.89-2.89-12.51,3.96-12.7,2.91-.4-2.2,3.72-4.06,8.31-4.06s8.31,1.82,8.31,4.06Z"/><path class="cls-6" d="M76.39,73.47s0,0,0,0c-.01,.04-.03,.08-.04,.11-.87,2.2-4.55,3.98-9.23,3.98s-8.44-1.9-9.13-4.2c-.01-.04-.02-.07-.03-.11-.07-.79-.09-1.67-.09-2.6,0,.78,.03,1.52,.09,2.19,0,.04,.02,.07,.03,.11,.7,2.3,4.31,4.2,9.13,4.2s8.36-1.77,9.23-3.98c.02-.04,.03-.08,.04-.11,0,0,0,0,0,0,.06-1,.11-2,.12-2.91,0,1.01-.05,2.17-.12,3.33Z"/><path class="cls-16" d="M76.39,73.46c-.91,4.32-1.82,9.18-3.07,10.15-1.81,1.42-9.15,1.69-12.12,.33-1.65-.75-2.21-4.72-3.25-10.69,.61,2.35,4.27,4.31,9.16,4.31s8.49-1.83,9.27-4.1Z"/><path class="cls-12" d="M76.39,73.47c-.05,.26-.11,.52-.17,.78-1.05,2.08-4.62,3.71-9.11,3.71s-8.12-1.74-9.02-3.9c-.05-.26-.09-.53-.14-.81,.61,2.35,4.27,4.31,9.17,4.31s8.49-1.84,9.27-4.09Z"/><path class="cls-24" d="M67.17,71.58c-3.27,0-6.2-1.22-7.89-2.75,1.75,1.48,4.61,2.44,7.84,2.44s6.1-.96,7.84-2.44c-1.69,1.53-4.53,2.76-7.8,2.76Z"/><path class="cls-21" d="M76.97,71.27c0,3.88-1.8,12.15-3.33,13.34-1.86,1.44-9.85,2.33-13.44-.18-1.94-1.36-3.1-10.93-2.93-13.95,.15-2.7,.21-5.03,.21-5.03,0,.39,.06,.76,.18,1.13-.03,.91-.09,2.39-.18,4.02-.17,2.95,.98,12.32,2.87,13.65,3.51,2.46,11.33,1.59,13.14,.18,1.49-1.16,3.26-9.25,3.26-13.05,0-2.17-.09-3.93-.15-4.89,.1-.33,.15-.68,.15-1.03,0,0,.21,2.41,.21,5.83Z"/><path class="cls-1" d="M74.71,84.73c-.51,1.58-5.55,2.62-10.37,1.12,6.2,.64,9.55-.84,9.82-1.89,0,0,.65,.45,.55,.77Z"/><path class="cls-24" d="M59.28,68.83c-.78-.66-1.34-1.43-1.61-2.26,.02-.57,.03-.91,.03-.91,0,1.17,.58,2.26,1.58,3.16Z"/><path class="cls-24" d="M76.61,66.47c-.25,.86-.82,1.66-1.63,2.34,.99-.9,1.57-1.98,1.57-3.15,0,0,.03,.29,.06,.81Z"/><path class="cls-23" d="M75.41,68.42c.98,2.09,.38,4.64-.53,9.77v-8.88l.53-.89"/><path class="cls-21" d="M67.12,59.62c-5.32,0-9.63,2.61-9.63,5.82s4.31,5.83,9.63,5.83,9.63-2.61,9.63-5.83-4.31-5.82-9.63-5.82Zm0,11.43c-5.12,0-9.26-2.51-9.26-5.6s4.15-5.6,9.26-5.6,9.26,2.51,9.26,5.6-4.15,5.6-9.26,5.6Z"/><path class="cls-22" d="M63.32,60.34c-.97,.61-1.31,1.94-1.36,3.35-.36,.12-.71,.25-1.03,.4-.11-1.47-.08-2.77,.37-3,.99-.5,1.92-.7,2.03-.75Z"/><path class="cls-23" d="M59.81,78.05c1.15,2.96,1.73,4.98,4.45,5.04,1.25,.03-2.09,1.39-3.26-.35s-2.52-4.09-1.2-4.69Z"/><path class="cls-20" d="M62.98,69.89c1.04,.82,7.28,1.2,9.47-.21-2.17,.45-6.41,.57-9.47,.21Z"/></g><g><g><rect class="cls-4" x="72.93" y="66.44" width="1.92" height=".74" rx=".27" ry=".27" transform="translate(-16.98 107.62) rotate(-66.3)"/><path class="cls-18" d="M73.93,66.52c.35-.27-.08,.79-.41,.91-.14,.05,.06-.64,.41-.91Z"/></g><g><rect class="cls-14" x="68.99" y="68.02" width="2.52" height=".98" rx=".35" ry=".35" transform="translate(-21.99 102) rotate(-64.23)"/><path class="cls-18" d="M70.27,67.81c.43-.42,.01,1.25-.41,1.44-.18,.08-.02-1.02,.41-1.44Z"/></g><g><rect class="cls-11" x="63.07" y="63.21" width="2.52" height=".98" rx=".35" ry=".35" transform="translate(-.33 .33) rotate(-.3)"/><path class="cls-18" d="M64.97,63.64c.57,.2-1.12,.56-1.47,.27-.15-.13,.91-.47,1.47-.27Z"/></g><g><rect class="cls-4" x="59.91" y="67.28" width="1.92" height=".74" rx=".27" ry=".27" transform="translate(108.9 -9.65) rotate(73.83)"/><path class="cls-18" d="M61.03,67.9c-.1,.43-.45-.66-.27-.96,.07-.13,.37,.53,.27,.96Z"/></g><g><rect class="cls-4" x="65.87" y="66.36" width="1.92" height=".74" rx=".27" ry=".27" transform="translate(112.31 -16.03) rotate(73.83)"/><path class="cls-18" d="M66.99,66.98c-.1,.43-.45-.66-.27-.96,.07-.13,.37,.53,.27,.96Z"/></g><g><rect class="cls-14" x="60.78" y="64.76" width="2.52" height=".98" rx=".35" ry=".35" transform="translate(110.21 -10.81) rotate(75.9)"/><path class="cls-18" d="M62.47,65.81c-.06,.6-.81-.95-.61-1.37,.09-.18,.67,.77,.61,1.37Z"/></g><g><rect class="cls-14" x="67.93" y="63.71" width="2.52" height=".98" rx=".35" ry=".35" transform="translate(114.61 -18.55) rotate(75.9)"/><path class="cls-18" d="M69.63,64.76c-.06,.6-.81-.95-.61-1.37,.09-.18,.67,.77,.61,1.37Z"/></g><g><rect class="cls-11" x="70.29" y="65.3" width="2.52" height=".98" rx=".35" ry=".35" transform="translate(168.65 69.92) rotate(139.84)"/><path class="cls-18" d="M71.09,66.24c-.57,.21,.5-1.15,.96-1.15,.2,0-.4,.94-.96,1.15Z"/></g><g><rect class="cls-11" x="62.17" y="67.82" width="2.52" height=".98" rx=".35" ry=".35" transform="translate(155.97 79.61) rotate(139.84)"/><path class="cls-18" d="M62.98,68.77c-.57,.21,.5-1.15,.96-1.15,.2,0-.4,.94-.96,1.15Z"/></g></g></g><g><g><path class="cls-23" d="M85.21,69.96c1.15,2.96,1.73,4.98,4.45,5.04,1.25,.03-2.09,1.39-3.26-.35-1.16-1.74-2.52-4.09-1.2-4.69Z"/><g><path class="cls-24" d="M102.73,62.3c0,3.88-1.8,12.15-3.33,13.34-1.86,1.44-9.85,2.33-13.44-.18-1.94-1.36-3.1-10.93-2.93-13.95,.15-2.7,.21-5.03,.21-5.03,0,3.22,4.31,5.83,9.63,5.83s9.63-2.61,9.63-5.83c0,0,.21,2.41,.21,5.83Z"/><path class="cls-24" d="M102.15,56.48c0,3.09-4.15,5.6-9.26,5.6s-9.26-2.51-9.26-5.6,4.15-5.6,9.26-5.6,9.26,2.51,9.26,5.6Z"/><path class="cls-5" d="M102.15,64.5s0,0,0,0c-.01,.04-.03,.08-.04,.11-.87,2.2-4.55,3.98-9.23,3.98s-8.44-1.9-9.13-4.2c-.01-.04-.02-.07-.03-.11-.14-1.56-.1-3.45,0-5.48l18.27-.1c.43,1.19,.3,3.49,.17,5.8Z"/><path class="cls-15" d="M101.98,58.42c0,2.46-4.1,4.71-9.14,4.71s-9.13-2.24-9.13-4.71,4.09-4.46,9.13-4.46,9.13,2,9.13,4.46Z"/><path class="cls-7" d="M101.98,58.8c0,2.46-4.1,4.71-9.14,4.71s-9.13-2.24-9.13-4.71,4.09-4.46,9.13-4.46,9.13,2,9.13,4.46Z"/><path class="cls-20" d="M88,58.28c-.94-.29,1.03-1.7,2.2-1.7s0,.44-.87,.79c-1.23,.49-.47,1.17-1.33,.91Z"/><path class="cls-20" d="M98.93,57.76c.58,.78-.38,.19-1.62-.49s-1.99-1.21-.93-.92c1.47,.41,1.93,.58,2.55,1.41Z"/><path class="cls-19" d="M101.15,58.81c0,2.24,.44-1.49-3.92-2.91-8.89-2.89-12.51,3.96-12.7,2.91-.4-2.2,3.72-4.06,8.31-4.06s8.31,1.82,8.31,4.06Z"/><path class="cls-6" d="M102.15,64.5s0,0,0,0c-.01,.04-.03,.08-.04,.11-.87,2.2-4.55,3.98-9.23,3.98s-8.44-1.9-9.13-4.2c-.01-.04-.02-.07-.03-.11-.07-.79-.09-1.67-.09-2.6,0,.78,.03,1.52,.09,2.19,0,.04,.02,.07,.03,.11,.7,2.3,4.31,4.2,9.13,4.2s8.36-1.77,9.23-3.98c.02-.04,.03-.08,.04-.11,0,0,0,0,0,0,.06-1,.11-2,.12-2.91,0,1.01-.05,2.17-.12,3.33Z"/><path class="cls-16" d="M102.15,64.5c-.91,4.32-1.82,9.18-3.07,10.15-1.81,1.42-9.15,1.69-12.12,.33-1.65-.75-2.21-4.72-3.25-10.69,.61,2.35,4.27,4.31,9.16,4.31s8.49-1.83,9.27-4.1Z"/><path class="cls-12" d="M102.15,64.5c-.05,.26-.11,.52-.17,.78-1.05,2.08-4.62,3.71-9.11,3.71s-8.12-1.74-9.02-3.9c-.05-.26-.09-.53-.14-.81,.61,2.35,4.27,4.31,9.17,4.31s8.49-1.84,9.27-4.09Z"/><path class="cls-24" d="M92.93,62.62c-3.27,0-6.2-1.22-7.89-2.75,1.75,1.48,4.61,2.44,7.84,2.44s6.1-.96,7.84-2.44c-1.69,1.53-4.53,2.76-7.8,2.76Z"/><path class="cls-21" d="M102.73,62.3c0,3.88-1.8,12.15-3.33,13.34-1.86,1.44-9.85,2.33-13.44-.18-1.94-1.36-3.1-10.93-2.93-13.95,.15-2.7,.21-5.03,.21-5.03,0,.39,.06,.76,.18,1.13-.03,.91-.09,2.39-.18,4.02-.17,2.95,.98,12.32,2.87,13.65,3.51,2.46,11.33,1.59,13.14,.18,1.49-1.16,3.26-9.25,3.26-13.05,0-2.17-.09-3.93-.15-4.89,.1-.33,.15-.68,.15-1.03,0,0,.21,2.41,.21,5.83Z"/><path class="cls-1" d="M100.47,75.76c-.51,1.58-5.55,2.62-10.37,1.12,6.2,.64,9.55-.84,9.82-1.89,0,0,.65,.45,.55,.77Z"/><path class="cls-24" d="M85.04,59.86c-.78-.66-1.34-1.43-1.61-2.26,.02-.57,.03-.91,.03-.91,0,1.17,.58,2.26,1.58,3.16Z"/><path class="cls-24" d="M102.37,57.51c-.25,.86-.82,1.66-1.63,2.34,.99-.9,1.57-1.98,1.57-3.15,0,0,.03,.29,.06,.81Z"/><path class="cls-23" d="M101.17,59.45c.98,2.09,.38,4.64-.53,9.77v-8.88l.53-.89"/><path class="cls-21" d="M92.88,50.65c-5.32,0-9.63,2.61-9.63,5.82s4.31,5.83,9.63,5.83,9.63-2.61,9.63-5.83-4.31-5.82-9.63-5.82Zm0,11.43c-5.12,0-9.26-2.51-9.26-5.6s4.15-5.6,9.26-5.6,9.26,2.51,9.26,5.6-4.15,5.6-9.26,5.6Z"/><path class="cls-22" d="M89.08,51.37c-.97,.61-1.31,1.94-1.36,3.35-.36,.12-.71,.25-1.03,.4-.11-1.47-.08-2.77,.37-3,.99-.5,1.92-.7,2.03-.75Z"/><path class="cls-23" d="M85.57,69.09c1.15,2.96,1.73,4.98,4.45,5.04,1.25,.03-2.09,1.39-3.26-.35s-2.52-4.09-1.2-4.69Z"/><path class="cls-20" d="M88.74,60.93c1.04,.82,7.28,1.2,9.47-.21-2.17,.45-6.41,.57-9.47,.21Z"/></g></g><g><g><rect class="cls-4" x="98.9" y="57.87" width="1.92" height=".74" rx=".27" ry=".27" transform="translate(6.39 126.28) rotate(-66.3)"/><path class="cls-18" d="M99.9,57.95c.35-.27-.08,.79-.41,.91-.14,.05,.06-.64,.41-.91Z"/></g><g><rect class="cls-14" x="94.96" y="59.46" width="2.52" height=".98" rx=".35" ry=".35" transform="translate(.41 120.54) rotate(-64.23)"/><path class="cls-18" d="M96.24,59.24c.43-.42,.01,1.25-.41,1.44-.18,.08-.02-1.02,.41-1.44Z"/></g><g><rect class="cls-11" x="89.04" y="54.64" width="2.52" height=".98" rx=".35" ry=".35" transform="translate(-.28 .47) rotate(-.3)"/><path class="cls-18" d="M90.94,55.07c.57,.2-1.12,.56-1.47,.27-.15-.13,.91-.47,1.47-.27Z"/></g><g><rect class="cls-4" x="85.88" y="58.71" width="1.92" height=".74" rx=".27" ry=".27" transform="translate(119.41 -40.78) rotate(73.83)"/><path class="cls-18" d="M87,59.34c-.1,.43-.45-.66-.27-.96,.07-.13,.37,.53,.27,.96Z"/></g><g><rect class="cls-4" x="91.84" y="57.79" width="1.92" height=".74" rx=".27" ry=".27" transform="translate(122.82 -47.16) rotate(73.83)"/><path class="cls-18" d="M92.96,58.42c-.1,.43-.45-.66-.27-.96,.07-.13,.37,.53,.27,.96Z"/></g><g><rect class="cls-14" x="86.75" y="56.2" width="2.52" height=".98" rx=".35" ry=".35" transform="translate(121.55 -42.48) rotate(75.9)"/><path class="cls-18" d="M88.45,57.24c-.06,.6-.81-.95-.61-1.37,.09-.18,.67,.77,.61,1.37Z"/></g><g><rect class="cls-14" x="93.91" y="55.15" width="2.52" height=".98" rx=".35" ry=".35" transform="translate(125.95 -50.22) rotate(75.9)"/><path class="cls-18" d="M95.6,56.19c-.06,.6-.81-.95-.61-1.37,.09-.18,.67,.77,.61,1.37Z"/></g><g><rect class="cls-11" x="96.26" y="56.73" width="2.52" height=".98" rx=".35" ry=".35" transform="translate(208.95 38.05) rotate(139.84)"/><path class="cls-18" d="M97.06,57.67c-.57,.21,.5-1.15,.96-1.15,.2,0-.4,.94-.96,1.15Z"/></g><g><rect class="cls-11" x="88.14" y="59.26" width="2.52" height=".98" rx=".35" ry=".35" transform="translate(196.26 47.74) rotate(139.84)"/><path class="cls-18" d="M88.95,60.2c-.57,.21,.5-1.15,.96-1.15,.2,0-.4,.94-.96,1.15Z"/></g></g></g><g><g><path class="cls-24" d="M94.45,79.31c0,3.88-1.8,12.15-3.33,13.34-1.86,1.44-9.85,2.33-13.44-.18-1.94-1.36-3.1-10.93-2.93-13.95,.15-2.7,.21-5.03,.21-5.03,0,3.22,4.31,5.83,9.63,5.83s9.63-2.61,9.63-5.83c0,0,.21,2.41,.21,5.83Z"/><path class="cls-24" d="M93.87,73.48c0,3.09-4.15,5.6-9.26,5.6s-9.26-2.51-9.26-5.6,4.15-5.6,9.26-5.6,9.26,2.51,9.26,5.6Z"/><path class="cls-5" d="M93.87,81.5s0,0,0,0c-.01,.04-.03,.08-.04,.11-.87,2.2-4.55,3.98-9.23,3.98s-8.44-1.9-9.13-4.2c-.01-.04-.02-.07-.03-.11-.14-1.56-.1-3.45,0-5.48l18.27-.1c.43,1.19,.3,3.49,.17,5.8Z"/><path class="cls-15" d="M93.7,75.42c0,2.46-4.1,4.71-9.14,4.71s-9.13-2.24-9.13-4.71,4.09-4.46,9.13-4.46,9.13,2,9.13,4.46Z"/><path class="cls-7" d="M93.7,75.8c0,2.46-4.1,4.71-9.14,4.71s-9.13-2.24-9.13-4.71,4.09-4.46,9.13-4.46,9.13,2,9.13,4.46Z"/><path class="cls-20" d="M79.72,75.28c-.94-.29,1.03-1.7,2.2-1.7s0,.44-.87,.79c-1.23,.49-.47,1.17-1.33,.91Z"/><path class="cls-20" d="M90.65,74.77c.58,.78-.38,.19-1.62-.49s-1.99-1.21-.93-.92c1.47,.41,1.93,.58,2.55,1.41Z"/><path class="cls-19" d="M92.87,75.82c0,2.24,.44-1.49-3.92-2.91-8.89-2.89-12.51,3.96-12.7,2.91-.4-2.2,3.72-4.06,8.31-4.06s8.31,1.82,8.31,4.06Z"/><path class="cls-6" d="M93.87,81.5s0,0,0,0c-.01,.04-.03,.08-.04,.11-.87,2.2-4.55,3.98-9.23,3.98s-8.44-1.9-9.13-4.2c-.01-.04-.02-.07-.03-.11-.07-.79-.09-1.67-.09-2.6,0,.78,.03,1.52,.09,2.19,0,.04,.02,.07,.03,.11,.7,2.3,4.31,4.2,9.13,4.2s8.36-1.77,9.23-3.98c.02-.04,.03-.08,.04-.11,0,0,0,0,0,0,.06-1,.11-2,.12-2.91,0,1.01-.05,2.17-.12,3.33Z"/><path class="cls-16" d="M93.87,81.5c-.91,4.32-1.82,9.18-3.07,10.15-1.81,1.42-9.15,1.69-12.12,.33-1.65-.75-2.21-4.72-3.25-10.69,.61,2.35,4.27,4.31,9.16,4.31s8.49-1.83,9.27-4.1Z"/><path class="cls-12" d="M93.87,81.5c-.05,.26-.11,.52-.17,.78-1.05,2.08-4.62,3.71-9.11,3.71s-8.12-1.74-9.02-3.9c-.05-.26-.09-.53-.14-.81,.61,2.35,4.27,4.31,9.17,4.31s8.49-1.84,9.27-4.09Z"/><path class="cls-24" d="M84.65,79.62c-3.27,0-6.2-1.22-7.89-2.75,1.75,1.48,4.61,2.44,7.84,2.44s6.1-.96,7.84-2.44c-1.69,1.53-4.53,2.76-7.8,2.76Z"/><path class="cls-21" d="M94.45,79.31c0,3.88-1.8,12.15-3.33,13.34-1.86,1.44-9.85,2.33-13.44-.18-1.94-1.36-3.1-10.93-2.93-13.95,.15-2.7,.21-5.03,.21-5.03,0,.39,.06,.76,.18,1.13-.03,.91-.09,2.39-.18,4.02-.17,2.95,.98,12.32,2.87,13.65,3.51,2.46,11.33,1.59,13.14,.18,1.49-1.16,3.26-9.25,3.26-13.05,0-2.17-.09-3.93-.15-4.89,.1-.33,.15-.68,.15-1.03,0,0,.21,2.41,.21,5.83Z"/><path class="cls-1" d="M92.19,92.76c-.51,1.58-5.55,2.62-10.37,1.12,6.2,.64,9.55-.84,9.82-1.89,0,0,.65,.45,.55,.77Z"/><path class="cls-24" d="M76.76,76.87c-.78-.66-1.34-1.43-1.61-2.26,.02-.57,.03-.91,.03-.91,0,1.17,.58,2.26,1.58,3.16Z"/><path class="cls-24" d="M94.09,74.51c-.25,.86-.82,1.66-1.63,2.34,.99-.9,1.57-1.98,1.57-3.15,0,0,.03,.29,.06,.81Z"/><path class="cls-23" d="M92.89,76.46c.98,2.09,.38,4.64-.53,9.77v-8.88l.53-.89"/><path class="cls-21" d="M84.6,67.66c-5.32,0-9.63,2.61-9.63,5.82s4.31,5.83,9.63,5.83,9.63-2.61,9.63-5.83-4.31-5.82-9.63-5.82Zm0,11.43c-5.12,0-9.26-2.51-9.26-5.6s4.15-5.6,9.26-5.6,9.26,2.51,9.26,5.6-4.15,5.6-9.26,5.6Z"/><path class="cls-22" d="M80.8,68.38c-.97,.61-1.31,1.94-1.36,3.35-.36,.12-.71,.25-1.03,.4-.11-1.47-.08-2.77,.37-3,.99-.5,1.92-.7,2.03-.75Z"/><path class="cls-23" d="M77.29,86.09c1.15,2.96,1.73,4.98,4.45,5.04,1.25,.03-2.09,1.39-3.26-.35-1.16-1.74-2.52-4.09-1.2-4.69Z"/><path class="cls-20" d="M80.46,77.93c1.04,.82,7.28,1.2,9.47-.21-2.17,.45-6.41,.57-9.47,.21Z"/></g><g><g><rect class="cls-4" x="76.58" y="75.17" width="1.92" height=".74" rx=".27" ry=".27" transform="translate(172.08 22.81) rotate(106.6)"/><path class="cls-18" d="M77.53,75.84c-.31,.31-.02-.8,.29-.96,.13-.07,.02,.65-.29,.96Z"/></g><g><rect class="cls-14" x="79.68" y="72.91" width="2.52" height=".98" rx=".35" ry=".35" transform="translate(176.39 20.22) rotate(108.67)"/><path class="cls-18" d="M81,74.1c-.38,.47-.17-1.24,.23-1.48,.17-.1,.15,1.01-.23,1.48Z"/></g><g><rect class="cls-11" x="86.15" y="76.96" width="2.52" height=".98" rx=".35" ry=".35" transform="translate(184.06 143.01) rotate(172.61)"/><path class="cls-18" d="M86.78,77.59c-.59-.13,1.04-.7,1.43-.45,.16,.11-.84,.58-1.43,.45Z"/></g><g><rect class="cls-4" x="89.39" y="72.73" width="1.92" height=".74" rx=".27" ry=".27" transform="translate(58.89 184.97) rotate(-113.27)"/><path class="cls-18" d="M90.16,72.87c.04-.44,.52,.6,.39,.92-.06,.14-.43-.48-.39-.92Z"/></g><g><rect class="cls-4" x="83.6" y="74.37" width="1.92" height=".74" rx=".27" ry=".27" transform="translate(49.29 181.95) rotate(-113.27)"/><path class="cls-18" d="M84.37,74.52c.04-.44,.52,.6,.39,.92-.06,.14-.43-.48-.39-.92Z"/></g><g><rect class="cls-14" x="88.23" y="75.14" width="2.52" height=".98" rx=".35" ry=".35" transform="translate(51.34 186.4) rotate(-111.19)"/><path class="cls-18" d="M88.99,75.13c-.01-.6,.93,.85,.77,1.28-.06,.19-.76-.68-.77-1.28Z"/></g><g><rect class="cls-14" x="81.26" y="77.06" width="2.52" height=".98" rx=".35" ry=".35" transform="translate(40.05 182.52) rotate(-111.19)"/><path class="cls-18" d="M82.02,77.05c-.01-.6,.93,.85,.77,1.28-.06,.19-.76-.68-.77-1.28Z"/></g><g><rect class="cls-11" x="78.73" y="75.78" width="2.52" height=".98" rx=".35" ry=".35" transform="translate(-30.31 83.25) rotate(-47.26)"/><path class="cls-18" d="M80.38,75.76c.54-.28-.35,1.2-.81,1.26-.19,.02,.28-.98,.81-1.26Z"/></g><g><rect class="cls-11" x="86.47" y="72.27" width="2.52" height=".98" rx=".35" ry=".35" transform="translate(-25.25 87.81) rotate(-47.26)"/><path class="cls-18" d="M88.12,72.25c.54-.28-.35,1.2-.81,1.26-.19,.02,.28-.98,.81-1.26Z"/></g></g></g><g><rect class="cls-4" x="92.73" y="44.04" width="2.52" height=".98" rx=".35" ry=".35" transform="translate(166.27 -30.26) rotate(108.67)"/><g><rect class="cls-14" x="90.16" y="46.79" width="2.52" height=".98" rx=".35" ry=".35" transform="translate(60.2 -50.8) rotate(45)"/><path class="cls-18" d="M92.13,47.59c.25,.55-1.19-.41-1.22-.87-.01-.2,.97,.32,1.22,.87Z"/></g><g><rect class="cls-14" x="61.37" y="56.98" width="1.92" height=".74" rx=".27" ry=".27" transform="translate(62.1 -27.35) rotate(47.22)"/><path class="cls-18" d="M62.55,57.55c.15,.44-.7-.33-.72-.7,0-.16,.57,.26,.72,.7Z"/></g><g><rect class="cls-14" x="75.9" y="52.55" width="2.52" height=".98" rx=".35" ry=".35" transform="translate(60.11 -39.03) rotate(45)"/><path class="cls-18" d="M77.5,53.33c.23,.58-1.08-.43-1.11-.92-.01-.21,.88,.34,1.11,.92Z"/></g><g><rect class="cls-4" x="61.81" y="50.5" width="1.92" height=".74" rx=".27" ry=".27" transform="translate(129.45 5.25) rotate(106.6)"/><path class="cls-18" d="M62.77,51.17c-.31,.31-.02-.8,.29-.96,.13-.07,.02,.65-.29,.96Z"/></g><g><rect class="cls-4" x="90.46" y="51.16" width="1.92" height=".74" rx=".27" ry=".27" transform="translate(122.89 -48.58) rotate(78.04)"/><path class="cls-18" d="M91.49,51.83c-.11,.43-.43-.67-.25-.97,.08-.13,.35,.54,.25,.97Z"/></g><g><rect class="cls-4" x="69.08" y="57.2" width="2.52" height=".98" rx=".35" ry=".35" transform="translate(61.39 -32.85) rotate(45)"/><path class="cls-18" d="M70.81,58.06c.22,.55-1.18-.48-1.18-.93,0-.19,.96,.38,1.18,.93Z"/></g><path class="cls-18" d="M93.82,45.18c-.41,.43-.07-1.27,.34-1.47,.17-.08,.06,1.03-.34,1.47Z"/><g><rect class="cls-4" x="80.68" y="47.58" width="1.92" height=".74" rx=".27" ry=".27" transform="translate(167 6.97) rotate(123.92)"/><path class="cls-18" d="M81.31,48.34c-.39,.22,.25-.95,.58-.99,.14-.02-.19,.77-.58,.99Z"/></g><g><rect class="cls-14" x="75.48" y="44.04" width="2.52" height=".98" rx=".35" ry=".35" transform="translate(143.5 -13.92) rotate(108.67)"/><path class="cls-18" d="M76.84,45.23c-.38,.47-.17-1.24,.23-1.48,.17-.1,.15,1.01-.23,1.48Z"/></g><g><rect class="cls-14" x="66.68" y="49.44" width="2.52" height=".98" rx=".35" ry=".35" transform="translate(137 1.54) rotate(108.67)"/><path class="cls-18" d="M68.01,50.63c-.38,.47-.17-1.24,.23-1.48,.17-.1,.15,1.01-.23,1.48Z"/></g><g><rect class="cls-11" x="61.51" y="44.04" width="2.52" height=".98" rx=".35" ry=".35" transform="translate(125.05 -.68) rotate(108.67)"/><path class="cls-18" d="M62.62,45.16c-.38,.47-.17-1.24,.23-1.48,.17-.1,.15,1.01-.23,1.48Z"/></g><g><rect class="cls-11" x="85.42" y="47.07" width="2.52" height=".98" rx=".35" ry=".35" transform="translate(159.49 -19.34) rotate(108.67)"/><path class="cls-18" d="M86.8,48.24c-.38,.47-.17-1.24,.23-1.48,.17-.1,.15,1.01-.23,1.48Z"/></g><g><rect class="cls-11" x="79.5" y="56.44" width="1.92" height=".74" rx=".27" ry=".27" transform="translate(172.5 21.75) rotate(123.92)"/><path class="cls-18" d="M80.39,57.18c-.37,.22,.17-.76,.5-.84,.14-.03-.13,.62-.5,.84Z"/></g><g><rect class="cls-11" x="95.26" y="48.99" width="1.92" height=".74" rx=".27" ry=".27" transform="translate(67.11 -54.79) rotate(47.22)"/><path class="cls-18" d="M96.46,49.35c.19,.36-.77-.22-.81-.53-.02-.13,.62,.17,.81,.53Z"/></g></g></g></svg>