<svg width="32" height="33" viewBox="0 0 32 33" fill="none" xmlns="http://www.w3.org/2000/svg">
<g clip-path="url(#clip0_224_6058)">
<path d="M30.99 13.5854L28.07 10.6704C28.74 10.2854 29.325 9.75039 29.765 9.08539C30.845 7.46039 30.835 5.28039 29.745 3.66039C28.91 2.41539 27.585 1.62539 26.11 1.48039C24.64 1.34039 23.195 1.85539 22.15 2.90039C21.835 3.22039 21.565 3.57039 21.35 3.95039L18.435 1.03539C17.785 0.385391 16.92 0.0253906 16 0.0253906H15.995C15.075 0.0253906 14.21 0.385391 13.56 1.03539L10.22 4.37539C9.76 4.83039 9.555 5.48539 9.675 6.12039C9.79 6.76539 10.225 7.31539 10.83 7.59039C11.1 7.71039 11.345 7.88039 11.555 8.09539C12.055 8.59539 12.315 9.28539 12.275 9.99039C12.23 10.7054 11.89 11.3454 11.32 11.7904C10.455 12.4654 9.2 12.4754 8.335 11.8154C7.995 11.5554 7.735 11.2354 7.565 10.8604C7.29 10.2504 6.735 9.82039 6.09 9.70039C5.455 9.58539 4.8 9.79039 4.345 10.2504L1.005 13.5854C-0.335 14.9304 -0.335 17.1204 1.005 18.4654L3.925 21.3804C3.54 21.6004 3.185 21.8654 2.87 22.1854C1.825 23.2304 1.305 24.6754 1.45 26.1504C1.59 27.6204 2.39 28.9454 3.635 29.7854C5.255 30.8754 7.435 30.8754 9.06 29.7904C9.73 29.3454 10.265 28.7654 10.645 28.1054L13.56 31.0154C14.23 31.6904 15.115 32.0254 16 32.0254C16.885 32.0254 17.765 31.6904 18.435 31.0154L21.775 27.6754C22.235 27.2204 22.44 26.5654 22.325 25.9304C22.205 25.2854 21.775 24.7354 21.17 24.4604C20.9 24.3404 20.655 24.1704 20.44 23.9554C19.94 23.4604 19.68 22.7704 19.725 22.0604C19.765 21.3454 20.105 20.7054 20.675 20.2604C21.54 19.5854 22.795 19.5754 23.665 20.2354C24 20.4954 24.26 20.8154 24.435 21.1954C24.71 21.8004 25.26 22.2304 25.91 22.3504C26.545 22.4654 27.195 22.2604 27.65 21.8054L30.99 18.4654C31.64 17.8154 32 16.9504 32 16.0304C32 15.1104 31.64 14.2404 30.99 13.5854ZM28.895 16.3704L26.435 18.8304C26.15 18.4804 25.825 18.1604 25.455 17.8804C24.535 17.1804 23.375 16.7954 22.19 16.7954C21.005 16.7954 19.785 17.1954 18.85 17.9254C17.62 18.8904 16.86 20.3304 16.765 21.8804C16.675 23.4354 17.25 24.9554 18.345 26.0504C18.49 26.1954 18.645 26.3354 18.805 26.4604L16.345 28.9204C16.25 29.0154 16.13 29.0654 16 29.0654C15.87 29.0654 15.745 29.0154 15.655 28.9204L11.275 24.5454C10.95 24.2204 10.515 24.0404 10.05 24.0404C9.83 24.0404 9.615 24.0804 9.41 24.1604C8.77 24.4154 8.34 25.0304 8.32 25.7204C8.305 26.3704 7.975 26.9604 7.415 27.3304C7.105 27.5354 6.74 27.6454 6.355 27.6454C5.97 27.6454 5.6 27.5354 5.285 27.3254C4.77 26.9804 4.455 26.4604 4.395 25.8604C4.34 25.2754 4.545 24.6954 4.965 24.2804C5.32 23.9204 5.795 23.7154 6.305 23.7004C6.995 23.6804 7.61 23.2554 7.865 22.6104C8.12 21.9704 7.97 21.2354 7.48 20.7504L3.1 16.3704C2.91 16.1804 2.91 15.8704 3.1 15.6804L5.565 13.2204C5.845 13.5754 6.175 13.8954 6.54 14.1754C7.46 14.8754 8.62 15.2604 9.81 15.2604C11 15.2604 12.21 14.8554 13.145 14.1254C14.375 13.1604 15.135 11.7204 15.23 10.1704C15.325 8.62039 14.75 7.10039 13.65 6.00039C13.505 5.85539 13.35 5.71539 13.19 5.59039L15.655 3.13039C15.745 3.03539 15.865 2.98539 16 2.98539C16.135 2.98539 16.25 3.03539 16.345 3.13039L20.72 7.50539C21.045 7.83539 21.48 8.01539 21.945 8.01539C22.165 8.01539 22.385 7.97039 22.59 7.89039C23.23 7.63039 23.66 7.01539 23.675 6.32539C23.685 5.82539 23.89 5.35039 24.245 4.99539C24.615 4.62539 25.11 4.42039 25.63 4.42039C25.695 4.42039 25.76 4.42539 25.83 4.43039C26.425 4.48539 26.945 4.80039 27.29 5.31539C27.72 5.95039 27.72 6.80539 27.3 7.44539C26.925 8.00539 26.345 8.33539 25.7 8.35039C25.01 8.36539 24.395 8.79039 24.135 9.43539C23.875 10.0804 24.025 10.8154 24.52 11.3054L28.895 15.6804C28.985 15.7704 29.035 15.8954 29.035 16.0254C29.035 16.1554 28.985 16.2804 28.895 16.3704Z" fill="#F96163"/>
</g>
<defs>
<clipPath id="clip0_224_6058">
<rect width="32" height="32" fill="white" transform="translate(0 0.0253906)"/>
</clipPath>
</defs>
</svg>
