<?xml version="1.0" encoding="UTF-8"?><svg id="Camada_1" xmlns="http://www.w3.org/2000/svg" viewBox="0 0 230 230"><defs><style>.cls-1{opacity:.1;}.cls-2{fill:#f5db9f;}.cls-3{fill:#ffecbf;}.cls-4{fill:#667480;}.cls-5{fill:#cfdbe6;}.cls-6{fill:#94a9ba;}.cls-7{fill:#fff;fill-rule:evenodd;}</style></defs><path class="cls-7" d="M113.16,.01c35.19,.52,64.41,23.19,86.17,50.18,21.56,26.73,35.54,59.32,29.09,92.75-6.75,34.98-29.1,66.99-62.61,81.04-32.11,13.46-67.69,2.32-98.7-13.4-29.58-14.99-55.25-37.4-63.64-68.88-8.71-32.63-.67-67.22,20.16-94.12C45.18,19.74,77.41-.52,113.16,.01Z"/><g><g><rect class="cls-4" x="25.92" y="46.69" width="178.15" height="137.14" rx="6.17" ry="6.17" transform="translate(230.26 .26) rotate(90)"/><rect class="cls-6" x="38.32" y="58.15" width="153.36" height="114.23" rx="6.17" ry="6.17" transform="translate(230.26 .26) rotate(90)"/><rect class="cls-5" x="41.56" y="61.38" width="146.89" height="114.23" rx="6.17" ry="6.17" transform="translate(233.5 3.5) rotate(90)"/><g><path class="cls-4" d="M71.59,32.21l6.77-26.3c.91-3.52,3.55-5.91,6.54-5.91h60.2c2.99,0,5.64,2.39,6.54,5.91l6.77,26.3H71.59Z"/><rect class="cls-5" x="109.85" y="-14.22" width="9.13" height="53.93" rx="4" ry="4" transform="translate(127.16 -101.67) rotate(90)"/></g><g><path class="cls-4" d="M158.41,197.79l-6.77,26.3c-.91,3.52-3.55,5.91-6.54,5.91h-60.2c-2.99,0-5.64-2.39-6.54-5.91l-6.77-26.3h86.83Z"/><rect class="cls-5" x="111.02" y="190.29" width="9.13" height="53.93" rx="4" ry="4" transform="translate(-101.67 332.84) rotate(-90)"/></g></g><g class="cls-1"><path d="M147.32,127.05c-.25,0-.5-.02-.74-.06-.52-.09-.95-.33-1.33-.53-.18-.1-.35-.2-.54-.26l-.34-.12c-.49-.17-1-.35-1.5-.64-.17-.1-.36-.18-.54-.27-.39-.18-.83-.39-1.23-.72-.41-.34-.66-.76-.88-1.13-.03-.05-.06-.11-.1-.16l-.17-.14c-.39-.32-.8-.65-1.16-1.08-.39-.46-.76-1.01-1.14-1.65-.26-.44-.39-.91-.5-1.32-.05-.19-.1-.38-.17-.56-.21-.57-.42-1.2-.54-1.9-.03-.19-.1-.38-.16-.57-.13-.41-.29-.87-.29-1.4,0-.63,.06-1.3,.19-2.02,.09-.54,.36-.97,.57-1.33,.11-.19,.22-.37,.28-.51,.06-.17,.11-.34,.17-.51,.13-.42,.28-.89,.54-1.35,.28-.49,.62-.88,.95-1.25l.27-.31c.13-.15,.24-.33,.35-.5,.23-.36,.49-.76,.89-1.09,.41-.34,.86-.58,1.26-.79,.16-.08,.31-.16,.46-.25,.16-.09,.32-.2,.48-.31,.36-.25,.78-.52,1.27-.7l.1-.04c.56-.2,1.19-.43,1.84-.55,.2-.04,.4-.05,.61-.05,.26,0,.53,.03,.8,.05,.21,.02,.41,.04,.62,.04,.63,0,1.31,.02,1.99,.14,.52,.09,.97,.29,1.37,.46,.17,.07,.34,.15,.51,.21,.18,.07,.37,.12,.56,.17,.41,.11,.88,.24,1.32,.5,.15,.09,.31,.17,.47,.25,.4,.21,.86,.45,1.27,.79,.44,.37,.79,.8,1.12,1.21l.24,.29c.29,.35,.58,.75,.89,1.26,.1,.1,.22,.19,.34,.28,.32,.26,.72,.58,.99,1.05,.29,.51,.49,1.05,.67,1.57l.11,.3c.18,.49,.24,.99,.29,1.43,.02,.18,.04,.37,.08,.55s.08,.37,.13,.55c.11,.42,.23,.9,.23,1.43,0,.62,0,1.34-.13,2.02-.12,.71-.37,1.39-.57,1.94-.23,.64-.52,1.25-.86,1.83l-.05,.09c-.3,.51-.63,1.09-1.06,1.6-.34,.4-.75,.71-1.1,.98-.15,.11-.29,.22-.43,.34-.51,.43-1.05,.74-1.58,1.05l-.09,.05c-.16,.09-.32,.2-.48,.31-.36,.25-.77,.52-1.26,.7-.57,.21-1.15,.31-1.71,.4l-.26,.05c-.65,.11-1.33,.11-1.87,.11l-.13-1v1c-.19,0-.39,.01-.58,.03-.24,.01-.47,.03-.7,.03Z"/><path d="M109.04,127.19c-.94,0-1.84-.57-2.33-1.46-.89-.47-1.48-1.4-1.48-2.4,0-.57,.08-.88,.14-1.13,.05-.19,.08-.32,.08-.64,0-.41-.01-.62-.02-.82-.01-.24-.03-.47-.03-.94s.02-.73,.05-.98c.02-.2,.04-.39,.04-.79,0-.33-.03-.47-.07-.67-.05-.24-.12-.55-.12-1.1s.05-.83,.1-1.06c.04-.2,.06-.35,.06-.71,0-.24-.03-.32-.11-.5-.11-.26-.26-.63-.26-1.27,0-.49,.02-.74,.05-.98,.02-.2,.04-.39,.04-.78,0-.54,.05-.83,.1-1.07,.04-.2,.07-.35,.07-.7,0-.39-.02-.58-.04-.78-.03-.25-.05-.5-.05-1s.02-.73,.04-.97c.02-.2,.04-.4,.04-.8,0-1.51,1.18-2.74,2.63-2.74,.47,0,.7,0,.93,0,.22,0,.45,0,.89,0,.56,0,.88,.07,1.12,.12,.2,.04,.35,.08,.7,.08,.44,0,.66,0,.88-.02,.24,0,.47-.02,.95-.02,.3,0,.42-.04,.61-.1,.25-.08,.6-.19,1.22-.19,.46,0,.7,0,.93,0,.22,0,.45,0,.9,0,.64,0,1.01,.14,1.27,.24,.19,.07,.28,.11,.55,.11,.38,0,.54-.03,.75-.06,.25-.04,.53-.08,1.07-.08s.77,.03,1.03,.06c.2,.02,.4,.04,.8,.04,.32,0,.45-.04,.64-.09,.26-.08,.59-.17,1.19-.17,.53,0,.82,.04,1.07,.08,.21,.03,.38,.06,.76,.06,1.53,0,2.82,1.21,2.82,2.64,0,.11,0,.21,0,.29,.07,.26,.11,.52,.11,.8,0,.36,.04,.51,.09,.73,.07,.27,.16,.61,.16,1.23,0,.56-.04,.86-.08,1.12-.03,.22-.06,.42-.06,.84s.03,.57,.07,.8c.05,.27,.11,.58,.11,1.16,0,.46,.01,.68,.03,.91,.02,.26,.03,.52,.03,1.04,0,.6-.07,.93-.13,1.19-.05,.22-.08,.38-.08,.76,0,.47,0,.7,.02,.94,0,.25,.02,.51,.02,1.01,0,.57-.05,.88-.1,1.15-.04,.23-.07,.4-.07,.81s.03,.57,.08,.78c.05,.27,.12,.58,.12,1.17,0,.42,.03,.61,.06,.83,.04,.26,.08,.56,.08,1.12,0,1.46-1.34,2.74-2.86,2.74-.6,0-.93-.08-1.2-.13-.22-.05-.38-.09-.76-.09-.46,0-.69,.01-.91,.03-.26,.02-.52,.03-1.04,.03-.41,0-.59,.03-.82,.07-.27,.04-.57,.09-1.13,.09s-.88-.05-1.15-.1c-.22-.04-.4-.07-.8-.07-.37,0-.53,.04-.74,.09-.27,.06-.6,.15-1.21,.15-.57,0-.88-.05-1.15-.1-.23-.04-.4-.07-.81-.07h-1.96c-.38,0-.54,.03-.76,.08-.27,.06-.6,.13-1.2,.13-.47,0-.71,0-.95,.01-.25,0-.5,.01-1.01,.01Z"/><path d="M80.42,127.46c-.57,0-.88-.06-1.13-.12-.21-.04-.36-.08-.72-.08-.52,0-.78-.03-1.04-.06-.2-.02-.41-.05-.81-.05-.48,0-.72,0-.96-.01-.22,0-.45-.01-.9-.01h-1.85c-.63,0-1.16-.27-1.47-.69-.39-.13-.7-.38-.9-.72-.3-.53-.27-1.19,.09-1.81,.17-.29,.21-.42,.26-.62,.07-.27,.16-.6,.47-1.12,.27-.45,.42-.66,.58-.87,.12-.17,.25-.33,.46-.69,.28-.47,.46-.7,.62-.9,.14-.17,.25-.31,.45-.64,.14-.24,.16-.34,.19-.55,.04-.29,.11-.69,.44-1.25,.25-.43,.39-.63,.53-.84,.12-.18,.25-.36,.47-.74,.25-.43,.4-.64,.54-.85,.12-.18,.25-.36,.47-.73,.21-.35,.29-.54,.37-.73,.11-.24,.21-.49,.48-.94,.26-.44,.41-.65,.55-.85,.12-.17,.25-.35,.46-.72,.19-.33,.25-.49,.33-.69,.09-.24,.2-.52,.48-1,.34-.57,.66-.82,.89-1,.16-.12,.24-.19,.38-.42,.16-.28,.19-.4,.24-.61,.07-.28,.15-.62,.46-1.15,.31-.52,.56-.76,.76-.96,.15-.14,.25-.24,.42-.52,.37-.62,1.04-1.01,1.75-1.01,.65,0,1.23,.33,1.55,.88,0,.01,.01,.02,.02,.03,.22,.15,.41,.35,.54,.58,.28,.49,.38,.8,.46,1.04,.07,.2,.12,.35,.3,.66,.18,.32,.29,.45,.43,.6,.17,.19,.37,.43,.65,.92,.21,.37,.33,.55,.46,.72,.14,.21,.28,.42,.54,.85,.3,.52,.39,.85,.46,1.11,.05,.2,.09,.34,.25,.62,.22,.38,.34,.57,.46,.75,.13,.21,.26,.41,.51,.83,.04,.08,.08,.14,.12,.2,.09,.11,.19,.24,.3,.41,.2,.25,.38,.48,.64,.93,.32,.55,.39,.94,.44,1.22,.03,.17,.05,.27,.14,.45l.06,.06c.19,.19,.43,.43,.73,.95,.09,.12,.23,.31,.4,.6l-.8,.62,.86-.53c.15,.2,.31,.41,.56,.84,.07,.09,.21,.29,.4,.62,.32,.55,.39,.93,.44,1.2,.03,.15,.05,.24,.1,.37,.06,.07,.11,.13,.17,.19,.18,.19,.4,.43,.69,.93,.11,.19,.19,.33,.26,.46l.08,.13c.25,.43,.36,.66,.47,.88,.09,.19,.19,.39,.4,.76,.34,.58,.36,1.25,.05,1.78-.32,.55-.93,.88-1.64,.88-.35,0-.5,.03-.71,.08-.25,.06-.57,.13-1.15,.13-.5,0-.75-.02-1.01-.04-.21-.02-.43-.03-.85-.03-.56,0-.85-.06-1.11-.1-.21-.04-.37-.07-.74-.07-.42,0-.64,.02-.85,.03-.25,.02-.5,.04-1.01,.04h-1.86c-.5,0-.75-.02-.99-.03-.22-.01-.43-.03-.86-.03s-.66,.01-.87,.02c-.25,.01-.49,.03-.98,.03-.29,0-.39,.04-.59,.11-.27,.1-.63,.23-1.27,.23Z"/><path d="M115.29,94.45c-.25,0-.49-.02-.73-.06-.53-.09-.95-.33-1.33-.53-.18-.1-.35-.2-.53-.26l-.34-.12c-.49-.17-1-.35-1.5-.64-.17-.1-.35-.18-.54-.27-.39-.18-.83-.39-1.23-.72-.4-.34-.66-.76-.88-1.12-.03-.05-.07-.11-.1-.16l-.18-.15c-.39-.32-.8-.64-1.16-1.07-.39-.46-.76-1-1.14-1.65-.26-.45-.38-.91-.5-1.32-.05-.19-.1-.38-.17-.56-.21-.57-.42-1.19-.54-1.9-.03-.19-.1-.38-.16-.57-.13-.41-.29-.87-.29-1.4,0-.62,.06-1.3,.19-2.01,.09-.54,.36-.97,.57-1.32,.11-.19,.22-.37,.27-.51,.06-.17,.11-.33,.17-.5,.13-.42,.28-.89,.54-1.35,.28-.49,.62-.88,.95-1.25l.27-.31c.13-.15,.23-.32,.34-.49,.23-.35,.49-.76,.89-1.09,.4-.34,.86-.58,1.26-.79,.15-.08,.31-.16,.46-.25,.16-.09,.32-.2,.48-.31,.36-.25,.77-.52,1.26-.7l.11-.04c.55-.2,1.18-.43,1.83-.54,.2-.03,.4-.05,.61-.05,.26,0,.53,.02,.8,.05,.21,.02,.41,.04,.61,.04,.63,0,1.3,.02,1.99,.14,.52,.09,.97,.29,1.37,.46,.17,.07,.34,.15,.51,.21,.18,.07,.37,.12,.56,.17,.41,.11,.87,.24,1.32,.5,.15,.09,.31,.17,.46,.25,.4,.21,.86,.45,1.27,.79,.44,.37,.8,.82,1.13,1.21l.23,.28c.29,.35,.58,.75,.89,1.25,.1,.1,.22,.19,.33,.28,.32,.26,.72,.58,.99,1.04,.29,.51,.48,1.04,.67,1.56l.11,.31c.18,.49,.24,.98,.29,1.42,.02,.19,.04,.37,.08,.55,.03,.19,.08,.37,.13,.56,.11,.42,.23,.9,.23,1.42,0,.62,0,1.33-.13,2.02-.12,.71-.37,1.39-.57,1.94-.23,.62-.52,1.25-.85,1.83l-.06,.1c-.3,.51-.63,1.09-1.05,1.59-.34,.4-.75,.71-1.1,.98-.14,.11-.29,.22-.43,.33-.5,.42-1.05,.74-1.57,1.04l-.09,.05c-.16,.09-.32,.2-.48,.31-.36,.25-.77,.52-1.26,.7-.57,.21-1.15,.3-1.71,.4l-.26,.05c-.65,.11-1.33,.11-1.87,.11h-.13c-.19,0-.39,.01-.58,.03-.24,.01-.47,.03-.7,.03Z"/><path d="M74.38,94.59c-.94,0-1.83-.57-2.33-1.46-.89-.47-1.48-1.4-1.48-2.4,0-.57,.08-.88,.14-1.13,.05-.19,.08-.32,.08-.63,0-.41-.01-.62-.02-.82-.01-.24-.03-.47-.03-.94s.02-.73,.05-.98c.02-.2,.04-.39,.04-.79,0-.33-.03-.47-.07-.67-.05-.24-.12-.55-.12-1.1s.05-.83,.1-1.06c.04-.2,.06-.35,.06-.7,0-.24-.03-.32-.11-.5-.11-.26-.26-.63-.26-1.27,0-.49,.02-.74,.05-.98,.02-.2,.04-.39,.04-.78,0-.53,.05-.83,.1-1.07,.04-.2,.07-.35,.07-.7,0-.39-.02-.58-.04-.78-.03-.25-.05-.5-.05-.99s.02-.73,.04-.97c.02-.2,.04-.4,.04-.79,0-1.51,1.18-2.73,2.63-2.73,.46,0,.7,0,.93,0,.22,0,.45,0,.89,0,.56,0,.87,.07,1.12,.12,.2,.04,.35,.08,.7,.08,.44,0,.66,0,.88-.02,.24,0,.47-.02,.95-.02,.3,0,.42-.04,.61-.1,.25-.08,.6-.19,1.21-.19,.46,0,.7,0,.93,0,.22,0,.45,0,.9,0,.64,0,1.01,.14,1.27,.24,.19,.07,.28,.11,.55,.11,.38,0,.54-.03,.75-.06,.25-.04,.53-.08,1.07-.08s.77,.03,1.02,.06c.2,.02,.4,.04,.8,.04,.32,0,.45-.04,.64-.09,.26-.07,.59-.17,1.18-.17,.53,0,.82,.04,1.07,.08,.21,.03,.38,.06,.76,.06,1.53,0,2.82,1.21,2.82,2.63,0,.11,0,.2,0,.29,.07,.25,.11,.52,.11,.8,0,.36,.04,.51,.09,.72,.07,.27,.16,.61,.16,1.22,0,.56-.04,.85-.08,1.11-.03,.22-.06,.42-.06,.83s.03,.57,.07,.8c.05,.27,.1,.58,.1,1.15,0,.46,.01,.68,.03,.91,.02,.26,.03,.52,.03,1.04,0,.6-.07,.93-.13,1.19-.05,.22-.08,.38-.08,.76,0,.47,0,.7,.02,.94,0,.25,.02,.51,.02,1.01,0,.57-.05,.88-.1,1.15-.04,.22-.07,.4-.07,.8s.03,.56,.08,.78c.05,.27,.12,.58,.12,1.17,0,.42,.03,.61,.06,.83,.04,.26,.08,.56,.08,1.12,0,1.46-1.34,2.74-2.86,2.74-.6,0-.93-.07-1.19-.13-.22-.05-.38-.08-.75-.08-.46,0-.68,.01-.91,.03-.26,.02-.52,.03-1.04,.03-.41,0-.59,.03-.82,.07-.26,.04-.57,.09-1.13,.09s-.88-.05-1.15-.1c-.22-.04-.4-.07-.8-.07-.37,0-.52,.04-.74,.09-.27,.06-.6,.15-1.21,.15-.57,0-.88-.05-1.14-.1-.22-.04-.4-.07-.8-.07h-1.95c-.38,0-.53,.03-.75,.08-.27,.06-.6,.14-1.2,.14-.47,0-.71,0-.95,.01-.25,0-.5,.01-1,.01Z"/><path d="M143.53,94.86c-.57,0-.88-.07-1.13-.12-.21-.04-.36-.08-.72-.08-.52,0-.78-.03-1.04-.06-.2-.02-.4-.05-.81-.05-.48,0-.72,0-.96-.01-.22,0-.45-.01-.9-.01h-1.85c-.63,0-1.16-.27-1.46-.69-.39-.13-.7-.38-.89-.71-.3-.53-.27-1.19,.09-1.81,.17-.29,.21-.42,.26-.63,.07-.27,.16-.59,.47-1.11,.26-.45,.42-.66,.58-.87,.12-.17,.25-.33,.46-.69,.28-.47,.46-.69,.62-.89,.14-.17,.25-.31,.45-.64,.14-.24,.16-.34,.19-.54,.05-.29,.11-.68,.44-1.25,.25-.43,.39-.63,.53-.84,.12-.18,.24-.36,.47-.74,.25-.43,.4-.64,.54-.85,.12-.18,.25-.36,.46-.73,.21-.35,.29-.54,.37-.72,.11-.24,.21-.49,.48-.94,.26-.44,.41-.65,.55-.85,.12-.17,.25-.35,.46-.72,.19-.33,.25-.49,.33-.69,.09-.25,.2-.52,.48-1,.34-.57,.66-.81,.89-.99,.16-.12,.25-.19,.38-.42,.16-.27,.19-.4,.24-.6,.07-.28,.15-.62,.46-1.15,.31-.52,.56-.76,.76-.95,.15-.14,.25-.24,.41-.52,.37-.62,1.03-1.01,1.74-1.01,.65,0,1.23,.33,1.55,.88,0,.01,.01,.02,.02,.03,.22,.15,.41,.35,.54,.58,.29,.49,.38,.8,.46,1.04,.07,.2,.11,.35,.29,.66,.18,.32,.29,.44,.43,.6,.17,.19,.37,.43,.65,.91,.21,.37,.33,.55,.45,.72,.14,.21,.28,.42,.53,.85,.3,.52,.38,.85,.45,1.11,.05,.2,.09,.33,.25,.62,.22,.38,.34,.56,.46,.75,.13,.21,.26,.41,.51,.83,.04,.07,.08,.14,.12,.2,.09,.11,.19,.24,.3,.41,.2,.25,.38,.48,.64,.93,.32,.55,.39,.93,.44,1.21,.03,.17,.05,.27,.14,.45l.06,.06c.19,.19,.43,.43,.73,.94,.09,.12,.23,.31,.4,.6,.2,.28,.36,.49,.62,.93,.07,.09,.21,.29,.4,.62,.32,.55,.39,.93,.44,1.2,.03,.15,.04,.24,.1,.37,.06,.07,.11,.13,.17,.19,.18,.19,.4,.43,.69,.92,.11,.18,.19,.33,.26,.45l.09,.15c.24,.42,.35,.65,.46,.87,.09,.19,.19,.38,.4,.75,.34,.58,.36,1.25,.05,1.78-.32,.55-.93,.88-1.63,.88-.35,0-.5,.03-.71,.08-.25,.06-.57,.13-1.15,.13-.5,0-.75-.02-1-.04-.21-.02-.43-.03-.85-.03-.56,0-.85-.06-1.11-.1-.21-.04-.37-.07-.74-.07-.42,0-.63,.02-.85,.03-.25,.02-.5,.04-1,.04h-1.85c-.5,0-.74-.02-.99-.03-.21-.01-.43-.03-.86-.03s-.65,.01-.87,.02c-.25,.01-.49,.03-.98,.03-.29,0-.39,.04-.58,.11-.27,.1-.63,.23-1.27,.23Z"/><path d="M81.88,159.6c-.25,0-.5-.02-.74-.06-.53-.09-.96-.33-1.34-.54-.18-.1-.36-.2-.54-.27l-.35-.12c-.5-.17-1.01-.35-1.51-.64-.17-.1-.36-.19-.54-.27-.4-.18-.85-.39-1.25-.73-.41-.34-.66-.76-.89-1.13-.03-.06-.07-.11-.1-.17l-.18-.15c-.4-.32-.81-.66-1.18-1.09-.39-.47-.77-1.02-1.15-1.67-.26-.45-.39-.92-.5-1.33-.05-.19-.1-.38-.17-.57-.21-.58-.42-1.21-.55-1.92-.03-.19-.1-.38-.17-.58-.14-.41-.29-.88-.29-1.41,0-.63,.06-1.32,.19-2.04,.1-.54,.36-.98,.57-1.34,.12-.19,.23-.38,.28-.52,.06-.17,.11-.34,.17-.5,.13-.42,.28-.91,.55-1.37,.29-.49,.63-.88,.96-1.26l.27-.32c.13-.16,.24-.33,.35-.5,.23-.36,.49-.76,.89-1.1,.41-.34,.87-.58,1.27-.8,.16-.08,.31-.16,.47-.25,.16-.09,.32-.2,.48-.31,.37-.25,.78-.53,1.28-.71l.1-.04c.56-.21,1.2-.44,1.87-.55,.2-.04,.41-.05,.62-.05,.27,0,.54,.03,.81,.05,.21,.02,.42,.04,.62,.04,.64,0,1.32,.02,2.02,.14,.53,.09,.98,.29,1.38,.47,.17,.08,.34,.15,.52,.22,.19,.07,.38,.12,.57,.17,.41,.11,.88,.24,1.33,.5,.16,.09,.32,.17,.48,.26,.41,.21,.87,.46,1.28,.8,.45,.38,.8,.81,1.14,1.23l.24,.29c.29,.35,.58,.76,.9,1.27,.11,.1,.23,.19,.34,.29,.34,.27,.73,.58,1,1.05,.3,.52,.49,1.06,.68,1.59l.11,.3c.18,.49,.24,1,.29,1.44,.02,.19,.04,.38,.08,.56,.03,.19,.08,.37,.13,.56,.11,.43,.23,.91,.23,1.44,0,.62,0,1.35-.13,2.04-.12,.72-.38,1.41-.58,1.97-.23,.64-.52,1.26-.87,1.85l-.05,.09c-.3,.52-.64,1.11-1.07,1.62-.34,.41-.75,.72-1.11,.99-.15,.11-.3,.22-.44,.34-.51,.43-1.06,.75-1.59,1.05l-.1,.06c-.17,.1-.33,.21-.49,.32-.37,.25-.78,.53-1.28,.71-.57,.21-1.16,.31-1.72,.4l-.27,.05c-.66,.12-1.35,.12-1.9,.12l-.13-1v1c-.2,0-.39,.01-.59,.03-.24,.01-.48,.03-.71,.03Z"/><path d="M139.5,159.73c-.95,0-1.85-.58-2.35-1.48-.9-.47-1.49-1.41-1.49-2.42,0-.57,.08-.89,.15-1.14,.05-.2,.08-.32,.08-.65,0-.42-.01-.63-.03-.84-.01-.24-.03-.48-.03-.95s.02-.74,.05-.99c.02-.2,.04-.4,.04-.8,0-.34-.03-.48-.08-.68-.05-.25-.12-.55-.12-1.11s.05-.84,.1-1.08c.04-.2,.07-.36,.07-.71,0-.25-.03-.33-.11-.51-.11-.27-.26-.63-.26-1.28,0-.5,.03-.75,.05-1,.02-.2,.04-.4,.04-.79,0-.54,.06-.84,.1-1.08,.04-.2,.07-.36,.07-.71,0-.39-.02-.59-.04-.79-.03-.25-.05-.5-.05-1s.02-.74,.04-.99c.02-.2,.04-.4,.04-.81,0-1.52,1.19-2.76,2.65-2.76,.47,0,.71,0,.94,0,.23,0,.45,0,.9,0,.57,0,.88,.07,1.14,.12,.21,.05,.36,.08,.71,.08,.44,0,.67,0,.89-.02,.24,0,.48-.02,.96-.02,.31,0,.43-.04,.62-.1,.27-.09,.61-.19,1.23-.19,.47,0,.7,0,.94,0,.23,0,.46,0,.91,0,.65,0,1.02,.14,1.28,.25,.19,.07,.29,.11,.56,.11,.38,0,.55-.03,.77-.06,.25-.04,.54-.09,1.08-.09s.78,.03,1.04,.06c.2,.02,.41,.05,.81,.05,.32,0,.46-.04,.65-.09,.27-.08,.6-.17,1.2-.17,.54,0,.83,.04,1.08,.08,.22,.03,.39,.06,.77,.06,1.54,0,2.84,1.22,2.84,2.66,0,.11,0,.21,0,.29,.07,.26,.11,.53,.11,.81,0,.37,.04,.52,.1,.74,.07,.27,.16,.62,.16,1.24,0,.56-.04,.86-.08,1.13-.03,.23-.06,.42-.06,.85s.03,.58,.07,.81c.05,.27,.11,.58,.11,1.17,0,.46,.01,.69,.03,.93,.02,.26,.03,.53,.03,1.05,0,.6-.07,.94-.13,1.21-.05,.22-.09,.39-.09,.77,0,.48,0,.71,.02,.95,0,.26,.02,.51,.02,1.03,0,.58-.05,.89-.1,1.16-.04,.23-.07,.41-.07,.82s.04,.57,.08,.8c.05,.28,.12,.59,.12,1.18,0,.42,.03,.62,.06,.85,.04,.27,.08,.57,.08,1.13,0,1.47-1.35,2.76-2.89,2.76-.61,0-.94-.08-1.21-.14-.22-.05-.39-.09-.77-.09-.46,0-.7,.01-.93,.03-.26,.02-.53,.03-1.05,.03-.41,0-.6,.03-.83,.07-.27,.04-.57,.09-1.15,.09s-.89-.05-1.16-.1c-.23-.04-.41-.07-.82-.07-.38,0-.53,.04-.75,.09-.27,.07-.61,.15-1.22,.15-.58,0-.89-.05-1.16-.1-.23-.04-.41-.07-.82-.07h-1.98c-.38,0-.54,.03-.77,.08-.27,.06-.6,.14-1.21,.14-.48,0-.72,0-.96,.01-.25,0-.51,.01-1.02,.01Z"/><path d="M113.28,160.01c-.57,0-.89-.07-1.14-.12-.21-.04-.37-.08-.74-.08-.53,0-.79-.03-1.06-.06-.21-.02-.41-.05-.82-.05-.48,0-.73,0-.97-.01-.23,0-.45-.01-.91-.01h-1.88c-.64,0-1.17-.27-1.48-.7-.4-.13-.71-.38-.9-.72-.31-.54-.27-1.2,.09-1.82,.17-.29,.21-.43,.27-.64,.07-.27,.17-.6,.47-1.13,.27-.46,.43-.67,.59-.88,.13-.17,.25-.34,.46-.7,.28-.47,.46-.7,.63-.9,.14-.17,.25-.31,.46-.65,.14-.24,.16-.35,.19-.56,.05-.29,.11-.69,.45-1.26,.26-.44,.4-.64,.54-.85,.12-.18,.25-.37,.47-.75,.26-.44,.4-.65,.55-.86,.12-.18,.25-.36,.47-.74,.21-.35,.29-.54,.37-.73,.11-.25,.21-.49,.49-.96,.26-.44,.41-.65,.56-.86,.12-.18,.25-.35,.47-.73,.2-.33,.26-.5,.34-.7,.09-.25,.2-.53,.48-1.01,.34-.58,.66-.82,.9-1,.17-.13,.25-.19,.39-.43,.16-.28,.2-.41,.25-.61,.07-.28,.15-.62,.47-1.16,.31-.53,.57-.77,.77-.96,.15-.14,.25-.24,.42-.53,.37-.63,1.04-1.02,1.76-1.02,.65,0,1.24,.33,1.56,.89,0,.01,.01,.02,.02,.04,.23,.15,.41,.35,.55,.59,.29,.5,.39,.8,.47,1.05,.07,.21,.12,.36,.3,.67,.19,.32,.3,.45,.44,.61,.17,.19,.38,.43,.66,.92,.22,.38,.34,.55,.46,.73,.14,.21,.29,.42,.54,.86,.3,.52,.39,.86,.46,1.12,.05,.21,.09,.34,.26,.63,.22,.38,.34,.57,.46,.76,.13,.21,.27,.42,.52,.85,.04,.07,.08,.14,.12,.2,.09,.11,.19,.24,.3,.41,.21,.25,.39,.48,.65,.94,.32,.56,.39,.94,.44,1.23,.03,.17,.05,.28,.14,.46l.06,.06c.19,.2,.44,.44,.74,.96,.12,.15,.26,.36,.41,.61,.21,.29,.37,.5,.63,.94,.07,.1,.21,.3,.4,.63,.32,.55,.39,.94,.45,1.21,.03,.15,.05,.25,.1,.38,.06,.07,.12,.13,.17,.2,.18,.19,.4,.44,.69,.94,.11,.19,.2,.34,.26,.47l.08,.13c.25,.44,.36,.67,.47,.89,.09,.2,.19,.39,.4,.77,.34,.59,.36,1.26,.05,1.79-.32,.55-.93,.88-1.64,.88-.36,0-.51,.03-.72,.08-.26,.06-.58,.13-1.16,.13-.51,0-.76-.02-1.02-.04-.22-.02-.43-.03-.87-.03-.56,0-.86-.06-1.12-.11-.21-.04-.38-.07-.76-.07-.43,0-.65,.02-.86,.03-.25,.02-.51,.04-1.02,.04h-1.88c-.5,0-.75-.02-1-.03-.22-.01-.44-.03-.87-.03s-.66,.01-.88,.02c-.25,.01-.5,.03-1,.03-.29,0-.4,.04-.6,.11-.27,.1-.64,.23-1.28,.23Z"/></g><g><g><g><path class="cls-2" d="M157.95,114.41c0,.62-.03,1.26-.13,1.85s-.43,1.18-.63,1.74-.47,1.14-.77,1.66-.83,.89-1.22,1.36-.77,.92-1.24,1.31-.99,.66-1.52,.97-.98,.72-1.56,.93-1.18,.21-1.79,.32-1.17,.51-1.79,.51-1.24-.14-1.84-.25-1.16-.42-1.73-.63-1.17-.38-1.69-.69-.98-.72-1.45-1.11-.97-.75-1.36-1.22-.73-.98-1.04-1.51-.38-1.15-.59-1.73-.39-1.12-.5-1.73-.44-1.18-.44-1.8,.07-1.25,.17-1.84,.59-1.1,.8-1.67,.33-1.17,.64-1.69,.73-.96,1.12-1.42,.64-1.07,1.11-1.46,1.05-.63,1.58-.94,1.01-.73,1.59-.94,1.17-.43,1.78-.54,1.23,.06,1.85,.06,1.23,.02,1.82,.12,1.14,.42,1.71,.63,1.2,.29,1.73,.59,1.13,.55,1.59,.94,.85,.91,1.24,1.37,.73,.99,1.04,1.52,.4,1.15,.61,1.73,.38,1.14,.48,1.74,.42,1.18,.42,1.8Z"/><path class="cls-3" d="M158.88,115.39c0,.62-.01,1.26-.11,1.85s-.32,1.21-.53,1.77-.48,1.15-.78,1.67-.62,1.09-1.01,1.55-.94,.8-1.41,1.2-1,.69-1.53,1-1.01,.73-1.59,.94-1.19,.29-1.8,.4-1.21,.1-1.83,.1-1.26,.11-1.85,.01-1.13-.54-1.7-.75-1.16-.38-1.68-.69-1.16-.5-1.62-.89-.7-1.04-1.09-1.5-.84-.89-1.15-1.41-.6-1.07-.81-1.64-.15-1.2-.26-1.81-.22-1.17-.22-1.79-.1-1.24,0-1.83,.43-1.15,.63-1.72,.26-1.23,.56-1.75,.8-.94,1.19-1.4,.82-.89,1.29-1.28,.85-.93,1.38-1.24,1.1-.6,1.67-.81,1.22-.21,1.83-.32,1.21-.16,1.83-.16,1.2,.27,1.79,.37,1.18,.21,1.75,.42,1.07,.53,1.59,.83,1.12,.49,1.59,.88,.78,.92,1.17,1.39,1.03,.76,1.34,1.29,.49,1.14,.7,1.71,.21,1.2,.32,1.81,.34,1.19,.34,1.81Z"/><polygon class="cls-2" points="144.1 108.77 143.39 108.82 142.76 108.7 142.12 108.7 141.49 108.54 140.85 108.58 140.31 108.55 140.23 108.22 140.85 108.33 141.49 108.07 142.12 108.14 142.75 108.25 143.39 108.18 144 108.23 144.1 108.77"/><polygon class="cls-2" points="150.68 113.73 149.97 113.77 149.34 113.65 148.71 113.65 148.07 113.5 147.44 113.53 146.89 113.5 146.81 113.17 147.44 113.28 148.07 113.02 148.7 113.09 149.33 113.2 149.97 113.13 150.58 113.18 150.68 113.73"/><polygon class="cls-2" points="157.85 118.16 157.15 118.21 156.51 118.09 155.88 118.09 155.25 117.93 154.61 117.97 154.07 117.94 153.99 117.6 154.61 117.72 155.24 117.46 155.88 117.52 156.51 117.64 157.14 117.57 157.76 117.62 157.85 118.16"/><polygon class="cls-2" points="144.1 118.16 143.39 118.21 142.76 118.09 142.12 118.09 141.49 117.93 140.85 117.97 140.31 117.94 140.23 117.6 140.85 117.72 141.49 117.46 142.12 117.52 142.75 117.64 143.39 117.57 144 117.62 144.1 118.16"/><polygon class="cls-2" points="149.33 122.88 148.62 122.92 147.98 122.8 147.35 122.81 146.72 122.65 146.08 122.68 145.54 122.66 145.46 122.32 146.08 122.44 146.71 122.18 147.35 122.24 147.98 122.36 148.62 122.29 149.23 122.34 149.33 122.88"/></g><g><path class="cls-2" d="M125.9,124.94c-.91,0-.91-.23-1.82-.23s-.91,.06-1.83,.06-.91,.16-1.83,.16-.91-.18-1.83-.18-.91,.24-1.83,.24-.91-.17-1.83-.17-.91,0-1.83,0-.91,.23-1.83,.23-.91,.03-1.83,.03-.91-.17-1.83-.17c-.93,0-1.72-.79-1.72-1.72,0-.88,.23-.88,.23-1.77s-.05-.88-.05-1.77,.08-.88,.08-1.77-.19-.88-.19-1.77,.16-.88,.16-1.77c0-.88-.37-.88-.37-1.77s.09-.88,.09-1.77,.16-.89,.16-1.77c0-.89-.1-.89-.1-1.77s.08-.89,.08-1.77c0-.93,.7-1.74,1.63-1.74s.91,.02,1.82,.02,.91,.2,1.83,.2,.91-.03,1.83-.03,.91-.29,1.83-.29,.91,.01,1.83,.01,.91,.35,1.83,.35,.91-.14,1.83-.14,.91,.1,1.83,.1,.91-.26,1.83-.26,.91,.14,1.83,.14,1.82,.71,1.82,1.64c0,.88,.06,.88,.06,1.77s-.23,.88-.23,1.77,.04,.88,.04,1.77-.17,.88-.17,1.77,.2,.88,.2,1.77,.15,.88,.15,1.77-.1,.88-.1,1.77-.02,.89-.02,1.77-.18,.89-.18,1.77,.02,.89,.02,1.77c0,.93-.66,1.75-1.59,1.75Z"/><path class="cls-3" d="M126.31,125.92c-.98,0-.98-.22-1.95-.22s-.98,.06-1.95,.06-.98,.16-1.95,.16-.98-.17-1.95-.17-.98,.24-1.95,.24-.98-.17-1.95-.17-.98,0-1.95,0-.98,.22-1.96,.22-.98,.03-1.96,.03c-.93,0-1.72-.95-1.72-1.88,0-.98,0-.98,0-1.95s.22-.98,.22-1.95-.05-.98-.05-1.95,.08-.98,.08-1.95-.19-.98-.19-1.95,.16-.98,.16-1.95c0-.98-.36-.98-.36-1.95s.09-.98,.09-1.96,.16-.98,.16-1.96c0-.93,.69-1.71,1.62-1.71,.98,0,.98,.08,1.95,.08s.98-.1,1.95-.1,.98,.02,1.95,.02,.98,.19,1.95,.19,.98-.03,1.95-.03,.98-.28,1.95-.28,.98,.01,1.95,.01,.98,.34,1.96,.34,.98-.14,1.96-.14c.93,0,1.52,.7,1.52,1.62,0,.98,.25,.98,.25,1.95s-.14,.98-.14,1.95,.18,.98,.18,1.95,.06,.98,.06,1.95-.22,.98-.22,1.95,.04,.98,.04,1.95c0,.98-.17,.98-.17,1.95,0,.98,.19,.98,.19,1.96s.14,.98,.14,1.96c0,.93-.94,1.74-1.86,1.74Z"/><polygon class="cls-2" points="110.21 107.7 109.5 107.74 108.87 107.62 108.24 107.63 107.6 107.47 106.97 107.51 106.42 107.48 106.34 107.14 106.97 107.26 107.6 107 108.23 107.06 108.87 107.18 109.5 107.11 110.11 107.16 110.21 107.7"/><polygon class="cls-2" points="114.93 113.14 114.22 113.19 113.59 113.07 112.95 113.07 112.32 112.91 111.69 112.95 111.14 112.92 111.06 112.59 111.68 112.7 112.32 112.44 112.95 112.51 113.58 112.62 114.22 112.55 114.83 112.6 114.93 113.14"/><polygon class="cls-2" points="120.84 117.93 120.13 117.97 119.5 117.85 118.86 117.86 118.23 117.7 117.59 117.73 117.05 117.7 116.97 117.37 117.59 117.49 118.23 117.23 118.86 117.29 119.49 117.41 120.13 117.34 120.74 117.39 120.84 117.93"/><polygon class="cls-2" points="126.07 122.64 125.36 122.69 124.72 122.57 124.09 122.57 123.46 122.41 122.82 122.45 122.28 122.42 122.2 122.09 122.82 122.2 123.45 121.94 124.09 122.01 124.72 122.12 125.36 122.05 125.97 122.1 126.07 122.64"/><polygon class="cls-2" points="110.92 122.64 110.21 122.69 109.58 122.57 108.94 122.57 108.31 122.41 107.68 122.45 107.13 122.42 107.05 122.09 107.67 122.2 108.31 121.94 108.94 122.01 109.57 122.12 110.21 122.05 110.82 122.1 110.92 122.64"/><polygon class="cls-2" points="126.07 106.51 125.36 106.55 124.72 106.44 124.09 106.44 123.46 106.28 122.82 106.32 122.28 106.29 122.2 105.95 122.82 106.07 123.45 105.81 124.09 105.87 124.72 105.99 125.36 105.92 125.97 105.97 126.07 106.51"/></g><g><path class="cls-2" d="M82.58,104.93c-.47,.8-.7,.67-1.18,1.47s-.23,.95-.7,1.75-.8,.61-1.28,1.41-.34,.89-.81,1.69-.54,.77-1.02,1.57-.38,.86-.85,1.67-.53,.77-1,1.58-.52,.78-1,1.58c-.47,.8-.16,.99-.63,1.8s-.6,.73-1.07,1.54-.57,.75-1.04,1.56-.26,.94-.73,1.74c-.36,.61-.1,1.13,.61,1.13,.95,0,.95,0,1.89,0s.95,.03,1.9,.03,.95,.11,1.9,.11,.95,.2,1.9,.2,.95-.35,1.9-.35,.95-.05,1.9-.05,.95,.06,1.9,.06,.95,0,1.9,0,.95-.08,1.9-.08,.95,.18,1.9,.18,.95,.07,1.9,.07,.95-.21,1.9-.21c.7,0,1.07-.55,.72-1.16-.47-.8-.41-.84-.89-1.64s-.65-.7-1.12-1.51-.18-.98-.66-1.78-.57-.75-1.04-1.55-.68-.68-1.16-1.49c-.47-.8-.18-.98-.65-1.79s-.61-.73-1.08-1.53-.51-.78-.99-1.59-.25-.94-.73-1.74-.54-.77-1.01-1.57-.63-.71-1.11-1.52-.3-.91-.78-1.71c-.35-.6-1.22-.47-1.58,.13Z"/><path class="cls-3" d="M83.13,105.54c-.46,.8-.69,.67-1.15,1.47s-.22,.94-.69,1.75-.79,.62-1.25,1.42-.33,.88-.79,1.69-.53,.77-.99,1.57-.37,.86-.83,1.66-.52,.77-.98,1.58-.51,.78-.98,1.58-.15,.98-.61,1.79-.59,.73-1.05,1.54-.55,.75-1.02,1.56-.25,.93-.71,1.73c-.35,.61-.09,1.12,.61,1.12,.93,0,.93,0,1.85,0s.93,.03,1.86,.03,.93,.11,1.85,.11,.93,.19,1.86,.19,.93-.34,1.86-.34,.93-.05,1.86-.05,.93,.06,1.86,.06,.93,0,1.86,0,.93-.07,1.86-.07,.93,.17,1.86,.17,.93,.07,1.86,.07,.93-.21,1.86-.21c.7,0,1.07-.55,.72-1.16-.46-.8-.4-.84-.87-1.64s-.63-.71-1.1-1.51-.18-.97-.64-1.77-.55-.75-1.02-1.55-.67-.69-1.13-1.49-.17-.97-.63-1.78-.59-.73-1.06-1.53-.5-.78-.97-1.58-.24-.93-.71-1.73-.53-.77-.99-1.57c-.46-.8-.62-.72-1.09-1.52s-.29-.9-.76-1.71c-.35-.61-1.23-.49-1.58,.12Z"/><polygon class="cls-2" points="92.41 123.66 91.71 123.7 91.07 123.59 90.44 123.59 89.81 123.43 89.17 123.47 88.63 123.44 88.54 123.1 89.17 123.22 89.8 122.96 90.43 123.02 91.07 123.14 91.7 123.07 92.32 123.12 92.41 123.66"/><polygon class="cls-2" points="83.01 119.24 82.3 119.29 81.67 119.17 81.03 119.17 80.4 119.01 79.77 119.05 79.22 119.02 79.14 118.69 79.76 118.8 80.4 118.54 81.03 118.61 81.66 118.72 82.3 118.65 82.91 118.7 83.01 119.24"/><polygon class="cls-2" points="83.34 111.54 82.63 111.58 82 111.46 81.37 111.47 80.73 111.31 80.1 111.34 79.55 111.31 79.47 110.98 80.1 111.1 80.73 110.84 81.36 110.9 81.99 111.01 82.63 110.95 83.24 111 83.34 111.54"/><polygon class="cls-2" points="87.7 116.34 86.99 116.38 86.36 116.26 85.72 116.26 85.09 116.11 84.45 116.14 83.91 116.11 83.83 115.78 84.45 115.89 85.09 115.64 85.72 115.7 86.35 115.81 86.99 115.75 87.6 115.79 87.7 116.34"/><polygon class="cls-2" points="76.46 123.19 75.75 123.24 75.12 123.12 74.49 123.12 73.86 122.96 73.22 123 72.67 122.97 72.59 122.64 73.22 122.75 73.85 122.49 74.48 122.55 75.12 122.67 75.75 122.6 76.37 122.65 76.46 123.19"/></g></g><g><g><path class="cls-2" d="M125.9,81.83c0,.62-.03,1.26-.13,1.85s-.43,1.17-.63,1.74-.47,1.14-.77,1.66-.83,.89-1.22,1.36-.77,.91-1.23,1.31-.99,.66-1.51,.96-.98,.72-1.55,.93-1.18,.21-1.78,.32-1.17,.51-1.78,.51-1.24-.14-1.83-.24-1.16-.42-1.72-.62-1.16-.38-1.69-.68-.98-.72-1.45-1.11-.97-.75-1.36-1.22-.73-.98-1.04-1.51-.38-1.15-.59-1.72-.39-1.12-.49-1.73-.44-1.17-.44-1.79,.07-1.25,.17-1.84,.59-1.1,.8-1.67,.33-1.17,.64-1.69,.73-.96,1.12-1.42,.64-1.07,1.11-1.46,1.05-.63,1.57-.94,1.01-.72,1.58-.93,1.17-.43,1.77-.54,1.23,.06,1.85,.06,1.23,.02,1.82,.12,1.14,.42,1.7,.63,1.2,.29,1.72,.59,1.12,.55,1.59,.94,.85,.9,1.24,1.37,.73,.99,1.04,1.51,.4,1.15,.61,1.72,.37,1.13,.48,1.74c.1,.59,.42,1.18,.42,1.8Z"/><path class="cls-3" d="M126.83,82.81c0,.62-.01,1.25-.11,1.84s-.32,1.2-.53,1.77-.48,1.15-.78,1.67-.62,1.08-1.01,1.55-.94,.8-1.41,1.19-1,.69-1.53,1-1.01,.73-1.58,.94-1.19,.29-1.8,.4-1.21,.1-1.83,.1-1.26,.11-1.85,.01-1.13-.54-1.69-.75-1.16-.38-1.68-.68-1.16-.5-1.62-.89-.69-1.03-1.09-1.5-.84-.88-1.15-1.41-.6-1.07-.81-1.64-.15-1.2-.26-1.81-.22-1.17-.22-1.79-.1-1.24,0-1.83,.43-1.15,.63-1.71c.21-.58,.26-1.23,.56-1.75s.8-.94,1.19-1.4,.82-.89,1.29-1.28,.85-.93,1.37-1.23,1.09-.6,1.67-.81,1.22-.21,1.82-.32,1.2-.16,1.82-.16,1.19,.27,1.78,.37,1.18,.21,1.75,.41,1.07,.53,1.59,.83,1.12,.49,1.58,.88,.78,.92,1.17,1.39,1.03,.76,1.34,1.29,.49,1.13,.7,1.71,.21,1.2,.32,1.8,.34,1.19,.34,1.8Z"/><polygon class="cls-2" points="112.07 76.21 111.36 76.26 110.73 76.14 110.1 76.14 109.47 75.98 108.84 76.02 108.29 75.99 108.21 75.66 108.83 75.77 109.47 75.51 110.1 75.58 110.73 75.69 111.36 75.62 111.97 75.67 112.07 76.21"/><polygon class="cls-2" points="118.64 81.15 117.93 81.2 117.3 81.08 116.67 81.08 116.04 80.92 115.4 80.96 114.86 80.93 114.78 80.6 115.4 80.71 116.03 80.45 116.66 80.51 117.3 80.63 117.93 80.56 118.54 80.61 118.64 81.15"/><polygon class="cls-2" points="125.8 85.58 125.09 85.62 124.46 85.5 123.83 85.51 123.2 85.35 122.56 85.39 122.02 85.36 121.94 85.02 122.56 85.14 123.19 84.88 123.82 84.94 124.46 85.06 125.09 84.99 125.7 85.04 125.8 85.58"/><polygon class="cls-2" points="112.07 85.58 111.36 85.62 110.73 85.5 110.1 85.51 109.47 85.35 108.84 85.39 108.29 85.36 108.21 85.02 108.83 85.14 109.47 84.88 110.1 84.94 110.73 85.06 111.36 84.99 111.97 85.04 112.07 85.58"/><polygon class="cls-2" points="117.29 90.28 116.58 90.33 115.95 90.21 115.32 90.21 114.69 90.05 114.05 90.09 113.51 90.06 113.43 89.73 114.05 89.84 114.68 89.58 115.31 89.65 115.95 89.76 116.58 89.69 117.19 89.74 117.29 90.28"/></g><g><path class="cls-2" d="M91.2,92.35c-.91,0-.91-.23-1.82-.23s-.91,.06-1.82,.06-.91,.16-1.82,.16-.91-.18-1.82-.18-.91,.24-1.82,.24-.91-.17-1.82-.17-.91,0-1.82,0-.91,.23-1.82,.23-.91,.03-1.82,.03-.91-.17-1.82-.17c-.93,0-1.72-.79-1.72-1.71,0-.88,.23-.88,.23-1.76s-.05-.88-.05-1.76,.08-.88,.08-1.76-.19-.88-.19-1.76,.16-.88,.16-1.76-.37-.88-.37-1.76,.09-.88,.09-1.76c0-.88,.16-.88,.16-1.77s-.1-.88-.1-1.77,.08-.88,.08-1.77c0-.93,.7-1.73,1.63-1.73s.91,.02,1.82,.02,.91,.2,1.82,.2,.91-.03,1.82-.03,.91-.29,1.82-.29,.91,.01,1.82,.01,.91,.35,1.82,.35,.91-.14,1.82-.14,.91,.1,1.82,.1,.91-.26,1.82-.26,.91,.14,1.82,.14,1.82,.71,1.82,1.63c0,.88,.06,.88,.06,1.76s-.22,.88-.22,1.76,.04,.88,.04,1.76-.17,.88-.17,1.76,.2,.88,.2,1.76,.15,.88,.15,1.76c0,.88-.1,.88-.1,1.76s-.02,.88-.02,1.77-.18,.88-.18,1.77c0,.88,.02,.88,.02,1.77,0,.93-.66,1.74-1.58,1.74Z"/><path class="cls-3" d="M91.61,93.32c-.97,0-.97-.22-1.95-.22s-.97,.06-1.95,.06-.97,.16-1.95,.16-.97-.17-1.95-.17-.97,.23-1.95,.23-.97-.17-1.95-.17-.97,0-1.95,0-.98,.22-1.95,.22-.98,.03-1.95,.03c-.93,0-1.71-.95-1.71-1.88,0-.97,0-.97,0-1.95s.22-.97,.22-1.95-.05-.97-.05-1.95,.08-.97,.08-1.95-.19-.97-.19-1.95,.16-.97,.16-1.95c0-.97-.36-.97-.36-1.95s.09-.98,.09-1.95,.16-.98,.16-1.95c0-.93,.69-1.71,1.61-1.71,.97,0,.97,.08,1.95,.08s.97-.1,1.95-.1,.97,.02,1.95,.02,.97,.19,1.95,.19,.97-.03,1.95-.03,.97-.28,1.95-.28,.97,.01,1.95,.01,.98,.34,1.95,.34,.98-.14,1.95-.14c.93,0,1.52,.69,1.52,1.62,0,.97,.25,.97,.25,1.95s-.14,.97-.14,1.95,.18,.97,.18,1.95,.06,.97,.06,1.95-.22,.97-.22,1.95,.04,.97,.04,1.95-.17,.97-.17,1.95,.19,.98,.19,1.95,.14,.98,.14,1.95c0,.93-.93,1.74-1.86,1.74Z"/><polygon class="cls-2" points="75.55 75.14 74.84 75.18 74.21 75.06 73.58 75.07 72.95 74.91 72.32 74.95 71.77 74.92 71.69 74.58 72.31 74.7 72.94 74.44 73.58 74.5 74.21 74.62 74.84 74.55 75.45 74.6 75.55 75.14"/><polygon class="cls-2" points="80.26 80.57 79.55 80.62 78.92 80.5 78.29 80.5 77.65 80.34 77.02 80.38 76.48 80.35 76.4 80.02 77.02 80.13 77.65 79.87 78.28 79.94 78.91 80.05 79.55 79.98 80.16 80.03 80.26 80.57"/><polygon class="cls-2" points="86.15 85.34 85.45 85.39 84.81 85.27 84.18 85.27 83.55 85.12 82.92 85.15 82.37 85.12 82.29 84.79 82.92 84.9 83.55 84.65 84.18 84.71 84.81 84.82 85.44 84.76 86.06 84.8 86.15 85.34"/><polygon class="cls-2" points="91.37 90.05 90.66 90.1 90.03 89.98 89.4 89.98 88.77 89.82 88.13 89.86 87.59 89.83 87.51 89.49 88.13 89.61 88.76 89.35 89.39 89.41 90.03 89.53 90.66 89.46 91.27 89.51 91.37 90.05"/><polygon class="cls-2" points="76.26 90.05 75.55 90.1 74.92 89.98 74.29 89.98 73.65 89.82 73.02 89.86 72.48 89.83 72.4 89.49 73.02 89.61 73.65 89.35 74.28 89.41 74.91 89.53 75.55 89.46 76.16 89.51 76.26 90.05"/><polygon class="cls-2" points="91.37 73.95 90.66 74 90.03 73.88 89.4 73.88 88.77 73.72 88.13 73.76 87.59 73.73 87.51 73.4 88.13 73.51 88.76 73.25 89.39 73.32 90.03 73.43 90.66 73.36 91.27 73.41 91.37 73.95"/></g><g><path class="cls-2" d="M145.69,72.38c-.47,.8-.7,.67-1.18,1.47s-.23,.95-.7,1.75-.8,.61-1.27,1.41-.34,.88-.81,1.69-.54,.76-1.01,1.57-.37,.86-.85,1.66-.53,.77-1,1.57-.52,.77-.99,1.58-.16,.99-.63,1.79-.6,.73-1.07,1.53-.56,.75-1.04,1.56-.25,.93-.73,1.74c-.36,.61-.1,1.12,.61,1.12,.95,0,.95,0,1.89,0s.95,.03,1.89,.03,.95,.11,1.89,.11,.95,.2,1.89,.2,.95-.34,1.89-.34,.95-.05,1.89-.05,.95,.06,1.89,.06,.95,0,1.89,0,.95-.07,1.89-.07,.95,.18,1.89,.18,.95,.07,1.9,.07,.95-.21,1.9-.21c.7,0,1.07-.55,.71-1.16-.47-.8-.41-.84-.89-1.64s-.65-.7-1.12-1.5-.18-.97-.66-1.78-.56-.75-1.04-1.55-.68-.68-1.15-1.48-.18-.98-.65-1.78-.6-.73-1.08-1.53-.51-.78-.99-1.58c-.47-.8-.25-.93-.72-1.74s-.54-.77-1.01-1.57c-.47-.8-.63-.71-1.11-1.52s-.3-.91-.78-1.71c-.35-.6-1.22-.47-1.57,.13Z"/><path class="cls-3" d="M146.23,72.98c-.46,.8-.69,.67-1.15,1.47-.46,.8-.22,.94-.69,1.74s-.79,.61-1.25,1.42-.33,.88-.79,1.68c-.46,.8-.53,.76-.99,1.57s-.37,.86-.83,1.66-.52,.77-.98,1.57-.51,.77-.97,1.58-.15,.98-.61,1.78-.59,.73-1.05,1.53-.55,.75-1.02,1.56-.25,.93-.71,1.73c-.35,.61-.09,1.12,.61,1.12,.92,0,.92,0,1.85,0s.93,.03,1.85,.03,.93,.11,1.85,.11,.93,.19,1.85,.19,.93-.34,1.85-.34,.93-.05,1.85-.05,.93,.06,1.85,.06,.93,0,1.85,0,.93-.07,1.85-.07,.93,.17,1.85,.17,.93,.07,1.85,.07,.93-.21,1.85-.21c.7,0,1.07-.55,.72-1.15-.46-.8-.4-.83-.87-1.64s-.63-.7-1.1-1.51-.18-.97-.64-1.77-.55-.75-1.02-1.55-.67-.68-1.13-1.49-.17-.97-.63-1.77-.59-.73-1.06-1.53-.5-.78-.96-1.58-.24-.93-.71-1.73-.52-.77-.99-1.57-.62-.71-1.08-1.52-.29-.9-.76-1.7c-.35-.61-1.23-.48-1.58,.12Z"/><polygon class="cls-2" points="155.49 91.06 154.79 91.11 154.16 90.99 153.52 90.99 152.89 90.83 152.26 90.87 151.71 90.84 151.63 90.51 152.26 90.62 152.89 90.36 153.52 90.43 154.15 90.54 154.78 90.47 155.4 90.52 155.49 91.06"/><polygon class="cls-2" points="146.11 86.66 145.4 86.7 144.77 86.58 144.14 86.59 143.51 86.43 142.87 86.47 142.33 86.44 142.25 86.1 142.87 86.22 143.5 85.96 144.13 86.02 144.77 86.14 145.4 86.07 146.01 86.12 146.11 86.66"/><polygon class="cls-2" points="146.44 78.97 145.73 79.01 145.1 78.9 144.47 78.9 143.84 78.74 143.21 78.78 142.66 78.75 142.58 78.41 143.2 78.53 143.83 78.27 144.47 78.33 145.1 78.45 145.73 78.38 146.34 78.43 146.44 78.97"/><polygon class="cls-2" points="150.79 83.76 150.08 83.8 149.45 83.68 148.82 83.69 148.19 83.53 147.55 83.56 147.01 83.53 146.93 83.2 147.55 83.32 148.18 83.06 148.81 83.12 149.45 83.24 150.08 83.17 150.69 83.22 150.79 83.76"/><polygon class="cls-2" points="139.58 90.6 138.87 90.64 138.24 90.52 137.61 90.53 136.98 90.37 136.34 90.41 135.8 90.38 135.72 90.04 136.34 90.16 136.97 89.9 137.6 89.96 138.24 90.08 138.87 90.01 139.48 90.06 139.58 90.6"/></g></g><g><g><path class="cls-2" d="M92.65,146.81c0,.63-.03,1.28-.13,1.88s-.43,1.19-.64,1.76-.47,1.15-.78,1.68-.84,.91-1.23,1.38-.78,.93-1.25,1.32-1,.67-1.54,.98-.99,.73-1.58,.95-1.19,.21-1.81,.32-1.18,.52-1.81,.52-1.26-.14-1.86-.25-1.17-.42-1.75-.63-1.18-.39-1.71-.69-1-.73-1.47-1.12-.98-.76-1.38-1.23-.74-.99-1.05-1.53-.39-1.16-.6-1.75-.39-1.14-.5-1.75-.44-1.19-.44-1.82,.07-1.27,.17-1.87,.6-1.12,.81-1.69,.34-1.18,.64-1.71,.74-.97,1.13-1.44,.65-1.09,1.12-1.48,1.06-.64,1.6-.95,1.02-.74,1.61-.95,1.18-.44,1.8-.55,1.25,.06,1.88,.06,1.25,.02,1.84,.12,1.16,.43,1.73,.64,1.22,.29,1.75,.6,1.14,.56,1.61,.96,.86,.92,1.26,1.39,.74,1,1.05,1.54,.41,1.16,.62,1.75,.38,1.15,.49,1.76,.43,1.2,.43,1.83Z"/><path class="cls-3" d="M93.59,147.81c0,.63-.01,1.27-.12,1.87s-.33,1.22-.54,1.8-.48,1.16-.79,1.69-.63,1.1-1.02,1.57-.96,.81-1.43,1.21-1.01,.7-1.55,1.01-1.02,.74-1.61,.95-1.21,.3-1.82,.41-1.23,.1-1.85,.1-1.27,.12-1.87,.01-1.14-.55-1.72-.76-1.17-.39-1.7-.69-1.17-.5-1.64-.9-.7-1.05-1.1-1.52-.85-.9-1.16-1.43-.61-1.08-.82-1.66-.15-1.22-.26-1.83-.22-1.19-.22-1.81-.1-1.25,0-1.85,.43-1.16,.64-1.74,.26-1.25,.57-1.78,.81-.95,1.2-1.42,.83-.9,1.3-1.3,.86-.94,1.39-1.25,1.11-.61,1.69-.82,1.23-.22,1.85-.32,1.22-.16,1.85-.16,1.21,.27,1.81,.38,1.2,.21,1.77,.42,1.08,.54,1.61,.84,1.13,.5,1.61,.89,.79,.93,1.18,1.41,1.05,.77,1.36,1.31,.5,1.15,.71,1.73,.22,1.21,.32,1.83,.35,1.2,.35,1.83Z"/><polygon class="cls-2" points="78.62 141.11 77.91 141.16 77.27 141.04 76.63 141.04 75.99 140.88 75.34 140.92 74.79 140.89 74.71 140.55 75.34 140.66 75.98 140.4 76.62 140.46 77.26 140.58 77.91 140.51 78.53 140.56 78.62 141.11"/><polygon class="cls-2" points="85.29 146.12 84.57 146.17 83.93 146.05 83.29 146.05 82.65 145.89 82.01 145.93 81.45 145.9 81.37 145.56 82 145.67 82.64 145.41 83.28 145.48 83.93 145.59 84.57 145.52 85.19 145.57 85.29 146.12"/><polygon class="cls-2" points="92.55 150.61 91.83 150.66 91.19 150.54 90.55 150.54 89.91 150.38 89.27 150.42 88.72 150.39 88.64 150.05 89.27 150.17 89.91 149.9 90.55 149.97 91.19 150.08 91.83 150.01 92.45 150.06 92.55 150.61"/><polygon class="cls-2" points="78.62 150.61 77.91 150.66 77.27 150.54 76.63 150.54 75.99 150.38 75.34 150.42 74.79 150.39 74.71 150.05 75.34 150.17 75.98 149.9 76.62 149.97 77.26 150.08 77.91 150.01 78.53 150.06 78.62 150.61"/><polygon class="cls-2" points="83.92 155.39 83.2 155.43 82.56 155.31 81.92 155.31 81.28 155.15 80.64 155.19 80.08 155.16 80 154.82 80.63 154.94 81.27 154.68 81.91 154.74 82.56 154.86 83.2 154.79 83.82 154.84 83.92 155.39"/></g><g><path class="cls-2" d="M156.57,157.48c-.92,0-.92-.23-1.85-.23s-.92,.06-1.85,.06-.92,.16-1.85,.16-.92-.18-1.85-.18-.92,.25-1.85,.25-.92-.18-1.85-.18-.92,0-1.85,0-.92,.23-1.85,.23-.93,.03-1.85,.03-.93-.17-1.85-.17c-.94,0-1.74-.8-1.74-1.74,0-.89,.23-.89,.23-1.79,0-.89-.05-.89-.05-1.79,0-.9,.09-.9,.09-1.79s-.2-.9-.2-1.79,.16-.9,.16-1.79-.37-.89-.37-1.79,.09-.9,.09-1.79,.17-.9,.17-1.79-.1-.9-.1-1.79,.08-.9,.08-1.79c0-.94,.71-1.76,1.65-1.76s.92,.02,1.85,.02,.92,.2,1.85,.2,.92-.03,1.85-.03,.92-.29,1.85-.29,.92,.01,1.85,.01,.92,.36,1.85,.36,.92-.15,1.85-.15,.92,.1,1.85,.1,.93-.26,1.85-.26,.93,.14,1.85,.14,1.84,.72,1.84,1.66c0,.89,.07,.89,.07,1.79s-.23,.89-.23,1.79,.04,.9,.04,1.79-.18,.9-.18,1.79,.2,.9,.2,1.79,.15,.89,.15,1.79-.1,.9-.1,1.79-.02,.9-.02,1.79-.18,.9-.18,1.79,.02,.9,.02,1.79c0,.94-.67,1.77-1.61,1.77Z"/><path class="cls-3" d="M156.98,158.47c-.99,0-.99-.22-1.98-.22s-.99,.06-1.98,.06-.99,.16-1.98,.16-.99-.17-1.98-.17-.99,.24-1.98,.24-.99-.17-1.98-.17-.99,0-1.98,0-.99,.22-1.98,.22-.99,.03-1.98,.03c-.94,0-1.74-.97-1.74-1.9,0-.99,0-.99,0-1.98s.22-.99,.22-1.98-.05-.99-.05-1.98,.08-.99,.08-1.98-.19-.99-.19-1.98,.16-.99,.16-1.98c0-.99-.36-.99-.36-1.98s.09-.99,.09-1.98c0-.99,.16-.99,.16-1.98,0-.94,.7-1.73,1.64-1.73,.99,0,.99,.08,1.98,.08s.99-.1,1.98-.1,.99,.02,1.98,.02,.99,.19,1.98,.19,.99-.03,1.98-.03,.99-.28,1.98-.28,.99,.01,1.98,.01,.99,.35,1.98,.35,.99-.14,1.98-.14c.94,0,1.54,.7,1.54,1.64,0,.99,.25,.99,.25,1.98,0,.99-.14,.99-.14,1.98s.18,.99,.18,1.98,.06,.99,.06,1.98-.22,.99-.22,1.98,.04,.99,.04,1.98-.17,.99-.17,1.98,.2,.99,.2,1.98c0,.99,.14,.99,.14,1.98,0,.94-.95,1.76-1.89,1.76Z"/><polygon class="cls-2" points="140.69 140.02 139.98 140.07 139.33 139.95 138.69 139.95 138.05 139.79 137.41 139.83 136.86 139.8 136.78 139.46 137.41 139.57 138.05 139.31 138.69 139.38 139.33 139.49 139.97 139.42 140.59 139.47 140.69 140.02"/><polygon class="cls-2" points="145.47 145.53 144.75 145.58 144.11 145.46 143.47 145.46 142.83 145.3 142.18 145.34 141.63 145.31 141.55 144.97 142.18 145.09 142.82 144.82 143.46 144.89 144.1 145 144.75 144.94 145.37 144.99 145.47 145.53"/><polygon class="cls-2" points="151.45 150.38 150.73 150.42 150.09 150.3 149.45 150.3 148.81 150.14 148.17 150.18 147.61 150.15 147.53 149.81 148.16 149.93 148.8 149.67 149.44 149.73 150.09 149.85 150.73 149.78 151.35 149.83 151.45 150.38"/><polygon class="cls-2" points="156.74 155.15 156.02 155.2 155.38 155.08 154.74 155.08 154.1 154.92 153.46 154.95 152.91 154.92 152.82 154.59 153.46 154.7 154.1 154.44 154.74 154.5 155.38 154.62 156.02 154.55 156.64 154.6 156.74 155.15"/><polygon class="cls-2" points="141.41 155.15 140.69 155.2 140.05 155.08 139.41 155.08 138.77 154.92 138.13 154.95 137.57 154.92 137.49 154.59 138.12 154.7 138.77 154.44 139.41 154.5 140.05 154.62 140.69 154.55 141.31 154.6 141.41 155.15"/><polygon class="cls-2" points="156.74 138.82 156.02 138.86 155.38 138.74 154.74 138.75 154.1 138.59 153.46 138.62 152.91 138.59 152.82 138.25 153.46 138.37 154.1 138.11 154.74 138.17 155.38 138.29 156.02 138.22 156.64 138.27 156.74 138.82"/></g><g><path class="cls-2" d="M115.48,137.22c-.48,.81-.71,.68-1.19,1.49s-.23,.96-.71,1.78-.81,.62-1.29,1.43-.34,.9-.82,1.71-.55,.78-1.03,1.59-.38,.87-.86,1.69-.54,.78-1.02,1.6-.53,.79-1.01,1.6-.16,1-.64,1.82-.61,.74-1.09,1.56-.57,.76-1.05,1.58-.26,.95-.74,1.76c-.36,.61-.1,1.14,.61,1.14,.96,0,.96,0,1.92,0s.96,.03,1.92,.03,.96,.11,1.92,.11,.96,.2,1.92,.2,.96-.35,1.92-.35,.96-.05,1.92-.05,.96,.06,1.92,.06,.96,0,1.92,0,.96-.08,1.92-.08,.96,.18,1.92,.18,.96,.07,1.92,.07,.96-.21,1.92-.21c.71,0,1.09-.56,.72-1.17-.48-.81-.42-.85-.9-1.66s-.66-.71-1.14-1.53-.19-.99-.66-1.8-.57-.76-1.05-1.57-.69-.69-1.17-1.51c-.48-.81-.18-.99-.66-1.81s-.61-.74-1.09-1.55-.52-.79-1-1.61-.25-.95-.73-1.76c-.48-.82-.54-.78-1.02-1.59s-.64-.72-1.12-1.54-.31-.92-.79-1.73c-.36-.61-1.24-.48-1.6,.13Z"/><path class="cls-3" d="M116.03,137.84c-.47,.81-.7,.68-1.17,1.49s-.23,.95-.7,1.77-.8,.62-1.27,1.44-.33,.89-.8,1.71-.54,.78-1.01,1.59-.37,.87-.84,1.68-.53,.78-1,1.59-.52,.79-.99,1.6-.15,1-.62,1.81c-.47,.81-.59,.74-1.06,1.56-.47,.81-.56,.76-1.03,1.58s-.25,.94-.72,1.76c-.35,.61-.09,1.14,.62,1.14,.94,0,.94,0,1.88,0s.94,.03,1.88,.03,.94,.11,1.88,.11,.94,.19,1.88,.19,.94-.34,1.88-.34,.94-.05,1.88-.05,.94,.06,1.88,.06,.94,0,1.88,0,.94-.07,1.88-.07,.94,.18,1.88,.18,.94,.07,1.88,.07,.94-.21,1.88-.21c.71,0,1.08-.56,.73-1.17-.47-.81-.41-.85-.88-1.66s-.64-.71-1.11-1.53-.18-.98-.65-1.79c-.47-.81-.56-.76-1.03-1.57-.47-.81-.68-.69-1.15-1.51s-.17-.99-.64-1.8-.6-.74-1.07-1.55-.51-.79-.98-1.6c-.47-.81-.25-.94-.72-1.76-.47-.81-.53-.78-1-1.59s-.63-.72-1.1-1.54-.3-.91-.77-1.73c-.35-.61-1.25-.49-1.6,.12Z"/><polygon class="cls-2" points="125.43 156.18 124.71 156.22 124.07 156.1 123.43 156.11 122.79 155.94 122.15 155.98 121.59 155.95 121.51 155.61 122.14 155.73 122.79 155.47 123.42 155.53 124.07 155.65 124.71 155.58 125.33 155.63 125.43 156.18"/><polygon class="cls-2" points="115.91 151.71 115.19 151.75 114.55 151.63 113.91 151.64 113.27 151.48 112.63 151.51 112.07 151.48 111.99 151.14 112.62 151.26 113.26 151 113.9 151.06 114.55 151.18 115.19 151.11 115.81 151.16 115.91 151.71"/><polygon class="cls-2" points="116.24 143.91 115.53 143.95 114.89 143.83 114.25 143.84 113.6 143.67 112.96 143.71 112.41 143.68 112.33 143.34 112.96 143.46 113.6 143.2 114.24 143.26 114.88 143.38 115.52 143.31 116.15 143.36 116.24 143.91"/><polygon class="cls-2" points="120.65 148.76 119.94 148.81 119.3 148.69 118.66 148.69 118.01 148.53 117.37 148.57 116.82 148.54 116.74 148.2 117.37 148.32 118.01 148.06 118.65 148.12 119.29 148.24 119.93 148.17 120.56 148.22 120.65 148.76"/><polygon class="cls-2" points="109.28 155.71 108.57 155.75 107.92 155.63 107.28 155.63 106.64 155.47 106 155.51 105.45 155.48 105.37 155.14 106 155.26 106.64 155 107.28 155.06 107.92 155.18 108.56 155.11 109.18 155.16 109.28 155.71"/></g></g></g></g></svg>