<svg width="32" height="33" viewBox="0 0 32 33" fill="none" xmlns="http://www.w3.org/2000/svg">
<g clip-path="url(#clip0_727_17399)">
<path d="M29.2683 25.5231V1.42314C29.2683 0.763145 28.7283 0.223145 28.0683 0.223145H7.32831C4.67331 0.223145 2.51831 2.37814 2.51831 5.03814V27.4131C2.51831 30.0731 4.67331 32.2231 7.32831 32.2231H28.0683C28.7283 32.2231 29.2683 31.6831 29.2683 31.0231C29.2683 30.1681 28.5733 29.4731 27.7183 29.4731H7.32831C6.19331 29.4731 5.26831 28.5531 5.26831 27.4131V5.03814C5.26831 3.89814 6.19331 2.97314 7.32831 2.97314H26.5183V25.5231C26.5183 26.2831 27.1333 26.8981 27.8933 26.8981C28.6533 26.8981 29.2683 26.2831 29.2683 25.5231Z" fill="white"/>
<path d="M16.856 18.1891L14.4291 18.723C14.2187 18.5612 14.0326 18.3509 13.8709 18.092C13.7091 17.8169 13.6282 17.5014 13.6282 17.1455C13.6282 16.7895 13.7252 16.5145 13.9194 16.3203C14.1135 16.1262 14.421 15.9725 14.8416 15.8592L16.6133 15.4223C17.3738 15.212 17.9481 14.9208 18.3364 14.5486C18.7409 14.1765 18.9432 13.6749 18.9432 13.0439C18.9432 12.4938 18.7248 12.0084 18.2879 11.5878C17.8511 11.1671 17.1472 10.9567 16.1765 10.9567C15.5293 10.9567 14.8902 11.0538 14.2592 11.248C13.6443 11.426 13.1509 11.6525 12.7787 11.9275C12.5684 11.7657 12.3904 11.5635 12.2448 11.3208C12.0992 11.0781 12.0264 10.8111 12.0264 10.5199C12.0264 9.85653 12.447 9.33878 13.2884 8.96665C14.1297 8.59451 15.1976 8.40845 16.492 8.40845C17.6731 8.40845 18.6762 8.61069 19.5014 9.01519C20.3427 9.4035 20.9818 9.94552 21.4187 10.6412C21.8717 11.337 22.0982 12.1379 22.0982 13.0439C22.0982 14.4192 21.6614 15.5275 20.7877 16.3689C19.914 17.194 18.6034 17.8008 16.856 18.1891ZM13.9194 22.2421C13.9194 21.7082 14.0812 21.2713 14.4048 20.9315C14.7446 20.5918 15.1895 20.4219 15.7396 20.4219C16.2897 20.4219 16.7266 20.5918 17.0502 20.9315C17.3899 21.2713 17.5598 21.7082 17.5598 22.2421C17.5598 22.7598 17.3899 23.1886 17.0502 23.5284C16.7266 23.8681 16.2897 24.038 15.7396 24.038C15.1895 24.038 14.7446 23.8681 14.4048 23.5284C14.0812 23.1886 13.9194 22.7598 13.9194 22.2421Z" fill="white"/>
</g>
<defs>
<clipPath id="clip0_727_17399">
<rect width="32" height="32" fill="white" transform="translate(0 0.223145)"/>
</clipPath>
</defs>
</svg>
