<svg width="32" height="32" viewBox="0 0 32 32" fill="none" xmlns="http://www.w3.org/2000/svg">
<path d="M29.2683 25.3V1.2C29.2683 0.54 28.7283 0 28.0683 0H7.32831C4.67331 0 2.51831 2.155 2.51831 4.815V27.19C2.51831 29.85 4.67331 32 7.32831 32H28.0683C28.7283 32 29.2683 31.46 29.2683 30.8C29.2683 29.945 28.5733 29.25 27.7183 29.25H7.32831C6.19331 29.25 5.26831 28.33 5.26831 27.19V4.815C5.26831 3.675 6.19331 2.75 7.32831 2.75H26.5183V25.3C26.5183 26.06 27.1333 26.675 27.8933 26.675C28.6533 26.675 29.2683 26.06 29.2683 25.3Z" fill="#242424"/>
<path d="M16.856 17.9659L14.4291 18.4999C14.2187 18.3381 14.0326 18.1277 13.8709 17.8688C13.7091 17.5938 13.6282 17.2783 13.6282 16.9223C13.6282 16.5664 13.7252 16.2913 13.9194 16.0972C14.1135 15.903 14.421 15.7493 14.8416 15.6361L16.6133 15.1992C17.3738 14.9889 17.9481 14.6976 18.3364 14.3255C18.7409 13.9534 18.9432 13.4518 18.9432 12.8208C18.9432 12.2707 18.7248 11.7853 18.2879 11.3646C17.8511 10.9439 17.1472 10.7336 16.1765 10.7336C15.5293 10.7336 14.8902 10.8307 14.2592 11.0248C13.6443 11.2028 13.1509 11.4293 12.7787 11.7044C12.5684 11.5426 12.3904 11.3403 12.2448 11.0976C12.0992 10.855 12.0264 10.588 12.0264 10.2968C12.0264 9.63338 12.447 9.11564 13.2884 8.7435C14.1297 8.37137 15.1976 8.1853 16.492 8.1853C17.6731 8.1853 18.6762 8.38755 19.5014 8.79204C20.3427 9.18035 20.9818 9.72237 21.4187 10.4181C21.8717 11.1138 22.0982 11.9147 22.0982 12.8208C22.0982 14.1961 21.6614 15.3044 20.7877 16.1457C19.914 16.9709 18.6034 17.5776 16.856 17.9659ZM13.9194 22.0189C13.9194 21.485 14.0812 21.0482 14.4048 20.7084C14.7446 20.3686 15.1895 20.1987 15.7396 20.1987C16.2897 20.1987 16.7266 20.3686 17.0502 20.7084C17.3899 21.0482 17.5598 21.485 17.5598 22.0189C17.5598 22.5367 17.3899 22.9655 17.0502 23.3052C16.7266 23.645 16.2897 23.8149 15.7396 23.8149C15.1895 23.8149 14.7446 23.645 14.4048 23.3052C14.0812 22.9655 13.9194 22.5367 13.9194 22.0189Z" fill="#242424"/>
</svg>
