<?xml version="1.0" encoding="UTF-8"?><svg id="Camada_1" xmlns="http://www.w3.org/2000/svg" viewBox="0 0 230 230"><defs><style>.cls-1{fill:#f86163;}.cls-2{fill:#452a12;}.cls-3{fill:#9c3d3e;}.cls-4{fill:#2e1c0d;}.cls-5{fill:#26170b;}.cls-6{opacity:.15;}.cls-6,.cls-7{fill:#fff;}.cls-7{opacity:.2;}.cls-8{fill:#e6cacc;fill-rule:evenodd;}</style></defs><path class="cls-8" d="M113.16,.01c35.19,.52,64.41,23.19,86.17,50.18,21.56,26.73,35.54,59.32,29.09,92.75-6.75,34.98-29.1,66.99-62.61,81.04-32.11,13.46-67.69,2.32-98.7-13.4-29.58-14.99-55.25-37.4-63.64-68.88-8.71-32.63-.67-67.22,20.16-94.12C45.18,19.74,77.41-.52,113.16,.01Z"/><g><g><path class="cls-4" d="M79.35,117.75s-.25-1.14-1.16-1.8c-.34-.25-.82,.17-1.36-.12-3.83-2.09-13.06-5.07-34.15-4.5-19.89,.54-29.23,2.89-33.44,4.59-.86,.35-1.63-.01-2.11,.26-.94,.53-1.12,1.56-1.12,1.56-.03,1.62,18.04,5.82,35.62,5.28,16.71-.51,31.94-2.38,37.72-5.28Z"/><g><g><path class="cls-2" d="M73.64,125.28c-6.21,9.92-21.12,12.37-30.97,12.56-10.49,.21-24.78-2.33-30.75-13.25-6.86-12.54-.7-49.5,35.12-41.05,29.64,6.98,33.39,30.9,26.6,41.75Z"/><path class="cls-6" d="M33.78,89.32s-11.13-.27-14.15,10.44c-3.02,10.72,6.46-3.16,9.62-3.16s10.72-6.46,4.53-7.28Z"/><path class="cls-6" d="M59.61,95.31c6.93,1.26,13.34,10.48,9.27,13.6-1.81,1.39,.04-5.8-5.72-7.88-4.07-1.47-5.01-5.98-3.55-5.72Z"/></g><rect class="cls-5" x="58.9" y="90.26" width="8.99" height="3.48" rx="1.38" ry="1.38" transform="translate(20.59 -11.2) rotate(12.04)"/><rect class="cls-5" x="48.24" y="93.78" width="8.99" height="3.48" rx="1.38" ry="1.38" transform="translate(95.12 -5.02) rotate(51.76)"/><rect class="cls-5" x="67.08" y="97.68" width="8.99" height="3.48" rx="1.38" ry="1.38" transform="translate(105.37 -18.33) rotate(51.76)"/><rect class="cls-5" x="65.07" y="110.02" width="8.99" height="3.48" rx="1.38" ry="1.38" transform="translate(189.66 165.68) rotate(146.08)"/><rect class="cls-5" x="71.82" y="107.85" width="8.99" height="3.48" rx="1.38" ry="1.38" transform="translate(133.07 -11.29) rotate(60)"/><rect class="cls-5" x="54.46" y="103.73" width="8.99" height="3.48" rx="1.38" ry="1.38" transform="translate(166.73 160.09) rotate(146.08)"/><rect class="cls-5" x="52.27" y="85.32" width="8.99" height="3.48" rx="1.38" ry="1.38" transform="translate(152.44 127.63) rotate(146.08)"/><rect class="cls-5" x="43.57" y="82.89" width="8.99" height="3.48" rx="1.38" ry="1.38" transform="translate(91.47 -2.48) rotate(56.08)"/><rect class="cls-5" x="44.93" y="99.18" width="8.99" height="3.48" rx="1.38" ry="1.38" transform="translate(122.44 15.5) rotate(66.62)"/><rect class="cls-5" x="39.54" y="87.91" width="8.99" height="3.48" rx="1.38" ry="1.38" transform="translate(5.75 -2.6) rotate(3.62)"/><rect class="cls-5" x="34.56" y="81.92" width="8.99" height="3.48" rx="1.38" ry="1.38" transform="translate(58.25 -6.65) rotate(37.02)"/><rect class="cls-5" x="25.77" y="82.89" width="8.99" height="3.48" rx="1.38" ry="1.38" transform="translate(5.41 -1.74) rotate(3.62)"/><rect class="cls-5" x="37.13" y="97.06" width="8.99" height="3.48" rx="1.38" ry="1.38" transform="translate(-57.17 140.43) rotate(-90)"/><rect class="cls-5" x="28.25" y="98.15" width="8.99" height="3.48" rx="1.38" ry="1.38" transform="translate(-66.72 65.88) rotate(-52.98)"/><rect class="cls-5" x="16.48" y="86.45" width="8.99" height="3.48" rx="1.38" ry="1.38" transform="translate(-37.94 19.29) rotate(-27.16)"/><rect class="cls-5" x="10.38" y="95.3" width="8.99" height="3.48" rx="1.38" ry="1.38" transform="translate(-68.49 45.2) rotate(-49.41)"/><rect class="cls-5" x="4.96" y="106.74" width="8.99" height="3.48" rx="1.38" ry="1.38" transform="translate(-79.07 45.08) rotate(-49.41)"/><rect class="cls-5" x="11.27" y="103.73" width="8.99" height="3.48" rx="1.38" ry="1.38" transform="translate(-62.95 177.4) rotate(-123.92)"/><rect class="cls-5" x="19.57" y="104.39" width="8.99" height="3.48" rx="1.38" ry="1.38" transform="translate(-72.18 55.35) rotate(-49.41)"/><rect class="cls-5" x="56.52" y="110.49" width="8.99" height="3.48" rx="1.38" ry="1.38" transform="translate(186.86 90.35) rotate(108.67)"/><rect class="cls-5" x="38.5" y="107.85" width="8.99" height="3.48" rx="1.38" ry="1.38" transform="translate(160.58 103.94) rotate(108.67)"/><rect class="cls-5" x="46.12" y="111.62" width="8.99" height="3.48" rx="1.38" ry="1.38" transform="translate(123.48 12.85) rotate(60)"/><rect class="cls-5" x="25.08" y="109.6" width="8.99" height="3.48" rx="1.38" ry="1.38" transform="translate(144.52 118.96) rotate(108.67)"/><rect class="cls-5" x="32.7" y="113.37" width="8.99" height="3.48" rx="1.38" ry="1.38" transform="translate(118.28 25.34) rotate(60)"/><rect class="cls-5" x="9.32" y="111.59" width="8.99" height="3.48" rx="1.38" ry="1.38" transform="translate(125.6 136.53) rotate(108.67)"/><rect class="cls-5" x="16.94" y="115.36" width="8.99" height="3.48" rx="1.38" ry="1.38" transform="translate(112.13 39.99) rotate(60)"/></g><path class="cls-3" d="M79.35,117.75s-5.22,35.77-8.71,41.45c-3.44,5.59-47.56,7.28-54.41-1.03-2.68-3.25-9.77-39.56-9.77-39.56,.75,.21,1.58-.84,2.32-.65,.81,.21,1.54,1.66,2.35,1.86,1.12,.27,2.02-.54,3.13-.3,.9,.2,2.01,1.46,2.9,1.64,1,.2,1.95-1.15,2.94-.98s2.1,1.9,3.12,2.06,2.34-1.58,3.37-1.44,1.84,2.17,2.88,2.29c.96,.11,2-1.27,2.95-1.18,1.23,.11,2.36,1.67,3.58,1.75,1.17,.07,2.56-1.48,3.71-1.44,1.32,.05,2.41,1.68,3.72,1.69,.79,0,1.41-1.54,2.2-1.55,.93-.01,2.04,1.51,2.96,1.47,1.17-.04,2.07-1.26,3.23-1.34,.84-.05,1.95,1.04,2.79,.97,.75-.06,1.33-1.42,2.07-1.5,.98-.1,2.13,1.07,3.1,.95,.87-.11,1.6-1.39,2.47-1.52,.87-.13,1.88,.89,2.74,.74,1.01-.17,1.7-1.07,2.7-1.27,.86-.17,2.04,.36,2.9,.17,.63-.14,1.21-.77,1.83-.92,.93-.22,1.9,.04,2.81-.2,.83-.22,1.49-.8,2.31-1.04,.7-.2,1.1-.9,1.79-1.11Z"/><path class="cls-1" d="M79.35,117.75s-6.73,34.74-10.22,40.42c-3.44,5.59-47.69,6.97-52.89,0-2.52-3.37-10.22-40.42-10.22-40.42,.75,.21,1.58-.84,2.32-.65,.81,.21,1.54,1.66,2.35,1.86,1.12,.27,2.02-.54,3.13-.3,.9,.2,2.01,1.46,2.9,1.64,1,.2,1.95-1.15,2.94-.98s2.1,1.9,3.12,2.06,2.34-1.58,3.37-1.44,1.84,2.17,2.88,2.29c.96,.11,2-1.27,2.95-1.18,1.23,.11,2.36,1.67,3.58,1.75s2.56-1.48,3.71-1.44c1.32,.05,2.41,1.68,3.72,1.69,.79,0,1.41-1.54,2.2-1.55,.93-.01,2.04,1.51,2.96,1.47,1.17-.04,2.07-1.26,3.23-1.34,.84-.05,1.95,1.04,2.79,.97,.75-.06,1.33-1.42,2.07-1.5,.98-.1,2.13,1.07,3.1,.95,.87-.11,1.6-1.39,2.47-1.52s1.88,.89,2.74,.74c1.01-.17,1.7-1.07,2.7-1.27,.86-.17,2.04,.36,2.9,.17,.63-.14,1.21-.77,1.83-.92,.93-.22,1.9,.04,2.81-.2,.83-.22,1.49-.8,2.31-1.04,.7-.2,1.55-.04,2.25-.25Z"/><path class="cls-7" d="M6.01,117.75s.13,.59,.35,1.64c.65-.09,1.34-.82,1.97-.66,.81,.21,1.54,1.66,2.35,1.86,1.12,.27,2.02-.55,3.13-.3,.9,.2,2.01,1.46,2.9,1.64,1,.19,1.95-1.16,2.94-.98,1.03,.18,2.09,1.9,3.12,2.06,1.05,.16,2.34-1.58,3.38-1.43,1.04,.14,1.84,2.17,2.88,2.28,.96,.1,2-1.27,2.95-1.19,1.23,.12,2.36,1.67,3.58,1.75,1.17,.07,2.55-1.48,3.71-1.44,1.33,.05,2.41,1.68,3.73,1.69,.79,0,1.41-1.54,2.19-1.55,.93-.02,2.04,1.51,2.96,1.47,1.17-.05,2.07-1.26,3.23-1.34,.85-.05,1.96,1.04,2.79,.98,.76-.06,1.33-1.43,2.07-1.51,.98-.1,2.13,1.08,3.1,.95,.88-.11,1.61-1.39,2.48-1.53,.87-.13,1.87,.89,2.74,.74,1.01-.17,1.69-1.07,2.7-1.27,.86-.16,2.04,.36,2.9,.17,.63-.15,1.21-.78,1.83-.92,.93-.22,1.9,.04,2.81-.2,.83-.22,1.49-.8,2.31-1.03,.59-.17,1.29-.08,1.91-.18,.22-1.09,.34-1.71,.34-1.71-.69,.21-1.54,.05-2.25,.25-.82,.24-1.48,.82-2.31,1.04-.91,.24-1.88-.02-2.81,.2-.62,.15-1.2,.78-1.83,.91-.86,.19-2.04-.34-2.9-.16-1.01,.2-1.69,1.1-2.7,1.27-.87,.15-1.87-.87-2.74-.74-.87,.13-1.6,1.41-2.48,1.53-.97,.12-2.12-1.05-3.1-.95-.74,.07-1.32,1.43-2.07,1.5-.83,.07-1.94-1.02-2.79-.97-1.15,.07-2.06,1.3-3.23,1.33-.92,.04-2.03-1.48-2.96-1.47-.79,.02-1.41,1.56-2.19,1.55-1.32,0-2.4-1.64-3.73-1.68-1.16-.05-2.54,1.51-3.71,1.43-1.22-.07-2.35-1.64-3.58-1.75-.95-.08-1.99,1.29-2.95,1.18-1.04-.12-1.84-2.14-2.88-2.28-1.04-.14-2.33,1.61-3.38,1.44-1.02-.16-2.08-1.87-3.12-2.07-1-.17-1.95,1.18-2.94,.98-.89-.18-2-1.44-2.9-1.64-1.11-.25-2.01,.57-3.13,.29-.8-.19-1.54-1.64-2.35-1.85-.74-.19-1.57,.86-2.32,.65Z"/><path class="cls-7" d="M59.59,161.6s4.07-29.62,6.46-30.29,1.61,24.86,.02,28.76c-2.47,.85-4.72,1.2-6.48,1.52Z"/><path class="cls-7" d="M24.99,161.69s-4.06-30.4-6.44-31.06-1.62,25.31-.04,29.21c2.25,.98,4.55,1.57,6.48,1.85Z"/><path class="cls-7" d="M46.89,162.8c-3.6,.09-6.97,.13-9.69,.02,0,0,1.37-27.95,4.43-27.95,3.06,0,5.48,16.57,5.26,27.93Z"/></g><g><path class="cls-4" d="M224.01,110.78s-.25-1.14-1.16-1.8c-.34-.25-.82,.17-1.36-.12-3.83-2.09-13.06-5.07-34.15-4.5-19.89,.54-29.23,2.89-33.44,4.59-.86,.35-1.63-.01-2.11,.26-.94,.53-1.12,1.56-1.12,1.56-.03,1.62,18.04,5.82,35.62,5.28,16.71-.51,31.94-2.38,37.72-5.28Z"/><g><g><path class="cls-2" d="M218.3,118.31c-6.21,9.92-21.12,12.37-30.97,12.56-10.49,.21-24.78-2.33-30.75-13.25-6.86-12.54-.7-49.5,35.12-41.05,29.64,6.98,33.39,30.9,26.6,41.75Z"/><path class="cls-6" d="M178.45,82.35s-11.13-.27-14.15,10.44c-3.02,10.72,6.46-3.16,9.62-3.16s10.72-6.46,4.53-7.28Z"/><path class="cls-6" d="M204.27,88.33c6.93,1.26,13.34,10.48,9.27,13.6-1.81,1.39,.04-5.8-5.72-7.88-4.07-1.47-5.01-5.98-3.55-5.72Z"/></g><rect class="cls-5" x="203.56" y="83.29" width="8.99" height="3.48" rx="1.38" ry="1.38" transform="translate(22.32 -41.54) rotate(12.04)"/><rect class="cls-5" x="192.9" y="86.8" width="8.99" height="3.48" rx="1.38" ry="1.38" transform="translate(144.77 -121.31) rotate(51.76)"/><rect class="cls-5" x="211.74" y="90.71" width="8.99" height="3.48" rx="1.38" ry="1.38" transform="translate(155.02 -134.62) rotate(51.76)"/><rect class="cls-5" x="209.74" y="103.04" width="8.99" height="3.48" rx="1.38" ry="1.38" transform="translate(450.48 72.19) rotate(146.08)"/><rect class="cls-5" x="216.48" y="100.88" width="8.99" height="3.48" rx="1.38" ry="1.38" transform="translate(199.36 -140.06) rotate(60)"/><rect class="cls-5" x="199.13" y="96.75" width="8.99" height="3.48" rx="1.38" ry="1.38" transform="translate(427.55 66.59) rotate(146.08)"/><rect class="cls-5" x="196.93" y="78.34" width="8.99" height="3.48" rx="1.38" ry="1.38" transform="translate(413.26 34.13) rotate(146.08)"/><rect class="cls-5" x="188.23" y="75.92" width="8.99" height="3.48" rx="1.38" ry="1.38" transform="translate(149.62 -125.61) rotate(56.08)"/><rect class="cls-5" x="189.59" y="92.2" width="8.99" height="3.48" rx="1.38" ry="1.38" transform="translate(203.29 -121.49) rotate(66.62)"/><rect class="cls-5" x="184.21" y="80.93" width="8.99" height="3.48" rx="1.38" ry="1.38" transform="translate(5.6 -11.75) rotate(3.62)"/><rect class="cls-5" x="179.22" y="74.95" width="8.99" height="3.48" rx="1.38" ry="1.38" transform="translate(83.21 -95.16) rotate(37.02)"/><rect class="cls-5" x="170.43" y="75.92" width="8.99" height="3.48" rx="1.38" ry="1.38" transform="translate(5.25 -10.89) rotate(3.62)"/><rect class="cls-5" x="181.8" y="90.09" width="8.99" height="3.48" rx="1.38" ry="1.38" transform="translate(94.47 278.12) rotate(-90)"/><rect class="cls-5" x="172.91" y="91.17" width="8.99" height="3.48" rx="1.38" ry="1.38" transform="translate(-3.59 178.61) rotate(-52.98)"/><rect class="cls-5" x="161.14" y="79.47" width="8.99" height="3.48" rx="1.38" ry="1.38" transform="translate(-18.81 84.55) rotate(-27.16)"/><rect class="cls-5" x="155.04" y="88.32" width="8.99" height="3.48" rx="1.38" ry="1.38" transform="translate(-12.65 152.61) rotate(-49.41)"/><rect class="cls-5" x="149.62" y="99.76" width="8.99" height="3.48" rx="1.38" ry="1.38" transform="translate(-23.24 152.5) rotate(-49.41)"/><rect class="cls-5" x="155.94" y="96.75" width="8.99" height="3.48" rx="1.38" ry="1.38" transform="translate(168.23 286.58) rotate(-123.92)"/><rect class="cls-5" x="164.23" y="97.41" width="8.99" height="3.48" rx="1.38" ry="1.38" transform="translate(-16.35 162.77) rotate(-49.41)"/><rect class="cls-5" x="201.18" y="103.51" width="8.99" height="3.48" rx="1.38" ry="1.38" transform="translate(371.23 -55.92) rotate(108.67)"/><rect class="cls-5" x="183.16" y="100.88" width="8.99" height="3.48" rx="1.38" ry="1.38" transform="translate(344.94 -42.32) rotate(108.67)"/><rect class="cls-5" x="190.78" y="104.65" width="8.99" height="3.48" rx="1.38" ry="1.38" transform="translate(189.77 -115.92) rotate(60)"/><rect class="cls-5" x="169.74" y="102.62" width="8.99" height="3.48" rx="1.38" ry="1.38" transform="translate(328.88 -27.3) rotate(108.67)"/><rect class="cls-5" x="177.37" y="106.39" width="8.99" height="3.48" rx="1.38" ry="1.38" transform="translate(184.57 -103.43) rotate(60)"/><rect class="cls-5" x="153.98" y="104.62" width="8.99" height="3.48" rx="1.38" ry="1.38" transform="translate(309.96 -9.73) rotate(108.67)"/><rect class="cls-5" x="161.6" y="108.39" width="8.99" height="3.48" rx="1.38" ry="1.38" transform="translate(178.42 -88.78) rotate(60)"/></g><path class="cls-3" d="M224.01,110.78s-5.22,35.77-8.71,41.45-47.56,7.28-54.41-1.03c-2.68-3.25-9.77-39.56-9.77-39.56,.75,.21,1.58-.84,2.32-.65,.81,.21,1.54,1.66,2.35,1.86,1.12,.27,2.02-.54,3.13-.3,.9,.2,2.01,1.46,2.9,1.64,1,.2,1.95-1.15,2.94-.98s2.1,1.9,3.12,2.06,2.34-1.58,3.37-1.44,1.84,2.17,2.88,2.29c.96,.11,2-1.27,2.95-1.18,1.23,.11,2.36,1.67,3.58,1.75s2.56-1.48,3.71-1.44c1.32,.05,2.41,1.68,3.72,1.69,.79,0,1.41-1.54,2.2-1.55,.93-.01,2.04,1.51,2.96,1.47,1.17-.04,2.07-1.26,3.23-1.34,.84-.05,1.95,1.04,2.79,.97,.75-.06,1.33-1.42,2.07-1.5,.98-.1,2.13,1.07,3.1,.95,.87-.11,1.6-1.39,2.47-1.52s1.88,.89,2.74,.74c1.01-.17,1.7-1.07,2.7-1.27,.86-.17,2.04,.36,2.9,.17,.63-.14,1.21-.77,1.83-.92,.93-.22,1.9,.04,2.81-.2,.83-.22,1.49-.8,2.31-1.04,.7-.2,1.1-.9,1.79-1.11Z"/><path class="cls-1" d="M224.01,110.78s-6.73,34.74-10.22,40.42-47.69,6.97-52.89,0c-2.52-3.37-10.22-40.42-10.22-40.42,.75,.21,1.58-.84,2.32-.65,.81,.21,1.54,1.66,2.35,1.86,1.12,.27,2.02-.54,3.13-.3,.9,.2,2.01,1.46,2.9,1.64,1,.2,1.95-1.15,2.94-.98,1.03,.19,2.1,1.9,3.12,2.06s2.34-1.58,3.37-1.44c1.05,.14,1.84,2.17,2.88,2.29,.96,.11,2-1.27,2.95-1.18,1.23,.11,2.36,1.67,3.58,1.75s2.56-1.48,3.71-1.44c1.32,.05,2.41,1.68,3.72,1.69,.79,0,1.41-1.54,2.2-1.55,.93-.01,2.04,1.51,2.96,1.47,1.17-.04,2.07-1.26,3.23-1.34,.84-.05,1.95,1.04,2.79,.97,.75-.06,1.33-1.42,2.07-1.5,.98-.1,2.13,1.07,3.1,.95,.87-.11,1.6-1.39,2.47-1.52s1.88,.89,2.74,.74c1.01-.17,1.7-1.07,2.7-1.27,.86-.17,2.04,.36,2.9,.17,.63-.14,1.21-.77,1.83-.92,.93-.22,1.9,.04,2.81-.2,.83-.22,1.49-.8,2.31-1.04,.7-.2,1.55-.04,2.25-.25Z"/><path class="cls-7" d="M150.67,110.78s.13,.59,.35,1.64c.65-.09,1.34-.82,1.97-.66,.81,.21,1.54,1.66,2.35,1.86,1.12,.27,2.02-.55,3.13-.3,.9,.2,2.01,1.46,2.9,1.64,1,.19,1.95-1.16,2.94-.98,1.03,.18,2.09,1.9,3.12,2.06,1.05,.16,2.34-1.58,3.38-1.43,1.04,.14,1.84,2.17,2.88,2.28,.96,.1,2-1.27,2.95-1.19,1.23,.12,2.36,1.67,3.58,1.75,1.17,.07,2.55-1.48,3.71-1.44,1.33,.05,2.41,1.68,3.73,1.69,.79,0,1.41-1.54,2.19-1.55,.93-.02,2.04,1.51,2.96,1.47,1.17-.05,2.07-1.26,3.23-1.34,.85-.05,1.96,1.04,2.79,.98,.76-.06,1.33-1.43,2.07-1.51,.98-.1,2.13,1.08,3.1,.95,.88-.11,1.61-1.39,2.48-1.53,.87-.13,1.87,.89,2.74,.74,1.01-.17,1.69-1.07,2.7-1.27,.86-.16,2.04,.36,2.9,.17,.63-.15,1.21-.78,1.83-.92,.93-.22,1.9,.04,2.81-.2,.83-.22,1.49-.8,2.31-1.03,.59-.17,1.29-.08,1.91-.18,.22-1.09,.34-1.71,.34-1.71-.69,.21-1.54,.05-2.25,.25-.82,.24-1.48,.82-2.31,1.04-.91,.24-1.88-.02-2.81,.2-.62,.15-1.2,.78-1.83,.91-.86,.19-2.04-.34-2.9-.16-1.01,.2-1.69,1.1-2.7,1.27-.87,.15-1.87-.87-2.74-.74-.87,.13-1.6,1.41-2.48,1.53-.97,.12-2.12-1.05-3.1-.95-.74,.07-1.32,1.43-2.07,1.5-.83,.07-1.94-1.02-2.79-.97-1.15,.07-2.06,1.3-3.23,1.33-.92,.04-2.03-1.48-2.96-1.47-.79,.02-1.41,1.56-2.19,1.55-1.32,0-2.4-1.64-3.73-1.68-1.16-.05-2.54,1.51-3.71,1.43-1.22-.07-2.35-1.64-3.58-1.75-.95-.08-1.99,1.29-2.95,1.18-1.04-.12-1.84-2.14-2.88-2.28-1.04-.14-2.33,1.61-3.38,1.44-1.02-.16-2.08-1.87-3.12-2.07-1-.17-1.95,1.18-2.94,.98-.89-.18-2-1.44-2.9-1.64-1.11-.25-2.01,.57-3.13,.29-.8-.19-1.54-1.64-2.35-1.85-.74-.19-1.57,.86-2.32,.65Z"/><path class="cls-7" d="M204.26,154.62s4.07-29.62,6.46-30.29c2.38-.66,1.61,24.86,.02,28.76-2.47,.85-4.72,1.2-6.48,1.52Z"/><path class="cls-7" d="M169.66,154.72s-4.06-30.4-6.44-31.06-1.62,25.31-.04,29.21c2.25,.98,4.55,1.57,6.48,1.85Z"/><path class="cls-7" d="M191.55,155.83c-3.6,.09-6.97,.13-9.69,.02,0,0,1.37-27.95,4.43-27.95,3.06,0,5.48,16.57,5.26,27.93Z"/></g><g><path class="cls-4" d="M64.79,136.61s.34-1.57,1.59-2.47c.47-.34,1.13,.24,1.87-.17,5.28-2.88,17.97-6.98,46.99-6.19,27.37,.74,40.22,3.98,46.02,6.32,1.19,.48,2.24-.02,2.9,.35,1.3,.73,1.54,2.15,1.54,2.15,.04,2.23-24.82,8.01-49.02,7.27-22.99-.7-43.95-3.27-51.9-7.27Z"/><g><g><path class="cls-2" d="M72.64,146.97c8.55,13.65,29.06,17.02,42.62,17.28,14.43,.29,34.09-3.2,42.31-18.24,9.43-17.25,.97-68.11-48.33-56.49-40.78,9.61-45.94,42.52-36.6,57.45Z"/><path class="cls-6" d="M127.49,97.49s15.31-.38,19.47,14.37-8.89-4.35-13.23-4.35-14.75-8.89-6.24-10.02Z"/><path class="cls-6" d="M91.95,105.73c-9.53,1.74-18.35,14.42-12.75,18.71,2.49,1.91-.06-7.98,7.87-10.84,5.6-2.03,6.9-8.23,4.89-7.87Z"/></g><rect class="cls-5" x="80.56" y="98.78" width="12.37" height="4.78" rx="1.56" ry="1.56" transform="translate(192.68 182.02) rotate(167.96)"/><rect class="cls-5" x="95.22" y="103.62" width="12.37" height="4.78" rx="1.56" ry="1.56" transform="translate(247.44 91.97) rotate(128.24)"/><rect class="cls-5" x="69.3" y="108.99" width="12.37" height="4.78" rx="1.56" ry="1.56" transform="translate(209.69 121.03) rotate(128.24)"/><rect class="cls-5" x="72.06" y="125.97" width="12.37" height="4.78" rx="1.56" ry="1.56" transform="translate(84.94 -21.82) rotate(33.92)"/><rect class="cls-5" x="62.78" y="122.99" width="12.37" height="4.78" rx="1.56" ry="1.56" transform="translate(212.02 128.35) rotate(120)"/><rect class="cls-5" x="86.66" y="117.31" width="12.37" height="4.78" rx="1.56" ry="1.56" transform="translate(82.6 -31.44) rotate(33.92)"/><rect class="cls-5" x="89.68" y="91.98" width="12.37" height="4.78" rx="1.56" ry="1.56" transform="translate(68.98 -37.44) rotate(33.92)"/><rect class="cls-5" x="101.65" y="88.64" width="12.37" height="4.78" rx="1.56" ry="1.56" transform="translate(243.55 52.35) rotate(123.92)"/><rect class="cls-5" x="99.78" y="111.05" width="12.37" height="4.78" rx="1.56" ry="1.56" transform="translate(252.14 61.2) rotate(113.38)"/><rect class="cls-5" x="107.19" y="95.54" width="12.37" height="4.78" rx="1.56" ry="1.56" transform="translate(232.71 188.52) rotate(176.38)"/><rect class="cls-5" x="114.05" y="87.3" width="12.37" height="4.78" rx="1.56" ry="1.56" transform="translate(270.23 88.91) rotate(142.98)"/><rect class="cls-5" x="126.14" y="88.64" width="12.37" height="4.78" rx="1.56" ry="1.56" transform="translate(270.14 173.53) rotate(176.38)"/><rect class="cls-5" x="110.5" y="108.14" width="12.37" height="4.78" rx="1.56" ry="1.56" transform="translate(6.15 227.22) rotate(-90)"/><rect class="cls-5" x="122.73" y="109.63" width="12.37" height="4.78" rx="1.56" ry="1.56" transform="translate(117.1 282.4) rotate(-127.02)"/><rect class="cls-5" x="138.93" y="93.54" width="12.37" height="4.78" rx="1.56" ry="1.56" transform="translate(230.45 247.51) rotate(-152.84)"/><rect class="cls-5" x="147.32" y="105.71" width="12.37" height="4.78" rx="1.56" ry="1.56" transform="translate(171.29 295.01) rotate(-130.59)"/><rect class="cls-5" x="154.78" y="121.46" width="12.37" height="4.78" rx="1.56" ry="1.56" transform="translate(171.64 326.66) rotate(-130.59)"/><rect class="cls-5" x="146.09" y="117.31" width="12.37" height="4.78" rx="1.56" ry="1.56" transform="translate(-32.03 179.27) rotate(-56.08)"/><rect class="cls-5" x="134.68" y="118.22" width="12.37" height="4.78" rx="1.56" ry="1.56" transform="translate(140.92 306.06) rotate(-130.59)"/><rect class="cls-5" x="83.83" y="126.61" width="12.37" height="4.78" rx="1.56" ry="1.56" transform="translate(183.42 2.43) rotate(71.33)"/><rect class="cls-5" x="108.63" y="122.99" width="12.37" height="4.78" rx="1.56" ry="1.56" transform="translate(196.84 -23.52) rotate(71.33)"/><rect class="cls-5" x="98.14" y="128.18" width="12.37" height="4.78" rx="1.56" ry="1.56" transform="translate(269.56 105.51) rotate(120)"/><rect class="cls-5" x="127.09" y="125.39" width="12.37" height="4.78" rx="1.56" ry="1.56" transform="translate(211.67 -39.39) rotate(71.33)"/><rect class="cls-5" x="116.6" y="130.58" width="12.37" height="4.78" rx="1.56" ry="1.56" transform="translate(299.34 93.11) rotate(120)"/><rect class="cls-5" x="148.78" y="128.14" width="12.37" height="4.78" rx="1.56" ry="1.56" transform="translate(229.02 -58.07) rotate(71.33)"/><rect class="cls-5" x="138.29" y="133.32" width="12.37" height="4.78" rx="1.56" ry="1.56" transform="translate(334.25 78.45) rotate(120)"/></g><path class="cls-3" d="M66.04,137.87s11.27,45.32,12.81,54.36c1.36,7.96,66.22,10.87,73.38,1.28,3.47-4.64,13.47-56.9,13.47-56.9-36.97,10.17-69.05,10.51-99.66,1.26Z"/><path class="cls-1" d="M64.79,136.61s9.27,47.8,14.07,55.61,65.62,9.59,72.78,0c3.47-4.64,14.07-55.61,14.07-55.61-1.03,.28-2.17-1.16-3.2-.89-1.11,.29-2.12,2.29-3.23,2.56-1.54,.38-2.78-.75-4.31-.41-1.23,.27-2.76,2.01-3.99,2.25-1.37,.28-2.68-1.59-4.04-1.34s-2.89,2.62-4.3,2.84c-1.44,.23-3.22-2.18-4.64-1.99s-2.54,2.99-3.97,3.15c-1.32,.15-2.75-1.74-4.06-1.62-1.69,.15-3.25,2.3-4.92,2.41-1.61,.1-3.52-2.04-5.11-1.98-1.82,.06-3.32,2.31-5.12,2.32-1.09,0-1.94-2.12-3.03-2.14-1.28-.02-2.8,2.07-4.07,2.02-1.61-.06-2.85-1.74-4.44-1.84-1.16-.08-2.68,1.44-3.84,1.34-1.03-.09-1.83-1.96-2.85-2.07-1.35-.14-2.93,1.48-4.26,1.3-1.2-.15-2.21-1.92-3.4-2.1s-2.58,1.22-3.77,1.02c-1.39-.24-2.33-1.47-3.71-1.75-1.19-.24-2.81,.49-3.99,.23-.86-.19-1.66-1.06-2.52-1.26-1.27-.3-2.61,.05-3.87-.28-1.14-.3-2.05-1.1-3.18-1.42-.96-.27-2.14-.06-3.09-.34Z"/><path class="cls-7" d="M165.71,136.61s-.18,.82-.48,2.26c-.89-.13-1.85-1.13-2.72-.91-1.12,.29-2.13,2.29-3.23,2.56-1.55,.38-2.78-.75-4.31-.41-1.23,.28-2.77,2.01-3.99,2.26-1.37,.26-2.68-1.6-4.05-1.35-1.42,.25-2.88,2.62-4.29,2.83-1.45,.23-3.22-2.18-4.65-1.97-1.43,.19-2.53,2.98-3.96,3.14-1.32,.14-2.75-1.75-4.06-1.63-1.7,.16-3.24,2.3-4.93,2.41-1.61,.1-3.51-2.04-5.11-1.99-1.82,.06-3.32,2.31-5.13,2.33-1.08,0-1.94-2.12-3.02-2.14-1.28-.03-2.8,2.07-4.07,2.02-1.61-.06-2.85-1.74-4.44-1.85-1.17-.08-2.69,1.43-3.84,1.35-1.04-.09-1.84-1.96-2.85-2.07-1.35-.14-2.93,1.48-4.26,1.31-1.21-.15-2.21-1.91-3.41-2.1-1.19-.18-2.58,1.22-3.77,1.02-1.38-.24-2.33-1.47-3.71-1.75-1.18-.23-2.8,.49-3.99,.24-.87-.2-1.66-1.07-2.51-1.27-1.28-.3-2.62,.05-3.87-.28-1.14-.3-2.05-1.11-3.18-1.42-.82-.24-1.77-.11-2.63-.25-.3-1.5-.47-2.35-.47-2.35,.96,.29,2.13,.08,3.09,.34,1.13,.33,2.04,1.13,3.18,1.43,1.26,.33,2.59-.03,3.87,.28,.86,.2,1.65,1.07,2.51,1.26,1.18,.26,2.8-.47,3.99-.23,1.38,.28,2.33,1.51,3.71,1.75,1.19,.2,2.58-1.19,3.77-1.02,1.19,.18,2.2,1.94,3.41,2.1,1.33,.16,2.92-1.45,4.26-1.31,1.02,.1,1.81,1.97,2.85,2.06,1.14,.1,2.67-1.41,3.84-1.33,1.58,.1,2.83,1.79,4.44,1.84,1.27,.05,2.79-2.04,4.07-2.02,1.08,.03,1.94,2.15,3.02,2.14,1.81,0,3.31-2.25,5.13-2.31,1.6-.06,3.5,2.07,5.11,1.97,1.68-.1,3.23-2.25,4.93-2.4,1.31-.11,2.74,1.77,4.06,1.62,1.43-.16,2.53-2.94,3.96-3.14,1.43-.19,3.21,2.21,4.65,1.99,1.41-.23,2.87-2.58,4.29-2.84,1.37-.24,2.68,1.62,4.05,1.35,1.22-.25,2.75-1.99,3.99-2.25,1.53-.34,2.77,.78,4.31,.4,1.11-.26,2.11-2.26,3.23-2.55,1.02-.26,2.16,1.18,3.19,.89Z"/><path class="cls-7" d="M91.97,196.94s-5.61-40.76-8.89-41.68c-3.28-.91-2.21,34.21-.03,39.58,3.39,1.18,6.5,1.65,8.92,2.1Z"/><path class="cls-7" d="M139.58,197.07s5.58-41.83,8.86-42.74,2.23,34.83,.05,40.2c-3.09,1.35-6.27,2.16-8.91,2.54Z"/><path class="cls-7" d="M109.45,198.6c4.95,.12,9.6,.18,13.33,.03,0,0-1.88-38.46-6.1-38.46s-7.54,22.8-7.23,38.43Z"/></g></g><g><rect class="cls-5" x="33.42" y="3.42" width="11.22" height="4.34" rx="1.56" ry="1.56" transform="translate(56.82 -29.6) rotate(108.67)"/><rect class="cls-5" x="99.28" y="64.67" width="8.53" height="3.3" rx="1.56" ry="1.56" transform="translate(81.9 -54.73) rotate(47.22)"/><rect class="cls-5" x="28.26" y="38.93" width="8.53" height="3.3" rx="1.56" ry="1.56" transform="translate(40.22 -10.86) rotate(47.22)"/><rect class="cls-5" x="110.92" y="37.83" width="11.22" height="4.34" rx="1.56" ry="1.56" transform="translate(62.41 -70.68) rotate(45)"/><rect class="cls-5" x="131.26" y="66.7" width="11.22" height="4.34" rx="1.56" ry="1.56" transform="translate(88.78 -76.61) rotate(45)"/><rect class="cls-5" x="125.97" y="19.37" width="11.22" height="4.34" rx="1.56" ry="1.56" transform="translate(194.1 -96.22) rotate(108.67)"/><rect class="cls-5" x="170.41" y="35.32" width="8.53" height="3.3" rx="1.56" ry="1.56" transform="translate(83.18 -116.36) rotate(47.22)"/><rect class="cls-5" x="194.83" y="30.12" width="11.22" height="4.34" rx="1.56" ry="1.56" transform="translate(81.54 -132.28) rotate(45)"/><rect class="cls-5" x="178.83" y="3.42" width="11.22" height="4.34" rx="1.56" ry="1.56" transform="translate(248.77 -167.35) rotate(108.67)"/><rect class="cls-5" x="162.66" y="59.4" width="8.53" height="3.3" rx="1.56" ry="1.56" transform="translate(273.12 -81.48) rotate(106.6)"/><rect class="cls-5" x="92.04" y="3.42" width="11.22" height="4.34" rx="1.56" ry="1.56" transform="translate(134.2 -85.13) rotate(108.67)"/><rect class="cls-5" x="62.51" y="30.22" width="11.22" height="4.34" rx="1.56" ry="1.56" transform="translate(120.61 -21.78) rotate(108.67)"/><rect class="cls-5" x="198.63" y="64.14" width="8.53" height="3.3" rx="1.56" ry="1.56" transform="translate(370.71 -65.87) rotate(123.92)"/><rect class="cls-5" x="53.31" y="64.14" width="8.53" height="3.3" rx="1.56" ry="1.56" transform="translate(144.29 54.72) rotate(123.92)"/><path class="cls-6" d="M119.69,41.42c1.12,2.43-5.27-1.82-5.42-3.87-.06-.87,4.3,1.44,5.42,3.87Z"/><path class="cls-6" d="M104.52,67.2c.66,1.96-3.11-1.47-3.2-3.12-.04-.7,2.54,1.16,3.2,3.12Z"/><path class="cls-6" d="M138.38,70.15c1.02,2.58-4.8-1.93-4.93-4.1-.06-.92,3.91,1.52,4.93,4.1Z"/><path class="cls-6" d="M166.91,62.38c-1.39,1.38-.08-3.54,1.29-4.25,.58-.3,.1,2.87-1.29,4.25Z"/><path class="cls-6" d="M175.64,37.97c.57,1.88-3.16-1.59-3.15-3.14,0-.66,2.58,1.26,3.15,3.14Z"/><path class="cls-6" d="M202.49,33.98c.98,2.45-5.24-2.14-5.26-4.15,0-.85,4.28,1.7,5.26,4.15Z"/><path class="cls-6" d="M183.64,8.45c-1.8,1.93-.29-5.66,1.52-6.52,.77-.37,.28,4.6-1.52,6.52Z"/><path class="cls-6" d="M201.41,67.49c-1.73,.98,1.1-4.21,2.6-4.41,.63-.09-.86,3.43-2.6,4.41Z"/><path class="cls-6" d="M131.98,24.66c-1.67,2.1-.75-5.52,1.01-6.58,.75-.45,.66,4.48-1.01,6.58Z"/><path class="cls-6" d="M97.94,8.71c-1.67,2.1-.75-5.52,1.01-6.58,.75-.45,.66,4.48-1.01,6.58Z"/><path class="cls-6" d="M38.36,8.38c-1.67,2.1-.75-5.52,1.01-6.58,.75-.45,.66,4.48-1.01,6.58Z"/><path class="cls-6" d="M68.63,35.41c-1.67,2.1-.75-5.52,1.01-6.58,.75-.45,.66,4.48-1.01,6.58Z"/><path class="cls-6" d="M57.28,67.43c-1.63,.99,.74-3.37,2.2-3.73,.62-.15-.56,2.74-2.2,3.73Z"/><path class="cls-6" d="M33.57,40.55c.84,1.6-3.41-.97-3.61-2.35-.09-.59,2.77,.75,3.61,2.35Z"/></g></svg>