<svg width="33" height="33" viewBox="0 0 33 33" fill="none" xmlns="http://www.w3.org/2000/svg">
<g clip-path="url(#clip0_170_8953)">
<path d="M32.4563 12.0444C30.6849 5.03489 24.4182 0.0825332 17.2183 0.0253906C16.4183 0.0253906 15.7897 0.234914 15.3516 0.692055C14.8945 1.13015 14.6849 1.75872 14.6849 2.55871V8.4444C14.6849 8.61583 14.6849 8.80631 14.704 8.97773C14.7802 9.6063 15.1421 10.1777 15.6754 10.5396C16.2087 10.9015 16.8754 11.0349 17.4849 10.8825C18.5706 10.6158 19.2563 9.70154 19.2563 8.52059C19.2563 7.49203 19.2563 6.46346 19.2563 5.43489V4.88251C25.2373 6.08251 29.2373 11.9492 28.2087 17.9872C27.6754 21.111 25.923 23.8158 23.2754 25.5681C20.6468 27.3205 17.4849 27.8919 14.3992 27.1872C10.6849 26.33 7.75163 23.7967 6.34211 20.2348C4.95164 16.6729 5.37068 12.8253 7.52306 9.66345C8.51353 8.19678 9.78971 7.01584 11.4278 6.08251C11.9802 5.7587 12.3611 5.28251 12.5135 4.69204C12.6659 4.10156 12.5897 3.49204 12.2659 2.93966C11.6183 1.85395 10.2469 1.49205 9.12305 2.12062C8.76115 2.33014 8.3802 2.55871 8.03734 2.78728C4.32307 5.32061 2.01832 8.86345 1.21832 13.3015C1.14213 13.7015 1.10404 14.1015 1.04689 14.5015L0.970703 15.1301V17.0158L1.04689 17.5682C1.10404 17.9872 1.14213 18.3872 1.21832 18.8063C2.24689 24.1015 5.19926 28.0062 9.99924 30.4253C11.7516 31.3015 13.6945 31.8348 15.8278 31.9872L16.0754 32.0253H17.9611L18.5516 31.9491C18.9897 31.8919 19.4468 31.8348 19.8849 31.7586C24.2849 30.9395 28.0373 28.4062 30.4563 24.6539C32.8753 20.8824 33.5801 16.4063 32.4753 12.0634L32.4563 12.0444Z" fill="white"/>
<path d="M10.7994 11.2251C10.5708 11.4536 10.247 11.9298 10.6089 12.787C11.3899 14.6346 12.3232 16.387 13.3899 18.025C13.9422 18.8631 14.4946 19.5869 15.066 20.2155C15.6756 20.8822 16.5517 21.2441 17.447 21.2441C17.9041 21.2441 18.3803 21.1488 18.8375 20.9584C20.0565 20.4441 20.8184 19.225 20.8184 17.7774C20.7993 16.8441 20.3994 16.006 19.7136 15.4536C18.7041 14.6346 17.847 14.006 17.0089 13.4727C15.5613 12.5393 13.9613 11.7203 12.247 10.9965C11.4661 10.6727 10.9899 10.9965 10.7803 11.2251H10.7994Z" fill="white"/>
</g>
<defs>
<clipPath id="clip0_170_8953">
<rect width="32" height="32" fill="white" transform="translate(0.977295 0.0253906)"/>
</clipPath>
</defs>
</svg>
