<?xml version="1.0" encoding="UTF-8"?><svg id="Camada_1" xmlns="http://www.w3.org/2000/svg" viewBox="0 0 230 230"><defs><style>.cls-1{fill:#fff;}.cls-1,.cls-2{opacity:.1;}.cls-3{opacity:.05;}.cls-4{fill:#b5d2e0;}.cls-5{fill:#8bb2c4;}.cls-6{fill:#8db5c7;}.cls-7{fill:#cee6f0;}.cls-8{fill:#bfd0d9;}.cls-9{fill:#a6c1cf;}.cls-10,.cls-11,.cls-12,.cls-13,.cls-14{fill:#cbdde6;}.cls-15{fill:#cad8e0;}.cls-16{fill:#dfebf0;}.cls-17{fill:#dae7f0;}.cls-18{fill:#2486b2;}.cls-19{fill:#185875;}.cls-20{fill:#9c3d65;}.cls-11{opacity:.6;}.cls-12{opacity:.7;}.cls-13{opacity:.3;}.cls-14{opacity:.4;}</style></defs><polygon class="cls-16" points="16.02 65.64 213.98 65.64 230 230 0 230 16.02 65.64"/><polygon class="cls-9" points="28.83 76.27 201.17 76.27 215.11 219.36 14.89 219.36 28.83 76.27"/><polyline class="cls-4" points="15.25 215.64 210.34 215.64 196.75 76.28 201.17 76.28 215.12 219.37 14.89 219.37"/><polygon class="cls-6" points="14.49 219.36 17.85 219.36 31.8 76.28 201.17 76.27 200.81 72.54 28.8 72.55 14.49 219.36"/><rect class="cls-10" x="16.02" y="0" width="197.96" height="65.64"/><polygon class="cls-8" points="213.98 0 230 0 230 230 213.98 65.64 213.98 0"/><polygon class="cls-8" points="16.02 0 0 0 0 230 16.02 65.64 16.02 0"/><circle class="cls-5" cx="115" cy="33.87" r="24.32"/><circle class="cls-7" cx="115" cy="29.29" r="23.86"/><circle class="cls-4" cx="115" cy="32.29" r="23.86"/><g id="_5u0Wd1.tif"><path class="cls-19" d="M131.12,33.8c-.05,.54-.5,.96-1.07,.96-.9,.01-1.79,0-2.74,0,.08,.1,.12,.17,.18,.22,.36,.36,.73,.72,1.09,1.09,.5,.5,.52,1.16,.07,1.61-.45,.44-1.09,.41-1.58-.08-.89-.89-1.77-1.78-2.66-2.66-.1-.1-.26-.18-.4-.18-2.05-.01-4.1,0-6.15,0-.06,0-.12,0-.24,.01,.1,.11,.16,.18,.23,.25,1.41,1.41,2.82,2.82,4.24,4.22,.12,.12,.32,.2,.49,.2,1.29,.02,2.57,0,3.86,.02,.49,0,.87,.33,.99,.8,.12,.46-.07,.96-.49,1.18-.2,.1-.44,.15-.67,.16-.58,.02-1.16,0-1.8,0,.1,.12,.16,.19,.23,.26,.55,.56,1.11,1.1,1.66,1.66,.46,.47,.47,1.13,.04,1.56-.43,.43-1.09,.43-1.56-.04-.62-.61-1.23-1.23-1.89-1.9-.02,.13-.03,.21-.04,.29,0,.53,0,1.05,0,1.58-.01,.66-.47,1.14-1.07,1.15-.62,0-1.07-.48-1.08-1.16,0-1.25,0-2.51,0-3.76,0-.15-.07-.33-.17-.44-1.43-1.45-2.87-2.89-4.31-4.33-.05-.05-.09-.09-.18-.16,0,.14-.02,.24-.02,.33,0,1.99,0,3.99,0,5.98,0,.22,.07,.37,.22,.52,.9,.89,1.8,1.78,2.69,2.68,.35,.35,.42,.82,.21,1.24-.2,.4-.63,.67-1.07,.59-.25-.05-.51-.18-.7-.35-.45-.4-.86-.84-1.35-1.32v.44c0,.67-.03,1.34,0,2.01,.03,.66-.2,1.12-.81,1.39h-.54c-.61-.26-.85-.72-.81-1.39,.04-.62,0-1.25,0-1.88v-.57c-.48,.48-.9,.92-1.35,1.32-.19,.17-.45,.3-.7,.35-.44,.09-.87-.18-1.07-.59-.2-.42-.13-.89,.21-1.24,.9-.91,1.81-1.8,2.7-2.71,.11-.11,.19-.3,.19-.46,.01-2.01,0-4.03,0-6.04,0-.08-.01-.17-.02-.3-.12,.11-.2,.18-.28,.26-1.39,1.39-2.78,2.79-4.18,4.18-.17,.16-.22,.33-.22,.56,0,1.24,0,2.48,0,3.73,0,.53-.29,.93-.75,1.07-.7,.22-1.38-.29-1.4-1.06-.01-.61,0-1.22,0-1.9-.13,.12-.22,.19-.29,.27-.55,.55-1.09,1.1-1.64,1.64-.47,.46-1.13,.46-1.56,.03-.43-.43-.41-1.09,.05-1.56,.55-.56,1.11-1.11,1.66-1.66,.07-.07,.12-.14,.23-.26-.64,0-1.22,0-1.8,0-.19,0-.38-.03-.55-.1-.46-.19-.72-.68-.64-1.14,.09-.52,.49-.89,1.02-.9,1.3-.01,2.6,0,3.89-.02,.15,0,.33-.07,.44-.17,1.44-1.42,2.87-2.86,4.31-4.29,.06-.06,.1-.12,.17-.22-2.1,0-4.15,0-6.2,0-.28,0-.47,.07-.67,.27-.86,.89-1.74,1.77-2.63,2.64-.45,.44-1.11,.43-1.53,0-.41-.43-.41-1.06,.01-1.51,.15-.15,.3-.3,.45-.45,.3-.29,.61-.57,.91-.86-.02-.03-.04-.06-.06-.08-.79,0-1.59-.03-2.38,0-.66,.03-1.12-.2-1.39-.81v-.54c.26-.61,.73-.84,1.39-.81,.79,.04,1.59,0,2.47,0-.32-.32-.58-.58-.85-.84-.18-.18-.37-.36-.55-.55-.42-.45-.43-1.09-.01-1.51,.42-.43,1.09-.45,1.53,0,.91,.9,1.8,1.81,2.71,2.7,.09,.09,.24,.19,.36,.19,2.13,.01,4.25,0,6.43,0-.06-.09-.1-.15-.15-.2-1.44-1.44-2.88-2.88-4.33-4.31-.1-.1-.29-.17-.44-.17-1.28-.01-2.55,0-3.83-.01-.78,0-1.29-.73-1.03-1.44,.16-.44,.56-.7,1.08-.71,.6,0,1.2,0,1.88,0-.14-.15-.22-.24-.31-.33-.54-.54-1.08-1.07-1.61-1.62-.44-.45-.44-1.12-.02-1.54,.42-.42,1.09-.42,1.54,.01,.63,.62,1.25,1.25,1.95,1.96v-.77c0-.37,0-.74,0-1.11,0-.68,.46-1.17,1.07-1.17,.62,0,1.07,.48,1.07,1.17,0,1.25,0,2.51,0,3.76,0,.14,.06,.32,.15,.41,1.45,1.47,2.9,2.92,4.36,4.38,.04,.04,.08,.07,.17,.15v-.34c0-1.99,0-3.99,0-5.98,0-.22-.07-.37-.22-.52-.9-.89-1.8-1.78-2.69-2.68-.44-.45-.42-1.11,.01-1.53,.42-.41,1.06-.4,1.51,.02,.11,.1,.21,.2,.31,.31,.34,.34,.67,.68,1.08,1.1v-.61c0-.72,0-1.43,0-2.15,0-.63,.46-1.1,1.06-1.11,.61,0,1.08,.47,1.08,1.12,0,.88,0,1.76,0,2.72,.48-.48,.92-.91,1.34-1.34,.3-.3,.65-.43,1.07-.32,.83,.21,1.09,1.2,.46,1.83-.87,.89-1.75,1.76-2.64,2.63-.18,.17-.24,.34-.24,.58,0,1.96,0,3.92,0,5.88v.39c.1-.09,.17-.13,.23-.19,1.42-1.43,2.85-2.85,4.26-4.28,.11-.11,.19-.3,.19-.46,.02-1.24,0-2.48,0-3.73,0-.7,.43-1.18,1.05-1.19,.62-.01,1.09,.49,1.1,1.19,0,.59,0,1.18,0,1.86,.53-.53,.99-1,1.46-1.46,.17-.17,.33-.34,.5-.5,.45-.43,1.12-.43,1.54,0,.41,.42,.42,1.08,0,1.51-.57,.59-1.15,1.16-1.73,1.74-.05,.05-.1,.11-.21,.23,.5,0,.93,0,1.35,0,.22,0,.45-.01,.67,0,.58,.05,1.02,.56,1,1.11-.03,.57-.48,1.02-1.08,1.03-1.28,.01-2.55,0-3.83,.01-.13,0-.31,.03-.39,.12-1.51,1.5-3,3.01-4.53,4.54,.09,.01,.17,.03,.25,.03,2.03,0,4.05,0,6.08,0,.14,0,.32-.08,.43-.18,.91-.89,1.8-1.8,2.71-2.7,.35-.35,.82-.43,1.24-.23,.4,.19,.68,.62,.6,1.06-.05,.26-.19,.53-.37,.72-.4,.45-.84,.85-1.32,1.33,.91,0,1.75,0,2.58,0,.14,0,.29,0,.43,.03,.53,.12,.88,.62,.82,1.15Z"/></g><g id="_5u0Wd1.tif-2"><path class="cls-18" d="M131.12,32.8c-.05,.54-.5,.96-1.07,.96-.9,.01-1.79,0-2.74,0,.08,.1,.12,.17,.18,.22,.36,.36,.73,.72,1.09,1.09,.5,.5,.52,1.16,.07,1.61-.45,.44-1.09,.41-1.58-.08-.89-.89-1.77-1.78-2.66-2.66-.1-.1-.26-.18-.4-.18-2.05-.01-4.1,0-6.15,0-.06,0-.12,0-.24,.01,.1,.11,.16,.18,.23,.25,1.41,1.41,2.82,2.82,4.24,4.22,.12,.12,.32,.2,.49,.2,1.29,.02,2.57,0,3.86,.02,.49,0,.87,.33,.99,.8,.12,.46-.07,.96-.49,1.18-.2,.1-.44,.15-.67,.16-.58,.02-1.16,0-1.8,0,.1,.12,.16,.19,.23,.26,.55,.56,1.11,1.1,1.66,1.66,.46,.47,.47,1.13,.04,1.56-.43,.43-1.09,.43-1.56-.04-.62-.61-1.23-1.23-1.89-1.9-.02,.13-.03,.21-.04,.29,0,.53,0,1.05,0,1.58-.01,.66-.47,1.14-1.07,1.15-.62,0-1.07-.48-1.08-1.16,0-1.25,0-2.51,0-3.76,0-.15-.07-.33-.17-.44-1.43-1.45-2.87-2.89-4.31-4.33-.05-.05-.09-.09-.18-.16,0,.14-.02,.24-.02,.33,0,1.99,0,3.99,0,5.98,0,.22,.07,.37,.22,.52,.9,.89,1.8,1.78,2.69,2.68,.35,.35,.42,.82,.21,1.24-.2,.4-.63,.67-1.07,.59-.25-.05-.51-.18-.7-.35-.45-.4-.86-.84-1.35-1.32v.44c0,.67-.03,1.34,0,2.01,.03,.66-.2,1.12-.81,1.39h-.54c-.61-.26-.85-.72-.81-1.39,.04-.62,0-1.25,0-1.88v-.57c-.48,.48-.9,.92-1.35,1.32-.19,.17-.45,.3-.7,.35-.44,.09-.87-.18-1.07-.59-.2-.42-.13-.89,.21-1.24,.9-.91,1.81-1.8,2.7-2.71,.11-.11,.19-.3,.19-.46,.01-2.01,0-4.03,0-6.04,0-.08-.01-.17-.02-.3-.12,.11-.2,.18-.28,.26-1.39,1.39-2.78,2.79-4.18,4.18-.17,.16-.22,.33-.22,.56,0,1.24,0,2.48,0,3.73,0,.53-.29,.93-.75,1.07-.7,.22-1.38-.29-1.4-1.06-.01-.61,0-1.22,0-1.9-.13,.12-.22,.19-.29,.27-.55,.55-1.09,1.1-1.64,1.64-.47,.46-1.13,.46-1.56,.03-.43-.43-.41-1.09,.05-1.56,.55-.56,1.11-1.11,1.66-1.66,.07-.07,.12-.14,.23-.26-.64,0-1.22,0-1.8,0-.19,0-.38-.03-.55-.1-.46-.19-.72-.68-.64-1.14,.09-.52,.49-.89,1.02-.9,1.3-.01,2.6,0,3.89-.02,.15,0,.33-.07,.44-.17,1.44-1.42,2.87-2.86,4.31-4.29,.06-.06,.1-.12,.17-.22-2.1,0-4.15,0-6.2,0-.28,0-.47,.07-.67,.27-.86,.89-1.74,1.77-2.63,2.64-.45,.44-1.11,.43-1.53,0-.41-.43-.41-1.06,.01-1.51,.15-.15,.3-.3,.45-.45,.3-.29,.61-.57,.91-.86-.02-.03-.04-.06-.06-.08-.79,0-1.59-.03-2.38,0-.66,.03-1.12-.2-1.39-.81v-.54c.26-.61,.73-.84,1.39-.81,.79,.04,1.59,0,2.47,0-.32-.32-.58-.58-.85-.84-.18-.18-.37-.36-.55-.55-.42-.45-.43-1.09-.01-1.51,.42-.43,1.09-.45,1.53,0,.91,.9,1.8,1.81,2.71,2.7,.09,.09,.24,.19,.36,.19,2.13,.01,4.25,0,6.43,0-.06-.09-.1-.15-.15-.2-1.44-1.44-2.88-2.88-4.33-4.31-.1-.1-.29-.17-.44-.17-1.28-.01-2.55,0-3.83-.01-.78,0-1.29-.73-1.03-1.44,.16-.44,.56-.7,1.08-.71,.6,0,1.2,0,1.88,0-.14-.15-.22-.24-.31-.33-.54-.54-1.08-1.07-1.61-1.62-.44-.45-.44-1.12-.02-1.54,.42-.42,1.09-.42,1.54,.01,.63,.62,1.25,1.25,1.95,1.96v-.77c0-.37,0-.74,0-1.11,0-.68,.46-1.17,1.07-1.17,.62,0,1.07,.48,1.07,1.17,0,1.25,0,2.51,0,3.76,0,.14,.06,.32,.15,.41,1.45,1.47,2.9,2.92,4.36,4.38,.04,.04,.08,.07,.17,.15v-.34c0-1.99,0-3.99,0-5.98,0-.22-.07-.37-.22-.52-.9-.89-1.8-1.78-2.69-2.68-.44-.45-.42-1.11,.01-1.53,.42-.41,1.06-.4,1.51,.02,.11,.1,.21,.2,.31,.31,.34,.34,.67,.68,1.08,1.1v-.61c0-.72,0-1.43,0-2.15,0-.63,.46-1.1,1.06-1.11,.61,0,1.08,.47,1.08,1.12,0,.88,0,1.76,0,2.72,.48-.48,.92-.91,1.34-1.34,.3-.3,.65-.43,1.07-.32,.83,.21,1.09,1.2,.46,1.83-.87,.89-1.75,1.76-2.64,2.63-.18,.17-.24,.34-.24,.58,0,1.96,0,3.92,0,5.88v.39c.1-.09,.17-.13,.23-.19,1.42-1.43,2.85-2.85,4.26-4.28,.11-.11,.19-.3,.19-.46,.02-1.24,0-2.48,0-3.73,0-.7,.43-1.18,1.05-1.19,.62-.01,1.09,.49,1.1,1.19,0,.59,0,1.18,0,1.86,.53-.53,.99-1,1.46-1.46,.17-.17,.33-.34,.5-.5,.45-.43,1.12-.43,1.54,0,.41,.42,.42,1.08,0,1.51-.57,.59-1.15,1.16-1.73,1.74-.05,.05-.1,.11-.21,.23,.5,0,.93,0,1.35,0,.22,0,.45-.01,.67,0,.58,.05,1.02,.56,1,1.11-.03,.57-.48,1.02-1.08,1.03-1.28,.01-2.55,0-3.83,.01-.13,0-.31,.03-.39,.12-1.51,1.5-3,3.01-4.53,4.54,.09,.01,.17,.03,.25,.03,2.03,0,4.05,0,6.08,0,.14,0,.32-.08,.43-.18,.91-.89,1.8-1.8,2.71-2.7,.35-.35,.82-.43,1.24-.23,.4,.19,.68,.62,.6,1.06-.05,.26-.19,.53-.37,.72-.4,.45-.84,.85-1.32,1.33,.91,0,1.75,0,2.58,0,.14,0,.29,0,.43,.03,.53,.12,.88,.62,.82,1.15Z"/></g><path class="cls-17" d="M16.02,0s6.57,1.65,8.75,7.57c3.32,8.98-.46,36.57,14.07,41.24,26.06,8.38,25.4,16.83,25.4,16.83H16.02V0Z"/><path class="cls-15" d="M16.02,0s-4.2,1.82-3.27,12.28c.46,5.17-1.97,43.87-1.52,50.06,.84,11.6-2.03,27.24-1.92,33.13,.26,13.98,1.6,22.55,1.6,22.55l5.11-52.38V0Z"/><path class="cls-17" d="M213.98,0s-8.77,7.12-8.31,17.57c.46,10.45,4.33,11.83-.02,20.1-4.35,8.27-17.45,11.68-21.82,18.48-4.37,6.8-8.39,9.49-8.39,9.49h38.53V0Z"/><path class="cls-15" d="M213.98,0V65.64l2.91,29.84s4.85-18.07,3.45-27.68c-1.41-9.61-4.69-13.59-1.41-24.61C222.21,32.17,213.98,0,213.98,0Z"/><g><g><path class="cls-14" d="M163.09,100.13c0,16.05-21.51,29.06-48.05,29.06s-48.05-13.01-48.05-29.06,21.51-29.06,48.05-29.06,48.05,13.01,48.05,29.06Z"/><path class="cls-20" d="M165.01,137.22c0,13.48-22.41,25.75-50.01,25.75s-49.93-12.27-49.93-25.75,22.37-24.4,49.97-24.4,49.97,10.92,49.97,24.4Z"/><path class="cls-2" d="M165.01,137.22c0,13.48-22.41,25.75-50.01,25.75s-49.93-12.27-49.93-25.75,22.37-24.4,49.97-24.4,49.97,10.92,49.97,24.4Z"/><path class="cls-1" d="M162.42,137.26c0,12.78-21.25,24.41-47.41,24.41s-47.34-11.64-47.34-24.41,21.21-23.13,47.38-23.13,47.38,10.36,47.38,23.13Z"/><path class="cls-3" d="M142.81,156.77c-7.95,2.84-17.52,4.55-27.81,4.55s-19.83-1.7-27.76-4.54c7.81-2.77,17.42-4.4,27.8-4.4s19.97,1.63,27.77,4.4Z"/><path class="cls-2" d="M111.91,126.34c.13-3.7,2.33-3.17,6.82-2.69,6.35,.68-2.47,1.01-3.3,1.24-2.46,.69-3.61,4.04-3.52,1.44Z"/><path class="cls-1" d="M87.03,122c-3.64-.64,3.99-3.79,8.5-3.79s.03,.98-3.38,1.76c-4.76,1.1-1.82,2.61-5.12,2.03Z"/><path class="cls-1" d="M139.15,120.16c2.5,1.86-.99,.92-5.4,0-4.41-.92-7.2-1.89-3.7-1.96,4.88-.1,6.45-.01,9.1,1.96Z"/><path class="cls-20" d="M164.29,141.42c-4.72,22.42-10.66,47.9-17.11,52.95-9.41,7.36-47.45,8.74-62.85,1.71-8.54-3.9-13.46-24.69-18.85-55.66,3.17,12.16,24.1,22.56,49.51,22.56s45.24-9.83,49.29-21.55Z"/><path class="cls-14" d="M166.13,130.35c0,20.14-9.35,63.03-17.27,69.19-9.62,7.49-51.09,12.06-69.69-.96-10.04-7.04-16.09-56.7-15.21-72.35,.79-14.03,1.11-26.1,1.11-26.1,0,16.69,22.37,30.22,49.97,30.22s49.97-13.53,49.97-30.22c0,0,1.11,12.52,1.11,30.22Z"/><path class="cls-14" d="M115.04,130.85c-16.97,0-31.91-5.23-40.67-13.16,9.07,7.66,23.91,12.65,40.67,12.65s31.62-5,40.68-12.67c-8.76,7.95-23.71,13.18-40.68,13.18Z"/><path class="cls-11" d="M166.13,130.35c0,20.14-9.35,63.03-17.27,69.19-9.62,7.49-51.09,12.06-69.69-.96-10.04-7.04-16.09-56.7-15.21-72.35,.79-14.03,1.11-26.1,1.11-26.1,0,2,.32,3.96,.94,5.86-.16,4.69-.47,12.4-.94,20.83-.86,15.31,5.06,63.9,14.88,70.78,18.19,12.74,58.75,8.27,68.17,.93,7.75-6.02,16.89-47.98,16.89-67.68,0-11.26-.46-20.37-.78-25.38,.52-1.74,.78-3.52,.78-5.35,0,0,1.11,12.52,1.11,30.22Z"/><path class="cls-14" d="M74.37,117.69c-4.06-3.43-6.96-7.4-8.36-11.71,.11-2.94,.15-4.69,.15-4.69,0,6.07,3.02,11.72,8.21,16.4Z"/><path class="cls-14" d="M164.23,105.48c-1.32,4.47-4.25,8.59-8.44,12.15,5.14-4.68,8.13-10.29,8.13-16.34,0,0,.13,1.5,.31,4.19Z"/><path class="cls-13" d="M158.01,115.56c5.08,10.82,1.96,24.05-2.74,50.68v-46.07l2.74-4.61"/><path class="cls-11" d="M115.04,69.91c-27.6,0-49.97,13.53-49.97,30.21s22.37,30.22,49.97,30.22,49.97-13.53,49.97-30.22-22.38-30.21-49.97-30.21Zm0,59.28c-26.54,0-48.05-13.01-48.05-29.06s21.51-29.06,48.05-29.06,48.05,13.01,48.05,29.06-21.51,29.06-48.05,29.06Z"/><path class="cls-12" d="M91.18,115.43s-8.94-33.65,4.19-41.81c0,.17-5.11,1.19-10.58,3.94-5.65,2.84,1.43,39.36,1.43,39.36l4.96-1.48Z"/><path class="cls-13" d="M77.11,165.53c5.99,15.35,8.97,25.83,23.1,26.16,6.48,.15-10.86,7.19-16.9-1.84s-13.06-21.21-6.2-24.32Z"/></g><path class="cls-2" d="M153.92,199.93c-2.28,7-32.09,12.68-53.55,5.98,27.39,3.39,49.56-3.63,51.1-9.4,0,0,2.91,2,2.45,3.42Z"/></g></svg>