<?xml version="1.0" encoding="UTF-8"?><svg id="Camada_1" xmlns="http://www.w3.org/2000/svg" viewBox="0 0 230 230"><defs><style>.cls-1{opacity:.05;}.cls-1,.cls-2,.cls-3{fill:#fff;}.cls-2,.cls-4{opacity:.1;}.cls-5{fill:#677070;}.cls-6{fill:#f0e0c7;}.cls-7{fill:#e89535;}.cls-8{fill:#eda755;}.cls-9{fill:#e6dfcf;}.cls-10{fill:#8182a1;}.cls-11{fill:#ba6f18;}.cls-12{fill:#66677f;}.cls-13{fill:#33322f;}.cls-14{fill:#bccccc;}.cls-15{fill:#a69379;}.cls-16{fill:#dedbcb;}.cls-17{fill:#c77b24;}.cls-18{fill:#dbc89e;}.cls-19{fill:#d9543f;}.cls-20{fill:#232626;}.cls-21{fill:#414257;}.cls-22{fill:#121414;}.cls-23{fill:#1d2121;}.cls-24{fill:#947f59;}.cls-25{fill:#6e7878;}.cls-26{fill:#555666;}.cls-27{fill:#63625b;}.cls-28{fill:#2f3333;}.cls-29{fill:#3a4040;}.cls-30{fill:#778282;}.cls-3{opacity:.2;}.cls-31{fill:#d9a198;opacity:.3;}</style></defs><g><polygon class="cls-20" points="207.55 115.76 137.89 200.5 20.87 149.63 104.5 78.09 207.55 115.76"/><path class="cls-5" d="M224.45,135.8l-73.3,89.67c-3.51,4.32-9.49,5.74-14.57,3.44L6.82,171.25c-4.14-1.84-6.82-5.95-6.82-10.49v-8.95c33.11,12.08,139.01,66.41,139.01,66.41l90.99-104.66-.5,9.18c-.26,4.78-2.03,9.35-5.05,13.07Z"/><path class="cls-14" d="M228.05,120.52l-76.52,93.07c-3.75,4.57-10.08,6.09-15.5,3.73L4.79,160.27c-5.39-2.34-6.47-9.52-2-13.34L100.42,63.41c.85-.73,2.02-.94,3.07-.55l120.88,44.18c5.54,2.03,7.42,8.92,3.67,13.48Z"/><polygon class="cls-30" points="207.55 115.76 137.89 200.5 20.87 149.63 104.5 78.09 207.55 115.76"/><polygon class="cls-25" points="207.56 115.76 137.89 200.5 136.73 199.99 203.19 119.15 102.72 82.44 23.05 150.57 20.87 149.63 104.5 78.1 207.56 115.76"/><path class="cls-23" d="M188.65,119.5c-.08,1.02-.46,2-1.09,2.81l-41.6,52.99c-5.49,6.84-14.92,9.09-22.91,5.49l-74.32-33.5c-1.95-.88-3.21-2.81-3.23-4.95l-.03-3.03,65.09-50.18,78.54,24.43-.45,5.95Z"/><path class="cls-28" d="M188.7,115.27l-44.52,54.15c-4.9,5.97-13.17,7.96-20.25,4.88l-77.73-33.79c-.77-.34-.92-1.36-.29-1.91l63.91-54.67,78.12,28.55c1.14,.42,1.53,1.84,.76,2.78Z"/><path class="cls-31" d="M180.89,121.29l-38.6,40.31c-4.25,4.44-11.42,5.92-17.56,3.63l-67.4-25.15c-.67-.25-.8-1.01-.25-1.42l55.42-40.69,67.74,21.26c.99,.31,1.33,1.37,.66,2.07Z"/><path class="cls-19" d="M180.88,119.61l-39.64,38.01c-4.37,4.19-11.73,5.58-18.03,3.42l-69.21-23.72c-.69-.24-.82-.96-.25-1.34l56.91-38.37,69.56,20.04c1.02,.29,1.36,1.29,.68,1.95Z"/><polygon class="cls-23" points="124.21 174.33 126.34 154.41 133.52 153.41 143.44 170.07 135.26 179.2 124.21 174.33"/><polygon class="cls-22" points="134.33 178.79 122.91 174.33 125.04 154.42 132.23 153.41 132.32 153.58 126.34 154.42 124.21 174.33 134.33 178.79"/><polygon class="cls-29" points="143.45 170.07 134.33 178.79 142.14 170.07 132.32 153.58 133.52 153.41 143.45 170.07"/></g><g><path class="cls-15" d="M203.82,91.51c9.31,21.13-25.02,70.09-84.83,68.09-91.76-3.06-104.59-26.21-108.67-60.59-3.24-27.32,43.08-50.17,96.72-50.6,53.64-.43,85.7,17.92,96.79,43.1Z"/><ellipse class="cls-24" cx="106.56" cy="99.22" rx="96.21" ry="45.93" transform="translate(-.8 .87) rotate(-.46)"/><ellipse class="cls-6" cx="106.7" cy="92.29" rx="97.12" ry="49.82" transform="translate(-.74 .87) rotate(-.46)"/><ellipse class="cls-18" cx="105.25" cy="93.93" rx="93.74" ry="44.82" transform="translate(-.76 .85) rotate(-.46)"/><ellipse class="cls-9" cx="105.3" cy="99.62" rx="88.57" ry="39.14" transform="translate(-.8 .85) rotate(-.46)"/><polygon class="cls-27" points="247.44 143.66 185.06 127.7 199.65 113.35 244.73 121.88 247.44 143.66"/><polygon class="cls-13" points="247.01 140.23 186.91 126.39 198.76 114.66 244.9 123.22 247.01 140.23"/><polygon class="cls-16" points="247.66 145.43 183.79 128.56 185.06 127.7 247.44 143.66 247.66 145.43"/></g><g><path class="cls-11" d="M183.78,97.98c.15,19.15-17.39,40.32-78.2,40.32S26.97,118.4,26.81,99.25s34.86-29.96,78.2-30.31,78.61,9.89,78.77,29.04Z"/><ellipse class="cls-7" cx="105.3" cy="98.62" rx="78.49" ry="34.68" transform="translate(-.79 .85) rotate(-.46)"/><path class="cls-8" d="M178.14,100.53c-.88,9.53-13.86-31.59-71.93-26.13-40.04,3.77-41.38-5.14-1.16-5.46,40.22-.33,74.71,13.89,73.08,31.59Z"/><g><ellipse class="cls-17" cx="92.7" cy="106.43" rx="1.64" ry="1.08" transform="translate(-46.77 128.07) rotate(-57.76)"/><ellipse class="cls-17" cx="126.86" cy="105.53" rx="1.64" ry="1.08" transform="translate(-30.07 156.55) rotate(-57.76)"/><ellipse class="cls-17" cx="136.62" cy="90.62" rx="1.64" ry="1.08" transform="translate(-12.91 157.84) rotate(-57.76)"/><ellipse class="cls-17" cx="74.26" cy="93.28" rx="1.64" ry="1.08" transform="translate(-44.25 106.34) rotate(-57.76)"/><ellipse class="cls-17" cx="112.28" cy="83.93" rx="1.64" ry="1.08" transform="translate(-18.61 134.14) rotate(-57.76)"/><ellipse class="cls-17" cx="62.68" cy="116.5" rx="1.64" ry="1.08" transform="translate(-69.3 107.38) rotate(-57.76)"/><ellipse class="cls-17" cx="60.1" cy="82.75" rx="1.64" ry="1.08" transform="translate(-41.95 89.45) rotate(-57.76)"/><ellipse class="cls-17" cx="121.01" cy="125.6" rx="1.64" ry="1.08" transform="translate(-49.78 160.97) rotate(-57.76)"/><ellipse class="cls-17" cx="95.07" cy="122.89" rx="1.64" ry="1.08" transform="translate(-59.59 137.75) rotate(-57.76)"/><ellipse class="cls-17" cx="152.97" cy="107.93" rx="1.64" ry="1.08" transform="translate(-19.92 179.76) rotate(-57.76)"/></g></g><g><path class="cls-21" d="M21.52,191.74c.82,7.61,12.6,29.67,38.08,25.46,28.72-4.75,28.44-21.23,27.11-34.19-.78-7.62-15.18-3.78-33.51-1.8-18.32,1.98-32.51,2.91-31.69,10.53Z"/><path class="cls-26" d="M20.52,191.74c.82,7.61,12.73,30.4,38.08,25.46,28.81-5.62,29.11-25.03,28.28-32.65s-16.35-5.32-34.67-3.34c-18.32,1.98-32.51,2.91-31.69,10.53Z"/><ellipse class="cls-10" cx="53.62" cy="187.39" rx="33.37" ry="13.1" transform="translate(-19.86 6.86) rotate(-6.18)"/><path class="cls-26" d="M2.69,6.89C4.17,2.32,4.34,.02,6.16,.01c4.89-.01,6.81,2.15,8.42,4.16,8.13,10.17,9.57,30.31,30.76,128.87,8.63,40.22,16.54,40.81,16.99,40.81l-30.62,6.82c14.33-9.17,3.67-55.91-11.43-100.87C10.87,51.72-1,18.19,2.69,6.89Zm6.43-3.43c-2.33,0-4.22,1.89-4.22,4.22s1.89,4.22,4.22,4.22,4.22-1.89,4.22-4.22-1.89-4.22-4.22-4.22Z"/><ellipse class="cls-12" cx="53.53" cy="186.61" rx="33.37" ry="12.32" transform="translate(-19.78 6.85) rotate(-6.18)"/><path class="cls-7" d="M54.86,198.85c-15.16,1.65-28.34-.72-32.86-5.42-.7-6.75,13.56-13.82,31.85-15.81,15.16-1.64,28.34,.73,32.86,5.42,.69,6.76-13.56,13.83-31.85,15.81Z"/><path class="cls-2" d="M56.02,208.59c.09-4.23,2.74-7.95,3.52-10.37-.27,.05-.54,.09-.81,.13-.64,.1-1.28,.19-1.92,.27-.1,.02-.19,.03-.29,.04-.55,.07-1.1,.14-1.66,.2h-.01c-.87,.09-1.73,.18-2.59,.24-2.82,.23-5.55,.32-8.15,.27,8.33,6.19,7.73,14.16,5.03,18.43,2.91,.24,6.07,.07,9.46-.59,.34-.07,.68-.14,1.02-.2-.61-.83-3.74-2.03-3.6-8.42Z"/><path class="cls-4" d="M69.39,195.99s0,.02-.02,0c-3.25,.97-6.83,1.77-10.64,2.35-.64,.1-1.28,.19-1.92,.27-.1,.02-.19,.03-.29,.04-.55,.07-1.1,.14-1.66,.2h-.01c-.87,.09-1.73,.18-2.59,.24-4.17,.34-8.16,.37-11.82,.12-.32-.02-.64-.04-.95-.07-.32-.03-.63-.05-.94-.08-1.24-.11-2.44-.26-3.58-.45-.57-.1-1.13-.19-1.68-.3-.55-.1-1.08-.21-1.6-.34-.5-.11-.98-.24-1.45-.36-.27-.08-.54-.15-.79-.23-1.66-.49-3.14-1.08-4.39-1.74-.18-.1-.35-.19-.52-.29-.17-.1-.34-.2-.5-.3-.16-.1-.31-.2-.47-.31-.6-.41-1.13-.85-1.57-1.31-.2-1.93,.82-3.88,2.81-5.73,4.67,.85,12.31,4.34,19.73,6.54,10.84,3.21,26.63-.32,24.85,1.75Z"/><path class="cls-12" d="M.69,6.89C4.35-4.39,9.87,.8,12.58,4.17c8.13,10.17,9.57,30.31,30.76,128.87,8.63,40.22,17.51,40.81,17.96,40.81l-31.58,6.82c14.33-9.17,3.67-55.91-11.43-100.87C8.87,51.72-3,18.19,.69,6.89ZM7.11,3.47c-2.33,0-4.22,1.89-4.22,4.22s1.89,4.22,4.22,4.22,4.22-1.89,4.22-4.22-1.89-4.22-4.22-4.22Z"/><path class="cls-2" d="M39.43,157.21c0,5.63-.55,12.31-4.48,22.06,0,0,9.96-7.37,6.92-21.39-3.04-14.02-2.45-1.31-2.45-.68Z"/><path class="cls-3" d="M46.03,159.49c1.54,5.41,2.71,5.25,9.15,13.56,0,0-10.24-.55-11.12-15-.87-14.32,1.8,.83,1.97,1.44Z"/><path class="cls-2" d="M38.7,144.29S26.1,77.21,7.49,23.16c-3.89,22.31,22.97,75.55,29.04,121.93,.75,5.06,2.16-.79,2.16-.79Z"/></g><path class="cls-1" d="M53.76,181.12c-.21,1.92,1.88,1.61,10.93,.07,4.96-.84-10.51-3.83-10.93-.07Z"/><path class="cls-4" d="M80.91,185.57c-.21,1.92-10.01,4.39-.95,2.86,4.96-.84,1.37-6.61,.95-2.86Z"/><path class="cls-2" d="M28.34,202.21c0,6.89,13.68,13.31,13.68,11.62-7.58-4.51-13.68-11.93-13.68-11.62Z"/></svg>