<?xml version="1.0" encoding="UTF-8"?><svg id="Camada_1" xmlns="http://www.w3.org/2000/svg" viewBox="0 0 230 230"><defs><style>.cls-1,.cls-2{opacity:.1;}.cls-1,.cls-3{fill:#dedede;}.cls-2,.cls-4,.cls-5,.cls-6{fill:#fff;}.cls-7{opacity:.05;}.cls-8{fill:#f1a94d;}.cls-9{fill:#e6cacc;}.cls-10{fill:#f19824;}.cls-11{fill:#99a6a6;}.cls-12{fill:#666e6e;}.cls-13{fill:#bccccc;}.cls-14{fill:#cfe0e0;}.cls-15{fill:#d6a9ac;}.cls-16{fill:#171a1a;}.cls-17{fill:#232626;}.cls-18{fill:#1d2121;}.cls-19{fill:#95c7de;}.cls-20{fill:#2f3333;}.cls-21{fill:#3a4040;}.cls-22{fill:#788585;}.cls-23{fill:#505757;}.cls-24{fill:#cee8e8;}.cls-24,.cls-25,.cls-4{opacity:.2;}.cls-25{fill:#7f8f8f;}.cls-26{opacity:.15;}.cls-27{fill:#abc1cc;opacity:.6;}.cls-5{opacity:.5;}.cls-6{opacity:.3;}.cls-3{opacity:.4;}</style></defs><g><polygon class="cls-9" points="0 140.35 230 42.88 230 230 0 230 0 140.35"/><polygon class="cls-15" points="0 148.82 230 51.42 230 230 0 230 0 148.82"/><polygon class="cls-9" points="0 157.57 230 60.7 230 230 0 230 0 157.57"/><polygon class="cls-15" points="0 207.6 230 110.73 230 230 0 230 0 207.6"/><polygon class="cls-9" points="0 217.6 230 120.74 230 230 0 230 0 217.6"/><polygon class="cls-15" points="230 167.95 230 230 91.66 230 230 167.95"/><polygon class="cls-9" points="230 179.05 230 230 114.78 230 230 179.05"/></g><g><g class="cls-26"><path class="cls-18" d="M60.85,170.04s-11.12,9.41-12.44,30.25l82.18,31.71,.88-39.44-70.62-22.51Z"/><path class="cls-18" d="M177,152.06s8.11,8.12,12.19,22.77c0,0-28.61,34.39-58.61,57.17l.88-39.4,45.53-40.54Z"/></g><g><path class="cls-13" d="M59.85,168.04s-11.12,9.41-12.44,30.25l82.18,31.71,.88-39.44-70.62-22.51Z"/><path class="cls-14" d="M176,150.06s8.11,8.12,12.19,22.77c0,0-28.61,34.39-58.61,57.17l.88-39.4,45.53-40.54Z"/></g><g><path class="cls-18" d="M176,150.06c-.06,.68-.38,1.33-.9,1.87l-34.22,35.32c-4.52,4.56-12.27,6.06-18.85,3.66l-61.13-22.33c-1.61-.59-2.64-1.88-2.66-3.3l-.02-2.02,53.54-33.45,64.61,16.29-.37,3.97Z"/><path class="cls-20" d="M176.04,147.24l-36.62,36.1c-4.03,3.98-10.83,5.3-16.66,3.25l-63.94-22.52c-.63-.22-.76-.91-.24-1.27l52.57-36.44,64.26,19.03c.94,.28,1.26,1.23,.62,1.85Z"/></g><ellipse class="cls-21" cx="91.35" cy="196.74" rx="13.37" ry="14.67" transform="translate(-125.33 206.74) rotate(-67.74)"/><ellipse class="cls-12" cx="88.94" cy="196.74" rx="13.37" ry="14.67" transform="translate(-126.83 204.51) rotate(-67.74)"/><path class="cls-22" d="M90.95,210.27c-2.31,.16-4.73-.2-7.07-1.16-7.5-3.07-11.31-11.1-8.51-17.93,2.17-5.32,7.71-8.34,13.6-7.97-5.09,.36-9.64,3.27-11.57,7.97-2.79,6.83,1.02,14.86,8.52,17.93,1.66,.68,3.36,1.06,5.03,1.16Z"/><g><path class="cls-16" d="M84.61,197.63l11.94-11.94c.16,.1,.31,.21,.46,.32,.53,.37,1.02,.78,1.49,1.21l.78,.77s.06,.07,.09,.1c.07,.08,.14,.16,.22,.24l-12.14,12.13c-.7,.7-1.8,.73-2.53,.08-.04-.02-.07-.05-.1-.08l-.21-.21c-.72-.72-.72-1.9,0-2.62Z"/><path class="cls-20" d="M85,198.02l12.01-12.01c.53,.37,1.02,.78,1.49,1.21l.78,.77s.06,.07,.09,.1c.07,.08,.14,.16,.22,.24,.12,.14,.24,.28,.35,.43l-12.1,12.09c-.73,.73-1.9,.73-2.63,0l-.21-.21s-.06-.06-.08-.1c-.64-.72-.61-1.83,.08-2.52Z"/><path class="cls-23" d="M84.63,200.08l.21,.21c.73,.73,1.9,.73,2.63,0l12.05-12.04s.04,.05,.07,.08c.12,.14,.24,.28,.35,.43l-12.1,12.09c-.73,.73-1.9,.73-2.63,0l-.21-.21s-.06-.06-.08-.1c-.13-.14-.23-.3-.29-.46Z"/><path class="cls-11" d="M83.89,203.75l-2.09-2.09c-.16-.16-.44-.08-.49,.14l-.59,2.68c-.05,.21,.14,.39,.35,.35l2.68-.59c.22-.05,.3-.33,.14-.49Z"/><path class="cls-13" d="M84.01,203.94l-2.09-2.09c-.16-.16-.44-.08-.49,.14l-.59,2.68c-.05,.21,.14,.39,.35,.35l2.68-.59c.22-.05,.3-.33,.14-.49Z"/></g><g><path class="cls-27" d="M57.47,22.12c-.01,1.13,.16,2.24,.56,3.34,0,.01,.01,.04,.01,.06h0c.56,3.51,1.53,9.43,2.68,16.62,0,0-23.17-15.47-17.32-19.37,16.65-11.12,24.87-14.12,25.83-14.45-7.3,3.77-11.67,8.54-11.76,13.8Z"/><path class="cls-27" d="M58.04,25.52c.1,.26,.19,.53,.31,.79-.12-.26-.22-.51-.31-.78h0Z"/><path class="cls-27" d="M158.15,108.9c-7.74,63.74-18.7,62.88-42.11,62.77-27.37-.12-32.84,3.15-44.5-64.05-3.11-17.92-11.34-68.66-13.52-82.16,.76,2.29,2.36,4.49,4.65,6.53,2.87,19.24,9.06,60.33,11.6,74.95,10.9,62.73,16,59.66,41.54,59.78,21.85,.09,32.08,.89,39.29-58.58,1.41-11.62,11.75-42.2,11.18-77.16,1.88-2.24,2.9-4.66,2.95-7.2,3.02,41.46-9.43,71.63-11.07,85.13Z"/><path class="cls-8" d="M155.1,108.13c-7.22,59.47-17.44,58.67-39.29,58.58-25.53-.12-30.64,2.95-41.54-59.78-2.54-14.62-8.73-55.7-11.6-74.95,8.83,7.91,28.01,13.55,50.34,13.89,24.68,.37,45.73-5.9,53.27-14.9,.57,34.97-9.77,65.55-11.18,77.16Z"/><ellipse class="cls-24" cx="113.35" cy="22.94" rx="19.63" ry="47.82" transform="translate(88.74 135.94) rotate(-89.15)"/><path class="cls-27" d="M113.69,.02c-30.86-.47-56.03,9.43-56.22,22.1-.18,12.66,24.68,23.31,55.54,23.76,30.86,.45,56.03-9.45,56.22-22.12C169.41,11.1,144.55,.47,113.69,.02Zm-.63,42.55c-26.4-.4-47.68-9.49-47.52-20.33,.16-10.84,21.69-19.32,48.11-18.92,26.4,.4,47.68,9.49,47.52,20.33s-21.69,19.32-48.11,18.92Z"/><path class="cls-25" d="M161.08,24.71c-1.5,10.34-22.48,18.23-48.02,17.86-22.69-.34-41.61-7.1-46.36-15.89,1.5-10.34,22.48-18.24,48.02-17.86,22.71,.34,41.61,7.1,46.36,15.89Z"/><path class="cls-19" d="M160.97,25.23c-2.11,10.07-22.81,17.71-47.92,17.34-21.07-.31-38.89-6.18-45.14-14.05,2.11-10.07,22.81-17.71,47.92-17.34,21.09,.31,38.91,6.18,45.14,14.06Z"/><path class="cls-19" d="M160.97,25.23c-2.11,10.07-22.81,17.71-47.92,17.34-21.07-.31-38.89-6.18-45.14-14.05,2.11-10.07,22.81-17.71,47.92-17.34,21.09,.31,38.91,6.18,45.14,14.06Z"/><path class="cls-10" d="M160.97,25.23c-1.06,5-6.66,9.38-15.11,12.49-8.61,3.18-20.16,5.03-32.81,4.84-12.19-.18-23.3-2.21-31.71-5.44-6.12-2.33-10.8-5.3-13.43-8.61,2.11-10.07,22.81-17.71,47.92-17.34,21.09,.31,38.91,6.18,45.14,14.06Z"/><path class="cls-2" d="M157.94,30.57c-2.64,2.77-6.79,5.21-12.07,7.15-8.61,3.18-20.16,5.03-32.81,4.84-12.19-.18-23.3-2.21-31.71-5.44-4.28-1.63-7.86-3.58-10.52-5.73,6.97-7.28,24.47-12.28,44.88-11.98,18.41,.27,34.33,4.79,42.22,11.15Z"/><path class="cls-4" d="M156.65,26.72c-8.26-5.85-23.47-9.93-40.94-10.18-19.24-.29-35.9,4.14-43.59,10.75-4.2-2.85,22.56-15.28,42.96-14.97,18.42,.26,46.08,11.32,41.56,14.4Z"/><path class="cls-4" d="M135.26,29.26c-4.89-3.47-13.91-5.89-24.26-6.03-11.41-.17-21.28,2.45-25.84,6.37-2.49-1.69,13.37-9.05,25.46-8.87,10.92,.16,27.32,6.71,24.64,8.53Z"/><path class="cls-4" d="M106.37,27.23c3.61,2.64,10.3,4.54,18.01,4.76,8.49,.25,15.88-1.59,19.32-4.46,1.84,1.28-10.06,6.6-19.07,6.33-8.13-.24-20.27-5.3-18.26-6.63Z"/><path class="cls-4" d="M75.19,28.94c7.72,4.6,22.01,7.94,38.47,8.37,18.13,.49,33.89-2.67,41.21-7.64,3.93,2.24-21.44,11.4-40.66,10.88-17.36-.46-43.31-9.32-39.01-11.62Z"/><path class="cls-24" d="M155.1,108.13c-7.22,59.47-17.44,58.67-39.29,58.58-25.53-.12-30.64,2.95-41.54-59.78-2.54-14.62-8.73-55.7-11.6-74.95,8.83,7.91,28.01,13.55,50.34,13.89,24.68,.37,45.73-5.9,53.27-14.9,.57,34.97-9.77,65.55-11.18,77.16Z"/><g><path class="cls-6" d="M104.33,167.04l-3.31-.32-12.66-123.55c1.67,.35,3.37,.69,5.13,.98l10.84,122.89Z"/><path class="cls-6" d="M139.88,43.45l-12.63,123.26-3.3,.32,10.81-122.64c1.76-.28,3.46-.59,5.12-.94Z"/><path class="cls-6" d="M162.11,34.76l-16.78,119.62-3.73,5.1,14.34-121.18c2.32-1.1,4.39-2.29,6.16-3.55Z"/><path class="cls-6" d="M91.26,162.11l-3.81-4.85-16.32-119.81c1.85,.91,3.86,1.75,6,2.52l14.14,122.15Z"/><path class="cls-6" d="M117.86,45.87l-1.2,120.85h-4.36l.25-120.85h.45c1.16,.01,2.3,.01,3.43,0h1.42Z"/></g><g><path class="cls-3" d="M154.3,87.98l17.23,.87,1.45-4.18s-3.95,2.13-5.52,2.02c-6.55-.47-13.16,1.29-13.16,1.29Z"/><path class="cls-17" d="M154.95,44.24l14.75-11.54,14.21,4.2s11.46,59.08-6.28,63.97c-10.14,2.79-23.56,3.3-23.56,3.3l.24-16.19,9.7-4.67,8.99,1.37,.74-35.89-9.13-1.3-9.73,2.08,.08-5.32Z"/><path class="cls-3" d="M183.9,36.9l-5.46,5.23c4.39-4.85-.21-7.73-8.74-9.43l14.21,4.2Z"/><path class="cls-3" d="M185.39,71.29c.39,5.29-1.97,22.48-1.14,20.63,3.27-7.25,1.99-32.31,1.68-33.81s-.71,10.96-.54,13.18Z"/><polygon class="cls-3" points="154.3 87.98 172.93 88.87 172.99 84.67 164 83.3 154.3 87.98"/><path class="cls-1" d="M172.93,88.87c-10.39,1.36-16.04,7.04-18.86,15.3l.24-16.19,18.62,.9Z"/></g><path class="cls-6" d="M44.79,24.45l12.33,.78,2.53,14.46s-13.93-8.88-14.85-15.24Z"/><path class="cls-5" d="M46.7,25.49l9.67,.61,1.98,11.34s-10.93-6.97-11.65-11.95Z"/><path class="cls-7" d="M44.79,24.45l20.75-13.29,3.7,3.66c-4.15,4.67-5.15,9.25-1.31,13.69l-10.81-3.28-12.33-.78Z"/><path class="cls-7" d="M65.8,24.74l-1.63-.62-12.25-1.63,16.15-8.84,1.16,1.16c-2.99,3.37-4.34,6.69-3.43,9.93Z"/><path class="cls-7" d="M68.09,16.19c-1.6,2.13-2.49,4.22-2.57,6.29l-7.17-.95,9.74-5.34Z"/></g></g></svg>