<svg width="33" height="33" viewBox="0 0 33 33" fill="none" xmlns="http://www.w3.org/2000/svg">
<g clip-path="url(#clip0_215_16911)">
<path d="M23.6199 2.98535C21.8882 2.96025 20.2718 3.42205 18.8915 4.24025C17.9729 4.78739 17.1597 5.49013 16.4871 6.31837C15.8144 5.49515 15.0013 4.78739 14.0827 4.24025C12.6973 3.42205 11.0809 2.96025 9.34918 2.98535C4.38981 3.06064 0.263694 7.46786 0.494596 12.4222C0.600008 14.6409 1.47844 16.6537 2.92911 18.1496L2.93914 18.1596C3.27044 18.501 11.3219 25.428 14.8507 28.4599C15.7893 29.268 17.1748 29.268 18.1184 28.4599C21.6472 25.423 29.7037 18.4959 30.03 18.1596L30.04 18.1496C31.4857 16.6588 32.3691 14.6409 32.4745 12.4222C32.7054 7.46786 28.5793 3.06064 23.6199 2.98535Z" fill="#F96163"/>
</g>
<defs>
<clipPath id="clip0_215_16911">
<rect width="32" height="32" fill="white" transform="translate(0.484375 0.0253906)"/>
</clipPath>
</defs>
</svg>
