<?xml version="1.0" encoding="UTF-8"?><svg id="Camada_1" xmlns="http://www.w3.org/2000/svg" viewBox="0 0 230 230"><defs><style>.cls-1{fill:#f1ce9f;}.cls-2{fill:#f5c465;}.cls-3{fill:#f5dba9;}.cls-4{fill:#f5c364;}.cls-5{fill:#f2bd6d;}.cls-6{fill:#f2d9b7;}.cls-7{fill:#e6b147;}.cls-8{fill:#fdda96;}.cls-9{fill:#7e8585;}.cls-10{fill:#821b1c;}.cls-11{fill:#73461e;}.cls-12{fill:#93a8b9;}.cls-13{fill:#cedae5;}.cls-14{fill:#b3797d;}.cls-15{fill:#cbdfdd;}.cls-16{fill:#cca7aa;}.cls-17{fill:#d1a140;}.cls-18{fill:#dbb378;}.cls-19{fill:#cfb6b7;}.cls-20{fill:#c79055;}.cls-21{fill:#d9c3c4;}.cls-22{fill:#b07c43;}.cls-23{fill:#d4955f;}.cls-24{fill:#d69751;}.cls-25{fill:#232626;}.cls-26{fill:#a37645;}.cls-27{fill:#613d25;}.cls-28{fill:#dedede;opacity:.4;}</style></defs><g><path class="cls-22" d="M230,146.46l-122.95,82.81c-1.55,1.05-3.61,.96-5.07-.21L0,146.46v-4.91l113.02-50.98,116.98,51.52v4.37Z"/><path class="cls-24" d="M228.86,144.1l-120.24,81.03c-2.49,1.68-5.78,1.54-8.13-.34L1.3,145.02c-2.01-1.61-1.62-4.77,.71-5.86l111.01-51.66,115.46,52.12c1.84,.83,2.06,3.36,.38,4.49Z"/><path class="cls-22" d="M208.32,148.52l-97.49,65.7c-2.88,1.94-6.68,1.78-9.39-.4L20.51,148.76c-2.76-2.22-2.23-6.57,.98-8.06l91.35-42.51c.28-.13,.61-.13,.89,0l93.91,42.39c3.27,1.47,3.65,5.96,.67,7.96Z"/><path class="cls-24" d="M204.85,146.97l-94.37,63.59c-2.29,1.55-5.33,1.42-7.48-.32L24.21,146.9c-1.13-.9-.91-2.68,.4-3.29l88.79-41.32,91.15,41.14c1.45,.66,1.62,2.65,.3,3.54Z"/><path class="cls-22" d="M172.9,149.74l-59.01,39.77c-2.49,1.68-5.78,1.54-8.13-.34l-49.03-39.42,57.19-26.62,58.97,26.62Z"/><path class="cls-24" d="M164.93,150.84l-50.34,33.92c-2.49,1.68-5.78,1.54-8.13-.34l-41.76-33.58,49.34-22.96,50.88,22.96Z"/></g><g><g><g><path class="cls-14" d="M34.35,130.53s2.25,21.77,4.37,28.72c3.94,12.97,24.56,37.63,69,37.63,46.63,0,69.49-19.06,72.81-30,2.82-9.28,3.75-41.45,3.75-41.45l-149.93,5.1Z"/><path class="cls-16" d="M32.27,127.42s2.25,21.77,4.37,28.72c3.94,12.97,24.56,37.63,69,37.63,46.63,0,69.49-19.06,72.81-30,2.82-9.28,5.83-38.34,5.83-38.34l-152,1.99Z"/><ellipse class="cls-10" cx="107.62" cy="106.27" rx="82.34" ry="52.39"/><ellipse class="cls-21" cx="107.62" cy="104.05" rx="79" ry="50.26"/><path class="cls-19" d="M183.9,108.52c-7.03,23.17-39.08,40.67-77.55,40.67-.6,0-1.2,0-1.8-.01-37.67-.54-68.84-17.85-75.76-40.66,20.69-17.81,32.05-29.12,85.38-23.08,32.03,3.63,61.32-1.72,69.74,23.08Z"/><path class="cls-18" d="M185.18,111.08c-7.03,23.17-39.08,40.67-77.55,40.67-.6,0-1.2,0-1.8-.01-37.67-.54-68.84-17.85-75.76-40.66,20.69-17.81,32.05-29.12,85.38-23.08,32.03,3.63,61.32-1.72,69.74,23.08Z"/><path class="cls-1" d="M185.18,113.64c-7.03,23.17-39.08,40.67-77.55,40.67-.6,0-1.2,0-1.8-.01-37.67-.54-68.84-17.85-75.76-40.66,20.69-17.81,32.05-29.12,85.38-23.08,32.03,3.63,61.32-1.72,69.74,23.08Z"/><path class="cls-15" d="M188.64,115.68s2.05,.37,6.16-2.88c4.11-3.25,9.03-14.64,9.03-14.64l-8.18-.34-5.72,6.92-1.29,10.93Z"/><path class="cls-9" d="M189.93,104.74s2.74-.63,3.62-2.81c.89-2.18,2.1-4.11,2.1-4.11l-.89-.65s-2.63,5.08-3.79,5.48l-1.16,.4,.12,1.69Z"/><path class="cls-25" d="M192.73,95.41l2.92,2.41,8.18,.34s3.17,.67,6.19-6.67c3.02-7.34-16.4-26.93-22.61-27.96-6.21-1.04-12.95-.26-14.33,2.59-1.38,2.85-1.91,6.83-1.91,6.83,0,0,2.43,2.92,3.72,2.75,1.29-.17,5.7-.95,5.7-.95,0,0,11.39,11.64,13.8,15.37,1.23,1.9-1.66,5.3-1.66,5.3Z"/><path class="cls-28" d="M199.78,89.82s.79,.95,1.56,1.13c8.33,1.98,9.11-.59,8.98-1.54-.16-1.21-.83-3.39-.83-3.39,0,0-.07,2.83-2.24,2.73s-6.76-.5-8.17-2.37c-1.41-1.87,.71,3.43,.71,3.43Z"/><path class="cls-15" d="M22.46,141.56s5.09,9.05,13.22,10.58l5.64,.94v-11.45l-7.43-.65s-2.06-2.16-2.72-3.35l-8.72,3.92Z"/><path class="cls-9" d="M21.59,113.57s2.87,2.09,4.81,1.39l.53,1.81s-3.98-.92-5.34-3.2Z"/><path class="cls-15" d="M21.59,113.57s4.14,2.92,5.34,3.2l4.63,9.61s-5.25-.85-6.28-1.87c-1.03-1.02-3.69-9.61-3.69-10.94Z"/><path class="cls-25" d="M31.18,137.64l-4.25-6.53-5.34-17.55-3.12-9.89s-13.62-2.37-13.52,5.62c.07,5.96,6.69,28.84,10.15,30.57,4.65,2.32,7.36,1.69,7.36,1.69l8.72-3.92Z"/><path class="cls-28" d="M18.47,103.68l-13.52,5.62s-.16-3.71,3.49-5.02c3.65-1.31,8.74-.84,10.03-.6Z"/></g><path class="cls-28" d="M26.42,129.2c-3.76,4.01-8.32,6.42-14.01,6.59,.69,1.59,1.42,3.03,2.31,3.74,0,0,11.07-7.28,13.63-6.36l-1.35-2.07-.58-1.9Z"/></g><g><ellipse class="cls-5" cx="126.5" cy="119.39" rx="18.42" ry="11.98"/><path class="cls-23" d="M144.93,119.39c0,6.62-8.26,11.98-18.43,11.98-2.6,0-5.07-.35-7.31-.99,10.09-.08,18.22-5.4,18.22-11.98,0-4.93-4.57-9.17-11.11-11h.2c10.18,0,18.43,5.36,18.43,11.98Z"/><path class="cls-8" d="M120.54,120.05s.65-5.01,2.72-5.55-3.05-4.89-5.77-2.61c-2.72,2.28-5.77,8.82-3.27,9.8,2.51,.98,6.32-1.63,6.32-1.63Z"/></g><g><g><path class="cls-17" d="M47.03,119.03s1.88,5.56,4.24,5.98c14.73,2.63,11.48,2.83,11.48,.92s-1.18-4.32-1.18-4.32"/><polygon class="cls-2" points="78.29 111.8 79.53 120.86 62.74 127.2 61.56 121.61 78.29 111.8"/><path class="cls-7" d="M47.03,119.03s4.1,3.5,10.95,2.94c23.71-1.91,20.32-10.18,20.32-10.18l-31.27,7.23Z"/></g><path class="cls-4" d="M61.56,120.77s5.57-.66,8.69-2.84c2.92-2.04,4.34-4.03,1.62-2.55-2.72,1.49-5.59,4.05-10.31,5.39Z"/><path class="cls-3" d="M63.52,124.63s1.23,.82,3.4,0c2.17-.82,2.31-1.51,2.31-1.51,0,0-3.4,.39-4.44,.39s-1.27,1.12-1.27,1.12Z"/></g><g><path class="cls-11" d="M72.6,105.05s-.93-6.51,3.65-8.41c4.58-1.9,3.97-2.93,4.85-4.77,.89-1.84,.78-6.12,5.21-6.91,4.43-.79,3.76,3.09,5.21,2.87,6.52-.96,4.88,1.18,8.79,1.56,3.91,.38,4.52,1.75,4.6,5s5.16,1.72,6.24,6.63c.67,3.04,4.07,6.56-2.72,7.24-12.05,1.2-14.48,2.62-20.41,2.69-10.31,.11-14.86-3.26-15.42-5.9Z"/><g><circle class="cls-27" cx="80.45" cy="108.46" r=".53"/><circle class="cls-27" cx="76.83" cy="106.5" r=".53"/><circle class="cls-27" cx="74.64" cy="103.4" r=".53"/><circle class="cls-27" cx="76.3" cy="99.33" r=".53"/><circle class="cls-27" cx="77.52" cy="101.8" r=".53"/><circle class="cls-27" cx="80.06" cy="103.65" r=".53"/><circle class="cls-27" cx="92.99" cy="92.14" r=".53"/><circle class="cls-27" cx="96.22" cy="89.3" r=".53"/><circle class="cls-27" cx="98.18" cy="104.69" r=".53"/><circle class="cls-27" cx="102.77" cy="100.23" r=".53"/><circle class="cls-27" cx="109.24" cy="103.24" r=".53"/><circle class="cls-27" cx="84.71" cy="109.35" r=".53"/><circle class="cls-27" cx="87.93" cy="106.5" r=".53"/><circle class="cls-27" cx="85.24" cy="102.19" r=".53"/><circle class="cls-27" cx="79.53" cy="97.8" r=".53"/><circle class="cls-27" cx="83.89" cy="105.96" r=".53"/><circle class="cls-27" cx="81.63" cy="100.39" r=".53"/><circle class="cls-27" cx="84.71" cy="99.33" r=".53"/><circle class="cls-27" cx="85.49" cy="96.11" r=".53"/><circle class="cls-27" cx="82.44" cy="95.58" r=".53"/><circle class="cls-27" cx="82.51" cy="91.51" r=".53"/><circle class="cls-27" cx="84.71" cy="92.84" r=".53"/><circle class="cls-27" cx="91.14" cy="89.82" r=".53"/><circle class="cls-27" cx="88.46" cy="89.82" r=".53"/><circle class="cls-27" cx="85.42" cy="89.29" r=".53"/><circle class="cls-27" cx="87.69" cy="98.79" r=".53"/><circle class="cls-27" cx="88.19" cy="94.58" r=".53"/><circle class="cls-27" cx="91.14" cy="95.83" r=".53"/><circle class="cls-27" cx="91.14" cy="92.99" r=".53"/><circle class="cls-27" cx="87.66" cy="92.04" r=".53"/><circle class="cls-27" cx="89" cy="108.46" r=".53"/><circle class="cls-27" cx="88.46" cy="101.29" r=".53"/><circle class="cls-27" cx="89.68" cy="103.77" r=".53"/><circle class="cls-27" cx="92.22" cy="105.62" r=".53"/><circle class="cls-27" cx="102.77" cy="104.69" r=".53"/><circle class="cls-27" cx="91.69" cy="99.77" r=".53"/><circle class="cls-27" cx="96.05" cy="107.93" r=".53"/><circle class="cls-27" cx="95.14" cy="104.69" r=".53"/><circle class="cls-27" cx="100.1" cy="106.95" r=".53"/><circle class="cls-27" cx="93.79" cy="102.36" r=".53"/><circle class="cls-27" cx="96.87" cy="101.29" r=".53"/><circle class="cls-27" cx="97.65" cy="98.08" r=".53"/><circle class="cls-27" cx="94.61" cy="97.54" r=".53"/><circle class="cls-27" cx="94.67" cy="93.48" r=".53"/><circle class="cls-27" cx="96.87" cy="94.81" r=".53"/><circle class="cls-27" cx="103.3" cy="91.79" r=".53"/><circle class="cls-27" cx="100.63" cy="91.79" r=".53"/><circle class="cls-27" cx="97.59" cy="91.25" r=".53"/><circle class="cls-27" cx="99.85" cy="100.76" r=".53"/><circle class="cls-27" cx="106.04" cy="99.24" r=".53"/><circle class="cls-27" cx="108.96" cy="100.23" r=".53"/><circle class="cls-27" cx="104.14" cy="107.48" r=".53"/><circle class="cls-27" cx="100.1" cy="102.87" r=".53"/><circle class="cls-27" cx="104.97" cy="103.4" r=".53"/><circle class="cls-27" cx="107.54" cy="105.62" r=".53"/><circle class="cls-27" cx="110.71" cy="105.96" r=".53"/><circle class="cls-27" cx="100.35" cy="96.55" r=".53"/><circle class="cls-27" cx="103.3" cy="97.8" r=".53"/><circle class="cls-27" cx="103.3" cy="94.95" r=".53"/><circle class="cls-27" cx="99.82" cy="94.01" r=".53"/></g></g><path class="cls-6" d="M63.77,138.58s15.71,13.63,28.44,9.4c12.72-4.23,7.29-5.76,1.06-5.76s-12.72-4.58-15.76-5.17c-3.04-.59-13.73,1.53-13.73,1.53Z"/></g><path class="cls-6" d="M158.67,117.65s4.13-7.19,.52-8.84c-3.61-1.65-3.59-.03-2.77,1.34,.82,1.37-.4,4.06-.27,4.89s2.51,2.61,2.51,2.61Z"/><g><g><path class="cls-20" d="M140.24,40.43c-.42-.75,15.9-12.73,46.56-22.76C217.19,7.73,211.18,0,211.18,0c-30.67,16.26-55.98,23.17-65.95,33l-4.99,7.43Z"/><path class="cls-12" d="M140.61,39.88l-.37,.55c-.04-.07,.08-.26,.37-.55Z"/><path class="cls-12" d="M140.61,39.88l-.37,.55c-.04-.07,.08-.26,.37-.55Z"/><path class="cls-26" d="M211.65,1.5v.03c.15,2.74-2.56,8.85-24.85,16.13-27.61,9.03-43.59,19.65-46.19,22.22l2.4-3.57c9.46-12.65,63.42-26.21,68.64-34.81Z"/><path class="cls-20" d="M105.17,50.95c.98,2.22,34.1,.33,40.33-17.75l-40.33,17.75Z"/><ellipse class="cls-13" cx="125.34" cy="42.08" rx="22.03" ry="2.43" transform="translate(-6.33 54.06) rotate(-23.76)"/></g><path class="cls-11" d="M105.29,51.21c4.82,.78,37.58-13.13,40.33-17.75,0,0-1.77-1.85-8.75-1.13-4.77,.49-16.84-3.27-19.03,1.93s-15.02,9.56-12.55,16.95Z"/><path class="cls-27" d="M136.87,32.33c-5.09,.86-10.56-.8-15.56,.42-1.08,.33-2.01,.77-2.48,1.74-.18,.4-.44,.91-.68,1.27-3.33,5.17-14.25,8.42-12.86,15.45-1.77-3.57,1.1-7.28,3.66-9.57,2.68-2.69,6.44-4.63,8.12-8.03,3.55-5.9,14.32-1.42,19.8-1.28h0Z"/><circle class="cls-27" cx="117.68" cy="40.21" r=".87"/><circle class="cls-27" cx="126.22" cy="37.4" r=".87"/><circle class="cls-27" cx="121.7" cy="43.19" r=".87"/></g></svg>