<?xml version="1.0" encoding="UTF-8"?><svg id="Camada_1" xmlns="http://www.w3.org/2000/svg" viewBox="0 0 230 230"><defs><style>.cls-1{fill:#f1ce9f;}.cls-2{fill:#f5c465;}.cls-3{fill:#f5dba9;}.cls-4{fill:#f5c364;}.cls-5{fill:#f2bd6d;}.cls-6{fill:#f2d9b7;}.cls-7{fill:#e6b147;}.cls-8{fill:#fdda96;}.cls-9{fill:#7e8585;}.cls-10{fill:#821b1c;}.cls-11{fill:#73461e;}.cls-12{fill:#93a8b9;}.cls-13{fill:#cedae5;}.cls-14{fill:#b3797d;}.cls-15{fill:#cbdfdd;}.cls-16{fill:#cca7aa;}.cls-17{fill:#d1a140;}.cls-18{fill:#dbb378;}.cls-19{fill:#cfb6b7;}.cls-20{fill:#c79055;}.cls-21{fill:#d9c3c4;}.cls-22{fill:#b07c43;}.cls-23{fill:#d4955f;}.cls-24{fill:#d69751;}.cls-25{fill:#232626;}.cls-26{fill:#a37645;}.cls-27{fill:#613d25;}.cls-28{fill:#dedede;opacity:.4;}</style></defs><g><path class="cls-22" d="M230,146.46l-122.95,82.81c-1.55,1.05-3.61,.96-5.07-.21L0,146.46v-4.91l113.02-50.98,116.98,51.52v4.37Z"/><path class="cls-24" d="M228.86,144.1l-120.24,81.03c-2.49,1.68-5.78,1.54-8.13-.34L1.3,145.02c-2.01-1.61-1.62-4.77,.71-5.86l111.01-51.66,115.46,52.12c1.84,.83,2.06,3.36,.38,4.49Z"/><path class="cls-22" d="M208.32,148.52l-97.49,65.7c-2.88,1.94-6.68,1.78-9.39-.4L20.51,148.76c-2.76-2.22-2.23-6.57,.98-8.06l91.35-42.51c.28-.13,.61-.13,.89,0l93.91,42.39c3.27,1.47,3.65,5.96,.67,7.96Z"/><path class="cls-24" d="M204.85,146.97l-94.37,63.59c-2.29,1.55-5.33,1.42-7.48-.32L24.21,146.9c-1.13-.9-.91-2.68,.4-3.29l88.79-41.32,91.15,41.14c1.45,.66,1.62,2.65,.3,3.54Z"/><path class="cls-22" d="M172.9,149.74l-59.01,39.77c-2.49,1.68-5.78,1.54-8.13-.34l-49.03-39.42,57.19-26.62,58.97,26.62Z"/><path class="cls-24" d="M164.93,150.84l-50.34,33.92c-2.49,1.68-5.78,1.54-8.13-.34l-41.76-33.58,49.34-22.96,50.88,22.96Z"/></g><g><g><path class="cls-14" d="M50.39,129.4s1.76,17.01,3.41,22.43c3.08,10.13,19.19,29.4,53.9,29.4,36.43,0,54.28-14.89,56.88-23.43,2.2-7.25,2.93-32.38,2.93-32.38l-117.12,3.98Z"/><path class="cls-16" d="M48.77,126.97s1.76,17.01,3.41,22.43c3.08,10.13,19.19,29.4,53.9,29.4,36.43,0,54.28-14.89,56.88-23.43,2.2-7.25,4.55-29.95,4.55-29.95l-118.74,1.55Z"/><ellipse class="cls-10" cx="107.62" cy="110.44" rx="64.32" ry="40.92"/><ellipse class="cls-21" cx="107.62" cy="108.71" rx="61.71" ry="39.26"/><path class="cls-19" d="M167.21,112.2c-5.49,18.1-30.53,31.77-60.58,31.77-.47,0-.94,0-1.41,0-29.43-.42-53.78-13.95-59.18-31.76,16.16-13.91,25.04-22.75,66.69-18.03,25.02,2.83,47.9-1.34,54.47,18.03Z"/><path class="cls-18" d="M168.21,114.2c-5.49,18.1-30.53,31.77-60.58,31.77-.47,0-.94,0-1.41,0-29.43-.42-53.78-13.95-59.18-31.76,16.16-13.91,25.04-22.75,66.69-18.03,25.02,2.83,47.9-1.34,54.47,18.03Z"/><path class="cls-1" d="M168.21,116.2c-5.49,18.1-30.53,31.77-60.58,31.77-.47,0-.94,0-1.41,0-29.43-.42-53.78-13.95-59.18-31.76,16.16-13.91,25.04-22.75,66.69-18.03,25.02,2.83,47.9-1.34,54.47,18.03Z"/><path class="cls-15" d="M170.91,117.79s1.6,.29,4.81-2.25,7.05-11.44,7.05-11.44l-6.39-.26-4.47,5.41-1.01,8.54Z"/><path class="cls-9" d="M171.92,109.25s2.14-.5,2.83-2.2,1.64-3.21,1.64-3.21l-.69-.5s-2.05,3.97-2.96,4.28l-.91,.31,.09,1.32Z"/><path class="cls-25" d="M174.11,101.96l2.28,1.88,6.39,.26s2.47,.52,4.83-5.21-12.81-21.03-17.66-21.84c-4.85-.81-10.11-.2-11.19,2.02s-1.49,5.34-1.49,5.34c0,0,1.9,2.28,2.91,2.15s4.45-.74,4.45-.74c0,0,8.89,9.1,10.78,12,.96,1.48-1.3,4.14-1.3,4.14Z"/><path class="cls-28" d="M179.62,97.6s.62,.74,1.22,.88c6.5,1.54,7.12-.46,7.02-1.2-.12-.94-.65-2.64-.65-2.64,0,0-.06,2.21-1.75,2.13s-5.28-.39-6.38-1.85,.55,2.68,.55,2.68Z"/><path class="cls-15" d="M41.1,138.01s3.98,7.07,10.33,8.27l4.41,.74v-8.94l-5.8-.51s-1.61-1.69-2.13-2.61l-6.81,3.06Z"/><path class="cls-9" d="M40.42,116.14s2.24,1.63,3.76,1.09l.41,1.41s-3.11-.72-4.17-2.5Z"/><path class="cls-15" d="M40.42,116.14s3.23,2.28,4.17,2.5l3.62,7.5s-4.1-.66-4.91-1.46-2.88-7.5-2.88-8.54Z"/><path class="cls-25" d="M47.91,134.95l-3.32-5.1-4.17-13.71-2.44-7.73s-10.64-1.85-10.56,4.39c.06,4.65,5.22,22.53,7.93,23.88,3.63,1.82,5.75,1.32,5.75,1.32l6.81-3.06Z"/><path class="cls-28" d="M37.99,108.42l-10.56,4.39s-.12-2.9,2.73-3.92,6.83-.66,7.83-.47Z"/></g><path class="cls-28" d="M44.19,128.36c-2.94,3.13-6.5,5.02-10.94,5.15,.54,1.24,1.11,2.37,1.81,2.92,0,0,8.65-5.69,10.64-4.97l-1.06-1.62-.45-1.48Z"/></g><g><ellipse class="cls-5" cx="122.37" cy="120.69" rx="14.39" ry="9.36"/><path class="cls-23" d="M136.77,120.69c0,5.17-6.45,9.36-14.4,9.36-2.03,0-3.96-.27-5.71-.77,7.88-.06,14.23-4.22,14.23-9.36,0-3.85-3.57-7.16-8.68-8.59h.16c7.95,0,14.4,4.19,14.4,9.36Z"/><path class="cls-8" d="M117.71,121.21s.51-3.91,2.13-4.34-2.38-3.82-4.51-2.04-4.51,6.89-2.55,7.65,4.93-1.28,4.93-1.28Z"/></g><g><g><path class="cls-17" d="M60.29,120.41s1.47,4.34,3.31,4.67c11.51,2.06,8.96,2.21,8.96,.72s-.92-3.37-.92-3.37"/><polygon class="cls-2" points="84.71 114.76 85.68 121.84 72.57 126.79 71.65 122.43 84.71 114.76"/><path class="cls-7" d="M60.29,120.41s3.2,2.73,8.55,2.3c18.52-1.49,15.87-7.95,15.87-7.95l-24.42,5.65Z"/></g><path class="cls-4" d="M71.65,121.77s4.35-.52,6.79-2.22c2.28-1.59,3.39-3.15,1.27-1.99s-4.37,3.17-8.05,4.21Z"/><path class="cls-3" d="M73.18,124.78s.96,.64,2.65,0,1.81-1.18,1.81-1.18c0,0-2.65,.3-3.47,.3s-.99,.87-.99,.87Z"/></g><g><path class="cls-11" d="M80.27,109.49s-.73-5.08,2.85-6.57,3.1-2.29,3.79-3.72,.61-4.78,4.07-5.4,2.93,2.41,4.07,2.24c5.09-.75,3.81,.92,6.87,1.22,3.06,.29,3.53,1.36,3.59,3.9s4.03,1.34,4.87,5.18c.52,2.37,3.18,5.13-2.13,5.66-9.41,.94-11.31,2.05-15.94,2.1-8.06,.09-11.61-2.54-12.04-4.61Z"/><g><circle class="cls-27" cx="86.4" cy="112.15" r=".42"/><circle class="cls-27" cx="83.58" cy="110.62" r=".42"/><circle class="cls-27" cx="81.87" cy="108.2" r=".42"/><circle class="cls-27" cx="83.16" cy="105.02" r=".42"/><circle class="cls-27" cx="84.11" cy="106.95" r=".42"/><circle class="cls-27" cx="86.1" cy="108.4" r=".42"/><circle class="cls-27" cx="96.2" cy="99.41" r=".42"/><circle class="cls-27" cx="98.72" cy="97.19" r=".42"/><circle class="cls-27" cx="100.25" cy="109.21" r=".42"/><circle class="cls-27" cx="103.84" cy="105.73" r=".42"/><circle class="cls-27" cx="108.89" cy="108.07" r=".42"/><circle class="cls-27" cx="89.73" cy="112.85" r=".42"/><circle class="cls-27" cx="92.25" cy="110.62" r=".42"/><circle class="cls-27" cx="90.14" cy="107.25" r=".42"/><circle class="cls-27" cx="85.68" cy="103.83" r=".42"/><circle class="cls-27" cx="89.09" cy="110.2" r=".42"/><circle class="cls-27" cx="87.32" cy="105.85" r=".42"/><circle class="cls-27" cx="89.73" cy="105.02" r=".42"/><circle class="cls-27" cx="90.33" cy="102.51" r=".42"/><circle class="cls-27" cx="87.96" cy="102.09" r=".42"/><circle class="cls-27" cx="88.01" cy="98.91" r=".42"/><circle class="cls-27" cx="89.73" cy="99.95" r=".42"/><circle class="cls-27" cx="94.75" cy="97.59" r=".42"/><circle class="cls-27" cx="92.66" cy="97.59" r=".42"/><circle class="cls-27" cx="90.29" cy="97.18" r=".42"/><circle class="cls-27" cx="92.06" cy="104.6" r=".42"/><circle class="cls-27" cx="92.45" cy="101.31" r=".42"/><circle class="cls-27" cx="94.75" cy="102.29" r=".42"/><circle class="cls-27" cx="94.75" cy="100.07" r=".42"/><circle class="cls-27" cx="92.03" cy="99.33" r=".42"/><circle class="cls-27" cx="93.08" cy="112.16" r=".42"/><circle class="cls-27" cx="92.66" cy="106.56" r=".42"/><circle class="cls-27" cx="93.61" cy="108.49" r=".42"/><circle class="cls-27" cx="95.6" cy="109.93" r=".42"/><circle class="cls-27" cx="103.83" cy="109.21" r=".42"/><circle class="cls-27" cx="95.18" cy="105.36" r=".42"/><circle class="cls-27" cx="98.59" cy="111.74" r=".42"/><circle class="cls-27" cx="97.88" cy="109.21" r=".42"/><circle class="cls-27" cx="101.75" cy="110.97" r=".42"/><circle class="cls-27" cx="96.82" cy="107.39" r=".42"/><circle class="cls-27" cx="99.23" cy="106.56" r=".42"/><circle class="cls-27" cx="99.84" cy="104.04" r=".42"/><circle class="cls-27" cx="97.46" cy="103.63" r=".42"/><circle class="cls-27" cx="97.51" cy="100.45" r=".42"/><circle class="cls-27" cx="99.23" cy="101.49" r=".42"/><circle class="cls-27" cx="104.25" cy="99.13" r=".42"/><circle class="cls-27" cx="102.16" cy="99.13" r=".42"/><circle class="cls-27" cx="99.79" cy="98.71" r=".42"/><circle class="cls-27" cx="101.56" cy="106.14" r=".42"/><circle class="cls-27" cx="106.39" cy="104.95" r=".42"/><circle class="cls-27" cx="108.67" cy="105.73" r=".42"/><circle class="cls-27" cx="104.9" cy="111.39" r=".42"/><circle class="cls-27" cx="101.75" cy="107.79" r=".42"/><circle class="cls-27" cx="105.56" cy="108.2" r=".42"/><circle class="cls-27" cx="107.56" cy="109.93" r=".42"/><circle class="cls-27" cx="110.04" cy="110.2" r=".42"/><circle class="cls-27" cx="101.95" cy="102.85" r=".42"/><circle class="cls-27" cx="104.25" cy="103.83" r=".42"/><circle class="cls-27" cx="104.25" cy="101.6" r=".42"/><circle class="cls-27" cx="101.53" cy="100.87" r=".42"/></g></g><path class="cls-6" d="M73.37,135.68s12.27,10.65,22.21,7.34,5.69-4.5,.83-4.5-9.94-3.58-12.31-4.04-10.73,1.19-10.73,1.19Z"/><path class="cls-6" d="M158.67,117.65s4.13-7.19,.52-8.84-3.59-.03-2.77,1.34c.82,1.37-.4,4.06-.27,4.89s2.51,2.61,2.51,2.61Z"/><g><g><path class="cls-20" d="M140.24,40.43c-.42-.75,15.9-12.73,46.56-22.76C217.19,7.73,211.18,0,211.18,0c-30.67,16.26-55.98,23.17-65.95,33l-4.99,7.43Z"/><path class="cls-12" d="M140.61,39.88l-.37,.55c-.04-.07,.08-.26,.37-.55Z"/><path class="cls-12" d="M140.61,39.88l-.37,.55c-.04-.07,.08-.26,.37-.55Z"/><path class="cls-26" d="M211.65,1.5v.03c.15,2.74-2.56,8.85-24.85,16.13-27.61,9.03-43.59,19.65-46.19,22.22l2.4-3.57c9.46-12.65,63.42-26.21,68.64-34.81Z"/><path class="cls-20" d="M105.17,50.95c.98,2.22,34.1,.33,40.33-17.75l-40.33,17.75Z"/><ellipse class="cls-13" cx="125.34" cy="42.08" rx="22.03" ry="2.43" transform="translate(-6.33 54.06) rotate(-23.76)"/></g><path class="cls-11" d="M105.29,51.21c4.82,.78,37.58-13.13,40.33-17.75,0,0-1.77-1.85-8.75-1.13-4.77,.49-16.84-3.27-19.03,1.93-2.19,5.2-15.02,9.56-12.55,16.95Z"/><path class="cls-27" d="M136.87,32.33c-5.09,.86-10.56-.8-15.56,.42-1.08,.33-2.01,.77-2.48,1.74-.18,.4-.44,.91-.68,1.27-3.33,5.17-14.25,8.42-12.86,15.45-1.77-3.57,1.1-7.28,3.66-9.57,2.68-2.69,6.44-4.63,8.12-8.03,3.55-5.9,14.32-1.42,19.8-1.28h0Z"/><circle class="cls-27" cx="117.68" cy="40.21" r=".87"/><circle class="cls-27" cx="126.22" cy="37.4" r=".87"/><circle class="cls-27" cx="121.7" cy="43.19" r=".87"/></g></svg>