<svg width="32" height="32" viewBox="0 0 32 32" fill="none" xmlns="http://www.w3.org/2000/svg">
<g clip-path="url(#clip0_516_10356)">
<path d="M5.07469 31.9999H4.36091C1.95712 31.9999 0 30.0428 0 27.639V24.0057C0 21.6019 1.95712 19.6448 4.36091 19.6448H5.07469C7.47848 19.6448 9.4356 21.6019 9.4356 24.0057V27.639C9.4356 30.0428 7.47848 31.9999 5.07469 31.9999Z" fill="#F96163"/>
<path d="M16.3569 31.9999H15.6431C13.2393 31.9999 11.2822 30.0428 11.2822 27.639V14.1878C11.2822 11.784 13.2393 9.8269 15.6431 9.8269H16.3569C18.7607 9.8269 20.7178 11.784 20.7178 14.1878V27.639C20.7178 30.0428 18.7607 31.9999 16.3569 31.9999ZM15.6431 12.355C14.6347 12.355 13.815 13.1747 13.815 14.1832V27.6344C13.815 28.6429 14.6347 29.4625 15.6431 29.4625H16.3569C17.3654 29.4625 18.1851 28.6429 18.1851 27.6344V14.1832C18.1851 13.1747 17.3654 12.355 16.3569 12.355H15.6431Z" fill="#F96163"/>
<path d="M27.6391 32H26.9254C24.5216 32 22.5645 30.0429 22.5645 27.6391V4.36092C22.5645 1.95712 24.5216 0 26.9254 0H27.6391C30.0429 0 32.0001 1.95712 32.0001 4.36092V27.6391C32.0001 30.0429 30.0429 32 27.6391 32V32ZM26.9254 2.52814C25.9169 2.52814 25.0972 3.34782 25.0972 4.35631V27.6345C25.0972 28.643 25.9169 29.4627 26.9254 29.4627H27.6391C28.6476 29.4627 29.4673 28.643 29.4673 27.6345V4.35631C29.4673 3.34782 28.6476 2.52814 27.6391 2.52814H26.9254V2.52814Z" fill="#F96163"/>
</g>
<defs>
<clipPath id="clip0_516_10356">
<rect width="32" height="32" fill="white"/>
</clipPath>
</defs>
</svg>
