<?xml version="1.0" encoding="UTF-8"?><svg id="Camada_1" xmlns="http://www.w3.org/2000/svg" viewBox="0 0 64 64"><defs><style>.cls-1{fill:#f96163;}</style></defs><g><path class="cls-1" d="M26.09,19.37H12.89c-3.9,0-7.07,3.17-7.07,7.07v15.65c0,1.12,.9,2.02,2.02,2.02h2.23l3.7,18.27c.19,.94,1.02,1.62,1.98,1.62h7.48c.96,0,1.79-.68,1.98-1.62l3.7-18.27h2.23c1.12,0,2.02-.9,2.02-2.02v-15.65c0-3.9-3.17-7.07-7.07-7.07Z"/><path class="cls-1" d="M19.49,18.08c4.98,0,9.04-4.06,9.04-9.04S24.47,0,19.49,0,10.45,4.06,10.45,9.04s4.06,9.04,9.04,9.04Z"/></g><g><path class="cls-1" d="M53.13,33.41h-9.18c-2.78,0-5.05,2.27-5.05,5.05v10.51c0,1.12,.9,2.02,2.02,2.02h.89l2.3,11.39c.19,.94,1.02,1.62,1.98,1.62h4.89c.96,0,1.79-.68,1.98-1.62l2.3-11.39h.89c1.12,0,2.02-.9,2.02-2.02v-10.51c0-2.78-2.27-5.05-5.05-5.05Z"/><path class="cls-1" d="M48.54,32.7c4.03,0,7.31-3.28,7.31-7.31s-3.28-7.31-7.31-7.31-7.31,3.28-7.31,7.31,3.28,7.31,7.31,7.31Z"/></g></svg>