<?xml version="1.0" encoding="UTF-8"?><svg id="Camada_1" xmlns="http://www.w3.org/2000/svg" viewBox="0 0 64 64"><defs><style>.cls-1{fill:#f96163;}.cls-2{fill:#66191b;}</style></defs><circle class="cls-2" cx="32" cy="32" r="32"/><g><g><path class="cls-1" d="M28.67,24.9h-7.42c-2.19,0-3.98,1.78-3.98,3.98v8.8c0,.63,.51,1.14,1.14,1.14h1.26l2.08,10.27c.11,.53,.57,.91,1.11,.91h4.21c.54,0,1.01-.38,1.11-.91l2.08-10.27h1.26c.63,0,1.14-.51,1.14-1.14v-8.8c0-2.19-1.78-3.98-3.98-3.98Z"/><path class="cls-1" d="M24.96,24.17c2.8,0,5.08-2.28,5.08-5.08s-2.28-5.08-5.08-5.08-5.08,2.28-5.08,5.08,2.28,5.08,5.08,5.08Z"/></g><g><path class="cls-1" d="M43.88,32.79h-5.16c-1.57,0-2.84,1.27-2.84,2.84v5.91c0,.63,.51,1.14,1.14,1.14h.5l1.3,6.41c.11,.53,.57,.91,1.11,.91h2.75c.54,0,1.01-.38,1.11-.91l1.3-6.41h.5c.63,0,1.14-.51,1.14-1.14v-5.91c0-1.57-1.27-2.84-2.84-2.84Z"/><path class="cls-1" d="M41.3,32.39c2.27,0,4.11-1.84,4.11-4.11s-1.84-4.11-4.11-4.11-4.11,1.84-4.11,4.11,1.84,4.11,4.11,4.11Z"/></g></g></svg>