<svg width="33" height="33" viewBox="0 0 33 33" fill="none" xmlns="http://www.w3.org/2000/svg">
<g clip-path="url(#clip0_170_8948)">
<path d="M25.5073 14.6705C25.5073 16.4505 24.9623 18.1005 24.0273 19.4705C22.6823 21.3955 21.9473 23.4155 21.4323 25.1605H12.5323C12.0123 23.4155 11.2773 21.3955 9.93227 19.4705C8.99727 18.1055 8.44727 16.4505 8.44727 14.6705C8.44727 9.96551 12.2673 6.14551 16.9723 6.14551C21.6773 6.14551 25.4973 9.96551 25.4973 14.6705H25.5073Z" fill="white"/>
<path d="M12.5525 26.2954H21.3475V28.1254C21.3475 28.5804 20.9775 28.9504 20.5225 28.9504H13.3825C12.9275 28.9504 12.5575 28.5804 12.5575 28.1254V26.2954H12.5525Z" fill="white"/>
<path d="M19.8725 30.0352C19.4175 31.2002 18.2775 32.0252 16.9475 32.0252C15.6175 32.0252 14.4775 31.2002 14.0225 30.0352H19.8675H19.8725Z" fill="white"/>
<path d="M17.0597 0.0253906H16.9447C16.5802 0.0253906 16.2847 0.320883 16.2847 0.68539V4.36039C16.2847 4.7249 16.5802 5.02039 16.9447 5.02039H17.0597C17.4242 5.02039 17.7197 4.7249 17.7197 4.36039V0.68539C17.7197 0.320883 17.4242 0.0253906 17.0597 0.0253906Z" fill="white"/>
<path d="M6.97501 4.16391L6.89369 4.24522C6.63595 4.50297 6.63595 4.92086 6.89369 5.1786L9.49231 7.77722C9.75005 8.03497 10.1679 8.03497 10.4257 7.77722L10.507 7.6959C10.7648 7.43816 10.7648 7.02027 10.507 6.76252L7.90839 4.16391C7.65064 3.90616 7.23276 3.90616 6.97501 4.16391Z" fill="white"/>
<path d="M2.76465 14.2255V14.3405C2.76465 14.705 3.06014 15.0005 3.42465 15.0005H7.09965C7.46415 15.0005 7.75964 14.705 7.75964 14.3405V14.2255C7.75964 13.861 7.46415 13.5655 7.09965 13.5655H3.42465C3.06014 13.5655 2.76465 13.861 2.76465 14.2255Z" fill="white"/>
<path d="M23.4491 7.69565L23.5304 7.77696C23.7881 8.03471 24.206 8.03471 24.4638 7.77696L27.0624 5.17835C27.3201 4.9206 27.3201 4.50271 27.0624 4.24497L26.9811 4.16365C26.7233 3.9059 26.3054 3.9059 26.0477 4.16365L23.4491 6.76226C23.1913 7.02001 23.1913 7.4379 23.4491 7.69565Z" fill="white"/>
<path d="M26.1948 14.2255V14.3405C26.1948 14.705 26.4903 15.0005 26.8548 15.0005H30.5298C30.8943 15.0005 31.1898 14.705 31.1898 14.3405V14.2255C31.1898 13.861 30.8943 13.5655 30.5298 13.5655H26.8548C26.4903 13.5655 26.1948 13.861 26.1948 14.2255Z" fill="white"/>
</g>
<defs>
<clipPath id="clip0_170_8948">
<rect width="32" height="32" fill="white" transform="translate(0.977295 0.0253906)"/>
</clipPath>
</defs>
</svg>
