<?xml version="1.0" encoding="UTF-8"?><svg id="Camada_1" xmlns="http://www.w3.org/2000/svg" viewBox="0 0 230 230"><defs><style>.cls-1{opacity:.1;}.cls-2{fill:#f5c99d;}.cls-3{fill:#e6b37f;}.cls-4{fill:#995c17;}.cls-5{fill:#8a5315;}</style></defs><path class="cls-5" d="M216.6,118.31h-13.74c0-47.04-38.27-85.31-85.31-85.31S32.24,71.27,32.24,118.31h-13.74c0-54.61,44.43-99.05,99.05-99.05s99.05,44.43,99.05,99.05Z"/><path class="cls-4" d="M219.34,120.25H10.66l17.96,41.92c3.11,12.65,14.46,21.55,27.49,21.55h117.77c13.03,0,24.38-8.89,27.49-21.55l17.96-41.92Z"/><g><path class="cls-3" d="M63.45,113.73c-1.74,.43-1.85,0-3.58,.43-1.74,.43-1.71,.55-3.45,.98-1.74,.43-1.66,.74-3.4,1.17s-1.82,.1-3.56,.53-1.62,.89-3.36,1.33-1.82,.1-3.56,.53-1.74,.42-3.48,.85-1.63,.87-3.37,1.3c-1.74,.43-1.73,.49-3.47,.92-1.74,.43-1.82,.11-3.56,.54-1.77,.44-3.66-.69-4.09-2.46-.42-1.68,.01-1.79-.41-3.47s-.52-1.66-.94-3.34-.26-1.72-.68-3.41-.79-1.59-1.21-3.28c-.42-1.68-.11-1.76-.53-3.45s-1.12-1.51-1.54-3.19-.25-1.73-.67-3.41c-.42-1.69-.1-1.76-.52-3.45-.42-1.69-.6-1.64-1.02-3.33-.42-1.69-.27-1.73-.68-3.41-.44-1.77,.52-3.64,2.29-4.08s1.75-.4,3.48-.83c1.74-.43,1.83-.05,3.57-.48s1.72-.49,3.46-.93,1.6-.98,3.34-1.42,1.75-.41,3.49-.84,1.91,.24,3.64-.19c1.74-.43,1.67-.71,3.41-1.14s1.79-.24,3.53-.67,1.62-.93,3.36-1.36,1.81-.16,3.55-.59c1.77-.44,3.8,.49,4.24,2.26,.42,1.68,.54,1.65,.96,3.34s-.01,1.79,.41,3.47,.49,1.67,.91,3.35,.09,1.77,.5,3.45,.8,1.59,1.22,3.28,.7,1.62,1.11,3.3c.42,1.68,.23,1.73,.65,3.41,.42,1.69,.38,1.7,.8,3.38,.42,1.69,.07,1.77,.49,3.46,.42,1.69,.45,1.68,.87,3.37,.44,1.77-.43,3.64-2.2,4.08Z"/><path class="cls-2" d="M64.69,115.4c-1.86,.46-1.96,.04-3.82,.5s-1.83,.58-3.69,1.04-1.79,.76-3.65,1.22c-1.86,.46-1.94,.14-3.8,.6s-1.75,.91-3.61,1.37-1.94,.14-3.8,.6c-1.86,.46-1.86,.45-3.73,.91-1.86,.46-1.76,.88-3.62,1.35s-1.85,.51-3.71,.98c-1.77,.44-3.72-1.01-4.16-2.77-.46-1.86-.47-1.86-.93-3.72s-.05-1.96-.51-3.82c-.46-1.86-.56-1.84-1.02-3.7-.46-1.86-.31-1.9-.77-3.76-.46-1.86-.82-1.77-1.28-3.63s-.16-1.93-.63-3.79-1.14-1.69-1.6-3.55-.3-1.9-.76-3.77-.16-1.94-.62-3.8c-.44-1.77,.5-3.58,2.27-4.02,1.86-.46,1.9-.31,3.76-.77,1.86-.46,1.81-.66,3.67-1.12s1.87-.43,3.73-.89c1.86-.46,1.95-.1,3.81-.56,1.86-.46,1.85-.52,3.71-.98s1.73-1,3.59-1.46c1.86-.46,1.87-.44,3.73-.9,1.86-.46,2.02,.19,3.89-.27s1.8-.73,3.66-1.19c1.77-.44,3.23,.61,3.67,2.37,.46,1.86,.94,1.74,1.4,3.6s.2,1.93,.66,3.79c.46,1.86,.8,1.78,1.26,3.64,.46,1.86,.58,1.83,1.04,3.69,.46,1.86,.05,1.96,.51,3.83,.46,1.86,.53,1.84,.99,3.7,.46,1.86,.14,1.94,.6,3.8,.46,1.86,.83,1.77,1.29,3.63,.46,1.86,.73,1.8,1.19,3.66,.44,1.77-.96,3.76-2.72,4.2Z"/><polygon class="cls-3" points="25.41 88.28 24.08 88.7 22.82 88.77 21.62 89.08 20.34 89.08 19.14 89.45 18.09 89.65 17.78 89.05 19.02 88.97 20.11 88.18 21.34 88 22.6 87.92 23.78 87.49 24.97 87.29 25.41 88.28"/><polygon class="cls-3" points="36.97 96.43 35.64 96.85 34.38 96.92 33.18 97.22 31.9 97.22 30.7 97.59 29.65 97.79 29.34 97.19 30.58 97.12 31.67 96.33 32.9 96.15 34.16 96.07 35.34 95.64 36.53 95.44 36.97 96.43"/><polygon class="cls-3" points="50.49 102.75 49.16 103.17 47.9 103.24 46.7 103.54 45.41 103.54 44.22 103.91 43.17 104.11 42.86 103.51 44.1 103.44 45.18 102.65 46.42 102.47 47.68 102.39 48.86 101.96 50.05 101.76 50.49 102.75"/><polygon class="cls-3" points="62.68 109.26 61.35 109.68 60.09 109.76 58.89 110.06 57.61 110.06 56.41 110.43 55.36 110.63 55.05 110.03 56.29 109.96 57.38 109.16 58.61 108.98 59.87 108.9 61.05 108.47 62.24 108.28 62.68 109.26"/><polygon class="cls-3" points="33.82 116.42 32.5 116.84 31.23 116.91 30.03 117.22 28.75 117.22 27.56 117.59 26.5 117.79 26.19 117.19 27.43 117.11 28.52 116.32 29.75 116.14 31.01 116.06 32.19 115.63 33.38 115.44 33.82 116.42"/><polygon class="cls-3" points="55.06 78.52 53.73 78.94 52.47 79.02 51.26 79.32 49.98 79.32 48.79 79.69 47.74 79.89 47.42 79.29 48.67 79.22 49.75 78.42 50.98 78.24 52.25 78.16 53.42 77.73 54.62 77.54 55.06 78.52"/></g><g><path class="cls-3" d="M100.38,101.64c0,1.39-.07,2.82-.3,4.15s-.96,2.63-1.42,3.9-1.05,2.54-1.73,3.72-1.85,2-2.73,3.04-1.72,2.05-2.77,2.93-2.21,1.47-3.39,2.16c-1.17,.68-2.19,1.62-3.48,2.09s-2.64,.47-4,.71c-1.32,.23-2.61,1.15-4,1.15s-2.78-.32-4.11-.55-2.59-.94-3.86-1.4-2.61-.86-3.78-1.54c-1.18-.68-2.2-1.61-3.24-2.48s-2.17-1.68-3.05-2.73-1.64-2.2-2.32-3.38c-.68-1.17-.86-2.57-1.33-3.86s-.87-2.51-1.11-3.87c-.23-1.32-.98-2.63-.98-4.02s.16-2.8,.39-4.12,1.32-2.47,1.79-3.74,.75-2.61,1.42-3.79,1.63-2.14,2.5-3.18,1.44-2.4,2.48-3.28,2.34-1.41,3.53-2.1c1.17-.68,2.26-1.62,3.55-2.09,1.27-.46,2.61-.97,3.97-1.21,1.32-.23,2.76,.13,4.15,.13s2.75,.04,4.07,.27c1.36,.24,2.55,.95,3.82,1.41s2.69,.65,3.86,1.33c1.18,.68,2.52,1.24,3.56,2.11,1.04,.88,1.9,2.03,2.78,3.07s1.64,2.21,2.33,3.39c.68,1.17,.9,2.57,1.37,3.86s.84,2.54,1.08,3.9,.94,2.65,.94,4.03Z"/><path class="cls-2" d="M102.46,103.83c0,1.39-.03,2.81-.26,4.13s-.72,2.7-1.18,3.97c-.47,1.29-1.07,2.57-1.75,3.74-.68,1.18-1.39,2.43-2.26,3.47s-2.11,1.8-3.15,2.68c-1.04,.87-2.24,1.55-3.42,2.23s-2.26,1.63-3.55,2.1c-1.27,.46-2.67,.66-4.03,.9-1.32,.23-2.71,.22-4.09,.22s-2.82,.26-4.14,.02c-1.36-.24-2.53-1.22-3.79-1.68s-2.59-.86-3.76-1.53c-1.18-.68-2.59-1.11-3.63-1.99-1.04-.88-1.56-2.32-2.43-3.36s-1.89-1.98-2.57-3.16c-.68-1.17-1.34-2.39-1.81-3.68s-.34-2.7-.58-4.05c-.23-1.32-.48-2.62-.48-4.01s-.23-2.77,0-4.09,.96-2.57,1.42-3.84c.47-1.29,.58-2.75,1.25-3.92s1.79-2.1,2.66-3.14,1.84-1.99,2.88-2.87c1.04-.87,1.9-2.08,3.08-2.76,1.17-.68,2.45-1.35,3.74-1.81s2.73-.48,4.08-.71,2.7-.36,4.08-.36,2.68,.6,4,.83,2.65,.47,3.92,.93,2.39,1.19,3.56,1.86,2.51,1.1,3.55,1.98c1.04,.88,1.74,2.06,2.61,3.11,.87,1.04,2.31,1.7,3,2.89s1.11,2.54,1.58,3.83,.48,2.68,.71,4.04,.77,2.66,.77,4.04Z"/><polygon class="cls-3" points="69.39 89.04 67.8 89.14 66.39 88.87 64.97 88.88 63.56 88.52 62.14 88.61 60.92 88.54 60.74 87.79 62.13 88.05 63.55 87.47 64.96 87.61 66.38 87.87 67.8 87.72 69.17 87.83 69.39 89.04"/><polygon class="cls-3" points="84.11 100.11 82.53 100.21 81.11 99.94 79.7 99.95 78.28 99.6 76.86 99.68 75.64 99.61 75.46 98.86 76.85 99.12 78.27 98.54 79.68 98.68 81.1 98.94 82.52 98.79 83.89 98.9 84.11 100.11"/><polygon class="cls-3" points="100.16 110.03 98.58 110.13 97.16 109.87 95.75 109.87 94.33 109.52 92.91 109.6 91.69 109.53 91.51 108.78 92.9 109.04 94.32 108.46 95.73 108.6 97.15 108.86 98.57 108.71 99.94 108.82 100.16 110.03"/><polygon class="cls-3" points="69.39 110.03 67.8 110.13 66.39 109.87 64.97 109.87 63.56 109.52 62.14 109.6 60.92 109.53 60.74 108.78 62.13 109.04 63.55 108.46 64.96 108.6 66.38 108.86 67.8 108.71 69.17 108.82 69.39 110.03"/><polygon class="cls-3" points="81.08 120.58 79.5 120.68 78.08 120.42 76.67 120.42 75.25 120.07 73.83 120.15 72.61 120.08 72.43 119.33 73.83 119.59 75.24 119.01 76.66 119.15 78.08 119.41 79.49 119.26 80.87 119.37 81.08 120.58"/></g><g><path class="cls-3" d="M103.34,76.46c-.97,1.64-1.44,1.37-2.41,3.01-.97,1.64-.47,1.94-1.44,3.58-.97,1.64-1.64,1.25-2.61,2.89-.97,1.64-.69,1.81-1.66,3.45s-1.11,1.56-2.07,3.21-.77,1.76-1.74,3.41-1.08,1.58-2.05,3.22-1.07,1.59-2.04,3.23-.32,2.03-1.29,3.67c-.97,1.65-1.22,1.5-2.19,3.14-.97,1.65-1.15,1.54-2.13,3.19-.97,1.65-.52,1.91-1.49,3.56-.73,1.24-.2,2.3,1.24,2.3,1.94,0,1.94,.01,3.87,.01s1.94,.06,3.88,.06,1.94,.23,3.87,.23,1.94,.4,3.87,.4,1.94-.71,3.88-.71,1.94-.11,3.88-.11,1.94,.13,3.88,.13,1.94,0,3.88,0,1.94-.15,3.88-.15,1.94,.36,3.88,.36,1.94,.15,3.88,.15,1.94-.43,3.88-.43c1.44,0,2.19-1.13,1.46-2.37-.97-1.64-.85-1.71-1.81-3.36-.97-1.64-1.32-1.44-2.29-3.08s-.37-1.99-1.34-3.64-1.16-1.53-2.13-3.18c-.97-1.64-1.39-1.39-2.36-3.04-.97-1.64-.36-2-1.33-3.65s-1.24-1.49-2.21-3.13-1.05-1.6-2.02-3.24-.51-1.91-1.48-3.56c-.97-1.65-1.1-1.57-2.07-3.22s-1.29-1.46-2.26-3.1c-.97-1.65-.62-1.86-1.59-3.5-.72-1.22-2.5-.96-3.22,.26Z"/><path class="cls-2" d="M104.46,77.69c-.95,1.64-1.41,1.37-2.36,3.01s-.46,1.93-1.4,3.57c-.95,1.64-1.61,1.26-2.56,2.9s-.67,1.8-1.62,3.44c-.95,1.64-1.08,1.57-2.03,3.21-.95,1.64-.75,1.76-1.7,3.4-.95,1.64-1.06,1.58-2.01,3.22s-1.05,1.59-1.99,3.23c-.95,1.64-.31,2.01-1.26,3.66s-1.2,1.5-2.15,3.14-1.13,1.54-2.08,3.19-.51,1.9-1.46,3.54c-.72,1.24-.18,2.3,1.25,2.3,1.89,0,1.89,.01,3.79,.01s1.9,.06,3.79,.06,1.89,.22,3.79,.22,1.9,.39,3.79,.39,1.9-.69,3.79-.69,1.9-.11,3.79-.11,1.9,.12,3.79,.12,1.9,0,3.79,0,1.9-.15,3.79-.15,1.9,.36,3.8,.36,1.9,.15,3.8,.15,1.9-.42,3.8-.42c1.43,0,2.19-1.12,1.47-2.36-.95-1.64-.83-1.71-1.77-3.35-.95-1.64-1.3-1.44-2.24-3.08-.95-1.64-.36-1.98-1.31-3.62-.95-1.64-1.13-1.53-2.08-3.18s-1.37-1.4-2.32-3.04-.35-1.99-1.3-3.63c-.95-1.64-1.21-1.49-2.16-3.13-.95-1.64-1.03-1.6-1.98-3.24s-.5-1.9-1.45-3.54c-.95-1.64-1.07-1.57-2.02-3.22-.95-1.64-1.27-1.46-2.22-3.11s-.6-1.85-1.55-3.49c-.72-1.24-2.52-.99-3.24,.25Z"/><polygon class="cls-3" points="123.43 114.72 121.98 114.81 120.69 114.57 119.39 114.57 118.1 114.25 116.8 114.33 115.69 114.26 115.52 113.58 116.8 113.82 118.09 113.29 119.38 113.42 120.68 113.65 121.97 113.51 123.23 113.61 123.43 114.72"/><polygon class="cls-3" points="104.2 105.7 102.76 105.79 101.46 105.55 100.17 105.55 98.88 105.23 97.58 105.3 96.46 105.24 96.3 104.56 97.58 104.8 98.87 104.27 100.16 104.39 101.46 104.63 102.75 104.49 104.01 104.59 104.2 105.7"/><polygon class="cls-3" points="104.88 89.95 103.44 90.04 102.14 89.8 100.85 89.8 99.56 89.48 98.26 89.55 97.14 89.49 96.98 88.81 98.25 89.05 99.55 88.52 100.84 88.64 102.13 88.88 103.43 88.74 104.69 88.84 104.88 89.95"/><polygon class="cls-3" points="113.79 99.76 112.34 99.85 111.05 99.6 109.75 99.61 108.46 99.29 107.16 99.36 106.05 99.3 105.88 98.62 107.16 98.85 108.45 98.32 109.74 98.45 111.04 98.69 112.34 98.55 113.59 98.65 113.79 99.76"/><polygon class="cls-3" points="90.83 113.77 89.38 113.86 88.09 113.61 86.8 113.62 85.5 113.3 84.2 113.37 83.09 113.31 82.92 112.63 84.2 112.86 85.49 112.33 86.79 112.46 88.08 112.7 89.38 112.56 90.63 112.66 90.83 113.77"/></g><g><path class="cls-3" d="M144.17,109.45c0,.85-.04,1.73-.18,2.54s-.59,1.61-.87,2.39-.64,1.56-1.06,2.28-1.14,1.23-1.67,1.86-1.06,1.26-1.69,1.79-1.35,.9-2.08,1.32-1.34,.99-2.13,1.28-1.62,.29-2.45,.43-1.6,.7-2.45,.7-1.71-.19-2.52-.34-1.59-.57-2.37-.86-1.6-.53-2.32-.94c-.73-.42-1.35-.99-1.99-1.52s-1.33-1.03-1.87-1.67-1-1.35-1.42-2.07-.53-1.58-.82-2.37-.53-1.54-.68-2.37c-.14-.81-.6-1.61-.6-2.46s.1-1.72,.24-2.53,.81-1.51,1.09-2.29,.46-1.6,.87-2.32,1-1.31,1.53-1.95,.88-1.47,1.52-2.01,1.44-.87,2.16-1.29,1.38-1,2.17-1.28,1.6-.59,2.43-.74,1.69,.08,2.54,.08,1.69,.02,2.5,.17,1.57,.58,2.34,.86c.79,.29,1.65,.4,2.37,.81s1.54,.76,2.18,1.29,1.16,1.24,1.7,1.88,1.01,1.35,1.43,2.08,.55,1.57,.84,2.37,.51,1.56,.66,2.39,.58,1.62,.58,2.47Z"/><path class="cls-2" d="M145.44,110.8c0,.85-.02,1.72-.16,2.53s-.44,1.66-.72,2.43-.66,1.57-1.07,2.29-.85,1.49-1.39,2.13c-.54,.64-1.29,1.1-1.93,1.64s-1.37,.95-2.1,1.37-1.38,1-2.18,1.29-1.64,.4-2.47,.55-1.66,.14-2.51,.14-1.73,.16-2.54,.02-1.55-.75-2.32-1.03-1.59-.52-2.31-.94-1.59-.68-2.23-1.22-.95-1.42-1.49-2.06-1.16-1.21-1.58-1.94c-.42-.72-.82-1.46-1.11-2.25s-.21-1.65-.35-2.48-.3-1.61-.3-2.46-.14-1.7,0-2.51,.59-1.58,.87-2.35,.35-1.69,.77-2.41,1.09-1.29,1.63-1.93,1.13-1.22,1.77-1.76c.64-.54,1.16-1.27,1.89-1.69s1.5-.82,2.29-1.11,1.67-.29,2.5-.44,1.65-.22,2.5-.22,1.64,.37,2.45,.51,1.62,.29,2.4,.57,1.47,.73,2.18,1.14,1.54,.67,2.17,1.21,1.06,1.26,1.6,1.9,1.42,1.04,1.84,1.77,.68,1.56,.97,2.35,.29,1.64,.44,2.48,.47,1.63,.47,2.48Z"/><polygon class="cls-3" points="125.17 101.73 124.2 101.79 123.33 101.63 122.47 101.63 121.6 101.41 120.73 101.46 119.98 101.42 119.87 100.96 120.72 101.12 121.59 100.77 122.46 100.85 123.33 101.01 124.2 100.92 125.04 100.99 125.17 101.73"/><polygon class="cls-3" points="134.19 108.52 133.22 108.58 132.36 108.41 131.49 108.42 130.62 108.2 129.75 108.25 129 108.21 128.89 107.75 129.75 107.91 130.61 107.55 131.48 107.64 132.35 107.8 133.22 107.7 134.06 107.77 134.19 108.52"/><polygon class="cls-3" points="144.03 114.6 143.06 114.66 142.19 114.49 141.33 114.5 140.46 114.28 139.59 114.33 138.84 114.29 138.73 113.83 139.58 113.99 140.45 113.63 141.32 113.72 142.19 113.88 143.06 113.79 143.9 113.85 144.03 114.6"/><polygon class="cls-3" points="125.17 114.6 124.2 114.66 123.33 114.49 122.47 114.5 121.6 114.28 120.73 114.33 119.98 114.29 119.87 113.83 120.72 113.99 121.59 113.63 122.46 113.72 123.33 113.88 124.2 113.79 125.04 113.85 125.17 114.6"/><polygon class="cls-3" points="132.34 121.06 131.37 121.12 130.5 120.96 129.63 120.96 128.76 120.75 127.89 120.8 127.15 120.76 127.04 120.3 127.89 120.46 128.76 120.1 129.63 120.19 130.49 120.35 131.37 120.25 132.21 120.32 132.34 121.06"/></g><g><path class="cls-3" d="M162.83,102.07c0,1.03-.05,2.1-.22,3.07s-.71,1.95-1.05,2.89-.78,1.89-1.28,2.76-1.37,1.48-2.02,2.26-1.28,1.52-2.05,2.17-1.64,1.09-2.52,1.6-1.63,1.2-2.58,1.55-1.96,.35-2.96,.53-1.94,.85-2.97,.85-2.06-.23-3.04-.41-1.92-.7-2.86-1.04-1.94-.64-2.81-1.14c-.88-.51-1.63-1.19-2.4-1.84-.77-.65-1.61-1.25-2.26-2.02s-1.22-1.63-1.72-2.51-.64-1.91-.99-2.86-.65-1.87-.82-2.87c-.17-.98-.72-1.95-.72-2.98s.12-2.08,.29-3.06,.98-1.83,1.32-2.77,.55-1.94,1.06-2.81,1.21-1.59,1.86-2.36,1.07-1.78,1.84-2.43,1.74-1.05,2.62-1.56,1.68-1.21,2.63-1.55,1.94-.72,2.95-.89,2.05,.1,3.07,.1,2.04,.03,3.02,.2c1.01,.18,1.89,.7,2.83,1.05,.96,.35,1.99,.48,2.86,.99s1.87,.92,2.64,1.57c.77,.65,1.41,1.5,2.06,2.28,.65,.77,1.22,1.64,1.73,2.52s.67,1.91,1.02,2.86,.62,1.88,.8,2.89,.7,1.96,.7,2.99Z"/><path class="cls-2" d="M164.38,103.69c0,1.03-.02,2.09-.19,3.07s-.53,2-.88,2.94-.79,1.9-1.3,2.77c-.51,.88-1.03,1.8-1.68,2.57-.65,.77-1.57,1.34-2.34,1.99s-1.66,1.15-2.54,1.65-1.68,1.21-2.63,1.56-1.98,.49-2.99,.66-2.01,.16-3.04,.16-2.09,.19-3.07,.02-1.87-.9-2.81-1.24c-.96-.35-1.92-.63-2.79-1.14-.88-.51-1.92-.83-2.69-1.48-.77-.65-1.15-1.72-1.81-2.49s-1.4-1.47-1.91-2.35-1-1.77-1.35-2.73-.25-2-.43-3.01c-.17-.98-.36-1.94-.36-2.97s-.17-2.05,0-3.03,.71-1.91,1.05-2.85c.35-.96,.43-2.04,.93-2.91s1.32-1.56,1.97-2.33,1.36-1.48,2.14-2.13c.77-.65,1.41-1.54,2.28-2.05s1.82-1,2.77-1.35c.94-.34,2.02-.35,3.03-.53s2-.27,3.03-.27,1.99,.45,2.97,.62c1.01,.18,1.96,.35,2.9,.69s1.77,.88,2.64,1.38,1.86,.82,2.63,1.46,1.29,1.53,1.94,2.3,1.72,1.26,2.22,2.14c.5,.87,.82,1.88,1.17,2.84s.35,1.99,.53,3,.57,1.97,.57,3Z"/><polygon class="cls-3" points="139.85 92.72 138.68 92.8 137.63 92.6 136.58 92.61 135.53 92.34 134.47 92.4 133.57 92.35 133.43 91.8 134.47 91.99 135.52 91.56 136.57 91.66 137.62 91.86 138.67 91.74 139.69 91.82 139.85 92.72"/><polygon class="cls-3" points="150.77 100.94 149.59 101.01 148.54 100.81 147.5 100.82 146.44 100.55 145.39 100.61 144.49 100.57 144.35 100.01 145.39 100.2 146.44 99.77 147.49 99.88 148.54 100.07 149.59 99.95 150.61 100.04 150.77 100.94"/><polygon class="cls-3" points="162.67 108.29 161.5 108.37 160.45 108.17 159.4 108.17 158.35 107.91 157.29 107.97 156.39 107.92 156.25 107.37 157.29 107.56 158.34 107.13 159.39 107.23 160.44 107.43 161.49 107.31 162.51 107.39 162.67 108.29"/><polygon class="cls-3" points="139.85 108.29 138.68 108.37 137.63 108.17 136.58 108.17 135.53 107.91 134.47 107.97 133.57 107.92 133.43 107.37 134.47 107.56 135.52 107.13 136.57 107.23 137.62 107.43 138.67 107.31 139.69 107.39 139.85 108.29"/><polygon class="cls-3" points="148.52 116.12 147.35 116.19 146.3 115.99 145.25 116 144.2 115.74 143.15 115.8 142.24 115.75 142.11 115.19 143.14 115.38 144.19 114.95 145.24 115.06 146.29 115.25 147.35 115.14 148.36 115.22 148.52 116.12"/></g><g><path class="cls-3" d="M203.41,85.25c-1.74-.43-1.85,0-3.58-.43s-1.71-.55-3.45-.98c-1.74-.43-1.66-.74-3.4-1.17s-1.82-.1-3.56-.53c-1.74-.43-1.62-.89-3.36-1.33-1.74-.43-1.82-.1-3.56-.53s-1.74-.42-3.48-.85c-1.74-.43-1.63-.87-3.37-1.3s-1.73-.49-3.47-.92c-1.74-.43-1.82-.11-3.56-.54-1.77-.44-3.66,.69-4.09,2.46-.42,1.68,.01,1.79-.41,3.47s-.52,1.66-.94,3.34-.26,1.72-.68,3.41-.79,1.59-1.21,3.28c-.42,1.68-.11,1.76-.53,3.45s-1.12,1.51-1.54,3.19-.25,1.73-.67,3.41c-.42,1.69-.1,1.76-.52,3.45-.42,1.69-.6,1.64-1.02,3.33-.42,1.69-.27,1.73-.68,3.41-.44,1.77,.52,3.64,2.29,4.08s1.75,.4,3.48,.83,1.83,.05,3.57,.48,1.72,.49,3.46,.93c1.74,.43,1.6,.98,3.34,1.42,1.74,.43,1.75,.41,3.49,.84s1.91-.24,3.64,.19,1.67,.71,3.41,1.14c1.74,.43,1.79,.24,3.53,.67,1.74,.43,1.62,.93,3.36,1.36s1.81,.16,3.55,.59c1.77,.44,3.8-.49,4.24-2.26,.42-1.68,.54-1.65,.96-3.34s-.01-1.79,.41-3.47,.49-1.67,.91-3.35,.09-1.77,.5-3.45,.8-1.59,1.22-3.28c.42-1.68,.7-1.62,1.11-3.3s.23-1.73,.65-3.41c.42-1.69,.38-1.7,.8-3.38s.07-1.77,.49-3.46,.45-1.68,.87-3.37c.44-1.77-.43-3.64-2.2-4.08Z"/><path class="cls-2" d="M204.65,83.57c-1.86-.46-1.96-.04-3.82-.5s-1.83-.58-3.69-1.04-1.79-.76-3.65-1.22-1.94-.14-3.8-.6c-1.86-.46-1.75-.91-3.61-1.37-1.86-.46-1.94-.14-3.8-.6-1.86-.46-1.86-.45-3.73-.91-1.86-.46-1.76-.88-3.62-1.35-1.86-.46-1.85-.51-3.71-.98-1.77-.44-3.72,1.01-4.16,2.77-.46,1.86-.47,1.86-.93,3.72-.46,1.86-.05,1.96-.51,3.82-.46,1.86-.56,1.84-1.02,3.7-.46,1.86-.31,1.9-.77,3.76s-.82,1.77-1.28,3.63-.16,1.93-.63,3.79-1.14,1.69-1.6,3.55c-.46,1.86-.3,1.9-.76,3.77-.46,1.86-.16,1.94-.62,3.8-.44,1.77,.5,3.58,2.27,4.02,1.86,.46,1.9,.31,3.76,.77,1.86,.46,1.81,.66,3.67,1.12,1.86,.46,1.87,.43,3.73,.89s1.95,.1,3.81,.56,1.85,.52,3.71,.98c1.86,.46,1.73,1,3.59,1.46s1.87,.44,3.73,.9c1.86,.46,2.02-.19,3.89,.27,1.86,.46,1.8,.73,3.66,1.19,1.77,.44,3.23-.61,3.67-2.37,.46-1.86,.94-1.74,1.4-3.6s.2-1.93,.66-3.79c.46-1.86,.8-1.78,1.26-3.64s.58-1.83,1.04-3.69c.46-1.86,.05-1.96,.51-3.83,.46-1.86,.53-1.84,.99-3.7s.14-1.94,.6-3.8c.46-1.86,.83-1.77,1.29-3.63,.46-1.86,.73-1.8,1.19-3.66,.44-1.77-.96-3.76-2.72-4.2Z"/><polygon class="cls-3" points="165.37 110.69 164.05 110.27 162.78 110.2 161.58 109.89 160.3 109.9 159.11 109.53 158.05 109.32 157.74 109.92 158.98 110 160.07 110.79 161.3 110.97 162.56 111.05 163.74 111.48 164.93 111.68 165.37 110.69"/><polygon class="cls-3" points="176.93 102.54 175.61 102.12 174.34 102.05 173.14 101.75 171.86 101.75 170.67 101.38 169.61 101.18 169.3 101.78 170.54 101.85 171.63 102.65 172.86 102.82 174.12 102.9 175.3 103.33 176.49 103.53 176.93 102.54"/><polygon class="cls-3" points="190.45 96.22 189.12 95.8 187.86 95.73 186.66 95.43 185.38 95.43 184.18 95.06 183.13 94.86 182.82 95.46 184.06 95.53 185.15 96.32 186.38 96.5 187.64 96.58 188.82 97.01 190.01 97.21 190.45 96.22"/><polygon class="cls-3" points="202.64 89.71 201.32 89.29 200.05 89.22 198.85 88.91 197.57 88.91 196.38 88.54 195.32 88.34 195.01 88.94 196.25 89.02 197.34 89.81 198.57 89.99 199.83 90.07 201.01 90.5 202.2 90.69 202.64 89.71"/><polygon class="cls-3" points="173.78 82.55 172.46 82.13 171.2 82.06 169.99 81.75 168.71 81.76 167.52 81.39 166.46 81.18 166.15 81.78 167.4 81.86 168.48 82.65 169.71 82.83 170.98 82.91 172.15 83.34 173.35 83.54 173.78 82.55"/><polygon class="cls-3" points="195.02 120.45 193.69 120.03 192.43 119.96 191.23 119.65 189.94 119.65 188.75 119.28 187.7 119.08 187.38 119.68 188.63 119.76 189.71 120.55 190.95 120.73 192.21 120.81 193.39 121.24 194.58 121.43 195.02 120.45"/></g><rect class="cls-4" x="-.36" y="107.81" width="230.73" height="21" rx="7.64" ry="7.64"/><rect class="cls-5" x="113.06" y="138.26" width="32.91" height="6.39" rx="3.19" ry="3.19"/><rect class="cls-5" x="153.83" y="153.28" width="32.91" height="6.39" rx="3.19" ry="3.19"/><rect class="cls-5" x="80.29" y="152.89" width="32.91" height="6.39" rx="3.19" ry="3.19"/><rect class="cls-5" x="33.95" y="138.26" width="32.91" height="6.39" rx="3.19" ry="3.19"/><rect class="cls-5" x="82.22" y="122.42" width="123.8" height="6.39" rx="3.19" ry="3.19"/><rect class="cls-5" x="47.63" y="167.01" width="32.91" height="6.39" rx="3.19" ry="3.19"/><g><g><path class="cls-2" d="M181.27,183.43c0,2.47-.84,4.62-.93,6.51-.12,2.61,.17,4.95-.53,6.63-.83,1.98-3.15,2.31-5.5,3.3-1.61,.67-3.22,2.83-5.86,3.17-1.86,.24-4.09,.11-6.57,.22-1.96,.09-4.14-.16-6.53-.13-2.01,.03-4.18-.47-6.52-.47s-4.51,.55-6.52,.52c-2.39-.03-4.58,.17-6.53,.08-2.48-.11-4.58-1.01-6.45-1.25-2.64-.34-5.08,.2-6.69-.47-2.35-.99-3.04-3.38-3.86-5.36-.7-1.68-.13-3.68-.25-6.29-.09-1.89-.3-3.99-.3-6.46s-1.27-4.89-.76-7.16,1.75-4.51,2.76-6.61,3.16-3.5,4.63-5.34c1.48-1.85,2.97-3.43,4.82-4.9s3.61-2.78,5.75-3.81c2.11-1.02,4.24-1.54,6.58-2.07s4.41-.98,6.83-.98,4.88-.93,7.14-.41c2.34,.53,4.74,1.22,6.85,2.24s3.36,3.51,5.2,4.98c1.85,1.48,4.01,2.54,5.49,4.39s3.82,3.32,4.85,5.46c1.02,2.11,1.73,4.63,2.26,6.97s.66,4.84,.66,7.26Z"/><path class="cls-3" d="M180.26,194.25c-.06,.87-.17,1.65-.45,2.32-.83,1.98-3.15,2.31-5.51,3.29-1.61,.67-3.22,2.83-5.86,3.17-1.86,.23-4.08,.11-6.57,.22-1.95,.09-4.14-.16-6.53-.13-2.01,.03-4.18-.47-6.53-.47s-4.51,.55-6.52,.52c-2.39-.03-4.57,.17-6.54,.08-2.47-.11-4.57-1.01-6.44-1.24-2.64-.34-5.07,.2-6.69-.48-2.35-.98-3.04-3.37-3.86-5.36-.16-.39-.26-.8-.3-1.23,.64,1.4,1.49,2.7,3.1,3.37,1.68,.7,4.22,.14,6.96,.49,1.94,.25,4.12,1.18,6.7,1.3,2.03,.1,4.3-.12,6.79-.08,2.09,.03,4.35-.55,6.78-.55s4.7,.52,6.79,.49c2.48-.04,4.76,.22,6.79,.13,2.58-.12,4.89,0,6.83-.23,2.74-.36,4.42-2.59,6.09-3.29,1.94-.8,3.83-1.18,4.97-2.32Z"/><polygon class="cls-3" points="118.59 189.62 119.91 189.36 121 188.82 122.15 188.52 123.23 187.91 124.41 187.66 125.39 187.34 125.37 186.69 124.29 187.21 123.01 187.05 121.88 187.48 120.79 188 119.59 188.19 118.5 188.59 118.59 189.62"/><polygon class="cls-3" points="123.81 167.74 125.5 168.39 127.14 168.57 128.68 169.05 130.35 169.14 131.87 169.71 133.22 170.05 133.67 169.29 132.06 169.1 130.71 167.99 129.12 167.67 127.48 167.48 125.98 166.83 124.45 166.49 123.81 167.74"/><polygon class="cls-3" points="171.64 164.55 170.19 164.46 168.9 164.7 167.6 164.7 166.3 165.02 165 164.95 163.88 165.01 163.71 165.69 164.99 165.46 166.29 165.99 167.59 165.86 168.89 165.62 170.19 165.76 171.45 165.66 171.64 164.55"/><polygon class="cls-3" points="135.02 197.82 133.68 197.86 132.51 198.19 131.32 198.3 130.16 198.71 128.96 198.75 127.94 198.9 127.84 199.54 129 199.21 130.23 199.59 131.41 199.36 132.58 199.03 133.79 199.05 134.94 198.85 135.02 197.82"/><polygon class="cls-3" points="133.67 158.68 135.63 158.91 137.41 158.67 139.16 158.77 140.94 158.42 142.7 158.62 144.22 158.62 144.5 157.7 142.74 157.93 141.02 157.12 139.26 157.2 137.48 157.43 135.73 157.14 134.02 157.19 133.67 158.68"/><polygon class="cls-3" points="142.52 177.03 144.34 177.25 145.99 177.02 147.63 177.12 149.29 176.79 150.93 176.98 152.34 176.97 152.6 176.12 150.97 176.33 149.37 175.58 147.72 175.65 146.07 175.86 144.43 175.6 142.84 175.64 142.52 177.03"/><polygon class="cls-3" points="160.69 172.44 159.42 172.29 158.27 172.45 157.13 172.38 155.97 172.61 154.83 172.48 153.84 172.48 153.66 173.08 154.8 172.93 155.92 173.46 157.06 173.4 158.22 173.26 159.36 173.44 160.47 173.41 160.69 172.44"/><polygon class="cls-3" points="140.71 183.76 139.43 183.91 138.28 183.75 137.14 183.82 135.98 183.59 134.84 183.72 133.85 183.72 133.67 183.12 134.81 183.27 135.93 182.74 137.07 182.8 138.23 182.95 139.37 182.76 140.48 182.79 140.71 183.76"/><polygon class="cls-3" points="156.15 183.67 157.98 183.88 159.63 183.66 161.26 183.75 162.93 183.43 164.56 183.61 165.98 183.61 166.23 182.75 164.6 182.97 163 182.21 161.36 182.28 159.7 182.5 158.07 182.23 156.47 182.28 156.15 183.67"/><polygon class="cls-3" points="178.5 191.15 176.54 190.93 174.76 191.18 173.01 191.08 171.23 191.44 169.47 191.25 167.95 191.26 167.68 192.18 169.43 191.94 171.15 192.75 172.92 192.66 174.69 192.42 176.45 192.69 178.16 192.64 178.5 191.15"/></g><path class="cls-1" d="M137.84,154.63c-1.55,.92-2.96,1.98-4.41,3.14-2.01,1.62-3.63,3.33-5.25,5.35-1.6,2-3.92,3.49-5.05,5.82-1.11,2.3-2.43,4.66-3.01,7.21-.56,2.46,.83,5.16,.83,7.8s.23,4.98,.33,7.04c.13,2.84-.49,5.03,.27,6.86,.54,1.29,1.02,2.74,1.87,3.93-.29-.06-.55-.13-.8-.24-2.35-.98-3.04-3.37-3.86-5.36-.7-1.68-.13-3.68-.25-6.29-.1-1.89-.3-3.99-.3-6.45s-1.27-4.89-.76-7.15c.53-2.34,1.75-4.51,2.76-6.61,1.04-2.15,3.16-3.5,4.63-5.34,1.48-1.85,2.97-3.43,4.81-4.91,1.84-1.46,3.61-2.77,5.75-3.81,.8-.39,1.61-.7,2.44-.96Z"/></g><g><g><path class="cls-2" d="M200.51,195.77c0,1.86-.64,3.49-.7,4.91-.09,1.97,.13,3.73-.4,5-.62,1.5-2.37,1.74-4.15,2.49-1.22,.51-2.43,2.13-4.42,2.39-1.4,.18-3.09,.08-4.95,.17-1.48,.07-3.12-.12-4.93-.1-1.51,.02-3.15-.35-4.92-.35s-3.4,.41-4.92,.39c-1.8-.02-3.45,.13-4.93,.06-1.87-.09-3.46-.76-4.86-.94-1.99-.25-3.83,.15-5.05-.36-1.77-.74-2.29-2.55-2.92-4.04-.53-1.27-.09-2.77-.19-4.74-.07-1.42-.23-3.01-.23-4.87s-.96-3.69-.57-5.4c.4-1.76,1.32-3.4,2.08-4.99s2.38-2.64,3.49-4.03c1.11-1.4,2.24-2.59,3.63-3.7,1.39-1.11,2.72-2.1,4.34-2.88s3.2-1.16,4.96-1.56,3.32-.74,5.15-.74,3.68-.7,5.39-.31c1.76,.4,3.58,.92,5.17,1.69,1.62,.78,2.54,2.65,3.93,3.76s3.02,1.92,4.14,3.31,2.88,2.5,3.66,4.12,1.3,3.49,1.7,5.25,.5,3.65,.5,5.47Z"/><path class="cls-3" d="M199.75,203.93c-.04,.65-.13,1.24-.34,1.75-.62,1.5-2.37,1.74-4.15,2.48-1.21,.51-2.43,2.13-4.42,2.39-1.4,.17-3.08,.08-4.95,.17-1.47,.07-3.12-.12-4.92-.09-1.52,.02-3.15-.36-4.92-.36s-3.4,.41-4.92,.39c-1.8-.02-3.45,.13-4.93,.06-1.87-.08-3.45-.76-4.86-.94-1.99-.25-3.83,.15-5.05-.36-1.77-.74-2.29-2.54-2.91-4.05-.12-.3-.2-.6-.23-.93,.48,1.05,1.13,2.03,2.34,2.54,1.26,.53,3.18,.11,5.25,.37,1.46,.19,3.11,.89,5.05,.98,1.53,.07,3.25-.09,5.12-.06,1.58,.02,3.28-.41,5.11-.41s3.54,.39,5.12,.37c1.87-.03,3.59,.17,5.12,.1,1.95-.09,3.69,0,5.15-.17,2.07-.27,3.33-1.95,4.6-2.48,1.46-.6,2.89-.89,3.75-1.75Z"/><polygon class="cls-3" points="153.24 200.44 154.23 200.24 155.06 199.84 155.93 199.6 156.74 199.15 157.63 198.96 158.37 198.72 158.35 198.23 157.54 198.62 156.57 198.5 155.73 198.82 154.9 199.22 154 199.36 153.17 199.66 153.24 200.44"/><polygon class="cls-3" points="157.18 183.94 158.45 184.42 159.69 184.56 160.85 184.92 162.11 184.99 163.26 185.42 164.28 185.67 164.62 185.1 163.4 184.96 162.38 184.13 161.18 183.88 159.95 183.74 158.82 183.25 157.66 182.99 157.18 183.94"/><polygon class="cls-3" points="193.26 181.53 192.16 181.46 191.18 181.64 190.21 181.64 189.23 181.88 188.24 181.83 187.4 181.87 187.28 182.39 188.24 182.21 189.22 182.61 190.2 182.52 191.18 182.34 192.16 182.44 193.11 182.37 193.26 181.53"/><polygon class="cls-3" points="165.64 206.62 164.63 206.65 163.74 206.9 162.84 206.98 161.97 207.29 161.06 207.32 160.29 207.43 160.22 207.92 161.09 207.67 162.02 207.96 162.91 207.79 163.8 207.54 164.71 207.55 165.57 207.4 165.64 206.62"/><polygon class="cls-3" points="164.62 177.1 166.09 177.27 167.43 177.09 168.76 177.17 170.1 176.91 171.43 177.05 172.57 177.05 172.78 176.36 171.46 176.53 170.16 175.92 168.83 175.98 167.49 176.15 166.17 175.94 164.88 175.98 164.62 177.1"/><polygon class="cls-3" points="171.29 190.94 172.66 191.1 173.91 190.94 175.14 191.01 176.4 190.76 177.63 190.9 178.7 190.9 178.89 190.25 177.66 190.42 176.45 189.84 175.21 189.9 173.96 190.06 172.73 189.86 171.53 189.9 171.29 190.94"/><polygon class="cls-3" points="185 187.48 184.04 187.37 183.17 187.48 182.31 187.43 181.43 187.61 180.57 187.51 179.83 187.51 179.69 187.96 180.55 187.85 181.39 188.25 182.26 188.21 183.13 188.09 183.99 188.23 184.83 188.21 185 187.48"/><polygon class="cls-3" points="169.92 196.02 168.96 196.13 168.09 196.01 167.23 196.06 166.36 195.89 165.5 195.99 164.75 195.99 164.62 195.54 165.47 195.65 166.32 195.25 167.18 195.29 168.05 195.4 168.91 195.26 169.75 195.29 169.92 196.02"/><polygon class="cls-3" points="181.57 195.95 182.95 196.11 184.19 195.94 185.43 196.01 186.68 195.77 187.92 195.9 188.98 195.9 189.18 195.26 187.95 195.42 186.74 194.85 185.5 194.9 184.25 195.06 183.02 194.87 181.81 194.9 181.57 195.95"/><polygon class="cls-3" points="198.43 201.59 196.95 201.42 195.61 201.61 194.29 201.54 192.94 201.81 191.62 201.67 190.47 201.68 190.27 202.37 191.59 202.19 192.89 202.8 194.22 202.73 195.56 202.55 196.88 202.76 198.17 202.71 198.43 201.59"/></g><path class="cls-1" d="M167.76,174.05c-1.17,.7-2.23,1.5-3.33,2.37-1.52,1.22-2.74,2.51-3.96,4.04-1.21,1.51-2.96,2.63-3.81,4.39-.84,1.74-1.83,3.51-2.27,5.44-.42,1.86,.62,3.89,.62,5.88s.17,3.75,.25,5.31c.1,2.14-.37,3.79,.2,5.17,.41,.97,.77,2.07,1.41,2.96-.22-.04-.41-.1-.6-.18-1.77-.74-2.29-2.54-2.91-4.05-.53-1.26-.09-2.77-.19-4.74-.07-1.42-.23-3.01-.23-4.87s-.96-3.69-.57-5.4c.4-1.76,1.32-3.4,2.08-4.99,.78-1.62,2.38-2.64,3.49-4.03,1.12-1.39,2.24-2.59,3.63-3.7,1.39-1.1,2.72-2.09,4.34-2.88,.6-.29,1.21-.53,1.84-.73Z"/></g></svg>