<?xml version="1.0" encoding="UTF-8"?><svg id="Camada_1" xmlns="http://www.w3.org/2000/svg" viewBox="0 0 230 230"><defs><style>.cls-1{opacity:.1;}.cls-2{fill:#f5c99d;}.cls-3{fill:#e6b37f;}.cls-4{fill:#995c17;}.cls-5{fill:#8a5315;}.cls-6{fill:#fff;fill-rule:evenodd;}</style></defs><path class="cls-6" d="M113.16,229.99c35.19-.52,64.41-23.19,86.17-50.18,21.56-26.73,35.54-59.32,29.09-92.75-6.75-34.98-29.1-66.99-62.61-81.04-32.11-13.46-67.69-2.32-98.7,13.4C37.53,34.42,11.87,56.83,3.47,88.31c-8.71,32.63-.67,67.22,20.16,94.12,21.55,27.84,53.79,48.09,89.53,47.56Z"/><g><path class="cls-5" d="M216.6,137.56h-13.74c0-47.04-38.27-85.31-85.31-85.31S32.24,90.52,32.24,137.56h-13.74c0-54.61,44.43-99.05,99.05-99.05s99.05,44.43,99.05,99.05Z"/><path class="cls-4" d="M219.34,139.51H10.66l17.96,41.92c3.11,12.65,14.46,21.55,27.49,21.55h117.77c13.03,0,24.38-8.89,27.49-21.55l17.96-41.92Z"/><g><path class="cls-3" d="M63.45,132.98c-1.74,.43-1.85,0-3.58,.43-1.74,.43-1.71,.55-3.45,.98-1.74,.43-1.66,.74-3.4,1.17s-1.82,.1-3.56,.53-1.62,.89-3.36,1.33-1.82,.1-3.56,.53-1.74,.42-3.48,.85-1.63,.87-3.37,1.3c-1.74,.43-1.73,.49-3.47,.92-1.74,.43-1.82,.11-3.56,.54-1.77,.44-3.66-.69-4.09-2.46-.42-1.68,.01-1.79-.41-3.47s-.52-1.66-.94-3.34-.26-1.72-.68-3.41-.79-1.59-1.21-3.28-.11-1.76-.53-3.45-1.12-1.51-1.54-3.19-.25-1.73-.67-3.41c-.42-1.69-.1-1.76-.52-3.45-.42-1.69-.6-1.64-1.02-3.33-.42-1.69-.27-1.73-.68-3.41-.44-1.77,.52-3.64,2.29-4.08,1.74-.43,1.75-.4,3.48-.83,1.74-.43,1.83-.05,3.57-.48s1.72-.49,3.46-.93,1.6-.98,3.34-1.42,1.75-.41,3.49-.84,1.91,.24,3.64-.19c1.74-.43,1.67-.71,3.41-1.14s1.79-.24,3.53-.67,1.62-.93,3.36-1.36c1.74-.43,1.81-.16,3.55-.59,1.77-.44,3.8,.49,4.24,2.26,.42,1.68,.54,1.65,.96,3.34s-.01,1.79,.41,3.47,.49,1.67,.91,3.35,.09,1.77,.5,3.45,.8,1.59,1.22,3.28,.7,1.62,1.11,3.3c.42,1.68,.23,1.73,.65,3.41,.42,1.69,.38,1.7,.8,3.38,.42,1.69,.07,1.77,.49,3.46,.42,1.69,.45,1.68,.87,3.37,.44,1.77-.43,3.64-2.2,4.08Z"/><path class="cls-2" d="M64.69,134.66c-1.86,.46-1.96,.04-3.82,.5s-1.83,.58-3.69,1.04-1.79,.76-3.65,1.22c-1.86,.46-1.94,.14-3.8,.6s-1.75,.91-3.61,1.37-1.94,.14-3.8,.6c-1.86,.46-1.86,.45-3.73,.91s-1.76,.88-3.62,1.35-1.85,.51-3.71,.98c-1.77,.44-3.72-1.01-4.16-2.77-.46-1.86-.47-1.86-.93-3.72s-.05-1.96-.51-3.82c-.46-1.86-.56-1.84-1.02-3.7-.46-1.86-.31-1.9-.77-3.76s-.82-1.77-1.28-3.63-.16-1.93-.63-3.79-1.14-1.69-1.6-3.55-.3-1.9-.76-3.77-.16-1.94-.62-3.8c-.44-1.77,.5-3.58,2.27-4.02,1.86-.46,1.9-.31,3.76-.77s1.81-.66,3.67-1.12,1.87-.43,3.73-.89c1.86-.46,1.95-.1,3.81-.56,1.86-.46,1.85-.52,3.71-.98s1.73-1,3.59-1.46c1.86-.46,1.87-.44,3.73-.9,1.86-.46,2.02,.19,3.89-.27s1.8-.73,3.66-1.19c1.77-.44,3.23,.61,3.67,2.37,.46,1.86,.94,1.74,1.4,3.6s.2,1.93,.66,3.79c.46,1.86,.8,1.78,1.26,3.64,.46,1.86,.58,1.83,1.04,3.69,.46,1.86,.05,1.96,.51,3.83,.46,1.86,.53,1.84,.99,3.7,.46,1.86,.14,1.94,.6,3.8,.46,1.86,.83,1.77,1.29,3.63,.46,1.86,.73,1.8,1.19,3.66,.44,1.77-.96,3.76-2.72,4.2Z"/><polygon class="cls-3" points="25.41 107.54 24.08 107.96 22.82 108.03 21.62 108.34 20.34 108.33 19.14 108.7 18.09 108.9 17.78 108.3 19.02 108.23 20.11 107.44 21.34 107.26 22.6 107.18 23.78 106.75 24.97 106.55 25.41 107.54"/><polygon class="cls-3" points="36.97 115.69 35.64 116.11 34.38 116.18 33.18 116.48 31.9 116.48 30.7 116.85 29.65 117.05 29.34 116.45 30.58 116.38 31.67 115.58 32.9 115.4 34.16 115.33 35.34 114.9 36.53 114.7 36.97 115.69"/><polygon class="cls-3" points="50.49 122.01 49.16 122.43 47.9 122.5 46.7 122.8 45.41 122.8 44.22 123.17 43.17 123.37 42.86 122.77 44.1 122.7 45.18 121.9 46.42 121.72 47.68 121.65 48.86 121.22 50.05 121.02 50.49 122.01"/><polygon class="cls-3" points="62.68 128.52 61.35 128.94 60.09 129.01 58.89 129.32 57.61 129.32 56.41 129.69 55.36 129.89 55.05 129.29 56.29 129.21 57.38 128.42 58.61 128.24 59.87 128.16 61.05 127.73 62.24 127.53 62.68 128.52"/><polygon class="cls-3" points="33.82 135.68 32.5 136.1 31.23 136.17 30.03 136.48 28.75 136.47 27.56 136.84 26.5 137.04 26.19 136.45 27.43 136.37 28.52 135.58 29.75 135.4 31.01 135.32 32.19 134.89 33.38 134.69 33.82 135.68"/><polygon class="cls-3" points="55.06 97.78 53.73 98.2 52.47 98.27 51.26 98.58 49.98 98.57 48.79 98.95 47.74 99.15 47.42 98.55 48.67 98.47 49.75 97.68 50.98 97.5 52.25 97.42 53.42 96.99 54.62 96.79 55.06 97.78"/></g><g><path class="cls-3" d="M100.38,120.89c0,1.39-.07,2.82-.3,4.15s-.96,2.63-1.42,3.9-1.05,2.54-1.73,3.72-1.85,2-2.73,3.04-1.72,2.05-2.77,2.93-2.21,1.47-3.39,2.16-2.19,1.62-3.48,2.09-2.64,.47-4,.71c-1.32,.23-2.61,1.15-4,1.15s-2.78-.32-4.11-.55-2.59-.94-3.86-1.4-2.61-.86-3.78-1.54c-1.18-.68-2.2-1.61-3.24-2.48s-2.17-1.68-3.05-2.73-1.64-2.2-2.32-3.38c-.68-1.17-.86-2.57-1.33-3.86s-.87-2.51-1.11-3.87c-.23-1.32-.98-2.63-.98-4.02s.16-2.8,.39-4.12,1.32-2.47,1.79-3.74,.75-2.61,1.42-3.79,1.63-2.14,2.5-3.18,1.44-2.4,2.48-3.28,2.34-1.41,3.53-2.1c1.17-.68,2.26-1.62,3.55-2.09,1.27-.46,2.61-.97,3.97-1.21,1.32-.23,2.76,.13,4.15,.13s2.75,.04,4.07,.27c1.36,.24,2.55,.95,3.82,1.41s2.69,.65,3.86,1.33c1.18,.68,2.52,1.24,3.56,2.11,1.04,.88,1.9,2.03,2.78,3.07s1.64,2.21,2.33,3.39c.68,1.17,.9,2.57,1.37,3.86s.84,2.54,1.08,3.9,.94,2.65,.94,4.03Z"/><path class="cls-2" d="M102.46,123.09c0,1.39-.03,2.81-.26,4.13s-.72,2.7-1.18,3.97c-.47,1.29-1.07,2.57-1.75,3.74-.68,1.18-1.39,2.43-2.26,3.47s-2.11,1.8-3.15,2.68c-1.04,.87-2.24,1.55-3.42,2.23s-2.26,1.63-3.55,2.1c-1.27,.46-2.67,.66-4.03,.9-1.32,.23-2.71,.22-4.09,.22s-2.82,.26-4.14,.02c-1.36-.24-2.53-1.22-3.79-1.68s-2.59-.86-3.76-1.53c-1.18-.68-2.59-1.11-3.63-1.99-1.04-.88-1.56-2.32-2.43-3.36s-1.89-1.98-2.57-3.16c-.68-1.17-1.34-2.39-1.81-3.68s-.34-2.7-.58-4.05c-.23-1.32-.48-2.62-.48-4.01s-.23-2.77,0-4.09,.96-2.57,1.42-3.84c.47-1.29,.58-2.75,1.25-3.92s1.79-2.1,2.66-3.14,1.84-1.99,2.88-2.87,1.9-2.08,3.08-2.76c1.17-.68,2.45-1.35,3.74-1.81s2.73-.48,4.08-.71c1.32-.23,2.7-.36,4.08-.36s2.68,.6,4,.83,2.65,.47,3.92,.93,2.39,1.19,3.56,1.86,2.51,1.1,3.55,1.98c1.04,.88,1.74,2.06,2.61,3.11,.87,1.04,2.31,1.7,3,2.89s1.11,2.54,1.58,3.83,.48,2.68,.71,4.04,.77,2.66,.77,4.04Z"/><polygon class="cls-3" points="69.39 108.3 67.8 108.4 66.39 108.13 64.97 108.14 63.56 107.78 62.14 107.86 60.92 107.8 60.74 107.05 62.13 107.31 63.55 106.73 64.96 106.87 66.38 107.13 67.8 106.97 69.17 107.08 69.39 108.3"/><polygon class="cls-3" points="84.11 119.37 82.53 119.47 81.11 119.2 79.7 119.21 78.28 118.85 76.86 118.94 75.64 118.87 75.46 118.12 76.85 118.38 78.27 117.8 79.68 117.94 81.1 118.2 82.52 118.05 83.89 118.16 84.11 119.37"/><polygon class="cls-3" points="100.16 129.29 98.58 129.39 97.16 129.12 95.75 129.13 94.33 128.77 92.91 128.86 91.69 128.79 91.51 128.04 92.9 128.3 94.32 127.72 95.73 127.86 97.15 128.12 98.57 127.97 99.94 128.08 100.16 129.29"/><polygon class="cls-3" points="69.39 129.29 67.8 129.39 66.39 129.12 64.97 129.13 63.56 128.77 62.14 128.86 60.92 128.79 60.74 128.04 62.13 128.3 63.55 127.72 64.96 127.86 66.38 128.12 67.8 127.97 69.17 128.08 69.39 129.29"/><polygon class="cls-3" points="81.08 139.84 79.5 139.94 78.08 139.67 76.67 139.68 75.25 139.32 73.83 139.41 72.61 139.34 72.43 138.59 73.83 138.85 75.24 138.27 76.66 138.41 78.08 138.67 79.49 138.52 80.87 138.63 81.08 139.84"/></g><g><path class="cls-3" d="M103.34,95.71c-.97,1.64-1.44,1.37-2.41,3.01s-.47,1.94-1.44,3.58c-.97,1.64-1.64,1.25-2.61,2.89-.97,1.64-.69,1.81-1.66,3.45s-1.11,1.56-2.07,3.21-.77,1.76-1.74,3.41-1.08,1.58-2.05,3.22-1.07,1.59-2.04,3.23-.32,2.03-1.29,3.67c-.97,1.65-1.22,1.5-2.19,3.14-.97,1.65-1.15,1.54-2.13,3.19-.97,1.65-.52,1.91-1.49,3.56-.73,1.24-.2,2.3,1.24,2.3,1.94,0,1.94,.01,3.87,.01s1.94,.06,3.88,.06,1.94,.23,3.87,.23,1.94,.4,3.87,.4,1.94-.71,3.88-.71,1.94-.11,3.88-.11,1.94,.13,3.88,.13,1.94,0,3.88,0,1.94-.15,3.88-.15,1.94,.36,3.88,.36,1.94,.15,3.88,.15,1.94-.43,3.88-.43c1.44,0,2.19-1.13,1.46-2.37-.97-1.64-.85-1.71-1.81-3.36-.97-1.64-1.32-1.44-2.29-3.08s-.37-1.99-1.34-3.64c-.97-1.64-1.16-1.53-2.13-3.18-.97-1.64-1.39-1.39-2.36-3.04-.97-1.64-.36-2-1.33-3.65s-1.24-1.49-2.21-3.13-1.05-1.6-2.02-3.24-.51-1.91-1.48-3.56c-.97-1.65-1.1-1.57-2.07-3.22s-1.29-1.46-2.26-3.1-.62-1.86-1.59-3.5c-.72-1.22-2.5-.96-3.22,.26Z"/><path class="cls-2" d="M104.46,96.95c-.95,1.64-1.41,1.37-2.36,3.01s-.46,1.93-1.4,3.57c-.95,1.64-1.61,1.26-2.56,2.9s-.67,1.8-1.62,3.44c-.95,1.64-1.08,1.57-2.03,3.21-.95,1.64-.75,1.76-1.7,3.4-.95,1.64-1.06,1.58-2.01,3.22-.95,1.64-1.05,1.59-1.99,3.23-.95,1.64-.31,2.01-1.26,3.66s-1.2,1.5-2.15,3.14-1.13,1.54-2.08,3.19-.51,1.9-1.46,3.54c-.72,1.24-.18,2.3,1.25,2.3,1.89,0,1.89,.01,3.79,.01s1.9,.06,3.79,.06,1.89,.22,3.79,.22,1.9,.39,3.79,.39,1.9-.69,3.79-.69,1.9-.11,3.79-.11,1.9,.12,3.79,.12,1.9,0,3.79,0,1.9-.15,3.79-.15,1.9,.36,3.8,.36,1.9,.15,3.8,.15,1.9-.42,3.8-.42c1.43,0,2.19-1.12,1.47-2.36-.95-1.64-.83-1.71-1.77-3.35-.95-1.64-1.3-1.44-2.24-3.08-.95-1.64-.36-1.98-1.31-3.62-.95-1.64-1.13-1.53-2.08-3.18s-1.37-1.4-2.32-3.04-.35-1.99-1.3-3.63c-.95-1.64-1.21-1.49-2.16-3.13-.95-1.64-1.03-1.6-1.98-3.24-.95-1.64-.5-1.9-1.45-3.54-.95-1.64-1.07-1.57-2.02-3.22-.95-1.64-1.27-1.46-2.22-3.11s-.6-1.85-1.55-3.49c-.72-1.24-2.52-.99-3.24,.25Z"/><polygon class="cls-3" points="123.43 133.98 121.98 134.07 120.69 133.83 119.39 133.83 118.1 133.51 116.8 133.58 115.69 133.52 115.52 132.84 116.8 133.08 118.09 132.55 119.38 132.67 120.68 132.91 121.97 132.77 123.23 132.87 123.43 133.98"/><polygon class="cls-3" points="104.2 124.96 102.76 125.05 101.46 124.8 100.17 124.81 98.88 124.48 97.58 124.56 96.46 124.5 96.3 123.82 97.58 124.05 98.87 123.52 100.16 123.65 101.46 123.89 102.75 123.75 104.01 123.85 104.2 124.96"/><polygon class="cls-3" points="104.88 109.21 103.44 109.3 102.14 109.05 100.85 109.06 99.56 108.74 98.26 108.81 97.14 108.75 96.98 108.07 98.25 108.3 99.55 107.77 100.84 107.9 102.13 108.14 103.43 108 104.69 108.1 104.88 109.21"/><polygon class="cls-3" points="113.79 119.01 112.34 119.1 111.05 118.86 109.75 118.87 108.46 118.54 107.16 118.62 106.05 118.56 105.88 117.87 107.16 118.11 108.45 117.58 109.74 117.71 111.04 117.94 112.34 117.8 113.59 117.9 113.79 119.01"/><polygon class="cls-3" points="90.83 133.02 89.38 133.12 88.09 132.87 86.8 132.88 85.5 132.55 84.2 132.63 83.09 132.57 82.92 131.88 84.2 132.12 85.49 131.59 86.79 131.72 88.08 131.96 89.38 131.82 90.63 131.92 90.83 133.02"/></g><g><path class="cls-3" d="M144.17,128.71c0,.85-.04,1.73-.18,2.54s-.59,1.61-.87,2.39c-.29,.79-.64,1.56-1.06,2.28s-1.14,1.23-1.67,1.86-1.06,1.26-1.69,1.79-1.35,.9-2.08,1.32-1.34,.99-2.13,1.28-1.62,.29-2.45,.43-1.6,.7-2.45,.7-1.71-.19-2.52-.34-1.59-.57-2.37-.86-1.6-.53-2.32-.94c-.73-.42-1.35-.99-1.99-1.52s-1.33-1.03-1.87-1.67-1-1.35-1.42-2.07-.53-1.58-.82-2.37-.53-1.54-.68-2.37c-.14-.81-.6-1.61-.6-2.46s.1-1.72,.24-2.53,.81-1.51,1.09-2.29,.46-1.6,.87-2.32,1-1.31,1.53-1.95,.88-1.47,1.52-2.01,1.44-.87,2.16-1.29c.72-.42,1.38-1,2.17-1.28s1.6-.59,2.43-.74,1.69,.08,2.54,.08,1.69,.02,2.5,.17,1.57,.58,2.34,.86c.79,.29,1.65,.4,2.37,.81s1.54,.76,2.18,1.29,1.16,1.24,1.7,1.88,1.01,1.35,1.43,2.08,.55,1.57,.84,2.37,.51,1.56,.66,2.39,.58,1.62,.58,2.47Z"/><path class="cls-2" d="M145.44,130.05c0,.85-.02,1.72-.16,2.53s-.44,1.66-.72,2.43-.66,1.57-1.07,2.29-.85,1.49-1.39,2.13c-.54,.64-1.29,1.1-1.93,1.64s-1.37,.95-2.1,1.37-1.38,1-2.18,1.29-1.64,.4-2.47,.55-1.66,.14-2.51,.14-1.73,.16-2.54,.02-1.55-.75-2.32-1.03-1.59-.52-2.31-.94-1.59-.68-2.23-1.22-.95-1.42-1.49-2.06-1.16-1.21-1.58-1.94c-.42-.72-.82-1.46-1.11-2.25s-.21-1.65-.35-2.48-.3-1.61-.3-2.46-.14-1.7,0-2.51,.59-1.58,.87-2.35,.35-1.69,.77-2.41,1.09-1.29,1.63-1.93,1.13-1.22,1.77-1.76c.64-.54,1.16-1.27,1.89-1.69s1.5-.82,2.29-1.11,1.67-.29,2.5-.44,1.65-.22,2.5-.22,1.64,.37,2.45,.51,1.62,.29,2.4,.57,1.47,.73,2.18,1.14,1.54,.67,2.17,1.21,1.06,1.26,1.6,1.9,1.42,1.04,1.84,1.77,.68,1.56,.97,2.35,.29,1.64,.44,2.48,.47,1.63,.47,2.48Z"/><polygon class="cls-3" points="125.17 120.99 124.2 121.05 123.33 120.88 122.47 120.89 121.6 120.67 120.73 120.72 119.98 120.68 119.87 120.22 120.72 120.38 121.59 120.03 122.46 120.11 123.33 120.27 124.2 120.18 125.04 120.24 125.17 120.99"/><polygon class="cls-3" points="134.19 127.77 133.22 127.83 132.36 127.67 131.49 127.67 130.62 127.46 129.75 127.51 129 127.47 128.89 127.01 129.75 127.17 130.61 126.81 131.48 126.9 132.35 127.06 133.22 126.96 134.06 127.03 134.19 127.77"/><polygon class="cls-3" points="144.03 133.85 143.06 133.91 142.19 133.75 141.33 133.76 140.46 133.54 139.59 133.59 138.84 133.55 138.73 133.09 139.58 133.25 140.45 132.89 141.32 132.98 142.19 133.14 143.06 133.04 143.9 133.11 144.03 133.85"/><polygon class="cls-3" points="125.17 133.85 124.2 133.91 123.33 133.75 122.47 133.76 121.6 133.54 120.73 133.59 119.98 133.55 119.87 133.09 120.72 133.25 121.59 132.89 122.46 132.98 123.33 133.14 124.2 133.04 125.04 133.11 125.17 133.85"/><polygon class="cls-3" points="132.34 140.32 131.37 140.38 130.5 140.22 129.63 140.22 128.76 140 127.89 140.05 127.15 140.01 127.04 139.55 127.89 139.71 128.76 139.36 129.63 139.44 130.49 139.6 131.37 139.51 132.21 139.58 132.34 140.32"/></g><g><path class="cls-3" d="M162.83,121.32c0,1.03-.05,2.1-.22,3.07s-.71,1.95-1.05,2.89-.78,1.89-1.28,2.76-1.37,1.48-2.02,2.26-1.28,1.52-2.05,2.17-1.64,1.09-2.52,1.6-1.63,1.2-2.58,1.55-1.96,.35-2.96,.53c-.98,.17-1.94,.85-2.97,.85s-2.06-.23-3.04-.41-1.92-.7-2.86-1.04-1.94-.64-2.81-1.14c-.88-.51-1.63-1.19-2.4-1.84-.77-.65-1.61-1.25-2.26-2.02s-1.22-1.63-1.72-2.51-.64-1.91-.99-2.86-.65-1.87-.82-2.87c-.17-.98-.72-1.95-.72-2.98s.12-2.08,.29-3.06,.98-1.83,1.32-2.77,.55-1.94,1.06-2.81,1.21-1.59,1.86-2.36,1.07-1.78,1.84-2.43c.77-.65,1.74-1.05,2.62-1.56s1.68-1.21,2.63-1.55,1.94-.72,2.95-.89,2.05,.1,3.07,.1,2.04,.03,3.02,.2c1.01,.18,1.89,.7,2.83,1.05,.96,.35,1.99,.48,2.86,.99s1.87,.92,2.64,1.57c.77,.65,1.41,1.5,2.06,2.28,.65,.77,1.22,1.64,1.73,2.52s.67,1.91,1.02,2.86,.62,1.88,.8,2.89,.7,1.96,.7,2.99Z"/><path class="cls-2" d="M164.38,122.95c0,1.03-.02,2.09-.19,3.07s-.53,2-.88,2.94-.79,1.9-1.3,2.77c-.51,.88-1.03,1.8-1.68,2.57-.65,.77-1.57,1.34-2.34,1.99-.77,.65-1.66,1.15-2.54,1.65s-1.68,1.21-2.63,1.56-1.98,.49-2.99,.66-2.01,.16-3.04,.16-2.09,.19-3.07,.02-1.87-.9-2.81-1.24c-.96-.35-1.92-.63-2.79-1.14-.88-.51-1.92-.83-2.69-1.48-.77-.65-1.15-1.72-1.81-2.49s-1.4-1.47-1.91-2.35-1-1.77-1.35-2.73-.25-2-.43-3.01c-.17-.98-.36-1.94-.36-2.97s-.17-2.05,0-3.03,.71-1.91,1.05-2.85c.35-.96,.43-2.04,.93-2.91s1.32-1.56,1.97-2.33,1.36-1.48,2.14-2.13c.77-.65,1.41-1.54,2.28-2.05s1.82-1,2.77-1.35,2.02-.35,3.03-.53,2-.27,3.03-.27,1.99,.45,2.97,.62,1.96,.35,2.9,.69,1.77,.88,2.64,1.38,1.86,.82,2.63,1.46,1.29,1.53,1.94,2.3,1.72,1.26,2.22,2.14c.5,.87,.82,1.88,1.17,2.84s.35,1.99,.53,3,.57,1.97,.57,3Z"/><polygon class="cls-3" points="139.85 111.98 138.68 112.06 137.63 111.86 136.58 111.86 135.53 111.6 134.47 111.66 133.57 111.61 133.43 111.06 134.47 111.25 135.52 110.82 136.57 110.92 137.62 111.11 138.67 111 139.69 111.08 139.85 111.98"/><polygon class="cls-3" points="150.77 120.19 149.59 120.27 148.54 120.07 147.5 120.07 146.44 119.81 145.39 119.87 144.49 119.82 144.35 119.27 145.39 119.46 146.44 119.03 147.49 119.13 148.54 119.33 149.59 119.21 150.61 119.29 150.77 120.19"/><polygon class="cls-3" points="162.67 127.55 161.5 127.63 160.45 127.43 159.4 127.43 158.35 127.17 157.29 127.23 156.39 127.18 156.25 126.63 157.29 126.82 158.34 126.39 159.39 126.49 160.44 126.68 161.49 126.57 162.51 126.65 162.67 127.55"/><polygon class="cls-3" points="139.85 127.55 138.68 127.63 137.63 127.43 136.58 127.43 135.53 127.17 134.47 127.23 133.57 127.18 133.43 126.63 134.47 126.82 135.52 126.39 136.57 126.49 137.62 126.68 138.67 126.57 139.69 126.65 139.85 127.55"/><polygon class="cls-3" points="148.52 135.37 147.35 135.45 146.3 135.25 145.25 135.26 144.2 134.99 143.15 135.05 142.24 135 142.11 134.45 143.14 134.64 144.19 134.21 145.24 134.32 146.29 134.51 147.35 134.39 148.36 134.48 148.52 135.37"/></g><g><path class="cls-3" d="M203.41,104.5c-1.74-.43-1.85,0-3.58-.43s-1.71-.55-3.45-.98c-1.74-.43-1.66-.74-3.4-1.17s-1.82-.1-3.56-.53c-1.74-.43-1.62-.89-3.36-1.33-1.74-.43-1.82-.1-3.56-.53s-1.74-.42-3.48-.85c-1.74-.43-1.63-.87-3.37-1.3s-1.73-.49-3.47-.92c-1.74-.43-1.82-.11-3.56-.54-1.77-.44-3.66,.69-4.09,2.46-.42,1.68,.01,1.79-.41,3.47s-.52,1.66-.94,3.34-.26,1.72-.68,3.41-.79,1.59-1.21,3.28c-.42,1.68-.11,1.76-.53,3.45s-1.12,1.51-1.54,3.19-.25,1.73-.67,3.41c-.42,1.69-.1,1.76-.52,3.45-.42,1.69-.6,1.64-1.02,3.33-.42,1.69-.27,1.73-.68,3.41-.44,1.77,.52,3.64,2.29,4.08s1.75,.4,3.48,.83c1.74,.43,1.83,.05,3.57,.48s1.72,.49,3.46,.93,1.6,.98,3.34,1.42c1.74,.43,1.75,.41,3.49,.84s1.91-.24,3.64,.19,1.67,.71,3.41,1.14c1.74,.43,1.79,.24,3.53,.67,1.74,.43,1.62,.93,3.36,1.36s1.81,.16,3.55,.59c1.77,.44,3.8-.49,4.24-2.26,.42-1.68,.54-1.65,.96-3.34,.42-1.68-.01-1.79,.41-3.47s.49-1.67,.91-3.35,.09-1.77,.5-3.45,.8-1.59,1.22-3.28c.42-1.68,.7-1.62,1.11-3.3s.23-1.73,.65-3.41c.42-1.69,.38-1.7,.8-3.38s.07-1.77,.49-3.46,.45-1.68,.87-3.37c.44-1.77-.43-3.64-2.2-4.08Z"/><path class="cls-2" d="M204.65,102.83c-1.86-.46-1.96-.04-3.82-.5s-1.83-.58-3.69-1.04-1.79-.76-3.65-1.22-1.94-.14-3.8-.6c-1.86-.46-1.75-.91-3.61-1.37-1.86-.46-1.94-.14-3.8-.6-1.86-.46-1.86-.45-3.73-.91-1.86-.46-1.76-.88-3.62-1.35-1.86-.46-1.85-.51-3.71-.98-1.77-.44-3.72,1.01-4.16,2.77-.46,1.86-.47,1.86-.93,3.72-.46,1.86-.05,1.96-.51,3.82-.46,1.86-.56,1.84-1.02,3.7-.46,1.86-.31,1.9-.77,3.76s-.82,1.77-1.28,3.63-.16,1.93-.63,3.79-1.14,1.69-1.6,3.55c-.46,1.86-.3,1.9-.76,3.77-.46,1.86-.16,1.94-.62,3.8-.44,1.77,.5,3.58,2.27,4.02,1.86,.46,1.9,.31,3.76,.77,1.86,.46,1.81,.66,3.67,1.12,1.86,.46,1.87,.43,3.73,.89s1.95,.1,3.81,.56,1.85,.52,3.71,.98c1.86,.46,1.73,1,3.59,1.46s1.87,.44,3.73,.9c1.86,.46,2.02-.19,3.89,.27,1.86,.46,1.8,.73,3.66,1.19,1.77,.44,3.23-.61,3.67-2.37,.46-1.86,.94-1.74,1.4-3.6s.2-1.93,.66-3.79c.46-1.86,.8-1.78,1.26-3.64s.58-1.83,1.04-3.69c.46-1.86,.05-1.96,.51-3.83,.46-1.86,.53-1.84,.99-3.7s.14-1.94,.6-3.8c.46-1.86,.83-1.77,1.29-3.63,.46-1.86,.73-1.8,1.19-3.66,.44-1.77-.96-3.76-2.72-4.2Z"/><polygon class="cls-3" points="165.37 129.95 164.05 129.53 162.78 129.45 161.58 129.15 160.3 129.15 159.11 128.78 158.05 128.58 157.74 129.18 158.98 129.26 160.07 130.05 161.3 130.23 162.56 130.31 163.74 130.74 164.93 130.93 165.37 129.95"/><polygon class="cls-3" points="176.93 121.8 175.61 121.38 174.34 121.31 173.14 121 171.86 121.01 170.67 120.64 169.61 120.44 169.3 121.04 170.54 121.11 171.63 121.9 172.86 122.08 174.12 122.16 175.3 122.59 176.49 122.79 176.93 121.8"/><polygon class="cls-3" points="190.45 115.48 189.12 115.06 187.86 114.99 186.66 114.68 185.38 114.69 184.18 114.32 183.13 114.12 182.82 114.71 184.06 114.79 185.15 115.58 186.38 115.76 187.64 115.84 188.82 116.27 190.01 116.47 190.45 115.48"/><polygon class="cls-3" points="202.64 108.96 201.32 108.54 200.05 108.47 198.85 108.17 197.57 108.17 196.38 107.8 195.32 107.6 195.01 108.2 196.25 108.27 197.34 109.07 198.57 109.25 199.83 109.33 201.01 109.76 202.2 109.95 202.64 108.96"/><polygon class="cls-3" points="173.78 101.81 172.46 101.39 171.2 101.31 169.99 101.01 168.71 101.01 167.52 100.64 166.46 100.44 166.15 101.04 167.4 101.12 168.48 101.91 169.71 102.09 170.98 102.17 172.15 102.6 173.35 102.79 173.78 101.81"/><polygon class="cls-3" points="195.02 139.7 193.69 139.29 192.43 139.21 191.23 138.91 189.94 138.91 188.75 138.54 187.7 138.34 187.38 138.94 188.63 139.01 189.71 139.81 190.95 139.99 192.21 140.07 193.39 140.5 194.58 140.69 195.02 139.7"/></g><rect class="cls-4" x="-.36" y="127.06" width="230.73" height="21" rx="7.64" ry="7.64"/><rect class="cls-5" x="113.06" y="157.51" width="32.91" height="6.39" rx="3.19" ry="3.19"/><rect class="cls-5" x="153.83" y="172.54" width="32.91" height="6.39" rx="3.19" ry="3.19"/><rect class="cls-5" x="80.29" y="172.14" width="32.91" height="6.39" rx="3.19" ry="3.19"/><rect class="cls-5" x="33.95" y="157.51" width="32.91" height="6.39" rx="3.19" ry="3.19"/><rect class="cls-5" x="82.22" y="141.67" width="123.8" height="6.39" rx="3.19" ry="3.19"/><rect class="cls-5" x="47.63" y="186.27" width="32.91" height="6.39" rx="3.19" ry="3.19"/><g><g><path class="cls-2" d="M181.27,202.69c0,2.47-.84,4.62-.93,6.51-.12,2.61,.17,4.95-.53,6.63-.83,1.98-3.15,2.31-5.5,3.3-1.61,.67-3.22,2.83-5.86,3.17-1.86,.24-4.09,.11-6.57,.22-1.96,.09-4.14-.16-6.53-.13-2.01,.03-4.18-.47-6.52-.47s-4.51,.55-6.52,.52c-2.39-.03-4.58,.17-6.53,.08-2.48-.11-4.58-1.01-6.45-1.25-2.64-.34-5.08,.2-6.69-.47-2.35-.99-3.04-3.38-3.86-5.36-.7-1.68-.13-3.68-.25-6.29-.09-1.89-.3-3.99-.3-6.46s-1.27-4.89-.76-7.16,1.75-4.51,2.76-6.61,3.16-3.5,4.63-5.34c1.48-1.85,2.97-3.43,4.82-4.9s3.61-2.78,5.75-3.81c2.11-1.02,4.24-1.54,6.58-2.07s4.41-.98,6.83-.98,4.88-.93,7.14-.41c2.34,.53,4.74,1.22,6.85,2.24s3.36,3.51,5.2,4.98c1.85,1.48,4.01,2.54,5.49,4.39s3.82,3.32,4.85,5.46c1.02,2.11,1.73,4.63,2.26,6.97s.66,4.84,.66,7.26Z"/><path class="cls-3" d="M180.26,213.51c-.06,.87-.17,1.65-.45,2.32-.83,1.98-3.15,2.31-5.51,3.29-1.61,.67-3.22,2.83-5.86,3.17-1.86,.23-4.08,.11-6.57,.22-1.95,.09-4.14-.16-6.53-.13-2.01,.03-4.18-.47-6.53-.47s-4.51,.55-6.52,.52c-2.39-.03-4.57,.17-6.54,.08-2.47-.11-4.57-1.01-6.44-1.24-2.64-.34-5.07,.2-6.69-.48-2.35-.98-3.04-3.37-3.86-5.36-.16-.39-.26-.8-.3-1.23,.64,1.4,1.49,2.7,3.1,3.37,1.68,.7,4.22,.14,6.96,.49,1.94,.25,4.12,1.18,6.7,1.3,2.03,.1,4.3-.12,6.79-.08,2.09,.03,4.35-.55,6.78-.55s4.7,.52,6.79,.49c2.48-.04,4.76,.22,6.79,.13,2.58-.12,4.89,0,6.83-.23,2.74-.36,4.42-2.59,6.09-3.29,1.94-.8,3.83-1.18,4.97-2.32Z"/><polygon class="cls-3" points="118.59 208.88 119.91 208.61 121 208.08 122.15 207.77 123.23 207.17 124.41 206.92 125.39 206.6 125.37 205.95 124.29 206.47 123.01 206.31 121.88 206.74 120.79 207.26 119.59 207.45 118.5 207.85 118.59 208.88"/><polygon class="cls-3" points="123.81 187 125.5 187.64 127.14 187.83 128.68 188.31 130.35 188.4 131.87 188.97 133.22 189.3 133.67 188.55 132.06 188.36 130.71 187.25 129.12 186.93 127.48 186.74 125.98 186.09 124.45 185.75 123.81 187"/><polygon class="cls-3" points="171.64 183.81 170.19 183.72 168.9 183.96 167.6 183.95 166.3 184.28 165 184.2 163.88 184.26 163.71 184.95 164.99 184.71 166.29 185.24 167.59 185.12 168.89 184.88 170.19 185.02 171.45 184.92 171.64 183.81"/><polygon class="cls-3" points="135.02 217.07 133.68 217.11 132.51 217.45 131.32 217.55 130.16 217.96 128.96 218 127.94 218.16 127.84 218.8 129 218.47 130.23 218.85 131.41 218.62 132.58 218.29 133.79 218.31 134.94 218.11 135.02 217.07"/><polygon class="cls-3" points="133.67 177.94 135.63 178.17 137.41 177.93 139.16 178.03 140.94 177.68 142.7 177.88 144.22 177.87 144.5 176.96 142.74 177.19 141.02 176.37 139.26 176.45 137.48 176.68 135.73 176.4 134.02 176.45 133.67 177.94"/><polygon class="cls-3" points="142.52 196.29 144.34 196.5 145.99 196.28 147.63 196.38 149.29 196.05 150.93 196.23 152.34 196.23 152.6 195.38 150.97 195.59 149.37 194.83 147.72 194.91 146.07 195.12 144.43 194.86 142.84 194.9 142.52 196.29"/><polygon class="cls-3" points="160.69 191.7 159.42 191.55 158.27 191.7 157.13 191.64 155.97 191.86 154.83 191.74 153.84 191.74 153.66 192.34 154.8 192.19 155.92 192.71 157.06 192.66 158.22 192.51 159.36 192.7 160.47 192.67 160.69 191.7"/><polygon class="cls-3" points="140.71 203.02 139.43 203.17 138.28 203.01 137.14 203.08 135.98 202.85 134.84 202.98 133.85 202.98 133.67 202.38 134.81 202.53 135.93 202 137.07 202.05 138.23 202.2 139.37 202.02 140.48 202.05 140.71 203.02"/><polygon class="cls-3" points="156.15 202.92 157.98 203.14 159.63 202.91 161.26 203.01 162.93 202.68 164.56 202.87 165.98 202.86 166.23 202.01 164.6 202.22 163 201.47 161.36 201.54 159.7 201.75 158.07 201.49 156.47 201.53 156.15 202.92"/><polygon class="cls-3" points="178.5 210.4 176.54 210.19 174.76 210.43 173.01 210.34 171.23 210.7 169.47 210.51 167.95 210.52 167.68 211.44 169.43 211.2 171.15 212 172.92 211.91 174.69 211.68 176.45 211.95 178.16 211.9 178.5 210.4"/></g><path class="cls-1" d="M137.84,173.89c-1.55,.92-2.96,1.98-4.41,3.14-2.01,1.62-3.63,3.33-5.25,5.35-1.6,2-3.92,3.49-5.05,5.82-1.11,2.3-2.43,4.66-3.01,7.21-.56,2.46,.83,5.16,.83,7.8s.23,4.98,.33,7.04c.13,2.84-.49,5.03,.27,6.86,.54,1.29,1.02,2.74,1.87,3.93-.29-.06-.55-.13-.8-.24-2.35-.98-3.04-3.37-3.86-5.36-.7-1.68-.13-3.68-.25-6.29-.1-1.89-.3-3.99-.3-6.45s-1.27-4.89-.76-7.15c.53-2.34,1.75-4.51,2.76-6.61,1.04-2.15,3.16-3.5,4.63-5.34,1.48-1.85,2.97-3.43,4.81-4.91,1.84-1.46,3.61-2.77,5.75-3.81,.8-.39,1.61-.7,2.44-.96Z"/></g><g><g><path class="cls-2" d="M200.51,215.03c0,1.86-.64,3.49-.7,4.91-.09,1.97,.13,3.73-.4,5-.62,1.5-2.37,1.74-4.15,2.49-1.22,.51-2.43,2.13-4.42,2.39-1.4,.18-3.09,.08-4.95,.17-1.48,.07-3.12-.12-4.93-.1-1.51,.02-3.15-.35-4.92-.35s-3.4,.41-4.92,.39c-1.8-.02-3.45,.13-4.93,.06-1.87-.09-3.46-.76-4.86-.94-1.99-.25-3.83,.15-5.05-.36-1.77-.74-2.29-2.55-2.92-4.04-.53-1.27-.09-2.77-.19-4.74-.07-1.42-.23-3.01-.23-4.87s-.96-3.69-.57-5.4c.4-1.76,1.32-3.4,2.08-4.99s2.38-2.64,3.49-4.03c1.11-1.4,2.24-2.59,3.63-3.7,1.39-1.11,2.72-2.1,4.34-2.88s3.2-1.16,4.96-1.56,3.32-.74,5.15-.74,3.68-.7,5.39-.31c1.76,.4,3.58,.92,5.17,1.69,1.62,.78,2.54,2.65,3.93,3.76s3.02,1.92,4.14,3.31,2.88,2.5,3.66,4.12,1.3,3.49,1.7,5.25,.5,3.65,.5,5.47Z"/><path class="cls-3" d="M199.75,223.19c-.04,.65-.13,1.24-.34,1.75-.62,1.5-2.37,1.74-4.15,2.48-1.21,.51-2.43,2.13-4.42,2.39-1.4,.17-3.08,.08-4.95,.17-1.47,.07-3.12-.12-4.92-.09-1.52,.02-3.15-.36-4.92-.36s-3.4,.41-4.92,.39c-1.8-.02-3.45,.13-4.93,.06-1.87-.08-3.45-.76-4.86-.94-1.99-.25-3.83,.15-5.05-.36-1.77-.74-2.29-2.54-2.91-4.05-.12-.3-.2-.6-.23-.93,.48,1.05,1.13,2.03,2.34,2.54,1.26,.53,3.18,.11,5.25,.37,1.46,.19,3.11,.89,5.05,.98,1.53,.07,3.25-.09,5.12-.06,1.58,.02,3.28-.41,5.11-.41s3.54,.39,5.12,.37c1.87-.03,3.59,.17,5.12,.1,1.95-.09,3.69,0,5.15-.17,2.07-.27,3.33-1.95,4.6-2.48,1.46-.6,2.89-.89,3.75-1.75Z"/><polygon class="cls-3" points="153.24 219.7 154.23 219.49 155.06 219.09 155.93 218.86 156.74 218.41 157.63 218.22 158.37 217.97 158.35 217.48 157.54 217.88 156.57 217.76 155.73 218.08 154.9 218.48 154 218.62 153.17 218.92 153.24 219.7"/><polygon class="cls-3" points="157.18 203.19 158.45 203.68 159.69 203.82 160.85 204.18 162.11 204.25 163.26 204.68 164.28 204.93 164.62 204.36 163.4 204.22 162.38 203.38 161.18 203.14 159.95 202.99 158.82 202.51 157.66 202.25 157.18 203.19"/><polygon class="cls-3" points="193.26 200.79 192.16 200.72 191.18 200.9 190.21 200.9 189.23 201.14 188.24 201.08 187.4 201.13 187.28 201.65 188.24 201.47 189.22 201.87 190.2 201.77 191.18 201.59 192.16 201.7 193.11 201.62 193.26 200.79"/><polygon class="cls-3" points="165.64 225.88 164.63 225.91 163.74 226.16 162.84 226.24 161.97 226.55 161.06 226.58 160.29 226.69 160.22 227.18 161.09 226.93 162.02 227.22 162.91 227.04 163.8 226.8 164.71 226.81 165.57 226.66 165.64 225.88"/><polygon class="cls-3" points="164.62 196.36 166.09 196.53 167.43 196.35 168.76 196.43 170.1 196.16 171.43 196.31 172.57 196.31 172.78 195.62 171.46 195.79 170.16 195.18 168.83 195.24 167.49 195.41 166.17 195.2 164.88 195.23 164.62 196.36"/><polygon class="cls-3" points="171.29 210.2 172.66 210.36 173.91 210.19 175.14 210.26 176.4 210.02 177.63 210.16 178.7 210.16 178.89 209.51 177.66 209.67 176.45 209.1 175.21 209.16 173.96 209.32 172.73 209.12 171.53 209.15 171.29 210.2"/><polygon class="cls-3" points="185 206.74 184.04 206.62 183.17 206.74 182.31 206.69 181.43 206.86 180.57 206.77 179.83 206.77 179.69 207.22 180.55 207.1 181.39 207.5 182.26 207.46 183.13 207.35 183.99 207.49 184.83 207.47 185 206.74"/><polygon class="cls-3" points="169.92 215.28 168.96 215.39 168.09 215.27 167.23 215.32 166.36 215.15 165.5 215.25 164.75 215.24 164.62 214.79 165.47 214.91 166.32 214.51 167.18 214.55 168.05 214.66 168.91 214.52 169.75 214.54 169.92 215.28"/><polygon class="cls-3" points="181.57 215.2 182.95 215.36 184.19 215.2 185.43 215.27 186.68 215.02 187.92 215.16 188.98 215.16 189.18 214.51 187.95 214.68 186.74 214.1 185.5 214.16 184.25 214.32 183.02 214.12 181.81 214.16 181.57 215.2"/><polygon class="cls-3" points="198.43 220.85 196.95 220.68 195.61 220.87 194.29 220.8 192.94 221.07 191.62 220.93 190.47 220.93 190.27 221.63 191.59 221.45 192.89 222.05 194.22 221.99 195.56 221.81 196.88 222.01 198.17 221.97 198.43 220.85"/></g><path class="cls-1" d="M167.76,193.31c-1.17,.7-2.23,1.5-3.33,2.37-1.52,1.22-2.74,2.51-3.96,4.04-1.21,1.51-2.96,2.63-3.81,4.39-.84,1.74-1.83,3.51-2.27,5.44-.42,1.86,.62,3.89,.62,5.88s.17,3.75,.25,5.31c.1,2.14-.37,3.79,.2,5.17,.41,.97,.77,2.07,1.41,2.96-.22-.04-.41-.1-.6-.18-1.77-.74-2.29-2.54-2.91-4.05-.53-1.26-.09-2.77-.19-4.74-.07-1.42-.23-3.01-.23-4.87s-.96-3.69-.57-5.4c.4-1.76,1.32-3.4,2.08-4.99,.78-1.62,2.38-2.64,3.49-4.03,1.12-1.39,2.24-2.59,3.63-3.7,1.39-1.1,2.72-2.09,4.34-2.88,.6-.29,1.21-.53,1.84-.73Z"/></g></g></svg>