<svg width="16" height="16" viewBox="0 0 16 16" fill="none" xmlns="http://www.w3.org/2000/svg">
<g clip-path="url(#clip0_516_8289)">
<path d="M2.53795 15.9999H2.18112C0.979394 15.9999 0.000976562 15.0215 0.000976562 13.8198V12.0034C0.000976562 10.8017 0.979394 9.82324 2.18112 9.82324H2.53795C3.73968 9.82324 4.7181 10.8017 4.7181 12.0034V13.8198C4.7181 15.0215 3.73968 15.9999 2.53795 15.9999Z" fill="#F96163"/>
<path d="M8.17834 16H7.8215C6.61977 16 5.64136 15.0216 5.64136 13.8199V7.09299C5.64136 5.89126 6.61977 4.91284 7.8215 4.91284H8.17834C9.38006 4.91284 10.3585 5.89126 10.3585 7.09299V13.8176C10.3585 15.0193 9.38006 15.9977 8.17834 15.9977V16Z" fill="#F96163"/>
<path d="M13.8185 16H13.4616C12.2599 16 11.2815 15.0216 11.2815 13.8199V2.18014C11.2815 0.978417 12.2599 0 13.4616 0H13.8185C15.0202 0 15.9986 0.978417 15.9986 2.18014V13.8199C15.9986 15.0216 15.0202 16 13.8185 16Z" fill="#F96163"/>
</g>
<defs>
<clipPath id="clip0_516_8289">
<rect width="16" height="16" fill="white"/>
</clipPath>
</defs>
</svg>
