<svg width="16" height="16" viewBox="0 0 16 16" fill="none" xmlns="http://www.w3.org/2000/svg">
<g clip-path="url(#clip0_516_10366)">
<path d="M10.6798 5.5349C11.1577 4.93508 11.4186 4.19384 11.4186 3.41847C11.4186 1.53368 9.88496 0 8.00017 0C6.11538 0 4.5817 1.53368 4.5817 3.41847C4.5817 4.19384 4.84016 4.93264 5.31806 5.5349C2.6579 6.62237 0.897461 9.22645 0.897461 12.1231C0.897461 13.0497 1.4095 13.9299 2.2312 14.4176C3.97213 15.4538 5.96665 16 8.00017 16C10.0337 16 12.0282 15.4538 13.7691 14.4176C14.5908 13.9299 15.1004 13.0497 15.1029 12.1109C15.1029 9.22158 13.34 6.62237 10.6798 5.5349ZM8.00017 14.1713C6.29581 14.1713 4.62315 13.7129 3.16506 12.8473C2.89441 12.6864 2.72617 12.4035 2.72617 12.1109C2.72617 9.20451 5.0913 6.83694 8.00017 6.83694C10.909 6.83694 13.2742 9.20451 13.2742 12.1207C13.2742 12.4084 13.1035 12.6864 12.8328 12.8473C11.3748 13.7129 9.70453 14.1713 8.00017 14.1713ZM8.00017 1.58488C9.00962 1.58488 9.83376 2.40902 9.83376 3.41847C9.83376 4.42792 9.00962 5.25206 8.00017 5.25206C6.99072 5.25206 6.16659 4.43036 6.16659 3.41847C6.16659 2.40658 6.98829 1.58488 8.00017 1.58488Z" fill="#F96163"/>
</g>
<defs>
<clipPath id="clip0_516_10366">
<rect width="16" height="16" fill="white"/>
</clipPath>
</defs>
</svg>
