<?xml version="1.0" encoding="UTF-8"?><svg id="Camada_1" xmlns="http://www.w3.org/2000/svg" viewBox="0 0 230 230"><defs><style>.cls-1,.cls-2,.cls-3{opacity:.1;}.cls-1,.cls-4{fill:#dedede;}.cls-2,.cls-5,.cls-6{fill:#fff;}.cls-7{fill:#e8bfc2;}.cls-8{fill:#e6cacc;}.cls-9{fill:#bfd9d3;}.cls-10{fill:#ccafaf;}.cls-11{fill:#cca7aa;}.cls-12{fill:#cfe6e1;}.cls-13{fill:#c3d9d4;}.cls-14{fill:#c49799;}.cls-15{fill:#d9c3c4;}.cls-16{fill:#b0777d;}.cls-17{fill:#d6a9ac;}.cls-18{fill:#232626;}.cls-19{fill:#94a6a6;}.cls-20{fill:#95c7de;}.cls-21{fill:#9c3d65;}.cls-5{opacity:.2;}.cls-22{fill:#db568d;}.cls-22,.cls-6{opacity:.3;}.cls-4{opacity:.4;}</style></defs><g><polygon class="cls-8" points="0 140.35 230 42.88 230 230 0 230 0 140.35"/><polygon class="cls-17" points="0 148.82 230 51.42 230 230 0 230 0 148.82"/><polygon class="cls-8" points="0 157.57 230 60.7 230 230 0 230 0 157.57"/><polygon class="cls-17" points="0 207.6 230 110.73 230 230 0 230 0 207.6"/><polygon class="cls-8" points="0 217.6 230 120.74 230 230 0 230 0 217.6"/><polygon class="cls-17" points="230 167.95 230 230 91.66 230 230 167.95"/><polygon class="cls-8" points="230 179.05 230 230 114.78 230 230 179.05"/></g><g><path class="cls-3" d="M42.94,131.74s2.55,35.01,10.72,44.4c8.17,9.39,28.63,28.41,68.64,28.39,33.69-.02,53.64-16.68,57.13-20.53,7.89-8.7,1.35-32.89,3.26-55.02l-139.75,2.77Z"/><path class="cls-14" d="M34.01,125.54s2.68,36.7,11.24,46.54c8.56,9.84,21.19,26.13,63.13,26.11,35.32-.02,60.75-16.72,64.41-20.76,8.27-9.12,10.74-27.42,12.75-50.63l-151.53-1.27Z"/><ellipse class="cls-16" cx="110.45" cy="106.41" rx="86.74" ry="45.23"/><ellipse class="cls-11" cx="110.45" cy="104.15" rx="86.74" ry="45.23"/><path class="cls-7" d="M28.03,104.15c.52-17.83,17.96-28.88,32.78-35.1,35.54-14.34,91.08-13.15,120.98,13,6.14,5.58,11.43,13.68,10.99,22.09-.82-17.66-18.15-28.44-32.94-34.47-30.68-11.98-68.14-12.16-98.86-.21-14.93,6.04-32.11,17.11-32.95,34.68h0Z"/><path class="cls-15" d="M187.54,112.91c-8.82,17.39-39.99,30.25-77.08,30.25s-68.26-12.85-77.08-30.25c8.82-17.39,39.99-30.25,77.08-30.25s68.26,12.85,77.08,30.25Z"/><ellipse class="cls-15" cx="110.45" cy="102.84" rx="79.59" ry="40.31"/><path class="cls-15" d="M190.04,102.84c0,4.92-1.74,9.63-4.93,13.99h0c-2.44,3.34-5.72,6.46-9.71,9.31-6.67,4.76-15.33,8.76-25.37,11.68-8.05,2.35-16.99,3.99-26.49,4.79h-.02c-.92,.08-1.84,.14-2.77,.2-.31,.03-.61,.05-.92,.06-1.73,.11-3.48,.18-5.25,.23h-.11c-.66,.02-1.31,.03-1.98,.04-.68,0-1.37,.02-2.05,.02s-1.37,0-2.05-.02c-.66,0-1.32-.02-1.98-.04-.04,0-.08,0-.11,0-12.62-.32-24.46-2.14-34.85-5.11-9.93-2.83-18.54-6.71-25.24-11.34-4-2.76-7.32-5.79-9.84-9.03,0,0,0-.02-.02-.02-3.55-4.57-5.51-9.55-5.51-14.76,0-22.26,35.63-40.31,79.59-40.31s79.59,18.05,79.59,40.31Z"/><path class="cls-10" d="M187.54,112.91c-8.82,17.39-39.99,27.98-77.08,27.98s-68.26-10.59-77.08-27.98c7.36-21.62,39.99-32.51,77.08-32.51s68.83,11.76,77.08,32.51Z"/><path class="cls-21" d="M187.54,112.91c-8.82,17.39-39.99,30.25-77.08,30.25s-68.26-12.85-77.08-30.25c8.82-17.39,39.99-30.25,77.08-30.25s68.26,12.85,77.08,30.25Z"/><path class="cls-22" d="M185.12,116.83h0c-9.77,13.37-33.12,23.4-61.57,25.78h-.02c-.92,.08-7.17,.44-8.94,.49h-8.28c-31.86-.83-58.77-11.15-69.93-25.48,0,0,0-.02-.02-.02,7.97-15.7,40.59-28.83,74.08-28.83s66.69,12.36,74.66,28.06Z"/><path class="cls-22" d="M175.4,126.14c-12.02,8.58-30.5,14.68-51.85,16.47h-.02c-.92,.08-1.84,.14-2.77,.2-.31,.03-.61,.05-.92,.06-1.73,.11-3.48,.18-5.25,.23h-.11c-.66,.02-1.31,.03-1.98,.04-.68,0-1.37,.02-2.05,.02s-1.37,0-2.05-.02c-.66,0-1.32-.02-1.98-.04-.04,0-.08,0-.11,0-24.67-.64-46.37-6.98-60.09-16.45,14.04-10.47,38.88-17.99,64.23-17.99s50.78,7.15,64.95,17.48Z"/><path class="cls-22" d="M150.04,137.82c-8.05,2.35-16.99,3.99-26.49,4.79h-.02c-.92,.08-1.84,.14-2.77,.2-.31,.03-.61,.05-.92,.06-1.73,.11-3.48,.18-5.25,.23h-.11c-.66,.02-1.31,.03-1.98,.04-.68,0-1.37,.02-2.05,.02s-1.37,0-2.05-.02c-.66,0-1.32-.02-1.98-.04-.04,0-.08,0-.11,0-12.62-.32-24.46-2.14-34.85-5.11,11.77-3.66,25.31-5.85,38.99-5.85s27.61,2.1,39.58,5.69Z"/></g><g><path class="cls-4" d="M208.96,52.46l11.47-2.62,.18-3.01s-2.2,2.13-3.25,2.35c-4.39,.91-8.4,3.28-8.4,3.28Z"/><g><path class="cls-19" d="M130.93,27.84s12.81,46.03,25.08,53.5c15.77,9.6,54.1-4.47,57.07-15.21,2.47-8.94,1.15-31.27-8.51-57.91l-73.63,19.63Z"/><ellipse class="cls-9" cx="167.75" cy="18.02" rx="38.1" ry="15.64" transform="translate(1.02 43.82) rotate(-14.93)"/><ellipse class="cls-12" cx="167.75" cy="18.02" rx="32.6" ry="13.38" transform="translate(1.02 43.82) rotate(-14.93)"/><path class="cls-13" d="M199.39,10.33c.93,7.06-11.37,16.13-28.2,20.62-14.95,3.99-28.62,3.05-33.36-1.83-.93-7.06,11.37-16.13,28.2-20.62,14.97-3.99,28.62-3.05,33.36,1.83Z"/><path class="cls-13" d="M199.39,10.33c.93,7.06-11.37,16.13-28.2,20.62-14.95,3.99-28.62,3.05-33.36-1.83-.93-7.06,11.37-16.13,28.2-20.62,14.97-3.99,28.62-3.05,33.36,1.83Z"/><path class="cls-20" d="M199.42,10.69c.48,7-11.69,15.85-28.23,20.26-13.88,3.7-26.67,3.15-32.22-.86-.48-7,11.69-15.85,28.23-20.26,13.89-3.7,26.68-3.16,32.22,.86Z"/><path class="cls-20" d="M199.42,10.69c.48,7-11.69,15.85-28.23,20.26-13.88,3.7-26.67,3.15-32.22-.86-.48-7,11.69-15.85,28.23-20.26,13.89-3.7,26.68-3.16,32.22,.86Z"/><path class="cls-20" d="M199.42,10.69c.23,3.47-2.63,7.39-7.6,11-5.06,3.68-12.29,7.04-20.63,9.26-8.03,2.14-15.7,2.87-21.81,2.31-4.45-.4-8.07-1.48-10.41-3.16-.48-7,11.69-15.85,28.23-20.26,13.89-3.7,26.68-3.16,32.22,.86Z"/><path class="cls-2" d="M198.42,14.76c-1.22,2.3-3.49,4.68-6.6,6.93-5.06,3.68-12.29,7.04-20.63,9.26-8.03,2.14-15.7,2.87-21.81,2.31-3.11-.28-5.82-.89-7.96-1.81,3.22-6.07,13.78-12.59,27.23-16.18,12.13-3.23,23.42-3.22,29.77-.51Z"/><path class="cls-2" d="M198.42,14.76c-1.22,2.3-3.49,4.68-6.6,6.93-5.06,3.68-12.29,7.04-20.63,9.26-8.03,2.14-15.7,2.87-21.81,2.31-3.11-.28-5.82-.89-7.96-1.81,3.22-6.07,13.78-12.59,27.23-16.18,12.13-3.23,23.42-3.22,29.77-.51Z"/><path class="cls-18" d="M201.27,23.64l5.53-9,12.11-1.19s18.47,36.64,7.73,43.14c-6.14,3.71-14.84,6.53-14.84,6.53l-2.84-10.67,4.7-4.35,6.94-1.29-6.17-23.69-6.23,.84-6,3.17-.94-3.51Z"/><path class="cls-4" d="M218.91,13.46l-2.61,4.44c1.98-4-3.58-3.73-9.49-3.26l12.11-1.19Z"/><path class="cls-4" d="M226.26,35.74c1.24,3.4,2.87,15.11,3.08,13.74,.8-5.36-4.68-21.57-5.16-22.49-.48-.93,1.57,7.32,2.09,8.75Z"/><path class="cls-6" d="M149.08,36s19.27,27.68,14.65,48.02c1.95,.19,7.46,.94,13.85-.04-8.1-12.14-16.12-48.31-12.48-49.33-6.04,1.04-11.38,1.61-16.02,1.35Z"/><path class="cls-2" d="M142.25,15.43s9.69-7.39,19.78-9.7c0,0-.07,12.57,2.28,18.95s2.28,7.35,2.28,7.35l-9.28,1.28-15.06-17.87Z"/></g><path class="cls-5" d="M194.87,11.9c.23,.88-.63,3.24-3.4,2.6-2.13-.49-4.01,.31-4.24-.57s2.18-2.88,4.29-3.45c2.11-.56,3.12,.53,3.35,1.41Z"/><path class="cls-5" d="M144.34,30.14c0-.91,1.46-2.95,3.97-1.61,1.92,1.03,3.95,.77,3.94,1.67s-2.87,2.2-5.05,2.18-2.86-1.34-2.86-2.25Z"/><polygon class="cls-4" points="208.96 52.46 221.34 49.59 220.61 46.82 213.66 48.11 208.96 52.46"/><path class="cls-1" d="M221.34,49.59c-6.57,2.82-9.22,7.59-9.54,13.53l-2.84-10.67,12.39-2.86Z"/></g><g><path class="cls-3" d="M74.76,118.91c-5.54,1.41-14,2.59-5.02,2.74,8.98,.15,17.96-2.74,17.5-2.74s-9.46-.77-12.48,0Z"/><path class="cls-3" d="M87.98,94.43c-3.34,1.41-8.44,2.59-3.03,2.74,5.41,.15,10.82-2.74,10.55-2.74s-5.7-.77-7.52,0Z"/><path class="cls-3" d="M172.97,113.55c-3.62-.12-8.74-1.19-3.9,1.22s10.97,2.05,10.72,1.94-4.85-3.09-6.83-3.15Z"/><path class="cls-2" d="M113.23,136.35c-3.55,.74-8.78,.91-3.5,2.1s11.15-.6,10.88-.65-5.44-1.86-7.38-1.45Z"/><path class="cls-2" d="M121.74,100.48c-4.24,1.21-9.87,1.24-5.09,3.8,4.78,2.55,12.16-.52,11.91-.64s-4.51-3.82-6.82-3.16Z"/><path class="cls-2" d="M146,120.76c-4.24,1.21-9.87,1.24-5.09,3.8,4.78,2.55,12.16-.52,11.91-.64s-4.51-3.82-6.82-3.16Z"/></g></svg>