<?xml version="1.0" encoding="UTF-8"?><svg id="Camada_1" xmlns="http://www.w3.org/2000/svg" viewBox="0 0 230 230"><defs><style>.cls-1{fill:none;stroke:#cfdbe6;stroke-linecap:round;stroke-linejoin:round;stroke-width:3px;}.cls-2{opacity:.05;}.cls-3{opacity:.1;}.cls-4{fill:#f9f6f9;}.cls-5{fill:#eb9f47;}.cls-6{fill:#f5db9f;}.cls-7{fill:#e8d6a7;}.cls-8{fill:#fff2d1;}.cls-9{fill:#ffc250;}.cls-10{fill:#ffd064;}.cls-11{fill:#e6cd95;}.cls-12,.cls-13{fill:#b57b35;}.cls-14{fill:#667480;}.cls-15{fill:#c7a261;}.cls-16{fill:#cfdbe6;}.cls-17{fill:#cc8a3c;}.cls-18{fill:#d69e3c;}.cls-19{fill:#94a9ba;}.cls-20{fill:#967c4b;}.cls-21{opacity:.8;}.cls-13{fill-rule:evenodd;}</style></defs><path class="cls-13" d="M113.16,.01c35.19,.52,64.41,23.19,86.17,50.18,21.56,26.73,35.54,59.32,29.09,92.75-6.75,34.98-29.1,66.99-62.61,81.04-32.11,13.46-67.69,2.32-98.7-13.4-29.58-14.99-55.25-37.4-63.64-68.88-8.71-32.63-.67-67.22,20.16-94.12C45.18,19.74,77.41-.52,113.16,.01Z"/><g><g><rect class="cls-14" x="-20.51" y="46.69" width="178.15" height="137.14" rx="6.17" ry="6.17" transform="translate(183.83 46.69) rotate(90)"/><rect class="cls-19" x="-8.11" y="58.15" width="153.36" height="114.23" rx="6.17" ry="6.17" transform="translate(183.83 46.69) rotate(90)"/><rect class="cls-16" x="-4.87" y="61.38" width="146.89" height="114.23" rx="6.17" ry="6.17" transform="translate(187.07 49.93) rotate(90)"/><g><path class="cls-14" d="M25.16,32.21L31.93,5.91c.91-3.52,3.55-5.91,6.54-5.91h60.2c2.99,0,5.64,2.39,6.54,5.91l6.77,26.3H25.16Z"/><rect class="cls-16" x="63.42" y="-14.22" width="9.13" height="53.93" rx="4" ry="4" transform="translate(80.73 -55.24) rotate(90)"/></g><g><path class="cls-14" d="M111.98,197.79l-6.77,26.3c-.91,3.52-3.55,5.91-6.54,5.91H38.47c-2.99,0-5.64-2.39-6.54-5.91l-6.77-26.3H111.98Z"/><rect class="cls-16" x="64.59" y="190.29" width="9.13" height="53.93" rx="4" ry="4" transform="translate(-148.1 286.41) rotate(-90)"/></g></g><g><path class="cls-4" d="M177.67,17.13h18.4c1.05,0,1.91,.86,1.91,1.91V61.27c0,1.21-.98,2.19-2.19,2.19h-17.85c-1.21,0-2.19-.98-2.19-2.19V19.04c0-1.05,.86-1.91,1.91-1.91Z"/><rect class="cls-10" x="175.76" y="21.44" width="22.22" height="38.08"/><g><circle class="cls-8" cx="188.48" cy="37.52" r="7.49"/><g><g><path class="cls-10" d="M193.57,34.32c-.14-.27-.27-.07-.57-.12s-.36-.3-.59-.09c-.29,.26-.12,.36-.19,.75s0,.4-.07,.79-.08,.39-.15,.78-.08,.39-.15,.77-.09,.39-.16,.77-.3,.42-.12,.77c.14,.27,.29,.04,.59,.09s.37,.34,.6,.14c.29-.26,.03-.4,.1-.79s.12-.38,.19-.77,.1-.38,.17-.77,.06-.39,.13-.78-.05-.42,.08-.79,.31-.4,.13-.76Z"/><path class="cls-10" d="M191.25,34.16c-.16-.25-.27,.11-.5,.11s-.24,0-.48,0-.24,.02-.48,.02-.24-.02-.48-.02-.24-.07-.48-.07-.24,.05-.48,.05-.24-.12-.48-.12-.24,.14-.48,.14-.24-.02-.48-.02-.24-.02-.48-.02-.24-.04-.48-.04-.24,.04-.48,.04-.24,.02-.48,.02-.24-.06-.48-.06-.28-.19-.44,.06c-.18,.28-.06,.33-.06,.7s-.05,.37-.05,.75,.01,.37,.01,.75,.09,.37,.09,.75-.02,.37-.02,.75-.22,.52-.05,.8c.16,.25,.28,.02,.52,.02s.24-.01,.48-.01,.24,.02,.48,.02,.24-.02,.48-.02,.24-.1,.48-.1,.24-.01,.48-.01,.24,.12,.48,.12,.24-.06,.48-.06,.24-.1,.48-.1,.24,.01,.48,.01,.24,.11,.48,.11,.24,0,.48,0,.24-.02,.48-.02,.24-.06,.48-.06,.27,.24,.43-.01c.18-.28,0-.32,0-.69s.12-.37,.12-.75-.06-.37-.06-.75-.06-.37-.06-.75,0-.38,.06-.75c.07-.41,.2-.51,.03-.79Z"/></g><rect class="cls-20" x="182.57" y="38.29" width="11.82" height="1.58" rx=".33" ry=".33"/></g></g><path class="cls-3" d="M182.12,63.46h-4.17c-1.21,0-2.19-.98-2.19-2.18V19.05c0-1.06,.85-1.91,1.91-1.91h4.17c-1.05,0-1.91,.85-1.91,1.91V61.28c0,1.2,.98,2.18,2.19,2.18Z"/><rect class="cls-4" x="184.04" y="4.3" width="5.66" height="9.41" rx="1.11" ry="1.11"/><path class="cls-3" d="M187.52,13.72h-2.37c-.61,0-1.11-.5-1.11-1.11V5.42c0-.62,.5-1.11,1.11-1.11h2.37c-.61,0-1.11,.49-1.11,1.11v7.19c0,.61,.5,1.11,1.11,1.11Z"/><rect class="cls-15" x="185.55" y="5.92" width="2.64" height="5.28" rx=".43" ry=".43"/><path class="cls-9" d="M190.92,12.49h-8.1c-.8,0-1.55,.38-2.03,1.02l-2.69,3.62h17.54l-2.69-3.62c-.48-.64-1.23-1.02-2.03-1.02Z"/><path class="cls-3" d="M186.41,12.49c-.8,0-1.55,.38-2.03,1.02l-2.69,3.63h-3.59l2.69-3.63c.48-.64,1.23-1.02,2.03-1.02h3.59Z"/></g><g><line class="cls-1" x1="151.7" y1="75.02" x2="222.04" y2="75.02"/><line class="cls-1" x1="151.7" y1="154.98" x2="222.04" y2="154.98"/></g><g><g><path class="cls-7" d="M162.72,89.26h2.52v-3.65c-1.58,0-2.93,1.01-3.44,2.42-.22,.6,.28,1.23,.92,1.23Z"/><g><path class="cls-8" d="M191.42,89.27v34.33h-23.26c-1.62,0-2.93-1.32-2.93-2.93v-31.4h26.19Z"/><path class="cls-8" d="M191.42,89.27h-26.19v-3.67h22.54v.02c2.01,0,3.65,1.63,3.65,3.65Z"/></g><path class="cls-2" d="M168.73,89.27v34.33h-.57c-1.62,0-2.93-1.32-2.93-2.93v-35.04c1.94,.07,3.5,1.67,3.5,3.64Z"/><path class="cls-7" d="M168.73,123.59v-1.17c0-1.38,1.12-2.5,2.5-2.5h23.69c0,2.02-1.64,3.65-3.65,3.65v.02h-22.54Z"/></g><g class="cls-21"><path class="cls-7" d="M180.36,110.07h2.52v-3.65c-1.58,0-2.93,1.01-3.44,2.42-.22,.6,.28,1.23,.92,1.23Z"/><g><path class="cls-8" d="M209.06,110.07v34.33h-23.26c-1.62,0-2.93-1.32-2.93-2.93v-31.4h26.19Z"/><path class="cls-8" d="M209.06,110.07h-26.19v-3.67h22.54v.02c2.01,0,3.65,1.63,3.65,3.65Z"/></g><path class="cls-2" d="M186.37,110.07v34.33h-.57c-1.62,0-2.93-1.32-2.93-2.93v-35.04c1.94,.07,3.5,1.67,3.5,3.64Z"/><path class="cls-7" d="M186.37,144.4v-1.17c0-1.38,1.12-2.5,2.5-2.5h23.69c0,2.02-1.64,3.65-3.65,3.65v.02h-22.54Z"/></g></g><g><g><g><g><path class="cls-5" d="M157.69,185.5h31.34v27.42h-28.22c-1.72,0-3.12-1.4-3.12-3.12v-24.3h0Z"/><path class="cls-5" d="M194.02,178.37l1.56-9.25h-1.56s-29.23,0-29.23,0c-1.08,0-1.95,.87-1.96,1.95l-.06,7.3h31.26Z"/></g><circle class="cls-8" cx="173.36" cy="198.46" r="8.45"/><g><path class="cls-10" d="M176.84,196.08c-1.18-.22-1.62-.96-.99-1.95,.28-.44,.58-.95,.87-1.44,.37-.62,1.31-.45,1.44,.26,.1,.56,.2,1.15,.3,1.66,.23,1.15-.44,1.69-1.62,1.47Z"/><path class="cls-10" d="M175.04,199.25c-.86,.83-1.72,.76-2.17-.33-.2-.48-.43-1.03-.67-1.55-.29-.66,.4-1.33,1.05-1.01,.51,.25,1.05,.51,1.52,.72,1.07,.48,1.12,1.34,.26,2.18Z"/><path class="cls-10" d="M174.82,200.14c-.36-1.14,.09-1.88,1.26-1.79,.52,.04,1.12,.07,1.68,.09,.72,.03,1.01,.95,.44,1.39-.45,.35-.92,.72-1.32,1.04-.91,.75-1.7,.4-2.06-.74Z"/><path class="cls-10" d="M170.54,202.29c-1.15,.34-1.87-.13-1.76-1.3,.05-.52,.09-1.11,.13-1.68,.05-.72,.97-.99,1.4-.41,.34,.46,.7,.94,1.01,1.35,.73,.93,.37,1.71-.78,2.04Z"/><path class="cls-10" d="M170.74,202.31c.95-.73,1.79-.56,2.12,.57,.14,.5,.32,1.07,.49,1.61,.22,.69-.54,1.28-1.16,.89-.48-.3-.99-.62-1.44-.88-1.01-.6-.96-1.46-.01-2.19Z"/><path class="cls-18" d="M168.26,203.41c-.29,0-.54-.21-.6-.5-.06-.33,.16-.64,.49-.7,.07-.01,6.59-1.2,8.12-6.7,.09-.32,.42-.51,.74-.42,.32,.09,.51,.42,.42,.74-1.74,6.25-8.78,7.52-9.08,7.57-.03,0-.07,0-.1,0Z"/></g></g><polygon class="cls-5" points="162.77 178.37 157.69 185.5 189.03 185.5 194.02 178.37 162.77 178.37"/><polygon class="cls-12" points="194.02 178.38 192.27 180.88 160.98 180.88 162.76 178.38 194.02 178.38"/><path class="cls-17" d="M189.03,212.92h10.42c1.41,0,2.56-1.15,2.56-2.56v-24.94c0-.14-.04-.27-.12-.38l-4.75-6.84v-7.52c0-.86-.7-1.56-1.56-1.56h0c-.86,0-1.56,.7-1.56,1.56v7.69s-5,7.13-5,7.13v27.42Z"/></g><g><g><path class="cls-10" d="M221.74,193.51c-.55-1.05-1.05-.27-2.22-.48s-1.39-1.14-2.27-.35c-1.14,1.02-.47,1.41-.74,2.92s-.02,1.55-.29,3.06c-.27,1.51-.32,1.5-.59,3.01-.27,1.5-.32,1.5-.59,3s-.35,1.49-.62,3-1.17,1.64-.47,3c.55,1.05,1.14,.15,2.31,.36s1.45,1.32,2.33,.52c1.14-1.02,.12-1.55,.39-3.05,.27-1.51,.46-1.47,.74-2.98s.4-1.49,.67-2.99c.27-1.5,.24-1.51,.51-3.02,.27-1.51-.21-1.63,.32-3.07,.54-1.47,1.22-1.57,.51-2.93Z"/><path class="cls-10" d="M212.77,192.9c-.61-.97-1.03,.42-1.96,.42-.92,0-.92-.02-1.85-.02-.92,0-.92,.07-1.85,.07s-.92-.08-1.84-.08-.92-.26-1.85-.26c-.92,0-.92,.2-1.85,.2s-.92-.47-1.84-.47-.92,.54-1.85,.54c-.92,0-.92-.09-1.85-.09-.92,0-.92-.09-1.85-.09s-.92-.16-1.85-.16-.92,.17-1.85,.17-.92,.08-1.85,.08-.92-.23-1.85-.23-1.08-.73-1.7,.24c-.69,1.08-.23,1.26-.23,2.71s-.18,1.45-.18,2.91c0,1.45,.05,1.45,.05,2.91,0,1.45,.34,1.45,.34,2.9,0,1.45-.09,1.45-.09,2.91,0,1.45-.87,2.02-.18,3.1,.61,.97,1.08,.08,2,.08s.92-.05,1.85-.05,.92,.07,1.85,.07,.92-.07,1.84-.07,.92-.37,1.85-.37,.92-.05,1.85-.05,.92,.45,1.84,.45,.92-.24,1.85-.24,.92-.37,1.85-.37,.92,.05,1.85,.05,.92,.44,1.85,.44,.92,.02,1.85,.02,.92-.08,1.85-.08,.92-.24,1.85-.24,1.05,.91,1.67-.06c.69-1.08-.03-1.22-.03-2.67,0-1.45,.46-1.45,.46-2.91s-.22-1.45-.22-2.91c0-1.45-.23-1.45-.23-2.9s-.02-1.49,.21-2.9c.26-1.58,.79-1.97,.1-3.05Z"/></g><rect class="cls-20" x="179.1" y="208.88" width="45.81" height="6.14" rx=".33" ry=".33"/></g><g><path class="cls-6" d="M166.39,202.2c-.81,.57-1.2,.48-2.01,1.05s-.39,.67-1.19,1.24-1.37,.44-2.18,1.01-.57,.63-1.38,1.2-.92,.54-1.73,1.12-.64,.61-1.44,1.18-.9,.55-1.71,1.12-.89,.55-1.7,1.12-.26,.7-1.07,1.27-1.02,.52-1.83,1.09-.96,.54-1.77,1.11-.43,.66-1.24,1.23c-.61,.43-.15,.8,1.07,.8,1.61,0,1.61,0,3.22,0s1.61,.02,3.23,.02,1.61,.08,3.23,.08,1.61,.14,3.23,.14,1.61-.24,3.23-.24,1.61-.04,3.23-.04,1.61,.04,3.23,.04,1.61,0,3.23,0,1.61-.05,3.23-.05,1.62,.12,3.23,.12,1.62,.05,3.23,.05,1.62-.15,3.23-.15c1.22,0,1.86-.39,1.25-.82-.81-.57-.7-.6-1.51-1.17s-1.1-.5-1.91-1.07-.31-.69-1.11-1.26-.96-.53-1.77-1.11-1.16-.49-1.97-1.06-.3-.69-1.1-1.26c-.81-.57-1.03-.52-1.84-1.09s-.88-.56-1.68-1.13-.43-.66-1.23-1.23-.91-.55-1.72-1.12-1.08-.51-1.89-1.08-.51-.64-1.32-1.21c-.61-.43-2.15-.35-2.76,.09Z"/><circle class="cls-11" cx="164.16" cy="207.87" r=".97"/><circle class="cls-11" cx="173.89" cy="208.44" r=".97"/><circle class="cls-11" cx="177.47" cy="212.34" r=".97"/><circle class="cls-11" cx="173.36" cy="212.92" r=".97"/><circle class="cls-11" cx="162.5" cy="212.34" r=".97"/><circle class="cls-11" cx="157.45" cy="210.78" r=".97"/></g></g></g></svg>