<svg width="33" height="33" viewBox="0 0 33 33" fill="none" xmlns="http://www.w3.org/2000/svg">
<g clip-path="url(#clip0_170_8960)">
<path d="M31.2871 12.7108C30.7551 12.1788 30.0186 11.8515 29.2002 11.8515H29.132C28.9001 11.1285 28.6136 10.4465 28.2726 9.79179C28.2999 9.77815 28.3135 9.76451 28.3272 9.75087C29.473 8.59145 29.473 6.72274 28.3272 5.57696L26.5949 3.84465C26.0083 3.27176 25.2581 2.98532 24.5079 2.98532C23.7577 2.98532 22.9939 3.27176 22.421 3.84465C22.4073 3.84465 22.3937 3.88557 22.38 3.89921C21.7253 3.55821 21.0433 3.27176 20.3204 3.03988V2.97168C20.3204 1.34849 18.9973 0.0253906 17.3604 0.0253906H14.9188C14.1141 0.0253906 13.3775 0.352756 12.8319 0.884725C12.2999 1.43033 11.9726 2.16691 11.9726 2.97168V3.03988C11.2496 3.25812 10.5676 3.54457 9.91288 3.89921C9.8856 3.88557 9.87196 3.85829 9.85832 3.84465C8.71254 2.69887 6.84383 2.69887 5.69806 3.84465L3.96575 5.57696C3.39286 6.14985 3.10641 6.90006 3.10641 7.66392C3.10641 8.42777 3.39286 9.17798 3.96575 9.75087C3.97939 9.76451 3.99303 9.77815 4.02031 9.79179C3.6793 10.4465 3.39286 11.1285 3.16097 11.8515H3.09277C1.46959 11.8515 0.146484 13.1746 0.146484 14.7978V17.253C0.146484 18.0714 0.47385 18.808 1.00582 19.3399C1.53779 19.8719 2.27436 20.1993 3.09277 20.1993H3.16097C3.39286 20.9222 3.6793 21.6042 4.02031 22.259C3.99303 22.259 3.97939 22.2862 3.96575 22.2999C2.81997 23.4593 2.81997 25.328 3.96575 26.4738L5.69806 28.2061C6.27094 28.779 7.02116 29.0654 7.78501 29.0654C8.54886 29.0654 9.28543 28.779 9.85832 28.2061C9.85832 28.1924 9.8856 28.1652 9.91288 28.1515C10.5676 28.5062 11.2496 28.7926 11.9726 29.0109V29.0791C11.9726 30.7022 13.2957 32.0254 14.9188 32.0254H17.3604C18.1789 32.0254 18.9154 31.698 19.461 31.166C19.993 30.6204 20.3204 29.8838 20.3204 29.0791V29.0109C21.0433 28.779 21.7253 28.4925 22.38 28.1515C22.3937 28.1515 22.4073 28.1924 22.421 28.2061C23.5667 29.3519 25.4355 29.3519 26.5949 28.2061L28.3272 26.4738C28.9001 25.9009 29.1865 25.1507 29.1865 24.3868C29.1865 23.623 28.9001 22.8728 28.3272 22.2999C28.3135 22.2862 28.2999 22.2726 28.2726 22.259C28.6136 21.6042 28.9001 20.9222 29.132 20.1993H29.2002C30.8233 20.1993 32.1464 18.8762 32.1464 17.253V14.7978C32.1464 13.9793 31.8191 13.2428 31.2871 12.7108ZM16.1465 24.7006C11.3587 24.7006 7.47128 20.8131 7.47128 16.0254C7.47128 11.2377 11.3587 7.35019 16.1465 7.35019C20.9342 7.35019 24.8216 11.2377 24.8216 16.0254C24.8216 20.8131 20.9342 24.7006 16.1465 24.7006Z" fill="white"/>
</g>
<defs>
<clipPath id="clip0_170_8960">
<rect width="32" height="32" fill="white" transform="translate(0.146484 0.0253906)"/>
</clipPath>
</defs>
</svg>
