<?xml version="1.0" encoding="UTF-8"?><svg id="Camada_1" xmlns="http://www.w3.org/2000/svg" viewBox="0 0 230 230"><defs><style>.cls-1,.cls-2,.cls-3{opacity:.1;}.cls-1,.cls-4{fill:#dedede;}.cls-2,.cls-5,.cls-6,.cls-7{fill:#fff;}.cls-8{opacity:.05;}.cls-9{fill:#f1a948;}.cls-10{fill:#f1a94d;}.cls-11{fill:#ffc170;}.cls-12{fill:#e6cacc;}.cls-13{fill:#f19824;}.cls-14{fill:#94345c;}.cls-15{fill:#e08304;}.cls-16{fill:#d6a9ac;}.cls-17{fill:#232626;}.cls-18{fill:#95c7de;}.cls-19{fill:#9c3d65;}.cls-20{fill:#cee8e8;}.cls-20,.cls-21,.cls-5{opacity:.2;}.cls-21{fill:#7f8f8f;}.cls-22{fill:#abc1cc;}.cls-22,.cls-23{opacity:.6;}.cls-23,.cls-24,.cls-25,.cls-26{fill:#cbdde6;}.cls-6{opacity:.5;}.cls-24{opacity:.7;}.cls-25,.cls-7{opacity:.3;}.cls-4,.cls-26{opacity:.4;}</style></defs><g><polygon class="cls-12" points="0 140.35 230 42.88 230 230 0 230 0 140.35"/><polygon class="cls-16" points="0 148.82 230 51.42 230 230 0 230 0 148.82"/><polygon class="cls-12" points="0 157.57 230 60.7 230 230 0 230 0 157.57"/><polygon class="cls-16" points="0 207.6 230 110.73 230 230 0 230 0 207.6"/><polygon class="cls-12" points="0 217.6 230 120.74 230 230 0 230 0 217.6"/><polygon class="cls-16" points="230 167.95 230 230 91.66 230 230 167.95"/><polygon class="cls-12" points="230 179.05 230 230 114.78 230 230 179.05"/></g><g><g><path class="cls-22" d="M84.73,23.21c-.02,1.18,.17,2.35,.58,3.51,0,.02,.02,.05,.02,.06v.02c.58,3.66,1.6,9.88,2.82,17.42,0,0-24.32-16.24-18.18-20.33,17.47-11.67,26.1-14.82,27.1-15.16-7.66,3.96-12.25,8.96-12.34,14.48Z"/><path class="cls-22" d="M85.33,26.78c.11,.28,.2,.55,.32,.83-.12-.28-.23-.54-.32-.82v-.02Z"/><path class="cls-22" d="M190.37,114.26c-8.13,66.88-19.62,65.98-44.18,65.87-28.72-.12-34.46,3.31-46.69-67.21-3.26-18.81-11.9-72.04-14.19-86.21,.8,2.4,2.48,4.71,4.88,6.85,3.02,20.19,9.51,63.3,12.17,78.64,11.43,65.82,16.79,62.61,43.58,62.73,22.93,.09,33.66,.94,41.23-61.47,1.48-12.19,12.33-44.28,11.73-80.96,1.97-2.35,3.05-4.89,3.09-7.56,3.17,43.51-9.9,75.16-11.62,89.32Z"/><path class="cls-10" d="M187.17,113.46c-7.57,62.41-18.3,61.56-41.23,61.47-26.79-.12-32.15,3.09-43.58-62.73-2.66-15.34-9.16-58.45-12.17-78.64,9.26,8.3,29.39,14.22,52.82,14.57,25.9,.38,47.99-6.19,55.9-15.64,.6,36.69-10.25,68.78-11.73,80.96Z"/><ellipse class="cls-20" cx="143.36" cy="24.07" rx="20.59" ry="50.18" transform="translate(117.17 167.06) rotate(-89.15)"/><path class="cls-22" d="M143.72,.02c-32.38-.49-58.79,9.9-58.99,23.19-.18,13.28,25.9,24.45,58.28,24.93,32.38,.48,58.79-9.91,58.99-23.21C202.18,11.65,176.1,.49,143.72,.02Zm-.66,44.65c-27.7-.42-50.03-9.96-49.86-21.33,.17-11.37,22.76-20.27,50.48-19.85,27.7,.42,50.03,9.96,49.86,21.33-.17,11.37-22.76,20.27-50.48,19.85Z"/><path class="cls-21" d="M193.44,25.92c-1.57,10.85-23.59,19.13-50.39,18.74-23.81-.35-43.66-7.45-48.65-16.67,1.57-10.85,23.59-19.13,50.39-18.74,23.83,.35,43.66,7.45,48.65,16.67Z"/><path class="cls-18" d="M193.33,26.47c-2.22,10.56-23.94,18.58-50.28,18.19-22.11-.33-40.81-6.49-47.36-14.75,2.22-10.56,23.94-18.58,50.28-18.19,22.13,.33,40.83,6.49,47.36,14.75Z"/><path class="cls-18" d="M193.33,26.47c-2.22,10.56-23.94,18.58-50.28,18.19-22.11-.33-40.81-6.49-47.36-14.75,2.22-10.56,23.94-18.58,50.28-18.19,22.13,.33,40.83,6.49,47.36,14.75Z"/><path class="cls-13" d="M193.33,26.47c-1.12,5.24-6.99,9.84-15.85,13.11-9.04,3.34-21.15,5.28-34.43,5.08-12.79-.19-24.45-2.32-33.27-5.71-6.42-2.45-11.34-5.56-14.09-9.04,2.22-10.56,23.94-18.58,50.28-18.19,22.13,.33,40.83,6.49,47.36,14.75Z"/><path class="cls-2" d="M190.15,32.07c-2.77,2.9-7.12,5.47-12.67,7.5-9.04,3.34-21.15,5.28-34.43,5.08-12.79-.19-24.45-2.32-33.27-5.71-4.49-1.71-8.24-3.75-11.04-6.01,7.31-7.64,25.68-12.88,47.1-12.57,19.32,.29,36.03,5.03,44.31,11.7Z"/><path class="cls-2" d="M190.15,32.07c-2.77,2.9-7.12,5.47-12.67,7.5-9.04,3.34-8.63-19.58-52.97-10.94-12.55,2.45-5.91,13.7-14.73,10.31-4.49-1.71-8.24-3.75-11.04-6.01,7.31-7.64,25.68-12.88,47.1-12.57,19.32,.29,36.03,5.03,44.31,11.7Z"/><path class="cls-5" d="M188.79,28.04c-8.66-6.14-24.62-10.42-42.95-10.68-20.19-.31-37.67,4.34-45.74,11.28-4.41-2.99,23.67-16.03,45.08-15.71,19.33,.28,48.36,11.88,43.61,15.11Z"/><path class="cls-5" d="M182.06,32.67c-.02,1.39-2.28,4.53-6.12,2.44-2.95-1.61-6.07-1.22-6.05-2.62s4.43-3.36,7.8-3.31c3.36,.05,4.4,2.09,4.37,3.49Z"/><path class="cls-5" d="M123.08,34.43c.39-1.34,3.4-3.76,6.55-.72,2.42,2.34,5.53,2.79,5.14,4.13s-5.17,2.06-8.39,1.12-3.68-3.19-3.29-4.52Z"/><path class="cls-20" d="M187.17,113.46c-7.57,62.41-18.3,61.56-41.23,61.47-26.79-.12-32.15,3.09-43.58-62.73-2.66-15.34-9.16-58.45-12.17-78.64,9.26,8.3,29.39,14.22,52.82,14.57,25.9,.38,47.99-6.19,55.9-15.64,.6,36.69-10.25,68.78-11.73,80.96Z"/><g><path class="cls-7" d="M133.89,175.27l-3.48-.34-13.28-129.64c1.75,.37,3.54,.72,5.39,1.03l11.37,128.95Z"/><path class="cls-7" d="M171.2,45.59l-13.25,129.34-3.46,.34,11.34-128.69c1.85-.29,3.63-.62,5.37-.98Z"/><path class="cls-7" d="M194.53,36.47l-17.61,125.52-3.91,5.36,15.05-127.15c2.43-1.15,4.6-2.4,6.46-3.72Z"/><path class="cls-7" d="M120.18,170.1l-4-5.09-17.13-125.72c1.94,.95,4.05,1.83,6.29,2.65l14.84,128.17Z"/><path class="cls-7" d="M148.1,48.13l-1.26,126.81h-4.57l.26-126.81h.48c1.22,.02,2.42,.02,3.6,0h1.49Z"/></g><g><path class="cls-4" d="M186.33,92.31l18.08,.92,1.52-4.39s-4.14,2.24-5.8,2.12c-6.87-.49-13.81,1.35-13.81,1.35Z"/><path class="cls-17" d="M187.01,46.42l15.47-12.11,14.91,4.41s12.02,62-6.59,67.12c-10.64,2.93-24.72,3.46-24.72,3.46l.25-16.99,10.17-4.9,9.43,1.44,.78-37.66-9.58-1.36-10.21,2.19,.08-5.59Z"/><path class="cls-4" d="M217.39,38.72l-5.73,5.49c4.61-5.09-.22-8.11-9.17-9.89l14.91,4.41Z"/><path class="cls-4" d="M218.95,74.8c.41,5.55-2.07,23.58-1.19,21.64,3.43-7.61,2.09-33.9,1.76-35.47s-.74,11.5-.57,13.83Z"/><polygon class="cls-4" points="186.33 92.31 205.87 93.25 205.94 88.84 196.51 87.41 186.33 92.31"/><path class="cls-1" d="M205.87,93.25c-10.91,1.42-16.83,7.38-19.79,16.05l.25-16.99,19.54,.94Z"/></g><path class="cls-7" d="M71.42,25.66l12.93,.82,2.65,15.17s-14.62-9.32-15.59-15.99Z"/><path class="cls-6" d="M73.42,26.74l10.15,.64,2.08,11.9s-11.47-7.31-12.23-12.54Z"/><path class="cls-8" d="M71.42,25.66l21.77-13.95,3.88,3.84c-4.35,4.9-5.4,9.71-1.38,14.36l-11.34-3.44-12.93-.82Z"/><path class="cls-8" d="M93.47,25.96l-1.71-.65-12.85-1.71,16.94-9.28,1.22,1.22c-3.14,3.54-4.56,7.02-3.6,10.42Z"/><path class="cls-8" d="M95.87,16.99c-1.68,2.23-2.62,4.43-2.69,6.6l-7.53-1,10.22-5.6Z"/></g><g><path class="cls-26" d="M135.94,148.42c0,17.25-8.01,53.99-14.79,59.27-8.24,6.42-43.77,10.33-59.7-.82-8.6-6.03-13.79-48.57-13.03-61.98,.68-12.01,.95-22.36,.95-22.36,0,14.3,19.16,25.89,42.81,25.89s42.81-11.59,42.81-25.89c0,0,.95,10.73,.95,25.89Z"/><path class="cls-26" d="M133.34,122.53c0,13.75-18.43,24.9-41.16,24.9s-41.16-11.15-41.16-24.9,18.43-24.89,41.16-24.89,41.16,11.15,41.16,24.89Z"/><path class="cls-9" d="M133.34,158.17s0,.03,0,.03c-.06,.16-.12,.33-.19,.5-3.85,9.79-20.22,17.66-41,17.66s-37.49-8.45-40.59-18.66c-.05-.16-.09-.33-.14-.49-.61-6.93-.46-15.33,0-24.36l81.16-.46c1.89,5.3,1.35,15.49,.76,25.78Z"/><path class="cls-15" d="M132.59,131.15c0,10.95-18.2,20.91-40.62,20.91s-40.55-9.97-40.55-20.91,18.17-19.81,40.58-19.81,40.58,8.87,40.58,19.81Z"/><path class="cls-13" d="M132.59,132.86c0,10.95-18.2,20.91-40.62,20.91s-40.55-9.97-40.55-20.91,18.17-19.81,40.58-19.81,40.58,8.87,40.58,19.81Z"/><path class="cls-7" d="M70.47,130.55c-4.19-1.27,4.59-7.55,9.78-7.55s.04,1.94-3.89,3.5c-5.48,2.18-2.09,5.2-5.9,4.04Z"/><path class="cls-7" d="M119.03,128.25c2.59,3.48-1.68,.83-7.19-2.16-5.5-2.98-8.83-5.39-4.14-4.09,6.54,1.82,8.59,2.56,11.34,6.25Z"/><path class="cls-5" d="M128.93,132.91c0,9.96,1.96-6.64-17.43-12.94-39.5-12.84-55.58,17.6-56.42,12.94-1.77-9.8,16.53-18.03,36.93-18.03s36.93,8.07,36.93,18.03Z"/><path class="cls-11" d="M133.34,158.17s0,.03,0,.03c-.06,.16-.12,.33-.19,.5-3.85,9.79-20.22,17.66-41,17.66s-37.49-8.45-40.59-18.66c-.05-.16-.09-.33-.14-.49-.31-3.51-.42-7.4-.39-11.56,0,3.47,.14,6.73,.39,9.71,.04,.16,.09,.33,.14,.49,3.09,10.21,19.16,18.66,40.59,18.66s37.15-7.87,41-17.66c.07-.16,.13-.33,.19-.5,0,0,0-.03,0-.03,.26-4.45,.5-8.89,.54-12.93,.04,4.5-.24,9.62-.54,14.78Z"/><path class="cls-19" d="M133.34,158.17c-4.04,19.21-8.11,40.77-13.63,45.09-8.06,6.31-40.65,7.49-53.84,1.47-7.31-3.34-9.84-20.97-14.45-47.5,2.72,10.42,18.95,19.14,40.72,19.14s37.73-8.15,41.2-18.2Z"/><path class="cls-14" d="M133.34,158.17c-.24,1.16-.49,2.32-.74,3.49-4.67,9.23-20.52,16.46-40.46,16.46s-36.06-7.72-40.1-17.31c-.21-1.17-.41-2.37-.63-3.59,2.72,10.43,18.96,19.15,40.72,19.15s37.73-8.16,41.19-18.19Z"/><path class="cls-26" d="M92.38,149.81c-14.53,0-27.53-5.44-35.04-12.24,7.77,6.56,20.48,10.84,34.84,10.84s27.09-4.28,34.85-10.85c-7.5,6.81-20.11,12.25-34.65,12.25Z"/><path class="cls-23" d="M135.94,148.42c0,17.25-8.01,53.99-14.79,59.27-8.24,6.42-43.77,10.33-59.7-.82-8.6-6.03-13.79-48.57-13.03-61.98,.68-12.01,.95-22.36,.95-22.36,0,1.72,.28,3.4,.8,5.02-.14,4.02-.4,10.62-.8,17.84-.74,13.12,4.33,54.73,12.75,60.64,15.58,10.91,50.33,7.08,58.39,.8,6.64-5.16,14.47-41.1,14.47-57.97,0-9.64-.39-17.45-.67-21.74,.44-1.49,.67-3.02,.67-4.58,0,0,.95,10.73,.95,25.89Z"/><path class="cls-3" d="M125.91,208.22c-2.28,7-24.64,11.66-46.1,4.96,27.56,2.85,42.45-3.73,43.65-8.38,0,0,2.91,2,2.45,3.42Z"/><path class="cls-26" d="M57.34,137.58c-3.48-2.94-5.96-6.34-7.16-10.03,.09-2.52,.13-4.02,.13-4.02,0,5.2,2.59,10.04,7.03,14.05Z"/><path class="cls-26" d="M134.32,127.11c-1.13,3.83-3.64,7.36-7.23,10.41,4.41-4.01,6.97-8.82,6.97-13.99,0,0,.11,1.29,.26,3.59Z"/><path class="cls-25" d="M128.99,135.75c4.35,9.27,1.68,20.6-2.35,43.41v-39.46l2.35-3.94"/><path class="cls-23" d="M92.18,96.65c-23.64,0-42.81,11.59-42.81,25.88s19.16,25.89,42.81,25.89,42.81-11.59,42.81-25.89-19.17-25.88-42.81-25.88Zm0,50.78c-22.73,0-41.16-11.15-41.16-24.9s18.43-24.89,41.16-24.89,41.16,11.15,41.16,24.89-18.43,24.9-41.16,24.9Z"/><path class="cls-24" d="M75.28,99.85c-4.3,2.72-5.81,8.63-6.05,14.89-1.62,.54-3.15,1.13-4.59,1.77-.51-6.53-.35-12.33,1.63-13.32,4.39-2.21,8.51-3.12,9.01-3.34Z"/><path class="cls-25" d="M59.68,178.56c5.13,13.15,7.69,22.12,19.78,22.41,5.55,.13-9.3,6.16-14.47-1.58s-11.19-18.17-5.31-20.83Z"/><path class="cls-7" d="M73.76,142.31c4.63,3.63,32.36,5.35,42.07-.94-9.65,2.02-28.48,2.53-42.07,.94Z"/></g></g><path class="cls-3" d="M182.65,155.65c3.64-.68,10.89,7.65,3.32,11.7-8.28,4.42-16.84,13.67-18.78,14.41-4.77,1.8-34.59-1.3-34.59-1.3l.71-.46,12.89,.14c25.01,1.59,32.14-9.28,36.46-24.49Z"/></svg>