<svg width="33" height="32" viewBox="0 0 33 32" fill="none" xmlns="http://www.w3.org/2000/svg">
<path d="M30.2683 25.3V1.2C30.2683 0.54 29.7283 0 29.0683 0H8.32831C5.67331 0 3.51831 2.155 3.51831 4.815V27.19C3.51831 29.85 5.67331 32 8.32831 32H29.0683C29.7283 32 30.2683 31.46 30.2683 30.8C30.2683 29.945 29.5733 29.25 28.7183 29.25H8.32831C7.19331 29.25 6.26831 28.33 6.26831 27.19V4.815C6.26831 3.675 7.19331 2.75 8.32831 2.75H27.5183V25.3C27.5183 26.06 28.1333 26.675 28.8933 26.675C29.6533 26.675 30.2683 26.06 30.2683 25.3Z" fill="#F96163"/>
<path d="M21.8983 24.175H11.8883C11.2007 24.175 10.6433 24.7325 10.6433 25.42V25.43C10.6433 26.1176 11.2007 26.675 11.8883 26.675H21.8983C22.5859 26.675 23.1433 26.1176 23.1433 25.43V25.42C23.1433 24.7325 22.5859 24.175 21.8983 24.175Z" fill="#F96163"/>
<path d="M21.8532 6.28516C21.6832 6.28516 21.5182 6.29516 21.3582 6.31516C20.4482 4.80016 18.7882 3.78516 16.8932 3.78516C14.9982 3.78516 13.3382 4.80016 12.4282 6.31516C12.2632 6.29516 12.0982 6.28516 11.9282 6.28516C9.6382 6.28516 7.7832 8.14016 7.7832 10.4252C7.7832 12.3302 9.0682 13.9352 10.8232 14.4202V18.2952C10.8232 20.2302 12.3932 21.8002 14.3282 21.8002H19.4532C21.3932 21.8002 22.9632 20.2302 22.9632 18.2952V14.4202C24.7132 13.9352 25.9982 12.3302 25.9982 10.4252C25.9982 8.14016 24.1432 6.28516 21.8532 6.28516ZM20.4982 18.1952C20.4982 18.7952 20.0082 19.2802 19.4082 19.2802H14.3782C13.7732 19.2802 13.2882 18.7952 13.2882 18.1952V14.3402C13.7482 14.1802 14.1682 13.9452 14.5382 13.6452C15.2482 14.0002 16.0432 14.2052 16.8932 14.2052C17.7432 14.2052 18.5382 14.0002 19.2482 13.6452C19.6182 13.9452 20.0382 14.1802 20.4982 14.3402V18.1952ZM22.9032 11.3352C22.6532 11.6352 22.2732 11.8202 21.8532 11.8202C21.5382 11.8202 21.2282 11.7052 20.9782 11.5052L19.8582 10.5952L19.6032 10.3902L19.1932 10.5952L18.0182 11.1852C17.6582 11.3652 17.2832 11.4552 16.8932 11.4552C16.5032 11.4552 16.1282 11.3652 15.7682 11.1852L14.5932 10.5952L14.1832 10.3902L13.9282 10.5952L12.8082 11.5052C12.6332 11.6502 12.3382 11.8202 11.9282 11.8202C11.5182 11.8202 11.1332 11.6352 10.8782 11.3402C10.6632 11.1002 10.5332 10.7752 10.5332 10.4252C10.5332 9.65516 11.1582 9.03516 11.9282 9.03516C11.9882 9.03516 12.0432 9.03516 12.0982 9.04516L13.8682 9.26016L14.7832 7.73016C15.2332 6.98016 16.0232 6.53516 16.8932 6.53516C17.7632 6.53516 18.5532 6.98016 19.0032 7.73016L19.9232 9.26516L21.6982 9.04016C21.7482 9.03516 21.7982 9.03516 21.8532 9.03516C22.6232 9.03516 23.2482 9.65516 23.2482 10.4252C23.2482 10.7752 23.1232 11.0952 22.9032 11.3352Z" fill="#F96163"/>
</svg>
