<svg width="803" height="351" viewBox="0 0 803 351" fill="none" xmlns="http://www.w3.org/2000/svg">
<rect y="0.0634766" width="803" height="350" rx="4.69746" fill="#FEE7EB"/>
<g clip-path="url(#clip0_948_12830)">
<path d="M401.579 182.803C410.282 182.803 417.337 175.748 417.337 167.045C417.337 158.342 410.282 151.287 401.579 151.287C392.876 151.287 385.821 158.342 385.821 167.045C385.821 175.748 392.876 182.803 401.579 182.803Z" fill="#F96C6D"/>
<path d="M443.621 129.652H426.713V124.42C426.713 120.071 423.183 116.541 418.834 116.541H384.166C379.817 116.541 376.287 120.071 376.287 124.42V129.652H359.379C355.014 129.652 351.5 133.181 351.5 137.531V191.706C351.5 196.056 355.014 199.585 359.379 199.585H443.621C447.97 199.585 451.5 196.056 451.5 191.706V137.531C451.5 133.181 447.97 129.652 443.621 129.652ZM401.579 192.258C387.665 192.258 376.366 180.975 376.366 167.045C376.366 153.115 387.665 141.833 401.579 141.833C415.493 141.833 426.792 153.115 426.792 167.045C426.792 180.975 415.509 192.258 401.579 192.258Z" fill="#F96C6D"/>
</g>
<path d="M284.531 217.636C284.531 217.826 284.476 217.996 284.366 218.146C284.266 218.286 284.146 218.396 284.006 218.476C283.756 218.306 283.466 218.151 283.136 218.011C282.806 217.871 282.401 217.801 281.921 217.801C281.361 217.801 280.866 217.926 280.436 218.176C280.016 218.416 279.686 218.781 279.446 219.271C279.216 219.751 279.101 220.341 279.101 221.041C279.101 222.101 279.366 222.906 279.896 223.456C280.426 223.996 281.131 224.266 282.011 224.266C282.481 224.266 282.886 224.201 283.226 224.071C283.566 223.941 283.861 223.791 284.111 223.621C284.241 223.701 284.351 223.821 284.441 223.981C284.541 224.131 284.591 224.301 284.591 224.491C284.591 224.661 284.546 224.816 284.456 224.956C284.376 225.096 284.231 225.221 284.021 225.331C283.811 225.451 283.521 225.561 283.151 225.661C282.791 225.761 282.336 225.811 281.786 225.811C280.926 225.811 280.141 225.641 279.431 225.301C278.731 224.951 278.176 224.426 277.766 223.726C277.356 223.016 277.151 222.121 277.151 221.041C277.151 219.991 277.356 219.111 277.766 218.401C278.176 217.691 278.726 217.156 279.416 216.796C280.106 216.426 280.861 216.241 281.681 216.241C282.261 216.241 282.761 216.306 283.181 216.436C283.611 216.566 283.941 216.736 284.171 216.946C284.411 217.156 284.531 217.386 284.531 217.636ZM286.242 221.626L288.087 221.716V225.556C288.007 225.586 287.892 225.611 287.742 225.631C287.592 225.661 287.427 225.676 287.247 225.676C286.907 225.676 286.652 225.616 286.482 225.496C286.322 225.366 286.242 225.141 286.242 224.821V221.626ZM288.087 222.661L286.242 222.571V215.836C286.312 215.816 286.422 215.791 286.572 215.761C286.732 215.731 286.897 215.716 287.067 215.716C287.427 215.716 287.687 215.781 287.847 215.911C288.007 216.031 288.087 216.251 288.087 216.571V222.661ZM290.016 216.376C290.016 216.086 290.116 215.841 290.316 215.641C290.526 215.441 290.786 215.341 291.096 215.341C291.416 215.341 291.671 215.441 291.861 215.641C292.061 215.841 292.161 216.086 292.161 216.376C292.161 216.656 292.061 216.901 291.861 217.111C291.671 217.311 291.416 217.411 291.096 217.411C290.786 217.411 290.526 217.311 290.316 217.111C290.116 216.901 290.016 216.656 290.016 216.376ZM290.166 221.626H292.026V225.556C291.946 225.586 291.831 225.611 291.681 225.631C291.531 225.661 291.366 225.676 291.186 225.676C290.846 225.676 290.591 225.616 290.421 225.496C290.251 225.366 290.166 225.141 290.166 224.821V221.626ZM292.026 222.571H290.166V218.551C290.246 218.521 290.361 218.496 290.511 218.476C290.671 218.446 290.841 218.431 291.021 218.431C291.371 218.431 291.626 218.496 291.786 218.626C291.946 218.746 292.026 218.971 292.026 219.301V222.571ZM300.573 224.551L298.728 224.536V220.051C298.598 219.971 298.433 219.901 298.233 219.841C298.043 219.781 297.818 219.751 297.558 219.751C297.168 219.751 296.818 219.831 296.508 219.991C296.208 220.151 295.973 220.401 295.803 220.741C295.633 221.081 295.548 221.526 295.548 222.076C295.548 222.856 295.723 223.426 296.073 223.786C296.433 224.146 296.913 224.326 297.513 224.326C297.813 224.326 298.083 224.276 298.323 224.176C298.573 224.076 298.773 223.956 298.923 223.816V225.391C298.733 225.501 298.493 225.596 298.203 225.676C297.923 225.756 297.598 225.796 297.228 225.796C296.548 225.796 295.938 225.666 295.398 225.406C294.858 225.136 294.433 224.726 294.123 224.176C293.813 223.616 293.658 222.916 293.658 222.076C293.658 221.226 293.823 220.521 294.153 219.961C294.483 219.391 294.933 218.971 295.503 218.701C296.083 218.421 296.753 218.281 297.513 218.281C298.023 218.281 298.498 218.346 298.938 218.476C299.388 218.596 299.743 218.741 300.003 218.911C300.173 219.021 300.308 219.156 300.408 219.316C300.518 219.466 300.573 219.651 300.573 219.871V224.551ZM298.728 224.281L300.573 224.266V228.316C300.493 228.346 300.373 228.371 300.213 228.391C300.063 228.421 299.903 228.436 299.733 228.436C299.383 228.436 299.128 228.371 298.968 228.241C298.808 228.111 298.728 227.886 298.728 227.566V224.281ZM302.514 222.871V221.686H304.359V222.841C304.359 223.371 304.494 223.751 304.764 223.981C305.044 224.211 305.429 224.326 305.919 224.326C306.239 224.326 306.509 224.296 306.729 224.236C306.949 224.176 307.114 224.111 307.224 224.041V221.686H309.069V224.191C309.069 224.421 309.029 224.616 308.949 224.776C308.879 224.926 308.739 225.066 308.529 225.196C308.239 225.366 307.869 225.506 307.419 225.616C306.979 225.736 306.474 225.796 305.904 225.796C305.214 225.796 304.614 225.696 304.104 225.496C303.594 225.296 303.199 224.981 302.919 224.551C302.649 224.111 302.514 223.551 302.514 222.871ZM309.069 222.406H307.224V218.506C307.304 218.486 307.419 218.466 307.569 218.446C307.729 218.416 307.894 218.401 308.064 218.401C308.414 218.401 308.669 218.461 308.829 218.581C308.989 218.701 309.069 218.926 309.069 219.256V222.406ZM304.359 222.406H302.514V218.506C302.594 218.486 302.709 218.466 302.859 218.446C303.009 218.416 303.174 218.401 303.354 218.401C303.704 218.401 303.959 218.461 304.119 218.581C304.279 218.701 304.359 218.926 304.359 219.256V222.406ZM311.805 222.976L311.73 221.686L315.75 221.086C315.72 220.706 315.575 220.376 315.315 220.096C315.055 219.816 314.675 219.676 314.175 219.676C313.665 219.676 313.24 219.856 312.9 220.216C312.56 220.566 312.385 221.071 312.375 221.731L312.42 222.511C312.51 223.151 312.755 223.621 313.155 223.921C313.565 224.221 314.08 224.371 314.7 224.371C315.12 224.371 315.51 224.311 315.87 224.191C316.23 224.061 316.515 223.921 316.725 223.771C316.865 223.861 316.975 223.976 317.055 224.116C317.145 224.246 317.19 224.391 317.19 224.551C317.19 224.811 317.075 225.036 316.845 225.226C316.615 225.406 316.305 225.546 315.915 225.646C315.525 225.746 315.08 225.796 314.58 225.796C313.81 225.796 313.125 225.656 312.525 225.376C311.935 225.086 311.47 224.656 311.13 224.086C310.8 223.516 310.635 222.806 310.635 221.956C310.635 221.346 310.73 220.811 310.92 220.351C311.11 219.891 311.365 219.511 311.685 219.211C312.015 218.901 312.395 218.671 312.825 218.521C313.255 218.361 313.705 218.281 314.175 218.281C314.835 218.281 315.41 218.416 315.9 218.686C316.4 218.946 316.79 219.311 317.07 219.781C317.36 220.251 317.505 220.791 317.505 221.401C317.505 221.681 317.43 221.891 317.28 222.031C317.14 222.161 316.94 222.241 316.68 222.271L311.805 222.976ZM324.786 224.401C325.086 224.401 325.356 224.371 325.596 224.311C325.836 224.251 326.011 224.186 326.121 224.116V222.406L324.636 222.556C324.226 222.586 323.911 222.676 323.691 222.826C323.481 222.966 323.376 223.176 323.376 223.456C323.376 223.746 323.491 223.976 323.721 224.146C323.951 224.316 324.306 224.401 324.786 224.401ZM324.711 218.281C325.691 218.281 326.471 218.491 327.051 218.911C327.631 219.321 327.921 219.971 327.921 220.861V224.311C327.921 224.551 327.861 224.741 327.741 224.881C327.631 225.021 327.486 225.146 327.306 225.256C327.026 225.416 326.671 225.546 326.241 225.646C325.811 225.756 325.326 225.811 324.786 225.811C323.786 225.811 323.001 225.621 322.431 225.241C321.861 224.851 321.576 224.276 321.576 223.516C321.576 222.846 321.786 222.336 322.206 221.986C322.636 221.626 323.256 221.406 324.066 221.326L326.106 221.116V220.846C326.106 220.446 325.966 220.156 325.686 219.976C325.416 219.796 325.031 219.706 324.531 219.706C324.141 219.706 323.761 219.756 323.391 219.856C323.021 219.956 322.691 220.076 322.401 220.216C322.301 220.136 322.211 220.026 322.131 219.886C322.051 219.746 322.011 219.601 322.011 219.451C322.011 219.091 322.211 218.826 322.611 218.656C322.891 218.526 323.216 218.431 323.586 218.371C323.966 218.311 324.341 218.281 324.711 218.281ZM336.373 224.551L334.528 224.536V220.051C334.398 219.971 334.233 219.901 334.033 219.841C333.843 219.781 333.618 219.751 333.358 219.751C332.968 219.751 332.618 219.831 332.308 219.991C332.008 220.151 331.773 220.401 331.603 220.741C331.433 221.081 331.348 221.526 331.348 222.076C331.348 222.856 331.523 223.426 331.873 223.786C332.233 224.146 332.713 224.326 333.313 224.326C333.613 224.326 333.883 224.276 334.123 224.176C334.373 224.076 334.573 223.956 334.723 223.816V225.391C334.533 225.501 334.293 225.596 334.003 225.676C333.723 225.756 333.398 225.796 333.028 225.796C332.348 225.796 331.738 225.666 331.198 225.406C330.658 225.136 330.233 224.726 329.923 224.176C329.613 223.616 329.458 222.916 329.458 222.076C329.458 221.226 329.623 220.521 329.953 219.961C330.283 219.391 330.733 218.971 331.303 218.701C331.883 218.421 332.553 218.281 333.313 218.281C333.823 218.281 334.298 218.346 334.738 218.476C335.188 218.596 335.543 218.741 335.803 218.911C335.973 219.021 336.108 219.156 336.208 219.316C336.318 219.466 336.373 219.651 336.373 219.871V224.551ZM334.528 224.281L336.373 224.266V228.316C336.293 228.346 336.173 228.371 336.013 228.391C335.863 228.421 335.703 228.436 335.533 228.436C335.183 228.436 334.928 228.371 334.768 228.241C334.608 228.111 334.528 227.886 334.528 227.566V224.281ZM338.314 222.871V221.686H340.159V222.841C340.159 223.371 340.294 223.751 340.564 223.981C340.844 224.211 341.229 224.326 341.719 224.326C342.039 224.326 342.309 224.296 342.529 224.236C342.749 224.176 342.914 224.111 343.024 224.041V221.686H344.869V224.191C344.869 224.421 344.829 224.616 344.749 224.776C344.679 224.926 344.539 225.066 344.329 225.196C344.039 225.366 343.669 225.506 343.219 225.616C342.779 225.736 342.274 225.796 341.704 225.796C341.014 225.796 340.414 225.696 339.904 225.496C339.394 225.296 338.999 224.981 338.719 224.551C338.449 224.111 338.314 223.551 338.314 222.871ZM344.869 222.406H343.024V218.506C343.104 218.486 343.219 218.466 343.369 218.446C343.529 218.416 343.694 218.401 343.864 218.401C344.214 218.401 344.469 218.461 344.629 218.581C344.789 218.701 344.869 218.926 344.869 219.256V222.406ZM340.159 222.406H338.314V218.506C338.394 218.486 338.509 218.466 338.659 218.446C338.809 218.416 338.974 218.401 339.154 218.401C339.504 218.401 339.759 218.461 339.919 218.581C340.079 218.701 340.159 218.926 340.159 219.256V222.406ZM346.706 216.376C346.706 216.086 346.806 215.841 347.006 215.641C347.216 215.441 347.476 215.341 347.786 215.341C348.106 215.341 348.361 215.441 348.551 215.641C348.751 215.841 348.851 216.086 348.851 216.376C348.851 216.656 348.751 216.901 348.551 217.111C348.361 217.311 348.106 217.411 347.786 217.411C347.476 217.411 347.216 217.311 347.006 217.111C346.806 216.901 346.706 216.656 346.706 216.376ZM346.856 221.626H348.716V225.556C348.636 225.586 348.521 225.611 348.371 225.631C348.221 225.661 348.056 225.676 347.876 225.676C347.536 225.676 347.281 225.616 347.111 225.496C346.941 225.366 346.856 225.141 346.856 224.821V221.626ZM348.716 222.571H346.856V218.551C346.936 218.521 347.051 218.496 347.201 218.476C347.361 218.446 347.531 218.431 347.711 218.431C348.061 218.431 348.316 218.496 348.476 218.626C348.636 218.746 348.716 218.971 348.716 219.301V222.571ZM357.055 225.796C357.745 225.796 358.355 225.656 358.885 225.376C359.425 225.086 359.845 224.661 360.145 224.101C360.455 223.541 360.61 222.841 360.61 222.001C360.61 221.131 360.445 220.421 360.115 219.871C359.795 219.321 359.35 218.921 358.78 218.671C358.21 218.411 357.56 218.281 356.83 218.281C356.29 218.281 355.805 218.346 355.375 218.476C354.945 218.596 354.585 218.741 354.295 218.911C354.085 219.041 353.935 219.181 353.845 219.331C353.755 219.481 353.71 219.671 353.71 219.901V224.821H355.555V220.081C355.705 219.991 355.885 219.916 356.095 219.856C356.305 219.786 356.55 219.751 356.83 219.751C357.19 219.751 357.515 219.826 357.805 219.976C358.095 220.126 358.32 220.366 358.48 220.696C358.65 221.016 358.735 221.451 358.735 222.001C358.735 222.791 358.56 223.376 358.21 223.756C357.86 224.126 357.385 224.311 356.785 224.311C356.425 224.311 356.11 224.251 355.84 224.131C355.58 224.001 355.355 223.856 355.165 223.696V225.286C355.375 225.416 355.64 225.531 355.96 225.631C356.29 225.741 356.655 225.796 357.055 225.796ZM355.555 224.311L353.71 224.296V227.521C353.71 227.841 353.79 228.066 353.95 228.196C354.12 228.326 354.375 228.391 354.715 228.391C354.895 228.391 355.06 228.376 355.21 228.346C355.36 228.326 355.475 228.301 355.555 228.271V224.311ZM365.011 224.401C365.311 224.401 365.581 224.371 365.821 224.311C366.061 224.251 366.236 224.186 366.346 224.116V222.406L364.861 222.556C364.451 222.586 364.136 222.676 363.916 222.826C363.706 222.966 363.601 223.176 363.601 223.456C363.601 223.746 363.716 223.976 363.946 224.146C364.176 224.316 364.531 224.401 365.011 224.401ZM364.936 218.281C365.916 218.281 366.696 218.491 367.276 218.911C367.856 219.321 368.146 219.971 368.146 220.861V224.311C368.146 224.551 368.086 224.741 367.966 224.881C367.856 225.021 367.711 225.146 367.531 225.256C367.251 225.416 366.896 225.546 366.466 225.646C366.036 225.756 365.551 225.811 365.011 225.811C364.011 225.811 363.226 225.621 362.656 225.241C362.086 224.851 361.801 224.276 361.801 223.516C361.801 222.846 362.011 222.336 362.431 221.986C362.861 221.626 363.481 221.406 364.291 221.326L366.331 221.116V220.846C366.331 220.446 366.191 220.156 365.911 219.976C365.641 219.796 365.256 219.706 364.756 219.706C364.366 219.706 363.986 219.756 363.616 219.856C363.246 219.956 362.916 220.076 362.626 220.216C362.526 220.136 362.436 220.026 362.356 219.886C362.276 219.746 362.236 219.601 362.236 219.451C362.236 219.091 362.436 218.826 362.836 218.656C363.116 218.526 363.441 218.431 363.811 218.371C364.191 218.311 364.566 218.281 364.936 218.281ZM371.888 220.186V222.241H370.043V220.036C370.043 219.786 370.103 219.576 370.223 219.406C370.343 219.226 370.513 219.061 370.733 218.911C371.033 218.731 371.413 218.581 371.873 218.461C372.333 218.341 372.828 218.281 373.358 218.281C374.298 218.281 374.768 218.571 374.768 219.151C374.768 219.291 374.748 219.421 374.708 219.541C374.668 219.651 374.618 219.751 374.558 219.841C374.458 219.821 374.333 219.806 374.183 219.796C374.033 219.776 373.873 219.766 373.703 219.766C373.343 219.766 373.003 219.806 372.683 219.886C372.373 219.956 372.108 220.056 371.888 220.186ZM370.043 221.626L371.888 221.716V225.556C371.808 225.586 371.693 225.611 371.543 225.631C371.393 225.661 371.228 225.676 371.048 225.676C370.708 225.676 370.453 225.616 370.283 225.496C370.123 225.366 370.043 225.141 370.043 224.821V221.626ZM378.634 224.401C378.934 224.401 379.204 224.371 379.444 224.311C379.684 224.251 379.859 224.186 379.969 224.116V222.406L378.484 222.556C378.074 222.586 377.759 222.676 377.539 222.826C377.329 222.966 377.224 223.176 377.224 223.456C377.224 223.746 377.339 223.976 377.569 224.146C377.799 224.316 378.154 224.401 378.634 224.401ZM378.559 218.281C379.539 218.281 380.319 218.491 380.899 218.911C381.479 219.321 381.769 219.971 381.769 220.861V224.311C381.769 224.551 381.709 224.741 381.589 224.881C381.479 225.021 381.334 225.146 381.154 225.256C380.874 225.416 380.519 225.546 380.089 225.646C379.659 225.756 379.174 225.811 378.634 225.811C377.634 225.811 376.849 225.621 376.279 225.241C375.709 224.851 375.424 224.276 375.424 223.516C375.424 222.846 375.634 222.336 376.054 221.986C376.484 221.626 377.104 221.406 377.914 221.326L379.954 221.116V220.846C379.954 220.446 379.814 220.156 379.534 219.976C379.264 219.796 378.879 219.706 378.379 219.706C377.989 219.706 377.609 219.756 377.239 219.856C376.869 219.956 376.539 220.076 376.249 220.216C376.149 220.136 376.059 220.026 375.979 219.886C375.899 219.746 375.859 219.601 375.859 219.451C375.859 219.091 376.059 218.826 376.459 218.656C376.739 218.526 377.064 218.431 377.434 218.371C377.814 218.311 378.189 218.281 378.559 218.281ZM388.514 220.186V222.241H386.669V220.036C386.669 219.786 386.729 219.576 386.849 219.406C386.969 219.226 387.139 219.061 387.359 218.911C387.659 218.731 388.039 218.581 388.499 218.461C388.959 218.341 389.454 218.281 389.984 218.281C390.924 218.281 391.394 218.571 391.394 219.151C391.394 219.291 391.374 219.421 391.334 219.541C391.294 219.651 391.244 219.751 391.184 219.841C391.084 219.821 390.959 219.806 390.809 219.796C390.659 219.776 390.499 219.766 390.329 219.766C389.969 219.766 389.629 219.806 389.309 219.886C388.999 219.956 388.734 220.056 388.514 220.186ZM386.669 221.626L388.514 221.716V225.556C388.434 225.586 388.319 225.611 388.169 225.631C388.019 225.661 387.854 225.676 387.674 225.676C387.334 225.676 387.079 225.616 386.909 225.496C386.749 225.366 386.669 225.141 386.669 224.821V221.626ZM393.221 222.976L393.146 221.686L397.166 221.086C397.136 220.706 396.991 220.376 396.731 220.096C396.471 219.816 396.091 219.676 395.591 219.676C395.081 219.676 394.656 219.856 394.316 220.216C393.976 220.566 393.801 221.071 393.791 221.731L393.836 222.511C393.926 223.151 394.171 223.621 394.571 223.921C394.981 224.221 395.496 224.371 396.116 224.371C396.536 224.371 396.926 224.311 397.286 224.191C397.646 224.061 397.931 223.921 398.141 223.771C398.281 223.861 398.391 223.976 398.471 224.116C398.561 224.246 398.606 224.391 398.606 224.551C398.606 224.811 398.491 225.036 398.261 225.226C398.031 225.406 397.721 225.546 397.331 225.646C396.941 225.746 396.496 225.796 395.996 225.796C395.226 225.796 394.541 225.656 393.941 225.376C393.351 225.086 392.886 224.656 392.546 224.086C392.216 223.516 392.051 222.806 392.051 221.956C392.051 221.346 392.146 220.811 392.336 220.351C392.526 219.891 392.781 219.511 393.101 219.211C393.431 218.901 393.811 218.671 394.241 218.521C394.671 218.361 395.121 218.281 395.591 218.281C396.251 218.281 396.826 218.416 397.316 218.686C397.816 218.946 398.206 219.311 398.486 219.781C398.776 220.251 398.921 220.791 398.921 221.401C398.921 221.681 398.846 221.891 398.696 222.031C398.556 222.161 398.356 222.241 398.096 222.271L393.221 222.976ZM403.349 225.331C402.759 225.331 402.214 225.221 401.714 225.001C401.214 224.771 400.814 224.396 400.514 223.876C400.214 223.356 400.064 222.671 400.064 221.821C400.064 221.041 400.214 220.391 400.514 219.871C400.824 219.341 401.254 218.946 401.804 218.686C402.364 218.416 403.004 218.281 403.724 218.281C404.234 218.281 404.704 218.346 405.134 218.476C405.574 218.606 405.924 218.756 406.184 218.926C406.354 219.036 406.489 219.171 406.589 219.331C406.699 219.481 406.754 219.666 406.754 219.886V224.566H404.954V220.051C404.824 219.971 404.664 219.901 404.474 219.841C404.284 219.781 404.049 219.751 403.769 219.751C403.219 219.751 402.769 219.921 402.419 220.261C402.079 220.601 401.909 221.121 401.909 221.821C401.909 222.591 402.074 223.131 402.404 223.441C402.744 223.751 403.159 223.906 403.649 223.906C404.029 223.906 404.334 223.841 404.564 223.711C404.804 223.581 405.004 223.441 405.164 223.291L405.224 224.791C405.044 224.931 404.794 225.056 404.474 225.166C404.164 225.276 403.789 225.331 403.349 225.331ZM404.984 225.631V224.161H406.754V225.691C406.754 226.371 406.599 226.921 406.289 227.341C405.979 227.771 405.554 228.086 405.014 228.286C404.484 228.486 403.889 228.586 403.229 228.586C402.709 228.586 402.254 228.536 401.864 228.436C401.484 228.336 401.204 228.231 401.024 228.121C400.694 227.921 400.529 227.646 400.529 227.296C400.529 227.116 400.569 226.956 400.649 226.816C400.729 226.676 400.824 226.571 400.934 226.501C401.184 226.661 401.494 226.801 401.864 226.921C402.244 227.041 402.644 227.101 403.064 227.101C403.664 227.101 404.134 226.981 404.474 226.741C404.814 226.511 404.984 226.141 404.984 225.631ZM408.566 216.376C408.566 216.086 408.666 215.841 408.866 215.641C409.076 215.441 409.336 215.341 409.646 215.341C409.966 215.341 410.221 215.441 410.411 215.641C410.611 215.841 410.711 216.086 410.711 216.376C410.711 216.656 410.611 216.901 410.411 217.111C410.221 217.311 409.966 217.411 409.646 217.411C409.336 217.411 409.076 217.311 408.866 217.111C408.666 216.901 408.566 216.656 408.566 216.376ZM408.716 221.626H410.576V225.556C410.496 225.586 410.381 225.611 410.231 225.631C410.081 225.661 409.916 225.676 409.736 225.676C409.396 225.676 409.141 225.616 408.971 225.496C408.801 225.366 408.716 225.141 408.716 224.821V221.626ZM410.576 222.571H408.716V218.551C408.796 218.521 408.911 218.496 409.061 218.476C409.221 218.446 409.391 218.431 409.571 218.431C409.921 218.431 410.176 218.496 410.336 218.626C410.496 218.746 410.576 218.971 410.576 219.301V222.571ZM418.057 223.576C418.057 224.276 417.797 224.826 417.277 225.226C416.757 225.616 416.002 225.811 415.012 225.811C414.212 225.811 413.557 225.691 413.047 225.451C412.537 225.211 412.282 224.891 412.282 224.491C412.282 224.321 412.322 224.166 412.402 224.026C412.482 223.876 412.587 223.761 412.717 223.681C412.997 223.861 413.322 224.021 413.692 224.161C414.062 224.301 414.482 224.371 414.952 224.371C415.802 224.371 416.227 224.111 416.227 223.591C416.227 223.371 416.152 223.196 416.002 223.066C415.852 222.926 415.622 222.826 415.312 222.766L414.457 222.541C413.727 222.381 413.182 222.131 412.822 221.791C412.472 221.451 412.297 220.996 412.297 220.426C412.297 219.796 412.557 219.281 413.077 218.881C413.597 218.471 414.317 218.266 415.237 218.266C415.717 218.266 416.147 218.316 416.527 218.416C416.907 218.506 417.202 218.641 417.412 218.821C417.632 219.001 417.742 219.216 417.742 219.466C417.742 219.636 417.702 219.791 417.622 219.931C417.552 220.061 417.457 220.161 417.337 220.231C417.217 220.161 417.052 220.086 416.842 220.006C416.642 219.916 416.412 219.846 416.152 219.796C415.892 219.736 415.632 219.706 415.372 219.706C414.982 219.706 414.672 219.771 414.442 219.901C414.222 220.021 414.112 220.196 414.112 220.426C414.112 220.596 414.177 220.741 414.307 220.861C414.437 220.981 414.657 221.076 414.967 221.146L415.732 221.326C416.542 221.516 417.132 221.796 417.502 222.166C417.872 222.526 418.057 222.996 418.057 223.576ZM419.614 221.626H421.459V223.396C421.459 223.726 421.554 223.961 421.744 224.101C421.944 224.241 422.224 224.311 422.584 224.311C422.744 224.311 422.914 224.291 423.094 224.251C423.284 224.211 423.444 224.161 423.574 224.101C423.644 224.181 423.709 224.276 423.769 224.386C423.829 224.496 423.859 224.631 423.859 224.791C423.859 225.081 423.719 225.321 423.439 225.511C423.169 225.701 422.744 225.796 422.164 225.796C421.374 225.796 420.749 225.621 420.289 225.271C419.839 224.911 419.614 224.331 419.614 223.531V221.626ZM420.739 220.096V218.641H423.679C423.719 218.711 423.759 218.811 423.799 218.941C423.849 219.071 423.874 219.206 423.874 219.346C423.874 219.596 423.814 219.786 423.694 219.916C423.574 220.036 423.419 220.096 423.229 220.096H420.739ZM421.459 222.031H419.614V216.631C419.694 216.601 419.809 216.571 419.959 216.541C420.119 216.511 420.284 216.496 420.454 216.496C420.804 216.496 421.059 216.561 421.219 216.691C421.379 216.811 421.459 217.031 421.459 217.351V222.031ZM427.201 220.186V222.241H425.356V220.036C425.356 219.786 425.416 219.576 425.536 219.406C425.656 219.226 425.826 219.061 426.046 218.911C426.346 218.731 426.726 218.581 427.186 218.461C427.646 218.341 428.141 218.281 428.671 218.281C429.611 218.281 430.081 218.571 430.081 219.151C430.081 219.291 430.061 219.421 430.021 219.541C429.981 219.651 429.931 219.751 429.871 219.841C429.771 219.821 429.646 219.806 429.496 219.796C429.346 219.776 429.186 219.766 429.016 219.766C428.656 219.766 428.316 219.806 427.996 219.886C427.686 219.956 427.421 220.056 427.201 220.186ZM425.356 221.626L427.201 221.716V225.556C427.121 225.586 427.006 225.611 426.856 225.631C426.706 225.661 426.541 225.676 426.361 225.676C426.021 225.676 425.766 225.616 425.596 225.496C425.436 225.366 425.356 225.141 425.356 224.821V221.626ZM433.946 224.401C434.246 224.401 434.516 224.371 434.756 224.311C434.996 224.251 435.171 224.186 435.281 224.116V222.406L433.796 222.556C433.386 222.586 433.071 222.676 432.851 222.826C432.641 222.966 432.536 223.176 432.536 223.456C432.536 223.746 432.651 223.976 432.881 224.146C433.111 224.316 433.466 224.401 433.946 224.401ZM433.871 218.281C434.851 218.281 435.631 218.491 436.211 218.911C436.791 219.321 437.081 219.971 437.081 220.861V224.311C437.081 224.551 437.021 224.741 436.901 224.881C436.791 225.021 436.646 225.146 436.466 225.256C436.186 225.416 435.831 225.546 435.401 225.646C434.971 225.756 434.486 225.811 433.946 225.811C432.946 225.811 432.161 225.621 431.591 225.241C431.021 224.851 430.736 224.276 430.736 223.516C430.736 222.846 430.946 222.336 431.366 221.986C431.796 221.626 432.416 221.406 433.226 221.326L435.266 221.116V220.846C435.266 220.446 435.126 220.156 434.846 219.976C434.576 219.796 434.191 219.706 433.691 219.706C433.301 219.706 432.921 219.756 432.551 219.856C432.181 219.956 431.851 220.076 431.561 220.216C431.461 220.136 431.371 220.026 431.291 219.886C431.211 219.746 431.171 219.601 431.171 219.451C431.171 219.091 431.371 218.826 431.771 218.656C432.051 218.526 432.376 218.431 432.746 218.371C433.126 218.311 433.501 218.281 433.871 218.281ZM440.824 220.186V222.241H438.979V220.036C438.979 219.786 439.039 219.576 439.159 219.406C439.279 219.226 439.449 219.061 439.669 218.911C439.969 218.731 440.349 218.581 440.809 218.461C441.269 218.341 441.764 218.281 442.294 218.281C443.234 218.281 443.704 218.571 443.704 219.151C443.704 219.291 443.684 219.421 443.644 219.541C443.604 219.651 443.554 219.751 443.494 219.841C443.394 219.821 443.269 219.806 443.119 219.796C442.969 219.776 442.809 219.766 442.639 219.766C442.279 219.766 441.939 219.806 441.619 219.886C441.309 219.956 441.044 220.056 440.824 220.186ZM438.979 221.626L440.824 221.716V225.556C440.744 225.586 440.629 225.611 440.479 225.631C440.329 225.661 440.164 225.676 439.984 225.676C439.644 225.676 439.389 225.616 439.219 225.496C439.059 225.366 438.979 225.141 438.979 224.821V221.626ZM454.889 222.031C454.889 222.801 454.739 223.471 454.439 224.041C454.139 224.601 453.714 225.036 453.164 225.346C452.624 225.646 451.984 225.796 451.244 225.796C450.504 225.796 449.859 225.646 449.309 225.346C448.759 225.036 448.329 224.601 448.019 224.041C447.719 223.481 447.569 222.811 447.569 222.031C447.569 221.261 447.724 220.596 448.034 220.036C448.344 219.476 448.774 219.046 449.324 218.746C449.874 218.436 450.514 218.281 451.244 218.281C451.974 218.281 452.609 218.436 453.149 218.746C453.699 219.046 454.124 219.481 454.424 220.051C454.734 220.611 454.889 221.271 454.889 222.031ZM451.244 219.751C450.694 219.751 450.259 219.951 449.939 220.351C449.629 220.751 449.474 221.311 449.474 222.031C449.474 222.771 449.629 223.341 449.939 223.741C450.249 224.131 450.684 224.326 451.244 224.326C451.794 224.326 452.224 224.126 452.534 223.726C452.844 223.326 452.999 222.761 452.999 222.031C452.999 221.321 452.844 220.766 452.534 220.366C452.224 219.956 451.794 219.751 451.244 219.751ZM461.317 220.186V222.241H459.472V220.036C459.472 219.786 459.532 219.576 459.652 219.406C459.772 219.226 459.942 219.061 460.162 218.911C460.462 218.731 460.842 218.581 461.302 218.461C461.762 218.341 462.257 218.281 462.787 218.281C463.727 218.281 464.197 218.571 464.197 219.151C464.197 219.291 464.177 219.421 464.137 219.541C464.097 219.651 464.047 219.751 463.987 219.841C463.887 219.821 463.762 219.806 463.612 219.796C463.462 219.776 463.302 219.766 463.132 219.766C462.772 219.766 462.432 219.806 462.112 219.886C461.802 219.956 461.537 220.056 461.317 220.186ZM459.472 221.626L461.317 221.716V225.556C461.237 225.586 461.122 225.611 460.972 225.631C460.822 225.661 460.657 225.676 460.477 225.676C460.137 225.676 459.882 225.616 459.712 225.496C459.552 225.366 459.472 225.141 459.472 224.821V221.626ZM466.024 222.976L465.949 221.686L469.969 221.086C469.939 220.706 469.794 220.376 469.534 220.096C469.274 219.816 468.894 219.676 468.394 219.676C467.884 219.676 467.459 219.856 467.119 220.216C466.779 220.566 466.604 221.071 466.594 221.731L466.639 222.511C466.729 223.151 466.974 223.621 467.374 223.921C467.784 224.221 468.299 224.371 468.919 224.371C469.339 224.371 469.729 224.311 470.089 224.191C470.449 224.061 470.734 223.921 470.944 223.771C471.084 223.861 471.194 223.976 471.274 224.116C471.364 224.246 471.409 224.391 471.409 224.551C471.409 224.811 471.294 225.036 471.064 225.226C470.834 225.406 470.524 225.546 470.134 225.646C469.744 225.746 469.299 225.796 468.799 225.796C468.029 225.796 467.344 225.656 466.744 225.376C466.154 225.086 465.689 224.656 465.349 224.086C465.019 223.516 464.854 222.806 464.854 221.956C464.854 221.346 464.949 220.811 465.139 220.351C465.329 219.891 465.584 219.511 465.904 219.211C466.234 218.901 466.614 218.671 467.044 218.521C467.474 218.361 467.924 218.281 468.394 218.281C469.054 218.281 469.629 218.416 470.119 218.686C470.619 218.946 471.009 219.311 471.289 219.781C471.579 220.251 471.724 220.791 471.724 221.401C471.724 221.681 471.649 221.891 471.499 222.031C471.359 222.161 471.159 222.241 470.899 222.271L466.024 222.976ZM478.746 223.576C478.746 224.276 478.486 224.826 477.966 225.226C477.446 225.616 476.691 225.811 475.701 225.811C474.901 225.811 474.246 225.691 473.736 225.451C473.226 225.211 472.971 224.891 472.971 224.491C472.971 224.321 473.011 224.166 473.091 224.026C473.171 223.876 473.276 223.761 473.406 223.681C473.686 223.861 474.011 224.021 474.381 224.161C474.751 224.301 475.171 224.371 475.641 224.371C476.491 224.371 476.916 224.111 476.916 223.591C476.916 223.371 476.841 223.196 476.691 223.066C476.541 222.926 476.311 222.826 476.001 222.766L475.146 222.541C474.416 222.381 473.871 222.131 473.511 221.791C473.161 221.451 472.986 220.996 472.986 220.426C472.986 219.796 473.246 219.281 473.766 218.881C474.286 218.471 475.006 218.266 475.926 218.266C476.406 218.266 476.836 218.316 477.216 218.416C477.596 218.506 477.891 218.641 478.101 218.821C478.321 219.001 478.431 219.216 478.431 219.466C478.431 219.636 478.391 219.791 478.311 219.931C478.241 220.061 478.146 220.161 478.026 220.231C477.906 220.161 477.741 220.086 477.531 220.006C477.331 219.916 477.101 219.846 476.841 219.796C476.581 219.736 476.321 219.706 476.061 219.706C475.671 219.706 475.361 219.771 475.131 219.901C474.911 220.021 474.801 220.196 474.801 220.426C474.801 220.596 474.866 220.741 474.996 220.861C475.126 220.981 475.346 221.076 475.656 221.146L476.421 221.326C477.231 221.516 477.821 221.796 478.191 222.166C478.561 222.526 478.746 222.996 478.746 223.576ZM480.287 222.871V221.686H482.132V222.841C482.132 223.371 482.267 223.751 482.537 223.981C482.817 224.211 483.202 224.326 483.692 224.326C484.012 224.326 484.282 224.296 484.502 224.236C484.722 224.176 484.887 224.111 484.997 224.041V221.686H486.842V224.191C486.842 224.421 486.802 224.616 486.722 224.776C486.652 224.926 486.512 225.066 486.302 225.196C486.012 225.366 485.642 225.506 485.192 225.616C484.752 225.736 484.247 225.796 483.677 225.796C482.987 225.796 482.387 225.696 481.877 225.496C481.367 225.296 480.972 224.981 480.692 224.551C480.422 224.111 480.287 223.551 480.287 222.871ZM486.842 222.406H484.997V218.506C485.077 218.486 485.192 218.466 485.342 218.446C485.502 218.416 485.667 218.401 485.837 218.401C486.187 218.401 486.442 218.461 486.602 218.581C486.762 218.701 486.842 218.926 486.842 219.256V222.406ZM482.132 222.406H480.287V218.506C480.367 218.486 480.482 218.466 480.632 218.446C480.782 218.416 480.947 218.401 481.127 218.401C481.477 218.401 481.732 218.461 481.892 218.581C482.052 218.701 482.132 218.926 482.132 219.256V222.406ZM488.874 221.626L490.719 221.716V225.556C490.639 225.586 490.524 225.611 490.374 225.631C490.224 225.661 490.059 225.676 489.879 225.676C489.539 225.676 489.284 225.616 489.114 225.496C488.954 225.366 488.874 225.141 488.874 224.821V221.626ZM490.719 222.661L488.874 222.571V215.836C488.944 215.816 489.054 215.791 489.204 215.761C489.364 215.731 489.529 215.716 489.699 215.716C490.059 215.716 490.319 215.781 490.479 215.911C490.639 216.031 490.719 216.251 490.719 216.571V222.661ZM492.739 221.626H494.584V223.396C494.584 223.726 494.679 223.961 494.869 224.101C495.069 224.241 495.349 224.311 495.709 224.311C495.869 224.311 496.039 224.291 496.219 224.251C496.409 224.211 496.569 224.161 496.699 224.101C496.769 224.181 496.834 224.276 496.894 224.386C496.954 224.496 496.984 224.631 496.984 224.791C496.984 225.081 496.844 225.321 496.564 225.511C496.294 225.701 495.869 225.796 495.289 225.796C494.499 225.796 493.874 225.621 493.414 225.271C492.964 224.911 492.739 224.331 492.739 223.531V221.626ZM493.864 220.096V218.641H496.804C496.844 218.711 496.884 218.811 496.924 218.941C496.974 219.071 496.999 219.206 496.999 219.346C496.999 219.596 496.939 219.786 496.819 219.916C496.699 220.036 496.544 220.096 496.354 220.096H493.864ZM494.584 222.031H492.739V216.631C492.819 216.601 492.934 216.571 493.084 216.541C493.244 216.511 493.409 216.496 493.579 216.496C493.929 216.496 494.184 216.561 494.344 216.691C494.504 216.811 494.584 217.031 494.584 217.351V222.031ZM501.314 224.401C501.614 224.401 501.884 224.371 502.124 224.311C502.364 224.251 502.539 224.186 502.649 224.116V222.406L501.164 222.556C500.754 222.586 500.439 222.676 500.219 222.826C500.009 222.966 499.904 223.176 499.904 223.456C499.904 223.746 500.019 223.976 500.249 224.146C500.479 224.316 500.834 224.401 501.314 224.401ZM501.239 218.281C502.219 218.281 502.999 218.491 503.579 218.911C504.159 219.321 504.449 219.971 504.449 220.861V224.311C504.449 224.551 504.389 224.741 504.269 224.881C504.159 225.021 504.014 225.146 503.834 225.256C503.554 225.416 503.199 225.546 502.769 225.646C502.339 225.756 501.854 225.811 501.314 225.811C500.314 225.811 499.529 225.621 498.959 225.241C498.389 224.851 498.104 224.276 498.104 223.516C498.104 222.846 498.314 222.336 498.734 221.986C499.164 221.626 499.784 221.406 500.594 221.326L502.634 221.116V220.846C502.634 220.446 502.494 220.156 502.214 219.976C501.944 219.796 501.559 219.706 501.059 219.706C500.669 219.706 500.289 219.756 499.919 219.856C499.549 219.956 499.219 220.076 498.929 220.216C498.829 220.136 498.739 220.026 498.659 219.886C498.579 219.746 498.539 219.601 498.539 219.451C498.539 219.091 498.739 218.826 499.139 218.656C499.419 218.526 499.744 218.431 500.114 218.371C500.494 218.311 500.869 218.281 501.239 218.281ZM511.042 224.026V219.316H512.887V224.221C512.887 224.441 512.837 224.626 512.737 224.776C512.647 224.916 512.497 225.051 512.287 225.181C512.047 225.341 511.717 225.481 511.297 225.601C510.887 225.731 510.417 225.796 509.887 225.796C509.097 225.796 508.407 225.666 507.817 225.406C507.237 225.136 506.787 224.726 506.467 224.176C506.147 223.616 505.987 222.911 505.987 222.061C505.987 221.191 506.147 220.476 506.467 219.916C506.797 219.356 507.237 218.946 507.787 218.686C508.337 218.416 508.947 218.281 509.617 218.281C509.987 218.281 510.322 218.326 510.622 218.416C510.932 218.506 511.182 218.611 511.372 218.731V220.306C511.212 220.156 511.002 220.026 510.742 219.916C510.482 219.806 510.182 219.751 509.842 219.751C509.472 219.751 509.137 219.831 508.837 219.991C508.537 220.141 508.302 220.391 508.132 220.741C507.962 221.081 507.877 221.526 507.877 222.076C507.877 222.856 508.057 223.426 508.417 223.786C508.777 224.146 509.262 224.326 509.872 224.326C510.142 224.326 510.372 224.296 510.562 224.236C510.752 224.176 510.912 224.106 511.042 224.026ZM512.887 219.691L511.042 219.706V215.836C511.112 215.816 511.222 215.791 511.372 215.761C511.532 215.731 511.697 215.716 511.867 215.716C512.227 215.716 512.487 215.781 512.647 215.911C512.807 216.031 512.887 216.251 512.887 216.571V219.691ZM521.803 222.031C521.803 222.801 521.653 223.471 521.353 224.041C521.053 224.601 520.628 225.036 520.078 225.346C519.538 225.646 518.898 225.796 518.158 225.796C517.418 225.796 516.773 225.646 516.223 225.346C515.673 225.036 515.243 224.601 514.933 224.041C514.633 223.481 514.483 222.811 514.483 222.031C514.483 221.261 514.638 220.596 514.948 220.036C515.258 219.476 515.688 219.046 516.238 218.746C516.788 218.436 517.428 218.281 518.158 218.281C518.888 218.281 519.523 218.436 520.063 218.746C520.613 219.046 521.038 219.481 521.338 220.051C521.648 220.611 521.803 221.271 521.803 222.031ZM518.158 219.751C517.608 219.751 517.173 219.951 516.853 220.351C516.543 220.751 516.388 221.311 516.388 222.031C516.388 222.771 516.543 223.341 516.853 223.741C517.163 224.131 517.598 224.326 518.158 224.326C518.708 224.326 519.138 224.126 519.448 223.726C519.758 223.326 519.913 222.761 519.913 222.031C519.913 221.321 519.758 220.766 519.448 220.366C519.138 219.956 518.708 219.751 518.158 219.751ZM525.408 217.036C525.408 217.296 525.403 217.651 525.393 218.101C525.383 218.541 525.368 219.021 525.348 219.541C525.328 220.061 525.298 220.576 525.258 221.086C525.228 221.596 525.193 222.056 525.153 222.466C525.083 222.516 524.973 222.561 524.823 222.601C524.683 222.631 524.553 222.646 524.433 222.646C524.233 222.646 524.058 222.611 523.908 222.541C523.768 222.461 523.683 222.326 523.653 222.136C523.623 221.876 523.593 221.511 523.563 221.041C523.533 220.571 523.508 220.056 523.488 219.496C523.468 218.926 523.453 218.371 523.443 217.831C523.433 217.291 523.428 216.816 523.428 216.406C523.748 216.226 524.098 216.136 524.478 216.136C524.778 216.136 525.008 216.211 525.168 216.361C525.328 216.501 525.408 216.726 525.408 217.036ZM523.323 224.686C523.323 224.366 523.423 224.101 523.623 223.891C523.823 223.681 524.098 223.576 524.448 223.576C524.798 223.576 525.073 223.681 525.273 223.891C525.473 224.101 525.573 224.366 525.573 224.686C525.573 225.006 525.473 225.271 525.273 225.481C525.073 225.691 524.798 225.796 524.448 225.796C524.098 225.796 523.823 225.691 523.623 225.481C523.423 225.271 523.323 225.006 523.323 224.686Z" fill="#66191B"/>
<defs>
<clipPath id="clip0_948_12830">
<rect width="100" height="83.0444" fill="white" transform="translate(351.5 116.541)"/>
</clipPath>
</defs>
</svg>
