<?xml version="1.0" encoding="UTF-8"?><svg id="Camada_1" xmlns="http://www.w3.org/2000/svg" viewBox="0 0 230 230"><defs><style>.cls-1,.cls-2{opacity:.1;}.cls-1,.cls-3{fill:#dedede;}.cls-2,.cls-4,.cls-5,.cls-6{fill:#fff;}.cls-7{opacity:.05;}.cls-8{fill:#f1c68e;}.cls-9{fill:#f1dec6;}.cls-10{fill:#e6cacc;}.cls-11{fill:#f19824;}.cls-12{fill:#99a6a6;}.cls-13{fill:#93a8b9;}.cls-14{fill:#666e6e;}.cls-15{fill:#cedae5;}.cls-16{fill:#bccccc;}.cls-17{fill:#aeb4c7;}.cls-18{fill:#bd710d;}.cls-19{fill:#cfe0e0;}.cls-20{fill:#c7cee3;}.cls-21{fill:#d6a9ac;}.cls-22{fill:#171a1a;}.cls-23{fill:#232626;}.cls-24{fill:#1d2121;}.cls-25{fill:#95c7de;}.cls-26{fill:#2f3333;}.cls-27{fill:#3a4040;}.cls-28{fill:#788585;}.cls-29{fill:#505757;}.cls-30{fill:#cee8e8;}.cls-30,.cls-31,.cls-4{opacity:.2;}.cls-31{fill:#7f8f8f;}.cls-32{opacity:.15;}.cls-33{fill:#abc1cc;opacity:.6;}.cls-5{opacity:.5;}.cls-6{opacity:.3;}.cls-3{opacity:.4;}</style></defs><g><polygon class="cls-10" points="0 140.35 230 42.88 230 230 0 230 0 140.35"/><polygon class="cls-21" points="0 148.82 230 51.42 230 230 0 230 0 148.82"/><polygon class="cls-10" points="0 157.57 230 60.7 230 230 0 230 0 157.57"/><polygon class="cls-21" points="0 207.6 230 110.73 230 230 0 230 0 207.6"/><polygon class="cls-10" points="0 217.6 230 120.74 230 230 0 230 0 217.6"/><polygon class="cls-21" points="230 167.95 230 230 91.66 230 230 167.95"/><polygon class="cls-10" points="230 179.05 230 230 114.78 230 230 179.05"/></g><g><g class="cls-32"><path class="cls-24" d="M68.93,179.15s-9.49,8.03-10.61,25.8l70.1,27.05,.75-33.65-60.24-19.21Z"/><path class="cls-24" d="M168.01,163.81s6.92,6.92,10.4,19.42c0,0-24.4,29.34-50,48.77l.75-33.61,38.84-34.59Z"/></g><g><path class="cls-16" d="M68.08,177.44s-9.49,8.03-10.61,25.8l70.1,27.05,.75-33.65-60.24-19.21Z"/><path class="cls-19" d="M167.16,162.1s6.92,6.92,10.4,19.42c0,0-24.4,29.34-50,48.77l.75-33.61,38.84-34.59Z"/></g><g><path class="cls-24" d="M167.16,162.1c-.05,.58-.32,1.14-.77,1.6l-29.19,30.13c-3.86,3.89-10.47,5.17-16.08,3.12l-52.15-19.05c-1.37-.5-2.26-1.6-2.27-2.82l-.02-1.73,45.67-28.53,55.11,13.9-.32,3.38Z"/><path class="cls-26" d="M167.19,159.69l-31.24,30.8c-3.44,3.39-9.24,4.52-14.21,2.77l-54.55-19.22c-.54-.19-.65-.77-.2-1.08l44.85-31.09,54.82,16.24c.8,.24,1.07,1.05,.53,1.58Z"/></g><g><path class="cls-33" d="M66.04,52.71c-.01,.96,.14,1.91,.48,2.85,0,.01,.01,.04,.01,.05h0c.48,2.99,1.3,8.05,2.29,14.18,0,0-19.77-13.2-14.78-16.53,14.2-9.48,21.22-12.05,22.03-12.32-6.23,3.22-9.96,7.28-10.03,11.77Z"/><path class="cls-33" d="M66.53,55.62c.09,.23,.16,.45,.26,.68-.1-.23-.19-.44-.26-.66h0Z"/><path class="cls-33" d="M151.93,126.74c-6.61,54.38-15.95,53.64-35.92,53.55-23.35-.1-28.01,2.69-37.96-54.64-2.65-15.29-9.67-58.57-11.54-70.09,.65,1.95,2.01,3.83,3.97,5.57,2.45,16.42,7.73,51.46,9.9,63.94,9.3,53.51,13.65,50.9,35.43,51,18.64,.07,27.36,.76,33.52-49.97,1.2-9.91,10.02-36,9.53-65.83,1.6-1.91,2.48-3.98,2.51-6.14,2.58,35.37-8.05,61.11-9.45,72.62Z"/><path class="cls-9" d="M149.33,126.09c-6.16,50.74-14.88,50.05-33.52,49.97-21.78-.1-26.14,2.51-35.43-51-2.16-12.47-7.44-47.52-9.9-63.94,7.53,6.74,23.9,11.56,42.94,11.85,21.06,.31,39.01-5.03,45.44-12.71,.49,29.83-8.33,55.92-9.53,65.83Z"/><ellipse class="cls-30" cx="113.71" cy="53.41" rx="16.74" ry="40.8" transform="translate(58.63 166.33) rotate(-89.15)"/><path class="cls-33" d="M114,33.86c-26.33-.4-47.8,8.05-47.96,18.86-.15,10.8,21.06,19.88,47.38,20.27,26.33,.39,47.8-8.06,47.96-18.87,.15-10.8-21.06-19.87-47.38-20.26Zm-.54,36.3c-22.52-.34-40.68-8.1-40.54-17.34,.14-9.25,18.51-16.48,41.04-16.14,22.52,.34,40.68,8.1,40.54,17.34s-18.51,16.48-41.04,16.14Z"/><path class="cls-31" d="M154.43,54.92c-1.28,8.82-19.18,15.56-40.96,15.23-19.36-.29-35.5-6.06-39.55-13.55,1.28-8.82,19.18-15.56,40.96-15.23,19.38,.29,35.5,6.06,39.55,13.55Z"/><path class="cls-25" d="M154.34,55.37c-1.8,8.59-19.46,15.1-40.88,14.79-17.97-.27-33.18-5.28-38.5-11.99,1.8-8.59,19.46-15.11,40.88-14.79,17.99,.27,33.2,5.28,38.5,11.99Z"/><path class="cls-25" d="M154.34,55.37c-1.8,8.59-19.46,15.1-40.88,14.79-17.97-.27-33.18-5.28-38.5-11.99,1.8-8.59,19.46-15.11,40.88-14.79,17.99,.27,33.2,5.28,38.5,11.99Z"/><path class="cls-8" d="M154.34,55.37c-.91,4.26-5.69,8-12.89,10.66-7.35,2.71-17.19,4.29-27.99,4.13-10.4-.15-19.88-1.89-27.05-4.64-5.22-1.99-9.22-4.52-11.46-7.35,1.8-8.59,19.46-15.11,40.88-14.79,17.99,.27,33.2,5.28,38.5,11.99Z"/><path class="cls-2" d="M151.75,59.92c-2.25,2.36-5.79,4.44-10.3,6.1-7.35,2.71-17.19,4.29-27.99,4.13-10.4-.15-19.88-1.89-27.05-4.64-3.65-1.39-6.7-3.05-8.97-4.89,5.95-6.21,20.88-10.47,38.29-10.22,15.71,.23,29.29,4.09,36.02,9.51Z"/><path class="cls-2" d="M151.75,59.92c-2.25,2.36-5.79,4.44-10.3,6.1-7.35,2.71-7.02-15.92-43.06-8.89-10.21,1.99-4.81,11.14-11.98,8.38-3.65-1.39-6.7-3.05-8.97-4.89,5.95-6.21,20.88-10.47,38.29-10.22,15.71,.23,29.29,4.09,36.02,9.51Z"/><path class="cls-4" d="M150.65,56.64c-7.04-4.99-20.02-8.47-34.92-8.68-16.42-.25-30.63,3.53-37.19,9.17-3.58-2.43,19.24-13.03,36.65-12.77,15.71,.23,39.31,9.66,35.46,12.28Z"/><path class="cls-4" d="M145.17,60.41c-.02,1.13-1.85,3.68-4.98,1.98-2.4-1.31-4.93-.99-4.92-2.13s3.61-2.73,6.34-2.69c2.73,.04,3.57,1.7,3.56,2.84Z"/><path class="cls-4" d="M97.23,61.83c.32-1.09,2.77-3.06,5.32-.59,1.96,1.9,4.49,2.27,4.18,3.36-.32,1.09-4.2,1.67-6.82,.91s-2.99-2.59-2.68-3.68Z"/><path class="cls-30" d="M149.33,126.09c-6.16,50.74-14.88,50.05-33.52,49.97-21.78-.1-26.14,2.51-35.43-51-2.16-12.47-7.44-47.52-9.9-63.94,7.53,6.74,23.9,11.56,42.94,11.85,21.06,.31,39.01-5.03,45.44-12.71,.49,29.83-8.33,55.92-9.53,65.83Z"/><g><path class="cls-6" d="M106.01,176.34l-2.83-.27-10.8-105.4c1.43,.3,2.88,.59,4.38,.84l9.25,104.84Z"/><path class="cls-6" d="M136.34,70.91l-10.77,105.15-2.82,.27,9.22-104.62c1.5-.24,2.95-.5,4.37-.8Z"/><path class="cls-6" d="M155.31,63.49l-14.31,102.05-3.18,4.35,12.24-103.37c1.98-.94,3.74-1.95,5.26-3.03Z"/><path class="cls-6" d="M94.87,172.13l-3.25-4.14-13.93-102.21c1.58,.78,3.29,1.49,5.12,2.15l12.06,104.2Z"/><path class="cls-6" d="M117.56,72.98l-1.03,103.1h-3.72l.21-103.1h.39c.99,.01,1.96,.01,2.93,0h1.21Z"/></g><g><path class="cls-3" d="M148.65,108.89l14.7,.75,1.24-3.57s-3.37,1.82-4.71,1.72c-5.59-.4-11.23,1.1-11.23,1.1Z"/><path class="cls-23" d="M149.2,71.59l12.58-9.84,12.12,3.58s9.78,50.4-5.36,54.57c-8.65,2.38-20.09,2.81-20.09,2.81l.2-13.82,8.27-3.99,7.67,1.17,.63-30.62-7.79-1.11-8.3,1.78,.07-4.54Z"/><path class="cls-3" d="M173.9,65.33l-4.66,4.46c3.75-4.14-.18-6.6-7.46-8.04l12.12,3.58Z"/><path class="cls-3" d="M175.17,94.66c.33,4.51-1.68,19.17-.97,17.6,2.79-6.19,1.7-27.56,1.43-28.84s-.6,9.35-.46,11.24Z"/><polygon class="cls-3" points="148.65 108.89 164.54 109.66 164.59 106.08 156.92 104.91 148.65 108.89"/><path class="cls-1" d="M164.54,109.66c-8.87,1.16-13.69,6-16.09,13.05l.2-13.82,15.89,.76Z"/></g><path class="cls-6" d="M55.23,54.7l10.52,.66,2.16,12.33s-11.89-7.58-12.67-13Z"/><path class="cls-5" d="M56.85,55.59l8.25,.52,1.69,9.68s-9.33-5.94-9.94-10.2Z"/><path class="cls-7" d="M55.23,54.7l17.7-11.34,3.15,3.12c-3.54,3.99-4.39,7.89-1.12,11.68l-9.22-2.8-10.52-.66Z"/><path class="cls-7" d="M73.15,54.95l-1.39-.53-10.45-1.39,13.78-7.54,.99,.99c-2.55,2.88-3.7,5.71-2.93,8.47Z"/><path class="cls-7" d="M75.1,47.66c-1.36,1.81-2.13,3.6-2.19,5.37l-6.12-.81,8.31-4.55Z"/></g><ellipse class="cls-27" cx="94.95" cy="201.92" rx="11.4" ry="12.52" transform="translate(-127.89 213.29) rotate(-67.74)"/><ellipse class="cls-14" cx="92.89" cy="201.92" rx="11.4" ry="12.52" transform="translate(-129.17 211.39) rotate(-67.74)"/><path class="cls-28" d="M94.6,213.46c-1.97,.14-4.04-.17-6.03-.99-6.4-2.62-9.65-9.47-7.26-15.3,1.85-4.54,6.58-7.11,11.6-6.8-4.34,.31-8.22,2.79-9.87,6.8-2.38,5.83,.87,12.68,7.27,15.3,1.42,.58,2.87,.9,4.29,.99Z"/><g><path class="cls-22" d="M97.49,199.86l-7.88,12.06c-.15-.06-.3-.12-.44-.19-.51-.22-.99-.47-1.46-.75l-.79-.51s-.06-.05-.09-.07c-.07-.05-.14-.11-.23-.16l8.01-12.25c.46-.71,1.37-.92,2.1-.51,.04,.01,.07,.03,.1,.05l.21,.14c.73,.48,.93,1.46,.46,2.19Z"/><path class="cls-26" d="M97.1,199.6l-7.92,12.13c-.51-.22-.99-.47-1.46-.75l-.79-.51s-.06-.05-.09-.07c-.07-.05-.14-.11-.23-.16-.12-.1-.25-.19-.37-.3l7.98-12.21c.48-.74,1.46-.94,2.2-.46l.21,.14s.06,.04,.08,.07c.66,.49,.83,1.42,.37,2.12Z"/><path class="cls-29" d="M97.04,197.82l-.21-.14c-.74-.48-1.71-.28-2.2,.46l-7.95,12.16s-.04-.03-.07-.05c-.12-.1-.25-.19-.37-.3l7.98-12.21c.48-.74,1.46-.94,2.2-.46l.21,.14s.06,.04,.08,.07c.13,.09,.24,.21,.32,.33Z"/><path class="cls-12" d="M97.02,194.62l2.11,1.38c.16,.11,.38,0,.38-.2l.02-2.34c0-.18-.18-.3-.35-.23l-2.13,.96c-.18,.08-.2,.33-.03,.43Z"/><path class="cls-16" d="M96.89,194.48l2.11,1.38c.16,.11,.38,0,.38-.2l.02-2.34c0-.18-.18-.3-.35-.23l-2.13,.96c-.18,.08-.2,.33-.03,.43Z"/></g></g><g><g><path class="cls-20" d="M153.67,33.15c-.34-.61,12.92-10.35,37.84-18.5C216.2,6.58,211.32,.29,211.32,.29c-24.92,13.22-45.5,18.83-53.59,26.81l-4.06,6.04Z"/><path class="cls-13" d="M153.97,32.7l-.3,.45c-.04-.06,.06-.21,.3-.45Z"/><path class="cls-13" d="M153.97,32.7l-.3,.45c-.04-.06,.06-.21,.3-.45Z"/><path class="cls-17" d="M211.7,1.52v.02c.12,2.23-2.08,7.19-20.19,13.11-22.43,7.34-35.43,15.97-37.54,18.05l1.95-2.9c7.69-10.28,51.53-21.3,55.78-28.28Z"/><path class="cls-20" d="M125.17,41.7c.79,1.8,27.71,.26,32.77-14.43l-32.77,14.43Z"/><ellipse class="cls-15" cx="141.56" cy="34.49" rx="17.9" ry="1.97" transform="translate(-1.9 59.95) rotate(-23.76)"/></g><path class="cls-11" d="M125.27,41.91c3.91,.63,30.54-10.67,32.77-14.43,0,0-1.44-1.51-7.11-.92-3.87,.4-13.68-2.66-15.46,1.57-1.78,4.23-12.2,7.77-10.2,13.77Z"/><path class="cls-18" d="M150.93,26.57c-2.82,.56-5.77,.09-8.6,.12-1.91,.05-4.02-.04-5.47,1.14-.43,.42-.66,1.12-.98,1.63-2.73,4.26-11.57,6.76-10.61,12.45-.67-1.39-.57-3,.1-4.38,1.96-3.89,6.37-5.86,8.85-9.18,2.64-6.14,11.81-2.1,16.72-1.79h0Z"/><circle class="cls-18" cx="135.34" cy="32.97" r=".7"/><circle class="cls-18" cx="142.28" cy="30.69" r=".7"/><circle class="cls-18" cx="138.6" cy="35.39" r=".7"/></g></svg>