<svg width="33" height="33" viewBox="0 0 33 33" fill="none" xmlns="http://www.w3.org/2000/svg">
<g clip-path="url(#clip0_224_6051)">
<path d="M30.1293 3.37449C31.0145 4.68449 31.0195 6.44949 30.1443 7.76949C29.3641 8.94949 28.1339 9.55449 26.8936 9.58449L31.6346 14.3245C32.5748 15.2645 32.5698 16.7895 31.6346 17.7245L28.0188 21.3395C27.6087 21.7495 26.9286 21.5995 26.6885 21.0695C26.4235 20.4845 26.0134 19.9545 25.4483 19.5245C24.028 18.4445 21.9925 18.4595 20.5822 19.5595C18.6518 21.0695 18.5218 23.8795 20.2072 25.5595C20.5622 25.9145 20.9623 26.1845 21.3924 26.3795C21.9225 26.6195 22.0676 27.2945 21.6575 27.7045L18.0417 31.3195C17.1015 32.2595 15.5812 32.2595 14.641 31.3195L9.89994 26.5795C9.86494 27.8195 9.25981 29.0445 8.08455 29.8295C6.76927 30.7095 5.00389 30.7045 3.68861 29.8245C1.51814 28.3645 1.3081 25.3945 3.05848 23.6445C3.81364 22.8895 4.79385 22.4995 5.78406 22.4695L1.04304 17.7245C0.10284 16.7845 0.10284 15.2645 1.04304 14.3245L4.65882 10.7095C5.06891 10.2995 5.74905 10.4495 5.9891 10.9795C6.25416 11.5645 6.66425 12.0945 7.22937 12.5245C8.64968 13.6045 10.6851 13.5895 12.0954 12.4895C14.0258 10.9795 14.1559 8.16949 12.4705 6.48949C12.1154 6.13449 11.7153 5.86449 11.2852 5.66949C10.7551 5.42949 10.6101 4.75449 11.0202 4.34449L14.641 0.729493C15.5762 -0.205507 17.1015 -0.210507 18.0417 0.729493L22.7827 5.46949C22.8077 4.48449 23.1978 3.50449 23.948 2.74949C25.6983 0.999493 28.669 1.20949 30.1293 3.37449Z" fill="#F96163"/>
</g>
<defs>
<clipPath id="clip0_224_6051">
<rect width="32" height="32" fill="white" transform="translate(0.337891 0.0253906)"/>
</clipPath>
</defs>
</svg>
