<?xml version="1.0" encoding="UTF-8"?><svg id="Camada_1" xmlns="http://www.w3.org/2000/svg" viewBox="0 0 32 32"><defs><style>.cls-1{fill:#242424;}</style></defs><path class="cls-1" d="M22.36,5.72L17.06,.42c-.56-.56-1.56-.56-2.12,0l-5.29,5.3c-.59,.59-.59,1.54,0,2.12,.59,.59,1.54,.59,2.12,0l2.73-2.73v14.94c0,.83,.67,1.5,1.5,1.5s1.5-.67,1.5-1.5V5.1l2.74,2.74c.29,.29,.68,.44,1.06,.44s.77-.15,1.06-.44c.59-.59,.59-1.54,0-2.12Z"/><path class="cls-1" d="M28.25,11.93h-6.75c-.55,0-1,.45-1,1v1c0,.55,.45,1,1,1h4.71c.3,0,.54,.24,.54,.54v12.99c0,.3-.24,.54-.54,.54H5.79c-.3,0-.54-.24-.54-.54V15.47c0-.3,.24-.54,.54-.54h4.71c.55,0,1-.45,1-1v-1c0-.55-.45-1-1-1H3.75c-.83,0-1.5,.67-1.5,1.5V30.5c0,.83,.67,1.5,1.5,1.5H28.25c.83,0,1.5-.67,1.5-1.5V13.43c0-.83-.67-1.5-1.5-1.5Z"/></svg>