<?xml version="1.0" encoding="UTF-8"?><svg id="Camada_1" xmlns="http://www.w3.org/2000/svg" viewBox="0 0 230 230"><defs><style>.cls-1,.cls-2{opacity:.1;}.cls-1,.cls-3{fill:#c1cad6;}.cls-2,.cls-4{fill:#fff;}.cls-5{fill:#f5c465;}.cls-6{fill:#f5d491;}.cls-7{fill:#e6b147;}.cls-8{fill:#e3b684;}.cls-9{fill:#e6c27a;}.cls-10{fill:#8c939c;}.cls-11{fill:#d1a140;}.cls-12{fill:#deaf50;}.cls-13{fill:#d8e3f0;}.cls-14{fill:#b07c43;}.cls-15{fill:#c8d2de;}.cls-16{fill:#d69751;}.cls-17{fill:#d6d0c5;}.cls-18{fill:#452a12;}.cls-19{fill:#2e1c0d;}.cls-20{fill:#26170b;}.cls-4{opacity:.15;}.cls-21{fill:#3b2d13;opacity:.2;}.cls-22{fill:#3e3e42;opacity:.4;}</style></defs><rect class="cls-17" x="0" width="230" height="114.7"/><polygon class="cls-8" points="230 29.66 115 83.93 0 29.66 0 139.46 114.22 92.13 230 139.46 230 29.66"/><g><path class="cls-14" d="M230,146.46l-122.95,82.81c-1.55,1.05-3.61,.96-5.07-.21L0,146.46v-4.91l113.02-50.98,116.98,51.52v4.37Z"/><path class="cls-16" d="M228.86,144.1l-120.24,81.03c-2.49,1.68-5.78,1.54-8.13-.34L1.3,145.02c-2.01-1.61-1.62-4.77,.71-5.86l111.01-51.66,115.46,52.12c1.84,.83,2.06,3.36,.38,4.49Z"/><path class="cls-14" d="M208.32,148.52l-97.49,65.7c-2.88,1.94-6.68,1.78-9.39-.4L20.51,148.76c-2.76-2.22-2.23-6.57,.98-8.06l91.35-42.51c.28-.13,.61-.13,.89,0l93.91,42.39c3.27,1.47,3.65,5.96,.67,7.96Z"/><path class="cls-16" d="M204.85,146.97l-94.37,63.59c-2.29,1.55-5.33,1.42-7.48-.32L24.21,146.9c-1.13-.9-.91-2.68,.4-3.29l88.79-41.32,91.15,41.14c1.45,.66,1.62,2.65,.3,3.54Z"/><path class="cls-14" d="M172.9,149.74l-59.01,39.77c-2.49,1.68-5.78,1.54-8.13-.34l-49.03-39.42,57.19-26.62,58.97,26.62Z"/><path class="cls-16" d="M164.93,150.84l-50.34,33.92c-2.49,1.68-5.78,1.54-8.13-.34l-41.76-33.58,49.34-22.96,50.88,22.96Z"/></g><g><polygon class="cls-16" points="113.02 87.5 230 32.29 230 142.09 113.02 87.5"/><polygon class="cls-16" points="116.98 87.5 0 32.29 0 142.09 116.98 87.5"/></g><g><g><path class="cls-22" d="M164.85,62.42c0,16.5-9.35,27.33-46.24,28.56-31.01,1.03-51.74-12.05-51.74-28.56s21.93-29.88,48.99-29.88,48.99,13.38,48.99,29.88Z"/><ellipse class="cls-10" cx="115" cy="59.27" rx="49.85" ry="30.47"/><ellipse class="cls-15" cx="115" cy="57.97" rx="49.85" ry="29.17"/><ellipse class="cls-13" cx="115.74" cy="59.02" rx="33.89" ry="18.55"/><path class="cls-3" d="M148.88,49.85c-6.36-5.4-17.43-8.97-30.04-8.97-19.72,0-35.71,8.75-35.71,19.54,0,3.11,1.32,6.04,3.68,8.65-3.6-3.05-5.69-6.69-5.69-10.59,0-10.79,15.99-19.54,35.71-19.54,14.06,0,26.22,4.45,32.05,10.91Z"/></g><g><path class="cls-19" d="M86.55,69.33c5.21,7.72,22.18,17.22,43.06,9.15,20.88-8.08,25.56-11.44,23.51-19.97-2.05-8.53-13.43-21.72-21.13-21.61-8.94,.12-17.24,4.8-25.99,2.09-12.68-3.93-16.74,9.02-19.45,14.1-3.12,5.83-1.4,14.18,0,16.26Z"/><path class="cls-18" d="M86.55,68.95c5.21,7.24,22.18,16.16,43.06,8.58s25.56-10.74,23.51-18.74c-2.05-8-13.43-20.37-21.13-20.28-8.94,.11-17.24,4.51-25.99,1.96-12.68-3.69-16.74,8.46-19.45,13.23-3.12,5.47-1.4,13.31,0,15.25Z"/><path class="cls-4" d="M99.24,42.07c1.41,.93-.95,1.86-3.11,3.57s-5.07,5.9-3.82,3.26,5.03-8.08,6.94-6.83Z"/><path class="cls-2" d="M86.64,60.14c.07,6.66,1.66,10.23,13.6,16.32,7.45,3.8,16.83,1.75,16.83,1.75-3.74-.68-22.68,.09-30.42-18.07Z"/><path class="cls-1" d="M122.36,67.62s7.63-2.06,9.87,.54,2.33,3.13,2.33,3.13c0,0-4.53-2.76-10.12-2.6-3.05,.09-2.08-1.07-2.08-1.07Z"/><path class="cls-1" d="M152.23,60.89c-.12,4.09-4.81,8.22-7.85,8.86-8.25,1.73,1.84-2.68,4.18-4.64s3.7-5.25,3.67-4.22Z"/><path class="cls-1" d="M131.39,42.7c7.46-1.26,17.67,10.04,14.68,9.21-5.8-1.61-2.34-2.32-9.76-6.56-2.65-1.52-5.95-2.47-4.92-2.65Z"/><path class="cls-1" d="M103.98,56.45c4.03-3.79,14.28,5.57,15.06,8.57s-2.69-3.71-7.33-5.89c-2.76-1.29-8.85-1.64-7.73-2.69Z"/><path class="cls-4" d="M111.91,42.6s6.38,.32,8.74-1.1,4.25,1.97,1.97,1.97-7.95,1.26-10.71-.87Z"/></g></g><g><polygon class="cls-21" points="212.08 93.81 175.53 78.5 175.53 93.7 212.08 110.19 223.59 100.61 223.59 84.29 212.08 93.81"/><g><polygon class="cls-11" points="175.53 92.9 212.08 109.4 212.08 93.02 175.53 77.71 175.53 93.02 175.53 92.9"/><polygon class="cls-5" points="212.08 93.02 223.59 83.5 223.59 99.82 212.08 109.4 212.08 93.02"/><path class="cls-9" d="M223.59,83.5c-1.49,9.06-4.26,1.95-11.51,9.06-12.52,4.04-27.82-11.01-36.55-14.84l11.3-8.43,36.76,14.21Z"/><path class="cls-7" d="M223.59,83.5c-1.49,9.06-4.26,2.95-11.51,10.06-12.52,4.04-27.82-12.01-36.55-15.85l11.4-7.65,36.66,13.44Z"/><path class="cls-5" d="M191.47,83.5c-.65,1.99,7.27,3.8,10.72,3.75,2.84-.04-10.01-5.93-10.72-3.75Z"/><path class="cls-5" d="M214.64,89.83c.97-1.86-6.54-4.96-9.95-5.48-2.81-.43,8.88,7.52,9.95,5.48Z"/><polygon class="cls-11" points="212.08 99.8 215.81 98.02 212.08 102.91 212.08 99.8"/><path class="cls-6" d="M223.16,88.47s-1.25,2.1-1.63,2.37c-1.01,.74-.4,1.21,.1,1.21,1.5,0,1.53-3.58,1.53-3.58Z"/><path class="cls-6" d="M218.28,100.04s2.32-.73,2.84-1.51,1.13,1.48-.45,1.64-2.21,.63-2.4-.13Z"/><path class="cls-12" d="M177.3,82.13s4.39,5.81,7.46,6.59c3.07,.78,.53,1.68-1.32,1.31s-6.44-4.2-6.87-6.53,.74-1.37,.74-1.37Z"/><path class="cls-12" d="M193.8,95.32s3.51,3.56,5.76,2.09-1.19,.18-2.29-.55-3.46-1.53-3.46-1.53Z"/></g></g><g><path class="cls-19" d="M67.52,99.07c-3.82,6.52-12.98,8.13-19.04,8.26-6.45,.14-15.23-1.53-18.9-8.71-4.21-8.24,4.78-30.29,21.59-26.98,18.41,3.62,20.52,20.31,16.35,27.44Z"/><path class="cls-18" d="M68.21,98.76c-3.82,6.1-12.98,7.6-19.04,7.72-6.45,.13-15.23-1.43-18.9-8.15-4.21-7.71,4.78-28.33,21.59-25.24,18.41,3.39,20.52,19,16.35,25.66Z"/><path class="cls-4" d="M42.44,75.47c-2.91,.98-6.49,2.77-9.1,8.28-2.93,6.19,5.37-4.84,8.96-6.21,4.21-1.61,5.02-3.71,.14-2.06Z"/><path class="cls-4" d="M59.18,78.33c4.23-.94,8.07,5.9,7.53,9.01-.4,2.3-1.27-4.98-4.82-6.26-2.5-.91-5.89-2.04-2.71-2.75Z"/></g><g><path class="cls-19" d="M35.87,108.82c-3.51,6-11.95,7.48-17.52,7.6-5.93,.13-14.02-1.41-17.4-8.02-3.88-7.58,4.4-27.88,19.87-24.83,16.94,3.33,18.89,18.69,15.05,25.25Z"/><path class="cls-18" d="M36.5,108.54c-3.51,5.61-11.95,7-17.52,7.11-5.93,.12-14.02-1.32-17.4-7.5-3.88-7.09,4.4-26.07,19.87-23.23,16.94,3.12,18.89,17.48,15.05,23.62Z"/><path class="cls-4" d="M12.79,87.11c-2.68,.91-5.98,2.55-8.38,7.62-2.7,5.69,4.94-4.45,8.25-5.72,3.88-1.48,4.62-3.42,.13-1.9Z"/><path class="cls-4" d="M28.19,89.74c3.89-.86,7.43,5.43,6.93,8.29-.37,2.12-1.17-4.59-4.43-5.76-2.3-.83-5.42-1.88-2.5-2.53Z"/></g><g><path class="cls-19" d="M23.77,118.69c3.01,5.15,10.24,6.41,15.02,6.51,5.09,.11,12.02-1.21,14.92-6.87,3.33-6.5-3.77-23.91-17.04-21.29-14.53,2.86-16.2,16.03-12.9,21.65Z"/><path class="cls-18" d="M23.23,118.45c3.01,4.81,10.24,6,15.02,6.09,5.09,.1,12.02-1.13,14.92-6.43,3.33-6.08-3.77-22.36-17.04-19.92-14.53,2.67-16.2,14.99-12.9,20.25Z"/><path class="cls-4" d="M43.57,100.07c2.3,.78,5.12,2.19,7.18,6.53,2.31,4.88-4.24-3.82-7.07-4.9-3.33-1.27-3.96-2.93-.11-1.63Z"/><path class="cls-4" d="M30.35,102.32c-3.34-.74-6.37,4.66-5.94,7.11,.32,1.81,1.01-3.93,3.8-4.94,1.97-.71,4.64-1.61,2.14-2.17Z"/></g><g><g><path class="cls-19" d="M88.28,159c5.57,9.45,18.94,11.78,27.77,11.97,9.4,.2,22.22-2.22,27.57-12.62,6.15-11.94,.63-47.15-31.49-39.11-26.58,6.65-29.94,29.44-23.85,39.77Z"/><path class="cls-18" d="M88.28,156.64c5.57,8.9,18.94,11.09,27.77,11.26,9.4,.19,22.22-2.09,27.57-11.88,6.15-11.24,.63-44.39-31.49-36.82-26.58,6.26-29.94,27.71-23.85,37.44Z"/><path class="cls-4" d="M124.02,124.39s9.98-.25,12.69,9.36-5.79-2.83-8.62-2.83-9.61-5.79-4.07-6.53Z"/><path class="cls-4" d="M100.86,129.76c-6.21,1.13-11.96,9.4-8.31,12.19,1.62,1.24-.04-5.2,5.13-7.07,3.65-1.32,4.5-5.36,3.18-5.13Z"/></g><rect class="cls-20" x="93.43" y="125.24" width="8.06" height="3.12" rx="1.56" ry="1.56" transform="translate(219.24 230.46) rotate(167.96)"/><rect class="cls-20" x="102.99" y="128.39" width="8.06" height="3.12" rx="1.56" ry="1.56" transform="translate(275.33 126.31) rotate(128.24)"/><rect class="cls-20" x="86.1" y="131.89" width="8.06" height="3.12" rx="1.56" ry="1.56" transform="translate(250.73 145.25) rotate(128.24)"/><rect class="cls-20" x="87.9" y="142.95" width="8.06" height="3.12" rx="1.56" ry="1.56" transform="translate(96.28 -26.71) rotate(33.92)"/><rect class="cls-20" x="81.85" y="141.01" width="8.06" height="3.12" rx="1.56" ry="1.56" transform="translate(252.28 139.48) rotate(120)"/><rect class="cls-20" x="97.41" y="137.31" width="8.06" height="3.12" rx="1.56" ry="1.56" transform="translate(94.76 -32.97) rotate(33.92)"/><rect class="cls-20" x="99.38" y="120.8" width="8.06" height="3.12" rx="1.56" ry="1.56" transform="translate(85.88 -36.88) rotate(33.92)"/><rect class="cls-20" x="107.18" y="118.63" width="8.06" height="3.12" rx="1.56" ry="1.56" transform="translate(273 94.96) rotate(123.92)"/><rect class="cls-20" x="105.96" y="133.23" width="8.06" height="3.12" rx="1.56" ry="1.56" transform="translate(277.36 87.32) rotate(113.38)"/><rect class="cls-20" x="110.79" y="123.12" width="8.06" height="3.12" rx="1.56" ry="1.56" transform="translate(237.29 241.87) rotate(176.38)"/><rect class="cls-20" x="115.26" y="117.75" width="8.06" height="3.12" rx="1.56" ry="1.56" transform="translate(286.37 142.74) rotate(142.98)"/><rect class="cls-20" x="123.14" y="118.63" width="8.06" height="3.12" rx="1.56" ry="1.56" transform="translate(261.68 232.1) rotate(176.38)"/><rect class="cls-20" x="112.95" y="131.33" width="8.06" height="3.12" rx="1.56" ry="1.56" transform="translate(-15.91 249.87) rotate(-90)"/><rect class="cls-20" x="120.92" y="132.3" width="8.06" height="3.12" rx="1.56" ry="1.56" transform="translate(93.31 314.22) rotate(-127.02)"/><rect class="cls-20" x="131.47" y="121.82" width="8.06" height="3.12" rx="1.56" ry="1.56" transform="translate(199.76 295) rotate(-152.84)"/><rect class="cls-20" x="136.94" y="129.75" width="8.06" height="3.12" rx="1.56" ry="1.56" transform="translate(132.98 323.8) rotate(-130.59)"/><rect class="cls-20" x="141.8" y="140.01" width="8.06" height="3.12" rx="1.56" ry="1.56" transform="translate(133.21 344.42) rotate(-130.59)"/><rect class="cls-20" x="136.14" y="137.31" width="8.06" height="3.12" rx="1.56" ry="1.56" transform="translate(-53.28 177.69) rotate(-56.08)"/><rect class="cls-20" x="128.7" y="137.9" width="8.06" height="3.12" rx="1.56" ry="1.56" transform="translate(113.19 330.99) rotate(-130.59)"/><rect class="cls-20" x="95.57" y="143.37" width="8.06" height="3.12" rx="1.56" ry="1.56" transform="translate(205.02 4.18) rotate(71.33)"/><rect class="cls-20" x="111.73" y="141.01" width="8.06" height="3.12" rx="1.56" ry="1.56" transform="translate(213.77 -12.74) rotate(71.33)"/><rect class="cls-20" x="104.89" y="144.39" width="8.06" height="3.12" rx="1.56" ry="1.56" transform="translate(289.78 124.59) rotate(120)"/><rect class="cls-20" x="123.76" y="142.57" width="8.06" height="3.12" rx="1.56" ry="1.56" transform="translate(223.43 -23.07) rotate(71.33)"/><rect class="cls-20" x="116.92" y="145.95" width="8.06" height="3.12" rx="1.56" ry="1.56" transform="translate(309.18 116.52) rotate(120)"/><rect class="cls-20" x="137.9" y="144.36" width="8.06" height="3.12" rx="1.56" ry="1.56" transform="translate(234.74 -35.25) rotate(71.33)"/><rect class="cls-20" x="131.06" y="147.74" width="8.06" height="3.12" rx="1.56" ry="1.56" transform="translate(331.94 106.96) rotate(120)"/></g><g><path class="cls-19" d="M97.35,176.7c-3.76,6.42-12.78,8-18.74,8.12-6.34,.13-14.99-1.5-18.6-8.57-4.15-8.11,4.7-29.81,21.25-26.56,18.12,3.57,20.2,19.99,16.09,27Z"/><path class="cls-18" d="M98.03,176.39c-3.76,6-12.78,7.48-18.74,7.6-6.34,.13-14.99-1.41-18.6-8.02-4.15-7.59,4.7-27.88,21.25-24.84,18.12,3.34,20.2,18.7,16.09,25.26Z"/><path class="cls-4" d="M72.67,153.47c-2.87,.97-6.39,2.72-8.96,8.15-2.88,6.09,5.29-4.76,8.82-6.12,4.15-1.59,4.94-3.65,.14-2.03Z"/><path class="cls-4" d="M89.15,156.28c4.16-.92,7.94,5.81,7.41,8.87-.39,2.26-1.25-4.9-4.74-6.16-2.46-.89-5.79-2.01-2.67-2.7Z"/><rect class="cls-20" x="71.94" y="179.19" width="8.06" height="3.12" rx="1.56" ry="1.56" transform="translate(187.98 341.67) rotate(167.96)"/><rect class="cls-20" x="66.7" y="157.22" width="8.06" height="3.12" rx="1.56" ry="1.56" transform="translate(239.21 201.49) rotate(128.24)"/><rect class="cls-20" x="61.12" y="166.14" width="8.06" height="3.12" rx="1.56" ry="1.56" transform="translate(104.66 -7.82) rotate(33.92)"/><rect class="cls-20" x="83.96" y="153.37" width="8.06" height="3.12" rx="1.56" ry="1.56" transform="translate(101.43 -22.74) rotate(33.92)"/><rect class="cls-20" x="92.58" y="174.21" width="8.06" height="3.12" rx="1.56" ry="1.56" transform="translate(296.38 193.68) rotate(123.92)"/><rect class="cls-20" x="69.66" y="162.06" width="8.06" height="3.12" rx="1.56" ry="1.56" transform="translate(253.12 160.9) rotate(113.38)"/><rect class="cls-20" x="74.49" y="151.95" width="8.06" height="3.12" rx="1.56" ry="1.56" transform="translate(166.59 301.75) rotate(176.38)"/><rect class="cls-20" x="76.65" y="160.16" width="8.06" height="3.12" rx="1.56" ry="1.56" transform="translate(-81.03 242.4) rotate(-90)"/><rect class="cls-20" x="84.62" y="161.13" width="8.06" height="3.12" rx="1.56" ry="1.56" transform="translate(12.14 331.43) rotate(-127.02)"/><rect class="cls-20" x="92.41" y="166.73" width="8.06" height="3.12" rx="1.56" ry="1.56" transform="translate(31.39 351.02) rotate(-130.59)"/><rect class="cls-20" x="59.27" y="172.2" width="8.06" height="3.12" rx="1.56" ry="1.56" transform="translate(207.65 58.16) rotate(71.33)"/><rect class="cls-20" x="75.43" y="169.84" width="8.06" height="3.12" rx="1.56" ry="1.56" transform="translate(216.4 41.25) rotate(71.33)"/><rect class="cls-20" x="68.6" y="173.22" width="8.06" height="3.12" rx="1.56" ry="1.56" transform="translate(260.3 199.27) rotate(120)"/><rect class="cls-20" x="86.3" y="173.67" width="8.06" height="3.12" rx="1.56" ry="1.56" transform="translate(227.43 33.56) rotate(71.33)"/><rect class="cls-20" x="80.63" y="174.78" width="8.06" height="3.12" rx="1.56" ry="1.56" transform="translate(279.7 191.19) rotate(120)"/><rect class="cls-20" x="80.63" y="166.31" width="8.06" height="3.12" rx="1.56" ry="1.56" transform="translate(272.37 178.49) rotate(120)"/></g><g><path class="cls-19" d="M119.61,180.2c4.04,6.9,13.74,8.6,20.15,8.74,6.82,.14,16.12-1.62,20-9.22,4.46-8.72-5.05-32.06-22.85-28.56-19.48,3.83-21.72,21.49-17.31,29.04Z"/><path class="cls-18" d="M118.87,179.88c4.04,6.46,13.74,8.04,20.15,8.17,6.82,.14,16.12-1.51,20-8.62,4.46-8.16-5.05-29.98-22.85-26.71-19.48,3.59-21.72,20.1-17.31,27.16Z"/><path class="cls-4" d="M146.15,155.23c3.08,1.04,6.87,2.93,9.63,8.76,3.1,6.55-5.68-5.12-9.48-6.58-4.46-1.71-5.31-3.93-.15-2.18Z"/><path class="cls-4" d="M128.43,158.25c-4.47-.99-8.54,6.25-7.97,9.53,.42,2.43,1.35-5.27,5.1-6.63,2.65-.96,6.23-2.16,2.87-2.91Z"/><rect class="cls-20" x="113.36" y="170.81" width="8.67" height="3.35" rx="1.56" ry="1.56" transform="translate(325.92 156.81) rotate(120)"/><rect class="cls-20" x="126.65" y="159.51" width="8.67" height="3.35" rx="1.56" ry="1.56" transform="translate(338.65 158.07) rotate(128.24)"/><rect class="cls-20" x="120.64" y="169.11" width="8.67" height="3.35" rx="1.56" ry="1.56" transform="translate(116.57 -40.68) rotate(33.92)"/><rect class="cls-20" x="116.37" y="158.89" width="8.67" height="3.35" rx="1.56" ry="1.56" transform="translate(-79.82 148.68) rotate(-49.67)"/><rect class="cls-20" x="126.03" y="152.92" width="8.67" height="3.35" rx="1.56" ry="1.56" transform="translate(314.96 237.18) rotate(154.24)"/><rect class="cls-20" x="129.84" y="164.72" width="8.67" height="3.35" rx="1.56" ry="1.56" transform="translate(340.15 109.27) rotate(113.38)"/><rect class="cls-20" x="135.03" y="153.85" width="8.67" height="3.35" rx="1.56" ry="1.56" transform="translate(288.28 301.95) rotate(176.38)"/><rect class="cls-20" x="145.18" y="183.85" width="8.67" height="3.35" rx="1.56" ry="1.56" transform="translate(380.6 243.62) rotate(142.98)"/><rect class="cls-20" x="131.15" y="184.18" width="8.67" height="3.35" rx="1.56" ry="1.56" transform="translate(282.44 362.78) rotate(176.38)"/><rect class="cls-20" x="137.35" y="162.68" width="8.67" height="3.35" rx="1.56" ry="1.56" transform="translate(-22.67 306.04) rotate(-90)"/><rect class="cls-20" x="145.92" y="163.73" width="8.67" height="3.35" rx="1.56" ry="1.56" transform="translate(108.67 384.96) rotate(-127.02)"/><rect class="cls-20" x="154.29" y="169.74" width="8.67" height="3.35" rx="1.56" ry="1.56" transform="translate(131.67 403.41) rotate(-130.59)"/><rect class="cls-20" x="118.66" y="175.62" width="8.67" height="3.35" rx="1.56" ry="1.56" transform="translate(251.6 4.02) rotate(71.33)"/><rect class="cls-20" x="136.04" y="173.09" width="8.67" height="3.35" rx="1.56" ry="1.56" transform="translate(261.01 -14.17) rotate(71.33)"/><rect class="cls-20" x="128.69" y="176.72" width="8.67" height="3.35" rx="1.56" ry="1.56" transform="translate(354.03 152.39) rotate(120)"/><rect class="cls-20" x="148.98" y="174.77" width="8.67" height="3.35" rx="1.56" ry="1.56" transform="translate(271.4 -25.28) rotate(71.33)"/><rect class="cls-20" x="141.63" y="178.4" width="8.67" height="3.35" rx="1.56" ry="1.56" transform="translate(374.9 143.71) rotate(120)"/></g></svg>