<?xml version="1.0" encoding="UTF-8"?><svg id="Camada_1" xmlns="http://www.w3.org/2000/svg" viewBox="0 0 230 230"><defs><style>.cls-1{opacity:.1;}.cls-2{fill:#f9941f;}.cls-3{fill:#f96163;}.cls-4{fill:#e3edf8;}.cls-5{fill:#e64a5e;}.cls-6{fill:#fe5876;}.cls-7{fill:#667480;}.cls-8{fill:#cfdbe6;}.cls-9{fill:#d5def0;}.cls-10{fill:#85d1f2;}.cls-11{fill:#8699a8;}.cls-12{fill:#fff;fill-rule:evenodd;}.cls-12,.cls-13{opacity:.2;}.cls-14{opacity:.15;}</style></defs><g><g><rect class="cls-7" x="29.26" y="206.12" width="11.42" height="23.88" rx="1" ry="1"/><rect class="cls-7" x="191.16" y="206.12" width="11.42" height="23.88" rx="1" ry="1"/></g><path class="cls-8" d="M0,198.16H230v15.08c0,2.63-2.13,4.76-4.76,4.76H4.76c-2.63,0-4.76-2.13-4.76-4.76v-15.08H0Z"/><path class="cls-7" d="M9.4,83.95H220.6c5.19,0,9.4,4.21,9.4,9.4v104.81H0V93.35c0-5.19,4.21-9.4,9.4-9.4Z"/><g><g><circle class="cls-11" cx="185.93" cy="142.25" r="6.1"/><circle class="cls-11" cx="202.25" cy="142.25" r="5.29"/><circle class="cls-11" cx="194.86" cy="154.66" r="3.9"/><rect class="cls-11" x="178.13" y="163.03" width="30.24" height="3.15" rx="1.57" ry="1.57"/><rect class="cls-11" x="178.13" y="171.37" width="30.24" height="3.15" rx="1.57" ry="1.57"/><rect class="cls-11" x="177.85" y="179.7" width="30.24" height="3.15" rx="1.57" ry="1.57"/></g><rect class="cls-10" x="178.37" y="97.73" width="29.76" height="33.81" rx="3.71" ry="3.71"/></g><g><rect class="cls-2" x="13.8" y="97.73" width="142.76" height="88.12" rx="3.53" ry="3.53"/><path class="cls-1" d="M149.42,97.73h3.61c1.95,0,3.53,1.58,3.53,3.53v81.05c0,1.95-1.58,3.53-3.53,3.53h-3.61V97.73h0Z"/><g><path class="cls-1" d="M126.71,178.82v5.74c0,.71-.57,1.28-1.28,1.28H39.07c-.7,0-1.28-.57-1.28-1.28v-5.74H126.71Z"/><path class="cls-13" d="M135.8,171.8v5.74c0,.71-.58,1.28-1.28,1.28h-7.81v-7.02h9.09Z"/><rect class="cls-14" x="37.79" y="171.8" width="88.92" height="7.02"/><path class="cls-13" d="M37.79,171.8v7.02h-7.8c-.71,0-1.28-.57-1.28-1.28v-5.74h9.08Z"/></g><g><path class="cls-12" d="M30.57,119.1c4.28,1.73,24.83-14.35,18.92-14.19-5.91,.16-6.23,2.03-10.22,5.62-5.46,4.92-11.6,7.39-8.7,8.56Z"/><path class="cls-12" d="M25.24,137.71c6.66,2.69,38.58-22.29,29.4-22.04-9.18,.25-9.68,3.16-15.88,8.74-8.48,7.64-18.03,11.48-13.52,13.3Z"/></g><g><path class="cls-12" d="M80.26,134.52c.39-.69,1.44-.22,1.2,.54-1.12,3.47-1.73,7.88,.47,11.42,3.3,5.31,1.74,12.76,.84,15.97-.17,.59-.96,.65-1.23,.11-1.52-3.13-4.87-10.62-4.87-15.92,0-4.2,1.62-8.61,3.59-12.11Z"/><path class="cls-12" d="M91.4,145.23c-.26-.49-1.02-.18-.86,.36,.65,2.19,.94,4.88-.41,7.05-2.1,3.39-1.16,8.12-.57,10.25,.12,.41,.68,.47,.87,.08,1-2.08,3.11-6.84,3.11-10.23,0-2.59-.95-5.3-2.14-7.51Z"/><path class="cls-12" d="M73.62,164.29c.42,.37,1.01-.18,.68-.63-1.36-1.84-2.55-4.26-2.03-6.77,.82-3.9-1.69-8.03-2.97-9.83-.25-.35-.8-.2-.84,.22-.23,2.29-.58,7.49,.58,10.67,.89,2.43,2.71,4.66,4.58,6.33Z"/></g></g></g><g><g id="Ju9fJx.tif"><g><path class="cls-3" d="M104.36,29.54v.34c-.2,.02-.22,.16-.23,.32-.06,1.24-.33,2.44-.63,3.63-.84,3.31-2.2,6.39-4.13,9.23-1.64,2.4-3.57,4.52-5.83,6.34-2.26,1.82-4.76,3.25-7.46,4.32-2.77,1.1-5.64,1.76-8.6,1.94-1.55,.1-3.11,.08-4.66-.07-2.06-.19-4.06-.6-6.03-1.21-3.01-.94-5.79-2.37-8.33-4.22-1.84-1.34-3.52-2.85-4.98-4.6-1.74-2.1-3.21-4.36-4.32-6.87-1.06-2.41-1.84-4.9-2.2-7.51-.11-.81-.21-1.62-.32-2.43-.05-1.73,.14-3.45,.48-5.14,1.57-7.85,5.62-14.12,12.27-18.56C67.08-.07,75.5-1.39,84.24,1.52c11.15,3.72,17.72,11.63,19.81,23.22,.13,.69,.08,1.41,.31,2.08v2.37c-.15,.11-.15,.23,0,.34Zm-4.82-.34c.1-1.3-.05-2.58-.25-3.86-1.08-6.71-4.38-12.09-9.9-16.02-5.45-3.87-11.53-5.16-18.12-4.04-4.4,.74-8.28,2.63-11.62,5.56-4.29,3.78-6.94,8.51-7.91,14.16-.24,1.38-.41,2.78-.3,4.19-.05,1.15,.07,2.28,.25,3.41,.82,5.34,3.14,9.94,7.05,13.65,5.97,5.65,13.09,7.78,21.19,6.38,5.06-.88,9.36-3.28,12.91-6.97,3.43-3.56,5.56-7.79,6.39-12.67,.22-1.26,.35-2.52,.3-3.8Z"/><path class="cls-5" d="M104.36,31.34c-.24,.63-.22,1.31-.32,1.96-.9,5.8-3.33,10.88-7.3,15.2-4.29,4.66-9.58,7.6-15.8,8.83-.92,.18-1.86,.26-2.78,.4-.14,.02-.31-.06-.4,.12h-4.62c-.63-.27-1.31-.22-1.96-.32-5.78-.9-10.84-3.3-15.14-7.25-4.89-4.49-7.89-10.04-9.02-16.58-.28-1.63-.45-3.27-.36-4.93,.11,.81,.21,1.62,.32,2.43,.36,2.61,1.14,5.1,2.2,7.51,1.1,2.51,2.57,4.77,4.32,6.87,1.45,1.75,3.14,3.26,4.98,4.6,2.55,1.86,5.32,3.28,8.33,4.22,1.97,.61,3.97,1.02,6.03,1.21,1.56,.15,3.12,.16,4.66,.07,2.96-.18,5.84-.84,8.6-1.94,2.7-1.08,5.2-2.5,7.46-4.32,2.26-1.82,4.19-3.94,5.83-6.34,1.93-2.84,3.29-5.92,4.13-9.23,.3-1.19,.57-2.4,.63-3.63,0-.16,.02-.3,.23-.32v1.47Z"/><path class="cls-5" d="M104.36,29.54c-.15-.11-.15-.23,0-.34v.34Z"/><path class="cls-4" d="M51.45,29.2c-.11-1.41,.06-2.81,.3-4.19,.97-5.65,3.61-10.38,7.91-14.16,3.34-2.94,7.22-4.82,11.62-5.56,6.58-1.11,12.67,.17,18.12,4.04,5.53,3.93,8.82,9.31,9.9,16.02,.21,1.28,.35,2.56,.25,3.86-.3,.28-.1,.64-.15,.95-.53,3.17-1.5,6.17-3.14,8.95-1.57,2.65-3.56,4.95-6,6.83-2.39,1.84-5.04,3.22-7.95,4.06-1.89,.55-3.82,.84-5.78,.96-.21,.01-.46,.08-.6-.18,.34-.23,.48-.55,.47-.96,0-.79,0-1.57,0-2.36,0-.65-.32-1.02-.86-1.03-.56-.02-.9,.36-.91,1.03,0,.79,0,1.57,0,2.36,0,.41,.13,.73,.47,.96-.12,.24-.35,.19-.55,.18-.85-.07-1.71-.11-2.56-.24-2.63-.4-5.14-1.19-7.49-2.42-3-1.57-5.59-3.65-7.72-6.31-2.71-3.38-4.38-7.19-5.08-11.46-.07-.44,.09-.94-.23-1.34Zm25.73,2.27c.09,.1,.16,.21,.26,.29,1.32,1.1,2.65,2.2,3.96,3.3,1.93,1.62,3.86,3.25,5.79,4.88,.29,.25,.58,.41,.97,.24,.62-.27,.78-1.01,.27-1.47-1.03-.92-2.1-1.8-3.16-2.69-1.55-1.3-3.09-2.6-4.65-3.88-.79-.65-1.51-1.39-2.39-1.93,.18-.44,.22-.9,.27-1.37,1.89-1.92,3.79-3.84,5.68-5.77,.74-.76,.76-1.82,.08-2.52-.69-.71-1.8-.7-2.56,.07-1.8,1.81-3.58,3.63-5.37,5.45-.63-.05-1.25-.09-1.87,.08-3.54-3.16-7.08-6.32-10.63-9.47-.84-.75-1.87-.71-2.56,.04-.69,.76-.57,1.83,.27,2.59,3.65,3.26,7.31,6.52,10.96,9.78,.05,.53,.17,1.03,.46,1.48,.89,1.4,2.49,1.75,4.2,.9Zm-.79-22.12c0-.37,0-.75,0-1.12,0-.74-.3-1.12-.87-1.13-.58,0-.89,.37-.9,1.1,0,.75,0,1.5,0,2.24,0,.69,.31,1.07,.87,1.08,.58,0,.89-.37,.9-1.1,0-.36,0-.71,0-1.07Zm-20.56,20.51c.43,0,.86,.01,1.29,0,.59-.02,.94-.38,.93-.9-.01-.5-.35-.84-.92-.85-.86-.02-1.72-.02-2.58,0-.57,.01-.91,.35-.93,.85-.02,.52,.34,.89,.92,.91,.43,.02,.86,0,1.29,0Zm39.38-1.77c-.45,0-.9-.02-1.35,0-.56,.02-.9,.36-.9,.87,0,.51,.33,.87,.88,.89,.88,.02,1.76,.02,2.64,0,.56-.01,.9-.37,.91-.87,0-.52-.35-.87-.94-.89-.41-.02-.82,0-1.23,0Z"/><path class="cls-9" d="M51.45,29.2c.32,.4,.16,.89,.23,1.34,.7,4.26,2.37,8.08,5.08,11.46,2.13,2.66,4.72,4.74,7.72,6.31,2.35,1.23,4.86,2.02,7.49,2.42,.85,.13,1.71,.17,2.56,.24,.2,.02,.42,.06,.55-.18,.28,.1,.56,.1,.83,0,.14,.26,.39,.19,.6,.18,1.96-.12,3.89-.42,5.78-.96,2.91-.85,5.56-2.23,7.95-4.06,2.44-1.88,4.43-4.18,6-6.83,1.64-2.77,2.62-5.78,3.14-8.95,.05-.32-.16-.68,.15-.95,.05,1.28-.09,2.54-.3,3.8-.84,4.87-2.96,9.11-6.39,12.67-3.55,3.69-7.86,6.09-12.91,6.97-8.1,1.4-15.23-.72-21.19-6.38-3.91-3.7-6.24-8.31-7.05-13.65-.17-1.13-.3-2.26-.25-3.41Z"/><path class="cls-7" d="M72.51,29.08c-3.65-3.26-7.31-6.52-10.96-9.78-.84-.75-.96-1.82-.27-2.59,.68-.76,1.72-.79,2.56-.04,3.55,3.15,7.09,6.32,10.63,9.47-.83,.42-1.53,.96-1.77,1.92-.21,.31-.1,.68-.19,1.01Z"/><path class="cls-7" d="M76.34,26.06c1.79-1.82,3.57-3.64,5.37-5.45,.76-.76,1.87-.78,2.56-.07,.68,.7,.66,1.76-.08,2.52-1.89,1.93-3.78,3.85-5.68,5.77-.14-.32-.05-.71-.3-1.01-.31-.93-1.06-1.38-1.88-1.77Z"/><path class="cls-10" d="M78.24,30.2c.88,.54,1.6,1.28,2.39,1.93,1.56,1.28,3.1,2.58,4.65,3.88,1.06,.89,2.13,1.77,3.16,2.69,.51,.46,.34,1.2-.27,1.47-.39,.17-.68,.01-.97-.24-1.93-1.63-3.85-3.26-5.79-4.88-1.32-1.11-2.64-2.2-3.96-3.3-.1-.08-.18-.19-.26-.29,.43-.35,.79-.77,1.06-1.27Z"/><path class="cls-6" d="M76.34,26.06c.81,.39,1.57,.84,1.88,1.77-.08,1.17-1.84,2.25-3.12,2.01-1.1-.2-1.82-.87-2.39-1.77,.24-.96,.94-1.5,1.77-1.92,.62-.18,1.24-.14,1.87-.08Z"/><path class="cls-5" d="M72.7,28.07c.56,.9,1.29,1.57,2.39,1.77,1.29,.24,3.05-.84,3.12-2.01,.24,.29,.16,.68,.3,1.01-.06,.46-.1,.93-.27,1.37-.27,.49-.62,.91-1.06,1.27-1.71,.84-3.31,.5-4.2-.9-.29-.45-.42-.96-.46-1.48,.09-.33-.03-.7,.19-1.01Z"/><path class="cls-7" d="M76.38,9.35c0,.36,0,.71,0,1.07,0,.73-.32,1.11-.9,1.1-.55,0-.86-.38-.87-1.08,0-.75,0-1.5,0-2.24,0-.73,.32-1.11,.9-1.1,.57,0,.87,.4,.87,1.13,0,.37,0,.75,0,1.12Z"/><path class="cls-7" d="M55.82,29.86c-.43,0-.86,.02-1.29,0-.58-.03-.94-.39-.92-.91,.01-.5,.36-.83,.93-.85,.86-.02,1.72-.02,2.58,0,.56,.01,.91,.35,.92,.85,.01,.53-.34,.88-.93,.9-.43,.02-.86,0-1.29,0Z"/><path class="cls-7" d="M95.21,28.09c.41,0,.82-.01,1.23,0,.59,.02,.95,.37,.94,.89,0,.5-.35,.85-.91,.87-.88,.02-1.76,.02-2.64,0-.55-.02-.89-.38-.88-.89,0-.5,.34-.84,.9-.87,.45-.02,.9,0,1.35,0Z"/><path class="cls-7" d="M75.92,50.78c-.28,.1-.56,.1-.83,0-.34-.23-.48-.55-.47-.96,0-.79,0-1.57,0-2.36,0-.67,.35-1.05,.91-1.03,.54,.01,.85,.38,.86,1.03,0,.79,0,1.57,0,2.36,0,.4-.13,.73-.47,.96Z"/></g></g><g><path class="cls-7" d="M138.12,31.2h-1.89v-6.36c0-.59-.14-1.04-.42-1.36-.28-.32-.63-.54-1.06-.67-.43-.13-.89-.19-1.39-.19-.3,0-.65,.03-1.05,.1-.4,.06-.75,.14-1.05,.24l-5.48,7.34c-.21,.26-.35,.57-.42,.95-.07,.38-.11,.71-.11,1.02,0,.54,.13,1,.39,1.38,.26,.38,.58,.66,.95,.85h5.67v1.34c0,.77,.19,1.24,.57,1.42,.38,.18,.92,.28,1.6,.28,.32,0,.66-.03,1.02-.08s.62-.1,.78-.13v-2.82h.88c.42,0,.76-.13,1.03-.39,.27-.26,.41-.69,.41-1.28,0-.32-.05-.63-.14-.92s-.19-.52-.29-.68Zm-5.64,0h-3.04l2.97-4.5h.07v4.5Z"/><path class="cls-7" d="M160.19,25.77c-.74-.29-1.52-.43-2.33-.43-1,0-1.85,.15-2.52,.44-.45,.2-.87,.43-1.27,.67-.44-.32-.9-.59-1.4-.76-.69-.23-1.4-.35-2.15-.35-.88,0-1.72,.12-2.52,.35-.8,.23-1.48,.54-2.02,.92-.32,.22-.57,.47-.75,.74s-.27,.62-.27,1.05v7.2c0,.73,.18,1.24,.54,1.51,.36,.27,.93,.41,1.71,.41,.38,0,.74-.02,1.06-.07,.33-.05,.58-.1,.75-.14v-8.4c.14-.08,.33-.16,.55-.25,.22-.09,.49-.13,.79-.13,.4,0,.74,.11,1.02,.32,.28,.21,.42,.56,.42,1.04v5.72c0,.73,.18,1.24,.54,1.51,.36,.27,.93,.41,1.71,.41,.38,0,.74-.02,1.06-.07,.33-.05,.58-.1,.75-.14v-7.96c0-.11-.02-.21-.03-.32,.16-.11,.34-.22,.56-.32,.27-.12,.56-.18,.86-.18,.42,0,.75,.11,1,.32,.25,.21,.38,.56,.38,1.04v5.72c0,.73,.18,1.24,.54,1.51,.36,.27,.93,.41,1.71,.41,.38,0,.74-.02,1.06-.07s.58-.1,.75-.14v-7.53c0-1.08-.23-1.95-.69-2.6-.46-.65-1.06-1.11-1.81-1.4Z"/><path class="cls-7" d="M167.11,25.66c-.38,0-.74,.02-1.06,.07s-.58,.1-.75,.14v9.74c0,.73,.18,1.24,.54,1.51,.36,.27,.93,.41,1.71,.41,.38,0,.74-.02,1.06-.07,.33-.05,.58-.1,.75-.14v-9.74c0-.75-.18-1.26-.53-1.52s-.92-.39-1.72-.39Z"/><path class="cls-7" d="M167.32,20.32c-.65,0-1.19,.21-1.6,.62-.41,.42-.62,.92-.62,1.53s.21,1.1,.62,1.52c.42,.42,.95,.63,1.6,.63s1.19-.21,1.6-.63c.42-.42,.62-.93,.62-1.52s-.21-1.12-.62-1.53-.95-.62-1.6-.62Z"/><path class="cls-7" d="M181.91,26.53c-.97-.79-2.36-1.18-4.16-1.18-.99,0-1.9,.12-2.73,.35s-1.51,.54-2.06,.92c-.32,.22-.57,.47-.75,.74s-.27,.62-.27,1.05v7.2c0,.73,.18,1.24,.54,1.51,.36,.27,.93,.41,1.71,.41,.38,0,.74-.02,1.06-.07,.33-.05,.58-.1,.75-.14v-8.35c.25-.13,.52-.23,.8-.31,.28-.08,.58-.12,.9-.12,.48,0,.87,.12,1.16,.35,.29,.23,.44,.59,.44,1.09v5.65c0,.73,.18,1.24,.54,1.51,.36,.27,.93,.41,1.71,.41,.38,0,.74-.02,1.06-.07s.58-.1,.75-.14v-7.46c0-1.42-.49-2.52-1.46-3.31Z"/></g></g></svg>