<?xml version="1.0" encoding="UTF-8"?><svg id="Camada_1" xmlns="http://www.w3.org/2000/svg" viewBox="0 0 350 160"><defs><style>.cls-1{fill:#f96163;}.cls-2{fill:#fa9e9f;}.cls-3{fill:#f7c800;}.cls-4{fill:#ffe05e;}.cls-5{fill:#fff;}.cls-6{fill:#fee7eb;}.cls-7{fill:#66191b;}.cls-8{fill:#993d40;}.cls-9{fill:#cc5252;}.cls-10{fill:#4d1719;}</style></defs><g><path class="cls-1" d="M242.45,67.46c0,8.38-12.51,14.22-15.53,21.51-3.13,7.56,1.47,20.5-4.23,26.19-5.69,5.69-18.64,1.09-26.19,4.23-7.29,3.02-13.12,15.53-21.51,15.53s-14.22-12.51-21.51-15.53c-7.56-3.13-20.5,1.47-26.19-4.23-5.69-5.69-1.09-18.64-4.23-26.19-3.02-7.29-15.53-13.12-15.53-21.51s12.51-14.22,15.53-21.51c3.13-7.56-1.47-20.5,4.23-26.19,5.69-5.69,18.64-1.09,26.19-4.23,7.29-3.02,13.12-15.53,21.51-15.53s14.22,12.51,21.51,15.53c7.56,3.13,20.5-1.47,26.19,4.23,5.69,5.69,1.09,18.64,4.23,26.19,3.02,7.29,15.53,13.12,15.53,21.51Z"/><path class="cls-2" d="M226.93,45.96c-3.13-7.55,1.47-20.51-4.23-26.2-5.69-5.69-18.65-1.1-26.2-4.23C189.2,12.51,183.37,0,175,0s-14.23,12.51-21.52,15.52c-7.55,3.13-20.48-1.47-26.17,4.23-5.69,5.69-1.1,18.65-4.23,26.2-3.04,7.3-15.55,13.13-15.55,21.5s12.51,14.23,15.55,21.52c3.13,7.55-1.47,20.48,4.23,26.17,5.69,5.69,18.62,1.1,26.17,4.23,7.3,3.04,13.13,15.55,21.52,15.55s14.2-12.51,21.5-15.55c7.55-3.13,20.51,1.47,26.2-4.23,5.69-5.69,1.1-18.62,4.23-26.17,3.01-7.3,15.52-13.13,15.52-21.52s-12.51-14.2-15.52-21.5Z"/><path class="cls-1" d="M175,132.11c-3.66,0-7.27-3.79-10.77-7.46-2.98-3.13-6.06-6.37-9.67-7.87-3.06-1.27-6.67-1.44-9.81-1.44-1,0-2.01,.02-3.02,.04-.97,.02-1.95,.04-2.91,.04-3.78,0-7.55-.28-9.53-2.25-2.4-2.4-2.31-7.28-2.22-12.44,.08-4.44,.17-9.04-1.4-12.82-1.51-3.62-4.75-6.7-7.87-9.68-3.67-3.49-7.46-7.11-7.46-10.77s3.79-7.25,7.45-10.73c3.13-2.98,6.37-6.06,7.88-9.68,1.57-3.79,1.48-8.39,1.4-12.83-.09-4.94-.19-10.05,2.22-12.46,1.98-1.98,5.75-2.25,9.53-2.25,.96,0,1.94,.02,2.91,.04,1.01,.02,2.02,.04,3.02,.04,3.13,0,6.74-.17,9.8-1.44,3.62-1.49,6.7-4.73,9.69-7.86,3.49-3.66,7.1-7.45,10.75-7.45s7.24,3.78,10.72,7.43c2.99,3.14,6.07,6.38,9.7,7.87,3.05,1.27,6.67,1.44,9.8,1.44,1,0,2.01-.02,3.02-.04,.98-.02,1.95-.04,2.92-.04,3.78,0,7.56,.27,9.54,2.25,2.4,2.4,2.31,7.52,2.22,12.46-.08,4.45-.17,9.05,1.4,12.83,1.5,3.62,4.74,6.71,7.87,9.7,3.66,3.48,7.44,7.08,7.44,10.72s-3.79,7.27-7.45,10.76c-3.13,2.99-6.37,6.07-7.87,9.69-1.57,3.78-1.48,8.37-1.4,12.81,.1,5.16,.19,10.04-2.22,12.45-1.98,1.98-5.76,2.25-9.54,2.25h0c-.96,0-1.94-.02-2.91-.04-1.01-.02-2.02-.04-3.02-.04-3.14,0-6.75,.17-9.81,1.44-3.62,1.51-6.7,4.75-9.68,7.88-3.49,3.66-7.09,7.45-10.73,7.45Z"/><path class="cls-2" d="M174.99,123.29c-1.32-.99-3.33-3.1-4.62-4.46-3.43-3.6-7.3-7.67-12.56-9.86-4.44-1.84-9.09-2.09-13.06-2.09-.92,0-1.85,.02-2.78,.03h-.37c-.95,.02-1.87,.04-2.77,.04-1.54,0-2.55-.06-3.21-.13-.17-1.58-.12-4.12-.09-5.95,.1-5.06,.2-10.8-2.04-16.21-2.2-5.27-6.26-9.14-9.84-12.55-1.38-1.31-3.49-3.32-4.49-4.65,.99-1.32,3.1-3.32,4.46-4.62,3.59-3.41,7.66-7.29,9.86-12.55,2.25-5.43,2.15-11.18,2.05-16.24-.03-1.73-.08-4.34,.1-5.97,.67-.07,1.68-.13,3.2-.13,.79,0,1.59,.01,2.39,.03h.38c1.05,.03,2.11,.05,3.16,.05,3.96,0,8.61-.25,13.03-2.08,5.26-2.17,9.15-6.25,12.57-9.84,1.3-1.36,3.31-3.47,4.63-4.46,1.32,.99,3.31,3.08,4.6,4.43,3.43,3.61,7.31,7.68,12.6,9.87,4.41,1.83,9.06,2.08,13.03,2.08,1.05,0,2.12-.02,3.18-.04h.35c.8-.02,1.61-.03,2.4-.03,1.53,0,2.54,.06,3.21,.13,.18,1.63,.13,4.25,.1,5.97-.1,5.07-.2,10.81,2.04,16.22,2.18,5.27,6.25,9.15,9.84,12.57,1.37,1.3,3.47,3.3,4.46,4.62-.99,1.32-3.09,3.33-4.44,4.62-3.61,3.43-7.68,7.32-9.86,12.6-2.23,5.4-2.13,11.13-2.03,16.19,.03,1.83,.08,4.37-.09,5.95-.67,.08-1.68,.14-3.22,.14-.91,0-1.83-.02-2.74-.04h-.41c-.93-.02-1.86-.04-2.78-.04-3.97,0-8.62,.25-13.04,2.08-5.29,2.2-9.16,6.27-12.58,9.87-1.29,1.36-3.29,3.46-4.62,4.46Z"/><path class="cls-1" d="M174.45,114.95c-3.62-3.8-8.12-8.52-14.47-11.17-5.36-2.22-10.71-2.52-15.23-2.52-.82,0-3.24,.04-3.24,.04-.12,0-.24,0-.36,0,0-.1,0-.2,0-.3,.1-5.35,.23-11.98-2.47-18.49-2.66-6.38-7.37-10.87-11.16-14.48-.17-.16-.37-.35-.6-.57,.2-.19,.39-.37,.54-.51,3.82-3.63,8.54-8.12,11.2-14.49,2.71-6.54,2.58-13.18,2.48-18.52,0-.11,0-.22,0-.33h.31c1.11,.03,2.2,.05,3.29,.05,4.51,0,9.85-.3,15.19-2.51,6.36-2.62,10.86-7.35,14.48-11.14,.15-.16,.34-.36,.56-.59,.19,.2,.36,.38,.51,.53,3.64,3.82,8.15,8.56,14.54,11.2,5.32,2.21,10.66,2.5,15.18,2.5,1.09,0,2.2-.02,3.3-.04h.32c0,.08,0,.17,0,.25-.1,5.41-.23,12.06,2.47,18.56,2.63,6.36,7.35,10.86,11.14,14.49,.17,.16,.37,.35,.59,.56-.21,.2-.4,.38-.56,.53-3.8,3.62-8.54,8.13-11.18,14.52-2.69,6.49-2.56,13.12-2.46,18.45,0,.1,0,.21,0,.32h-.73c-.98-.03-1.94-.04-2.89-.04-4.52,0-9.86,.3-15.2,2.51-6.39,2.66-10.89,7.39-14.5,11.18-.16,.17-.34,.36-.54,.57-.2-.21-.39-.4-.54-.57Z"/><circle class="cls-9" cx="174.99" cy="67.46" r="34.69"/><circle class="cls-6" cx="174.99" cy="67.46" r="33.05"/><g><path class="cls-7" d="M164.78,129.25l-29.78,29.78c-1.98,1.98-5.37,.75-5.62-2.04l-1.74-19.4-19.4-1.74c-2.79-.25-4.02-3.64-2.04-5.62l18.9-18.9c.45,1.47,1.16,2.79,2.2,3.83,5.69,5.69,18.62,1.1,26.17,4.23,3.97,1.63,7.52,6.11,11.3,9.86Z"/><path class="cls-7" d="M164.78,129.25l-29.78,29.78c-1.98,1.98-5.37,.75-5.62-2.04l-1.74-19.4-19.4-1.74c-2.79-.25-4.02-3.64-2.04-5.62l18.9-18.9c.45,1.47,1.16,2.79,2.2,3.83,5.69,5.69,18.62,1.1,26.17,4.23,3.97,1.63,7.52,6.11,11.3,9.86Z"/><path class="cls-8" d="M138.74,155.27l-3.75,3.75c-1.97,2-5.35,.76-5.61-2.03l-1.75-19.41-19.41-1.72c-2.76-.25-4-3.63-2.03-5.63l3.75-3.72c-1.97,1.97-.76,5.35,2.03,5.61l19.41,1.75,1.72,19.38c.25,2.79,3.66,4.03,5.63,2.03Z"/><path class="cls-7" d="M241.75,135.85l-19.42,1.74-1.74,19.4c-.25,2.79-3.64,4.02-5.62,2.04l-29.78-29.78c3.78-3.75,7.33-8.23,11.3-9.86,7.55-3.13,20.51,1.46,26.2-4.23,1.04-1.04,1.75-2.34,2.2-3.8l18.89,18.87c1.98,1.98,.75,5.37-2.04,5.62Z"/><path class="cls-10" d="M225.69,112.14c-.2,3.44-.87,6.54-2.99,8.65-5.69,5.69-18.65,1.1-26.2,4.23-2.99,1.24-5.75,4.09-8.51,7.02l-2.79-2.79c3.78-3.75,7.33-8.23,11.3-9.86,7.55-3.13,20.51,1.47,26.2-4.23,1.04-1.04,1.75-2.34,2.2-3.8l.79,.79Z"/><path class="cls-10" d="M164.78,129.24l-2.79,2.79c-2.76-2.93-5.49-5.78-8.51-7.02-7.55-3.13-20.48,1.47-26.17-4.23-2.11-2.11-2.79-5.21-2.99-8.68l.79-.79c.45,1.47,1.16,2.79,2.2,3.83,5.69,5.69,18.62,1.1,26.17,4.23,3.97,1.63,7.52,6.11,11.3,9.86Z"/><path class="cls-8" d="M241.75,135.86l-19.41,1.72-1.75,19.41c-.25,2.79-3.63,4.03-5.61,2.03l-3.27-3.27c1.97,1.8,5.24,.56,5.49-2.17l1.72-19.38,19.44-1.75c2.79-.25,4-3.61,2.06-5.61l3.38,3.38c1.97,1.97,.73,5.38-2.06,5.63Z"/></g><g><g><g><g><circle class="cls-4" cx="173.95" cy="65.32" r="1.78"/><path class="cls-3" d="M173.95,67.12c-.73,.08-1.5-.37-1.82-1.05-.33-.71-.25-1.68,.36-2.21,.4-.36,.98-.51,1.46-.35v.06c-.42,.15-.78,.37-1.05,.7-.25,.3-.47,.65-.49,1.05-.05,.62,.33,1.27,.9,1.56,.2,.1,.42,.17,.65,.19v.06h0Z"/></g><g><circle class="cls-4" cx="175.68" cy="64.2" r="1.78"/><path class="cls-3" d="M173.89,64c0-.73,.53-1.45,1.24-1.7,.74-.25,1.69-.07,2.16,.59,.31,.44,.4,1.03,.19,1.49h-.06c-.1-.44-.28-.82-.58-1.13-.28-.28-.59-.53-.99-.6-.61-.11-1.3,.19-1.65,.73-.12,.19-.21,.4-.26,.62h-.06Z"/></g><g><circle class="cls-4" cx="176.28" cy="66.08" r="1.78"/><path class="cls-3" d="M174.49,65.89c0-.73,.53-1.45,1.24-1.7,.74-.25,1.69-.07,2.16,.59,.31,.44,.4,1.03,.19,1.49h-.06c-.1-.44-.28-.82-.58-1.13-.28-.28-.59-.53-.99-.6-.61-.11-1.3,.19-1.65,.73-.12,.19-.21,.4-.26,.62h-.06Z"/></g><g><circle class="cls-4" cx="175.16" cy="65.32" r="1.15"/><path class="cls-3" d="M175.16,66.48c-.51,.22-1.13-.11-1.35-.6-.1-.21-.14-.47-.12-.7,.06-.7,.81-1.3,1.47-1.02,0,0,0,.04,0,.04-.3,0-.58,.13-.79,.34-.43,.42-.43,1.16,0,1.58,.21,.21,.49,.33,.79,.34v.04h0Z"/></g></g><g><g><circle class="cls-4" cx="178.31" cy="66.37" r="1.78"/><path class="cls-3" d="M178.31,68.18c-.73,.08-1.5-.37-1.82-1.05-.33-.71-.25-1.68,.36-2.21,.4-.36,.98-.51,1.46-.35v.06c-.42,.15-.78,.37-1.05,.7-.25,.3-.47,.65-.49,1.05-.05,.62,.33,1.27,.9,1.56,.2,.1,.42,.17,.65,.19v.06h0Z"/></g><g><circle class="cls-4" cx="180.05" cy="65.25" r="1.78"/><path class="cls-3" d="M178.25,65.06c0-.73,.53-1.45,1.24-1.7,.74-.25,1.69-.07,2.16,.59,.31,.44,.4,1.03,.19,1.49h-.06c-.1-.44-.28-.82-.58-1.13-.28-.28-.59-.53-.99-.6-.61-.11-1.3,.19-1.65,.73-.12,.19-.21,.4-.26,.62h-.06Z"/></g><g><circle class="cls-4" cx="180.65" cy="67.14" r="1.78"/><path class="cls-3" d="M178.85,66.94c0-.73,.53-1.45,1.24-1.7,.74-.25,1.69-.07,2.16,.59,.31,.44,.4,1.03,.19,1.49h-.06c-.1-.44-.28-.82-.58-1.13-.28-.28-.59-.53-.99-.6-.61-.11-1.3,.19-1.65,.73-.12,.19-.21,.4-.26,.62h-.06Z"/></g><g><circle class="cls-4" cx="179.53" cy="66.37" r="1.15"/><path class="cls-3" d="M179.53,67.54c-.51,.22-1.13-.11-1.35-.6-.1-.21-.14-.47-.12-.7,.06-.7,.81-1.3,1.47-1.02,0,0,0,.04,0,.04-.3,0-.58,.13-.79,.34-.43,.42-.43,1.16,0,1.58,.21,.21,.49,.33,.79,.34v.04h0Z"/></g></g><g><g><circle class="cls-4" cx="186.7" cy="66.37" r="1.78"/><path class="cls-3" d="M186.7,68.18c-.73,.08-1.5-.37-1.82-1.05-.33-.71-.25-1.68,.36-2.21,.4-.36,.98-.51,1.46-.35v.06c-.42,.15-.78,.37-1.05,.7-.25,.3-.47,.65-.49,1.05-.05,.62,.33,1.27,.9,1.56,.2,.1,.42,.17,.65,.19v.06h0Z"/></g><g><circle class="cls-4" cx="188.44" cy="65.25" r="1.78"/><path class="cls-3" d="M186.64,65.06c0-.73,.53-1.45,1.24-1.7,.74-.25,1.69-.07,2.16,.59,.31,.44,.4,1.03,.19,1.49h-.06c-.1-.44-.28-.82-.58-1.13-.28-.28-.59-.53-.99-.6-.61-.11-1.3,.19-1.65,.73-.12,.19-.21,.4-.26,.62h-.06Z"/></g><g><circle class="cls-4" cx="189.04" cy="67.14" r="1.78"/><path class="cls-3" d="M187.24,66.94c0-.73,.53-1.45,1.24-1.7,.74-.25,1.69-.07,2.16,.59,.31,.44,.4,1.03,.19,1.49h-.06c-.1-.44-.28-.82-.58-1.13-.28-.28-.59-.53-.99-.6-.61-.11-1.3,.19-1.65,.73-.12,.19-.21,.4-.26,.62h-.06Z"/></g><g><circle class="cls-4" cx="187.91" cy="66.37" r="1.15"/><path class="cls-3" d="M187.91,67.54c-.51,.22-1.13-.11-1.35-.6-.1-.21-.14-.47-.12-.7,.06-.7,.81-1.3,1.47-1.02,0,0,0,.04,0,.04-.3,0-.58,.13-.79,.34-.43,.42-.43,1.16,0,1.58,.21,.21,.49,.33,.79,.34v.04h0Z"/></g></g><g><g><circle class="cls-4" cx="178.93" cy="63.15" r="1.78"/><path class="cls-3" d="M178.93,64.95c-.73,.08-1.5-.37-1.82-1.05-.33-.71-.25-1.68,.36-2.21,.4-.36,.98-.51,1.46-.35v.06c-.42,.15-.78,.37-1.05,.7-.25,.3-.47,.65-.49,1.05-.05,.62,.33,1.27,.9,1.56,.2,.1,.42,.17,.65,.19v.06h0Z"/></g><g><circle class="cls-4" cx="180.67" cy="62.02" r="1.78"/><path class="cls-3" d="M178.87,61.83c0-.73,.53-1.45,1.24-1.7,.74-.25,1.69-.07,2.16,.59,.31,.44,.4,1.03,.19,1.49h-.06c-.1-.44-.28-.82-.58-1.13-.28-.28-.59-.53-.99-.6-.61-.11-1.3,.19-1.65,.73-.12,.19-.21,.4-.26,.62h-.06Z"/></g><g><circle class="cls-4" cx="181.27" cy="63.91" r="1.78"/><path class="cls-3" d="M179.47,63.72c0-.73,.53-1.45,1.24-1.7,.74-.25,1.69-.07,2.16,.59,.31,.44,.4,1.03,.19,1.49h-.06c-.1-.44-.28-.82-.58-1.13-.28-.28-.59-.53-.99-.6-.61-.11-1.3,.19-1.65,.73-.12,.19-.21,.4-.26,.62h-.06Z"/></g><g><circle class="cls-4" cx="180.14" cy="63.15" r="1.15"/><path class="cls-3" d="M180.14,64.31c-.51,.22-1.13-.11-1.35-.6-.1-.21-.14-.47-.12-.7,.06-.7,.81-1.3,1.47-1.02,0,0,0,.04,0,.04-.3,0-.58,.13-.79,.34-.43,.42-.43,1.16,0,1.58,.21,.21,.49,.33,.79,.34v.04h0Z"/></g></g><g><g><circle class="cls-4" cx="186.04" cy="64.88" r="1.78"/><path class="cls-3" d="M186.04,66.69c.73,.08,1.5-.37,1.82-1.05,.33-.71,.25-1.68-.36-2.21-.4-.36-.98-.51-1.46-.35v.06c.42,.15,.78,.37,1.05,.7,.25,.3,.47,.65,.49,1.05,.05,.62-.33,1.27-.9,1.56-.2,.1-.42,.17-.65,.19v.06h0Z"/></g><g><circle class="cls-4" cx="184.31" cy="63.76" r="1.78"/><path class="cls-3" d="M186.1,63.57c0-.73-.53-1.45-1.24-1.7-.74-.25-1.69-.07-2.16,.59-.31,.44-.4,1.03-.19,1.49h.06c.1-.44,.28-.82,.58-1.13,.28-.28,.59-.53,.99-.6,.61-.11,1.3,.19,1.65,.73,.12,.19,.21,.4,.26,.62h.06Z"/></g><g><circle class="cls-4" cx="183.7" cy="65.65" r="1.78"/><path class="cls-3" d="M185.5,65.45c0-.73-.53-1.45-1.24-1.7-.74-.25-1.69-.07-2.16,.59-.31,.44-.4,1.03-.19,1.49h.06c.1-.44,.28-.82,.58-1.13,.28-.28,.59-.53,.99-.6,.61-.11,1.3,.19,1.65,.73,.12,.19,.21,.4,.26,.62h.06Z"/></g><g><circle class="cls-4" cx="184.83" cy="64.88" r="1.15"/><path class="cls-3" d="M184.83,66.05c.51,.22,1.13-.11,1.35-.6,.1-.21,.14-.47,.12-.7-.06-.7-.81-1.3-1.47-1.02v.04c.3,0,.58,.13,.79,.34,.43,.42,.43,1.16,0,1.58-.21,.21-.49,.33-.79,.34v.04h0Z"/></g></g></g><g><g><g><circle class="cls-4" cx="159.11" cy="62.22" r="1.78"/><path class="cls-3" d="M159.11,64.02c-.73,.08-1.5-.37-1.82-1.05-.33-.71-.25-1.68,.36-2.21,.4-.36,.98-.51,1.46-.35v.06c-.42,.15-.78,.37-1.05,.7-.25,.3-.47,.65-.49,1.05-.05,.62,.33,1.27,.9,1.56,.2,.1,.42,.17,.65,.19v.06h0Z"/></g><g><circle class="cls-4" cx="160.85" cy="61.1" r="1.78"/><path class="cls-3" d="M159.05,60.9c0-.73,.53-1.45,1.24-1.7,.74-.25,1.69-.07,2.16,.59,.31,.44,.4,1.03,.19,1.49h-.06c-.1-.44-.28-.82-.58-1.13-.28-.28-.59-.53-.99-.6-.61-.11-1.3,.19-1.65,.73-.12,.19-.21,.4-.26,.62h-.06Z"/></g><g><circle class="cls-4" cx="161.45" cy="62.98" r="1.78"/><path class="cls-3" d="M159.66,62.79c0-.73,.53-1.45,1.24-1.7,.74-.25,1.69-.07,2.16,.59,.31,.44,.4,1.03,.19,1.49h-.06c-.1-.44-.28-.82-.58-1.13-.28-.28-.59-.53-.99-.6-.61-.11-1.3,.19-1.65,.73-.12,.19-.21,.4-.26,.62h-.06Z"/></g><g><circle class="cls-4" cx="160.33" cy="62.22" r="1.15"/><path class="cls-3" d="M160.33,63.39c-.51,.22-1.13-.11-1.35-.6-.1-.21-.14-.47-.12-.7,.06-.7,.81-1.3,1.47-1.02,0,0,0,.04,0,.04-.3,0-.58,.13-.79,.34-.43,.42-.43,1.16,0,1.58,.21,.21,.49,.33,.79,.34v.04h0Z"/></g></g><g><g><circle class="cls-4" cx="163.48" cy="63.27" r="1.78"/><path class="cls-3" d="M163.48,65.08c-.73,.08-1.5-.37-1.82-1.05-.33-.71-.25-1.68,.36-2.21,.4-.36,.98-.51,1.46-.35v.06c-.42,.15-.78,.37-1.05,.7-.25,.3-.47,.65-.49,1.05-.05,.62,.33,1.27,.9,1.56,.2,.1,.42,.17,.65,.19v.06h0Z"/></g><g><circle class="cls-4" cx="165.22" cy="62.15" r="1.78"/><path class="cls-3" d="M163.42,61.96c0-.73,.53-1.45,1.24-1.7,.74-.25,1.69-.07,2.16,.59,.31,.44,.4,1.03,.19,1.49h-.06c-.1-.44-.28-.82-.58-1.13-.28-.28-.59-.53-.99-.6-.61-.11-1.3,.19-1.65,.73-.12,.19-.21,.4-.26,.62h-.06Z"/></g><g><circle class="cls-4" cx="165.82" cy="64.04" r="1.78"/><path class="cls-3" d="M164.02,63.85c0-.73,.53-1.45,1.24-1.7,.74-.25,1.69-.07,2.16,.59,.31,.44,.4,1.03,.19,1.49h-.06c-.1-.44-.28-.82-.58-1.13-.28-.28-.59-.53-.99-.6-.61-.11-1.3,.19-1.65,.73-.12,.19-.21,.4-.26,.62h-.06Z"/></g><g><circle class="cls-4" cx="164.69" cy="63.27" r="1.15"/><path class="cls-3" d="M164.69,64.44c-.51,.22-1.13-.11-1.35-.6-.1-.21-.14-.47-.12-.7,.06-.7,.81-1.3,1.47-1.02,0,0,0,.04,0,.04-.3,0-.58,.13-.79,.34-.43,.42-.43,1.16,0,1.58,.21,.21,.49,.33,.79,.34v.04h0Z"/></g></g><g><g><circle class="cls-4" cx="171.87" cy="63.27" r="1.78"/><path class="cls-3" d="M171.87,65.08c-.73,.08-1.5-.37-1.82-1.05-.33-.71-.25-1.68,.36-2.21,.4-.36,.98-.51,1.46-.35v.06c-.42,.15-.78,.37-1.05,.7-.25,.3-.47,.65-.49,1.05-.05,.62,.33,1.27,.9,1.56,.2,.1,.42,.17,.65,.19v.06h0Z"/></g><g><circle class="cls-4" cx="173.61" cy="62.15" r="1.78"/><path class="cls-3" d="M171.81,61.96c0-.73,.53-1.45,1.24-1.7,.74-.25,1.69-.07,2.16,.59,.31,.44,.4,1.03,.19,1.49h-.06c-.1-.44-.28-.82-.58-1.13-.28-.28-.59-.53-.99-.6-.61-.11-1.3,.19-1.65,.73-.12,.19-.21,.4-.26,.62h-.06Z"/></g><g><circle class="cls-4" cx="174.21" cy="64.04" r="1.78"/><path class="cls-3" d="M172.41,63.85c0-.73,.53-1.45,1.24-1.7,.74-.25,1.69-.07,2.16,.59,.31,.44,.4,1.03,.19,1.49h-.06c-.1-.44-.28-.82-.58-1.13-.28-.28-.59-.53-.99-.6-.61-.11-1.3,.19-1.65,.73-.12,.19-.21,.4-.26,.62h-.06Z"/></g><g><circle class="cls-4" cx="173.08" cy="63.27" r="1.15"/><path class="cls-3" d="M173.08,64.44c-.51,.22-1.13-.11-1.35-.6-.1-.21-.14-.47-.12-.7,.06-.7,.81-1.3,1.47-1.02,0,0,0,.04,0,.04-.3,0-.58,.13-.79,.34-.43,.42-.43,1.16,0,1.58,.21,.21,.49,.33,.79,.34v.04h0Z"/></g></g><g><g><circle class="cls-4" cx="164.1" cy="60.05" r="1.78"/><path class="cls-3" d="M164.1,61.85c-.73,.08-1.5-.37-1.82-1.05-.33-.71-.25-1.68,.36-2.21,.4-.36,.98-.51,1.46-.35v.06c-.42,.15-.78,.37-1.05,.7-.25,.3-.47,.65-.49,1.05-.05,.62,.33,1.27,.9,1.56,.2,.1,.42,.17,.65,.19v.06h0Z"/></g><g><circle class="cls-4" cx="165.83" cy="58.92" r="1.78"/><path class="cls-3" d="M164.04,58.73c0-.73,.53-1.45,1.24-1.7,.74-.25,1.69-.07,2.16,.59,.31,.44,.4,1.03,.19,1.49h-.06c-.1-.44-.28-.82-.58-1.13-.28-.28-.59-.53-.99-.6-.61-.11-1.3,.19-1.65,.73-.12,.19-.21,.4-.26,.62h-.06Z"/></g><g><circle class="cls-4" cx="166.44" cy="60.81" r="1.78"/><path class="cls-3" d="M164.64,60.62c0-.73,.53-1.45,1.24-1.7,.74-.25,1.69-.07,2.16,.59,.31,.44,.4,1.03,.19,1.49h-.06c-.1-.44-.28-.82-.58-1.13-.28-.28-.59-.53-.99-.6-.61-.11-1.3,.19-1.65,.73-.12,.19-.21,.4-.26,.62h-.06Z"/></g><g><circle class="cls-4" cx="165.31" cy="60.05" r="1.15"/><path class="cls-3" d="M165.31,61.21c-.51,.22-1.13-.11-1.35-.6-.1-.21-.14-.47-.12-.7,.06-.7,.81-1.3,1.47-1.02,0,0,0,.04,0,.04-.3,0-.58,.13-.79,.34-.43,.42-.43,1.16,0,1.58,.21,.21,.49,.33,.79,.34v.04h0Z"/></g></g><g><g><circle class="cls-4" cx="171.21" cy="61.78" r="1.78"/><path class="cls-3" d="M171.21,63.59c.73,.08,1.5-.37,1.82-1.05,.33-.71,.25-1.68-.36-2.21-.4-.36-.98-.51-1.46-.35v.06c.42,.15,.78,.37,1.05,.7,.25,.3,.47,.65,.49,1.05,.05,.62-.33,1.27-.9,1.56-.2,.1-.42,.17-.65,.19v.06h0Z"/></g><g><circle class="cls-4" cx="169.47" cy="60.66" r="1.78"/><path class="cls-3" d="M171.27,60.47c0-.73-.53-1.45-1.24-1.7-.74-.25-1.69-.07-2.16,.59-.31,.44-.4,1.03-.19,1.49h.06c.1-.44,.28-.82,.58-1.13,.28-.28,.59-.53,.99-.6,.61-.11,1.3,.19,1.65,.73,.12,.19,.21,.4,.26,.62h.06Z"/></g><g><circle class="cls-4" cx="168.87" cy="62.55" r="1.78"/><path class="cls-3" d="M170.67,62.36c0-.73-.53-1.45-1.24-1.7-.74-.25-1.69-.07-2.16,.59-.31,.44-.4,1.03-.19,1.49h.06c.1-.44,.28-.82,.58-1.13,.28-.28,.59-.53,.99-.6,.61-.11,1.3,.19,1.65,.73,.12,.19,.21,.4,.26,.62h.06Z"/></g><g><circle class="cls-4" cx="170" cy="61.78" r="1.15"/><path class="cls-3" d="M170,62.95c.51,.22,1.13-.11,1.35-.6,.1-.21,.14-.47,.12-.7-.06-.7-.81-1.3-1.47-1.02,0,0,0,.04,0,.04,.3,0,.58,.13,.79,.34,.43,.42,.43,1.16,0,1.58-.21,.21-.49,.33-.79,.34v.04h0Z"/></g></g></g><g><g><g><circle class="cls-4" cx="155.55" cy="65.07" r="1.78"/><path class="cls-3" d="M155.55,66.88c-.73,.08-1.5-.37-1.82-1.05-.33-.71-.25-1.68,.36-2.21,.4-.36,.98-.51,1.46-.35v.06c-.42,.15-.78,.37-1.05,.7-.25,.3-.47,.65-.49,1.05-.05,.62,.33,1.27,.9,1.56,.2,.1,.42,.17,.65,.19v.06h0Z"/></g><g><circle class="cls-4" cx="157.28" cy="63.95" r="1.78"/><path class="cls-3" d="M155.49,63.76c0-.73,.53-1.45,1.24-1.7,.74-.25,1.69-.07,2.16,.59,.31,.44,.4,1.03,.19,1.49h-.06c-.1-.44-.28-.82-.58-1.13-.28-.28-.59-.53-.99-.6-.61-.11-1.3,.19-1.65,.73-.12,.19-.21,.4-.26,.62h-.06Z"/></g><g><circle class="cls-4" cx="157.89" cy="65.84" r="1.78"/><path class="cls-3" d="M156.09,65.65c0-.73,.53-1.45,1.24-1.7,.74-.25,1.69-.07,2.16,.59,.31,.44,.4,1.03,.19,1.49h-.06c-.1-.44-.28-.82-.58-1.13-.28-.28-.59-.53-.99-.6-.61-.11-1.3,.19-1.65,.73-.12,.19-.21,.4-.26,.62h-.06Z"/></g><g><circle class="cls-4" cx="156.76" cy="65.07" r="1.15"/><path class="cls-3" d="M156.76,66.24c-.51,.22-1.13-.11-1.35-.6-.1-.21-.14-.47-.12-.7,.06-.7,.81-1.3,1.47-1.02,0,0,0,.04,0,.04-.3,0-.58,.13-.79,.34-.43,.42-.43,1.16,0,1.58,.21,.21,.49,.33,.79,.34v.04h0Z"/></g></g><g><g><circle class="cls-4" cx="159.91" cy="66.13" r="1.78"/><path class="cls-3" d="M159.91,67.93c-.73,.08-1.5-.37-1.82-1.05-.33-.71-.25-1.68,.36-2.21,.4-.36,.98-.51,1.46-.35v.06c-.42,.15-.78,.37-1.05,.7-.25,.3-.47,.65-.49,1.05-.05,.62,.33,1.27,.9,1.56,.2,.1,.42,.17,.65,.19v.06h0Z"/></g><g><circle class="cls-4" cx="161.65" cy="65.01" r="1.78"/><path class="cls-3" d="M159.85,64.81c0-.73,.53-1.45,1.24-1.7,.74-.25,1.69-.07,2.16,.59,.31,.44,.4,1.03,.19,1.49h-.06c-.1-.44-.28-.82-.58-1.13-.28-.28-.59-.53-.99-.6-.61-.11-1.3,.19-1.65,.73-.12,.19-.21,.4-.26,.62h-.06Z"/></g><g><circle class="cls-4" cx="162.25" cy="66.89" r="1.78"/><path class="cls-3" d="M160.46,66.7c0-.73,.53-1.45,1.24-1.7,.74-.25,1.69-.07,2.16,.59,.31,.44,.4,1.03,.19,1.49h-.06c-.1-.44-.28-.82-.58-1.13-.28-.28-.59-.53-.99-.6-.61-.11-1.3,.19-1.65,.73-.12,.19-.21,.4-.26,.62h-.06Z"/></g><g><circle class="cls-4" cx="161.13" cy="66.13" r="1.15"/><path class="cls-3" d="M161.13,67.29c-.51,.22-1.13-.11-1.35-.6-.1-.21-.14-.47-.12-.7,.06-.7,.81-1.3,1.47-1.02v.04c-.3,0-.58,.13-.79,.34-.43,.42-.43,1.16,0,1.58,.21,.21,.49,.33,.79,.34v.04h0Z"/></g></g><g><g><circle class="cls-4" cx="168.3" cy="66.13" r="1.78"/><path class="cls-3" d="M168.3,67.93c-.73,.08-1.5-.37-1.82-1.05-.33-.71-.25-1.68,.36-2.21,.4-.36,.98-.51,1.46-.35v.06c-.42,.15-.78,.37-1.05,.7-.25,.3-.47,.65-.49,1.05-.05,.62,.33,1.27,.9,1.56,.2,.1,.42,.17,.65,.19v.06h0Z"/></g><g><circle class="cls-4" cx="170.04" cy="65.01" r="1.78"/><path class="cls-3" d="M168.24,64.81c0-.73,.53-1.45,1.24-1.7,.74-.25,1.69-.07,2.16,.59,.31,.44,.4,1.03,.19,1.49h-.06c-.1-.44-.28-.82-.58-1.13-.28-.28-.59-.53-.99-.6-.61-.11-1.3,.19-1.65,.73-.12,.19-.21,.4-.26,.62h-.06Z"/></g><g><circle class="cls-4" cx="170.64" cy="66.89" r="1.78"/><path class="cls-3" d="M168.85,66.7c0-.73,.53-1.45,1.24-1.7,.74-.25,1.69-.07,2.16,.59,.31,.44,.4,1.03,.19,1.49h-.06c-.1-.44-.28-.82-.58-1.13-.28-.28-.59-.53-.99-.6-.61-.11-1.3,.19-1.65,.73-.12,.19-.21,.4-.26,.62h-.06Z"/></g><g><circle class="cls-4" cx="169.52" cy="66.13" r="1.15"/><path class="cls-3" d="M169.52,67.29c-.51,.22-1.13-.11-1.35-.6-.1-.21-.14-.47-.12-.7,.06-.7,.81-1.3,1.47-1.02v.04c-.3,0-.58,.13-.79,.34-.43,.42-.43,1.16,0,1.58,.21,.21,.49,.33,.79,.34v.04h0Z"/></g></g><g><g><circle class="cls-4" cx="160.53" cy="62.9" r="1.78"/><path class="cls-3" d="M160.53,64.71c-.73,.08-1.5-.37-1.82-1.05-.33-.71-.25-1.68,.36-2.21,.4-.36,.98-.51,1.46-.35v.06c-.42,.15-.78,.37-1.05,.7-.25,.3-.47,.65-.49,1.05-.05,.62,.33,1.27,.9,1.56,.2,.1,.42,.17,.65,.19v.06h0Z"/></g><g><circle class="cls-4" cx="162.27" cy="61.78" r="1.78"/><path class="cls-3" d="M160.47,61.59c0-.73,.53-1.45,1.24-1.7,.74-.25,1.69-.07,2.16,.59,.31,.44,.4,1.03,.19,1.49h-.06c-.1-.44-.28-.82-.58-1.13-.28-.28-.59-.53-.99-.6-.61-.11-1.3,.19-1.65,.73-.12,.19-.21,.4-.26,.62h-.06Z"/></g><g><circle class="cls-4" cx="162.87" cy="63.67" r="1.78"/><path class="cls-3" d="M161.07,63.47c0-.73,.53-1.45,1.24-1.7,.74-.25,1.69-.07,2.16,.59,.31,.44,.4,1.03,.19,1.49h-.06c-.1-.44-.28-.82-.58-1.13-.28-.28-.59-.53-.99-.6-.61-.11-1.3,.19-1.65,.73-.12,.19-.21,.4-.26,.62h-.06Z"/></g><g><circle class="cls-4" cx="161.74" cy="62.9" r="1.15"/><path class="cls-3" d="M161.74,64.07c-.51,.22-1.13-.11-1.35-.6-.1-.21-.14-.47-.12-.7,.06-.7,.81-1.3,1.47-1.02,0,0,0,.04,0,.04-.3,0-.58,.13-.79,.34-.43,.42-.43,1.16,0,1.58,.21,.21,.49,.33,.79,.34v.04h0Z"/></g></g><g><g><circle class="cls-4" cx="167.64" cy="64.64" r="1.78"/><path class="cls-3" d="M167.64,66.44c.73,.08,1.5-.37,1.82-1.05,.33-.71,.25-1.68-.36-2.21-.4-.36-.98-.51-1.46-.35v.06c.42,.15,.78,.37,1.05,.7,.25,.3,.47,.65,.49,1.05,.05,.62-.33,1.27-.9,1.56-.2,.1-.42,.17-.65,.19v.06h0Z"/></g><g><circle class="cls-4" cx="165.91" cy="63.52" r="1.78"/><path class="cls-3" d="M167.7,63.32c0-.73-.53-1.45-1.24-1.7-.74-.25-1.69-.07-2.16,.59-.31,.44-.4,1.03-.19,1.49h.06c.1-.44,.28-.82,.58-1.13,.28-.28,.59-.53,.99-.6,.61-.11,1.3,.19,1.65,.73,.12,.19,.21,.4,.26,.62h.06Z"/></g><g><circle class="cls-4" cx="165.31" cy="65.4" r="1.78"/><path class="cls-3" d="M167.1,65.21c0-.73-.53-1.45-1.24-1.7-.74-.25-1.69-.07-2.16,.59-.31,.44-.4,1.03-.19,1.49h.06c.1-.44,.28-.82,.58-1.13,.28-.28,.59-.53,.99-.6,.61-.11,1.3,.19,1.65,.73,.12,.19,.21,.4,.26,.62h.06Z"/></g><g><circle class="cls-4" cx="166.43" cy="64.64" r="1.15"/><path class="cls-3" d="M166.43,65.8c.51,.22,1.13-.11,1.35-.6,.1-.21,.14-.47,.12-.7-.06-.7-.81-1.3-1.47-1.02v.04c.3,0,.58,.13,.79,.34,.43,.42,.43,1.16,0,1.58-.21,.21-.49,.33-.79,.34v.04h0Z"/></g></g></g><g><g><g><circle class="cls-4" cx="167.58" cy="56.02" r="1.78"/><path class="cls-3" d="M167.58,57.83c-.73,.08-1.5-.37-1.82-1.05-.33-.71-.25-1.68,.36-2.21,.4-.36,.98-.51,1.46-.35v.06c-.42,.15-.78,.37-1.05,.7-.25,.3-.47,.65-.49,1.05-.05,.62,.33,1.27,.9,1.56,.2,.1,.42,.17,.65,.19v.06h0Z"/></g><g><circle class="cls-4" cx="169.31" cy="54.9" r="1.78"/><path class="cls-3" d="M167.52,54.71c0-.73,.53-1.45,1.24-1.7,.74-.25,1.69-.07,2.16,.59,.31,.44,.4,1.03,.19,1.49h-.06c-.1-.44-.28-.82-.58-1.13-.28-.28-.59-.53-.99-.6-.61-.11-1.3,.19-1.65,.73-.12,.19-.21,.4-.26,.62h-.06Z"/></g><g><circle class="cls-4" cx="169.91" cy="56.79" r="1.78"/><path class="cls-3" d="M168.12,56.6c0-.73,.53-1.45,1.24-1.7,.74-.25,1.69-.07,2.16,.59,.31,.44,.4,1.03,.19,1.49h-.06c-.1-.44-.28-.82-.58-1.13-.28-.28-.59-.53-.99-.6-.61-.11-1.3,.19-1.65,.73-.12,.19-.21,.4-.26,.62h-.06Z"/></g><g><circle class="cls-4" cx="168.79" cy="56.02" r="1.15"/><path class="cls-3" d="M168.79,57.19c-.51,.22-1.13-.11-1.35-.6-.1-.21-.14-.47-.12-.7,.06-.7,.81-1.3,1.47-1.02,0,0,0,.04,0,.04-.3,0-.58,.13-.79,.34-.43,.42-.43,1.16,0,1.58,.21,.21,.49,.33,.79,.34v.04h0Z"/></g></g><g><g><circle class="cls-4" cx="171.94" cy="57.08" r="1.78"/><path class="cls-3" d="M171.94,58.88c-.73,.08-1.5-.37-1.82-1.05-.33-.71-.25-1.68,.36-2.21,.4-.36,.98-.51,1.46-.35v.06c-.42,.15-.78,.37-1.05,.7-.25,.3-.47,.65-.49,1.05-.05,.62,.33,1.27,.9,1.56,.2,.1,.42,.17,.65,.19v.06h0Z"/></g><g><circle class="cls-4" cx="173.68" cy="55.96" r="1.78"/><path class="cls-3" d="M171.88,55.76c0-.73,.53-1.45,1.24-1.7,.74-.25,1.69-.07,2.16,.59,.31,.44,.4,1.03,.19,1.49h-.06c-.1-.44-.28-.82-.58-1.13-.28-.28-.59-.53-.99-.6-.61-.11-1.3,.19-1.65,.73-.12,.19-.21,.4-.26,.62h-.06Z"/></g><g><circle class="cls-4" cx="174.28" cy="57.84" r="1.78"/><path class="cls-3" d="M172.48,57.65c0-.73,.53-1.45,1.24-1.7,.74-.25,1.69-.07,2.16,.59,.31,.44,.4,1.03,.19,1.49h-.06c-.1-.44-.28-.82-.58-1.13-.28-.28-.59-.53-.99-.6-.61-.11-1.3,.19-1.65,.73-.12,.19-.21,.4-.26,.62h-.06Z"/></g><g><circle class="cls-4" cx="173.16" cy="57.08" r="1.15"/><path class="cls-3" d="M173.16,58.24c-.51,.22-1.13-.11-1.35-.6-.1-.21-.14-.47-.12-.7,.06-.7,.81-1.3,1.47-1.02,0,0,0,.04,0,.04-.3,0-.58,.13-.79,.34-.43,.42-.43,1.16,0,1.58,.21,.21,.49,.33,.79,.34v.04h0Z"/></g></g><g><g><circle class="cls-4" cx="180.33" cy="57.08" r="1.78"/><path class="cls-3" d="M180.33,58.88c-.73,.08-1.5-.37-1.82-1.05-.33-.71-.25-1.68,.36-2.21,.4-.36,.98-.51,1.46-.35v.06c-.42,.15-.78,.37-1.05,.7-.25,.3-.47,.65-.49,1.05-.05,.62,.33,1.27,.9,1.56,.2,.1,.42,.17,.65,.19v.06h0Z"/></g><g><circle class="cls-4" cx="182.07" cy="55.96" r="1.78"/><path class="cls-3" d="M180.27,55.76c0-.73,.53-1.45,1.24-1.7,.74-.25,1.69-.07,2.16,.59,.31,.44,.4,1.03,.19,1.49h-.06c-.1-.44-.28-.82-.58-1.13-.28-.28-.59-.53-.99-.6-.61-.11-1.3,.19-1.65,.73-.12,.19-.21,.4-.26,.62h-.06Z"/></g><g><circle class="cls-4" cx="182.67" cy="57.84" r="1.78"/><path class="cls-3" d="M180.87,57.65c0-.73,.53-1.45,1.24-1.7,.74-.25,1.69-.07,2.16,.59,.31,.44,.4,1.03,.19,1.49h-.06c-.1-.44-.28-.82-.58-1.13-.28-.28-.59-.53-.99-.6-.61-.11-1.3,.19-1.65,.73-.12,.19-.21,.4-.26,.62h-.06Z"/></g><g><circle class="cls-4" cx="181.55" cy="57.08" r="1.15"/><path class="cls-3" d="M181.55,58.24c-.51,.22-1.13-.11-1.35-.6-.1-.21-.14-.47-.12-.7,.06-.7,.81-1.3,1.47-1.02,0,0,0,.04,0,.04-.3,0-.58,.13-.79,.34-.43,.42-.43,1.16,0,1.58,.21,.21,.49,.33,.79,.34v.04h0Z"/></g></g><g><g><circle class="cls-4" cx="172.56" cy="53.85" r="1.78"/><path class="cls-3" d="M172.56,55.66c-.73,.08-1.5-.37-1.82-1.05-.33-.71-.25-1.68,.36-2.21,.4-.36,.98-.51,1.46-.35v.06c-.42,.15-.78,.37-1.05,.7-.25,.3-.47,.65-.49,1.05-.05,.62,.33,1.27,.9,1.56,.2,.1,.42,.17,.65,.19v.06h0Z"/></g><g><circle class="cls-4" cx="174.3" cy="52.73" r="1.78"/><path class="cls-3" d="M172.5,52.54c0-.73,.53-1.45,1.24-1.7,.74-.25,1.69-.07,2.16,.59,.31,.44,.4,1.03,.19,1.49h-.06c-.1-.44-.28-.82-.58-1.13-.28-.28-.59-.53-.99-.6-.61-.11-1.3,.19-1.65,.73-.12,.19-.21,.4-.26,.62h-.06Z"/></g><g><circle class="cls-4" cx="174.9" cy="54.62" r="1.78"/><path class="cls-3" d="M173.1,54.42c0-.73,.53-1.45,1.24-1.7,.74-.25,1.69-.07,2.16,.59,.31,.44,.4,1.03,.19,1.49h-.06c-.1-.44-.28-.82-.58-1.13-.28-.28-.59-.53-.99-.6-.61-.11-1.3,.19-1.65,.73-.12,.19-.21,.4-.26,.62h-.06Z"/></g><g><circle class="cls-4" cx="173.77" cy="53.85" r="1.15"/><path class="cls-3" d="M173.77,55.02c-.51,.22-1.13-.11-1.35-.6-.1-.21-.14-.47-.12-.7,.06-.7,.81-1.3,1.47-1.02,0,0,0,.04,0,.04-.3,0-.58,.13-.79,.34-.43,.42-.43,1.16,0,1.58,.21,.21,.49,.33,.79,.34v.04h0Z"/></g></g><g><g><circle class="cls-4" cx="179.67" cy="55.59" r="1.78"/><path class="cls-3" d="M179.67,57.39c.73,.08,1.5-.37,1.82-1.05,.33-.71,.25-1.68-.36-2.21-.4-.36-.98-.51-1.46-.35v.06c.42,.15,.78,.37,1.05,.7,.25,.3,.47,.65,.49,1.05,.05,.62-.33,1.27-.9,1.56-.2,.1-.42,.17-.65,.19v.06h0Z"/></g><g><circle class="cls-4" cx="177.94" cy="54.47" r="1.78"/><path class="cls-3" d="M179.73,54.27c0-.73-.53-1.45-1.24-1.7-.74-.25-1.69-.07-2.16,.59-.31,.44-.4,1.03-.19,1.49h.06c.1-.44,.28-.82,.58-1.13,.28-.28,.59-.53,.99-.6,.61-.11,1.3,.19,1.65,.73,.12,.19,.21,.4,.26,.62h.06Z"/></g><g><circle class="cls-4" cx="177.34" cy="56.35" r="1.78"/><path class="cls-3" d="M179.13,56.16c0-.73-.53-1.45-1.24-1.7-.74-.25-1.69-.07-2.16,.59-.31,.44-.4,1.03-.19,1.49h.06c.1-.44,.28-.82,.58-1.13,.28-.28,.59-.53,.99-.6,.61-.11,1.3,.19,1.65,.73,.12,.19,.21,.4,.26,.62h.06Z"/></g><g><circle class="cls-4" cx="178.46" cy="55.59" r="1.15"/><path class="cls-3" d="M178.46,56.75c.51,.22,1.13-.11,1.35-.6,.1-.21,.14-.47,.12-.7-.06-.7-.81-1.3-1.47-1.02,0,0,0,.04,0,.04,.3,0,.58,.13,.79,.34,.43,.42,.43,1.16,0,1.58-.21,.21-.49,.33-.79,.34v.04h0Z"/></g></g></g><g><g><g><circle class="cls-4" cx="168.88" cy="59.22" r="1.78"/><path class="cls-3" d="M168.88,61.03c-.73,.08-1.5-.37-1.82-1.05-.33-.71-.25-1.68,.36-2.21,.4-.36,.98-.51,1.46-.35v.06c-.42,.15-.78,.37-1.05,.7-.25,.3-.47,.65-.49,1.05-.05,.62,.33,1.27,.9,1.56,.2,.1,.42,.17,.65,.19v.06h0Z"/></g><g><circle class="cls-4" cx="170.61" cy="58.1" r="1.78"/><path class="cls-3" d="M168.82,57.91c0-.73,.53-1.45,1.24-1.7,.74-.25,1.69-.07,2.16,.59,.31,.44,.4,1.03,.19,1.49h-.06c-.1-.44-.28-.82-.58-1.13-.28-.28-.59-.53-.99-.6-.61-.11-1.3,.19-1.65,.73-.12,.19-.21,.4-.26,.62h-.06Z"/></g><g><circle class="cls-4" cx="171.21" cy="59.99" r="1.78"/><path class="cls-3" d="M169.42,59.79c0-.73,.53-1.45,1.24-1.7,.74-.25,1.69-.07,2.16,.59,.31,.44,.4,1.03,.19,1.49h-.06c-.1-.44-.28-.82-.58-1.13-.28-.28-.59-.53-.99-.6-.61-.11-1.3,.19-1.65,.73-.12,.19-.21,.4-.26,.62h-.06Z"/></g><g><circle class="cls-4" cx="170.09" cy="59.22" r="1.15"/><path class="cls-3" d="M170.09,60.39c-.51,.22-1.13-.11-1.35-.6-.1-.21-.14-.47-.12-.7,.06-.7,.81-1.3,1.47-1.02v.04c-.3,0-.58,.13-.79,.34-.43,.42-.43,1.16,0,1.58,.21,.21,.49,.33,.79,.34v.04h0Z"/></g></g><g><g><circle class="cls-4" cx="173.24" cy="60.27" r="1.78"/><path class="cls-3" d="M173.24,62.08c-.73,.08-1.5-.37-1.82-1.05-.33-.71-.25-1.68,.36-2.21,.4-.36,.98-.51,1.46-.35v.06c-.42,.15-.78,.37-1.05,.7-.25,.3-.47,.65-.49,1.05-.05,.62,.33,1.27,.9,1.56,.2,.1,.42,.17,.65,.19v.06h0Z"/></g><g><circle class="cls-4" cx="174.98" cy="59.15" r="1.78"/><path class="cls-3" d="M173.18,58.96c0-.73,.53-1.45,1.24-1.7,.74-.25,1.69-.07,2.16,.59,.31,.44,.4,1.03,.19,1.49h-.06c-.1-.44-.28-.82-.58-1.13-.28-.28-.59-.53-.99-.6-.61-.11-1.3,.19-1.65,.73-.12,.19-.21,.4-.26,.62h-.06Z"/></g><g><circle class="cls-4" cx="175.58" cy="61.04" r="1.78"/><path class="cls-3" d="M173.78,60.85c0-.73,.53-1.45,1.24-1.7,.74-.25,1.69-.07,2.16,.59,.31,.44,.4,1.03,.19,1.49h-.06c-.1-.44-.28-.82-.58-1.13-.28-.28-.59-.53-.99-.6-.61-.11-1.3,.19-1.65,.73-.12,.19-.21,.4-.26,.62h-.06Z"/></g><g><circle class="cls-4" cx="174.46" cy="60.28" r="1.15"/><path class="cls-3" d="M174.46,61.44c-.51,.22-1.13-.11-1.35-.6-.1-.21-.14-.47-.12-.7,.06-.7,.81-1.3,1.47-1.02v.04c-.3,0-.58,.13-.79,.34-.43,.42-.43,1.16,0,1.58,.21,.21,.49,.33,.79,.34v.04h0Z"/></g></g><g><g><circle class="cls-4" cx="181.63" cy="60.27" r="1.78"/><path class="cls-3" d="M181.63,62.08c-.73,.08-1.5-.37-1.82-1.05-.33-.71-.25-1.68,.36-2.21,.4-.36,.98-.51,1.46-.35v.06c-.42,.15-.78,.37-1.05,.7-.25,.3-.47,.65-.49,1.05-.05,.62,.33,1.27,.9,1.56,.2,.1,.42,.17,.65,.19v.06h0Z"/></g><g><circle class="cls-4" cx="183.37" cy="59.15" r="1.78"/><path class="cls-3" d="M181.57,58.96c0-.73,.53-1.45,1.24-1.7,.74-.25,1.69-.07,2.16,.59,.31,.44,.4,1.03,.19,1.49h-.06c-.1-.44-.28-.82-.58-1.13-.28-.28-.59-.53-.99-.6-.61-.11-1.3,.19-1.65,.73-.12,.19-.21,.4-.26,.62h-.06Z"/></g><g><circle class="cls-4" cx="183.97" cy="61.04" r="1.78"/><path class="cls-3" d="M182.17,60.85c0-.73,.53-1.45,1.24-1.7,.74-.25,1.69-.07,2.16,.59,.31,.44,.4,1.03,.19,1.49h-.06c-.1-.44-.28-.82-.58-1.13-.28-.28-.59-.53-.99-.6-.61-.11-1.3,.19-1.65,.73-.12,.19-.21,.4-.26,.62h-.06Z"/></g><g><circle class="cls-4" cx="182.85" cy="60.28" r="1.15"/><path class="cls-3" d="M182.85,61.44c-.51,.22-1.13-.11-1.35-.6-.1-.21-.14-.47-.12-.7,.06-.7,.81-1.3,1.47-1.02v.04c-.3,0-.58,.13-.79,.34-.43,.42-.43,1.16,0,1.58,.21,.21,.49,.33,.79,.34v.04h0Z"/></g></g><g><g><circle class="cls-4" cx="173.86" cy="57.05" r="1.78"/><path class="cls-3" d="M173.86,58.85c-.73,.08-1.5-.37-1.82-1.05-.33-.71-.25-1.68,.36-2.21,.4-.36,.98-.51,1.46-.35v.06c-.42,.15-.78,.37-1.05,.7-.25,.3-.47,.65-.49,1.05-.05,.62,.33,1.27,.9,1.56,.2,.1,.42,.17,.65,.19v.06h0Z"/></g><g><circle class="cls-4" cx="175.6" cy="55.93" r="1.78"/><path class="cls-3" d="M173.8,55.73c0-.73,.53-1.45,1.24-1.7,.74-.25,1.69-.07,2.16,.59,.31,.44,.4,1.03,.19,1.49h-.06c-.1-.44-.28-.82-.58-1.13-.28-.28-.59-.53-.99-.6-.61-.11-1.3,.19-1.65,.73-.12,.19-.21,.4-.26,.62h-.06Z"/></g><g><circle class="cls-4" cx="176.2" cy="57.82" r="1.78"/><path class="cls-3" d="M174.4,57.62c0-.73,.53-1.45,1.24-1.7,.74-.25,1.69-.07,2.16,.59,.31,.44,.4,1.03,.19,1.49h-.06c-.1-.44-.28-.82-.58-1.13-.28-.28-.59-.53-.99-.6-.61-.11-1.3,.19-1.65,.73-.12,.19-.21,.4-.26,.62h-.06Z"/></g><g><circle class="cls-4" cx="175.07" cy="57.05" r="1.15"/><path class="cls-3" d="M175.07,58.22c-.51,.22-1.13-.11-1.35-.6-.1-.21-.14-.47-.12-.7,.06-.7,.81-1.3,1.47-1.02,0,0,0,.04,0,.04-.3,0-.58,.13-.79,.34-.43,.42-.43,1.16,0,1.58,.21,.21,.49,.33,.79,.34v.04h0Z"/></g></g><g><g><circle class="cls-4" cx="180.97" cy="58.78" r="1.78"/><path class="cls-3" d="M180.97,60.59c.73,.08,1.5-.37,1.82-1.05,.33-.71,.25-1.68-.36-2.21-.4-.36-.98-.51-1.46-.35v.06c.42,.15,.78,.37,1.05,.7,.25,.3,.47,.65,.49,1.05,.05,.62-.33,1.27-.9,1.56-.2,.1-.42,.17-.65,.19v.06h0Z"/></g><g><circle class="cls-4" cx="179.24" cy="57.66" r="1.78"/><path class="cls-3" d="M181.03,57.47c0-.73-.53-1.45-1.24-1.7-.74-.25-1.69-.07-2.16,.59-.31,.44-.4,1.03-.19,1.49h.06c.1-.44,.28-.82,.58-1.13,.28-.28,.59-.53,.99-.6,.61-.11,1.3,.19,1.65,.73,.12,.19,.21,.4,.26,.62h.06Z"/></g><g><circle class="cls-4" cx="178.63" cy="59.55" r="1.78"/><path class="cls-3" d="M180.43,59.36c0-.73-.53-1.45-1.24-1.7-.74-.25-1.69-.07-2.16,.59-.31,.44-.4,1.03-.19,1.49h.06c.1-.44,.28-.82,.58-1.13,.28-.28,.59-.53,.99-.6,.61-.11,1.3,.19,1.65,.73,.12,.19,.21,.4,.26,.62h.06Z"/></g><g><circle class="cls-4" cx="179.76" cy="58.79" r="1.15"/><path class="cls-3" d="M179.76,59.95c.51,.22,1.13-.11,1.35-.6,.1-.21,.14-.47,.12-.7-.06-.7-.81-1.3-1.47-1.02,0,0,0,.04,0,.04,.3,0,.58,.13,.79,.34,.43,.42,.43,1.16,0,1.58-.21,.21-.49,.33-.79,.34v.04h0Z"/></g></g></g><g><g><g><circle class="cls-4" cx="179.84" cy="64.5" r="1.78"/><path class="cls-3" d="M179.84,66.3c-.73,.08-1.5-.37-1.82-1.05-.33-.71-.25-1.68,.36-2.21,.4-.36,.98-.51,1.46-.35v.06c-.42,.15-.78,.37-1.05,.7-.25,.3-.47,.65-.49,1.05-.05,.62,.33,1.27,.9,1.56,.2,.1,.42,.17,.65,.19v.06h0Z"/></g><g><circle class="cls-4" cx="181.58" cy="63.37" r="1.78"/><path class="cls-3" d="M179.78,63.18c0-.73,.53-1.45,1.24-1.7,.74-.25,1.69-.07,2.16,.59,.31,.44,.4,1.03,.19,1.49h-.06c-.1-.44-.28-.82-.58-1.13-.28-.28-.59-.53-.99-.6-.61-.11-1.3,.19-1.65,.73-.12,.19-.21,.4-.26,.62h-.06Z"/></g><g><circle class="cls-4" cx="182.18" cy="65.26" r="1.78"/><path class="cls-3" d="M180.38,65.07c0-.73,.53-1.45,1.24-1.7,.74-.25,1.69-.07,2.16,.59,.31,.44,.4,1.03,.19,1.49h-.06c-.1-.44-.28-.82-.58-1.13-.28-.28-.59-.53-.99-.6-.61-.11-1.3,.19-1.65,.73-.12,.19-.21,.4-.26,.62h-.06Z"/></g><g><circle class="cls-4" cx="181.05" cy="64.5" r="1.15"/><path class="cls-3" d="M181.05,65.66c-.51,.22-1.13-.11-1.35-.6-.1-.21-.14-.47-.12-.7,.06-.7,.81-1.3,1.47-1.02v.04c-.3,0-.58,.13-.79,.34-.43,.42-.43,1.16,0,1.58,.21,.21,.49,.33,.79,.34v.04h0Z"/></g></g><g><g><circle class="cls-4" cx="184.21" cy="65.55" r="1.78"/><path class="cls-3" d="M184.21,67.36c-.73,.08-1.5-.37-1.82-1.05-.33-.71-.25-1.68,.36-2.21,.4-.36,.98-.51,1.46-.35v.06c-.42,.15-.78,.37-1.05,.7-.25,.3-.47,.65-.49,1.05-.05,.62,.33,1.27,.9,1.56,.2,.1,.42,.17,.65,.19v.06h0Z"/></g><g><circle class="cls-4" cx="185.94" cy="64.43" r="1.78"/><path class="cls-3" d="M184.15,64.24c0-.73,.53-1.45,1.24-1.7,.74-.25,1.69-.07,2.16,.59,.31,.44,.4,1.03,.19,1.49h-.06c-.1-.44-.28-.82-.58-1.13-.28-.28-.59-.53-.99-.6-.61-.11-1.3,.19-1.65,.73-.12,.19-.21,.4-.26,.62h-.06Z"/></g><g><circle class="cls-4" cx="186.54" cy="66.32" r="1.78"/><path class="cls-3" d="M184.75,66.12c0-.73,.53-1.45,1.24-1.7,.74-.25,1.69-.07,2.16,.59,.31,.44,.4,1.03,.19,1.49h-.06c-.1-.44-.28-.82-.58-1.13-.28-.28-.59-.53-.99-.6-.61-.11-1.3,.19-1.65,.73-.12,.19-.21,.4-.26,.62h-.06Z"/></g><g><circle class="cls-4" cx="185.42" cy="65.55" r="1.15"/><path class="cls-3" d="M185.42,66.72c-.51,.22-1.13-.11-1.35-.6-.1-.21-.14-.47-.12-.7,.06-.7,.81-1.3,1.47-1.02v.04c-.3,0-.58,.13-.79,.34-.43,.42-.43,1.16,0,1.58,.21,.21,.49,.33,.79,.34v.04h0Z"/></g></g><g><g><circle class="cls-4" cx="192.6" cy="65.55" r="1.78"/><path class="cls-3" d="M192.6,67.36c-.73,.08-1.5-.37-1.82-1.05-.33-.71-.25-1.68,.36-2.21,.4-.36,.98-.51,1.46-.35v.06c-.42,.15-.78,.37-1.05,.7-.25,.3-.47,.65-.49,1.05-.05,.62,.33,1.27,.9,1.56,.2,.1,.42,.17,.65,.19v.06h0Z"/></g><g><circle class="cls-4" cx="194.33" cy="64.43" r="1.78"/><path class="cls-3" d="M192.54,64.24c0-.73,.53-1.45,1.24-1.7,.74-.25,1.69-.07,2.16,.59,.31,.44,.4,1.03,.19,1.49h-.06c-.1-.44-.28-.82-.58-1.13-.28-.28-.59-.53-.99-.6-.61-.11-1.3,.19-1.65,.73-.12,.19-.21,.4-.26,.62h-.06Z"/></g><g><circle class="cls-4" cx="194.93" cy="66.32" r="1.78"/><path class="cls-3" d="M193.14,66.12c0-.73,.53-1.45,1.24-1.7,.74-.25,1.69-.07,2.16,.59,.31,.44,.4,1.03,.19,1.49h-.06c-.1-.44-.28-.82-.58-1.13-.28-.28-.59-.53-.99-.6-.61-.11-1.3,.19-1.65,.73-.12,.19-.21,.4-.26,.62h-.06Z"/></g><g><circle class="cls-4" cx="193.81" cy="65.55" r="1.15"/><path class="cls-3" d="M193.81,66.72c-.51,.22-1.13-.11-1.35-.6-.1-.21-.14-.47-.12-.7,.06-.7,.81-1.3,1.47-1.02v.04c-.3,0-.58,.13-.79,.34-.43,.42-.43,1.16,0,1.58,.21,.21,.49,.33,.79,.34v.04h0Z"/></g></g><g><g><circle class="cls-4" cx="184.82" cy="62.32" r="1.78"/><path class="cls-3" d="M184.82,64.13c-.73,.08-1.5-.37-1.82-1.05-.33-.71-.25-1.68,.36-2.21,.4-.36,.98-.51,1.46-.35v.06c-.42,.15-.78,.37-1.05,.7-.25,.3-.47,.65-.49,1.05-.05,.62,.33,1.27,.9,1.56,.2,.1,.42,.17,.65,.19v.06h0Z"/></g><g><circle class="cls-4" cx="186.56" cy="61.2" r="1.78"/><path class="cls-3" d="M184.76,61.01c0-.73,.53-1.45,1.24-1.7,.74-.25,1.69-.07,2.16,.59,.31,.44,.4,1.03,.19,1.49h-.06c-.1-.44-.28-.82-.58-1.13-.28-.28-.59-.53-.99-.6-.61-.11-1.3,.19-1.65,.73-.12,.19-.21,.4-.26,.62h-.06Z"/></g><g><circle class="cls-4" cx="187.16" cy="63.09" r="1.78"/><path class="cls-3" d="M185.37,62.9c0-.73,.53-1.45,1.24-1.7,.74-.25,1.69-.07,2.16,.59,.31,.44,.4,1.03,.19,1.49h-.06c-.1-.44-.28-.82-.58-1.13-.28-.28-.59-.53-.99-.6-.61-.11-1.3,.19-1.65,.73-.12,.19-.21,.4-.26,.62h-.06Z"/></g><g><circle class="cls-4" cx="186.04" cy="62.33" r="1.15"/><path class="cls-3" d="M186.04,63.49c-.51,.22-1.13-.11-1.35-.6-.1-.21-.14-.47-.12-.7,.06-.7,.81-1.3,1.47-1.02,0,0,0,.04,0,.04-.3,0-.58,.13-.79,.34-.43,.42-.43,1.16,0,1.58,.21,.21,.49,.33,.79,.34v.04h0Z"/></g></g><g><g><circle class="cls-4" cx="191.94" cy="64.06" r="1.78"/><path class="cls-3" d="M191.94,65.87c.73,.08,1.5-.37,1.82-1.05,.33-.71,.25-1.68-.36-2.21-.4-.36-.98-.51-1.46-.35v.06c.42,.15,.78,.37,1.05,.7,.25,.3,.47,.65,.49,1.05,.05,.62-.33,1.27-.9,1.56-.2,.1-.42,.17-.65,.19v.06h0Z"/></g><g><circle class="cls-4" cx="190.2" cy="62.94" r="1.78"/><path class="cls-3" d="M192,62.75c0-.73-.53-1.45-1.24-1.7-.74-.25-1.69-.07-2.16,.59-.31,.44-.4,1.03-.19,1.49h.06c.1-.44,.28-.82,.58-1.13,.28-.28,.59-.53,.99-.6,.61-.11,1.3,.19,1.65,.73,.12,.19,.21,.4,.26,.62h.06Z"/></g><g><circle class="cls-4" cx="189.6" cy="64.83" r="1.78"/><path class="cls-3" d="M191.4,64.63c0-.73-.53-1.45-1.24-1.7-.74-.25-1.69-.07-2.16,.59-.31,.44-.4,1.03-.19,1.49h.06c.1-.44,.28-.82,.58-1.13,.28-.28,.59-.53,.99-.6,.61-.11,1.3,.19,1.65,.73,.12,.19,.21,.4,.26,.62h.06Z"/></g><g><circle class="cls-4" cx="190.72" cy="64.06" r="1.15"/><path class="cls-3" d="M190.72,65.23c.51,.22,1.13-.11,1.35-.6,.1-.21,.14-.47,.12-.7-.06-.7-.81-1.3-1.47-1.02,0,0,0,.04,0,.04,.3,0,.58,.13,.79,.34,.43,.42,.43,1.16,0,1.58-.21,.21-.49,.33-.79,.34v.04h0Z"/></g></g></g><g><g><g><circle class="cls-4" cx="177.32" cy="60.8" r="1.78"/><path class="cls-3" d="M177.32,62.61c-.73,.08-1.5-.37-1.82-1.05-.33-.71-.25-1.68,.36-2.21,.4-.36,.98-.51,1.46-.35v.06c-.42,.15-.78,.37-1.05,.7-.25,.3-.47,.65-.49,1.05-.05,.62,.33,1.27,.9,1.56,.2,.1,.42,.17,.65,.19v.06h0Z"/></g><g><circle class="cls-4" cx="179.06" cy="59.68" r="1.78"/><path class="cls-3" d="M177.26,59.48c0-.73,.53-1.45,1.24-1.7,.74-.25,1.69-.07,2.16,.59,.31,.44,.4,1.03,.19,1.49h-.06c-.1-.44-.28-.82-.58-1.13-.28-.28-.59-.53-.99-.6-.61-.11-1.3,.19-1.65,.73-.12,.19-.21,.4-.26,.62h-.06Z"/></g><g><circle class="cls-4" cx="179.66" cy="61.57" r="1.78"/><path class="cls-3" d="M177.87,61.37c0-.73,.53-1.45,1.24-1.7,.74-.25,1.69-.07,2.16,.59,.31,.44,.4,1.03,.19,1.49h-.06c-.1-.44-.28-.82-.58-1.13-.28-.28-.59-.53-.99-.6-.61-.11-1.3,.19-1.65,.73-.12,.19-.21,.4-.26,.62h-.06Z"/></g><g><circle class="cls-4" cx="178.54" cy="60.8" r="1.15"/><path class="cls-3" d="M178.54,61.97c-.51,.22-1.13-.11-1.35-.6-.1-.21-.14-.47-.12-.7,.06-.7,.81-1.3,1.47-1.02,0,0,0,.04,0,.04-.3,0-.58,.13-.79,.34-.43,.42-.43,1.16,0,1.58,.21,.21,.49,.33,.79,.34v.04h0Z"/></g></g><g><g><circle class="cls-4" cx="181.69" cy="61.85" r="1.78"/><path class="cls-3" d="M181.69,63.66c-.73,.08-1.5-.37-1.82-1.05-.33-.71-.25-1.68,.36-2.21,.4-.36,.98-.51,1.46-.35v.06c-.42,.15-.78,.37-1.05,.7-.25,.3-.47,.65-.49,1.05-.05,.62,.33,1.27,.9,1.56,.2,.1,.42,.17,.65,.19v.06h0Z"/></g><g><circle class="cls-4" cx="183.43" cy="60.73" r="1.78"/><path class="cls-3" d="M181.63,60.54c0-.73,.53-1.45,1.24-1.7,.74-.25,1.69-.07,2.16,.59,.31,.44,.4,1.03,.19,1.49h-.06c-.1-.44-.28-.82-.58-1.13-.28-.28-.59-.53-.99-.6-.61-.11-1.3,.19-1.65,.73-.12,.19-.21,.4-.26,.62h-.06Z"/></g><g><circle class="cls-4" cx="184.03" cy="62.62" r="1.78"/><path class="cls-3" d="M182.23,62.43c0-.73,.53-1.45,1.24-1.7,.74-.25,1.69-.07,2.16,.59,.31,.44,.4,1.03,.19,1.49h-.06c-.1-.44-.28-.82-.58-1.13-.28-.28-.59-.53-.99-.6-.61-.11-1.3,.19-1.65,.73-.12,.19-.21,.4-.26,.62h-.06Z"/></g><g><circle class="cls-4" cx="182.9" cy="61.86" r="1.15"/><path class="cls-3" d="M182.9,63.02c-.51,.22-1.13-.11-1.35-.6-.1-.21-.14-.47-.12-.7,.06-.7,.81-1.3,1.47-1.02,0,0,0,.04,0,.04-.3,0-.58,.13-.79,.34-.43,.42-.43,1.16,0,1.58,.21,.21,.49,.33,.79,.34v.04h0Z"/></g></g><g><g><circle class="cls-4" cx="190.08" cy="61.85" r="1.78"/><path class="cls-3" d="M190.08,63.66c-.73,.08-1.5-.37-1.82-1.05-.33-.71-.25-1.68,.36-2.21,.4-.36,.98-.51,1.46-.35v.06c-.42,.15-.78,.37-1.05,.7-.25,.3-.47,.65-.49,1.05-.05,.62,.33,1.27,.9,1.56,.2,.1,.42,.17,.65,.19v.06h0Z"/></g><g><circle class="cls-4" cx="191.82" cy="60.73" r="1.78"/><path class="cls-3" d="M190.02,60.54c0-.73,.53-1.45,1.24-1.7,.74-.25,1.69-.07,2.16,.59,.31,.44,.4,1.03,.19,1.49h-.06c-.1-.44-.28-.82-.58-1.13-.28-.28-.59-.53-.99-.6-.61-.11-1.3,.19-1.65,.73-.12,.19-.21,.4-.26,.62h-.06Z"/></g><g><circle class="cls-4" cx="192.42" cy="62.62" r="1.78"/><path class="cls-3" d="M190.62,62.43c0-.73,.53-1.45,1.24-1.7,.74-.25,1.69-.07,2.16,.59,.31,.44,.4,1.03,.19,1.49h-.06c-.1-.44-.28-.82-.58-1.13-.28-.28-.59-.53-.99-.6-.61-.11-1.3,.19-1.65,.73-.12,.19-.21,.4-.26,.62h-.06Z"/></g><g><circle class="cls-4" cx="191.29" cy="61.86" r="1.15"/><path class="cls-3" d="M191.29,63.02c-.51,.22-1.13-.11-1.35-.6-.1-.21-.14-.47-.12-.7,.06-.7,.81-1.3,1.47-1.02,0,0,0,.04,0,.04-.3,0-.58,.13-.79,.34-.43,.42-.43,1.16,0,1.58,.21,.21,.49,.33,.79,.34v.04h0Z"/></g></g><g><g><circle class="cls-4" cx="182.31" cy="58.63" r="1.78"/><path class="cls-3" d="M182.31,60.43c-.73,.08-1.5-.37-1.82-1.05-.33-.71-.25-1.68,.36-2.21,.4-.36,.98-.51,1.46-.35v.06c-.42,.15-.78,.37-1.05,.7-.25,.3-.47,.65-.49,1.05-.05,.62,.33,1.27,.9,1.56,.2,.1,.42,.17,.65,.19v.06h0Z"/></g><g><circle class="cls-4" cx="184.04" cy="57.51" r="1.78"/><path class="cls-3" d="M182.25,57.31c0-.73,.53-1.45,1.24-1.7,.74-.25,1.69-.07,2.16,.59,.31,.44,.4,1.03,.19,1.49h-.06c-.1-.44-.28-.82-.58-1.13-.28-.28-.59-.53-.99-.6-.61-.11-1.3,.19-1.65,.73-.12,.19-.21,.4-.26,.62h-.06Z"/></g><g><circle class="cls-4" cx="184.65" cy="59.39" r="1.78"/><path class="cls-3" d="M182.85,59.2c0-.73,.53-1.45,1.24-1.7,.74-.25,1.69-.07,2.16,.59,.31,.44,.4,1.03,.19,1.49h-.06c-.1-.44-.28-.82-.58-1.13-.28-.28-.59-.53-.99-.6-.61-.11-1.3,.19-1.65,.73-.12,.19-.21,.4-.26,.62h-.06Z"/></g><g><circle class="cls-4" cx="183.52" cy="58.63" r="1.15"/><path class="cls-3" d="M183.52,59.8c-.51,.22-1.13-.11-1.35-.6-.1-.21-.14-.47-.12-.7,.06-.7,.81-1.3,1.47-1.02,0,0,0,.04,0,.04-.3,0-.58,.13-.79,.34-.43,.42-.43,1.16,0,1.58,.21,.21,.49,.33,.79,.34v.04h0Z"/></g></g><g><g><circle class="cls-4" cx="189.42" cy="60.36" r="1.78"/><path class="cls-3" d="M189.42,62.17c.73,.08,1.5-.37,1.82-1.05,.33-.71,.25-1.68-.36-2.21-.4-.36-.98-.51-1.46-.35v.06c.42,.15,.78,.37,1.05,.7,.25,.3,.47,.65,.49,1.05,.05,.62-.33,1.27-.9,1.56-.2,.1-.42,.17-.65,.19v.06h0Z"/></g><g><circle class="cls-4" cx="187.68" cy="59.24" r="1.78"/><path class="cls-3" d="M189.48,59.05c0-.73-.53-1.45-1.24-1.7-.74-.25-1.69-.07-2.16,.59-.31,.44-.4,1.03-.19,1.49h.06c.1-.44,.28-.82,.58-1.13,.28-.28,.59-.53,.99-.6,.61-.11,1.3,.19,1.65,.73,.12,.19,.21,.4,.26,.62h.06Z"/></g><g><circle class="cls-4" cx="187.08" cy="61.13" r="1.78"/><path class="cls-3" d="M188.88,60.94c0-.73-.53-1.45-1.24-1.7-.74-.25-1.69-.07-2.16,.59-.31,.44-.4,1.03-.19,1.49h.06c.1-.44,.28-.82,.58-1.13,.28-.28,.59-.53,.99-.6,.61-.11,1.3,.19,1.65,.73,.12,.19,.21,.4,.26,.62h.06Z"/></g><g><circle class="cls-4" cx="188.21" cy="60.37" r="1.15"/><path class="cls-3" d="M188.21,61.53c.51,.22,1.13-.11,1.35-.6,.1-.21,.14-.47,.12-.7-.06-.7-.81-1.3-1.47-1.02,0,0,0,.04,0,.04,.3,0,.58,.13,.79,.34,.43,.42,.43,1.16,0,1.58-.21,.21-.49,.33-.79,.34v.04h0Z"/></g></g></g><path class="cls-1" d="M191.66,89.96h-33.33c-.88,0-1.64-.62-1.81-1.49l-3.98-20.1c-.23-1.14,.65-2.21,1.81-2.21h41.3c1.16,0,2.04,1.06,1.81,2.21l-3.98,20.1c-.17,.86-.93,1.49-1.81,1.49Z"/><path class="cls-5" d="M176.95,71.43v18.53h-3.91v-18.53c0-1.08,.88-1.96,1.96-1.96s1.96,.88,1.96,1.96Z"/><g><path class="cls-5" d="M163.52,89.96h-3.99l-3.56-18.16c-.21-1.06,.48-2.09,1.54-2.3,1.06-.21,2.09,.48,2.3,1.54l3.7,18.91Z"/><path class="cls-5" d="M170.83,89.96h-3.93l-1.84-18.72c-.1-1.07,.68-2.03,1.76-2.14,1.07-.11,2.03,.68,2.14,1.76l1.87,19.11Z"/><path class="cls-5" d="M176.95,71.43v18.53h-3.91v-18.53c0-1.08,.88-1.96,1.96-1.96s1.96,.88,1.96,1.96Z"/><path class="cls-5" d="M194.01,71.8l-3.56,18.16h-3.99l3.7-18.91c.21-1.06,1.23-1.75,2.3-1.54,1.06,.21,1.75,1.23,1.54,2.3Z"/><path class="cls-5" d="M184.93,71.23l-1.84,18.72h-3.93l1.87-19.11c.11-1.08,1.06-1.86,2.14-1.76,1.07,.11,1.86,1.06,1.76,2.14Z"/></g><g><circle class="cls-4" cx="172.9" cy="51.34" r="1.33"/><path class="cls-3" d="M172.9,52.68c-.54,.06-1.12-.28-1.36-.79-.25-.53-.19-1.25,.27-1.65,.3-.27,.73-.38,1.09-.26v.04c-.32,.11-.58,.27-.79,.52-.18,.23-.35,.48-.37,.79-.03,.46,.24,.95,.67,1.16,.15,.08,.31,.12,.48,.14v.04h0Z"/></g><g><circle class="cls-4" cx="159.08" cy="49.03" r="1.29"/><path class="cls-3" d="M159.64,50.22c.63-.02,1.1-.65,1.09-1.26,0-.27-.08-.55-.22-.78-.39-.69-1.44-.94-1.99-.34,0,0,.02,.04,.02,.04,.31-.13,.66-.14,.97-.03,.64,.22,.99,.98,.75,1.61-.11,.31-.35,.58-.64,.72l.02,.04h0Z"/></g><g><circle class="cls-4" cx="167.19" cy="49" r="1.33"/><path class="cls-3" d="M168.1,49.99c.61-.22,.87-.98,.68-1.58-.08-.26-.24-.51-.45-.69-.6-.55-1.7-.47-2.05,.29,0,0,.03,.03,.03,.03,.26-.23,.6-.35,.94-.33,.69,.02,1.27,.65,1.24,1.34-.01,.34-.16,.67-.41,.91l.03,.03h0Z"/></g><g><circle class="cls-4" cx="166.31" cy="49.62" r=".85"/><path class="cls-3" d="M166.85,48.96c-.19-.37-.7-.46-1.06-.29-.16,.07-.3,.2-.4,.35-.29,.43-.15,1.12,.36,1.27l.02-.02c-.17-.14-.27-.35-.29-.56-.05-.44,.3-.86,.74-.9,.22-.02,.44,.04,.61,.18l.02-.02h0Z"/></g><g><circle class="cls-4" cx="158.61" cy="56.25" r=".88"/><path class="cls-3" d="M158.25,55.43c-.43,0-.76,.43-.76,.84,0,.18,.04,.37,.13,.53,.26,.47,.97,.66,1.35,.26,0,0-.01-.03-.01-.03-.21,.09-.45,.09-.66,0-.43-.16-.66-.68-.49-1.11,.08-.21,.24-.39,.45-.48v-.03h-.01Z"/></g><g><circle class="cls-4" cx="159.29" cy="56.04" r=".56"/><path class="cls-3" d="M158.81,56.34c.04,.27,.34,.44,.6,.41,.12-.01,.23-.06,.32-.13,.28-.2,.33-.67,.05-.88h-.02c.07,.13,.1,.29,.06,.43-.06,.29-.37,.48-.66,.41-.14-.03-.27-.12-.34-.24h-.02Z"/></g><g><circle class="cls-4" cx="174.81" cy="46.31" r="1.1"/><path class="cls-3" d="M175.57,47.13c.5-.18,.72-.81,.56-1.3-.07-.22-.2-.42-.37-.57-.5-.45-1.41-.39-1.7,.24,0,0,.02,.03,.02,.03,.21-.19,.5-.29,.78-.27,.57,.02,1.05,.54,1.02,1.11,0,.28-.13,.55-.34,.75l.02,.03h0Z"/></g><g><circle class="cls-4" cx="155.96" cy="51.74" r=".88"/><path class="cls-3" d="M156.34,52.56c.43-.01,.75-.45,.75-.86,0-.18-.05-.37-.15-.53-.27-.47-.98-.64-1.36-.23,0,0,.01,.03,.01,.03,.21-.09,.45-.1,.66-.02,.43,.15,.67,.67,.51,1.1-.08,.21-.24,.39-.44,.49v.03h.01Z"/></g><g><circle class="cls-4" cx="158.99" cy="55.65" r=".58"/><path class="cls-3" d="M159.54,55.87c.2-.2,.16-.55-.03-.75-.08-.09-.19-.16-.31-.19-.34-.11-.77,.13-.76,.5,0,0,.02,0,.02,0,.06-.14,.17-.25,.31-.31,.28-.12,.63,.02,.74,.3,.06,.14,.06,.3,0,.44h.02Z"/></g><g><circle class="cls-4" cx="181.99" cy="48.48" r="1.08"/><path class="cls-3" d="M182.98,48.02c-.02-.52-.54-.91-1.05-.91-.22,0-.45,.06-.65,.18-.57,.33-.78,1.2-.28,1.66,0,0,.03-.01,.03-.01-.11-.25-.12-.55-.03-.81,.19-.53,.82-.82,1.34-.63,.26,.09,.48,.29,.6,.54h.03Z"/></g><g><circle class="cls-4" cx="195.02" cy="52.23" r=".88"/><path class="cls-3" d="M194.64,53.04c-.43-.01-.75-.45-.75-.86,0-.18,.05-.37,.15-.53,.27-.47,.98-.64,1.36-.23,0,0-.01,.03-.01,.03-.21-.09-.45-.1-.66-.02-.43,.15-.67,.67-.51,1.1,.08,.21,.24,.39,.44,.49v.03h-.01Z"/></g><g><circle class="cls-4" cx="192.04" cy="56.06" r=".88"/><path class="cls-3" d="M191.66,56.87c-.43-.01-.75-.45-.75-.86,0-.18,.05-.37,.15-.53,.27-.47,.98-.64,1.36-.23,0,0-.01,.03-.01,.03-.21-.09-.45-.1-.66-.02-.43,.15-.67,.67-.51,1.1,.08,.21,.24,.39,.44,.49v.03h-.01Z"/></g><g><circle class="cls-4" cx="186.98" cy="52.1" r=".69"/><path class="cls-3" d="M187.64,52.37c.24-.24,.2-.66-.02-.9-.1-.11-.23-.19-.37-.23-.4-.13-.91,.15-.91,.58h.02c.07-.16,.21-.29,.37-.35,.33-.14,.75,.03,.88,.37,.07,.16,.07,.35,0,.52h.02Z"/></g><g><circle class="cls-4" cx="186.7" cy="52.59" r=".44"/><path class="cls-3" d="M186.82,52.15c-.17-.13-.43-.07-.57,.09-.06,.07-.1,.16-.11,.25-.05,.27,.17,.57,.45,.53h0c-.11-.05-.21-.12-.26-.22-.12-.2-.05-.48,.15-.59,.1-.06,.22-.08,.33-.05h0Z"/></g><g><circle class="cls-4" cx="187.09" cy="52.65" r=".46"/><path class="cls-3" d="M186.66,52.82c0,.22,.21,.41,.43,.42,.1,0,.2-.01,.28-.06,.25-.12,.37-.49,.17-.7h-.01c.04,.12,.04,.24-.01,.35-.09,.22-.37,.33-.59,.23-.11-.05-.2-.14-.24-.25h-.01Z"/></g><g><circle class="cls-4" cx="191.32" cy="48.32" r=".91"/><path class="cls-3" d="M191.71,49.16c.44-.01,.77-.45,.77-.88,0-.19-.05-.38-.15-.54-.27-.48-1.01-.66-1.39-.25,0,0,.01,.03,.01,.03,.21-.09,.46-.1,.68-.02,.44,.16,.69,.69,.52,1.13-.08,.22-.24,.4-.45,.5v.03h.01Z"/></g><g><circle class="cls-4" cx="190.62" cy="48.54" r=".58"/><path class="cls-3" d="M191.11,48.23c-.05-.28-.36-.45-.63-.41-.12,.01-.24,.07-.33,.14-.28,.22-.33,.7-.03,.9h.02c-.08-.14-.1-.29-.07-.44,.06-.29,.38-.5,.67-.43,.14,.03,.28,.12,.36,.24h.02Z"/></g><g><circle class="cls-4" cx="190.94" cy="48.95" r=".6"/><path class="cls-3" d="M190.37,48.72c-.2,.21-.16,.57,.04,.78,.09,.09,.2,.16,.32,.19,.35,.1,.79-.15,.78-.53,0,0-.02,0-.02,0-.06,.14-.17,.26-.32,.32-.28,.13-.65-.01-.77-.3-.06-.14-.07-.3-.02-.45h-.02Z"/></g></g></g><g><g><path class="cls-1" d="M263.73,60.91c-6.36,0-11.54-5.17-11.54-11.54s5.17-11.54,11.54-11.54,11.54,5.17,11.54,11.54-5.17,11.54-11.54,11.54Zm0-17.57c-3.33,0-6.04,2.71-6.04,6.04s2.71,6.04,6.04,6.04,6.04-2.71,6.04-6.04-2.71-6.04-6.04-6.04Z"/><path class="cls-1" d="M254.3,3.67c-3.05,2.62-6.58,4.86-9.33,7.41-.58,.61-1.39,1.35-1.33,1.86,.17-.07,.19-.29,.26-.46,.06-.24,.02-.44,0-.66-.04-.08,0-.07,.02-.07,.16,.11,.35,.31,.62,.54,4.69,3.8,7.96,10.01,6.33,16.15-1.28,5.17-6.2,8.92-11.25,8.64,0,0-.21-.51-.21-.51,1.82-.81,3.47-1.98,4.73-3.49,4.3-4.77,2.42-11.65-2.04-15.6-2.74-2.38-5.06-4.95-1.93-8.24,3.84-3.53,9.11-4.9,14.01-6.11,0,0,.12,.54,.12,.54h0Z"/><path class="cls-1" d="M246.43,89.66c-1.75-8.41,5.66-16.6,13.74-18.22,6.58-1.41,14.47-.58,19.82,3.91,.83,.8,2.11,2.58,.91,3.63,0,0-.47-.28-.47-.28,.19-1.44-2.67-1.8-3.74-2.04-5.04-.69-10.43-.75-15.4,.1-6.75,1.2-12.5,6.4-14.33,13.01,0,0-.54-.11-.54-.11h0Z"/><path class="cls-1" d="M296.94,24.98c-2.32-1.1-3.64-3.42-3.85-5.97-.44-6.08,5.05-11.49,11.13-10.99,1.23,.07,4.34,.71,3.82,2.45,0,0-.55,.05-.55,.05-.02-.09-.4-.16-.77-.03-2.66,1.09-5.19,3.06-7.21,5.03-2.31,2.42-3.14,6.06-2.07,9.23,0,0-.5,.23-.5,.23h0Z"/><path class="cls-1" d="M296.94,60.9c-2.32-1.1-3.64-3.42-3.85-5.97-.44-6.08,5.05-11.49,11.13-10.99,1.23,.07,4.34,.71,3.82,2.45,0,0-.55,.05-.55,.05-.02-.09-.4-.16-.77-.03-2.66,1.09-5.19,3.06-7.21,5.03-2.31,2.42-3.14,6.06-2.07,9.23,0,0-.5,.23-.5,.23h0Z"/><path class="cls-1" d="M284.26,30.36c-.02,.21,0,.19,.01,.34,.15,1.64-1.54,2.85-3.05,2.91-1.79,.14-3.11-.42-4.24-.94-1.81-.71-3.47-1.68-4.89-2.99-.12-.13-.12-.09-.28-.29,0,0-4.67-5.28-4.67-5.28,3.55-1.17,9.08-3.71,12.81-3.84,1.42-.17,5.96,.2,7.44,.23-.39,3.36-.73,7.27-3.14,9.85h0Zm-.54-.08c-.4-2.08-.77-4.12-1.09-6.15l.62,.4c-2.51,.77-5.02,1.53-7.55,2.25,0,0,.26-.86,.26-.86,.98,1.09,2.71,2.66,3.79,3.72,1.04,1.04,2.84,2.17,3.92,.68,0,0,.04-.06,.04-.06,.02-.02,.02-.06,0,.02h0Z"/></g><g><path class="cls-1" d="M86.27,60.91c-6.36,0-11.54-5.17-11.54-11.54s5.17-11.54,11.54-11.54,11.54,5.17,11.54,11.54-5.17,11.54-11.54,11.54Zm0-17.57c-3.33,0-6.04,2.71-6.04,6.04s2.71,6.04,6.04,6.04,6.04-2.71,6.04-6.04-2.71-6.04-6.04-6.04Z"/><path class="cls-1" d="M95.83,3.13c6.54-1.26,16.44-.14,19.31,7.01,1.3,3.53-.6,7.45-3.32,9.67-1.34,1.23-2.59,2.56-3.56,4.08-2.76,4.23-1.02,8.93,2.34,12.67,0,0-.21,.51-.21,.51-10.18-4.11-10.05-14.99-2.09-21.43,5.94-4.72-2.85-8.6-6.85-10.09-1.87-.73-3.8-1.36-5.74-1.88l.12-.54h0Z"/><path class="cls-1" d="M103.03,89.77c-5.48-6.22-11.68-8.83-19.5-9.2-4.09-.27-8.13-1.2-12.11-2-.37-.08-.74-.13-1.03-.15-.3-.03-.63-.08-.84,.29l-.47,.28c-.99-3.28,7.24-3.57,9.3-3.73,6.98-.5,14.67,.15,19.93,5.29,2.6,2.45,4.45,5.64,5.25,9.12l-.54,.11h0Z"/><path class="cls-1" d="M52.56,24.75c-1.65-3.41-3.05-4.42-5.31-6.3-2.17-1.75-3.94-4.25-4.35-7.11,0-.29,.02-.74-.39-.82,0,0-.55-.05-.55-.05,.61-1.88,4.13,.42,5.15,1,4.85,2.75,8.48,7.88,5.95,13.5,0,0-.5-.23-.5-.23h0Z"/><path class="cls-1" d="M52.56,60.67c-1.65-3.41-3.05-4.42-5.31-6.3-2.17-1.75-3.94-4.25-4.35-7.11,0-.29,.02-.74-.39-.82,0,0-.55-.05-.55-.05,.61-1.88,4.13,.42,5.15,1,4.85,2.75,8.48,7.88,5.95,13.5,0,0-.5-.23-.5-.23h0Z"/><path class="cls-1" d="M83.5,22.74c-.02,.21,0,.19,.01,.34,.15,1.64-1.54,2.85-3.05,2.91-1.79,.14-3.11-.42-4.24-.94-1.81-.71-3.47-1.68-4.89-2.99-.12-.13-.12-.09-.28-.29,0,0-4.67-5.28-4.67-5.28,3.55-1.17,9.08-3.71,12.81-3.84,1.42-.17,5.96,.2,7.44,.23-.39,3.36-.73,7.27-3.14,9.85h0Zm-.54-.08c-.4-2.08-.77-4.12-1.09-6.15l.62,.4c-2.51,.77-5.02,1.53-7.55,2.25,0,0,.26-.86,.26-.86,.98,1.09,2.71,2.66,3.79,3.72,1.04,1.04,2.84,2.17,3.92,.68,0,0,.04-.06,.04-.06,.02-.02,.02-.06,0,.02h0Z"/></g></g><g><path class="cls-1" d="M324.93,125.56c-6.36,0-11.54-5.17-11.54-11.54s5.17-11.54,11.54-11.54,11.54,5.17,11.54,11.54-5.17,11.54-11.54,11.54Zm0-17.57c-3.33,0-6.04,2.71-6.04,6.04s2.71,6.04,6.04,6.04,6.04-2.71,6.04-6.04-2.71-6.04-6.04-6.04Z"/><path class="cls-1" d="M304.4,133.04c-.06-.83,.03-1.5,.64-2.15,2.9-2.88,8.56,.47,11.04,2.39,.45,.23,4.97,5.51,5.43,6-3.55,1.17-9.08,3.71-12.81,3.84-1.42,.17-5.96-.2-7.44-.23,.39-3.36,.73-7.27,3.14-9.85h0Zm.54,.08c.4,2.08,.77,4.12,1.09,6.15l-.62-.4c2.51-.77,5.02-1.53,7.55-2.25,0,0-.26,.86-.26,.86-.98-1.09-2.71-2.66-3.79-3.72-1.04-1.04-2.84-2.17-3.92-.68,0,0-.04,.06-.04,.06-.02,.02-.02,.06,0-.02h0Z"/><path class="cls-1" d="M334.36,159.73c3.05-2.62,6.58-4.86,9.33-7.41,.58-.61,1.39-1.35,1.33-1.86-.17,.07-.19,.29-.26,.46-.06,.24-.02,.44,0,.66,.04,.08,0,.07-.02,.07-.16-.11-.35-.31-.62-.54-4.69-3.8-7.96-10.01-6.33-16.15,1.28-5.17,6.2-8.92,11.25-8.64,0,0,.21,.51,.21,.51-1.82,.81-3.47,1.98-4.73,3.49-4.3,4.78-2.42,11.64,2.04,15.6,2.74,2.38,5.06,4.95,1.93,8.24-3.84,3.53-9.11,4.9-14.01,6.11,0,0-.12-.54-.12-.54h0Z"/><path class="cls-1" d="M342.23,73.74c1.75,8.41-5.66,16.6-13.74,18.22-6.58,1.41-14.47,.58-19.82-3.91-.83-.8-2.11-2.58-.91-3.63,0,0,.47,.28,.47,.28-.19,1.44,2.67,1.8,3.74,2.04,5.04,.69,10.43,.75,15.4-.1,6.75-1.19,12.5-6.4,14.33-13.01,0,0,.54,.11,.54,.11h0Z"/><path class="cls-1" d="M291.72,138.42c2.32,1.1,3.64,3.42,3.85,5.97,.44,6.08-5.05,11.49-11.13,10.99-1.21-.06-4.36-.73-3.82-2.45,0,0,.55-.05,.55-.05,.02,.09,.4,.16,.77,.03,2.66-1.09,5.19-3.06,7.21-5.03,2.31-2.42,3.14-6.06,2.07-9.23,0,0,.5-.23,.5-.23h0Z"/><path class="cls-1" d="M291.72,102.5c2.32,1.1,3.64,3.42,3.85,5.97,.44,6.08-5.05,11.49-11.13,10.99-1.21-.06-4.36-.73-3.82-2.45,0,0,.55-.05,.55-.05,.02,.09,.4,.16,.77,.03,2.66-1.09,5.19-3.06,7.21-5.03,2.31-2.42,3.14-6.06,2.07-9.23,0,0,.5-.23,.5-.23h0Z"/></g><path class="cls-1" d="M23.82,69.42c5.48,6.22,11.68,8.83,19.5,9.2,4.09,.27,8.13,1.2,12.11,2,.37,.08,.74,.13,1.03,.15,.3,.03,.63,.08,.84-.29l.47-.28c.99,3.28-7.24,3.57-9.3,3.73-6.98,.5-14.67-.15-19.93-5.29-2.6-2.45-4.45-5.64-5.25-9.12l.54-.11h0Z"/><g><path class="cls-1" d="M29.29,124.84c-6.36,0-11.54-5.17-11.54-11.54s5.17-11.54,11.54-11.54,11.54,5.17,11.54,11.54-5.17,11.54-11.54,11.54Zm0-17.57c-3.33,0-6.04,2.71-6.04,6.04s2.71,6.04,6.04,6.04,6.04-2.71,6.04-6.04-2.71-6.04-6.04-6.04Z"/><path class="cls-1" d="M19.73,159.55c-6.54,1.26-16.44,.14-19.31-7.01-1.3-3.53,.6-7.45,3.32-9.67,1.34-1.23,2.59-2.56,3.56-4.08,2.76-4.23,1.02-8.93-2.34-12.67,0,0,.21-.51,.21-.51,10.18,4.11,10.05,14.99,2.09,21.43-5.94,4.72,2.85,8.6,6.85,10.09,1.87,.73,3.8,1.36,5.74,1.88l-.12,.54h0Z"/><path class="cls-1" d="M62.99,137.93c1.65,3.41,3.05,4.42,5.31,6.3,2.17,1.75,3.94,4.25,4.35,7.11,0,.29-.02,.74,.39,.82,0,0,.55,.05,.55,.05-.61,1.88-4.13-.42-5.15-1-4.85-2.75-8.48-7.88-5.95-13.5,0,0,.5,.23,.5,.23h0Z"/><path class="cls-1" d="M48.49,140.45c-.02,.21,0,.19,.01,.34,.15,1.64-1.54,2.85-3.05,2.91-1.79,.14-3.11-.42-4.24-.94-1.81-.71-3.47-1.68-4.89-2.99-.12-.13-.12-.09-.28-.29,0,0-4.67-5.28-4.67-5.28,3.55-1.17,9.08-3.71,12.81-3.84,1.42-.17,5.96,.2,7.44,.23-.39,3.36-.73,7.27-3.14,9.85h0Zm-.54-.08c-.4-2.08-.77-4.12-1.09-6.15l.62,.4c-2.51,.77-5.02,1.53-7.55,2.25,0,0,.26-.86,.26-.86,.98,1.09,2.71,2.66,3.79,3.72,1.04,1.04,2.84,2.17,3.92,.68,0,0,.04-.06,.04-.06,.02-.02,.02-.06,0,.02h0Z"/><path class="cls-1" d="M62.99,102.01c1.65,3.41,3.05,4.42,5.31,6.3,2.17,1.75,3.94,4.25,4.35,7.11,0,.29-.02,.74,.39,.82,0,0,.55,.05,.55,.05-.61,1.88-4.13-.42-5.15-1-4.85-2.75-8.48-7.88-5.95-13.5,0,0,.5,.23,.5,.23h0Z"/></g></svg>