<?xml version="1.0" encoding="UTF-8"?><svg id="Camada_1" xmlns="http://www.w3.org/2000/svg" viewBox="0 0 350 160"><defs><style>.cls-1{opacity:.05;}.cls-1,.cls-2,.cls-3{fill:#fff;}.cls-2{opacity:.1;}.cls-4{fill:#f86163;}.cls-5{fill:#f8931f;}.cls-6{fill:#f99d9e;}.cls-7,.cls-8{fill:#f5c465;}.cls-9{fill:#f5c364;}.cls-10{fill:#e6b147;}.cls-11{fill:#fde6ea;}.cls-12{fill:#692343;}.cls-13{fill:#66191b;}.cls-14{fill:#983d40;}.cls-15{fill:#a15600;}.cls-16{fill:#c1cad6;}.cls-17{fill:#8c939c;}.cls-18{fill:#bd6500;}.cls-19{fill:#cb5252;}.cls-20{fill:#d1a140;}.cls-21{fill:#d8e3f0;}.cls-22{fill:#c8d2de;}.cls-23{fill:#45172c;}.cls-24{fill:#78284e;}.cls-25{fill:#4d1719;}.cls-8{opacity:.6;}.cls-3{opacity:.3;}.cls-26{fill:#3e3e42;opacity:.4;}</style></defs><g><path class="cls-4" d="M242.45,67.46c0,8.38-12.51,14.22-15.53,21.51-3.13,7.56,1.47,20.5-4.23,26.19-5.69,5.69-18.64,1.09-26.19,4.23-7.29,3.02-13.12,15.53-21.51,15.53s-14.22-12.51-21.51-15.53c-7.56-3.13-20.5,1.47-26.19-4.23-5.69-5.69-1.09-18.64-4.23-26.19-3.02-7.29-15.53-13.12-15.53-21.51s12.51-14.22,15.53-21.51c3.13-7.56-1.47-20.5,4.23-26.19,5.69-5.69,18.64-1.09,26.19-4.23,7.29-3.02,13.12-15.53,21.51-15.53s14.22,12.51,21.51,15.53c7.56,3.13,20.5-1.47,26.19,4.23,5.69,5.69,1.09,18.64,4.23,26.19,3.02,7.29,15.53,13.12,15.53,21.51Z"/><path class="cls-6" d="M226.93,45.96c-3.13-7.55,1.47-20.51-4.23-26.2-5.69-5.69-18.65-1.1-26.2-4.23C189.2,12.51,183.37,0,175,0s-14.23,12.51-21.52,15.52c-7.55,3.13-20.48-1.47-26.17,4.23-5.69,5.69-1.1,18.65-4.23,26.2-3.04,7.3-15.55,13.13-15.55,21.5s12.51,14.23,15.55,21.52c3.13,7.55-1.47,20.48,4.23,26.17,5.69,5.69,18.62,1.1,26.17,4.23,7.3,3.04,13.13,15.55,21.52,15.55s14.2-12.51,21.5-15.55c7.55-3.13,20.51,1.47,26.2-4.23,5.69-5.69,1.1-18.62,4.23-26.17,3.01-7.3,15.52-13.13,15.52-21.52s-12.51-14.2-15.52-21.5Z"/><path class="cls-4" d="M175,132.11c-3.66,0-7.27-3.79-10.77-7.46-2.98-3.13-6.06-6.37-9.67-7.87-3.06-1.27-6.67-1.44-9.81-1.44-1,0-2.01,.02-3.02,.04-.97,.02-1.95,.04-2.91,.04-3.78,0-7.55-.28-9.53-2.25-2.4-2.4-2.31-7.28-2.22-12.44,.08-4.44,.17-9.04-1.4-12.82-1.51-3.62-4.75-6.7-7.87-9.68-3.67-3.49-7.46-7.11-7.46-10.77s3.79-7.25,7.45-10.73c3.13-2.98,6.37-6.06,7.88-9.68,1.57-3.79,1.48-8.39,1.4-12.83-.09-4.94-.19-10.05,2.22-12.46,1.98-1.98,5.75-2.25,9.53-2.25,.96,0,1.94,.02,2.91,.04,1.01,.02,2.02,.04,3.02,.04,3.13,0,6.74-.17,9.8-1.44,3.62-1.49,6.7-4.73,9.69-7.86,3.49-3.66,7.1-7.45,10.75-7.45s7.24,3.78,10.72,7.43c2.99,3.14,6.07,6.38,9.7,7.87,3.05,1.27,6.67,1.44,9.8,1.44,1,0,2.01-.02,3.02-.04,.98-.02,1.95-.04,2.92-.04,3.78,0,7.56,.27,9.54,2.25,2.4,2.4,2.31,7.52,2.22,12.46-.08,4.45-.17,9.05,1.4,12.83,1.5,3.62,4.74,6.71,7.87,9.7,3.66,3.48,7.44,7.08,7.44,10.72s-3.79,7.27-7.45,10.76c-3.13,2.99-6.37,6.07-7.87,9.69-1.57,3.78-1.48,8.37-1.4,12.81,.1,5.16,.19,10.04-2.22,12.45-1.98,1.98-5.76,2.25-9.54,2.25h0c-.96,0-1.94-.02-2.91-.04-1.01-.02-2.02-.04-3.02-.04-3.14,0-6.75,.17-9.81,1.44-3.62,1.51-6.7,4.75-9.68,7.88-3.49,3.66-7.09,7.45-10.73,7.45Z"/><path class="cls-6" d="M174.99,123.29c-1.32-.99-3.33-3.1-4.62-4.46-3.43-3.6-7.3-7.67-12.56-9.86-4.44-1.84-9.09-2.09-13.06-2.09-.92,0-1.85,.02-2.78,.03h-.37c-.95,.02-1.87,.04-2.77,.04-1.54,0-2.55-.06-3.21-.13-.17-1.58-.12-4.12-.09-5.95,.1-5.06,.2-10.8-2.04-16.21-2.2-5.27-6.26-9.14-9.84-12.55-1.38-1.31-3.49-3.32-4.49-4.65,.99-1.32,3.1-3.32,4.46-4.62,3.59-3.41,7.66-7.29,9.86-12.55,2.25-5.43,2.15-11.18,2.05-16.24-.03-1.73-.08-4.34,.1-5.97,.67-.07,1.68-.13,3.2-.13,.79,0,1.59,.01,2.39,.03h.38c1.05,.03,2.11,.05,3.16,.05,3.96,0,8.61-.25,13.03-2.08,5.26-2.17,9.15-6.25,12.57-9.84,1.3-1.36,3.31-3.47,4.63-4.46,1.32,.99,3.31,3.08,4.6,4.43,3.43,3.61,7.31,7.68,12.6,9.87,4.41,1.83,9.06,2.08,13.03,2.08,1.05,0,2.12-.02,3.18-.04h.35c.8-.02,1.61-.03,2.4-.03,1.53,0,2.54,.06,3.21,.13,.18,1.63,.13,4.25,.1,5.97-.1,5.07-.2,10.81,2.04,16.22,2.18,5.27,6.25,9.15,9.84,12.57,1.37,1.3,3.47,3.3,4.46,4.62-.99,1.32-3.09,3.33-4.44,4.62-3.61,3.43-7.68,7.32-9.86,12.6-2.23,5.4-2.13,11.13-2.03,16.19,.03,1.83,.08,4.37-.09,5.95-.67,.08-1.68,.14-3.22,.14-.91,0-1.83-.02-2.74-.04h-.41c-.93-.02-1.86-.04-2.78-.04-3.97,0-8.62,.25-13.04,2.08-5.29,2.2-9.16,6.27-12.58,9.87-1.29,1.36-3.29,3.46-4.62,4.46Z"/><path class="cls-4" d="M174.45,114.95c-3.62-3.8-8.12-8.52-14.47-11.17-5.36-2.22-10.71-2.52-15.23-2.52-.82,0-3.24,.04-3.24,.04-.12,0-.24,0-.36,0,0-.1,0-.2,0-.3,.1-5.35,.23-11.98-2.47-18.49-2.66-6.38-7.37-10.87-11.16-14.48-.17-.16-.37-.35-.6-.57,.2-.19,.39-.37,.54-.51,3.82-3.63,8.54-8.12,11.2-14.49,2.71-6.54,2.58-13.18,2.48-18.52,0-.11,0-.22,0-.33h.31c1.11,.03,2.2,.05,3.29,.05,4.51,0,9.85-.3,15.19-2.51,6.36-2.62,10.86-7.35,14.48-11.14,.15-.16,.34-.36,.56-.59,.19,.2,.36,.38,.51,.53,3.64,3.82,8.15,8.56,14.54,11.2,5.32,2.21,10.66,2.5,15.18,2.5,1.09,0,2.2-.02,3.3-.04h.32c0,.08,0,.17,0,.25-.1,5.41-.23,12.06,2.47,18.56,2.63,6.36,7.35,10.86,11.14,14.49,.17,.16,.37,.35,.59,.56-.21,.2-.4,.38-.56,.53-3.8,3.62-8.54,8.13-11.18,14.52-2.69,6.49-2.56,13.12-2.46,18.45,0,.1,0,.21,0,.32h-.73c-.98-.03-1.94-.04-2.89-.04-4.52,0-9.86,.3-15.2,2.51-6.39,2.66-10.89,7.39-14.5,11.18-.16,.17-.34,.36-.54,.57-.2-.21-.39-.4-.54-.57Z"/><circle class="cls-19" cx="174.99" cy="67.46" r="34.69"/><circle class="cls-11" cx="174.99" cy="67.46" r="33.05"/><g><path class="cls-13" d="M164.78,129.25l-29.78,29.78c-1.98,1.98-5.37,.75-5.62-2.04l-1.74-19.4-19.4-1.74c-2.79-.25-4.02-3.64-2.04-5.62l18.9-18.9c.45,1.47,1.16,2.79,2.2,3.83,5.69,5.69,18.62,1.1,26.17,4.23,3.97,1.63,7.52,6.11,11.3,9.86Z"/><path class="cls-13" d="M164.78,129.25l-29.78,29.78c-1.98,1.98-5.37,.75-5.62-2.04l-1.74-19.4-19.4-1.74c-2.79-.25-4.02-3.64-2.04-5.62l18.9-18.9c.45,1.47,1.16,2.79,2.2,3.83,5.69,5.69,18.62,1.1,26.17,4.23,3.97,1.63,7.52,6.11,11.3,9.86Z"/><path class="cls-14" d="M138.74,155.27l-3.75,3.75c-1.97,2-5.35,.76-5.61-2.03l-1.75-19.41-19.41-1.72c-2.76-.25-4-3.63-2.03-5.63l3.75-3.72c-1.97,1.97-.76,5.35,2.03,5.61l19.41,1.75,1.72,19.38c.25,2.79,3.66,4.03,5.63,2.03Z"/><path class="cls-13" d="M241.75,135.85l-19.42,1.74-1.74,19.4c-.25,2.79-3.64,4.02-5.62,2.04l-29.78-29.78c3.78-3.75,7.33-8.23,11.3-9.86,7.55-3.13,20.51,1.46,26.2-4.23,1.04-1.04,1.75-2.34,2.2-3.8l18.89,18.87c1.98,1.98,.75,5.37-2.04,5.62Z"/><path class="cls-25" d="M225.69,112.14c-.2,3.44-.87,6.54-2.99,8.65-5.69,5.69-18.65,1.1-26.2,4.23-2.99,1.24-5.75,4.09-8.51,7.02l-2.79-2.79c3.78-3.75,7.33-8.23,11.3-9.86,7.55-3.13,20.51,1.47,26.2-4.23,1.04-1.04,1.75-2.34,2.2-3.8l.79,.79Z"/><path class="cls-25" d="M164.78,129.24l-2.79,2.79c-2.76-2.93-5.49-5.78-8.51-7.02-7.55-3.13-20.48,1.47-26.17-4.23-2.11-2.11-2.79-5.21-2.99-8.68l.79-.79c.45,1.47,1.16,2.79,2.2,3.83,5.69,5.69,18.62,1.1,26.17,4.23,3.97,1.63,7.52,6.11,11.3,9.86Z"/><path class="cls-14" d="M241.75,135.86l-19.41,1.72-1.75,19.41c-.25,2.79-3.63,4.03-5.61,2.03l-3.27-3.27c1.97,1.8,5.24,.56,5.49-2.17l1.72-19.38,19.44-1.75c2.79-.25,4-3.61,2.06-5.61l3.38,3.38c1.97,1.97,.73,5.38-2.06,5.63Z"/></g><g><g><path class="cls-26" d="M200.03,75.82c.07,8.26-4.57,13.72-23.04,14.48-15.52,.64-25.95-5.83-26.02-14.09s10.86-15.05,24.41-15.16c13.55-.11,24.58,6.5,24.65,14.76Z"/><ellipse class="cls-17" cx="175.06" cy="74.44" rx="24.96" ry="15.26" transform="translate(-.6 1.42) rotate(-.46)"/><ellipse class="cls-22" cx="175.05" cy="73.79" rx="24.96" ry="14.61" transform="translate(-.59 1.42) rotate(-.46)"/><ellipse class="cls-21" cx="175.43" cy="74.31" rx="16.97" ry="9.29" transform="translate(-.6 1.42) rotate(-.46)"/><path class="cls-16" d="M191.98,69.59c-3.2-2.68-8.77-4.42-15.07-4.37-9.87,.08-17.84,4.52-17.8,9.93,.01,1.55,.69,3.02,1.88,4.32-1.82-1.51-2.88-3.33-2.89-5.28-.04-5.4,7.93-9.85,17.8-9.93,7.04-.06,13.15,2.12,16.09,5.33Z"/></g><g><path class="cls-12" d="M195.08,73.95c.08,5.01-4.47,10.59-20.39,10.72-15.73,.13-20.62-5.04-20.7-10.06s9.06-7.92,20.41-8.1c11.35-.18,20.6,2.42,20.68,7.44Z"/><ellipse class="cls-24" cx="174.53" cy="74.28" rx="20.55" ry="9.08" transform="translate(-1.18 2.83) rotate(-.93)"/><ellipse class="cls-12" cx="174.76" cy="74.28" rx="18.83" ry="8.24" transform="translate(-.6 1.42) rotate(-.46)"/><path class="cls-1" d="M192.55,73.43c.02,3.06-8.38-8.33-31.86-2.88-2.98,.69,8.68-3.98,15.67-4.04,6.99-.06,16.17,3.86,16.2,6.92Z"/><g><ellipse class="cls-23" cx="171.94" cy="75.96" rx=".43" ry=".28" transform="translate(16.83 182.14) rotate(-58.23)"/><ellipse class="cls-23" cx="180.89" cy="75.65" rx=".43" ry=".28" transform="translate(21.33 189.6) rotate(-58.23)"/><ellipse class="cls-23" cx="183.41" cy="71.73" rx=".43" ry=".28" transform="translate(25.86 189.88) rotate(-58.23)"/><ellipse class="cls-23" cx="167.09" cy="72.55" rx=".43" ry=".28" transform="translate(17.43 176.4) rotate(-58.23)"/><ellipse class="cls-23" cx="177.02" cy="70.03" rx=".43" ry=".28" transform="translate(24.28 183.65) rotate(-58.23)"/><ellipse class="cls-23" cx="164.11" cy="78.66" rx=".43" ry=".28" transform="translate(10.83 176.76) rotate(-58.23)"/><ellipse class="cls-23" cx="163.36" cy="69.83" rx=".43" ry=".28" transform="translate(17.98 171.94) rotate(-58.23)"/><ellipse class="cls-23" cx="179.4" cy="80.92" rx=".43" ry=".28" transform="translate(16.15 190.82) rotate(-58.23)"/><ellipse class="cls-23" cx="172.6" cy="80.26" rx=".43" ry=".28" transform="translate(13.48 184.74) rotate(-58.23)"/><ellipse class="cls-23" cx="187.73" cy="76.22" rx=".43" ry=".28" transform="translate(24.08 195.68) rotate(-58.23)"/></g></g><g><path class="cls-18" d="M196.36,71.32c.08,5.01-4.47,10.59-20.39,10.72-15.73,.13-20.62-5.04-20.7-10.06-.08-5.01,9.06-7.92,20.41-8.1,11.35-.18,20.6,2.42,20.68,7.44Z"/><ellipse class="cls-5" cx="175.82" cy="71.65" rx="20.55" ry="9.08" transform="translate(-1.14 2.85) rotate(-.93)"/><ellipse class="cls-18" cx="176.04" cy="71.65" rx="18.83" ry="8.24" transform="translate(-.57 1.43) rotate(-.46)"/><path class="cls-1" d="M193.84,70.8c.02,3.06-8.38-8.33-31.86-2.88-2.98,.69,8.68-3.98,15.67-4.04,6.99-.06,16.17,3.86,16.2,6.92Z"/><g><ellipse class="cls-15" cx="173.23" cy="73.33" rx=".43" ry=".28" transform="translate(19.68 181.99) rotate(-58.23)"/><ellipse class="cls-15" cx="182.17" cy="73.02" rx=".43" ry=".28" transform="translate(24.18 189.45) rotate(-58.23)"/><ellipse class="cls-15" cx="184.7" cy="69.09" rx=".43" ry=".28" transform="translate(28.71 189.73) rotate(-58.23)"/><ellipse class="cls-15" cx="168.38" cy="69.92" rx=".43" ry=".28" transform="translate(20.28 176.25) rotate(-58.23)"/><ellipse class="cls-15" cx="178.31" cy="67.4" rx=".43" ry=".28" transform="translate(27.13 183.5) rotate(-58.23)"/><ellipse class="cls-15" cx="165.39" cy="76.03" rx=".43" ry=".28" transform="translate(13.67 176.61) rotate(-58.23)"/><ellipse class="cls-15" cx="164.65" cy="67.2" rx=".43" ry=".28" transform="translate(20.83 171.79) rotate(-58.23)"/><ellipse class="cls-15" cx="180.68" cy="78.29" rx=".43" ry=".28" transform="translate(18.99 190.67) rotate(-58.23)"/><ellipse class="cls-15" cx="173.89" cy="77.63" rx=".43" ry=".28" transform="translate(16.33 184.59) rotate(-58.23)"/><ellipse class="cls-15" cx="189.01" cy="73.59" rx=".43" ry=".28" transform="translate(26.93 195.53) rotate(-58.23)"/></g></g><g><path class="cls-12" d="M196.34,68.7c.08,5.01-4.47,10.59-20.39,10.72-15.73,.13-20.62-5.04-20.7-10.06s9.06-7.92,20.41-8.1c11.35-.18,20.6,2.42,20.68,7.44Z"/><ellipse class="cls-24" cx="175.8" cy="69.03" rx="20.55" ry="9.08" transform="translate(-1.09 2.85) rotate(-.93)"/><ellipse class="cls-12" cx="176.02" cy="69.03" rx="18.83" ry="8.24" transform="translate(-.55 1.43) rotate(-.46)"/><path class="cls-1" d="M193.82,68.18c.02,3.06-8.38-8.33-31.86-2.88-2.98,.69,8.68-3.98,15.67-4.04s16.17,3.86,16.2,6.92Z"/><g><ellipse class="cls-23" cx="173.21" cy="70.71" rx=".43" ry=".28" transform="translate(21.9 180.73) rotate(-58.23)"/><ellipse class="cls-23" cx="182.15" cy="70.4" rx=".43" ry=".28" transform="translate(26.39 188.19) rotate(-58.23)"/><ellipse class="cls-23" cx="184.68" cy="66.48" rx=".43" ry=".28" transform="translate(30.92 188.48) rotate(-58.23)"/><ellipse class="cls-23" cx="168.36" cy="67.3" rx=".43" ry=".28" transform="translate(22.49 174.99) rotate(-58.23)"/><ellipse class="cls-23" cx="178.29" cy="64.78" rx=".43" ry=".28" transform="translate(29.34 182.24) rotate(-58.23)"/><ellipse class="cls-23" cx="165.37" cy="73.41" rx=".43" ry=".28" transform="translate(15.89 175.35) rotate(-58.23)"/><ellipse class="cls-23" cx="164.63" cy="64.58" rx=".43" ry=".28" transform="translate(23.04 170.53) rotate(-58.23)"/><ellipse class="cls-23" cx="180.66" cy="75.67" rx=".43" ry=".28" transform="translate(21.21 189.42) rotate(-58.23)"/><ellipse class="cls-23" cx="173.87" cy="75.01" rx=".43" ry=".28" transform="translate(18.55 183.33) rotate(-58.23)"/><ellipse class="cls-23" cx="188.99" cy="70.97" rx=".43" ry=".28" transform="translate(29.14 194.28) rotate(-58.23)"/></g></g><g><path class="cls-18" d="M194.49,66.1c.08,5.01-4.47,10.59-20.39,10.72-15.73,.13-20.62-5.04-20.7-10.06-.08-5.01,9.06-7.92,20.41-8.1,11.35-.18,20.6,2.42,20.68,7.44Z"/><ellipse class="cls-5" cx="173.94" cy="66.43" rx="20.55" ry="9.08" transform="translate(-1.05 2.82) rotate(-.93)"/><ellipse class="cls-18" cx="174.17" cy="66.43" rx="18.83" ry="8.24" transform="translate(-.53 1.41) rotate(-.46)"/><path class="cls-1" d="M191.97,65.58c.02,3.06-8.38-8.33-31.86-2.88-2.98,.69,8.68-3.98,15.67-4.04s16.17,3.86,16.2,6.92Z"/><g><ellipse class="cls-15" cx="171.36" cy="68.1" rx=".43" ry=".28" transform="translate(23.23 177.92) rotate(-58.23)"/><ellipse class="cls-15" cx="180.3" cy="67.79" rx=".43" ry=".28" transform="translate(27.73 185.38) rotate(-58.23)"/><ellipse class="cls-15" cx="182.82" cy="63.87" rx=".43" ry=".28" transform="translate(32.26 185.67) rotate(-58.23)"/><ellipse class="cls-15" cx="166.5" cy="64.7" rx=".43" ry=".28" transform="translate(23.83 172.18) rotate(-58.23)"/><ellipse class="cls-15" cx="176.43" cy="62.17" rx=".43" ry=".28" transform="translate(30.68 179.43) rotate(-58.23)"/><ellipse class="cls-15" cx="163.52" cy="70.8" rx=".43" ry=".28" transform="translate(17.23 172.54) rotate(-58.23)"/><ellipse class="cls-15" cx="162.77" cy="61.97" rx=".43" ry=".28" transform="translate(24.38 167.72) rotate(-58.23)"/><ellipse class="cls-15" cx="178.81" cy="73.06" rx=".43" ry=".28" transform="translate(22.55 186.61) rotate(-58.23)"/><ellipse class="cls-15" cx="172.01" cy="72.41" rx=".43" ry=".28" transform="translate(19.88 180.52) rotate(-58.23)"/><ellipse class="cls-15" cx="187.14" cy="68.37" rx=".43" ry=".28" transform="translate(30.48 191.47) rotate(-58.23)"/></g></g><g><path class="cls-12" d="M196.3,63.46c.08,5.01-4.47,10.59-20.39,10.72-15.73,.13-20.62-5.04-20.7-10.06s9.06-7.92,20.41-8.1c11.35-.18,20.6,2.42,20.68,7.44Z"/><ellipse class="cls-24" cx="175.75" cy="63.79" rx="20.55" ry="9.08" transform="translate(-1.01 2.85) rotate(-.93)"/><ellipse class="cls-12" cx="175.98" cy="63.79" rx="18.83" ry="8.24" transform="translate(-.51 1.43) rotate(-.46)"/><path class="cls-1" d="M193.78,62.94c.02,3.06-8.38-8.33-31.86-2.88-2.98,.69,8.68-3.98,15.67-4.04s16.17,3.86,16.2,6.92Z"/><g><ellipse class="cls-23" cx="173.17" cy="65.47" rx=".43" ry=".28" transform="translate(26.33 178.22) rotate(-58.23)"/><ellipse class="cls-23" cx="182.11" cy="65.16" rx=".43" ry=".28" transform="translate(30.83 185.67) rotate(-58.23)"/><ellipse class="cls-23" cx="184.63" cy="61.24" rx=".43" ry=".28" transform="translate(35.36 185.96) rotate(-58.23)"/><ellipse class="cls-23" cx="168.31" cy="62.06" rx=".43" ry=".28" transform="translate(26.93 172.48) rotate(-58.23)"/><ellipse class="cls-23" cx="178.25" cy="59.54" rx=".43" ry=".28" transform="translate(33.78 179.73) rotate(-58.23)"/><ellipse class="cls-23" cx="165.33" cy="68.17" rx=".43" ry=".28" transform="translate(20.32 172.83) rotate(-58.23)"/><ellipse class="cls-23" cx="164.59" cy="59.34" rx=".43" ry=".28" transform="translate(27.48 168.02) rotate(-58.23)"/><ellipse class="cls-23" cx="180.62" cy="70.43" rx=".43" ry=".28" transform="translate(25.64 186.9) rotate(-58.23)"/><ellipse class="cls-23" cx="173.82" cy="69.77" rx=".43" ry=".28" transform="translate(22.98 180.81) rotate(-58.23)"/><ellipse class="cls-23" cx="188.95" cy="65.73" rx=".43" ry=".28" transform="translate(33.58 191.76) rotate(-58.23)"/></g></g><g><path class="cls-18" d="M194.45,60.86c.08,5.01-4.47,10.59-20.39,10.72-15.73,.13-20.62-5.04-20.7-10.06-.08-5.01,9.06-7.92,20.41-8.1,11.35-.18,20.6,2.42,20.68,7.44Z"/><ellipse class="cls-5" cx="173.9" cy="61.19" rx="20.55" ry="9.08" transform="translate(-.97 2.82) rotate(-.93)"/><ellipse class="cls-18" cx="174.13" cy="61.19" rx="18.83" ry="8.24" transform="translate(-.49 1.41) rotate(-.46)"/><path class="cls-1" d="M191.92,60.34c.02,3.06-8.38-8.33-31.86-2.88-2.98,.69,8.68-3.98,15.67-4.04s16.17,3.86,16.2,6.92Z"/><g><ellipse class="cls-15" cx="171.31" cy="62.86" rx=".43" ry=".28" transform="translate(27.67 175.41) rotate(-58.23)"/><ellipse class="cls-15" cx="180.26" cy="62.55" rx=".43" ry=".28" transform="translate(32.16 182.86) rotate(-58.23)"/><ellipse class="cls-15" cx="182.78" cy="58.63" rx=".43" ry=".28" transform="translate(36.69 183.15) rotate(-58.23)"/><ellipse class="cls-15" cx="166.46" cy="59.46" rx=".43" ry=".28" transform="translate(28.26 169.67) rotate(-58.23)"/><ellipse class="cls-15" cx="176.39" cy="56.93" rx=".43" ry=".28" transform="translate(35.11 176.92) rotate(-58.23)"/><ellipse class="cls-15" cx="163.48" cy="65.56" rx=".43" ry=".28" transform="translate(21.66 170.02) rotate(-58.23)"/><ellipse class="cls-15" cx="162.73" cy="56.73" rx=".43" ry=".28" transform="translate(28.81 165.21) rotate(-58.23)"/><ellipse class="cls-15" cx="178.77" cy="67.82" rx=".43" ry=".28" transform="translate(26.98 184.09) rotate(-58.23)"/><ellipse class="cls-15" cx="171.97" cy="67.17" rx=".43" ry=".28" transform="translate(24.32 178) rotate(-58.23)"/><ellipse class="cls-15" cx="187.1" cy="63.13" rx=".43" ry=".28" transform="translate(34.91 188.95) rotate(-58.23)"/></g></g><g><path class="cls-12" d="M196.58,58.16c.08,5.01-4.47,10.59-20.39,10.72-15.73,.13-20.62-5.04-20.7-10.06s9.06-7.92,20.41-8.1c11.35-.18,20.6,2.42,20.68,7.44Z"/><ellipse class="cls-24" cx="176.03" cy="58.49" rx="20.55" ry="9.08" transform="translate(-.92 2.85) rotate(-.93)"/><ellipse class="cls-12" cx="176.26" cy="58.49" rx="18.83" ry="8.24" transform="translate(-.47 1.43) rotate(-.46)"/><path class="cls-1" d="M194.06,57.64c.02,3.06-8.38-8.33-31.86-2.88-2.98,.69,8.68-3.98,15.67-4.04s16.17,3.86,16.2,6.92Z"/><g><ellipse class="cls-23" cx="173.45" cy="60.17" rx=".43" ry=".28" transform="translate(30.97 175.94) rotate(-58.23)"/><ellipse class="cls-23" cx="182.39" cy="59.86" rx=".43" ry=".28" transform="translate(35.46 183.4) rotate(-58.23)"/><ellipse class="cls-23" cx="184.91" cy="55.94" rx=".43" ry=".28" transform="translate(39.99 183.69) rotate(-58.23)"/><ellipse class="cls-23" cx="168.59" cy="56.76" rx=".43" ry=".28" transform="translate(31.57 170.21) rotate(-58.23)"/><ellipse class="cls-23" cx="178.53" cy="54.24" rx=".43" ry=".28" transform="translate(38.42 177.45) rotate(-58.23)"/><ellipse class="cls-23" cx="165.61" cy="62.87" rx=".43" ry=".28" transform="translate(24.96 170.56) rotate(-58.23)"/><ellipse class="cls-23" cx="164.87" cy="54.04" rx=".43" ry=".28" transform="translate(32.12 165.75) rotate(-58.23)"/><ellipse class="cls-23" cx="180.9" cy="65.13" rx=".43" ry=".28" transform="translate(30.28 184.63) rotate(-58.23)"/><ellipse class="cls-23" cx="174.1" cy="64.47" rx=".43" ry=".28" transform="translate(27.62 178.54) rotate(-58.23)"/><ellipse class="cls-23" cx="189.23" cy="60.43" rx=".43" ry=".28" transform="translate(38.22 189.49) rotate(-58.23)"/></g></g><g><path class="cls-18" d="M195.97,55.61c.08,5.01-4.47,10.59-20.39,10.72-15.73,.13-20.62-5.04-20.7-10.06s9.06-7.92,20.41-8.1c11.35-.18,20.6,2.42,20.68,7.44Z"/><ellipse class="cls-5" cx="175.43" cy="55.94" rx="20.55" ry="9.08" transform="translate(-.88 2.84) rotate(-.93)"/><ellipse class="cls-18" cx="175.66" cy="55.93" rx="18.83" ry="8.24" transform="translate(-.45 1.42) rotate(-.46)"/><path class="cls-1" d="M193.45,55.08c.02,3.06-8.38-8.33-31.86-2.88-2.98,.69,8.68-3.98,15.67-4.04s16.17,3.86,16.2,6.92Z"/><g><ellipse class="cls-15" cx="172.84" cy="57.61" rx=".43" ry=".28" transform="translate(32.86 174.22) rotate(-58.23)"/><ellipse class="cls-15" cx="181.78" cy="57.3" rx=".43" ry=".28" transform="translate(37.35 181.68) rotate(-58.23)"/><ellipse class="cls-15" cx="184.31" cy="53.38" rx=".43" ry=".28" transform="translate(41.88 181.96) rotate(-58.23)"/><ellipse class="cls-15" cx="167.99" cy="54.21" rx=".43" ry=".28" transform="translate(33.45 168.48) rotate(-58.23)"/><ellipse class="cls-15" cx="177.92" cy="51.68" rx=".43" ry=".28" transform="translate(40.3 175.73) rotate(-58.23)"/><ellipse class="cls-15" cx="165.01" cy="60.31" rx=".43" ry=".28" transform="translate(26.85 168.83) rotate(-58.23)"/><ellipse class="cls-15" cx="164.26" cy="51.48" rx=".43" ry=".28" transform="translate(34 164.02) rotate(-58.23)"/><ellipse class="cls-15" cx="180.3" cy="62.57" rx=".43" ry=".28" transform="translate(32.17 182.9) rotate(-58.23)"/><ellipse class="cls-15" cx="173.5" cy="61.92" rx=".43" ry=".28" transform="translate(29.51 176.81) rotate(-58.23)"/><ellipse class="cls-15" cx="188.63" cy="57.88" rx=".43" ry=".28" transform="translate(40.1 187.76) rotate(-58.23)"/></g></g><g><path class="cls-12" d="M194.09,53.33c.08,5.01-4.47,10.59-20.39,10.72-15.73,.13-20.62-5.04-20.7-10.06s9.06-7.92,20.41-8.1c11.35-.18,20.6,2.42,20.68,7.44Z"/><ellipse class="cls-24" cx="173.54" cy="53.66" rx="20.55" ry="9.08" transform="translate(-.85 2.81) rotate(-.93)"/><ellipse class="cls-12" cx="173.77" cy="53.66" rx="18.83" ry="8.24" transform="translate(-.43 1.41) rotate(-.46)"/><path class="cls-1" d="M191.57,52.81c.02,3.06-8.38-8.33-31.86-2.88-2.98,.69,8.68-3.98,15.67-4.04s16.17,3.86,16.2,6.92Z"/><g><ellipse class="cls-23" cx="170.95" cy="55.33" rx=".43" ry=".28" transform="translate(33.9 171.53) rotate(-58.23)"/><ellipse class="cls-23" cx="179.9" cy="55.03" rx=".43" ry=".28" transform="translate(38.39 178.99) rotate(-58.23)"/><ellipse class="cls-23" cx="182.42" cy="51.1" rx=".43" ry=".28" transform="translate(42.92 179.28) rotate(-58.23)"/><ellipse class="cls-23" cx="166.1" cy="51.93" rx=".43" ry=".28" transform="translate(34.49 165.8) rotate(-58.23)"/><ellipse class="cls-23" cx="176.03" cy="49.4" rx=".43" ry=".28" transform="translate(41.35 173.04) rotate(-58.23)"/><ellipse class="cls-23" cx="163.12" cy="58.03" rx=".43" ry=".28" transform="translate(27.89 166.15) rotate(-58.23)"/><ellipse class="cls-23" cx="162.37" cy="49.2" rx=".43" ry=".28" transform="translate(35.05 161.34) rotate(-58.23)"/><ellipse class="cls-23" cx="178.41" cy="60.29" rx=".43" ry=".28" transform="translate(33.21 180.22) rotate(-58.23)"/><ellipse class="cls-23" cx="171.61" cy="59.64" rx=".43" ry=".28" transform="translate(30.55 174.13) rotate(-58.23)"/><ellipse class="cls-23" cx="186.74" cy="55.6" rx=".43" ry=".28" transform="translate(41.15 185.08) rotate(-58.23)"/></g></g><g><path class="cls-8" d="M180.07,51.61c3.51,1.16,2.46,5.66-4.45,4.42-5.71-1.03-7.62-.67-7.65-4.11-.01-1.67,3.87-.02,6.59-.04s4.73-.52,5.51-.26Z"/><g><g><path class="cls-20" d="M170.52,49.97s-.03,2.01,.47,2.38c2.42,1.77,2.87,1.87,3.3,1.26,.29-.41-.15-2.3-.15-2.3"/><path class="cls-7" d="M178.91,49.55l-.1,2.39c-.24,.99-1.49,1.76-4.97,2.02l.31-2.66,4.76-1.76Z"/><path class="cls-10" d="M170.52,49.97c-.11-.18,2.02,1.38,3.63,1.34,2.63-.02,4.22-.24,4.76-1.76-2.98-.55-5.8-.51-8.39,.42Z"/></g><path class="cls-9" d="M174.88,50.98s1.47,.09,2.37-.33c.85-.39,1.3-.84,.54-.58s-1.63,.79-2.91,.91Z"/><path class="cls-3" d="M174.42,52.08s.28,.27,.88,.16,.67-.28,.67-.28c0,0-.89-.06-1.16-.1s-.38,.23-.38,.23Z"/><path class="cls-2" d="M172.24,51.54c.33,.04-1.29,.46-1.3-.26,0-.82,.5,.16,1.3,.26Z"/></g></g></g></g><g><g><path class="cls-4" d="M263.73,60.91c-6.36,0-11.54-5.17-11.54-11.54s5.17-11.54,11.54-11.54,11.54,5.17,11.54,11.54-5.17,11.54-11.54,11.54Zm0-17.57c-3.33,0-6.04,2.71-6.04,6.04s2.71,6.04,6.04,6.04,6.04-2.71,6.04-6.04-2.71-6.04-6.04-6.04Z"/><path class="cls-4" d="M254.3,3.67c-3.05,2.62-6.58,4.86-9.33,7.41-.58,.61-1.39,1.35-1.33,1.86,.17-.07,.19-.29,.26-.46,.06-.24,.02-.44,0-.66-.04-.08,0-.07,.02-.07,.16,.11,.35,.31,.62,.54,4.69,3.8,7.96,10.01,6.33,16.15-1.28,5.17-6.2,8.92-11.25,8.64,0,0-.21-.51-.21-.51,1.82-.81,3.47-1.98,4.73-3.49,4.3-4.77,2.42-11.65-2.04-15.6-2.74-2.38-5.06-4.95-1.93-8.24,3.84-3.53,9.11-4.9,14.01-6.11,0,0,.12,.54,.12,.54h0Z"/><path class="cls-4" d="M246.43,89.66c-1.75-8.41,5.66-16.6,13.74-18.22,6.58-1.41,14.47-.58,19.82,3.91,.83,.8,2.11,2.58,.91,3.63,0,0-.47-.28-.47-.28,.19-1.44-2.67-1.8-3.74-2.04-5.04-.69-10.43-.75-15.4,.1-6.75,1.2-12.5,6.4-14.33,13.01,0,0-.54-.11-.54-.11h0Z"/><path class="cls-4" d="M296.94,24.98c-2.32-1.1-3.64-3.42-3.85-5.97-.44-6.08,5.05-11.49,11.13-10.99,1.23,.07,4.34,.71,3.82,2.45,0,0-.55,.05-.55,.05-.02-.09-.4-.16-.77-.03-2.66,1.09-5.19,3.06-7.21,5.03-2.31,2.42-3.14,6.06-2.07,9.23,0,0-.5,.23-.5,.23h0Z"/><path class="cls-4" d="M296.94,60.9c-2.32-1.1-3.64-3.42-3.85-5.97-.44-6.08,5.05-11.49,11.13-10.99,1.23,.07,4.34,.71,3.82,2.45,0,0-.55,.05-.55,.05-.02-.09-.4-.16-.77-.03-2.66,1.09-5.19,3.06-7.21,5.03-2.31,2.42-3.14,6.06-2.07,9.23,0,0-.5,.23-.5,.23h0Z"/><path class="cls-4" d="M284.26,30.36c-.02,.21,0,.19,.01,.34,.15,1.64-1.54,2.85-3.05,2.91-1.79,.14-3.11-.42-4.24-.94-1.81-.71-3.47-1.68-4.89-2.99-.12-.13-.12-.09-.28-.29,0,0-4.67-5.28-4.67-5.28,3.55-1.17,9.08-3.71,12.81-3.84,1.42-.17,5.96,.2,7.44,.23-.39,3.36-.73,7.27-3.14,9.85h0Zm-.54-.08c-.4-2.08-.77-4.12-1.09-6.15l.62,.4c-2.51,.77-5.02,1.53-7.55,2.25,0,0,.26-.86,.26-.86,.98,1.09,2.71,2.66,3.79,3.72,1.04,1.04,2.84,2.17,3.92,.68,0,0,.04-.06,.04-.06,.02-.02,.02-.06,0,.02h0Z"/></g><g><path class="cls-4" d="M86.27,60.91c-6.36,0-11.54-5.17-11.54-11.54s5.17-11.54,11.54-11.54,11.54,5.17,11.54,11.54-5.17,11.54-11.54,11.54Zm0-17.57c-3.33,0-6.04,2.71-6.04,6.04s2.71,6.04,6.04,6.04,6.04-2.71,6.04-6.04-2.71-6.04-6.04-6.04Z"/><path class="cls-4" d="M95.83,3.13c6.54-1.26,16.44-.14,19.31,7.01,1.3,3.53-.6,7.45-3.32,9.67-1.34,1.23-2.59,2.56-3.56,4.08-2.76,4.23-1.02,8.93,2.34,12.67,0,0-.21,.51-.21,.51-10.18-4.11-10.05-14.99-2.09-21.43,5.94-4.72-2.85-8.6-6.85-10.09-1.87-.73-3.8-1.36-5.74-1.88l.12-.54h0Z"/><path class="cls-4" d="M103.03,89.77c-5.48-6.22-11.68-8.83-19.5-9.2-4.09-.27-8.13-1.2-12.11-2-.37-.08-.74-.13-1.03-.15-.3-.03-.63-.08-.84,.29l-.47,.28c-.99-3.28,7.24-3.57,9.3-3.73,6.98-.5,14.67,.15,19.93,5.29,2.6,2.45,4.45,5.64,5.25,9.12l-.54,.11h0Z"/><path class="cls-4" d="M52.56,24.75c-1.65-3.41-3.05-4.42-5.31-6.3-2.17-1.75-3.94-4.25-4.35-7.11,0-.29,.02-.74-.39-.82,0,0-.55-.05-.55-.05,.61-1.88,4.13,.42,5.15,1,4.85,2.75,8.48,7.88,5.95,13.5,0,0-.5-.23-.5-.23h0Z"/><path class="cls-4" d="M52.56,60.67c-1.65-3.41-3.05-4.42-5.31-6.3-2.17-1.75-3.94-4.25-4.35-7.11,0-.29,.02-.74-.39-.82,0,0-.55-.05-.55-.05,.61-1.88,4.13,.42,5.15,1,4.85,2.75,8.48,7.88,5.95,13.5,0,0-.5-.23-.5-.23h0Z"/><path class="cls-4" d="M83.5,22.74c-.02,.21,0,.19,.01,.34,.15,1.64-1.54,2.85-3.05,2.91-1.79,.14-3.11-.42-4.24-.94-1.81-.71-3.47-1.68-4.89-2.99-.12-.13-.12-.09-.28-.29,0,0-4.67-5.28-4.67-5.28,3.55-1.17,9.08-3.71,12.81-3.84,1.42-.17,5.96,.2,7.44,.23-.39,3.36-.73,7.27-3.14,9.85h0Zm-.54-.08c-.4-2.08-.77-4.12-1.09-6.15l.62,.4c-2.51,.77-5.02,1.53-7.55,2.25,0,0,.26-.86,.26-.86,.98,1.09,2.71,2.66,3.79,3.72,1.04,1.04,2.84,2.17,3.92,.68,0,0,.04-.06,.04-.06,.02-.02,.02-.06,0,.02h0Z"/></g></g><g><path class="cls-4" d="M324.93,125.56c-6.36,0-11.54-5.17-11.54-11.54s5.17-11.54,11.54-11.54,11.54,5.17,11.54,11.54-5.17,11.54-11.54,11.54Zm0-17.57c-3.33,0-6.04,2.71-6.04,6.04s2.71,6.04,6.04,6.04,6.04-2.71,6.04-6.04-2.71-6.04-6.04-6.04Z"/><path class="cls-4" d="M304.4,133.04c-.06-.83,.03-1.5,.64-2.15,2.9-2.88,8.56,.47,11.04,2.39,.45,.23,4.97,5.51,5.43,6-3.55,1.17-9.08,3.71-12.81,3.84-1.42,.17-5.96-.2-7.44-.23,.39-3.36,.73-7.27,3.14-9.85h0Zm.54,.08c.4,2.08,.77,4.12,1.09,6.15l-.62-.4c2.51-.77,5.02-1.53,7.55-2.25,0,0-.26,.86-.26,.86-.98-1.09-2.71-2.66-3.79-3.72-1.04-1.04-2.84-2.17-3.92-.68,0,0-.04,.06-.04,.06-.02,.02-.02,.06,0-.02h0Z"/><path class="cls-4" d="M334.36,159.73c3.05-2.62,6.58-4.86,9.33-7.41,.58-.61,1.39-1.35,1.33-1.86-.17,.07-.19,.29-.26,.46-.06,.24-.02,.44,0,.66,.04,.08,0,.07-.02,.07-.16-.11-.35-.31-.62-.54-4.69-3.8-7.96-10.01-6.33-16.15,1.28-5.17,6.2-8.92,11.25-8.64,0,0,.21,.51,.21,.51-1.82,.81-3.47,1.98-4.73,3.49-4.3,4.78-2.42,11.64,2.04,15.6,2.74,2.38,5.06,4.95,1.93,8.24-3.84,3.53-9.11,4.9-14.01,6.11,0,0-.12-.54-.12-.54h0Z"/><path class="cls-4" d="M342.23,73.74c1.75,8.41-5.66,16.6-13.74,18.22-6.58,1.41-14.47,.58-19.82-3.91-.83-.8-2.11-2.58-.91-3.63,0,0,.47,.28,.47,.28-.19,1.44,2.67,1.8,3.74,2.04,5.04,.69,10.43,.75,15.4-.1,6.75-1.19,12.5-6.4,14.33-13.01,0,0,.54,.11,.54,.11h0Z"/><path class="cls-4" d="M291.72,138.42c2.32,1.1,3.64,3.42,3.85,5.97,.44,6.08-5.05,11.49-11.13,10.99-1.21-.06-4.36-.73-3.82-2.45,0,0,.55-.05,.55-.05,.02,.09,.4,.16,.77,.03,2.66-1.09,5.19-3.06,7.21-5.03,2.31-2.42,3.14-6.06,2.07-9.23,0,0,.5-.23,.5-.23h0Z"/><path class="cls-4" d="M291.72,102.5c2.32,1.1,3.64,3.42,3.85,5.97,.44,6.08-5.05,11.49-11.13,10.99-1.21-.06-4.36-.73-3.82-2.45,0,0,.55-.05,.55-.05,.02,.09,.4,.16,.77,.03,2.66-1.09,5.19-3.06,7.21-5.03,2.31-2.42,3.14-6.06,2.07-9.23,0,0,.5-.23,.5-.23h0Z"/></g><path class="cls-4" d="M23.82,69.42c5.48,6.22,11.68,8.83,19.5,9.2,4.09,.27,8.13,1.2,12.11,2,.37,.08,.74,.13,1.03,.15,.3,.03,.63,.08,.84-.29l.47-.28c.99,3.28-7.24,3.57-9.3,3.73-6.98,.5-14.67-.15-19.93-5.29-2.6-2.45-4.45-5.64-5.25-9.12l.54-.11h0Z"/><g><path class="cls-4" d="M29.29,124.84c-6.36,0-11.54-5.17-11.54-11.54s5.17-11.54,11.54-11.54,11.54,5.17,11.54,11.54-5.17,11.54-11.54,11.54Zm0-17.57c-3.33,0-6.04,2.71-6.04,6.04s2.71,6.04,6.04,6.04,6.04-2.71,6.04-6.04-2.71-6.04-6.04-6.04Z"/><path class="cls-4" d="M19.73,159.55c-6.54,1.26-16.44,.14-19.31-7.01-1.3-3.53,.6-7.45,3.32-9.67,1.34-1.23,2.59-2.56,3.56-4.08,2.76-4.23,1.02-8.93-2.34-12.67,0,0,.21-.51,.21-.51,10.18,4.11,10.05,14.99,2.09,21.43-5.94,4.72,2.85,8.6,6.85,10.09,1.87,.73,3.8,1.36,5.74,1.88l-.12,.54h0Z"/><path class="cls-4" d="M62.99,137.93c1.65,3.41,3.05,4.42,5.31,6.3,2.17,1.75,3.94,4.25,4.35,7.11,0,.29-.02,.74,.39,.82,0,0,.55,.05,.55,.05-.61,1.88-4.13-.42-5.15-1-4.85-2.75-8.48-7.88-5.95-13.5,0,0,.5,.23,.5,.23h0Z"/><path class="cls-4" d="M48.49,140.45c-.02,.21,0,.19,.01,.34,.15,1.64-1.54,2.85-3.05,2.91-1.79,.14-3.11-.42-4.24-.94-1.81-.71-3.47-1.68-4.89-2.99-.12-.13-.12-.09-.28-.29,0,0-4.67-5.28-4.67-5.28,3.55-1.17,9.08-3.71,12.81-3.84,1.42-.17,5.96,.2,7.44,.23-.39,3.36-.73,7.27-3.14,9.85h0Zm-.54-.08c-.4-2.08-.77-4.12-1.09-6.15l.62,.4c-2.51,.77-5.02,1.53-7.55,2.25,0,0,.26-.86,.26-.86,.98,1.09,2.71,2.66,3.79,3.72,1.04,1.04,2.84,2.17,3.92,.68,0,0,.04-.06,.04-.06,.02-.02,.02-.06,0,.02h0Z"/><path class="cls-4" d="M62.99,102.01c1.65,3.41,3.05,4.42,5.31,6.3,2.17,1.75,3.94,4.25,4.35,7.11,0,.29-.02,.74,.39,.82,0,0,.55,.05,.55,.05-.61,1.88-4.13-.42-5.15-1-4.85-2.75-8.48-7.88-5.95-13.5,0,0,.5,.23,.5,.23h0Z"/></g></svg>