<svg width="32" height="32" viewBox="0 0 32 32" fill="none" xmlns="http://www.w3.org/2000/svg">
<g clip-path="url(#clip0_1129_25911)">
<path d="M31.479 12.019C29.7076 5.00952 23.4409 0.0571429 16.2409 0C15.4409 0 14.8123 0.209524 14.3742 0.666667C13.9171 1.10476 13.7076 1.73333 13.7076 2.53333V8.41905C13.7076 8.59048 13.7076 8.78095 13.7266 8.95238C13.8028 9.58095 14.1647 10.1524 14.698 10.5143C15.2314 10.8762 15.898 11.0095 16.5076 10.8571C17.5933 10.5905 18.279 9.67619 18.279 8.49524C18.279 7.46667 18.279 6.4381 18.279 5.40952V4.85714C24.26 6.05714 28.26 11.9238 27.2314 17.9619C26.698 21.0857 24.9457 23.7905 22.298 25.5429C19.6695 27.2952 16.5076 27.8667 13.4219 27.1619C9.70757 26.3048 6.77424 23.7714 5.36471 20.2095C3.97424 16.6476 4.39329 12.8 6.54567 9.6381C7.53614 8.17143 8.81233 6.99048 10.4504 6.05714C11.0028 5.73333 11.3838 5.25714 11.5361 4.66667C11.6885 4.07619 11.6123 3.46667 11.2885 2.91429C10.6409 1.82857 9.26948 1.46667 8.14567 2.09524C7.78376 2.30476 7.40281 2.53333 7.05995 2.76191C3.34567 5.29524 1.04091 8.8381 0.240905 13.2762C0.164715 13.6762 0.126619 14.0762 0.0694766 14.4762L-0.00671387 15.1048V16.9905L0.0694766 17.5429C0.126619 17.9619 0.164715 18.3619 0.240905 18.781C1.26948 24.0762 4.22186 27.981 9.02186 30.4C10.7742 31.2762 12.7171 31.8095 14.8504 31.9619L15.098 32H16.9838L17.5742 31.9238C18.0123 31.8667 18.4695 31.8095 18.9076 31.7333C23.3076 30.9143 27.06 28.381 29.479 24.6286C31.898 20.8571 32.6028 16.381 31.498 12.0381L31.479 12.019Z" fill="#8A510F"/>
<path d="M11.1669 11.1738C10.9384 11.4024 10.6146 11.8786 10.9765 12.7357C11.7574 14.5833 12.6908 16.3357 13.7574 17.9738C14.3098 18.8119 14.8622 19.5357 15.4336 20.1643C16.0431 20.8309 16.9193 21.1928 17.8146 21.1928C18.2717 21.1928 18.7479 21.0976 19.205 20.9071C20.4241 20.3928 21.186 19.1738 21.186 17.7262C21.1669 16.7928 20.7669 15.9548 20.0812 15.4024C19.0717 14.5833 18.2146 13.9548 17.3765 13.4214C15.9289 12.4881 14.3289 11.669 12.6146 10.9452C11.8336 10.6214 11.3574 10.9452 11.1479 11.1738H11.1669Z" fill="#8A510F"/>
</g>
<defs>
<clipPath id="clip0_1129_25911">
<rect width="32" height="32" fill="white"/>
</clipPath>
</defs>
</svg>
