<svg width="16" height="16" viewBox="0 0 16 16" fill="none" xmlns="http://www.w3.org/2000/svg">
<g clip-path="url(#clip0_516_10370)">
<path d="M15.495 6.78L14.035 5.3225C14.37 5.13 14.6625 4.8625 14.8825 4.53C15.4225 3.7175 15.4175 2.6275 14.8725 1.8175C14.455 1.195 13.7925 0.8 13.055 0.7275C12.32 0.6575 11.5975 0.915 11.075 1.4375C10.9175 1.5975 10.7825 1.7725 10.675 1.9625L9.2175 0.505C8.8925 0.18 8.46 0 8 0H7.9975C7.5375 0 7.105 0.18 6.78 0.505L5.11 2.175C4.88 2.4025 4.7775 2.73 4.8375 3.0475C4.895 3.37 5.1125 3.645 5.415 3.7825C5.55 3.8425 5.6725 3.9275 5.7775 4.035C6.0275 4.285 6.1575 4.63 6.1375 4.9825C6.115 5.34 5.945 5.66 5.66 5.8825C5.2275 6.22 4.6 6.225 4.1675 5.895C3.9975 5.765 3.8675 5.605 3.7825 5.4175C3.645 5.1125 3.3675 4.8975 3.045 4.8375C2.7275 4.78 2.4 4.8825 2.1725 5.1125L0.5025 6.78C-0.1675 7.4525 -0.1675 8.5475 0.5025 9.22L1.9625 10.6775C1.77 10.7875 1.5925 10.92 1.435 11.08C0.9125 11.6025 0.6525 12.325 0.725 13.0625C0.795 13.7975 1.195 14.46 1.8175 14.88C2.6275 15.425 3.7175 15.425 4.53 14.8825C4.865 14.66 5.1325 14.37 5.3225 14.04L6.78 15.495C7.115 15.8325 7.5575 16 8 16C8.4425 16 8.8825 15.8325 9.2175 15.495L10.8875 13.825C11.1175 13.5975 11.22 13.27 11.1625 12.9525C11.1025 12.63 10.8875 12.355 10.585 12.2175C10.45 12.1575 10.3275 12.0725 10.22 11.965C9.97 11.7175 9.84 11.3725 9.8625 11.0175C9.8825 10.66 10.0525 10.34 10.3375 10.1175C10.77 9.78 11.3975 9.775 11.8325 10.105C12 10.235 12.13 10.395 12.2175 10.585C12.355 10.8875 12.63 11.1025 12.955 11.1625C13.2725 11.22 13.5975 11.1175 13.825 10.89L15.495 9.22C15.82 8.895 16 8.4625 16 8.0025C16 7.5425 15.82 7.1075 15.495 6.78V6.78ZM14.4475 8.1725L13.2175 9.4025C13.075 9.2275 12.9125 9.0675 12.7275 8.9275C12.2675 8.5775 11.6875 8.385 11.095 8.385C10.5025 8.385 9.8925 8.585 9.425 8.95C8.81 9.4325 8.43 10.1525 8.3825 10.9275C8.3375 11.705 8.625 12.465 9.1725 13.0125C9.245 13.085 9.3225 13.155 9.4025 13.2175L8.1725 14.4475C8.125 14.495 8.065 14.52 8 14.52C7.935 14.52 7.8725 14.495 7.8275 14.4475L5.6375 12.26C5.475 12.0975 5.2575 12.0075 5.025 12.0075C4.915 12.0075 4.8075 12.0275 4.705 12.0675C4.385 12.195 4.17 12.5025 4.16 12.8475C4.1525 13.1725 3.9875 13.4675 3.7075 13.6525C3.5525 13.755 3.37 13.81 3.1775 13.81C2.985 13.81 2.8 13.755 2.6425 13.65C2.385 13.4775 2.2275 13.2175 2.1975 12.9175C2.17 12.625 2.2725 12.335 2.4825 12.1275C2.66 11.9475 2.8975 11.845 3.1525 11.8375C3.4975 11.8275 3.805 11.615 3.9325 11.2925C4.06 10.9725 3.985 10.605 3.74 10.3625L1.55 8.1725C1.455 8.0775 1.455 7.9225 1.55 7.8275L2.7825 6.5975C2.9225 6.775 3.0875 6.935 3.27 7.075C3.73 7.425 4.31 7.6175 4.905 7.6175C5.5 7.6175 6.105 7.415 6.5725 7.05C7.1875 6.5675 7.5675 5.8475 7.615 5.0725C7.6625 4.2975 7.375 3.5375 6.825 2.9875C6.7525 2.915 6.675 2.845 6.595 2.7825L7.8275 1.5525C7.8725 1.505 7.9325 1.48 8 1.48C8.0675 1.48 8.125 1.505 8.1725 1.5525L10.36 3.74C10.5225 3.905 10.74 3.995 10.9725 3.995C11.0825 3.995 11.1925 3.9725 11.295 3.9325C11.615 3.8025 11.83 3.495 11.8375 3.15C11.8425 2.9 11.945 2.6625 12.1225 2.485C12.3075 2.3 12.555 2.1975 12.815 2.1975C12.8475 2.1975 12.88 2.2 12.915 2.2025C13.2125 2.23 13.4725 2.3875 13.645 2.645C13.86 2.9625 13.86 3.39 13.65 3.71C13.4625 3.99 13.1725 4.155 12.85 4.1625C12.505 4.17 12.1975 4.3825 12.0675 4.705C11.9375 5.0275 12.0125 5.395 12.26 5.64L14.4475 7.8275C14.4925 7.8725 14.5175 7.935 14.5175 8C14.5175 8.065 14.4925 8.1275 14.4475 8.1725V8.1725Z" fill="#F96163"/>
</g>
<defs>
<clipPath id="clip0_516_10370">
<rect width="16" height="16" fill="white"/>
</clipPath>
</defs>
</svg>
