<svg width="221" height="213" viewBox="0 0 221 213" fill="none" xmlns="http://www.w3.org/2000/svg">
<g clip-path="url(#clip0_727_15799)">
<g clip-path="url(#clip1_727_15799)">
<path d="M189.368 154.439C187.625 160.556 181.233 164.121 175.107 162.375C168.981 160.629 165.426 154.24 167.172 148.114C168.917 141.988 175.306 138.433 181.432 140.179C187.559 141.924 191.114 148.313 189.368 154.439ZM172.471 149.624C171.558 152.827 173.422 156.176 176.624 157.088C179.827 158.001 183.176 156.137 184.088 152.935C185.001 149.732 183.137 146.383 179.935 145.471C176.732 144.558 173.383 146.422 172.471 149.624Z" fill="#F96163"/>
<path d="M190.935 176.233C190.121 176.064 189.501 175.793 189.043 175.029C187.068 171.45 191.841 166.925 194.367 165.066C194.712 164.697 201.028 161.797 201.626 161.489C201.778 165.223 202.705 171.238 201.808 174.861C201.582 176.273 199.982 180.538 199.548 181.953C196.423 180.657 192.756 179.258 190.935 176.233V176.233ZM191.16 175.736C193.27 175.921 195.334 176.125 197.373 176.373L196.819 176.86C196.766 174.235 196.723 171.613 196.724 168.982L197.48 169.468C196.163 170.112 194.179 171.345 192.864 172.093C191.579 172.809 189.999 174.23 191.135 175.677L191.182 175.732C191.196 175.757 191.234 175.768 191.163 175.726L191.16 175.736Z" fill="#F96163"/>
<path d="M224.817 154.725C223.133 151.074 221.946 147.065 220.248 143.722C219.82 142.997 219.33 142.015 218.823 141.933C218.844 142.116 219.05 142.195 219.194 142.309C219.409 142.433 219.612 142.449 219.829 142.49C219.917 142.474 219.896 142.509 219.891 142.529C219.741 142.652 219.497 142.78 219.202 142.977C214.262 146.446 207.393 147.889 201.935 144.638C197.314 141.991 195.056 136.231 196.709 131.451L197.257 131.389C197.537 133.361 198.21 135.269 199.317 136.894C202.736 142.34 209.848 142.412 214.879 139.208C217.919 137.225 221.026 135.698 223.333 139.61C225.675 144.27 225.548 149.714 225.369 154.758L224.817 154.725V154.725Z" fill="#F96163"/>
<path d="M144.273 123.6C152.841 124.222 158.686 133.593 158.03 141.808C157.583 148.522 154.622 155.882 148.838 159.797C147.841 160.376 145.778 161.119 145.098 159.677L145.496 159.302C146.828 159.88 147.958 157.228 148.482 156.264C150.527 151.607 152.062 146.439 152.607 141.427C153.312 134.609 149.878 127.651 144.022 124.08L144.276 123.591L144.273 123.6Z" fill="#F96163"/>
<path d="M192.637 189.893C194.331 187.963 196.923 187.33 199.433 187.826C205.401 189.07 209.099 195.832 206.952 201.542C206.563 202.689 205.055 205.535 203.549 204.544L203.652 204.002C203.744 204.007 203.915 203.661 203.892 203.27C203.572 200.413 202.371 197.44 201.03 194.957C199.336 192.072 196.063 190.276 192.721 190.437L192.637 189.893V189.893Z" fill="#F96163"/>
<path d="M158.092 180.049C159.786 178.119 162.379 177.485 164.889 177.982C170.856 179.225 174.555 185.988 172.408 191.698C172.018 192.845 170.511 195.691 169.005 194.7L169.107 194.158C169.199 194.163 169.371 193.817 169.347 193.425C169.028 190.568 167.827 187.595 166.486 185.113C164.791 182.228 161.518 180.432 158.176 180.593L158.092 180.049V180.049Z" fill="#F96163"/>
</g>
<g clip-path="url(#clip2_727_15799)">
<path d="M176.558 59.0014C172.971 64.2531 165.78 65.6144 160.52 62.0215C155.26 58.4285 153.907 51.2433 157.5 45.9833C161.093 40.7233 168.278 39.3703 173.538 42.9632C178.798 46.5562 180.151 53.7414 176.558 59.0014ZM162.05 49.0912C160.172 51.8409 160.881 55.6073 163.631 57.4855C166.381 59.3638 170.147 58.6545 172.025 55.9048C173.903 53.155 173.194 49.3887 170.444 47.5105C167.695 45.6322 163.928 46.3414 162.05 49.0912Z" fill="#F96163"/>
<path d="M171.155 80.1729C170.436 79.7543 169.934 79.3021 169.741 78.4317C168.999 74.4126 174.957 71.6284 177.942 70.6635C178.385 70.4217 185.295 69.6674 185.959 69.564C184.923 73.1553 183.901 79.1543 181.904 82.3077C181.244 83.5762 178.377 87.1164 177.518 88.3215C174.963 86.1043 171.926 83.6182 171.155 80.1729V80.1729ZM171.526 79.7721C173.469 80.615 175.362 81.4601 177.219 82.3409L176.539 82.6272C177.319 80.1203 178.107 77.619 178.94 75.1238L179.503 75.8235C178.05 76.018 175.778 76.561 174.294 76.8549C172.848 77.1271 170.9 77.976 171.521 79.7083L171.548 79.7751C171.553 79.8029 171.586 79.8255 171.532 79.7639L171.526 79.7721Z" fill="#F96163"/>
<path d="M210.099 70.4796C209.656 66.4833 209.797 62.3049 209.243 58.5958C209.066 57.7728 208.912 56.6866 208.457 56.4485C208.419 56.6283 208.589 56.7689 208.69 56.9226C208.854 57.1075 209.042 57.1873 209.235 57.2949C209.324 57.307 209.293 57.3344 209.282 57.3509C209.101 57.421 208.828 57.465 208.486 57.5583C202.703 59.2877 195.73 58.4852 191.58 53.676C188.033 49.703 187.711 43.5251 190.791 39.513L191.33 39.6273C190.973 41.587 191.008 43.6094 191.544 45.5016C193.066 51.7484 199.791 54.0653 205.577 52.6161C209.087 51.6959 212.518 51.2298 213.469 55.6701C214.218 60.832 212.377 65.9564 210.612 70.6851L210.099 70.4796V70.4796Z" fill="#F96163"/>
<path d="M143.526 15.4873C151.458 18.7858 154.041 29.5241 150.822 37.1099C148.274 43.3386 143.139 49.3856 136.414 51.2708C135.285 51.5049 133.093 51.5579 132.903 49.9748L133.399 49.7446C134.481 50.7137 136.392 48.5551 137.193 47.8069C140.606 44.0344 143.695 39.6174 145.797 35.034C148.621 28.789 147.563 21.1023 143.137 15.8629L143.532 15.479L143.526 15.4873Z" fill="#F96163"/>
<path d="M168.452 93.6697C170.669 92.3745 173.329 92.593 175.553 93.8579C180.822 96.924 182.192 104.509 178.35 109.247C177.618 110.213 175.288 112.436 174.172 111.02L174.441 110.537C174.527 110.572 174.799 110.297 174.9 109.918C175.501 107.107 175.301 103.907 174.814 101.128C174.118 97.8553 171.581 95.1168 168.36 94.2123L168.452 93.6697V93.6697Z" fill="#F96163"/>
<path d="M138.791 73.4092C141.008 72.114 143.668 72.3325 145.892 73.5974C151.161 76.6635 152.531 84.2483 148.689 88.9868C147.957 89.9521 145.627 92.1753 144.512 90.7593L144.78 90.2769C144.866 90.3112 145.138 90.0368 145.24 89.658C145.84 86.8467 145.64 83.6464 145.153 80.8672C144.457 77.5948 141.92 74.8563 138.699 73.9518L138.791 73.4092V73.4092Z" fill="#F96163"/>
</g>
<g clip-path="url(#clip3_727_15799)">
<path d="M89.0212 124.126C93.4929 119.603 100.811 119.555 105.341 124.034C109.871 128.513 109.912 135.824 105.433 140.354C100.954 144.883 93.6429 144.924 89.1133 140.446C84.5837 135.967 84.5424 128.656 89.0212 124.126ZM101.515 136.48C103.856 134.112 103.835 130.279 101.467 127.938C99.0988 125.596 95.2664 125.618 92.925 127.986C90.5837 130.354 90.6053 134.186 92.9732 136.528C95.3411 138.869 99.1736 138.847 101.515 136.48Z" fill="#F96163"/>
<path d="M98.1369 104.268C98.7693 104.809 99.1825 105.344 99.2158 106.235C99.2247 110.322 92.863 111.991 89.754 112.405C89.274 112.563 82.3415 112.065 81.6696 112.047C83.3337 108.7 85.4157 102.982 87.9458 100.238C88.8234 99.1092 92.2785 96.141 93.3405 95.1097C95.4555 97.7495 97.9968 100.74 98.1369 104.268V104.268ZM97.7003 104.596C95.94 103.418 94.2293 102.247 92.5608 101.047L93.2812 100.887C92.0639 103.213 90.8395 105.533 89.5726 107.838L89.1439 107.048C90.608 107.118 92.9408 106.992 94.4539 106.969C95.9247 106.961 97.9938 106.475 97.6936 104.66L97.6791 104.589C97.6789 104.561 97.6505 104.533 97.6933 104.603L97.7003 104.596Z" fill="#F96163"/>
<path d="M58.0857 106.813C57.8043 110.824 56.9151 114.909 56.7949 118.658C56.8208 119.499 56.7775 120.595 57.1824 120.911C57.2521 120.741 57.1097 120.572 57.0381 120.403C56.9096 120.192 56.7393 120.079 56.5688 119.939C56.4837 119.911 56.519 119.89 56.533 119.876C56.7238 119.839 56.9996 119.845 57.3529 119.814C63.3526 119.151 70.0676 121.192 73.2876 126.668C76.064 131.214 75.2712 137.349 71.5215 140.743L71.0112 140.534C71.7148 138.67 72.043 136.674 71.8552 134.716C71.4795 128.298 65.2796 124.811 59.3279 125.198C55.709 125.473 52.2503 125.316 52.1116 120.777C52.3014 115.565 55.0325 110.854 57.6174 106.519L58.0857 106.813V106.813Z" fill="#F96163"/>
<path d="M113.706 172.863C106.495 168.194 105.881 157.166 110.41 150.282C114.034 144.611 120.172 139.584 127.126 138.937C128.279 138.909 130.444 139.251 130.347 140.842L129.818 140.98C128.927 139.832 126.66 141.613 125.737 142.205C121.703 145.304 117.871 149.094 114.981 153.226C111.081 158.862 110.743 166.614 114.156 172.563L113.699 172.87L113.706 172.863Z" fill="#F96163"/>
<path d="M103.22 91.476C100.806 92.3523 98.2283 91.6597 96.2674 90.0161C91.6346 86.0541 91.6477 78.3464 96.2781 74.3746C97.1716 73.5564 99.8628 71.7875 100.706 73.3809L100.355 73.8071C100.277 73.758 99.96 73.979 99.7923 74.3335C98.6971 76.9914 98.3191 80.1756 98.2997 82.9971C98.3963 86.3412 100.401 89.4907 103.408 90.9587L103.22 91.476V91.476Z" fill="#F96163"/>
<path d="M128.762 116.732C126.348 117.608 123.77 116.915 121.809 115.272C117.177 111.31 117.19 103.602 121.82 99.6302C122.714 98.812 125.405 97.0431 126.248 98.6365L125.897 99.0627C125.819 99.0137 125.502 99.2347 125.334 99.5892C124.239 102.247 123.861 105.431 123.842 108.253C123.938 111.597 125.943 114.746 128.95 116.214L128.762 116.732V116.732Z" fill="#F96163"/>
</g>
<g clip-path="url(#clip4_727_15799)">
<path d="M51.7197 45.4357C58.0632 45.8941 62.8571 51.4239 62.3981 57.7774C61.939 64.1308 56.4098 68.9148 50.0564 68.4557C43.703 67.9966 38.919 62.4675 39.3781 56.1141C39.8371 49.7606 45.3663 44.9767 51.7197 45.4357ZM50.4535 62.96C53.7748 63.2 56.6731 60.6924 56.9131 57.371C57.1531 54.0497 54.6454 51.1514 51.3241 50.9114C48.0027 50.6715 45.1045 53.1791 44.8645 56.5005C44.6245 59.8218 47.1322 62.7201 50.4535 62.96Z" fill="#F96163"/>
<path d="M72.7358 39.4547C72.7358 40.2869 72.5978 40.9487 71.9425 41.553C68.8425 44.2165 63.4387 40.4674 61.1035 38.3736C60.6712 38.1118 56.5435 32.5198 56.12 31.9979C59.7451 31.0868 65.4437 28.9519 69.1734 29.0911C70.602 29.0238 75.1035 29.72 76.5775 29.8566C75.9464 33.1798 75.3255 37.0551 72.7358 39.4547V39.4547ZM72.203 39.336C71.9539 37.2326 71.7319 35.1712 71.559 33.1235L72.1486 33.5671C69.5896 34.1542 67.0314 34.7313 64.4561 35.2671L64.7774 34.4281C65.6763 35.5859 67.2886 37.2765 68.2894 38.4116C69.2518 39.5238 70.9657 40.7806 72.1502 39.3723L72.1944 39.3154C72.2158 39.2968 72.2187 39.2569 72.193 39.3353L72.203 39.336Z" fill="#F96163"/>
<path d="M44.7672 10.6742C41.5363 13.0676 37.8541 15.0473 34.9274 17.3925C34.305 17.9591 33.4438 18.6388 33.4669 19.1518C33.6415 19.0943 33.6773 18.8763 33.7593 18.7118C33.8365 18.4767 33.811 18.2744 33.8069 18.0535C33.7728 17.9708 33.8119 17.9837 33.8319 17.9851C33.9835 18.1064 34.1586 18.3195 34.4114 18.5684C38.8153 22.6965 41.6293 29.126 39.561 35.1326C37.9118 40.1969 32.7343 43.5826 27.7176 42.9394L27.5449 42.4156C29.4186 41.7388 31.1486 40.6908 32.5141 39.2755C37.1474 34.8178 35.7667 27.8402 31.6037 23.5691C29.0423 20.9978 26.9136 18.2673 30.2725 15.2114C34.3569 11.9673 39.712 10.9807 44.6864 10.1269L44.7672 10.6742V10.6742Z" fill="#F96163"/>
<path d="M30.7304 95.8743C29.591 87.36 37.5719 79.7253 45.7477 78.6918C52.4122 77.7597 60.2218 79.1562 65.2344 84.02C66.0045 84.8778 67.1529 86.7454 65.8804 87.7062L65.4318 87.393C65.7251 85.9705 62.8985 85.4053 61.8485 85.0888C56.8714 84.0374 51.4997 83.5891 46.4814 84.0787C39.6632 84.7792 33.5526 89.5613 31.251 96.0222L30.7204 95.8736L30.7304 95.8743Z" fill="#F96163"/>
<path d="M85.7604 35.0018C83.5257 33.7374 82.3763 31.3283 82.3507 28.7698C82.35 22.6739 88.2156 17.6737 94.2437 18.6105C95.4463 18.7576 98.5398 19.6528 97.8772 21.3294L97.3251 21.3397C97.3116 21.2485 96.9376 21.1513 96.5592 21.2543C93.8276 22.1497 91.1622 23.9323 89.0055 25.7516C86.5271 27.9988 85.4369 31.5695 86.2757 34.8084L85.7604 35.0018V35.0018Z" fill="#F96163"/>
<path d="M83.1715 70.8282C80.9368 69.5639 79.7875 67.1548 79.7618 64.5963C79.7611 58.5004 85.6267 53.5001 91.6549 54.4369C92.8574 54.584 95.9509 55.4792 95.2884 57.1559L94.7362 57.1661C94.7227 57.0749 94.3488 56.9777 93.9703 57.0807C91.2387 57.9761 88.5733 59.7587 86.4166 61.578C83.9382 63.8252 82.848 67.396 83.6868 70.6348L83.1715 70.8282V70.8282Z" fill="#F96163"/>
</g>
</g>
<defs>
<clipPath id="clip0_727_15799">
<rect width="220.212" height="212.027" fill="white" transform="translate(0.527344 0.435059)"/>
</clipPath>
<clipPath id="clip1_727_15799">
<rect width="69.43" height="86.64" fill="white" transform="translate(127.269 182.869) rotate(-74.0941)"/>
</clipPath>
<clipPath id="clip2_727_15799">
<rect width="69.43" height="86.64" fill="white" transform="translate(108.657 66.3408) rotate(-55.6643)"/>
</clipPath>
<clipPath id="clip3_727_15799">
<rect width="69.43" height="86.64" fill="white" transform="translate(157.137 129.094) rotate(134.677)"/>
</clipPath>
<clipPath id="clip4_727_15799">
<rect width="69.43" height="86.64" fill="white" transform="translate(92.2222 100.427) rotate(-175.867)"/>
</clipPath>
</defs>
</svg>
