<svg width="33" height="33" viewBox="0 0 33 33" fill="none" xmlns="http://www.w3.org/2000/svg">
<g clip-path="url(#clip0_266_6402)">
<path d="M25.5088 16.1782C25.5088 16.7929 25.2738 17.3172 24.7856 17.7873L10.6839 31.5816C10.3043 31.9794 9.79805 32.1782 9.21952 32.1782C8.04438 32.1782 7.12235 31.2743 7.12235 30.081C7.12235 29.5025 7.35738 28.9782 7.75512 28.5805L20.4647 16.1782L7.75512 3.77596C7.35738 3.36014 7.12235 2.83585 7.12235 2.25732C7.12235 1.08218 8.04438 0.178223 9.21952 0.178223C9.79805 0.178223 10.3043 0.377093 10.6839 0.774833L24.7856 14.5692C25.2738 15.0392 25.4907 15.5635 25.5088 16.1782Z" fill="white"/>
</g>
<defs>
<clipPath id="clip0_266_6402">
<rect width="32" height="32" fill="white" transform="translate(0.31543 0.178223)"/>
</clipPath>
</defs>
</svg>
