<?xml version="1.0" encoding="UTF-8"?><svg id="Camada_1" xmlns="http://www.w3.org/2000/svg" viewBox="0 0 230 230"><defs><style>.cls-1{fill:#fff;opacity:.05;}.cls-2{fill:#677070;}.cls-3{fill:#f0e0c7;}.cls-4{fill:#e6dfcf;}.cls-5{fill:#692343;}.cls-6{fill:#33322f;}.cls-7{fill:#bccccc;}.cls-8{fill:#a69379;}.cls-9{fill:#dedbcb;}.cls-10{fill:#dbc89e;}.cls-11{fill:#d9543f;}.cls-12{fill:#232626;}.cls-13{fill:#121414;}.cls-14{fill:#1d2121;}.cls-15{fill:#45172c;}.cls-16{fill:#947f59;}.cls-17{fill:#6e7878;}.cls-18{fill:#63625b;}.cls-19{fill:#2f3333;}.cls-20{fill:#3a4040;}.cls-21{fill:#78284e;}.cls-22{fill:#778282;}.cls-23{fill:#d9a198;opacity:.3;}</style></defs><g><polygon class="cls-12" points="207.55 115.76 137.89 200.5 20.87 149.63 104.5 78.09 207.55 115.76"/><path class="cls-2" d="M224.45,135.8l-73.3,89.67c-3.51,4.32-9.49,5.74-14.57,3.44L6.82,171.25c-4.14-1.84-6.82-5.95-6.82-10.49v-8.95c33.11,12.08,139.01,66.41,139.01,66.41l90.99-104.66-.5,9.18c-.26,4.78-2.03,9.35-5.05,13.07Z"/><path class="cls-7" d="M228.05,120.52l-76.52,93.07c-3.75,4.57-10.08,6.09-15.5,3.73L4.79,160.27c-5.39-2.34-6.47-9.52-2-13.34L100.42,63.41c.85-.73,2.02-.94,3.07-.55l120.88,44.18c5.54,2.03,7.42,8.92,3.67,13.48Z"/><polygon class="cls-22" points="207.55 115.76 137.89 200.5 20.87 149.63 104.5 78.09 207.55 115.76"/><polygon class="cls-17" points="207.56 115.76 137.89 200.5 136.73 199.99 203.19 119.15 102.72 82.44 23.05 150.57 20.87 149.63 104.5 78.1 207.56 115.76"/><path class="cls-14" d="M188.65,119.5c-.08,1.02-.46,2-1.09,2.81l-41.6,52.99c-5.49,6.84-14.92,9.09-22.91,5.49l-74.32-33.5c-1.95-.88-3.21-2.81-3.23-4.95l-.03-3.03,65.09-50.18,78.54,24.43-.45,5.95Z"/><path class="cls-19" d="M188.7,115.27l-44.52,54.15c-4.9,5.97-13.17,7.96-20.25,4.88l-77.73-33.79c-.77-.34-.92-1.36-.29-1.91l63.91-54.67,78.12,28.55c1.14,.42,1.53,1.84,.76,2.78Z"/><path class="cls-23" d="M180.89,121.29l-38.6,40.31c-4.25,4.44-11.42,5.92-17.56,3.63l-67.4-25.15c-.67-.25-.8-1.01-.25-1.42l55.42-40.69,67.74,21.26c.99,.31,1.33,1.37,.66,2.07Z"/><path class="cls-11" d="M180.88,119.61l-39.64,38.01c-4.37,4.19-11.73,5.58-18.03,3.42l-69.21-23.72c-.69-.24-.82-.96-.25-1.34l56.91-38.37,69.56,20.04c1.02,.29,1.36,1.29,.68,1.95Z"/><polygon class="cls-14" points="124.21 174.33 126.34 154.41 133.52 153.41 143.44 170.07 135.26 179.2 124.21 174.33"/><polygon class="cls-13" points="134.33 178.79 122.91 174.33 125.04 154.42 132.23 153.41 132.32 153.58 126.34 154.42 124.21 174.33 134.33 178.79"/><polygon class="cls-20" points="143.45 170.07 134.33 178.79 142.14 170.07 132.32 153.58 133.52 153.41 143.45 170.07"/></g><g><path class="cls-8" d="M203.82,91.51c9.31,21.13-25.02,70.09-84.83,68.09-91.76-3.06-104.59-26.21-108.67-60.59-3.24-27.32,43.08-50.17,96.72-50.6,53.64-.43,85.7,17.92,96.79,43.1Z"/><ellipse class="cls-16" cx="106.56" cy="99.22" rx="96.21" ry="45.93" transform="translate(-.8 .87) rotate(-.46)"/><ellipse class="cls-3" cx="106.7" cy="92.29" rx="97.12" ry="49.82" transform="translate(-.74 .87) rotate(-.46)"/><ellipse class="cls-10" cx="105.25" cy="93.93" rx="93.74" ry="44.82" transform="translate(-.76 .85) rotate(-.46)"/><ellipse class="cls-4" cx="105.3" cy="99.62" rx="88.57" ry="39.14" transform="translate(-.8 .85) rotate(-.46)"/><polygon class="cls-18" points="247.44 143.66 185.06 127.7 199.65 113.35 244.73 121.88 247.44 143.66"/><polygon class="cls-6" points="247.01 140.23 186.91 126.39 198.76 114.66 244.9 123.22 247.01 140.23"/><polygon class="cls-9" points="247.66 145.43 183.79 128.56 185.06 127.7 247.44 143.66 247.66 145.43"/><g><path class="cls-5" d="M183.78,97.98c.15,19.15-17.39,40.32-78.2,40.32S26.97,118.4,26.81,99.25s34.86-29.96,78.2-30.31,78.61,9.89,78.77,29.04Z"/><ellipse class="cls-21" cx="105.3" cy="98.62" rx="78.49" ry="34.68" transform="translate(-.79 .85) rotate(-.46)"/><ellipse class="cls-5" cx="106.16" cy="98.61" rx="71.92" ry="31.46"/><path class="cls-1" d="M174.17,95.92c0,11.68-31.74-32.08-121.62-11.98-11.4,2.55,33.28-14.94,59.97-14.94s61.65,15.25,61.65,26.93Z"/><g><ellipse class="cls-15" cx="95.36" cy="104.93" rx="1.64" ry="1.08" transform="translate(-44.26 129.63) rotate(-57.76)"/><ellipse class="cls-15" cx="129.53" cy="104.03" rx="1.64" ry="1.08" transform="translate(-27.56 158.1) rotate(-57.76)"/><ellipse class="cls-15" cx="139.28" cy="89.12" rx="1.64" ry="1.08" transform="translate(-10.39 159.4) rotate(-57.76)"/><ellipse class="cls-15" cx="76.93" cy="91.77" rx="1.64" ry="1.08" transform="translate(-41.73 107.89) rotate(-57.76)"/><ellipse class="cls-15" cx="114.95" cy="82.43" rx="1.64" ry="1.08" transform="translate(-16.09 135.69) rotate(-57.76)"/><ellipse class="cls-15" cx="65.35" cy="115" rx="1.64" ry="1.08" transform="translate(-66.78 108.93) rotate(-57.76)"/><ellipse class="cls-15" cx="62.77" cy="81.25" rx="1.64" ry="1.08" transform="translate(-39.44 91.01) rotate(-57.76)"/><ellipse class="cls-15" cx="123.68" cy="124.1" rx="1.64" ry="1.08" transform="translate(-47.27 162.52) rotate(-57.76)"/><ellipse class="cls-15" cx="97.73" cy="121.39" rx="1.64" ry="1.08" transform="translate(-57.08 139.31) rotate(-57.76)"/><ellipse class="cls-15" cx="155.64" cy="106.43" rx="1.64" ry="1.08" transform="translate(-17.4 181.31) rotate(-57.76)"/></g></g></g></svg>