<?xml version="1.0" encoding="UTF-8"?><svg id="Camada_1" xmlns="http://www.w3.org/2000/svg" viewBox="0 0 230 230"><defs><style>.cls-1,.cls-2{opacity:.1;}.cls-1,.cls-3{fill:#dedede;}.cls-2,.cls-4,.cls-5,.cls-6{fill:#fff;}.cls-7{opacity:.05;}.cls-8{fill:#f1c68e;}.cls-9{fill:#f0ddbd;}.cls-10{fill:#f2bd6d;}.cls-11{fill:#f1dec6;}.cls-12{fill:#e6cacc;}.cls-13{fill:#fdda96;}.cls-14{fill:#99a6a6;}.cls-15{fill:#666e6e;}.cls-16{fill:#bccccc;}.cls-17{fill:#cfe0e0;}.cls-18{fill:#d4955f;}.cls-19{fill:#d6a9ac;}.cls-20{fill:#171a1a;}.cls-21{fill:#232626;}.cls-22{fill:#1d2121;}.cls-23{fill:#95c7de;}.cls-24{fill:#2f3333;}.cls-25{fill:#3a4040;}.cls-26{fill:#788585;}.cls-27{fill:#505757;}.cls-28{fill:#cee8e8;}.cls-28,.cls-29,.cls-4{opacity:.2;}.cls-29{fill:#7f8f8f;}.cls-30{opacity:.15;}.cls-31{fill:#abc1cc;opacity:.6;}.cls-5{opacity:.5;}.cls-6{opacity:.3;}.cls-3{opacity:.4;}</style></defs><g><polygon class="cls-12" points="0 140.35 230 42.88 230 230 0 230 0 140.35"/><polygon class="cls-19" points="0 148.82 230 51.42 230 230 0 230 0 148.82"/><polygon class="cls-12" points="0 157.57 230 60.7 230 230 0 230 0 157.57"/><polygon class="cls-19" points="0 207.6 230 110.73 230 230 0 230 0 207.6"/><polygon class="cls-12" points="0 217.6 230 120.74 230 230 0 230 0 217.6"/><polygon class="cls-19" points="230 167.95 230 230 91.66 230 230 167.95"/><polygon class="cls-12" points="230 179.05 230 230 114.78 230 230 179.05"/></g><g><g class="cls-30"><path class="cls-22" d="M60.92,170.12s-11.1,9.4-12.42,30.21l82.07,31.67,.88-39.4-70.53-22.49Z"/><path class="cls-22" d="M176.92,152.16s8.1,8.11,12.18,22.74c0,0-28.57,34.35-58.53,57.1l.88-39.35,45.48-40.49Z"/></g><g><path class="cls-16" d="M59.92,168.12s-11.1,9.4-12.42,30.21l82.07,31.67,.88-39.4-70.53-22.49Z"/><path class="cls-17" d="M175.93,150.16s8.1,8.11,12.18,22.74c0,0-28.57,34.35-58.53,57.1l.88-39.35,45.48-40.49Z"/></g><g><path class="cls-22" d="M175.93,150.16c-.06,.68-.38,1.33-.9,1.87l-34.18,35.28c-4.51,4.55-12.25,6.05-18.82,3.65l-61.06-22.3c-1.6-.59-2.64-1.87-2.66-3.3l-.02-2.02,53.48-33.41,64.53,16.27-.37,3.96Z"/><path class="cls-24" d="M175.96,147.34l-36.58,36.05c-4.03,3.97-10.82,5.3-16.64,3.25l-63.86-22.5c-.63-.22-.76-.91-.23-1.27l52.51-36.4,64.18,19.01c.94,.28,1.26,1.23,.62,1.85Z"/></g><ellipse class="cls-25" cx="91.38" cy="196.78" rx="13.35" ry="14.65" transform="translate(-125.35 206.8) rotate(-67.74)"/><ellipse class="cls-15" cx="88.97" cy="196.78" rx="13.35" ry="14.65" transform="translate(-126.85 204.57) rotate(-67.74)"/><path class="cls-26" d="M90.98,210.29c-2.31,.16-4.72-.2-7.06-1.16-7.49-3.07-11.3-11.09-8.5-17.91,2.17-5.31,7.7-8.33,13.58-7.96-5.08,.36-9.63,3.27-11.56,7.96-2.79,6.82,1.02,14.84,8.51,17.91,1.66,.68,3.36,1.06,5.02,1.16Z"/><g><path class="cls-20" d="M94.36,194.37l-9.22,14.12c-.18-.07-.35-.14-.52-.22-.59-.25-1.16-.55-1.7-.88l-.92-.59s-.07-.06-.11-.08c-.08-.06-.17-.13-.26-.19l9.38-14.35c.54-.83,1.61-1.08,2.46-.6,.04,.01,.08,.03,.11,.06l.25,.16c.85,.56,1.09,1.71,.54,2.56Z"/><path class="cls-24" d="M93.9,194.07l-9.28,14.2c-.59-.25-1.16-.55-1.7-.88l-.92-.59s-.07-.06-.11-.08c-.08-.06-.17-.13-.26-.19-.15-.11-.29-.22-.43-.35l9.35-14.3c.56-.86,1.71-1.1,2.57-.54l.25,.16s.07,.05,.1,.08c.77,.57,.97,1.66,.44,2.48Z"/><path class="cls-27" d="M93.84,191.98l-.25-.16c-.86-.56-2.01-.32-2.57,.54l-9.31,14.24s-.05-.04-.08-.06c-.15-.11-.29-.22-.43-.35l9.35-14.3c.56-.86,1.71-1.1,2.57-.54l.25,.16s.07,.05,.1,.08c.16,.11,.29,.25,.38,.39Z"/><path class="cls-14" d="M93.81,188.24l2.47,1.61c.19,.13,.45-.01,.45-.24l.03-2.74c0-.21-.22-.35-.41-.27l-2.49,1.12c-.21,.09-.23,.38-.04,.51Z"/><path class="cls-16" d="M93.66,188.07l2.47,1.61c.19,.13,.45-.01,.45-.24l.03-2.74c0-.21-.22-.35-.41-.27l-2.49,1.12c-.21,.09-.23,.38-.04,.51Z"/></g></g><g><path class="cls-31" d="M57.54,22.09c-.01,1.13,.16,2.24,.56,3.34,0,.01,.01,.04,.01,.06h0c.56,3.5,1.52,9.42,2.68,16.6,0,0-23.15-15.45-17.3-19.35,16.63-11.1,24.84-14.11,25.8-14.43-7.3,3.76-11.66,8.53-11.75,13.78Z"/><path class="cls-31" d="M58.11,25.49c.1,.26,.19,.53,.31,.79-.12-.26-.22-.51-.31-.78h0Z"/><path class="cls-31" d="M158.1,108.76c-7.73,63.66-18.68,62.8-42.06,62.7-27.33-.12-32.8,3.15-44.44-63.97-3.11-17.9-11.32-68.57-13.51-82.06,.76,2.29,2.36,4.48,4.64,6.52,2.87,19.22,9.05,60.25,11.59,74.86,10.88,62.65,15.98,59.59,41.49,59.71,21.83,.09,32.04,.89,39.24-58.51,1.41-11.6,11.73-42.14,11.16-77.07,1.88-2.24,2.9-4.66,2.94-7.19,3.02,41.41-9.42,71.54-11.06,85.02Z"/><path class="cls-11" d="M155.05,108c-7.21,59.4-17.42,58.6-39.24,58.51-25.5-.12-30.6,2.94-41.49-59.71-2.53-14.6-8.72-55.64-11.59-74.86,8.82,7.9,27.98,13.54,50.27,13.87,24.65,.37,45.68-5.89,53.2-14.88,.57,34.92-9.76,65.47-11.16,77.07Z"/><ellipse class="cls-28" cx="113.35" cy="22.91" rx="19.6" ry="47.76" transform="translate(88.77 135.92) rotate(-89.15)"/><path class="cls-31" d="M113.69,.02c-30.82-.47-55.96,9.42-56.15,22.08-.18,12.64,24.65,23.28,55.48,23.73,30.82,.45,55.96-9.43,56.15-22.09C169.34,11.09,144.51,.47,113.69,.02Zm-.63,42.5c-26.37-.4-47.62-9.48-47.46-20.3,.16-10.83,21.67-19.29,48.05-18.9,26.37,.4,47.62,9.48,47.46,20.3s-21.67,19.29-48.05,18.9Z"/><path class="cls-29" d="M161.02,24.68c-1.5,10.32-22.46,18.21-47.96,17.84-22.67-.33-41.56-7.09-46.3-15.87,1.5-10.32,22.46-18.21,47.96-17.84,22.69,.34,41.56,7.09,46.3,15.87Z"/><path class="cls-23" d="M160.92,25.2c-2.11,10.05-22.78,17.68-47.86,17.31-21.04-.31-38.85-6.18-45.08-14.04,2.11-10.05,22.78-17.69,47.86-17.31,21.06,.31,38.87,6.18,45.08,14.04Z"/><path class="cls-23" d="M160.92,25.2c-2.11,10.05-22.78,17.68-47.86,17.31-21.04-.31-38.85-6.18-45.08-14.04,2.11-10.05,22.78-17.69,47.86-17.31,21.06,.31,38.87,6.18,45.08,14.04Z"/><path class="cls-8" d="M160.92,25.2c-1.06,4.99-6.66,9.37-15.09,12.48-8.6,3.18-20.13,5.03-32.77,4.84-12.17-.18-23.27-2.21-31.67-5.44-6.11-2.33-10.79-5.3-13.41-8.6,2.11-10.05,22.78-17.69,47.86-17.31,21.06,.31,38.87,6.18,45.08,14.04Z"/><path class="cls-2" d="M157.89,30.53c-2.64,2.76-6.78,5.2-12.06,7.14-8.6,3.18-20.13,5.03-32.77,4.84-12.17-.18-23.27-2.21-31.67-5.44-4.27-1.63-7.85-3.57-10.5-5.72,6.96-7.27,24.44-12.26,44.83-11.96,18.39,.27,34.29,4.78,42.17,11.14Z"/><path class="cls-2" d="M157.89,30.53c-2.64,2.76-6.78,5.2-12.06,7.14-8.6,3.18-8.22-18.64-50.42-10.41-11.95,2.33-5.63,13.04-14.02,9.81-4.27-1.63-7.85-3.57-10.5-5.72,6.96-7.27,24.44-12.26,44.83-11.96,18.39,.27,34.29,4.78,42.17,11.14Z"/><path class="cls-4" d="M156.6,26.69c-8.25-5.84-23.44-9.92-40.88-10.17-19.22-.29-35.86,4.13-43.54,10.74-4.2-2.84,22.53-15.26,42.91-14.95,18.4,.26,46.03,11.31,41.51,14.38Z"/><path class="cls-4" d="M150.19,31.1c-.02,1.33-2.17,4.31-5.83,2.32-2.81-1.53-5.78-1.16-5.76-2.49,.02-1.33,4.22-3.2,7.42-3.15,3.2,.05,4.18,1.99,4.16,3.32Z"/><path class="cls-4" d="M94.05,32.77c.37-1.27,3.24-3.58,6.23-.69,2.3,2.22,5.26,2.66,4.89,3.93-.37,1.27-4.92,1.96-7.99,1.06-3.07-.9-3.5-3.03-3.13-4.31Z"/><path class="cls-28" d="M155.05,108c-7.21,59.4-17.42,58.6-39.24,58.51-25.5-.12-30.6,2.94-41.49-59.71-2.53-14.6-8.72-55.64-11.59-74.86,8.82,7.9,27.98,13.54,50.27,13.87,24.65,.37,45.68-5.89,53.2-14.88,.57,34.92-9.76,65.47-11.16,77.07Z"/><g><path class="cls-6" d="M104.34,166.83l-3.31-.32-12.64-123.4c1.67,.35,3.37,.69,5.13,.98l10.83,122.74Z"/><path class="cls-6" d="M139.85,43.4l-12.61,123.11-3.3,.32,10.8-122.49c1.76-.28,3.46-.59,5.11-.94Z"/><path class="cls-6" d="M162.06,34.71l-16.76,119.48-3.72,5.1,14.33-121.03c2.31-1.1,4.38-2.29,6.15-3.54Z"/><path class="cls-6" d="M91.29,161.91l-3.81-4.85-16.3-119.67c1.85,.91,3.85,1.74,5.99,2.52l14.12,122Z"/><path class="cls-6" d="M117.86,45.82l-1.2,120.71h-4.35l.25-120.71h.45c1.16,.01,2.3,.01,3.43,0h1.42Z"/></g><g><path class="cls-3" d="M154.26,87.87l17.21,.87,1.45-4.17s-3.94,2.13-5.52,2.02c-6.54-.46-13.15,1.28-13.15,1.28Z"/><path class="cls-21" d="M154.9,44.19l14.73-11.52,14.19,4.2s11.44,59.01-6.28,63.89c-10.13,2.79-23.53,3.29-23.53,3.29l.24-16.17,9.68-4.67,8.98,1.37,.74-35.85-9.12-1.29-9.72,2.08,.08-5.32Z"/><path class="cls-3" d="M183.82,36.86l-5.46,5.22c4.39-4.84-.21-7.72-8.73-9.42l14.19,4.2Z"/><path class="cls-3" d="M185.31,71.2c.39,5.28-1.97,22.45-1.14,20.6,3.27-7.24,1.99-32.27,1.68-33.77-.31-1.5-.71,10.95-.54,13.17Z"/><polygon class="cls-3" points="154.26 87.87 172.86 88.76 172.92 84.57 163.94 83.2 154.26 87.87"/><path class="cls-1" d="M172.86,88.76c-10.38,1.35-16.02,7.03-18.84,15.28l.24-16.17,18.6,.89Z"/></g><path class="cls-6" d="M44.88,24.42l12.31,.78,2.52,14.44s-13.92-8.87-14.84-15.22Z"/><path class="cls-5" d="M46.78,25.45l9.66,.61,1.98,11.33s-10.92-6.96-11.64-11.94Z"/><path class="cls-7" d="M44.88,24.42l20.72-13.27,3.69,3.65c-4.14,4.67-5.14,9.24-1.31,13.67l-10.79-3.28-12.31-.78Z"/><path class="cls-7" d="M65.86,24.71l-1.63-.62-12.23-1.63,16.13-8.83,1.16,1.16c-2.99,3.37-4.34,6.68-3.43,9.92Z"/><path class="cls-7" d="M68.15,16.17c-1.6,2.12-2.49,4.22-2.56,6.28l-7.16-.95,9.73-5.33Z"/><g><path class="cls-9" d="M75.57,21.82c6.24-5.01,22.96-17.15,29.4-10.55,5.8,5.94,12.91,1.7,39.49,15.1,2.89,1.46,1.62,8.02-9.91,8.7-20.45,1.2-24.57,2.62-34.63,2.68-17.5,.11-38.52-4.58-24.36-15.93Z"/><path class="cls-2" d="M84.97,19.13c-1.45-2.01,3.81-4.94,7.72-6.23,10.69-3.51,12.62-.8,8.32,0-6.75,1.25-.45,12.87-7.14,12.15s-7.34-3.75-8.9-5.92Z"/><path class="cls-2" d="M76.81,25.43c.67-1.19,3.36,.76,4.91,2.42,4.24,4.54,3.33,6.14,1.93,4.17-2.2-3.09-6.55,2.76-7.74-.76-1.19-3.52,.18-4.55,.9-5.83Z"/></g><g><ellipse class="cls-10" cx="135.91" cy="26.94" rx="10.49" ry="6.82"/><path class="cls-18" d="M146.41,26.94c0,3.77-4.7,6.82-10.5,6.82-1.48,0-2.89-.2-4.16-.56,5.74-.04,10.37-3.08,10.37-6.82,0-2.81-2.6-5.22-6.33-6.26h.12c5.8,0,10.5,3.05,10.5,6.82Z"/><path class="cls-13" d="M132.52,27.32s.37-2.85,1.55-3.16-1.74-2.78-3.29-1.48-3.29,5.02-1.86,5.58c1.43,.56,3.6-.93,3.6-.93Z"/><path class="cls-4" d="M137.36,16.64s9.01-4.11,14.37,1.64c5.36,5.75,9.81,4.2,5.49,7.05-4.33,2.85-4.17,10.34-11.75,10.34s-22.86,7.96-25.38,.31-.03-16.03,3.09-16.13c3.12-.1,14.17-3.22,14.17-3.22Z"/></g><g><ellipse class="cls-10" cx="112.03" cy="27.25" rx="10.49" ry="6.82"/><path class="cls-18" d="M122.52,27.25c0,3.77-4.7,6.82-10.5,6.82-1.48,0-2.89-.2-4.16-.56,5.74-.04,10.37-3.08,10.37-6.82,0-2.81-2.6-5.22-6.33-6.26h.12c5.8,0,10.5,3.05,10.5,6.82Z"/><path class="cls-13" d="M108.63,27.63s.37-2.85,1.55-3.16c1.18-.31-1.74-2.78-3.29-1.48-1.55,1.3-3.29,5.02-1.86,5.58,1.43,.56,3.6-.93,3.6-.93Z"/><path class="cls-4" d="M106.43,19.43s-9.91-.08-12.46,7.36c-2.55,7.44-7.25,7.84-2.14,8.68,5.11,.84,8.03,7.75,14.94,4.66,6.92-3.09,24.12-2.04,23.3-10.06-.81-8.01-6.5-14.66-9.39-13.47s-14.26,2.84-14.26,2.84Z"/></g></g></svg>