<svg width="16" height="16" viewBox="0 0 16 16" fill="none" xmlns="http://www.w3.org/2000/svg">
<g clip-path="url(#clip0_516_10361)">
<path d="M15.7394 6.0095C14.8537 2.50475 11.7203 0.0285713 8.12036 0C7.72036 0 7.40607 0.104761 7.18703 0.333332C6.95846 0.552379 6.8537 0.866663 6.8537 1.26666V4.20951C6.8537 4.29522 6.8537 4.39046 6.86322 4.47617C6.90132 4.79046 7.08227 5.07617 7.34893 5.25712C7.6156 5.43807 7.94893 5.50474 8.25369 5.42855C8.79655 5.29522 9.1394 4.83808 9.1394 4.2476C9.1394 3.73332 9.1394 3.21903 9.1394 2.70475V2.42856C12.1299 3.02856 14.1299 5.96188 13.6156 8.98092C13.3489 10.5428 12.4727 11.8952 11.1489 12.7714C9.83464 13.6476 8.25369 13.9333 6.71084 13.5809C4.8537 13.1523 3.38704 11.8857 2.68228 10.1047C1.98705 8.32377 2.19657 6.39997 3.27276 4.81903C3.76799 4.0857 4.40609 3.49522 5.22513 3.02856C5.50132 2.86665 5.6918 2.62856 5.76799 2.33332C5.84418 2.03809 5.80608 1.73333 5.64418 1.45714C5.32037 0.914282 4.63466 0.73333 4.07276 1.04761C3.8918 1.15238 3.70133 1.26666 3.5299 1.38095C1.67277 2.64761 0.520389 4.41903 0.120391 6.63807C0.082296 6.83807 0.0632484 7.03807 0.0346771 7.23807L-0.00341797 7.55235V8.4952L0.0346771 8.77139C0.0632484 8.98092 0.082296 9.18091 0.120391 9.39044C0.634675 12.038 2.11086 13.9904 4.51085 15.1999C5.38704 15.638 6.35846 15.9047 7.42512 15.9809L7.54893 15.9999H8.49178L8.78702 15.9618C9.00607 15.9333 9.23464 15.9047 9.45369 15.8666C11.6537 15.4571 13.5299 14.1904 14.7394 12.3142C15.9489 10.4285 16.3013 8.19044 15.7489 6.01902L15.7394 6.0095Z" fill="#F96163"/>
<path d="M4.9108 5.59984C4.79652 5.71412 4.63461 5.95222 4.81557 6.38079C5.20604 7.30459 5.67271 8.18078 6.20604 8.99983C6.48223 9.41887 6.75842 9.78077 7.04413 10.0951C7.34889 10.4284 7.78698 10.6093 8.2346 10.6093C8.46317 10.6093 8.70126 10.5617 8.92984 10.4665C9.53936 10.2093 9.92031 9.59982 9.92031 8.87602C9.91078 8.40935 9.71078 7.99031 9.36793 7.71412C8.86317 7.30459 8.4346 6.99031 8.01555 6.72364C7.29175 6.25698 6.49175 5.84746 5.63461 5.48555C5.24414 5.32365 5.00604 5.48555 4.90128 5.59984H4.9108Z" fill="#F96163"/>
</g>
<defs>
<clipPath id="clip0_516_10361">
<rect width="16" height="16" fill="white"/>
</clipPath>
</defs>
</svg>
