<?xml version="1.0" encoding="UTF-8"?><svg id="Camada_1" xmlns="http://www.w3.org/2000/svg" viewBox="0 0 230 230"><defs><style>.cls-1{opacity:.05;}.cls-2{fill:#fff;}.cls-3{fill:#f2af44;}.cls-4{fill:#ffc770;}.cls-5,.cls-6{fill:#9cb8b8;}.cls-7{fill:#cee9f2;}.cls-8{fill:#85d1f2;}.cls-9,.cls-10{opacity:.4;}.cls-11{opacity:.8;}.cls-12{opacity:.7;}.cls-6{opacity:.5;}.cls-10{fill:#a6c4c4;}</style></defs><g><g class="cls-11"><path class="cls-7" d="M132.59,100.69h-38.55c-3.94,0-7.36-2.72-8.26-6.56-6.4-27.32-9.38-54.59-8.21-81.84,.29-6.89,6.03-12.29,12.92-12.29h45.64c6.89,0,12.62,5.4,12.92,12.29,1.17,27.25-1.81,54.52-8.2,81.84-.9,3.84-4.32,6.56-8.26,6.56Z"/></g><g class="cls-9"><g class="cls-11"><path class="cls-2" d="M97.15,100.69h-3.1c-3.94,0-7.36-2.72-8.26-6.56-6.4-27.31-9.38-54.59-8.21-81.84C77.87,5.41,83.6,0,90.5,0h3.09c-6.89,0-12.62,5.41-12.91,12.29-1.17,27.25,1.81,54.53,8.21,81.84,.9,3.84,4.31,6.56,8.26,6.56Z"/></g></g><g class="cls-1"><g class="cls-11"><path d="M140.85,94.14c-.9,3.84-4.32,6.56-8.26,6.56h-3.66c3.94,0,7.36-2.72,8.26-6.56,6.4-27.33,9.37-54.6,8.2-81.85-.29-6.88-6.02-12.29-12.92-12.29h3.66c6.89,0,12.62,5.41,12.92,12.29,1.17,27.25-1.81,54.52-8.2,81.85Z"/></g></g><g class="cls-11"><path class="cls-8" d="M137.71,80.74c-.66,3.16-1.38,6.32-2.14,9.48-.83,3.44-3.9,5.86-7.44,5.86h-29.59c-3.53,0-6.61-2.42-7.44-5.86-.54-2.26-1.07-4.52-1.56-6.78-.6-2.76,2-5.17,4.7-4.34,20.22,6.21,30.65-2.33,39.62-2.8,2.42-.13,4.33,2.07,3.84,4.44Z"/></g></g><g><g><g><g><g><circle class="cls-4" cx="79.68" cy="205.45" r="1.38"/><path class="cls-3" d="M80.48,206.56c-.24,.29-.65,.45-1.05,.42-.86-.05-1.5-.94-1.29-1.78,.09-.4,.37-.73,.72-.87-.24,.29-.36,.61-.38,.92-.06,1.06,1.03,1.71,1.99,1.3h0Z"/></g><g><circle class="cls-4" cx="85.05" cy="205.81" r="1.38"/><path class="cls-3" d="M84.17,206.87c-.34-.16-.6-.52-.66-.92-.16-.84,.54-1.69,1.4-1.68,.41,0,.8,.18,1.02,.49-.34-.16-.68-.2-.99-.14-1.04,.21-1.41,1.42-.77,2.25h0Z"/></g><g><circle class="cls-4" cx="82.43" cy="204.15" r="1.38"/><path class="cls-3" d="M81.06,204.32c-.14-.35-.08-.78,.14-1.12,.46-.73,1.55-.87,2.18-.28,.3,.27,.47,.68,.42,1.05-.14-.35-.36-.61-.63-.78-.91-.56-1.99,.08-2.1,1.12h0Z"/></g><g><circle class="cls-4" cx="82.16" cy="207.12" r="1.38"/><path class="cls-3" d="M80.8,207.29c-.14-.35-.08-.78,.14-1.12,.46-.73,1.55-.87,2.18-.28,.3,.27,.47,.68,.42,1.05-.14-.35-.36-.61-.63-.78-.91-.56-1.99,.08-2.1,1.12h0Z"/></g></g><g><g><circle class="cls-4" cx="85.38" cy="208.7" r="1.38"/><path class="cls-3" d="M86.19,209.82c-.24,.29-.65,.45-1.05,.42-.86-.05-1.5-.94-1.29-1.78,.09-.4,.37-.73,.72-.87-.24,.29-.36,.61-.38,.92-.06,1.06,1.03,1.71,1.99,1.3h0Z"/></g><g><circle class="cls-4" cx="90.75" cy="209.07" r="1.38"/><path class="cls-3" d="M89.87,210.13c-.34-.16-.6-.52-.66-.92-.16-.84,.54-1.69,1.4-1.68,.41,0,.8,.18,1.02,.49-.34-.16-.68-.2-.99-.14-1.04,.21-1.41,1.42-.77,2.25h0Z"/></g><g><circle class="cls-4" cx="88.13" cy="207.41" r="1.38"/><path class="cls-3" d="M86.77,207.58c-.14-.35-.08-.78,.14-1.12,.46-.73,1.55-.87,2.18-.28,.3,.27,.47,.68,.42,1.05-.14-.35-.36-.61-.63-.78-.91-.56-1.99,.08-2.1,1.12h0Z"/></g><g><circle class="cls-4" cx="87.87" cy="210.38" r="1.38"/><path class="cls-3" d="M86.5,210.55c-.14-.35-.08-.78,.14-1.12,.46-.73,1.55-.87,2.18-.28,.3,.27,.47,.68,.42,1.05-.14-.35-.36-.61-.63-.78-.91-.56-1.99,.08-2.1,1.12h0Z"/></g></g><g><g><circle class="cls-4" cx="76.45" cy="210" r="1.38"/><path class="cls-3" d="M77.26,211.12c-.24,.29-.65,.45-1.05,.42-.86-.05-1.5-.94-1.29-1.78,.09-.4,.37-.73,.72-.87-.24,.29-.36,.61-.38,.92-.06,1.06,1.03,1.71,1.99,1.3h0Z"/></g><g><circle class="cls-4" cx="81.83" cy="210.37" r="1.38"/><path class="cls-3" d="M80.94,211.43c-.34-.16-.6-.52-.66-.92-.16-.84,.54-1.69,1.4-1.68,.41,0,.8,.18,1.02,.49-.34-.16-.68-.2-.99-.14-1.04,.21-1.41,1.42-.77,2.25h0Z"/></g><g><circle class="cls-4" cx="79.2" cy="208.7" r="1.38"/><path class="cls-3" d="M77.84,208.88c-.14-.35-.08-.78,.14-1.12,.46-.73,1.55-.87,2.18-.28,.3,.27,.47,.68,.42,1.05-.14-.35-.36-.61-.63-.78-.91-.56-1.99,.08-2.1,1.12h0Z"/></g><g><circle class="cls-4" cx="78.94" cy="211.67" r="1.38"/><path class="cls-3" d="M77.57,211.85c-.14-.35-.08-.78,.14-1.12,.46-.73,1.55-.87,2.18-.28,.3,.27,.47,.68,.42,1.05-.14-.35-.36-.61-.63-.78-.91-.56-1.99,.08-2.1,1.12h0Z"/></g></g><g><g><circle class="cls-4" cx="82.12" cy="213.61" r="1.38"/><path class="cls-3" d="M82.93,214.72c-.24,.29-.65,.45-1.05,.42-.86-.05-1.5-.94-1.29-1.78,.09-.4,.37-.73,.72-.87-.24,.29-.36,.61-.38,.92-.06,1.06,1.03,1.71,1.99,1.3h0Z"/></g><g><circle class="cls-4" cx="87.49" cy="213.97" r="1.38"/><path class="cls-3" d="M86.61,215.03c-.34-.16-.6-.52-.66-.92-.16-.84,.54-1.69,1.4-1.68,.41,0,.8,.18,1.02,.49-.34-.16-.68-.2-.99-.14-1.04,.21-1.41,1.42-.77,2.25h0Z"/></g><g><circle class="cls-4" cx="84.87" cy="212.31" r="1.38"/><path class="cls-3" d="M83.51,212.48c-.14-.35-.08-.78,.14-1.12,.46-.73,1.55-.87,2.18-.28,.3,.27,.47,.68,.42,1.05-.14-.35-.36-.61-.63-.78-.91-.56-1.99,.08-2.1,1.12h0Z"/></g><g><circle class="cls-4" cx="84.61" cy="215.28" r="1.38"/><path class="cls-3" d="M83.24,215.45c-.14-.35-.08-.78,.14-1.12,.46-.73,1.55-.87,2.18-.28,.3,.27,.47,.68,.42,1.05-.14-.35-.36-.61-.63-.78-.91-.56-1.99,.08-2.1,1.12h0Z"/></g></g><g><g><circle class="cls-4" cx="90.76" cy="212.35" r="1.38"/><path class="cls-3" d="M91.57,213.46c-.24,.29-.65,.45-1.05,.42-.86-.05-1.5-.94-1.29-1.78,.09-.4,.37-.73,.72-.87-.24,.29-.36,.61-.38,.92-.06,1.06,1.03,1.71,1.99,1.3h0Z"/></g><g><circle class="cls-4" cx="96.14" cy="212.72" r="1.38"/><path class="cls-3" d="M95.25,213.78c-.34-.16-.6-.52-.66-.92-.16-.84,.54-1.69,1.4-1.68,.41,0,.8,.18,1.02,.49-.34-.16-.68-.2-.99-.14-1.04,.21-1.41,1.42-.77,2.25h0Z"/></g><g><circle class="cls-4" cx="93.51" cy="211.05" r="1.38"/><path class="cls-3" d="M92.15,211.23c-.14-.35-.08-.78,.14-1.12,.46-.73,1.55-.87,2.18-.28,.3,.27,.47,.68,.42,1.05-.14-.35-.36-.61-.63-.78-.91-.56-1.99,.08-2.1,1.12h0Z"/></g><g><circle class="cls-4" cx="93.25" cy="214.02" r="1.38"/><path class="cls-3" d="M91.88,214.2c-.14-.35-.08-.78,.14-1.12,.46-.73,1.55-.87,2.18-.28,.3,.27,.47,.68,.42,1.05-.14-.35-.36-.61-.63-.78-.91-.56-1.99,.08-2.1,1.12h0Z"/></g></g><g><circle class="cls-4" cx="90.25" cy="216.16" r="1.38"/><path class="cls-3" d="M88.89,216.34c-.14-.35-.08-.78,.14-1.12,.46-.73,1.55-.87,2.18-.28,.3,.27,.47,.68,.42,1.05-.14-.35-.36-.61-.63-.78-.91-.56-1.99,.08-2.1,1.12h0Z"/></g><g><circle class="cls-4" cx="95.57" cy="216.37" r="1.38"/><g><circle class="cls-4" cx="98.32" cy="215.08" r="1.38"/><path class="cls-3" d="M96.96,215.25c-.14-.35-.08-.78,.14-1.12,.46-.73,1.55-.87,2.18-.28,.3,.27,.47,.68,.42,1.05-.14-.35-.36-.61-.63-.78-.91-.56-1.99,.08-2.1,1.12h0Z"/></g></g><g><circle class="cls-4" cx="105.15" cy="218.4" r="1.38"/><path class="cls-3" d="M103.78,218.57c-.14-.35-.08-.78,.14-1.12,.46-.73,1.55-.87,2.18-.28,.3,.27,.47,.68,.42,1.05-.14-.35-.36-.61-.63-.78-.91-.56-1.99,.08-2.1,1.12h0Z"/></g><g><circle class="cls-4" cx="78.93" cy="215.28" r="1.38"/><path class="cls-3" d="M77.56,215.45c-.14-.35-.08-.78,.14-1.12,.46-.73,1.55-.87,2.18-.28,.3,.27,.47,.68,.42,1.05-.14-.35-.36-.61-.63-.78-.91-.56-1.99,.08-2.1,1.12h0Z"/></g><g><g><circle class="cls-4" cx="70.74" cy="212.97" r="1.38"/><path class="cls-3" d="M71.54,214.09c-.24,.29-.65,.45-1.05,.42-.86-.05-1.5-.94-1.29-1.78,.09-.4,.37-.73,.72-.87-.24,.29-.36,.61-.38,.92-.06,1.06,1.03,1.71,1.99,1.3h0Z"/></g><g><circle class="cls-4" cx="76.11" cy="213.34" r="1.38"/><path class="cls-3" d="M75.23,214.4c-.34-.16-.6-.52-.66-.92-.16-.84,.54-1.69,1.4-1.68,.41,0,.8,.18,1.02,.49-.34-.16-.68-.2-.99-.14-1.04,.21-1.41,1.42-.77,2.25h0Z"/></g><g><circle class="cls-4" cx="73.49" cy="211.67" r="1.38"/><path class="cls-3" d="M72.12,211.85c-.14-.35-.08-.78,.14-1.12,.46-.73,1.55-.87,2.18-.28,.3,.27,.47,.68,.42,1.05-.14-.35-.36-.61-.63-.78-.91-.56-1.99,.08-2.1,1.12h0Z"/></g><g><circle class="cls-4" cx="73.22" cy="214.65" r="1.38"/><path class="cls-3" d="M71.86,214.82c-.14-.35-.08-.78,.14-1.12,.46-.73,1.55-.87,2.18-.28,.3,.27,.47,.68,.42,1.05-.14-.35-.36-.61-.63-.78-.91-.56-1.99,.08-2.1,1.12h0Z"/></g></g><g><circle class="cls-4" cx="73.32" cy="208.27" r="1.38"/><path class="cls-3" d="M74.13,209.38c-.24,.29-.65,.45-1.05,.42-.86-.05-1.5-.94-1.29-1.78,.09-.4,.37-.73,.72-.87-.24,.29-.36,.61-.38,.92-.06,1.06,1.03,1.71,1.99,1.3h0Z"/></g><g><circle class="cls-4" cx="76.07" cy="206.97" r="1.38"/><path class="cls-3" d="M74.71,207.14c-.14-.35-.08-.78,.14-1.12,.46-.73,1.55-.87,2.18-.28,.3,.27,.47,.68,.42,1.05-.14-.35-.36-.61-.63-.78-.91-.56-1.99,.08-2.1,1.12h0Z"/></g><g><circle class="cls-4" cx="67.62" cy="211.23" r="1.38"/><path class="cls-3" d="M68.42,212.34c-.24,.29-.65,.45-1.05,.42-.86-.05-1.5-.94-1.29-1.78,.09-.4,.37-.73,.72-.87-.24,.29-.36,.61-.38,.92-.06,1.06,1.03,1.71,1.99,1.3h0Z"/></g><g><circle class="cls-4" cx="70.37" cy="209.93" r="1.38"/><path class="cls-3" d="M69,210.11c-.14-.35-.08-.78,.14-1.12,.46-.73,1.55-.87,2.18-.28,.3,.27,.47,.68,.42,1.05-.14-.35-.36-.61-.63-.78-.91-.56-1.99,.08-2.1,1.12h0Z"/></g><g><circle class="cls-4" cx="58.39" cy="215.8" r="1.38"/><path class="cls-3" d="M57.37,216.72c-.31-.21-.52-.6-.52-1-.04-.86,.78-1.6,1.63-1.47,.4,.05,.77,.3,.94,.63-.31-.21-.64-.3-.96-.28-1.06,.06-1.6,1.2-1.09,2.12h0Z"/></g><g><circle class="cls-4" cx="101.99" cy="215.99" r="1.38"/><path class="cls-3" d="M100.97,216.91c-.31-.21-.52-.6-.52-1-.04-.86,.78-1.6,1.63-1.47,.4,.05,.77,.3,.94,.63-.31-.21-.64-.3-.96-.28-1.06,.06-1.6,1.2-1.09,2.12h0Z"/></g><g><circle class="cls-4" cx="101.82" cy="219.76" r="1.38"/><path class="cls-3" d="M100.79,220.68c-.31-.21-.52-.6-.52-1-.04-.86,.78-1.6,1.63-1.47,.4,.05,.77,.3,.94,.63-.31-.21-.64-.3-.96-.28-1.06,.06-1.6,1.2-1.09,2.12h0Z"/></g><g><circle class="cls-4" cx="98.68" cy="218.16" r="1.38"/><path class="cls-3" d="M97.66,219.08c-.31-.21-.52-.6-.52-1-.04-.86,.78-1.6,1.63-1.47,.4,.05,.77,.3,.94,.63-.31-.21-.64-.3-.96-.28-1.06,.06-1.6,1.2-1.09,2.12h0Z"/></g><g><g><circle class="cls-4" cx="61.73" cy="214.27" r="1.28"/><path class="cls-3" d="M62.56,215.24c-.2,.29-.56,.47-.94,.47-.8,.02-1.47-.76-1.33-1.54,.06-.37,.29-.71,.6-.86-.2,.28-.29,.59-.28,.89,.03,.99,1.08,1.51,1.95,1.05h0Z"/></g><g><circle class="cls-4" cx="66.73" cy="214.19" r="1.28"/><path class="cls-3" d="M66,215.24c-.33-.12-.59-.43-.69-.8-.21-.77,.37-1.61,1.17-1.67,.38-.04,.76,.11,.98,.37-.32-.12-.64-.13-.93-.05-.95,.27-1.19,1.42-.54,2.15h0Z"/></g><g><circle class="cls-4" cx="64.17" cy="212.85" r="1.28"/><path class="cls-3" d="M62.92,213.12c-.16-.31-.14-.72,.04-1.05,.37-.71,1.37-.92,1.99-.43,.3,.23,.48,.59,.47,.94-.16-.31-.38-.54-.64-.67-.88-.45-1.84,.23-1.86,1.21h0Z"/></g><g><circle class="cls-4" cx="64.16" cy="215.62" r="1.28"/><path class="cls-3" d="M62.91,215.89c-.16-.31-.14-.72,.04-1.05,.37-.71,1.37-.92,1.99-.43,.3,.23,.48,.59,.47,.94-.16-.31-.38-.54-.64-.67-.88-.45-1.84,.23-1.86,1.21h0Z"/></g></g><circle class="cls-4" cx="70.48" cy="216.36" r="1.38"/></g><g><circle class="cls-4" cx="147.96" cy="216.35" r="1.38"/><path class="cls-3" d="M146.66,215.89c.03-.37,.28-.74,.63-.94,.74-.45,1.77-.08,2.07,.73,.15,.38,.11,.82-.1,1.13,.03-.37-.05-.71-.21-.98-.56-.9-1.82-.82-2.38,.06h0Z"/></g><g><circle class="cls-4" cx="92.94" cy="218.07" r="1.38"/><path class="cls-3" d="M93.97,217.15c.31,.21,.52,.6,.52,1,.04,.86-.78,1.6-1.63,1.47-.4-.05-.77-.3-.94-.63,.31,.21,.64,.3,.96,.28,1.06-.06,1.6-1.2,1.09-2.12h0Z"/></g><g><circle class="cls-4" cx="81.65" cy="216.56" r="1.38"/><path class="cls-3" d="M82.67,215.64c.31,.21,.52,.6,.52,1,.04,.86-.78,1.6-1.63,1.47-.4-.05-.77-.3-.94-.63,.31,.21,.64,.3,.96,.28,1.06-.06,1.6-1.2,1.09-2.12h0Z"/></g><g><circle class="cls-4" cx="75.95" cy="216.56" r="1.38"/><path class="cls-3" d="M76.97,215.64c.31,.21,.52,.6,.52,1,.04,.86-.78,1.6-1.63,1.47-.4-.05-.77-.3-.94-.63,.31,.21,.64,.3,.96,.28,1.06-.06,1.6-1.2,1.09-2.12h0Z"/></g><g><circle class="cls-4" cx="67.16" cy="216.81" r="1.03"/><path class="cls-3" d="M67.93,216.12c.23,.15,.38,.44,.39,.75,.03,.64-.58,1.19-1.22,1.09-.3-.04-.58-.22-.7-.47,.23,.15,.48,.22,.72,.21,.79-.04,1.19-.9,.81-1.58h0Z"/></g><g><circle class="cls-4" cx="61.1" cy="216.81" r="1.03"/><path class="cls-3" d="M61.86,216.13c.23,.15,.38,.44,.39,.75,.03,.64-.58,1.19-1.22,1.09-.3-.04-.58-.22-.7-.47,.23,.15,.48,.22,.72,.21,.79-.04,1.19-.9,.81-1.58h0Z"/></g><g><circle class="cls-4" cx="86.4" cy="218.29" r="1.38"/><path class="cls-3" d="M87.43,217.37c.31,.21,.52,.6,.52,1,.04,.86-.78,1.6-1.63,1.47-.4-.05-.77-.3-.94-.63,.31,.21,.64,.3,.96,.28,1.06-.06,1.6-1.2,1.09-2.12h0Z"/></g><g><circle class="cls-4" cx="108.24" cy="216.28" r="1.38"/><path class="cls-3" d="M109.27,215.36c.31,.21,.52,.6,.52,1,.04,.86-.78,1.6-1.63,1.47-.4-.05-.77-.3-.94-.63,.31,.21,.64,.3,.96,.28,1.06-.06,1.6-1.2,1.09-2.12h0Z"/></g><g><circle class="cls-4" cx="111.76" cy="216.24" r="1.38"/><path class="cls-3" d="M112.79,215.32c.31,.21,.52,.6,.52,1,.04,.86-.78,1.6-1.63,1.47-.4-.05-.77-.3-.94-.63,.31,.21,.64,.3,.96,.28,1.06-.06,1.6-1.2,1.09-2.12h0Z"/></g><g><circle class="cls-4" cx="115.35" cy="217.41" r="1.38"/><path class="cls-3" d="M116.37,216.49c.31,.21,.52,.6,.52,1,.04,.86-.78,1.6-1.63,1.47-.4-.05-.77-.3-.94-.63,.31,.21,.64,.3,.96,.28,1.06-.06,1.6-1.2,1.09-2.12h0Z"/></g><g><circle class="cls-4" cx="151.51" cy="218.18" r="1.38"/><path class="cls-3" d="M150.21,217.72c.03-.37,.28-.74,.63-.94,.74-.45,1.77-.08,2.07,.73,.15,.38,.11,.82-.1,1.13,.03-.37-.05-.71-.21-.98-.56-.9-1.82-.82-2.38,.06h0Z"/></g><g><circle class="cls-4" cx="156.33" cy="217.35" r="1.38"/><path class="cls-3" d="M155.04,216.89c.03-.37,.28-.74,.63-.94,.74-.45,1.77-.08,2.07,.73,.15,.38,.11,.82-.1,1.13,.03-.37-.05-.71-.21-.98-.56-.9-1.82-.82-2.38,.06h0Z"/></g><g><circle class="cls-4" cx="159.85" cy="215.57" r="1.38"/><path class="cls-3" d="M158.55,215.11c.03-.37,.28-.74,.63-.94,.74-.45,1.77-.08,2.07,.73,.15,.38,.11,.82-.1,1.13,.03-.37-.05-.71-.21-.98-.56-.9-1.82-.82-2.38,.06h0Z"/></g><g><circle class="cls-4" cx="162.77" cy="216.69" r="1.38"/><path class="cls-3" d="M161.47,216.24c.03-.37,.28-.74,.63-.94,.74-.45,1.77-.08,2.07,.73,.15,.38,.11,.82-.1,1.13,.03-.37-.05-.71-.21-.98-.56-.9-1.82-.82-2.38,.06h0Z"/></g><g><circle class="cls-4" cx="169.12" cy="216.92" r="1.38"/><path class="cls-3" d="M167.83,216.46c.03-.37,.28-.74,.63-.94,.74-.45,1.77-.08,2.07,.73,.15,.38,.11,.82-.1,1.13,.03-.37-.05-.71-.21-.98-.56-.9-1.82-.82-2.38,.06h0Z"/></g><g><circle class="cls-4" cx="172.31" cy="215.76" r="1.38"/><path class="cls-3" d="M171.02,215.3c.03-.37,.28-.74,.63-.94,.74-.45,1.77-.08,2.07,.73,.15,.38,.11,.82-.1,1.13,.03-.37-.05-.71-.21-.98-.56-.9-1.82-.82-2.38,.06h0Z"/></g><g><circle class="cls-4" cx="188.08" cy="221.93" r="1.38"/><path class="cls-3" d="M186.78,221.48c.03-.37,.28-.74,.63-.94,.74-.45,1.77-.08,2.07,.73,.15,.38,.11,.82-.1,1.13,.03-.37-.05-.71-.21-.98-.56-.9-1.82-.82-2.38,.06h0Z"/></g><g><circle class="cls-4" cx="163.12" cy="214.02" r="1.38"/><path class="cls-3" d="M161.83,213.56c.03-.37,.28-.74,.63-.94,.74-.45,1.77-.08,2.07,.73,.15,.38,.11,.82-.1,1.13,.03-.37-.05-.71-.21-.98-.56-.9-1.82-.82-2.38,.06h0Z"/></g><g><circle class="cls-4" cx="114.46" cy="222.52" r="1.38"/><path class="cls-3" d="M113.16,222.06c.03-.37,.28-.74,.63-.94,.74-.45,1.77-.08,2.07,.73,.15,.38,.11,.82-.1,1.13,.03-.37-.05-.71-.21-.98-.56-.9-1.82-.82-2.38,.06h0Z"/></g><g><circle class="cls-4" cx="118.73" cy="223.29" r="1.38"/><path class="cls-3" d="M117.43,222.84c.03-.37,.28-.74,.63-.94,.74-.45,1.77-.08,2.07,.73,.15,.38,.11,.82-.1,1.13,.03-.37-.05-.71-.21-.98-.56-.9-1.82-.82-2.38,.06h0Z"/></g><g><circle class="cls-4" cx="125.2" cy="225.63" r="1.38"/><path class="cls-3" d="M123.91,225.18c.03-.37,.28-.74,.63-.94,.74-.45,1.77-.08,2.07,.73,.15,.38,.11,.82-.1,1.13,.03-.37-.05-.71-.21-.98-.56-.9-1.82-.82-2.38,.06h0Z"/></g><g><circle class="cls-4" cx="129.13" cy="225.38" r="1.38"/><path class="cls-3" d="M127.83,224.92c.03-.37,.28-.74,.63-.94,.74-.45,1.77-.08,2.07,.73,.15,.38,.11,.82-.1,1.13,.03-.37-.05-.71-.21-.98-.56-.9-1.82-.82-2.38,.06h0Z"/></g><g><circle class="cls-4" cx="134.13" cy="223.21" r="1.38"/><path class="cls-3" d="M132.83,222.75c.03-.37,.28-.74,.63-.94,.74-.45,1.77-.08,2.07,.73,.15,.38,.11,.82-.1,1.13,.03-.37-.05-.71-.21-.98-.56-.9-1.82-.82-2.38,.06h0Z"/></g><g><circle class="cls-4" cx="135.41" cy="227.15" r="1.38"/><path class="cls-3" d="M134.11,226.69c.03-.37,.28-.74,.63-.94,.74-.45,1.77-.08,2.07,.73,.15,.38,.11,.82-.1,1.13,.03-.37-.05-.71-.21-.98-.56-.9-1.82-.82-2.38,.06h0Z"/></g><g><circle class="cls-4" cx="139.86" cy="227.2" r="1.38"/><path class="cls-3" d="M138.56,226.74c.03-.37,.28-.74,.63-.94,.74-.45,1.77-.08,2.07,.73,.15,.38,.11,.82-.1,1.13,.03-.37-.05-.71-.21-.98-.56-.9-1.82-.82-2.38,.06h0Z"/></g><g><circle class="cls-4" cx="154.29" cy="227.62" r="1.38"/><path class="cls-3" d="M152.99,227.17c.03-.37,.28-.74,.63-.94,.74-.45,1.77-.08,2.07,.73,.15,.38,.11,.82-.1,1.13,.03-.37-.05-.71-.21-.98-.56-.9-1.82-.82-2.38,.06h0Z"/></g><g><circle class="cls-4" cx="165.99" cy="217.24" r="1.38"/><path class="cls-3" d="M164.69,216.78c.03-.37,.28-.74,.63-.94,.74-.45,1.77-.08,2.07,.73,.15,.38,.11,.82-.1,1.13,.03-.37-.05-.71-.21-.98-.56-.9-1.82-.82-2.38,.06h0Z"/></g><g><circle class="cls-4" cx="105.42" cy="214.51" r="1.38"/><path class="cls-3" d="M106.78,214.33c.14,.35,.08,.78-.14,1.12-.46,.73-1.55,.87-2.18,.28-.3-.27-.47-.68-.42-1.05,.14,.35,.36,.61,.63,.78,.91,.56,1.99-.08,2.1-1.12h0Z"/></g><g><circle class="cls-4" cx="138.53" cy="213.61" r="1.38"/><path class="cls-3" d="M139.9,213.43c.14,.35,.08,.78-.14,1.12-.46,.73-1.55,.87-2.18,.28-.3-.27-.47-.68-.42-1.05,.14,.35,.36,.61,.63,.78,.91,.56,1.99-.08,2.1-1.12h0Z"/></g><g><g><circle class="cls-4" cx="119.18" cy="216.42" r="1.38"/><path class="cls-3" d="M120.55,216.25c.14,.35,.08,.78-.14,1.12-.46,.73-1.55,.87-2.18,.28-.3-.27-.47-.68-.42-1.05,.14,.35,.36,.61,.63,.78,.91,.56,1.99-.08,2.1-1.12h0Z"/></g><g><circle class="cls-4" cx="122.77" cy="216.42" r="1.38"/><path class="cls-3" d="M124.13,216.25c.14,.35,.08,.78-.14,1.12-.46,.73-1.55,.87-2.18,.28-.3-.27-.47-.68-.42-1.05,.14,.35,.36,.61,.63,.78,.91,.56,1.99-.08,2.1-1.12h0Z"/></g><g><circle class="cls-4" cx="126.36" cy="216.42" r="1.38"/><path class="cls-3" d="M127.72,216.25c.14,.35,.08,.78-.14,1.12-.46,.73-1.55,.87-2.18,.28-.3-.27-.47-.68-.42-1.05,.14,.35,.36,.61,.63,.78,.91,.56,1.99-.08,2.1-1.12h0Z"/></g><g><circle class="cls-4" cx="129.94" cy="216.42" r="1.38"/><path class="cls-3" d="M131.31,216.25c.14,.35,.08,.78-.14,1.12-.46,.73-1.55,.87-2.18,.28-.3-.27-.47-.68-.42-1.05,.14,.35,.36,.61,.63,.78,.91,.56,1.99-.08,2.1-1.12h0Z"/></g><g><circle class="cls-4" cx="133.53" cy="216.42" r="1.38"/><path class="cls-3" d="M134.9,216.25c.14,.35,.08,.78-.14,1.12-.46,.73-1.55,.87-2.18,.28-.3-.27-.47-.68-.42-1.05,.14,.35,.36,.61,.63,.78,.91,.56,1.99-.08,2.1-1.12h0Z"/></g><g><circle class="cls-4" cx="137.12" cy="216.42" r="1.38"/><path class="cls-3" d="M138.49,216.25c.14,.35,.08,.78-.14,1.12-.46,.73-1.55,.87-2.18,.28-.3-.27-.47-.68-.42-1.05,.14,.35,.36,.61,.63,.78,.91,.56,1.99-.08,2.1-1.12h0Z"/></g><g><circle class="cls-4" cx="140.71" cy="216.42" r="1.38"/><path class="cls-3" d="M142.07,216.25c.14,.35,.08,.78-.14,1.12-.46,.73-1.55,.87-2.18,.28-.3-.27-.47-.68-.42-1.05,.14,.35,.36,.61,.63,.78,.91,.56,1.99-.08,2.1-1.12h0Z"/></g><g><circle class="cls-4" cx="144.3" cy="216.42" r="1.38"/><path class="cls-3" d="M145.66,216.25c.14,.35,.08,.78-.14,1.12-.46,.73-1.55,.87-2.18,.28-.3-.27-.47-.68-.42-1.05,.14,.35,.36,.61,.63,.78,.91,.56,1.99-.08,2.1-1.12h0Z"/></g></g><g><g><circle class="cls-4" cx="118.59" cy="219.81" r="1.38"/><path class="cls-3" d="M119.95,219.64c.14,.35,.08,.78-.14,1.12-.46,.73-1.55,.87-2.18,.28-.3-.27-.47-.68-.42-1.05,.14,.35,.36,.61,.63,.78,.91,.56,1.99-.08,2.1-1.12h0Z"/></g><g><circle class="cls-4" cx="124.93" cy="219.8" r="1.38"/><path class="cls-3" d="M124.12,218.68c.24-.29,.65-.45,1.05-.42,.86,.05,1.5,.94,1.29,1.78-.09,.4-.37,.73-.72,.87,.24-.29,.36-.61,.38-.92,.06-1.06-1.03-1.71-1.99-1.3h0Z"/></g><g><circle class="cls-4" cx="89.67" cy="219.57" r="1.38"/><path class="cls-3" d="M90.7,218.65c.31,.21,.52,.6,.52,1,.04,.86-.78,1.6-1.63,1.47-.4-.05-.77-.3-.94-.63,.31,.21,.64,.3,.96,.28,1.06-.06,1.6-1.2,1.09-2.12h0Z"/></g><g><circle class="cls-4" cx="95.71" cy="219.76" r="1.38"/><path class="cls-3" d="M96.73,218.84c.31,.21,.52,.6,.52,1,.04,.86-.78,1.6-1.63,1.47-.4-.05-.77-.3-.94-.63,.31,.21,.64,.3,.96,.28,1.06-.06,1.6-1.2,1.09-2.12h0Z"/></g><g><circle class="cls-4" cx="121.7" cy="219.9" r="1.38"/><path class="cls-3" d="M122.73,218.98c.31,.21,.52,.6,.52,1,.04,.86-.78,1.6-1.63,1.47-.4-.05-.77-.3-.94-.63,.31,.21,.64,.3,.96,.28,1.06-.06,1.6-1.2,1.09-2.12h0Z"/></g><g><circle class="cls-4" cx="148.72" cy="219.55" r="1.38"/><path class="cls-3" d="M147.43,219.1c.03-.37,.28-.74,.63-.94,.74-.45,1.77-.08,2.07,.73,.15,.38,.11,.82-.1,1.13,.03-.37-.05-.71-.21-.98-.56-.9-1.82-.82-2.38,.06h0Z"/></g><g><circle class="cls-4" cx="112.39" cy="219.79" r="1.38"/><path class="cls-3" d="M113.41,218.87c.31,.21,.52,.6,.52,1,.04,.86-.78,1.6-1.63,1.47-.4-.05-.77-.3-.94-.63,.31,.21,.64,.3,.96,.28,1.06-.06,1.6-1.2,1.09-2.12h0Z"/></g><g><circle class="cls-4" cx="128.51" cy="219.7" r="1.38"/><path class="cls-3" d="M127.22,219.24c.03-.37,.28-.74,.63-.94,.74-.45,1.77-.08,2.07,.73,.15,.38,.11,.82-.1,1.13,.03-.37-.05-.71-.21-.98-.56-.9-1.82-.82-2.38,.06h0Z"/></g><g><circle class="cls-4" cx="132.7" cy="219.7" r="1.38"/><path class="cls-3" d="M131.4,219.24c.03-.37,.28-.74,.63-.94,.74-.45,1.77-.08,2.07,.73,.15,.38,.11,.82-.1,1.13,.03-.37-.05-.71-.21-.98-.56-.9-1.82-.82-2.38,.06h0Z"/></g><g><circle class="cls-4" cx="136.88" cy="219.7" r="1.38"/><path class="cls-3" d="M135.58,219.24c.03-.37,.28-.74,.63-.94,.74-.45,1.77-.08,2.07,.73,.15,.38,.11,.82-.1,1.13,.03-.37-.05-.71-.21-.98-.56-.9-1.82-.82-2.38,.06h0Z"/></g><g><circle class="cls-4" cx="141.07" cy="219.7" r="1.38"/><path class="cls-3" d="M139.77,219.24c.03-.37,.28-.74,.63-.94,.74-.45,1.77-.08,2.07,.73,.15,.38,.11,.82-.1,1.13,.03-.37-.05-.71-.21-.98-.56-.9-1.82-.82-2.38,.06h0Z"/></g><g><circle class="cls-4" cx="145.25" cy="219.7" r="1.38"/><path class="cls-3" d="M143.95,219.24c.03-.37,.28-.74,.63-.94,.74-.45,1.77-.08,2.07,.73,.15,.38,.11,.82-.1,1.13,.03-.37-.05-.71-.21-.98-.56-.9-1.82-.82-2.38,.06h0Z"/></g><g><circle class="cls-4" cx="159.46" cy="219.08" r="1.38"/><path class="cls-3" d="M158.17,218.62c.03-.37,.28-.74,.63-.94,.74-.45,1.77-.08,2.07,.73,.15,.38,.11,.82-.1,1.13,.03-.37-.05-.71-.21-.98-.56-.9-1.82-.82-2.38,.06h0Z"/></g><g><circle class="cls-4" cx="154.09" cy="219.91" r="1.38"/><path class="cls-3" d="M152.8,219.45c.03-.37,.28-.74,.63-.94,.74-.45,1.77-.08,2.07,.73,.15,.38,.11,.82-.1,1.13,.03-.37-.05-.71-.21-.98-.56-.9-1.82-.82-2.38,.06h0Z"/></g><g><circle class="cls-4" cx="163.59" cy="219.64" r="1.38"/><path class="cls-3" d="M162.29,219.18c.03-.37,.28-.74,.63-.94,.74-.45,1.77-.08,2.07,.73,.15,.38,.11,.82-.1,1.13,.03-.37-.05-.71-.21-.98-.56-.9-1.82-.82-2.38,.06h0Z"/></g><g><circle class="cls-4" cx="108.68" cy="219.77" r="1.38"/><path class="cls-3" d="M109.56,218.71c.34,.16,.6,.52,.66,.92,.16,.84-.54,1.69-1.4,1.68-.41,0-.8-.18-1.02-.49,.34,.16,.68,.2,.99,.14,1.04-.21,1.41-1.42,.77-2.25h0Z"/></g><g><g><circle class="cls-4" cx="56.77" cy="219.55" r="1.38"/><path class="cls-3" d="M58.13,219.38c.14,.35,.08,.78-.14,1.12-.46,.73-1.55,.87-2.18,.28-.3-.27-.47-.68-.42-1.05,.14,.35,.36,.61,.63,.78,.91,.56,1.99-.08,2.1-1.12h0Z"/></g><g><circle class="cls-4" cx="60.36" cy="219.55" r="1.38"/><path class="cls-3" d="M61.72,219.38c.14,.35,.08,.78-.14,1.12-.46,.73-1.55,.87-2.18,.28-.3-.27-.47-.68-.42-1.05,.14,.35,.36,.61,.63,.78,.91,.56,1.99-.08,2.1-1.12h0Z"/></g><g><circle class="cls-4" cx="63.95" cy="219.55" r="1.38"/><path class="cls-3" d="M65.31,219.38c.14,.35,.08,.78-.14,1.12-.46,.73-1.55,.87-2.18,.28-.3-.27-.47-.68-.42-1.05,.14,.35,.36,.61,.63,.78,.91,.56,1.99-.08,2.1-1.12h0Z"/></g><g><circle class="cls-4" cx="67.53" cy="219.55" r="1.38"/><path class="cls-3" d="M68.9,219.38c.14,.35,.08,.78-.14,1.12-.46,.73-1.55,.87-2.18,.28-.3-.27-.47-.68-.42-1.05,.14,.35,.36,.61,.63,.78,.91,.56,1.99-.08,2.1-1.12h0Z"/></g><g><circle class="cls-4" cx="71.12" cy="219.55" r="1.38"/><path class="cls-3" d="M72.49,219.38c.14,.35,.08,.78-.14,1.12-.46,.73-1.55,.87-2.18,.28-.3-.27-.47-.68-.42-1.05,.14,.35,.36,.61,.63,.78,.91,.56,1.99-.08,2.1-1.12h0Z"/></g><g><circle class="cls-4" cx="74.71" cy="219.55" r="1.38"/><path class="cls-3" d="M76.08,219.38c.14,.35,.08,.78-.14,1.12-.46,.73-1.55,.87-2.18,.28-.3-.27-.47-.68-.42-1.05,.14,.35,.36,.61,.63,.78,.91,.56,1.99-.08,2.1-1.12h0Z"/></g><g><circle class="cls-4" cx="78.3" cy="219.55" r="1.38"/><path class="cls-3" d="M79.66,219.38c.14,.35,.08,.78-.14,1.12-.46,.73-1.55,.87-2.18,.28-.3-.27-.47-.68-.42-1.05,.14,.35,.36,.61,.63,.78,.91,.56,1.99-.08,2.1-1.12h0Z"/></g><g><circle class="cls-4" cx="81.89" cy="219.55" r="1.38"/><path class="cls-3" d="M83.25,219.38c.14,.35,.08,.78-.14,1.12-.46,.73-1.55,.87-2.18,.28-.3-.27-.47-.68-.42-1.05,.14,.35,.36,.61,.63,.78,.91,.56,1.99-.08,2.1-1.12h0Z"/></g></g></g><g><g><circle class="cls-4" cx="101" cy="222.99" r="1.38"/><path class="cls-3" d="M99.64,222.81c-.14,.35-.08,.78,.14,1.12,.46,.73,1.55,.87,2.18,.28,.3-.27,.47-.68,.42-1.05-.14,.35-.36,.61-.63,.78-.91,.56-1.99-.08-2.1-1.12h0Z"/></g><g><circle class="cls-4" cx="94.66" cy="222.98" r="1.38"/><path class="cls-3" d="M95.47,221.86c-.24-.29-.65-.45-1.05-.42-.86,.05-1.5,.94-1.29,1.78,.09,.4,.37,.73,.72,.87-.24-.29-.36-.61-.38-.92-.06-1.06,1.03-1.71,1.99-1.3h0Z"/></g><g><circle class="cls-4" cx="129.91" cy="222.75" r="1.38"/><path class="cls-3" d="M128.89,221.83c-.31,.21-.52,.6-.52,1-.04,.86,.78,1.6,1.63,1.47,.4-.05,.77-.3,.94-.63-.31,.21-.64,.3-.96,.28-1.06-.06-1.6-1.2-1.09-2.12h0Z"/></g><g><circle class="cls-4" cx="123.88" cy="222.93" r="1.38"/><path class="cls-3" d="M122.86,222.01c-.31,.21-.52,.6-.52,1-.04,.86,.78,1.6,1.63,1.47,.4-.05,.77-.3,.94-.63-.31,.21-.64,.3-.96,.28-1.06-.06-1.6-1.2-1.09-2.12h0Z"/></g><g><circle class="cls-4" cx="97.89" cy="223.08" r="1.38"/><path class="cls-3" d="M96.86,222.16c-.31,.21-.52,.6-.52,1-.04,.86,.78,1.6,1.63,1.47,.4-.05,.77-.3,.94-.63-.31,.21-.64,.3-.96,.28-1.06-.06-1.6-1.2-1.09-2.12h0Z"/></g><g><circle class="cls-4" cx="70.86" cy="222.73" r="1.38"/><path class="cls-3" d="M72.16,222.27c-.03-.37-.28-.74-.63-.94-.74-.45-1.77-.08-2.07,.73-.15,.38-.11,.82,.1,1.13-.03-.37,.05-.71,.21-.98,.56-.9,1.82-.82,2.38,.06h0Z"/></g><g><circle class="cls-4" cx="107.2" cy="222.96" r="1.38"/><path class="cls-3" d="M106.18,222.04c-.31,.21-.52,.6-.52,1-.04,.86,.78,1.6,1.63,1.47,.4-.05,.77-.3,.94-.63-.31,.21-.64,.3-.96,.28-1.06-.06-1.6-1.2-1.09-2.12h0Z"/></g><g><circle class="cls-4" cx="91.08" cy="222.87" r="1.38"/><path class="cls-3" d="M92.37,222.41c-.03-.37-.28-.74-.63-.94-.74-.45-1.77-.08-2.07,.73-.15,.38-.11,.82,.1,1.13-.03-.37,.05-.71,.21-.98,.56-.9,1.82-.82,2.38,.06h0Z"/></g><g><circle class="cls-4" cx="86.89" cy="222.87" r="1.38"/><path class="cls-3" d="M88.19,222.41c-.03-.37-.28-.74-.63-.94-.74-.45-1.77-.08-2.07,.73-.15,.38-.11,.82,.1,1.13-.03-.37,.05-.71,.21-.98,.56-.9,1.82-.82,2.38,.06h0Z"/></g><g><circle class="cls-4" cx="82.71" cy="222.87" r="1.38"/><path class="cls-3" d="M84,222.41c-.03-.37-.28-.74-.63-.94-.74-.45-1.77-.08-2.07,.73-.15,.38-.11,.82,.1,1.13-.03-.37,.05-.71,.21-.98,.56-.9,1.82-.82,2.38,.06h0Z"/></g><g><circle class="cls-4" cx="78.52" cy="222.87" r="1.38"/><path class="cls-3" d="M79.82,222.41c-.03-.37-.28-.74-.63-.94-.74-.45-1.77-.08-2.07,.73-.15,.38-.11,.82,.1,1.13-.03-.37,.05-.71,.21-.98,.56-.9,1.82-.82,2.38,.06h0Z"/></g><g><circle class="cls-4" cx="74.34" cy="222.87" r="1.38"/><path class="cls-3" d="M75.63,222.41c-.03-.37-.28-.74-.63-.94-.74-.45-1.77-.08-2.07,.73-.15,.38-.11,.82,.1,1.13-.03-.37,.05-.71,.21-.98,.56-.9,1.82-.82,2.38,.06h0Z"/></g><g><circle class="cls-4" cx="60.12" cy="222.25" r="1.38"/><path class="cls-3" d="M61.42,221.79c-.03-.37-.28-.74-.63-.94-.74-.45-1.77-.08-2.07,.73-.15,.38-.11,.82,.1,1.13-.03-.37,.05-.71,.21-.98,.56-.9,1.82-.82,2.38,.06h0Z"/></g><g><circle class="cls-4" cx="65.49" cy="223.08" r="1.38"/><path class="cls-3" d="M66.79,222.62c-.03-.37-.28-.74-.63-.94-.74-.45-1.77-.08-2.07,.73-.15,.38-.11,.82,.1,1.13-.03-.37,.05-.71,.21-.98,.56-.9,1.82-.82,2.38,.06h0Z"/></g><g><circle class="cls-4" cx="56" cy="222.82" r="1.38"/><path class="cls-3" d="M57.3,222.36c-.03-.37-.28-.74-.63-.94-.74-.45-1.77-.08-2.07,.73-.15,.38-.11,.82,.1,1.13-.03-.37,.05-.71,.21-.98,.56-.9,1.82-.82,2.38,.06h0Z"/></g><g><circle class="cls-4" cx="110.91" cy="222.94" r="1.38"/><path class="cls-3" d="M110.03,221.89c-.34,.16-.6,.52-.66,.92-.16,.84,.54,1.69,1.4,1.68,.41,0,.8-.18,1.02-.49-.34,.16-.68,.2-.99,.14-1.04-.21-1.41-1.42-.77-2.25h0Z"/></g><g><g><circle class="cls-4" cx="162.82" cy="222.73" r="1.38"/><path class="cls-3" d="M161.45,222.56c-.14,.35-.08,.78,.14,1.12,.46,.73,1.55,.87,2.18,.28,.3-.27,.47-.68,.42-1.05-.14,.35-.36,.61-.63,.78-.91,.56-1.99-.08-2.1-1.12h0Z"/></g><g><circle class="cls-4" cx="159.23" cy="222.73" r="1.38"/><path class="cls-3" d="M157.87,222.56c-.14,.35-.08,.78,.14,1.12,.46,.73,1.55,.87,2.18,.28,.3-.27,.47-.68,.42-1.05-.14,.35-.36,.61-.63,.78-.91,.56-1.99-.08-2.1-1.12h0Z"/></g><g><circle class="cls-4" cx="155.64" cy="222.73" r="1.38"/><path class="cls-3" d="M154.28,222.56c-.14,.35-.08,.78,.14,1.12,.46,.73,1.55,.87,2.18,.28,.3-.27,.47-.68,.42-1.05-.14,.35-.36,.61-.63,.78-.91,.56-1.99-.08-2.1-1.12h0Z"/></g><g><circle class="cls-4" cx="152.06" cy="222.73" r="1.38"/><path class="cls-3" d="M150.69,222.56c-.14,.35-.08,.78,.14,1.12,.46,.73,1.55,.87,2.18,.28,.3-.27,.47-.68,.42-1.05-.14,.35-.36,.61-.63,.78-.91,.56-1.99-.08-2.1-1.12h0Z"/></g><g><circle class="cls-4" cx="148.47" cy="222.73" r="1.38"/><path class="cls-3" d="M147.1,222.56c-.14,.35-.08,.78,.14,1.12,.46,.73,1.55,.87,2.18,.28,.3-.27,.47-.68,.42-1.05-.14,.35-.36,.61-.63,.78-.91,.56-1.99-.08-2.1-1.12h0Z"/></g><g><circle class="cls-4" cx="144.88" cy="222.73" r="1.38"/><path class="cls-3" d="M143.51,222.56c-.14,.35-.08,.78,.14,1.12,.46,.73,1.55,.87,2.18,.28,.3-.27,.47-.68,.42-1.05-.14,.35-.36,.61-.63,.78-.91,.56-1.99-.08-2.1-1.12h0Z"/></g><g><circle class="cls-4" cx="141.29" cy="222.73" r="1.38"/><path class="cls-3" d="M139.93,222.56c-.14,.35-.08,.78,.14,1.12,.46,.73,1.55,.87,2.18,.28,.3-.27,.47-.68,.42-1.05-.14,.35-.36,.61-.63,.78-.91,.56-1.99-.08-2.1-1.12h0Z"/></g><g><circle class="cls-4" cx="137.7" cy="222.73" r="1.38"/><path class="cls-3" d="M136.34,222.56c-.14,.35-.08,.78,.14,1.12,.46,.73,1.55,.87,2.18,.28,.3-.27,.47-.68,.42-1.05-.14,.35-.36,.61-.63,.78-.91,.56-1.99-.08-2.1-1.12h0Z"/></g></g></g><g><g><circle class="cls-4" cx="143.04" cy="225.45" r="1.38"/><path class="cls-3" d="M144.41,225.27c.14,.35,.08,.78-.14,1.12-.46,.73-1.55,.87-2.18,.28-.3-.27-.47-.68-.42-1.05,.14,.35,.36,.61,.63,.78,.91,.56,1.99-.08,2.1-1.12h0Z"/></g><g><circle class="cls-4" cx="149.39" cy="225.44" r="1.38"/><path class="cls-3" d="M148.58,224.32c.24-.29,.65-.45,1.05-.42,.86,.05,1.5,.94,1.29,1.78-.09,.4-.37,.73-.72,.87,.24-.29,.36-.61,.38-.92,.06-1.06-1.03-1.71-1.99-1.3h0Z"/></g><g><circle class="cls-4" cx="114.13" cy="225.21" r="1.38"/><path class="cls-3" d="M115.15,224.29c.31,.21,.52,.6,.52,1,.04,.86-.78,1.6-1.63,1.47-.4-.05-.77-.3-.94-.63,.31,.21,.64,.3,.96,.28,1.06-.06,1.6-1.2,1.09-2.12h0Z"/></g><g><circle class="cls-4" cx="120.16" cy="225.39" r="1.38"/><path class="cls-3" d="M121.19,224.47c.31,.21,.52,.6,.52,1,.04,.86-.78,1.6-1.63,1.47-.4-.05-.77-.3-.94-.63,.31,.21,.64,.3,.96,.28,1.06-.06,1.6-1.2,1.09-2.12h0Z"/></g><g><circle class="cls-4" cx="146.16" cy="225.54" r="1.38"/><path class="cls-3" d="M147.18,224.62c.31,.21,.52,.6,.52,1,.04,.86-.78,1.6-1.63,1.47-.4-.05-.77-.3-.94-.63,.31,.21,.64,.3,.96,.28,1.06-.06,1.6-1.2,1.09-2.12h0Z"/></g><g><circle class="cls-4" cx="173.18" cy="225.19" r="1.38"/><path class="cls-3" d="M171.88,224.73c.03-.37,.28-.74,.63-.94,.74-.45,1.77-.08,2.07,.73,.15,.38,.11,.82-.1,1.13,.03-.37-.05-.71-.21-.98-.56-.9-1.82-.82-2.38,.06h0Z"/></g><g><circle class="cls-4" cx="136.84" cy="225.42" r="1.38"/><path class="cls-3" d="M137.86,224.5c.31,.21,.52,.6,.52,1,.04,.86-.78,1.6-1.63,1.47-.4-.05-.77-.3-.94-.63,.31,.21,.64,.3,.96,.28,1.06-.06,1.6-1.2,1.09-2.12h0Z"/></g><g><circle class="cls-4" cx="152.97" cy="225.33" r="1.38"/><path class="cls-3" d="M151.67,224.87c.03-.37,.28-.74,.63-.94,.74-.45,1.77-.08,2.07,.73,.15,.38,.11,.82-.1,1.13,.03-.37-.05-.71-.21-.98-.56-.9-1.82-.82-2.38,.06h0Z"/></g><g><circle class="cls-4" cx="157.15" cy="225.33" r="1.38"/><path class="cls-3" d="M155.86,224.87c.03-.37,.28-.74,.63-.94,.74-.45,1.77-.08,2.07,.73,.15,.38,.11,.82-.1,1.13,.03-.37-.05-.71-.21-.98-.56-.9-1.82-.82-2.38,.06h0Z"/></g><g><circle class="cls-4" cx="161.34" cy="225.33" r="1.38"/><path class="cls-3" d="M160.04,224.87c.03-.37,.28-.74,.63-.94,.74-.45,1.77-.08,2.07,.73,.15,.38,.11,.82-.1,1.13,.03-.37-.05-.71-.21-.98-.56-.9-1.82-.82-2.38,.06h0Z"/></g><g><circle class="cls-4" cx="165.52" cy="225.33" r="1.38"/><path class="cls-3" d="M164.22,224.87c.03-.37,.28-.74,.63-.94,.74-.45,1.77-.08,2.07,.73,.15,.38,.11,.82-.1,1.13,.03-.37-.05-.71-.21-.98-.56-.9-1.82-.82-2.38,.06h0Z"/></g><g><circle class="cls-4" cx="169.71" cy="225.33" r="1.38"/><path class="cls-3" d="M168.41,224.87c.03-.37,.28-.74,.63-.94,.74-.45,1.77-.08,2.07,.73,.15,.38,.11,.82-.1,1.13,.03-.37-.05-.71-.21-.98-.56-.9-1.82-.82-2.38,.06h0Z"/></g><g><circle class="cls-4" cx="183.92" cy="224.71" r="1.38"/><path class="cls-3" d="M182.62,224.26c.03-.37,.28-.74,.63-.94,.74-.45,1.77-.08,2.07,.73,.15,.38,.11,.82-.1,1.13,.03-.37-.05-.71-.21-.98-.56-.9-1.82-.82-2.38,.06h0Z"/></g><g><circle class="cls-4" cx="178.55" cy="225.54" r="1.38"/><path class="cls-3" d="M177.25,225.08c.03-.37,.28-.74,.63-.94,.74-.45,1.77-.08,2.07,.73,.15,.38,.11,.82-.1,1.13,.03-.37-.05-.71-.21-.98-.56-.9-1.82-.82-2.38,.06h0Z"/></g><g><circle class="cls-4" cx="188.04" cy="225.28" r="1.38"/><path class="cls-3" d="M186.74,224.82c.03-.37,.28-.74,.63-.94,.74-.45,1.77-.08,2.07,.73,.15,.38,.11,.82-.1,1.13,.03-.37-.05-.71-.21-.98-.56-.9-1.82-.82-2.38,.06h0Z"/></g><g><circle class="cls-4" cx="133.13" cy="225.4" r="1.38"/><path class="cls-3" d="M134.01,224.35c.34,.16,.6,.52,.66,.92,.16,.84-.54,1.69-1.4,1.68-.41,0-.8-.18-1.02-.49,.34,.16,.68,.2,.99,.14,1.04-.21,1.41-1.42,.77-2.25h0Z"/></g><g><g><circle class="cls-4" cx="81.22" cy="225.19" r="1.38"/><path class="cls-3" d="M82.59,225.02c.14,.35,.08,.78-.14,1.12-.46,.73-1.55,.87-2.18,.28-.3-.27-.47-.68-.42-1.05,.14,.35,.36,.61,.63,.78,.91,.56,1.99-.08,2.1-1.12h0Z"/></g><g><circle class="cls-4" cx="84.81" cy="225.19" r="1.38"/><path class="cls-3" d="M86.18,225.02c.14,.35,.08,.78-.14,1.12-.46,.73-1.55,.87-2.18,.28-.3-.27-.47-.68-.42-1.05,.14,.35,.36,.61,.63,.78,.91,.56,1.99-.08,2.1-1.12h0Z"/></g><g><circle class="cls-4" cx="88.4" cy="225.19" r="1.38"/><path class="cls-3" d="M89.77,225.02c.14,.35,.08,.78-.14,1.12-.46,.73-1.55,.87-2.18,.28-.3-.27-.47-.68-.42-1.05,.14,.35,.36,.61,.63,.78,.91,.56,1.99-.08,2.1-1.12h0Z"/></g><g><circle class="cls-4" cx="91.99" cy="225.19" r="1.38"/><path class="cls-3" d="M93.35,225.02c.14,.35,.08,.78-.14,1.12-.46,.73-1.55,.87-2.18,.28-.3-.27-.47-.68-.42-1.05,.14,.35,.36,.61,.63,.78,.91,.56,1.99-.08,2.1-1.12h0Z"/></g><g><circle class="cls-4" cx="95.58" cy="225.19" r="1.38"/><path class="cls-3" d="M96.94,225.02c.14,.35,.08,.78-.14,1.12-.46,.73-1.55,.87-2.18,.28-.3-.27-.47-.68-.42-1.05,.14,.35,.36,.61,.63,.78,.91,.56,1.99-.08,2.1-1.12h0Z"/></g><g><circle class="cls-4" cx="99.17" cy="225.19" r="1.38"/><path class="cls-3" d="M100.53,225.02c.14,.35,.08,.78-.14,1.12-.46,.73-1.55,.87-2.18,.28-.3-.27-.47-.68-.42-1.05,.14,.35,.36,.61,.63,.78,.91,.56,1.99-.08,2.1-1.12h0Z"/></g><g><circle class="cls-4" cx="102.75" cy="225.19" r="1.38"/><path class="cls-3" d="M104.12,225.02c.14,.35,.08,.78-.14,1.12-.46,.73-1.55,.87-2.18,.28-.3-.27-.47-.68-.42-1.05,.14,.35,.36,.61,.63,.78,.91,.56,1.99-.08,2.1-1.12h0Z"/></g><g><circle class="cls-4" cx="106.34" cy="225.19" r="1.38"/><path class="cls-3" d="M107.71,225.02c.14,.35,.08,.78-.14,1.12-.46,.73-1.55,.87-2.18,.28-.3-.27-.47-.68-.42-1.05,.14,.35,.36,.61,.63,.78,.91,.56,1.99-.08,2.1-1.12h0Z"/></g></g></g><g><g><circle class="cls-4" cx="121.72" cy="228.64" r="1.38"/><path class="cls-3" d="M120.35,228.47c-.14,.35-.08,.78,.14,1.12,.46,.73,1.55,.87,2.18,.28,.3-.27,.47-.68,.42-1.05-.14,.35-.36,.61-.63,.78-.91,.56-1.99-.08-2.1-1.12h0Z"/></g><g><circle class="cls-4" cx="115.37" cy="228.63" r="1.38"/><path class="cls-3" d="M116.18,227.51c-.24-.29-.65-.45-1.05-.42-.86,.05-1.5,.94-1.29,1.78,.09,.4,.37,.73,.72,.87-.24-.29-.36-.61-.38-.92-.06-1.06,1.03-1.71,1.99-1.3h0Z"/></g><g><circle class="cls-4" cx="150.63" cy="228.4" r="1.38"/><path class="cls-3" d="M149.6,227.48c-.31,.21-.52,.6-.52,1-.04,.86,.78,1.6,1.63,1.47,.4-.05,.77-.3,.94-.63-.31,.21-.64,.3-.96,.28-1.06-.06-1.6-1.2-1.09-2.12h0Z"/></g><g><circle class="cls-4" cx="144.59" cy="228.59" r="1.38"/><path class="cls-3" d="M143.57,227.67c-.31,.21-.52,.6-.52,1-.04,.86,.78,1.6,1.63,1.47,.4-.05,.77-.3,.94-.63-.31,.21-.64,.3-.96,.28-1.06-.06-1.6-1.2-1.09-2.12h0Z"/></g><g><circle class="cls-4" cx="118.6" cy="228.73" r="1.38"/><path class="cls-3" d="M117.57,227.81c-.31,.21-.52,.6-.52,1-.04,.86,.78,1.6,1.63,1.47,.4-.05,.77-.3,.94-.63-.31,.21-.64,.3-.96,.28-1.06-.06-1.6-1.2-1.09-2.12h0Z"/></g><g><circle class="cls-4" cx="91.58" cy="228.38" r="1.38"/><path class="cls-3" d="M92.88,227.92c-.03-.37-.28-.74-.63-.94-.74-.45-1.77-.08-2.07,.73-.15,.38-.11,.82,.1,1.13-.03-.37,.05-.71,.21-.98,.56-.9,1.82-.82,2.38,.06h0Z"/></g><g><circle class="cls-4" cx="127.92" cy="228.62" r="1.38"/><path class="cls-3" d="M126.89,227.7c-.31,.21-.52,.6-.52,1-.04,.86,.78,1.6,1.63,1.47,.4-.05,.77-.3,.94-.63-.31,.21-.64,.3-.96,.28-1.06-.06-1.6-1.2-1.09-2.12h0Z"/></g><g><circle class="cls-4" cx="111.79" cy="228.53" r="1.38"/><path class="cls-3" d="M113.09,228.07c-.03-.37-.28-.74-.63-.94-.74-.45-1.77-.08-2.07,.73-.15,.38-.11,.82,.1,1.13-.03-.37,.05-.71,.21-.98,.56-.9,1.82-.82,2.38,.06h0Z"/></g><g><circle class="cls-4" cx="107.6" cy="228.53" r="1.38"/><path class="cls-3" d="M108.9,228.07c-.03-.37-.28-.74-.63-.94-.74-.45-1.77-.08-2.07,.73-.15,.38-.11,.82,.1,1.13-.03-.37,.05-.71,.21-.98,.56-.9,1.82-.82,2.38,.06h0Z"/></g><g><circle class="cls-4" cx="103.42" cy="228.53" r="1.38"/><path class="cls-3" d="M104.72,228.07c-.03-.37-.28-.74-.63-.94-.74-.45-1.77-.08-2.07,.73-.15,.38-.11,.82,.1,1.13-.03-.37,.05-.71,.21-.98,.56-.9,1.82-.82,2.38,.06h0Z"/></g><g><circle class="cls-4" cx="99.23" cy="228.53" r="1.38"/><path class="cls-3" d="M100.53,228.07c-.03-.37-.28-.74-.63-.94-.74-.45-1.77-.08-2.07,.73-.15,.38-.11,.82,.1,1.13-.03-.37,.05-.71,.21-.98,.56-.9,1.82-.82,2.38,.06h0Z"/></g><g><circle class="cls-4" cx="95.05" cy="228.53" r="1.38"/><path class="cls-3" d="M96.35,228.07c-.03-.37-.28-.74-.63-.94-.74-.45-1.77-.08-2.07,.73-.15,.38-.11,.82,.1,1.13-.03-.37,.05-.71,.21-.98,.56-.9,1.82-.82,2.38,.06h0Z"/></g><g><circle class="cls-4" cx="80.84" cy="227.91" r="1.38"/><path class="cls-3" d="M82.13,227.45c-.03-.37-.28-.74-.63-.94-.74-.45-1.77-.08-2.07,.73-.15,.38-.11,.82,.1,1.13-.03-.37,.05-.71,.21-.98,.56-.9,1.82-.82,2.38,.06h0Z"/></g><g><circle class="cls-4" cx="86.21" cy="228.74" r="1.38"/><path class="cls-3" d="M87.5,228.28c-.03-.37-.28-.74-.63-.94-.74-.45-1.77-.08-2.07,.73-.15,.38-.11,.82,.1,1.13-.03-.37,.05-.71,.21-.98,.56-.9,1.82-.82,2.38,.06h0Z"/></g><g><circle class="cls-4" cx="76.71" cy="228.47" r="1.38"/><path class="cls-3" d="M78.01,228.01c-.03-.37-.28-.74-.63-.94-.74-.45-1.77-.08-2.07,.73-.15,.38-.11,.82,.1,1.13-.03-.37,.05-.71,.21-.98,.56-.9,1.82-.82,2.38,.06h0Z"/></g><g><circle class="cls-4" cx="131.62" cy="228.6" r="1.38"/><path class="cls-3" d="M130.74,227.54c-.34,.16-.6,.52-.66,.92-.16,.84,.54,1.69,1.4,1.68,.41,0,.8-.18,1.02-.49-.34,.16-.68,.2-.99,.14-1.04-.21-1.41-1.42-.77-2.25h0Z"/></g><g><g><circle class="cls-4" cx="179.94" cy="228.38" r="1.38"/><path class="cls-3" d="M178.58,228.21c-.14,.35-.08,.78,.14,1.12,.46,.73,1.55,.87,2.18,.28,.3-.27,.47-.68,.42-1.05-.14,.35-.36,.61-.63,.78-.91,.56-1.99-.08-2.1-1.12h0Z"/></g><g><circle class="cls-4" cx="183.05" cy="227.11" r="1.38"/><path class="cls-3" d="M181.69,226.94c-.14,.35-.08,.78,.14,1.12,.46,.73,1.55,.87,2.18,.28,.3-.27,.47-.68,.42-1.05-.14,.35-.36,.61-.63,.78-.91,.56-1.99-.08-2.1-1.12h0Z"/></g><g><circle class="cls-4" cx="176.36" cy="228.38" r="1.38"/><path class="cls-3" d="M174.99,228.21c-.14,.35-.08,.78,.14,1.12,.46,.73,1.55,.87,2.18,.28,.3-.27,.47-.68,.42-1.05-.14,.35-.36,.61-.63,.78-.91,.56-1.99-.08-2.1-1.12h0Z"/></g><g><circle class="cls-4" cx="172.77" cy="228.38" r="1.38"/><path class="cls-3" d="M171.4,228.21c-.14,.35-.08,.78,.14,1.12,.46,.73,1.55,.87,2.18,.28,.3-.27,.47-.68,.42-1.05-.14,.35-.36,.61-.63,.78-.91,.56-1.99-.08-2.1-1.12h0Z"/></g><g><circle class="cls-4" cx="169.18" cy="228.38" r="1.38"/><path class="cls-3" d="M167.81,228.21c-.14,.35-.08,.78,.14,1.12,.46,.73,1.55,.87,2.18,.28,.3-.27,.47-.68,.42-1.05-.14,.35-.36,.61-.63,.78-.91,.56-1.99-.08-2.1-1.12h0Z"/></g><g><circle class="cls-4" cx="165.59" cy="228.38" r="1.38"/><path class="cls-3" d="M164.23,228.21c-.14,.35-.08,.78,.14,1.12,.46,.73,1.55,.87,2.18,.28,.3-.27,.47-.68,.42-1.05-.14,.35-.36,.61-.63,.78-.91,.56-1.99-.08-2.1-1.12h0Z"/></g><g><circle class="cls-4" cx="162" cy="228.38" r="1.38"/><path class="cls-3" d="M160.64,228.21c-.14,.35-.08,.78,.14,1.12,.46,.73,1.55,.87,2.18,.28,.3-.27,.47-.68,.42-1.05-.14,.35-.36,.61-.63,.78-.91,.56-1.99-.08-2.1-1.12h0Z"/></g><g><circle class="cls-4" cx="158.41" cy="228.38" r="1.38"/><path class="cls-3" d="M157.05,228.21c-.14,.35-.08,.78,.14,1.12,.46,.73,1.55,.87,2.18,.28,.3-.27,.47-.68,.42-1.05-.14,.35-.36,.61-.63,.78-.91,.56-1.99-.08-2.1-1.12h0Z"/></g></g></g><g><g><circle class="cls-4" cx="153.16" cy="208.61" r="1.38"/><path class="cls-3" d="M152.36,209.72c.24,.29,.65,.45,1.05,.42,.86-.05,1.5-.94,1.29-1.78-.09-.4-.37-.73-.72-.87,.24,.29,.36,.61,.38,.92,.06,1.06-1.03,1.71-1.99,1.3h0Z"/></g><g><circle class="cls-4" cx="147.79" cy="208.98" r="1.38"/><path class="cls-3" d="M148.67,210.03c.34-.16,.6-.52,.66-.92,.16-.84-.54-1.69-1.4-1.68-.41,0-.8,.18-1.02,.49,.34-.16,.68-.2,.99-.14,1.04,.21,1.41,1.42,.77,2.25h0Z"/></g><g><circle class="cls-4" cx="150.41" cy="207.31" r="1.38"/><path class="cls-3" d="M151.78,207.48c.14-.35,.08-.78-.14-1.12-.46-.73-1.55-.87-2.18-.28-.3,.27-.47,.68-.42,1.05,.14-.35,.36-.61,.63-.78,.91-.56,1.99,.08,2.1,1.12h0Z"/></g><g><circle class="cls-4" cx="150.68" cy="210.28" r="1.38"/><path class="cls-3" d="M152.04,210.45c.14-.35,.08-.78-.14-1.12-.46-.73-1.55-.87-2.18-.28-.3,.27-.47,.68-.42,1.05,.14-.35,.36-.61,.63-.78,.91-.56,1.99,.08,2.1,1.12h0Z"/></g></g><g><g><circle class="cls-4" cx="147.46" cy="211.87" r="1.38"/><path class="cls-3" d="M146.65,212.98c.24,.29,.65,.45,1.05,.42,.86-.05,1.5-.94,1.29-1.78-.09-.4-.37-.73-.72-.87,.24,.29,.36,.61,.38,.92,.06,1.06-1.03,1.71-1.99,1.3h0Z"/></g><g><circle class="cls-4" cx="142.09" cy="212.23" r="1.38"/><path class="cls-3" d="M142.97,213.29c.34-.16,.6-.52,.66-.92,.16-.84-.54-1.69-1.4-1.68-.41,0-.8,.18-1.02,.49,.34-.16,.68-.2,.99-.14,1.04,.21,1.41,1.42,.77,2.25h0Z"/></g><g><circle class="cls-4" cx="144.71" cy="210.57" r="1.38"/><path class="cls-3" d="M146.07,210.74c.14-.35,.08-.78-.14-1.12-.46-.73-1.55-.87-2.18-.28-.3,.27-.47,.68-.42,1.05,.14-.35,.36-.61,.63-.78,.91-.56,1.99,.08,2.1,1.12h0Z"/></g><g><circle class="cls-4" cx="144.97" cy="213.54" r="1.38"/><path class="cls-3" d="M146.34,213.71c.14-.35,.08-.78-.14-1.12-.46-.73-1.55-.87-2.18-.28-.3,.27-.47,.68-.42,1.05,.14-.35,.36-.61,.63-.78,.91-.56,1.99,.08,2.1,1.12h0Z"/></g></g><g><g><circle class="cls-4" cx="156.39" cy="213.16" r="1.38"/><path class="cls-3" d="M155.58,214.28c.24,.29,.65,.45,1.05,.42,.86-.05,1.5-.94,1.29-1.78-.09-.4-.37-.73-.72-.87,.24,.29,.36,.61,.38,.92,.06,1.06-1.03,1.71-1.99,1.3h0Z"/></g><g><circle class="cls-4" cx="151.01" cy="213.53" r="1.38"/><path class="cls-3" d="M151.9,214.59c.34-.16,.6-.52,.66-.92,.16-.84-.54-1.69-1.4-1.68-.41,0-.8,.18-1.02,.49,.34-.16,.68-.2,.99-.14,1.04,.21,1.41,1.42,.77,2.25h0Z"/></g><g><circle class="cls-4" cx="153.64" cy="211.87" r="1.38"/><path class="cls-3" d="M155,212.04c.14-.35,.08-.78-.14-1.12-.46-.73-1.55-.87-2.18-.28-.3,.27-.47,.68-.42,1.05,.14-.35,.36-.61,.63-.78,.91-.56,1.99,.08,2.1,1.12h0Z"/></g><g><circle class="cls-4" cx="153.9" cy="214.84" r="1.38"/><path class="cls-3" d="M155.27,215.01c.14-.35,.08-.78-.14-1.12-.46-.73-1.55-.87-2.18-.28-.3,.27-.47,.68-.42,1.05,.14-.35,.36-.61,.63-.78,.91-.56,1.99,.08,2.1,1.12h0Z"/></g></g><g><circle class="cls-4" cx="159.52" cy="211.43" r="1.38"/><path class="cls-3" d="M158.71,212.54c.24,.29,.65,.45,1.05,.42,.86-.05,1.5-.94,1.29-1.78-.09-.4-.37-.73-.72-.87,.24,.29,.36,.61,.38,.92,.06,1.06-1.03,1.71-1.99,1.3h0Z"/></g><g><circle class="cls-4" cx="156.77" cy="210.13" r="1.38"/><path class="cls-3" d="M158.13,210.31c.14-.35,.08-.78-.14-1.12-.46-.73-1.55-.87-2.18-.28-.3,.27-.47,.68-.42,1.05,.14-.35,.36-.61,.63-.78,.91-.56,1.99,.08,2.1,1.12h0Z"/></g><g><g><circle class="cls-4" cx="178.88" cy="217.99" r="1.38"/><path class="cls-3" d="M178.07,219.11c.24,.29,.65,.45,1.05,.42,.86-.05,1.5-.94,1.29-1.78-.09-.4-.37-.73-.72-.87,.24,.29,.36,.61,.38,.92,.06,1.06-1.03,1.71-1.99,1.3h0Z"/></g><g><circle class="cls-4" cx="173.5" cy="218.36" r="1.38"/><path class="cls-3" d="M174.39,219.42c.34-.16,.6-.52,.66-.92,.16-.84-.54-1.69-1.4-1.68-.41,0-.8,.18-1.02,.49,.34-.16,.68-.2,.99-.14,1.04,.21,1.41,1.42,.77,2.25h0Z"/></g><g><circle class="cls-4" cx="176.13" cy="216.69" r="1.38"/><path class="cls-3" d="M177.49,216.87c.14-.35,.08-.78-.14-1.12-.46-.73-1.55-.87-2.18-.28-.3,.27-.47,.68-.42,1.05,.14-.35,.36-.61,.63-.78,.91-.56,1.99,.08,2.1,1.12h0Z"/></g><g><circle class="cls-4" cx="176.39" cy="219.67" r="1.38"/><path class="cls-3" d="M177.76,219.84c.14-.35,.08-.78-.14-1.12-.46-.73-1.55-.87-2.18-.28-.3,.27-.47,.68-.42,1.05,.14-.35,.36-.61,.63-.78,.91-.56,1.99,.08,2.1,1.12h0Z"/></g></g><g><g><circle class="cls-4" cx="173.18" cy="221.25" r="1.38"/><path class="cls-3" d="M172.37,222.37c.24,.29,.65,.45,1.05,.42,.86-.05,1.5-.94,1.29-1.78-.09-.4-.37-.73-.72-.87,.24,.29,.36,.61,.38,.92,.06,1.06-1.03,1.71-1.99,1.3h0Z"/></g><g><circle class="cls-4" cx="167.8" cy="221.62" r="1.38"/><path class="cls-3" d="M168.68,222.68c.34-.16,.6-.52,.66-.92,.16-.84-.54-1.69-1.4-1.68-.41,0-.8,.18-1.02,.49,.34-.16,.68-.2,.99-.14,1.04,.21,1.41,1.42,.77,2.25h0Z"/></g><g><circle class="cls-4" cx="170.42" cy="219.95" r="1.38"/><path class="cls-3" d="M171.79,220.13c.14-.35,.08-.78-.14-1.12-.46-.73-1.55-.87-2.18-.28-.3,.27-.47,.68-.42,1.05,.14-.35,.36-.61,.63-.78,.91-.56,1.99,.08,2.1,1.12h0Z"/></g><g><circle class="cls-4" cx="170.69" cy="222.92" r="1.38"/><path class="cls-3" d="M172.06,223.1c.14-.35,.08-.78-.14-1.12-.46-.73-1.55-.87-2.18-.28-.3,.27-.47,.68-.42,1.05,.14-.35,.36-.61,.63-.78,.91-.56,1.99,.08,2.1,1.12h0Z"/></g></g><g><g><circle class="cls-4" cx="182.11" cy="222.55" r="1.38"/><path class="cls-3" d="M181.3,223.66c.24,.29,.65,.45,1.05,.42,.86-.05,1.5-.94,1.29-1.78-.09-.4-.37-.73-.72-.87,.24,.29,.36,.61,.38,.92,.06,1.06-1.03,1.71-1.99,1.3h0Z"/></g><g><circle class="cls-4" cx="176.73" cy="222.92" r="1.38"/><path class="cls-3" d="M177.61,223.97c.34-.16,.6-.52,.66-.92,.16-.84-.54-1.69-1.4-1.68-.41,0-.8,.18-1.02,.49,.34-.16,.68-.2,.99-.14,1.04,.21,1.41,1.42,.77,2.25h0Z"/></g><g><circle class="cls-4" cx="179.35" cy="221.25" r="1.38"/><path class="cls-3" d="M180.72,221.42c.14-.35,.08-.78-.14-1.12-.46-.73-1.55-.87-2.18-.28-.3,.27-.47,.68-.42,1.05,.14-.35,.36-.61,.63-.78,.91-.56,1.99,.08,2.1,1.12h0Z"/></g><g><circle class="cls-4" cx="179.62" cy="224.22" r="1.38"/><path class="cls-3" d="M180.98,224.4c.14-.35,.08-.78-.14-1.12-.46-.73-1.55-.87-2.18-.28-.3,.27-.47,.68-.42,1.05,.14-.35,.36-.61,.63-.78,.91-.56,1.99,.08,2.1,1.12h0Z"/></g></g><g><circle class="cls-4" cx="185.24" cy="220.81" r="1.38"/><path class="cls-3" d="M184.43,221.93c.24,.29,.65,.45,1.05,.42,.86-.05,1.5-.94,1.29-1.78-.09-.4-.37-.73-.72-.87,.24,.29,.36,.61,.38,.92,.06,1.06-1.03,1.71-1.99,1.3h0Z"/></g><g><circle class="cls-4" cx="182.48" cy="219.52" r="1.38"/><path class="cls-3" d="M183.85,219.69c.14-.35,.08-.78-.14-1.12-.46-.73-1.55-.87-2.18-.28-.3,.27-.47,.68-.42,1.05,.14-.35,.36-.61,.63-.78,.91-.56,1.99,.08,2.1,1.12h0Z"/></g><g><circle class="cls-4" cx="68.73" cy="224.93" r="1.38"/><path class="cls-3" d="M70.03,224.48c-.03-.37-.28-.74-.63-.94-.74-.45-1.77-.08-2.07,.73-.15,.38-.11,.82,.1,1.13-.03-.37,.05-.71,.21-.98,.56-.9,1.82-.82,2.38,.06h0Z"/></g><g><circle class="cls-4" cx="85.05" cy="220.78" r="1.38"/><path class="cls-3" d="M86.35,220.33c-.03-.37-.28-.74-.63-.94-.74-.45-1.77-.08-2.07,.73-.15,.38-.11,.82,.1,1.13-.03-.37,.05-.71,.21-.98,.56-.9,1.82-.82,2.38,.06h0Z"/></g><g><circle class="cls-4" cx="104.74" cy="222.15" r="1.38"/><path class="cls-3" d="M106.04,221.69c-.03-.37-.28-.74-.63-.94-.74-.45-1.77-.08-2.07,.73-.15,.38-.11,.82,.1,1.13-.03-.37,.05-.71,.21-.98,.56-.9,1.82-.82,2.38,.06h0Z"/></g><g><circle class="cls-4" cx="98.96" cy="220.78" r="1.38"/><path class="cls-3" d="M100.26,220.33c-.03-.37-.28-.74-.63-.94-.74-.45-1.77-.08-2.07,.73-.15,.38-.11,.82,.1,1.13-.03-.37,.05-.71,.21-.98,.56-.9,1.82-.82,2.38,.06h0Z"/></g><g><circle class="cls-4" cx="92.9" cy="220.63" r="1.38"/><path class="cls-3" d="M94.2,220.17c-.03-.37-.28-.74-.63-.94-.74-.45-1.77-.08-2.07,.73-.15,.38-.11,.82,.1,1.13-.03-.37,.05-.71,.21-.98,.56-.9,1.82-.82,2.38,.06h0Z"/></g><g><circle class="cls-4" cx="76.39" cy="225.08" r="1.38"/><path class="cls-3" d="M77.69,224.62c-.03-.37-.28-.74-.63-.94-.74-.45-1.77-.08-2.07,.73-.15,.38-.11,.82,.1,1.13-.03-.37,.05-.71,.21-.98,.56-.9,1.82-.82,2.38,.06h0Z"/></g><g><circle class="cls-4" cx="72.2" cy="225.08" r="1.38"/><path class="cls-3" d="M73.5,224.62c-.03-.37-.28-.74-.63-.94-.74-.45-1.77-.08-2.07,.73-.15,.38-.11,.82,.1,1.13-.03-.37,.05-.71,.21-.98,.56-.9,1.82-.82,2.38,.06h0Z"/></g><g><circle class="cls-4" cx="57.99" cy="224.46" r="1.38"/><path class="cls-3" d="M59.29,224c-.03-.37-.28-.74-.63-.94-.74-.45-1.77-.08-2.07,.73-.15,.38-.11,.82,.1,1.13-.03-.37,.05-.71,.21-.98,.56-.9,1.82-.82,2.38,.06h0Z"/></g><g><circle class="cls-4" cx="63.36" cy="225.29" r="1.38"/><path class="cls-3" d="M64.66,224.83c-.03-.37-.28-.74-.63-.94-.74-.45-1.77-.08-2.07,.73-.15,.38-.11,.82,.1,1.13-.03-.37,.05-.71,.21-.98,.56-.9,1.82-.82,2.38,.06h0Z"/></g><g><circle class="cls-4" cx="53.87" cy="225.02" r="1.38"/><path class="cls-3" d="M55.17,224.56c-.03-.37-.28-.74-.63-.94-.74-.45-1.77-.08-2.07,.73-.15,.38-.11,.82,.1,1.13-.03-.37,.05-.71,.21-.98,.56-.9,1.82-.82,2.38,.06h0Z"/></g><g><circle class="cls-4" cx="54.68" cy="217.47" r="1.38"/><path class="cls-3" d="M55.98,217.02c-.03-.37-.28-.74-.63-.94-.74-.45-1.77-.08-2.07,.73-.15,.38-.11,.82,.1,1.13-.03-.37,.05-.71,.21-.98,.56-.9,1.82-.82,2.38,.06h0Z"/></g><g><circle class="cls-4" cx="52.55" cy="220.67" r="1.38"/><path class="cls-3" d="M53.85,220.21c-.03-.37-.28-.74-.63-.94-.74-.45-1.77-.08-2.07,.73-.15,.38-.11,.82,.1,1.13-.03-.37,.05-.71,.21-.98,.56-.9,1.82-.82,2.38,.06h0Z"/></g><g><circle class="cls-4" cx="58.45" cy="227.15" r="1.38"/><path class="cls-3" d="M59.75,226.69c-.03-.37-.28-.74-.63-.94-.74-.45-1.77-.08-2.07,.73-.15,.38-.11,.82,.1,1.13-.03-.37,.05-.71,.21-.98,.56-.9,1.82-.82,2.38,.06h0Z"/></g><g><circle class="cls-4" cx="72.7" cy="227.45" r="1.38"/><path class="cls-3" d="M73.99,227c-.03-.37-.28-.74-.63-.94-.74-.45-1.77-.08-2.07,.73-.15,.38-.11,.82,.1,1.13-.03-.37,.05-.71,.21-.98,.56-.9,1.82-.82,2.38,.06h0Z"/></g><g><circle class="cls-4" cx="68.51" cy="227.45" r="1.38"/><path class="cls-3" d="M69.81,227c-.03-.37-.28-.74-.63-.94-.74-.45-1.77-.08-2.07,.73-.15,.38-.11,.82,.1,1.13-.03-.37,.05-.71,.21-.98,.56-.9,1.82-.82,2.38,.06h0Z"/></g><g><circle class="cls-4" cx="64.33" cy="227.45" r="1.38"/><path class="cls-3" d="M65.62,227c-.03-.37-.28-.74-.63-.94-.74-.45-1.77-.08-2.07,.73-.15,.38-.11,.82,.1,1.13-.03-.37,.05-.71,.21-.98,.56-.9,1.82-.82,2.38,.06h0Z"/></g><g><circle class="cls-4" cx="47.42" cy="226.37" r="1.38"/><path class="cls-3" d="M48.71,225.92c-.03-.37-.28-.74-.63-.94-.74-.45-1.77-.08-2.07,.73-.15,.38-.11,.82,.1,1.13-.03-.37,.05-.71,.21-.98,.56-.9,1.82-.82,2.38,.06h0Z"/></g><g><circle class="cls-4" cx="51.98" cy="227.39" r="1.38"/><path class="cls-3" d="M53.28,226.93c-.03-.37-.28-.74-.63-.94-.74-.45-1.77-.08-2.07,.73-.15,.38-.11,.82,.1,1.13-.03-.37,.05-.71,.21-.98,.56-.9,1.82-.82,2.38,.06h0Z"/></g><g><circle class="cls-4" cx="50.22" cy="223.74" r="1.38"/><path class="cls-3" d="M51.52,223.28c-.03-.37-.28-.74-.63-.94-.74-.45-1.77-.08-2.07,.73-.15,.38-.11,.82,.1,1.13-.03-.37,.05-.71,.21-.98,.56-.9,1.82-.82,2.38,.06h0Z"/></g></g><g><path class="cls-10" d="M230,145.13v5.7c0,4.21-3.41,7.62-7.62,7.62h-12.34l-14.96,60.71c-3.15,6.62-9.82,10.84-17.15,10.84H52.07c-7.33,0-14-4.22-17.15-10.84l-14.96-60.71H7.62C3.41,158.45,0,155.04,0,150.83v-5.7C0,140.93,3.41,137.52,7.62,137.52H222.38c4.21,0,7.62,3.41,7.62,7.62Z"/><path class="cls-1" d="M190.02,225.65c-3.34,2.76-7.59,4.35-12.09,4.35H52.06c-7.32,0-14-4.22-17.15-10.84l-14.96-60.71H7.64c-.79,0-1.55-.12-2.27-.34-.36-.11-.71-.25-1.04-.41-.33-.16-.65-.34-.96-.55-.21-.14-.41-.29-.6-.44-.28-.24-.54-.49-.78-.76-.17-.19-.32-.37-.47-.57-.15-.2-.28-.4-.41-.61-.13-.21-.25-.42-.35-.65-.11-.22-.21-.45-.29-.68-.05-.12-.09-.24-.13-.36s-.07-.25-.11-.38c-.05-.22-.1-.45-.13-.68-.03-.15-.05-.31-.06-.47-.03-.23-.04-.46-.04-.7v-5.75c0-.22,.01-.44,.04-.66,.01-.16,.03-.32,.06-.48,.03-.24,.08-.46,.13-.69,.04-.13,.07-.26,.11-.38,.04-.12,.08-.24,.13-.36,.08-.23,.18-.46,.29-.68,.1-.22,.22-.44,.35-.65,.13-.21,.26-.41,.41-.61,.15-.2,.3-.38,.47-.57,.16-.18,.33-.35,.51-.51,.19-.17,.37-.32,.57-.47s.4-.28,.61-.41c.21-.13,.43-.25,.65-.35,.22-.11,.45-.21,.68-.29,.12-.05,.24-.09,.36-.13,.12-.04,.25-.07,.38-.11,.23-.05,.45-.1,.69-.13,.16-.03,.32-.05,.48-.06,.22-.03,.44-.04,.66-.04h.5c-.08,.13-.17,.27-.24,.41-.17,.31-.32,.63-.44,.97h0c-.04,.12-.08,.24-.11,.35-.22,.72-.34,1.48-.34,2.27v5.65c0,.79,.12,1.55,.34,2.27,.14,.48,.34,.94,.58,1.37,.24,.44,.52,.85,.82,1.23,.31,.37,.65,.72,1.03,1.03,.38,.3,.79,.58,1.23,.82,.43,.24,.89,.44,1.37,.58,.72,.22,1.48,.34,2.27,.34h12.31l.9,3.64,14.06,57.07c3.15,6.62,9.82,10.84,17.15,10.84h125.87c1.77,0,3.49-.25,5.14-.71Z"/><rect class="cls-6" x="0" y="137.52" width="230" height="20.93" rx="7.64" ry="7.64"/><rect class="cls-5" x="43.93" y="155.26" width="136.45" height="6.37" rx="3.18" ry="3.18"/></g><g class="cls-12"><path class="cls-2" d="M27.28,171.21c-.36-.36-.59-.86-.59-1.41,0-1.1,.89-2,2-2h30.47c1.1,0,2,.89,2,2s-.89,2-2,2H28.69c-.55,0-1.05-.22-1.41-.58Z"/></g><g class="cls-12"><path class="cls-2" d="M164.67,190.31c-.36-.36-.59-.86-.59-1.41,0-1.1,.89-2,2-2h30.47c1.1,0,2,.89,2,2s-.89,2-2,2h-30.47c-.55,0-1.05-.22-1.41-.58Z"/></g></g></svg>