<svg width="17" height="16" viewBox="0 0 17 16" fill="none" xmlns="http://www.w3.org/2000/svg">
<g clip-path="url(#clip0_516_8290)">
<path d="M3.31518 16.0001H2.95829C1.75639 16.0001 0.777832 15.0215 0.777832 13.8196V12.003C0.777832 10.8011 1.75639 9.82251 2.95829 9.82251H3.31518C4.51707 9.82251 5.49563 10.8011 5.49563 12.003V13.8196C5.49563 15.0215 4.51707 16.0001 3.31518 16.0001Z" fill="#F96163"/>
<path d="M8.95629 16.0001H8.5994C7.3975 16.0001 6.41895 15.0215 6.41895 13.8196V7.09403C6.41895 5.89213 7.3975 4.91357 8.5994 4.91357H8.95629C10.1582 4.91357 11.1367 5.89213 11.1367 7.09403V13.8196C11.1367 15.0215 10.1582 16.0001 8.95629 16.0001Z" fill="#F96163"/>
<path d="M14.5974 16H14.2405C13.0386 16 12.0601 15.0214 12.0601 13.8195V2.18046C12.0601 0.978558 13.0386 0 14.2405 0H14.5974C15.7993 0 16.7779 0.978558 16.7779 2.18046V13.8195C16.7779 15.0214 15.7993 16 14.5974 16ZM14.2405 1.26407C13.7363 1.26407 13.3264 1.67391 13.3264 2.17815V13.8172C13.3264 14.3215 13.7363 14.7313 14.2405 14.7313H14.5974C15.1016 14.7313 15.5115 14.3215 15.5115 13.8172V2.17815C15.5115 1.67391 15.1016 1.26407 14.5974 1.26407H14.2405V1.26407Z" fill="#F96163"/>
</g>
<defs>
<clipPath id="clip0_516_8290">
<rect width="16" height="16" fill="white" transform="translate(0.777832)"/>
</clipPath>
</defs>
</svg>
