<svg width="33" height="32" viewBox="0 0 33 32" fill="none" xmlns="http://www.w3.org/2000/svg">
<g clip-path="url(#clip0_222_5977)">
<path d="M16.2212 29.4483C15.2152 29.4483 14.2091 29.0997 13.3931 28.3947C3.33221 19.7518 3.07871 19.4825 2.95196 19.3557L2.90443 19.3082C1.28835 17.6208 0.337712 15.3789 0.226805 12.9864C0.107975 10.3564 1.10614 7.71042 2.9678 5.72993C4.82946 3.74944 7.39618 2.59283 10.0183 2.55322C11.8642 2.52946 13.6704 3.00477 15.2468 3.93957C15.5796 4.13761 15.9044 4.35943 16.2133 4.58917C16.5223 4.35151 16.8392 4.13761 17.1798 3.93957C18.7642 3.00477 20.5704 2.52153 22.4162 2.55322C25.0384 2.59283 27.613 3.74944 29.4668 5.72993C31.3284 7.71042 32.3266 10.3564 32.2078 12.9864C32.0969 15.3789 31.1541 17.6129 29.546 19.2923L29.443 19.4032C29.2925 19.5538 28.4765 20.2905 19.0573 28.3867C18.2413 29.0918 17.2353 29.4404 16.2292 29.4404L16.2212 29.4483ZM6.05737 16.3057C6.4297 16.6543 10.2322 19.934 16.2212 25.0912C22.1706 19.9578 25.9653 16.686 26.3772 16.2978C27.2645 15.3789 27.7794 14.1351 27.8428 12.7884C27.9141 11.3308 27.3437 9.84143 26.2821 8.71651C25.2285 7.59159 23.7867 6.93407 22.337 6.91822C21.2913 6.89446 20.2852 7.17173 19.398 7.69458C18.8276 8.03522 18.3206 8.47093 17.9007 8.99378L16.2133 11.0693L14.5259 8.99378C14.1061 8.47093 13.5991 8.03522 13.0287 7.69458C12.1414 7.17173 11.0957 6.90238 10.0896 6.91822C8.63993 6.94199 7.19813 7.59951 6.14451 8.71651C5.08297 9.84143 4.51259 11.3308 4.58388 12.7884C4.64726 14.1351 5.17011 15.3868 6.06529 16.3057H6.05737Z" fill="#F96163"/>
</g>
<defs>
<clipPath id="clip0_222_5977">
<rect width="32" height="32" fill="white" transform="translate(0.217285)"/>
</clipPath>
</defs>
</svg>
