<svg width="32" height="33" viewBox="0 0 32 33" fill="none" xmlns="http://www.w3.org/2000/svg">
<g clip-path="url(#clip0_222_5977)">
<path d="M21.4216 4.13153L21.423 4.13155C26.3274 4.20601 30.3488 8.50813 30.121 13.3974L30.1209 13.3992C30.0182 15.5603 29.1543 17.559 27.708 19.0505L27.6859 19.073L27.6783 19.0806L27.6782 19.0805C27.5096 19.2469 26.9971 19.6931 26.4386 20.1785C25.7886 20.7433 24.9189 21.4951 23.9754 22.3091C22.4113 23.6585 20.6394 25.1832 19.3199 26.3186C19.0471 26.5533 18.7936 26.7714 18.5653 26.9679L18.5615 26.9711C17.0873 28.2336 14.9124 28.2388 13.436 26.969L21.4216 4.13153ZM21.4216 4.13153C19.7259 4.10695 18.1357 4.56043 16.7788 5.36471L16.775 5.36694M21.4216 4.13153L16.775 5.36694M16.775 5.36694C16.5078 5.52609 16.2497 5.69874 16.0014 5.88412M16.775 5.36694L16.0014 5.88412M16.0014 5.88412C15.7539 5.69897 15.4961 5.52618 15.2288 5.36694L15.2288 5.36693L15.2222 5.36306C13.8636 4.5607 12.2747 4.10695 10.5784 4.13153L10.577 4.13155C5.67265 4.20601 1.65117 8.50813 1.87904 13.3974L1.87912 13.3992C1.98175 15.5593 2.84123 17.5546 4.29205 19.0506L4.31399 19.0729L4.32158 19.0805L4.32167 19.0804C4.49012 19.2468 5.00256 19.6933 5.56259 20.1802C6.2128 20.7456 7.08245 21.4977 8.02585 22.3118C9.9128 23.9402 12.1013 25.8223 13.4352 26.9683L16.0014 5.88412Z" stroke="#F96163" stroke-width="4.07966" stroke-linejoin="round"/>
</g>
<defs>
<clipPath id="clip0_222_5977">
<rect width="32" height="32" fill="white" transform="translate(0 0.0253906)"/>
</clipPath>
</defs>
</svg>
