<svg width="350" height="160" viewBox="0 0 350 160" fill="none" xmlns="http://www.w3.org/2000/svg">
<path d="M242.45 67.46C242.45 75.84 229.94 81.68 226.92 88.97C223.79 96.53 228.39 109.47 222.69 115.16C217 120.85 204.05 116.25 196.5 119.39C189.21 122.41 183.38 134.92 174.99 134.92C166.6 134.92 160.77 122.41 153.48 119.39C145.92 116.26 132.98 120.86 127.29 115.16C121.6 109.46 126.2 96.52 123.06 88.97C120.04 81.68 107.53 75.85 107.53 67.46C107.53 59.07 120.04 53.24 123.06 45.95C126.19 38.39 121.59 25.45 127.29 19.76C132.98 14.07 145.93 18.67 153.48 15.53C160.77 12.51 166.6 0 174.99 0C183.38 0 189.21 12.51 196.5 15.53C204.06 18.66 217 14.06 222.69 19.76C228.38 25.45 223.78 38.4 226.92 45.95C229.94 53.24 242.45 59.07 242.45 67.46Z" fill="#F96163"/>
<path d="M226.93 45.96C223.8 38.41 228.4 25.45 222.7 19.76C217 14.07 204.05 18.66 196.5 15.53C189.2 12.51 183.37 0 175 0C166.63 0 160.77 12.51 153.48 15.52C145.93 18.65 133 14.05 127.31 19.75C121.62 25.44 126.21 38.4 123.08 45.95C120.04 53.25 107.53 59.08 107.53 67.45C107.53 75.82 120.04 81.68 123.08 88.97C126.21 96.52 121.61 109.45 127.31 115.14C133 120.83 145.93 116.24 153.48 119.37C160.78 122.41 166.61 134.92 175 134.92C183.39 134.92 189.2 122.41 196.5 119.37C204.05 116.24 217.01 120.84 222.7 115.14C228.39 109.45 223.8 96.52 226.93 88.97C229.94 81.67 242.45 75.84 242.45 67.45C242.45 59.06 229.94 53.25 226.93 45.95V45.96Z" fill="#FA9E9F"/>
<path d="M175 132.11C171.34 132.11 167.73 128.32 164.23 124.65C161.25 121.52 158.17 118.28 154.56 116.78C151.5 115.51 147.89 115.34 144.75 115.34C143.75 115.34 142.74 115.36 141.73 115.38C140.76 115.4 139.78 115.42 138.82 115.42C135.04 115.42 131.27 115.14 129.29 113.17C126.89 110.77 126.98 105.89 127.07 100.73C127.15 96.2898 127.24 91.6898 125.67 87.9099C124.16 84.2898 120.92 81.2099 117.8 78.2299C114.13 74.7399 110.34 71.1199 110.34 67.4598C110.34 63.7998 114.13 60.2098 117.79 56.7298C120.92 53.7498 124.16 50.6698 125.67 47.0498C127.24 43.2598 127.15 38.6598 127.07 34.2198C126.98 29.2798 126.88 24.1698 129.29 21.7598C131.27 19.7798 135.04 19.5098 138.82 19.5098C139.78 19.5098 140.76 19.5298 141.73 19.5498C142.74 19.5698 143.75 19.5898 144.75 19.5898C147.88 19.5898 151.49 19.4198 154.55 18.1498C158.17 16.6598 161.25 13.4198 164.24 10.2898C167.73 6.62984 171.34 2.83984 174.99 2.83984C178.64 2.83984 182.23 6.61984 185.71 10.2698C188.7 13.4098 191.78 16.6498 195.41 18.1398C198.46 19.4098 202.08 19.5798 205.21 19.5798C206.21 19.5798 207.22 19.5598 208.23 19.5398C209.21 19.5198 210.18 19.4998 211.15 19.4998C214.93 19.4998 218.71 19.7698 220.69 21.7498C223.09 24.1498 223 29.2698 222.91 34.2098C222.83 38.6598 222.74 43.2598 224.31 47.0398C225.81 50.6598 229.05 53.7498 232.18 56.7398C235.84 60.2198 239.62 63.8198 239.62 67.4598C239.62 71.0998 235.83 74.7299 232.17 78.2198C229.04 81.2098 225.8 84.2898 224.3 87.9099C222.73 91.6898 222.82 96.2798 222.9 100.72C223 105.88 223.09 110.76 220.68 113.17C218.7 115.15 214.92 115.42 211.14 115.42C210.18 115.42 209.2 115.4 208.23 115.38C207.22 115.36 206.21 115.34 205.21 115.34C202.07 115.34 198.46 115.51 195.4 116.78C191.78 118.29 188.7 121.53 185.72 124.66C182.23 128.32 178.63 132.11 174.99 132.11H175Z" fill="#F96163"/>
<path d="M174.99 123.29C173.67 122.3 171.66 120.19 170.37 118.83C166.94 115.23 163.07 111.16 157.81 108.97C153.37 107.13 148.72 106.88 144.75 106.88C143.83 106.88 142.9 106.9 141.97 106.91H141.6C140.65 106.93 139.73 106.95 138.83 106.95C137.29 106.95 136.28 106.89 135.62 106.82C135.45 105.24 135.5 102.7 135.53 100.87C135.63 95.8099 135.73 90.0699 133.49 84.6599C131.29 79.3899 127.23 75.5199 123.65 72.1099C122.27 70.7999 120.16 68.7899 119.16 67.4599C120.15 66.1399 122.26 64.1399 123.62 62.8399C127.21 59.4299 131.28 55.5499 133.48 50.2899C135.73 44.8599 135.63 39.1099 135.53 34.0499C135.5 32.3199 135.45 29.7099 135.63 28.0799C136.3 28.0099 137.31 27.9499 138.83 27.9499C139.62 27.9499 140.42 27.9599 141.22 27.9799H141.6C142.65 28.0099 143.71 28.0299 144.76 28.0299C148.72 28.0299 153.37 27.7799 157.79 25.9499C163.05 23.7799 166.94 19.6999 170.36 16.1099C171.66 14.7499 173.67 12.6399 174.99 11.6499C176.31 12.6399 178.3 14.7299 179.59 16.0799C183.02 19.6899 186.9 23.7599 192.19 25.9499C196.6 27.7799 201.25 28.0299 205.22 28.0299C206.27 28.0299 207.34 28.0099 208.4 27.9899H208.75C209.55 27.9699 210.36 27.9599 211.15 27.9599C212.68 27.9599 213.69 28.0199 214.36 28.0899C214.54 29.7199 214.49 32.3399 214.46 34.0599C214.36 39.1299 214.26 44.8699 216.5 50.2799C218.68 55.5499 222.75 59.4299 226.34 62.8499C227.71 64.1499 229.81 66.1499 230.8 67.4699C229.81 68.7899 227.71 70.7999 226.36 72.0899C222.75 75.5199 218.68 79.4099 216.5 84.6899C214.27 90.0899 214.37 95.8199 214.47 100.88C214.5 102.71 214.55 105.25 214.38 106.83C213.71 106.91 212.7 106.97 211.16 106.97C210.25 106.97 209.33 106.95 208.42 106.93H208.01C207.08 106.91 206.15 106.89 205.23 106.89C201.26 106.89 196.61 107.14 192.19 108.97C186.9 111.17 183.03 115.24 179.61 118.84C178.32 120.2 176.32 122.3 174.99 123.3V123.29Z" fill="#FA9E9F"/>
<path d="M174.45 114.95C170.83 111.15 166.33 106.43 159.98 103.78C154.62 101.56 149.27 101.26 144.75 101.26C143.93 101.26 141.51 101.3 141.51 101.3C141.39 101.3 141.27 101.3 141.15 101.3C141.15 101.2 141.15 101.1 141.15 101C141.25 95.6499 141.38 89.0199 138.68 82.5099C136.02 76.1299 131.31 71.6399 127.52 68.0299C127.35 67.8699 127.15 67.6799 126.92 67.4599C127.12 67.2699 127.31 67.0899 127.46 66.9499C131.28 63.3199 136 58.8299 138.66 52.4599C141.37 45.9199 141.24 39.2799 141.14 33.9399C141.14 33.8299 141.14 33.7199 141.14 33.6099H141.45C142.56 33.6399 143.65 33.6599 144.74 33.6599C149.25 33.6599 154.59 33.3599 159.93 31.1499C166.29 28.5299 170.79 23.7999 174.41 20.0099C174.56 19.8499 174.75 19.6499 174.97 19.4199C175.16 19.6199 175.33 19.7999 175.48 19.9499C179.12 23.7699 183.63 28.5099 190.02 31.1499C195.34 33.3599 200.68 33.6499 205.2 33.6499C206.29 33.6499 207.4 33.6299 208.5 33.6099H208.82C208.82 33.6899 208.82 33.7799 208.82 33.8599C208.72 39.2699 208.59 45.9199 211.29 52.4199C213.92 58.7799 218.64 63.2799 222.43 66.9099C222.6 67.0699 222.8 67.2599 223.02 67.4699C222.81 67.6699 222.62 67.8499 222.46 67.9999C218.66 71.6199 213.92 76.1299 211.28 82.5199C208.59 89.0099 208.72 95.6399 208.82 100.97C208.82 101.07 208.82 101.18 208.82 101.29H208.09C207.11 101.26 206.15 101.25 205.2 101.25C200.68 101.25 195.34 101.55 190 103.76C183.61 106.42 179.11 111.15 175.5 114.94C175.34 115.11 175.16 115.3 174.96 115.51C174.76 115.3 174.57 115.11 174.42 114.94L174.45 114.95Z" fill="#F96163"/>
<path d="M174.99 102.15C194.149 102.15 209.68 86.6188 209.68 67.46C209.68 48.3013 194.149 32.77 174.99 32.77C155.831 32.77 140.3 48.3013 140.3 67.46C140.3 86.6188 155.831 102.15 174.99 102.15Z" fill="#CC5252"/>
<path d="M174.99 100.51C193.243 100.51 208.04 85.7132 208.04 67.4602C208.04 49.2071 193.243 34.4102 174.99 34.4102C156.737 34.4102 141.94 49.2071 141.94 67.4602C141.94 85.7132 156.737 100.51 174.99 100.51Z" fill="#FEE7EB"/>
<path d="M180.38 49.3598C179.33 48.3098 177.9 47.7798 176.09 47.7798L166.68 50.1798C163.61 51.1898 162.07 52.9598 162.07 55.4898C162.07 56.8398 162.38 57.8898 163.02 58.6498C163.66 59.4098 164.28 59.9998 164.92 60.4198L171.24 58.4598V82.0898C171.24 84.0298 171.71 85.3498 172.66 86.0698C173.61 86.7798 175.11 87.1398 177.18 87.1398C178.19 87.1398 179.13 87.0798 179.99 86.9498C180.85 86.8198 181.51 86.6998 181.98 86.5698V53.6498C181.98 51.8398 181.45 50.4098 180.4 49.3498L180.38 49.3598Z" fill="#66191B"/>
<path d="M164.78 129.25L135 159.03C133.02 161.01 129.63 159.78 129.38 156.99L127.64 137.59L108.24 135.85C105.45 135.6 104.22 132.21 106.2 130.23L125.1 111.33C125.55 112.8 126.26 114.12 127.3 115.16C132.99 120.85 145.92 116.26 153.47 119.39C157.44 121.02 160.99 125.5 164.77 129.25H164.78Z" fill="#66191B"/>
<path d="M164.78 129.25L135 159.03C133.02 161.01 129.63 159.78 129.38 156.99L127.64 137.59L108.24 135.85C105.45 135.6 104.22 132.21 106.2 130.23L125.1 111.33C125.55 112.8 126.26 114.12 127.3 115.16C132.99 120.85 145.92 116.26 153.47 119.39C157.44 121.02 160.99 125.5 164.77 129.25H164.78Z" fill="#66191B"/>
<path d="M138.74 155.27L134.99 159.02C133.02 161.02 129.64 159.78 129.38 156.99L127.63 137.58L108.22 135.86C105.46 135.61 104.22 132.23 106.19 130.23L109.94 126.51C107.97 128.48 109.18 131.86 111.97 132.12L131.38 133.87L133.1 153.25C133.35 156.04 136.76 157.28 138.73 155.28L138.74 155.27Z" fill="#993D40"/>
<path d="M241.75 135.85L222.33 137.59L220.59 156.99C220.34 159.78 216.95 161.01 214.97 159.03L185.19 129.25C188.97 125.5 192.52 121.02 196.49 119.39C204.04 116.26 217 120.85 222.69 115.16C223.73 114.12 224.44 112.82 224.89 111.36L243.78 130.23C245.76 132.21 244.53 135.6 241.74 135.85H241.75Z" fill="#66191B"/>
<path d="M225.69 112.14C225.49 115.58 224.82 118.68 222.7 120.79C217.01 126.48 204.05 121.89 196.5 125.02C193.51 126.26 190.75 129.11 187.99 132.04L185.2 129.25C188.98 125.5 192.53 121.02 196.5 119.39C204.05 116.26 217.01 120.86 222.7 115.16C223.74 114.12 224.45 112.82 224.9 111.36L225.69 112.15V112.14Z" fill="#4D1719"/>
<path d="M164.78 129.24L161.99 132.03C159.23 129.1 156.5 126.25 153.48 125.01C145.93 121.88 133 126.48 127.31 120.78C125.2 118.67 124.52 115.57 124.32 112.1L125.11 111.31C125.56 112.78 126.27 114.1 127.31 115.14C133 120.83 145.93 116.24 153.48 119.37C157.45 121 161 125.48 164.78 129.23V129.24Z" fill="#4D1719"/>
<path d="M241.75 135.86L222.34 137.58L220.59 156.99C220.34 159.78 216.96 161.02 214.98 159.02L211.71 155.75C213.68 157.55 216.95 156.31 217.2 153.58L218.92 134.2L238.36 132.45C241.15 132.2 242.36 128.84 240.42 126.84L243.8 130.22C245.77 132.19 244.53 135.6 241.74 135.85L241.75 135.86Z" fill="#993D40"/>
<path d="M263.73 60.9101C257.37 60.9101 252.19 55.7401 252.19 49.3701C252.19 43.0001 257.36 37.8301 263.73 37.8301C270.1 37.8301 275.27 43.0001 275.27 49.3701C275.27 55.7401 270.1 60.9101 263.73 60.9101ZM263.73 43.3401C260.4 43.3401 257.69 46.0501 257.69 49.3801C257.69 52.7101 260.4 55.4201 263.73 55.4201C267.06 55.4201 269.77 52.7101 269.77 49.3801C269.77 46.0501 267.06 43.3401 263.73 43.3401Z" fill="#F96163"/>
<path d="M254.3 3.66988C251.25 6.28988 247.72 8.52988 244.97 11.0799C244.39 11.6899 243.58 12.4299 243.64 12.9399C243.81 12.8699 243.83 12.6499 243.9 12.4799C243.96 12.2399 243.92 12.0399 243.9 11.8199C243.86 11.7399 243.9 11.7499 243.92 11.7499C244.08 11.8599 244.27 12.0599 244.54 12.2899C249.23 16.0899 252.5 22.2999 250.87 28.4399C249.59 33.6099 244.67 37.3599 239.62 37.0799L239.41 36.5699C241.23 35.7599 242.88 34.5899 244.14 33.0799C248.44 28.3099 246.56 21.4299 242.1 17.4799C239.36 15.0999 237.04 12.5299 240.17 9.23988C244.01 5.70988 249.28 4.33988 254.18 3.12988L254.3 3.66988Z" fill="#F96163"/>
<path d="M246.43 89.6599C244.68 81.2499 252.09 73.0599 260.17 71.4399C266.75 70.0299 274.64 70.8599 279.99 75.3499C280.82 76.1499 282.1 77.9299 280.9 78.9799L280.43 78.6999C280.62 77.2599 277.76 76.8999 276.69 76.6599C271.65 75.9699 266.26 75.9099 261.29 76.7599C254.54 77.9599 248.79 83.1599 246.96 89.7699L246.42 89.6599H246.43Z" fill="#F96163"/>
<path d="M296.94 24.9799C294.62 23.8799 293.3 21.5599 293.09 19.0099C292.65 12.9299 298.14 7.51993 304.22 8.01993C305.45 8.08993 308.56 8.72993 308.04 10.4699L307.49 10.5199C307.47 10.4299 307.09 10.3599 306.72 10.4899C304.06 11.5799 301.53 13.5499 299.51 15.5199C297.2 17.9399 296.37 21.5799 297.44 24.7499L296.94 24.9799Z" fill="#F96163"/>
<path d="M296.94 60.8999C294.62 59.7999 293.3 57.4799 293.09 54.9299C292.65 48.8499 298.14 43.4398 304.22 43.9398C305.45 44.0098 308.56 44.6498 308.04 46.3898L307.49 46.4398C307.47 46.3498 307.09 46.2799 306.72 46.4099C304.06 47.4999 301.53 49.4698 299.51 51.4398C297.2 53.8598 296.37 57.4998 297.44 60.6698L296.94 60.8999Z" fill="#F96163"/>
<path d="M284.26 30.3601C284.24 30.5701 284.26 30.5501 284.27 30.7001C284.42 32.3401 282.73 33.5501 281.22 33.6101C279.43 33.7501 278.11 33.1901 276.98 32.6701C275.17 31.9601 273.51 30.9901 272.09 29.6801C271.97 29.5501 271.97 29.5901 271.81 29.3901L267.14 24.1101C270.69 22.9401 276.22 20.4001 279.95 20.2701C281.37 20.1001 285.91 20.4701 287.39 20.5001C287 23.8601 286.66 27.7701 284.25 30.3501L284.26 30.3601ZM283.72 30.2801C283.32 28.2001 282.95 26.1601 282.63 24.1301L283.25 24.5301C280.74 25.3001 278.23 26.0601 275.7 26.7801L275.96 25.9201C276.94 27.0101 278.67 28.5801 279.75 29.6401C280.79 30.6801 282.59 31.8101 283.67 30.3201L283.71 30.2601C283.73 30.2401 283.73 30.2001 283.71 30.2801H283.72Z" fill="#F96163"/>
<path d="M86.27 60.9101C79.91 60.9101 74.73 55.7401 74.73 49.3701C74.73 43.0001 79.9 37.8301 86.27 37.8301C92.64 37.8301 97.81 43.0001 97.81 49.3701C97.81 55.7401 92.64 60.9101 86.27 60.9101ZM86.27 43.3401C82.94 43.3401 80.23 46.0501 80.23 49.3801C80.23 52.7101 82.94 55.4201 86.27 55.4201C89.6 55.4201 92.31 52.7101 92.31 49.3801C92.31 46.0501 89.6 43.3401 86.27 43.3401Z" fill="#F96163"/>
<path d="M95.83 3.13008C102.37 1.87008 112.27 2.99008 115.14 10.1401C116.44 13.6701 114.54 17.5901 111.82 19.8101C110.48 21.0401 109.23 22.3701 108.26 23.8901C105.5 28.1201 107.24 32.8201 110.6 36.5601L110.39 37.0701C100.21 32.9601 100.34 22.0801 108.3 15.6401C114.24 10.9201 105.45 7.04008 101.45 5.55008C99.58 4.82008 97.65 4.19008 95.71 3.67008L95.83 3.13008Z" fill="#F96163"/>
<path d="M103.03 89.77C97.55 83.55 91.35 80.94 83.53 80.57C79.44 80.3 75.4 79.37 71.42 78.57C71.05 78.49 70.68 78.44 70.39 78.42C70.09 78.39 69.76 78.34 69.55 78.71L69.08 78.99C68.09 75.71 76.32 75.42 78.38 75.26C85.36 74.76 93.05 75.41 98.31 80.55C100.91 83 102.76 86.19 103.56 89.67L103.02 89.78L103.03 89.77Z" fill="#F96163"/>
<path d="M52.56 24.7502C50.91 21.3402 49.51 20.3302 47.25 18.4502C45.08 16.7002 43.31 14.2002 42.9 11.3402C42.9 11.0502 42.92 10.6002 42.51 10.5202L41.96 10.4702C42.57 8.59021 46.09 10.8902 47.11 11.4702C51.96 14.2202 55.59 19.3502 53.06 24.9702L52.56 24.7402V24.7502Z" fill="#F96163"/>
<path d="M52.56 60.6701C50.91 57.2601 49.51 56.2501 47.25 54.3701C45.08 52.6201 43.31 50.1201 42.9 47.2601C42.9 46.9701 42.92 46.5201 42.51 46.4401L41.96 46.3901C42.57 44.5101 46.09 46.8101 47.11 47.3901C51.96 50.1401 55.59 55.2701 53.06 60.8901L52.56 60.6601V60.6701Z" fill="#F96163"/>
<path d="M83.5 22.7399C83.48 22.9499 83.5 22.9299 83.51 23.0799C83.66 24.7199 81.97 25.9299 80.46 25.9899C78.67 26.1299 77.35 25.5699 76.22 25.0499C74.41 24.3399 72.75 23.3699 71.33 22.0599C71.21 21.9299 71.21 21.9699 71.05 21.7699L66.38 16.4899C69.93 15.3199 75.46 12.7799 79.19 12.6499C80.61 12.4799 85.15 12.8499 86.63 12.8799C86.24 16.2399 85.9 20.1499 83.49 22.7299L83.5 22.7399ZM82.96 22.6599C82.56 20.5799 82.19 18.5399 81.87 16.5099L82.49 16.9099C79.98 17.6799 77.47 18.4399 74.94 19.1599L75.2 18.2999C76.18 19.3899 77.91 20.9599 78.99 22.0199C80.03 23.0599 81.83 24.1899 82.91 22.6999L82.95 22.6399C82.97 22.6199 82.97 22.5799 82.95 22.6599H82.96Z" fill="#F96163"/>
<path d="M324.93 125.56C318.57 125.56 313.39 120.39 313.39 114.02C313.39 107.65 318.56 102.48 324.93 102.48C331.3 102.48 336.47 107.65 336.47 114.02C336.47 120.39 331.3 125.56 324.93 125.56ZM324.93 107.99C321.6 107.99 318.89 110.7 318.89 114.03C318.89 117.36 321.6 120.07 324.93 120.07C328.26 120.07 330.97 117.36 330.97 114.03C330.97 110.7 328.26 107.99 324.93 107.99Z" fill="#F96163"/>
<path d="M304.4 133.04C304.34 132.21 304.43 131.54 305.04 130.89C307.94 128.01 313.6 131.36 316.08 133.28C316.53 133.51 321.05 138.79 321.51 139.28C317.96 140.45 312.43 142.99 308.7 143.12C307.28 143.29 302.74 142.92 301.26 142.89C301.65 139.53 301.99 135.62 304.4 133.04ZM304.94 133.12C305.34 135.2 305.71 137.24 306.03 139.27L305.41 138.87C307.92 138.1 310.43 137.34 312.96 136.62L312.7 137.48C311.72 136.39 309.99 134.82 308.91 133.76C307.87 132.72 306.07 131.59 304.99 133.08L304.95 133.14C304.93 133.16 304.93 133.2 304.95 133.12H304.94Z" fill="#F96163"/>
<path d="M334.36 159.73C337.41 157.11 340.94 154.87 343.69 152.32C344.27 151.71 345.08 150.97 345.02 150.46C344.85 150.53 344.83 150.75 344.76 150.92C344.7 151.16 344.74 151.36 344.76 151.58C344.8 151.66 344.76 151.65 344.74 151.65C344.58 151.54 344.39 151.34 344.12 151.11C339.43 147.31 336.16 141.1 337.79 134.96C339.07 129.79 343.99 126.04 349.04 126.32L349.25 126.83C347.43 127.64 345.78 128.81 344.52 130.32C340.22 135.1 342.1 141.96 346.56 145.92C349.3 148.3 351.62 150.87 348.49 154.16C344.65 157.69 339.38 159.06 334.48 160.27L334.36 159.73Z" fill="#F96163"/>
<path d="M342.23 73.7399C343.98 82.1499 336.57 90.3399 328.49 91.9599C321.91 93.3699 314.02 92.5399 308.67 88.0499C307.84 87.2499 306.56 85.4699 307.76 84.4199L308.23 84.6999C308.04 86.1399 310.9 86.4999 311.97 86.7399C317.01 87.4299 322.4 87.4899 327.37 86.6399C334.12 85.4499 339.87 80.2399 341.7 73.6299L342.24 73.7399H342.23Z" fill="#F96163"/>
<path d="M291.72 138.42C294.04 139.52 295.36 141.84 295.57 144.39C296.01 150.47 290.52 155.88 284.44 155.38C283.23 155.32 280.08 154.65 280.62 152.93L281.17 152.88C281.19 152.97 281.57 153.04 281.94 152.91C284.6 151.82 287.13 149.85 289.15 147.88C291.46 145.46 292.29 141.82 291.22 138.65L291.72 138.42Z" fill="#F96163"/>
<path d="M291.72 102.5C294.04 103.6 295.36 105.92 295.57 108.47C296.01 114.55 290.52 119.96 284.44 119.46C283.23 119.4 280.08 118.73 280.62 117.01L281.17 116.96C281.19 117.05 281.57 117.12 281.94 116.99C284.6 115.9 287.13 113.93 289.15 111.96C291.46 109.54 292.29 105.9 291.22 102.73L291.72 102.5Z" fill="#F96163"/>
<path d="M23.82 69.4202C29.3 75.6402 35.5 78.2502 43.32 78.6202C47.41 78.8902 51.45 79.8202 55.43 80.6202C55.8 80.7002 56.17 80.7501 56.46 80.7701C56.76 80.8001 57.09 80.8502 57.3 80.4802L57.77 80.2001C58.76 83.4801 50.53 83.7702 48.47 83.9302C41.49 84.4302 33.8 83.7802 28.54 78.6402C25.94 76.1902 24.09 73.0001 23.29 69.5201L23.83 69.4102L23.82 69.4202Z" fill="#F96163"/>
<path d="M29.2901 124.84C22.9301 124.84 17.7501 119.67 17.7501 113.3C17.7501 106.93 22.9201 101.76 29.2901 101.76C35.6601 101.76 40.8301 106.93 40.8301 113.3C40.8301 119.67 35.6601 124.84 29.2901 124.84ZM29.2901 107.27C25.9601 107.27 23.2501 109.98 23.2501 113.31C23.2501 116.64 25.9601 119.35 29.2901 119.35C32.6201 119.35 35.3301 116.64 35.3301 113.31C35.3301 109.98 32.6201 107.27 29.2901 107.27Z" fill="#F96163"/>
<path d="M19.7302 159.55C13.1902 160.81 3.29018 159.69 0.420182 152.54C-0.879818 149.01 1.02018 145.09 3.74018 142.87C5.08018 141.64 6.33018 140.31 7.30018 138.79C10.0602 134.56 8.32018 129.86 4.96018 126.12L5.17018 125.61C15.3502 129.72 15.2202 140.6 7.26018 147.04C1.32018 151.76 10.1102 155.64 14.1102 157.13C15.9802 157.86 17.9102 158.49 19.8502 159.01L19.7302 159.55Z" fill="#F96163"/>
<path d="M62.9902 137.93C64.6402 141.34 66.0402 142.35 68.3002 144.23C70.4702 145.98 72.2402 148.48 72.6502 151.34C72.6502 151.63 72.6302 152.08 73.0402 152.16L73.5902 152.21C72.9802 154.09 69.4602 151.79 68.4402 151.21C63.5902 148.46 59.9602 143.33 62.4902 137.71L62.9902 137.94V137.93Z" fill="#F96163"/>
<path d="M48.4902 140.45C48.4702 140.66 48.4902 140.64 48.5002 140.79C48.6502 142.43 46.9602 143.64 45.4502 143.7C43.6602 143.84 42.3402 143.28 41.2102 142.76C39.4002 142.05 37.7402 141.08 36.3202 139.77C36.2002 139.64 36.2002 139.68 36.0402 139.48L31.3702 134.2C34.9202 133.03 40.4502 130.49 44.1802 130.36C45.6002 130.19 50.1402 130.56 51.6202 130.59C51.2302 133.95 50.8902 137.86 48.4802 140.44L48.4902 140.45ZM47.9502 140.37C47.5502 138.29 47.1802 136.25 46.8602 134.22L47.4802 134.62C44.9702 135.39 42.4602 136.15 39.9302 136.87L40.1902 136.01C41.1702 137.1 42.9002 138.67 43.9802 139.73C45.0202 140.77 46.8202 141.9 47.9002 140.41L47.9402 140.35C47.9602 140.33 47.9602 140.29 47.9402 140.37H47.9502Z" fill="#F96163"/>
<path d="M62.9902 102.01C64.6402 105.42 66.0402 106.43 68.3002 108.31C70.4702 110.06 72.2402 112.56 72.6502 115.42C72.6502 115.71 72.6302 116.16 73.0402 116.24L73.5902 116.29C72.9802 118.17 69.4602 115.87 68.4402 115.29C63.5902 112.54 59.9602 107.41 62.4902 101.79L62.9902 102.02V102.01Z" fill="#F96163"/>
</svg>
