<?xml version="1.0" encoding="UTF-8"?><svg id="Camada_1" xmlns="http://www.w3.org/2000/svg" viewBox="0 0 230 230"><defs><style>.cls-1{fill:#f2deb8;}.cls-2{fill:#677070;}.cls-3{fill:#f0e0c7;}.cls-4{fill:#f5c465;}.cls-5{fill:#f5d393;}.cls-6{fill:#f5dba9;}.cls-7{fill:#f5c364;}.cls-8{fill:#e6b147;}.cls-9{fill:#e6dfcf;}.cls-10{fill:#33322f;}.cls-11{fill:#bccccc;}.cls-12{fill:#a69379;}.cls-13{fill:#d1a140;}.cls-14{fill:#dedbcb;}.cls-15{fill:#deba7c;}.cls-16{fill:#dbc89e;}.cls-17{fill:#d9543f;}.cls-18{fill:#232626;}.cls-19{fill:#121414;}.cls-20{fill:#1d2121;}.cls-21{fill:#947f59;}.cls-22{fill:#6e7878;}.cls-23{fill:#63625b;}.cls-24{fill:#2f3333;}.cls-25{fill:#3a4040;}.cls-26{fill:#778282;}.cls-27{fill:#d9a198;opacity:.3;}</style></defs><g><polygon class="cls-18" points="207.55 115.76 137.89 200.5 20.87 149.63 104.5 78.09 207.55 115.76"/><path class="cls-2" d="M224.45,135.8l-73.3,89.67c-3.51,4.32-9.49,5.74-14.57,3.44L6.82,171.25c-4.14-1.84-6.82-5.95-6.82-10.49v-8.95c33.11,12.08,139.01,66.41,139.01,66.41l90.99-104.66-.5,9.18c-.26,4.78-2.03,9.35-5.05,13.07Z"/><path class="cls-11" d="M228.05,120.52l-76.52,93.07c-3.75,4.57-10.08,6.09-15.5,3.73L4.79,160.27c-5.39-2.34-6.47-9.52-2-13.34L100.42,63.41c.85-.73,2.02-.94,3.07-.55l120.88,44.18c5.54,2.03,7.42,8.92,3.67,13.48Z"/><polygon class="cls-26" points="207.55 115.76 137.89 200.5 20.87 149.63 104.5 78.09 207.55 115.76"/><polygon class="cls-22" points="207.56 115.76 137.89 200.5 136.73 199.99 203.19 119.15 102.72 82.44 23.05 150.57 20.87 149.63 104.5 78.1 207.56 115.76"/><path class="cls-20" d="M188.65,119.5c-.08,1.02-.46,2-1.09,2.81l-41.6,52.99c-5.49,6.84-14.92,9.09-22.91,5.49l-74.32-33.5c-1.95-.88-3.21-2.81-3.23-4.95l-.03-3.03,65.09-50.18,78.54,24.43-.45,5.95Z"/><path class="cls-24" d="M188.7,115.27l-44.52,54.15c-4.9,5.97-13.17,7.96-20.25,4.88l-77.73-33.79c-.77-.34-.92-1.36-.29-1.91l63.91-54.67,78.12,28.55c1.14,.42,1.53,1.84,.76,2.78Z"/><path class="cls-27" d="M180.89,121.29l-38.6,40.31c-4.25,4.44-11.42,5.92-17.56,3.63l-67.4-25.15c-.67-.25-.8-1.01-.25-1.42l55.42-40.69,67.74,21.26c.99,.31,1.33,1.37,.66,2.07Z"/><path class="cls-17" d="M180.88,119.61l-39.64,38.01c-4.37,4.19-11.73,5.58-18.03,3.42l-69.21-23.72c-.69-.24-.82-.96-.25-1.34l56.91-38.37,69.56,20.04c1.02,.29,1.36,1.29,.68,1.95Z"/><polygon class="cls-20" points="124.21 174.33 126.34 154.41 133.52 153.41 143.44 170.07 135.26 179.2 124.21 174.33"/><polygon class="cls-19" points="134.33 178.79 122.91 174.33 125.04 154.42 132.23 153.41 132.32 153.58 126.34 154.42 124.21 174.33 134.33 178.79"/><polygon class="cls-25" points="143.45 170.07 134.33 178.79 142.14 170.07 132.32 153.58 133.52 153.41 143.45 170.07"/></g><g><path class="cls-12" d="M203.82,91.51c9.31,21.13-25.02,70.09-84.83,68.09-91.76-3.06-104.59-26.21-108.67-60.59-3.24-27.32,43.08-50.17,96.72-50.6,53.64-.43,85.7,17.92,96.79,43.1Z"/><ellipse class="cls-21" cx="106.56" cy="99.22" rx="96.21" ry="45.93" transform="translate(-.8 .87) rotate(-.46)"/><ellipse class="cls-3" cx="106.7" cy="92.29" rx="97.12" ry="49.82" transform="translate(-.74 .87) rotate(-.46)"/><ellipse class="cls-16" cx="105.25" cy="93.93" rx="93.74" ry="44.82" transform="translate(-.76 .85) rotate(-.46)"/><ellipse class="cls-9" cx="105.3" cy="99.62" rx="88.57" ry="39.14" transform="translate(-.8 .85) rotate(-.46)"/><polygon class="cls-23" points="247.44 143.66 185.06 127.7 199.65 113.35 244.73 121.88 247.44 143.66"/><polygon class="cls-10" points="247.01 140.23 186.91 126.39 198.76 114.66 244.9 123.22 247.01 140.23"/><polygon class="cls-14" points="247.66 145.43 183.79 128.56 185.06 127.7 247.44 143.66 247.66 145.43"/></g><g><path class="cls-5" d="M67.99,100.61s-6.79-16.03,15.53-15.86c22.32,.17,16.11-.15,26.98-2.74s32.55-.19,33.19,5.65c.65,5.84-2.43,19.59-14.72,19.75-12.29,.16,.32,9.38-24.75,7.12s-36.72-8.25-36.23-13.91Z"/><g><g><path class="cls-13" d="M86.86,92.71s1.04,5.78,3.31,6.54c14.18,4.78,10.93,4.49,11.21,2.6,.28-1.89-.53-4.44-.53-4.44"/><path class="cls-4" d="M118.85,90.17l-.11,9.14c-1.48,4.73-9.52,4.26-17.54,3.8l-.34-5.7,17.99-7.24Z"/><path class="cls-8" d="M86.86,92.71s3.54,4.06,10.39,4.53c23.73,1.61,21.6-7.07,21.6-7.07-7.69-2.31-19.29,2.54-31.99,2.54Z"/></g><path class="cls-7" d="M100.98,96.58s5.61,.16,9.01-1.53c3.19-1.59,4.89-3.35,1.98-2.28-2.91,1.07-6.13,3.18-10.99,3.81Z"/><path class="cls-6" d="M102.35,100.68s1.1,.99,3.36,.5c2.26-.49,2.51-1.15,2.51-1.15,0,0-3.42-.12-4.45-.27s-1.42,.92-1.42,.92Z"/></g><g><circle class="cls-15" cx="74.11" cy="90.32" r="1.34"/><circle class="cls-1" cx="74.11" cy="90.32" r=".89"/></g><g><circle class="cls-15" cx="70.76" cy="92.47" r=".81"/><circle class="cls-1" cx="70.76" cy="92.47" r=".53"/></g><g><circle class="cls-15" cx="117.07" cy="104.63" r="1.4"/><circle class="cls-1" cx="117.07" cy="104.63" r=".93"/></g><g><circle class="cls-15" cx="116.49" cy="108.33" r="1.68"/><circle class="cls-1" cx="116.49" cy="108.33" r="1.11"/></g><g><circle class="cls-15" cx="79.32" cy="104.63" r="1.52"/><circle class="cls-1" cx="79.32" cy="104.63" r="1"/></g><g><circle class="cls-15" cx="87.38" cy="107.16" r="1.52"/><circle class="cls-1" cx="87.38" cy="107.16" r="1"/></g><g><circle class="cls-15" cx="93.5" cy="88.51" r="1.4"/><circle class="cls-1" cx="93.5" cy="88.51" r=".93"/></g><g><circle class="cls-15" cx="96.19" cy="86.54" r=".85"/><circle class="cls-1" cx="96.19" cy="86.54" r=".56"/></g><g><circle class="cls-15" cx="81.75" cy="107.76" r=".91"/><circle class="cls-1" cx="81.75" cy="107.76" r=".6"/></g><g><circle class="cls-15" cx="76.15" cy="87.98" r=".81"/><circle class="cls-1" cx="76.15" cy="87.98" r=".53"/></g><g><circle class="cls-15" cx="127.65" cy="84.05" r="1.34"/><circle class="cls-1" cx="127.65" cy="84.05" r=".89"/></g><g><circle class="cls-15" cx="131.25" cy="85.73" r=".81"/><circle class="cls-1" cx="131.25" cy="85.73" r=".53"/></g><g><circle class="cls-15" cx="124.58" cy="83.57" r=".81"/><circle class="cls-1" cx="124.58" cy="83.57" r=".53"/></g><g><circle class="cls-15" cx="133.47" cy="102.67" r="1.34"/><circle class="cls-1" cx="133.47" cy="102.67" r=".89"/></g><g><circle class="cls-15" cx="137.18" cy="101.23" r=".81"/><circle class="cls-1" cx="137.18" cy="101.23" r=".53"/></g><g><circle class="cls-15" cx="135.62" cy="97.92" r=".81"/><circle class="cls-1" cx="135.62" cy="97.92" r=".53"/></g><g><circle class="cls-15" cx="131" cy="104.55" r=".81"/><circle class="cls-1" cx="131" cy="104.55" r=".53"/></g><g><circle class="cls-15" cx="138.25" cy="96.78" r=".81"/><circle class="cls-1" cx="138.25" cy="96.78" r=".53"/></g></g></svg>