<svg width="33" height="33" viewBox="0 0 33 33" fill="none" xmlns="http://www.w3.org/2000/svg">
<g clip-path="url(#clip0_170_8967)">
<path d="M16.1717 23.8283C18.9566 23.8283 21.2142 21.6031 21.2142 18.8582C21.2142 16.1134 18.9566 13.8882 16.1717 13.8882C13.3868 13.8882 11.1292 16.1134 11.1292 18.8582C11.1292 21.6031 13.3868 23.8283 16.1717 23.8283Z" fill="white"/>
<path d="M29.6252 7.06429H24.2146V5.41423C24.2146 4.04249 23.085 2.9292 21.6933 2.9292H10.5997C9.20794 2.9292 8.07841 4.04249 8.07841 5.41423V7.06429H2.66776C1.27097 7.06429 0.146484 8.17758 0.146484 9.54932V26.6364C0.146484 28.0081 1.27097 29.1214 2.66776 29.1214H29.6252C31.017 29.1214 32.1465 28.0081 32.1465 26.6364V9.54932C32.1465 8.17758 31.017 7.06429 29.6252 7.06429ZM16.1717 26.8103C11.7191 26.8103 8.10362 23.2518 8.10362 18.8582C8.10362 14.4647 11.7191 10.9061 16.1717 10.9061C20.6243 10.9061 24.2398 14.4647 24.2398 18.8582C24.2398 23.2518 20.6293 26.8103 16.1717 26.8103Z" fill="white"/>
<path d="M16.1717 23.8283C18.9566 23.8283 21.2142 21.6031 21.2142 18.8582C21.2142 16.1134 18.9566 13.8882 16.1717 13.8882C13.3868 13.8882 11.1292 16.1134 11.1292 18.8582C11.1292 21.6031 13.3868 23.8283 16.1717 23.8283Z" fill="white"/>
<path d="M16.1717 23.8283C18.9566 23.8283 21.2142 21.6031 21.2142 18.8582C21.2142 16.1134 18.9566 13.8882 16.1717 13.8882C13.3868 13.8882 11.1292 16.1134 11.1292 18.8582C11.1292 21.6031 13.3868 23.8283 16.1717 23.8283Z" fill="white"/>
</g>
<defs>
<clipPath id="clip0_170_8967">
<rect width="32" height="32" fill="white" transform="translate(0.146484 0.0253906)"/>
</clipPath>
</defs>
</svg>
