<svg width="120" height="102" viewBox="0 0 120 102" fill="none" xmlns="http://www.w3.org/2000/svg">
<path fill-rule="evenodd" clip-rule="evenodd" d="M60.086 35.1549C49.4946 35.1549 41.0362 43.598 41.0362 53.8569C41.0362 64.1158 49.4946 72.5589 60.086 72.5589C70.6773 72.5589 79.1357 64.1158 79.1357 53.8569C79.1357 43.598 70.6773 35.1549 60.086 35.1549ZM30.7505 53.8569C30.7505 37.7774 43.9549 24.8691 60.086 24.8691C76.2171 24.8691 89.4215 37.7774 89.4215 53.8569C89.4215 69.9363 76.2171 82.8446 60.086 82.8446C43.9549 82.8446 30.7505 69.9363 30.7505 53.8569Z" fill="#F96163"/>
<path fill-rule="evenodd" clip-rule="evenodd" d="M27.1952 14.619C27.1952 7.00565 33.4408 0.956055 40.9824 0.956055H79.0176C86.5592 0.956055 92.8048 7.00565 92.8048 14.619C92.8048 14.9032 93.0352 15.1335 93.3193 15.1335H106.213C113.754 15.1335 120 21.1831 120 28.7965V87.3807C120 94.9941 113.754 101.044 106.213 101.044H13.7872C6.22163 101.044 0 94.9874 0 87.3807V28.7965C0 21.1898 6.22163 15.1335 13.7872 15.1335H26.6807C26.9648 15.1335 27.1952 14.9032 27.1952 14.619ZM40.9824 11.2418C38.9806 11.2418 37.4809 12.8262 37.4809 14.619C37.4809 20.5838 32.6455 25.4192 26.6807 25.4192H13.7872C11.7749 25.4192 10.2857 26.997 10.2857 28.7965V87.3807C10.2857 89.1802 11.7749 90.758 13.7872 90.758H106.213C108.215 90.758 109.714 89.1735 109.714 87.3807V28.7965C109.714 27.0036 108.215 25.4192 106.213 25.4192H93.3193C87.3545 25.4192 82.5191 20.5838 82.5191 14.619C82.5191 12.8262 81.0194 11.2418 79.0176 11.2418H40.9824Z" fill="#F96163"/>
</svg>
