<svg width="33" height="32" viewBox="0 0 33 32" fill="none" xmlns="http://www.w3.org/2000/svg">
<g clip-path="url(#clip0_516_10351)">
<path d="M5.57469 31.9999H4.86091C2.45712 31.9999 0.5 30.0428 0.5 27.639V24.0057C0.5 21.6019 2.45712 19.6448 4.86091 19.6448H5.57469C7.97848 19.6448 9.9356 21.6019 9.9356 24.0057V27.639C9.9356 30.0428 7.97848 31.9999 5.57469 31.9999Z" fill="#F96163"/>
<path d="M16.8569 31.9999H16.1431C13.7393 31.9999 11.7822 30.0428 11.7822 27.639V14.1878C11.7822 11.784 13.7393 9.8269 16.1431 9.8269H16.8569C19.2607 9.8269 21.2178 11.784 21.2178 14.1878V27.639C21.2178 30.0428 19.2607 31.9999 16.8569 31.9999Z" fill="#F96163"/>
<path d="M28.1391 32H27.4254C25.0216 32 23.0645 30.0429 23.0645 27.6391V4.36092C23.0645 1.95712 25.0216 0 27.4254 0H28.1391C30.5429 0 32.5001 1.95712 32.5001 4.36092V27.6391C32.5001 30.0429 30.5429 32 28.1391 32ZM27.4254 2.52813C26.4169 2.52813 25.5972 3.34782 25.5972 4.35631V27.6345C25.5972 28.643 26.4169 29.4627 27.4254 29.4627H28.1391C29.1476 29.4627 29.9673 28.643 29.9673 27.6345V4.35631C29.9673 3.34782 29.1476 2.52813 28.1391 2.52813H27.4254V2.52813Z" fill="#F96163"/>
</g>
<defs>
<clipPath id="clip0_516_10351">
<rect width="32" height="32" fill="white" transform="translate(0.5)"/>
</clipPath>
</defs>
</svg>
