<svg width="221" height="213" viewBox="0 0 221 213" fill="none" xmlns="http://www.w3.org/2000/svg">
<g clip-path="url(#clip0_1034_12649)">
<g clip-path="url(#clip1_1034_12649)">
<path d="M189.231 154.706C187.488 160.823 181.096 164.388 174.97 162.642C168.844 160.896 165.288 154.507 167.034 148.381C168.78 142.255 175.169 138.7 181.295 140.446C187.421 142.191 190.976 148.58 189.231 154.706ZM172.333 149.891C171.421 153.094 173.284 156.443 176.487 157.355C179.689 158.268 183.038 156.404 183.951 153.202C184.863 149.999 183 146.65 179.797 145.738C176.595 144.825 173.246 146.689 172.333 149.891Z" fill="#F9941F"/>
<path d="M190.797 176.5C189.983 176.33 189.363 176.06 188.905 175.296C186.93 171.717 191.703 167.192 194.229 165.333C194.574 164.963 200.89 162.064 201.488 161.755C201.64 165.49 202.567 171.505 201.67 175.127C201.444 176.54 199.844 180.804 199.41 182.219C196.285 180.924 192.618 179.525 190.797 176.5V176.5ZM191.022 176.003C193.132 176.188 195.196 176.391 197.236 176.64L196.681 177.127C196.628 174.502 196.585 171.88 196.586 169.249L197.342 169.735C196.025 170.379 194.041 171.612 192.726 172.36C191.441 173.075 189.861 174.497 190.998 175.944L191.044 175.999C191.058 176.023 191.096 176.034 191.025 175.993L191.022 176.003Z" fill="#F9941F"/>
<path d="M224.679 154.992C222.995 151.341 221.809 147.332 220.11 143.989C219.682 143.264 219.192 142.282 218.686 142.2C218.706 142.383 218.912 142.462 219.057 142.576C219.271 142.7 219.474 142.716 219.691 142.757C219.779 142.74 219.759 142.776 219.753 142.795C219.604 142.919 219.359 143.047 219.064 143.244C214.124 146.713 207.256 148.156 201.798 144.905C197.176 142.257 194.918 136.498 196.571 131.718L197.12 131.656C197.4 133.628 198.073 135.536 199.18 137.161C202.598 142.607 209.711 142.679 214.741 139.475C217.781 137.492 220.889 135.965 223.195 139.877C225.537 144.537 225.411 149.981 225.231 155.025L224.679 154.992V154.992Z" fill="#F9941F"/>
<path d="M144.136 123.867C152.703 124.489 158.549 133.86 157.892 142.074C157.445 148.789 154.485 156.149 148.7 160.064C147.703 160.643 145.641 161.386 144.96 159.944L145.358 159.569C146.691 160.146 147.821 157.495 148.345 156.531C150.39 151.873 151.925 146.706 152.469 141.694C153.175 134.876 149.74 127.918 143.884 124.347L144.138 123.857L144.136 123.867Z" fill="#F9941F"/>
<path d="M192.499 190.16C194.193 188.23 196.786 187.596 199.296 188.093C205.264 189.336 208.962 196.099 206.815 201.809C206.426 202.956 204.918 205.802 203.412 204.811L203.514 204.269C203.606 204.274 203.778 203.928 203.754 203.536C203.435 200.679 202.234 197.706 200.893 195.224C199.199 192.339 195.925 190.543 192.584 190.704L192.499 190.16V190.16Z" fill="#F9941F"/>
<path d="M157.954 180.315C159.648 178.386 162.241 177.752 164.751 178.249C170.719 179.492 174.417 186.255 172.27 191.965C171.881 193.112 170.373 195.958 168.867 194.967L168.97 194.424C169.062 194.43 169.233 194.084 169.209 193.692C168.89 190.835 167.689 187.862 166.348 185.38C164.654 182.495 161.38 180.699 158.039 180.859L157.954 180.315V180.315Z" fill="#F9941F"/>
</g>
<g clip-path="url(#clip2_1034_12649)">
<path d="M176.421 59.2682C172.833 64.52 165.643 65.8813 160.383 62.2883C155.123 58.6954 153.77 51.5102 157.363 46.2502C160.955 40.9902 168.141 39.6371 173.401 43.2301C178.661 46.823 180.014 54.0082 176.421 59.2682ZM161.912 49.358C160.034 52.1078 160.743 55.8741 163.493 57.7523C166.243 59.6306 170.009 58.9214 171.887 56.1716C173.766 53.4219 173.056 49.6556 170.307 47.7773C167.557 45.8991 163.791 46.6083 161.912 49.358Z" fill="#F9941F"/>
<path d="M171.018 80.4397C170.299 80.0211 169.796 79.5689 169.604 78.6986C168.861 74.6795 174.82 71.8953 177.804 70.9304C178.248 70.6885 185.157 69.9343 185.821 69.8308C184.785 73.4221 183.763 79.4212 181.767 82.5746C181.106 83.843 178.24 87.3832 177.38 88.5884C174.826 86.3712 171.789 83.885 171.018 80.4397V80.4397ZM171.389 80.039C173.332 80.8819 175.225 81.727 177.082 82.6077L176.402 82.8941C177.182 80.3872 177.97 77.8859 178.802 75.3906L179.366 76.0904C177.913 76.2848 175.641 76.8278 174.156 77.1217C172.711 77.3939 170.763 78.2429 171.384 79.9751L171.411 80.042C171.416 80.0698 171.449 80.0923 171.394 80.0307L171.389 80.039Z" fill="#F9941F"/>
<path d="M209.961 70.7464C209.518 66.7501 209.659 62.5718 209.105 58.8627C208.928 58.0397 208.774 56.9534 208.319 56.7153C208.281 56.8952 208.451 57.0358 208.552 57.1895C208.717 57.3744 208.904 57.4542 209.097 57.5617C209.186 57.5738 209.155 57.6012 209.144 57.6177C208.963 57.6878 208.691 57.7319 208.348 57.8251C202.565 59.5545 195.593 58.752 191.442 53.9428C187.895 49.9698 187.573 43.792 190.653 39.7799L191.193 39.8941C190.835 41.8539 190.87 43.8763 191.407 45.7684C192.928 52.0152 199.653 54.3321 205.439 52.8829C208.95 51.9628 212.38 51.4966 213.332 55.9369C214.081 61.0988 212.239 66.2233 210.475 70.9519L209.961 70.7464V70.7464Z" fill="#F9941F"/>
<path d="M143.389 15.7541C151.32 19.0527 153.904 29.7909 150.684 37.3767C148.137 43.6054 143.001 49.6524 136.276 51.5376C135.147 51.7718 132.955 51.8248 132.765 50.2416L133.261 50.0114C134.343 50.9806 136.254 48.822 137.056 48.0738C140.468 44.3012 143.558 39.8843 145.659 35.3009C148.484 29.0559 147.425 21.3692 142.999 16.1298L143.394 15.7459L143.389 15.7541Z" fill="#F9941F"/>
<path d="M168.314 93.9366C170.531 92.6413 173.191 92.8599 175.415 94.1248C180.684 97.1908 182.054 104.776 178.212 109.514C177.48 110.479 175.15 112.703 174.034 111.287L174.303 110.804C174.389 110.838 174.661 110.564 174.762 110.185C175.363 107.374 175.163 104.174 174.676 101.395C173.98 98.1221 171.443 95.3836 168.222 94.4792L168.314 93.9366V93.9366Z" fill="#F9941F"/>
<path d="M138.653 73.6761C140.87 72.3808 143.53 72.5994 145.754 73.8643C151.023 76.9303 152.394 84.5151 148.552 89.2537C147.819 90.219 145.49 92.4422 144.374 91.0261L144.643 90.5437C144.728 90.578 145 90.3037 145.102 89.9248C145.702 87.1136 145.502 83.9133 145.015 81.1341C144.32 77.8616 141.782 75.1232 138.561 74.2187L138.653 73.6761V73.6761Z" fill="#F9941F"/>
</g>
<g clip-path="url(#clip3_1034_12649)">
<path d="M88.8835 124.393C93.3552 119.87 100.674 119.822 105.203 124.301C109.733 128.779 109.774 136.091 105.295 140.62C100.817 145.15 93.5052 145.191 88.9756 140.713C84.446 136.234 84.4047 128.922 88.8835 124.393ZM101.377 136.746C103.719 134.378 103.697 130.546 101.329 128.205C98.9612 125.863 95.1287 125.885 92.7874 128.253C90.446 130.621 90.4676 134.453 92.8355 136.795C95.2035 139.136 99.0359 139.114 101.377 136.746Z" fill="#F9941F"/>
<path d="M97.9992 104.535C98.6316 105.076 99.0448 105.611 99.0781 106.502C99.087 110.589 92.7253 112.258 89.6163 112.672C89.1363 112.83 82.2038 112.332 81.5319 112.314C83.196 108.967 85.278 103.249 87.8081 100.505C88.6857 99.3761 92.1409 96.4079 93.2028 95.3766C95.3178 98.0163 97.8591 101.007 97.9992 104.535V104.535ZM97.5627 104.863C95.8024 103.685 94.0916 102.513 92.4231 101.314L93.1435 101.154C91.9262 103.48 90.7018 105.799 89.4349 108.105L89.0062 107.315C90.4703 107.385 92.8031 107.258 94.3162 107.236C95.787 107.227 97.8561 106.742 97.5559 104.926L97.5414 104.856C97.5412 104.827 97.5128 104.799 97.5556 104.87L97.5627 104.863Z" fill="#F9941F"/>
<path d="M57.9485 107.08C57.6671 111.091 56.7779 115.176 56.6577 118.925C56.6836 119.766 56.6403 120.862 57.0452 121.178C57.1149 121.008 56.9725 120.839 56.9009 120.67C56.7724 120.458 56.602 120.346 56.4315 120.206C56.3465 120.178 56.3818 120.157 56.3958 120.142C56.5865 120.106 56.8624 120.111 57.2157 120.081C63.2154 119.418 69.9304 121.459 73.1504 126.935C75.9268 131.48 75.134 137.616 71.3843 141.01L70.8739 140.8C71.5776 138.937 71.9058 136.941 71.718 134.983C71.3423 128.565 65.1424 125.078 59.1907 125.465C55.5718 125.74 52.1131 125.583 51.9744 121.044C52.1642 115.832 54.8953 111.121 57.4801 106.786L57.9485 107.08V107.08Z" fill="#F9941F"/>
<path d="M113.568 173.129C106.358 168.461 105.744 157.433 110.273 150.549C113.897 144.878 120.035 139.851 126.989 139.204C128.141 139.176 130.307 139.518 130.21 141.109L129.681 141.247C128.79 140.099 126.523 141.88 125.6 142.472C121.566 145.57 117.734 149.361 114.844 153.493C110.944 159.129 110.606 166.881 114.019 172.83L113.561 173.137L113.568 173.129Z" fill="#F9941F"/>
<path d="M103.082 91.7428C100.669 92.6191 98.0911 91.9265 96.1302 90.2829C91.4974 86.3209 91.5105 78.6133 96.1409 74.6414C97.0344 73.8232 99.7256 72.0544 100.569 73.6477L100.218 74.074C100.14 74.0249 99.8228 74.2459 99.6551 74.6004C98.5599 77.2583 98.1819 80.4424 98.1624 83.2639C98.2591 86.6081 100.264 89.7576 103.27 91.2256L103.082 91.7428V91.7428Z" fill="#F9941F"/>
<path d="M128.624 116.998C126.211 117.875 123.633 117.182 121.672 115.539C117.039 111.577 117.053 103.869 121.683 99.897C122.576 99.0788 125.268 97.31 126.111 98.9033L125.76 99.3296C125.682 99.2805 125.365 99.5015 125.197 99.856C124.102 102.514 123.724 105.698 123.704 108.52C123.801 111.864 125.806 115.013 128.812 116.481L128.624 116.998V116.998Z" fill="#F9941F"/>
</g>
<g clip-path="url(#clip4_1034_12649)">
<path d="M51.582 45.7026C57.9255 46.1609 62.7194 51.6908 62.2604 58.0442C61.8013 64.3976 56.2722 69.1816 49.9187 68.7226C43.5653 68.2635 38.7813 62.7344 39.2404 56.3809C39.6994 50.0275 45.2286 45.2435 51.582 45.7026ZM50.3158 63.2269C53.6371 63.4669 56.5354 60.9592 56.7754 57.6379C57.0154 54.3165 54.5077 51.4183 51.1864 51.1783C47.865 50.9383 44.9668 53.446 44.7268 56.7673C44.4868 60.0886 46.9945 62.9869 50.3158 63.2269Z" fill="#F9941F"/>
<path d="M72.5981 39.7216C72.5981 40.5537 72.4601 41.2155 71.8048 41.8199C68.7048 44.4834 63.301 40.7342 60.9658 38.6405C60.5335 38.3786 56.4058 32.7866 55.9823 32.2647C59.6074 31.3536 65.3061 29.2188 69.0357 29.3579C70.4643 29.2907 74.9658 29.9869 76.4398 30.1235C75.8087 33.4466 75.1878 37.322 72.5981 39.7216V39.7216ZM72.0653 39.6029C71.8162 37.4994 71.5942 35.4381 71.4213 33.3903L72.0109 33.8339C69.4519 34.4211 66.8937 34.9982 64.3184 35.534L64.6397 34.695C65.5386 35.8528 67.1509 37.5434 68.1517 38.6784C69.1141 39.7907 70.828 41.0475 72.0125 39.6392L72.0567 39.5822C72.0781 39.5637 72.081 39.5238 72.0553 39.6021L72.0653 39.6029Z" fill="#F9941F"/>
<path d="M44.6295 10.941C41.3986 13.3344 37.7164 15.3142 34.7897 17.6594C34.1673 18.226 33.3061 18.9057 33.3292 19.4187C33.5038 19.3611 33.5396 19.1431 33.6216 18.9786C33.6988 18.7436 33.6733 18.5412 33.6692 18.3203C33.6351 18.2377 33.6742 18.2505 33.6942 18.252C33.8458 18.3732 34.0209 18.5864 34.2737 18.8352C38.6776 22.9633 41.4916 29.3929 39.4233 35.3994C37.7741 40.4637 32.5966 43.8494 27.5799 43.2062L27.4072 42.6824C29.2809 42.0057 31.0109 40.9576 32.3764 39.5424C37.0097 35.0847 35.629 28.107 31.466 23.8359C28.9046 21.2646 26.7759 18.5341 30.1348 15.4782C34.2192 12.2341 39.5743 11.2475 44.5487 10.3938L44.6295 10.941V10.941Z" fill="#F9941F"/>
<path d="M30.5927 96.1411C29.4533 87.6269 37.4342 79.9922 45.61 78.9587C52.2745 78.0266 60.0842 79.423 65.0967 84.2869C65.8669 85.1446 67.0152 87.0122 65.7427 87.973L65.2941 87.6599C65.5874 86.2373 62.7608 85.6721 61.7108 85.3557C56.7337 84.3042 51.362 83.856 46.3437 84.3456C39.5255 85.046 33.4149 89.8281 31.1133 96.289L30.5827 96.1404L30.5927 96.1411Z" fill="#F9941F"/>
<path d="M85.6227 35.2686C83.388 34.0043 82.2386 31.5952 82.213 29.0367C82.2123 22.9408 88.0779 17.9405 94.106 18.8774C95.3086 19.0244 98.4021 19.9197 97.7395 21.5963L97.1874 21.6065C97.1739 21.5153 96.7999 21.4181 96.4215 21.5211C93.6899 22.4166 91.0245 24.1991 88.8678 26.0184C86.3894 28.2657 85.2992 31.8364 86.138 35.0753L85.6227 35.2686V35.2686Z" fill="#F9941F"/>
<path d="M83.0338 71.095C80.7991 69.8307 79.6498 67.4216 79.6241 64.8631C79.6234 58.7672 85.489 53.7669 91.5172 54.7038C92.7197 54.8508 95.8132 55.7461 95.1507 57.4227L94.5985 57.4329C94.585 57.3417 94.2111 57.2445 93.8327 57.3475C91.101 58.243 88.4356 60.0255 86.2789 61.8448C83.8005 64.0921 82.7104 67.6628 83.5491 70.9017L83.0338 71.095V71.095Z" fill="#F9941F"/>
</g>
</g>
<defs>
<clipPath id="clip0_1034_12649">
<rect width="220.212" height="212.027" fill="white" transform="translate(0.389648 0.701904)"/>
</clipPath>
<clipPath id="clip1_1034_12649">
<rect width="69.43" height="86.64" fill="white" transform="translate(127.131 183.136) rotate(-74.0941)"/>
</clipPath>
<clipPath id="clip2_1034_12649">
<rect width="69.43" height="86.64" fill="white" transform="translate(108.519 66.6077) rotate(-55.6643)"/>
</clipPath>
<clipPath id="clip3_1034_12649">
<rect width="69.43" height="86.64" fill="white" transform="translate(157 129.361) rotate(134.677)"/>
</clipPath>
<clipPath id="clip4_1034_12649">
<rect width="69.43" height="86.64" fill="white" transform="translate(92.0845 100.694) rotate(-175.867)"/>
</clipPath>
</defs>
</svg>
