<svg width="33" height="33" viewBox="0 0 33 33" fill="none" xmlns="http://www.w3.org/2000/svg">
<g clip-path="url(#clip0_170_8946)">
<path d="M16.555 20.0504L11.586 21.1436C11.1554 20.8123 10.7744 20.3817 10.4432 19.8516C10.1119 19.2885 9.94628 18.6425 9.94628 17.9137C9.94628 17.185 10.145 16.6218 10.5426 16.2243C10.9401 15.8268 11.5695 15.5121 12.4308 15.2802L16.0581 14.3858C17.6151 13.9551 18.7911 13.3588 19.5861 12.5969C20.4143 11.835 20.8284 10.8081 20.8284 9.51616C20.8284 8.38985 20.3811 7.39605 19.4867 6.53476C18.5923 5.67347 17.1513 5.24283 15.1637 5.24283C13.8387 5.24283 12.5302 5.44159 11.2382 5.83911C9.97941 6.2035 8.96904 6.66727 8.20713 7.23042C7.77649 6.89916 7.4121 6.48507 7.11396 5.98817C6.81582 5.49127 6.66675 4.94469 6.66675 4.34841C6.66675 2.99022 7.52804 1.93017 9.25062 1.16826C10.9732 0.406346 13.1596 0.0253906 15.8097 0.0253906C18.2279 0.0253906 20.2818 0.439473 21.9712 1.26764C23.6938 2.06268 25.0023 3.17241 25.8967 4.59686C26.8243 6.0213 27.288 7.66107 27.288 9.51616C27.288 12.3319 26.3936 14.6011 24.6048 16.3237C22.816 18.0131 20.1327 19.2554 16.555 20.0504ZM10.5426 28.3486C10.5426 27.2554 10.8738 26.361 11.5364 25.6654C12.232 24.9697 13.143 24.6219 14.2693 24.6219C15.3956 24.6219 16.29 24.9697 16.9525 25.6654C17.6482 26.361 17.996 27.2554 17.996 28.3486C17.996 29.4087 17.6482 30.2865 16.9525 30.9822C16.29 31.6778 15.3956 32.0257 14.2693 32.0257C13.143 32.0257 12.232 31.6778 11.5364 30.9822C10.8738 30.2865 10.5426 29.4087 10.5426 28.3486Z" fill="white"/>
</g>
<defs>
<clipPath id="clip0_170_8946">
<rect width="32" height="32" fill="white" transform="translate(0.977295 0.0253906)"/>
</clipPath>
</defs>
</svg>
