<svg width="32" height="32" viewBox="0 0 32 32" fill="none" xmlns="http://www.w3.org/2000/svg">
<g clip-path="url(#clip0_224_6058)">
<path d="M30.99 13.56L28.07 10.645C28.74 10.26 29.325 9.725 29.765 9.06C30.845 7.435 30.835 5.255 29.745 3.635C28.91 2.39 27.585 1.6 26.11 1.455C24.64 1.315 23.195 1.83 22.15 2.875C21.835 3.195 21.565 3.545 21.35 3.925L18.435 1.01C17.785 0.36 16.92 0 16 0H15.995C15.075 0 14.21 0.36 13.56 1.01L10.22 4.35C9.76 4.805 9.555 5.46 9.675 6.095C9.79 6.74 10.225 7.29 10.83 7.565C11.1 7.685 11.345 7.855 11.555 8.07C12.055 8.57 12.315 9.26 12.275 9.965C12.23 10.68 11.89 11.32 11.32 11.765C10.455 12.44 9.2 12.45 8.335 11.79C7.995 11.53 7.735 11.21 7.565 10.835C7.29 10.225 6.735 9.795 6.09 9.675C5.455 9.56 4.8 9.765 4.345 10.225L1.005 13.56C-0.335 14.905 -0.335 17.095 1.005 18.44L3.925 21.355C3.54 21.575 3.185 21.84 2.87 22.16C1.825 23.205 1.305 24.65 1.45 26.125C1.59 27.595 2.39 28.92 3.635 29.76C5.255 30.85 7.435 30.85 9.06 29.765C9.73 29.32 10.265 28.74 10.645 28.08L13.56 30.99C14.23 31.665 15.115 32 16 32C16.885 32 17.765 31.665 18.435 30.99L21.775 27.65C22.235 27.195 22.44 26.54 22.325 25.905C22.205 25.26 21.775 24.71 21.17 24.435C20.9 24.315 20.655 24.145 20.44 23.93C19.94 23.435 19.68 22.745 19.725 22.035C19.765 21.32 20.105 20.68 20.675 20.235C21.54 19.56 22.795 19.55 23.665 20.21C24 20.47 24.26 20.79 24.435 21.17C24.71 21.775 25.26 22.205 25.91 22.325C26.545 22.44 27.195 22.235 27.65 21.78L30.99 18.44C31.64 17.79 32 16.925 32 16.005C32 15.085 31.64 14.215 30.99 13.56ZM28.895 16.345L26.435 18.805C26.15 18.455 25.825 18.135 25.455 17.855C24.535 17.155 23.375 16.77 22.19 16.77C21.005 16.77 19.785 17.17 18.85 17.9C17.62 18.865 16.86 20.305 16.765 21.855C16.675 23.41 17.25 24.93 18.345 26.025C18.49 26.17 18.645 26.31 18.805 26.435L16.345 28.895C16.25 28.99 16.13 29.04 16 29.04C15.87 29.04 15.745 28.99 15.655 28.895L11.275 24.52C10.95 24.195 10.515 24.015 10.05 24.015C9.83 24.015 9.615 24.055 9.41 24.135C8.77 24.39 8.34 25.005 8.32 25.695C8.305 26.345 7.975 26.935 7.415 27.305C7.105 27.51 6.74 27.62 6.355 27.62C5.97 27.62 5.6 27.51 5.285 27.3C4.77 26.955 4.455 26.435 4.395 25.835C4.34 25.25 4.545 24.67 4.965 24.255C5.32 23.895 5.795 23.69 6.305 23.675C6.995 23.655 7.61 23.23 7.865 22.585C8.12 21.945 7.97 21.21 7.48 20.725L3.1 16.345C2.91 16.155 2.91 15.845 3.1 15.655L5.565 13.195C5.845 13.55 6.175 13.87 6.54 14.15C7.46 14.85 8.62 15.235 9.81 15.235C11 15.235 12.21 14.83 13.145 14.1C14.375 13.135 15.135 11.695 15.23 10.145C15.325 8.595 14.75 7.075 13.65 5.975C13.505 5.83 13.35 5.69 13.19 5.565L15.655 3.105C15.745 3.01 15.865 2.96 16 2.96C16.135 2.96 16.25 3.01 16.345 3.105L20.72 7.48C21.045 7.81 21.48 7.99 21.945 7.99C22.165 7.99 22.385 7.945 22.59 7.865C23.23 7.605 23.66 6.99 23.675 6.3C23.685 5.8 23.89 5.325 24.245 4.97C24.615 4.6 25.11 4.395 25.63 4.395C25.695 4.395 25.76 4.4 25.83 4.405C26.425 4.46 26.945 4.775 27.29 5.29C27.72 5.925 27.72 6.78 27.3 7.42C26.925 7.98 26.345 8.31 25.7 8.325C25.01 8.34 24.395 8.765 24.135 9.41C23.875 10.055 24.025 10.79 24.52 11.28L28.895 15.655C28.985 15.745 29.035 15.87 29.035 16C29.035 16.13 28.985 16.255 28.895 16.345Z" fill="#F96163"/>
</g>
<defs>
<clipPath id="clip0_224_6058">
<rect width="32" height="32" fill="white"/>
</clipPath>
</defs>
</svg>
