<?xml version="1.0" encoding="UTF-8"?><svg id="Camada_1" xmlns="http://www.w3.org/2000/svg" viewBox="0 0 230 230"><defs><style>.cls-1{opacity:.05;}.cls-2{fill:#f7c800;}.cls-3{fill:#f7d64a;}.cls-4{fill:#e98711;}.cls-5{fill:#fff;}.cls-6{fill:#ebbe00;}.cls-7{fill:#fec008;}.cls-8,.cls-9{fill:#9cb8b8;}.cls-10{fill:#667480;}.cls-11{fill:#cfdbe6;}.cls-12{fill:#94a9ba;}.cls-13{fill:#388e3c;}.cls-14{fill:#4dae50;}.cls-15{fill:#4daf51;}.cls-16{opacity:.7;}.cls-9{opacity:.5;}.cls-17{fill:#a6c4c4;opacity:.4;}</style></defs><g><path class="cls-10" d="M121.96,48.42c0,1.11-.26,1.9-.77,2.35-.51,.45-1.17,.68-1.99,.68h-4.65v7.81c-.3,.06-.77,.14-1.4,.23-.63,.09-1.23,.13-1.81,.13-1.2,0-2.13-.2-2.78-.61-.65-.41-.97-1.27-.97-2.6v-4.97h-6.77c-.21-.33-.39-.74-.54-1.24-.15-.5-.23-1.05-.23-1.65,0-1.11,.26-1.92,.77-2.42,.51-.5,1.17-.74,1.99-.74h4.78v-7.63c.3-.06,.76-.14,1.38-.25,.62-.11,1.21-.16,1.78-.16,1.2,0,2.14,.21,2.8,.63,.66,.42,.99,1.29,.99,2.62v4.78h6.64c.18,.3,.35,.73,.52,1.29,.16,.56,.25,1.14,.25,1.74Z"/><g><g><path class="cls-2" d="M86.46,21.76l2.4-14.46c0-1.8-1.23-3.44-3.01-3.75-.16-.03-.34-.04-.54-.04-1.84,0-1.84,1.54-3.67,1.54s-1.83-1.54-3.66-1.54-1.83,1.54-3.66,1.54-1.83-1.54-3.66-1.54-1.83,1.54-3.66,1.54-1.83-1.54-3.67-1.54-1.83,1.54-3.66,1.54-1.83-1.54-3.66-1.54-1.83,1.54-3.66,1.54-1.83-1.54-3.66-1.54-1.83,1.54-3.66,1.54-1.83-1.54-3.67-1.54-1.83,1.54-3.66,1.54-1.83-1.54-3.66-1.54-1.83,1.54-3.66,1.54-1.83-1.54-3.66-1.54-1.83,1.54-3.66,1.54-1.83-1.54-3.66-1.54c-1.12,0-1.55,.57-2.14,1.02-.93,.71-1.52,1.79-1.52,2.96l2.4,14.27v57.92l-2.4,14.46c0,1.8,1.24,3.44,3.01,3.74,.16,.03,.34,.05,.55,.05,1.83,0,1.83-1.54,3.66-1.54s1.83,1.54,3.66,1.54,1.83-1.54,3.66-1.54,1.83,1.54,3.67,1.54,1.83-1.54,3.66-1.54,1.83,1.54,3.66,1.54,1.83-1.54,3.66-1.54,1.83,1.54,3.66,1.54,1.83-1.54,3.66-1.54,1.83,1.54,3.66,1.54,1.83-1.54,3.66-1.54,1.83,1.54,3.66,1.54,1.83-1.54,3.66-1.54,1.83,1.54,3.66,1.54,1.83-1.54,3.66-1.54,1.83,1.54,3.66,1.54,1.83-1.54,3.66-1.54,1.83,1.54,3.66,1.54c1.12,0,1.56-.58,2.14-1.03,.93-.71,1.52-1.79,1.52-2.96l-2.4-14.27V21.76Z"/><path class="cls-6" d="M88.52,91.93c-.26,.57-.67,1.08-1.18,1.47-.59,.45-1.02,1.03-2.14,1.03-1.83,0-1.83-1.55-3.66-1.55s-1.83,1.55-3.67,1.55-1.82-1.55-3.66-1.55-1.83,1.55-3.66,1.55-1.83-1.55-3.66-1.55-1.84,1.55-3.67,1.55-1.83-1.55-3.66-1.55-1.83,1.55-3.66,1.55-1.84-1.55-3.67-1.55-1.83,1.55-3.66,1.55-1.83-1.55-3.66-1.55-1.83,1.55-3.67,1.55-1.83-1.55-3.66-1.55-1.84,1.55-3.66,1.55-1.84-1.55-3.67-1.55-1.83,1.55-3.67,1.55-1.83-1.55-3.66-1.55-1.84,1.55-3.67,1.55c-.21,0-.39-.02-.55-.05-1.24-.21-2.21-1.08-2.68-2.19l-.32,1.94c0,1.81,1.24,3.45,3,3.74,.16,.03,.34,.05,.55,.05,1.83,0,1.83-1.55,3.67-1.55s1.83,1.55,3.66,1.55,1.84-1.55,3.67-1.55,1.83,1.55,3.67,1.55,1.82-1.55,3.66-1.55,1.83,1.55,3.66,1.55,1.84-1.55,3.67-1.55,1.83,1.55,3.66,1.55,1.83-1.55,3.66-1.55,1.83,1.55,3.67,1.55,1.83-1.55,3.66-1.55,1.83,1.55,3.66,1.55,1.83-1.55,3.67-1.55,1.83,1.55,3.66,1.55,1.83-1.55,3.66-1.55,1.84,1.55,3.66,1.55,1.84-1.55,3.67-1.55,1.83,1.55,3.66,1.55c1.12,0,1.56-.58,2.14-1.03,.93-.71,1.52-1.79,1.52-2.97l-.34-2.01Z"/><path class="cls-3" d="M85.84,.04c-.16-.03-.34-.04-.54-.04-1.84,0-1.84,1.53-3.67,1.53s-1.83-1.53-3.67-1.53-1.83,1.53-3.66,1.53-1.83-1.53-3.66-1.53-1.84,1.53-3.67,1.53-1.83-1.53-3.67-1.53-1.82,1.53-3.66,1.53-1.83-1.53-3.66-1.53-1.83,1.53-3.66,1.53-1.84-1.53-3.66-1.53-1.83,1.53-3.67,1.53-1.83-1.53-3.67-1.53-1.82,1.53-3.65,1.53-1.84-1.53-3.67-1.53-1.83,1.53-3.66,1.53-1.83-1.53-3.67-1.53-1.83,1.53-3.66,1.53-1.83-1.53-3.66-1.53c-1.12,0-1.56,.57-2.14,1.02-.94,.71-1.52,1.78-1.52,2.96l.34,2.01c.26-.57,.66-1.08,1.18-1.46,.59-.45,1.02-1.02,2.14-1.02,1.83,0,1.83,1.53,3.66,1.53s1.83-1.53,3.66-1.53,1.84,1.53,3.67,1.53,1.83-1.53,3.66-1.53,1.83,1.53,3.67,1.53,1.83-1.53,3.65-1.53,1.84,1.53,3.67,1.53,1.84-1.53,3.67-1.53,1.82,1.53,3.66,1.53,1.83-1.53,3.66-1.53,1.83,1.53,3.66,1.53,1.84-1.53,3.66-1.53,1.84,1.53,3.67,1.53,1.83-1.53,3.67-1.53,1.83,1.53,3.66,1.53,1.83-1.53,3.66-1.53,1.84,1.53,3.67,1.53,1.83-1.53,3.67-1.53c.21,0,.38,0,.54,.05,1.24,.21,2.21,1.07,2.69,2.17l.32-1.93c0-1.8-1.23-3.44-3.01-3.75Z"/><circle class="cls-5" cx="53.72" cy="51.61" r="19.47"/><g id="kt4N5g.tif"><g><path class="cls-4" d="M58.95,45.24c.05,.23,.1,.47,.15,.7-.42,0-.84,0-1.26,0-.65,0-1.24,.53-1.27,1.18-.03,.58,.35,1.17,.98,1.29,.65,.13,1.3,.09,1.95,0,.02,.24,.09,.47,.06,.72-.55-.1-1.11-.07-1.67-.06-.73,0-1.3,.56-1.33,1.26-.03,.57,.5,1.23,1.1,1.25,.68,.03,1.37,.12,2.04-.1,.04,.3,.03,.59,.02,.89-.25-.1-.51-.13-.77-.12-.37,.01-.75,0-1.12,0-.76-.02-1.25,.58-1.26,1.24,0,.72,.58,1.27,1.25,1.25,.41-.01,.82,0,1.24,0,.22,0,.43-.03,.63-.12,0,.2,0,.4,0,.59-.16,.06-.32,.12-.48,.18-.47,0-.94-.02-1.41,0-.41,.02-.74,.2-.99,.54-.34,.47-.24,.94-.06,1.42-.39,.54-.77,1.09-1.12,1.65-.15-.24-.37-.36-.64-.42-.51-.12-1.03-.04-1.55-.06-.15-.21-.28-.42-.39-.65,.53,.09,1.06,.06,1.58,.04,.84-.03,1.3-.61,1.32-1.3,.02-.69-.59-1.23-1.34-1.23-.39,0-.79,0-1.18,0-.68,0-1.21,.51-1.25,1.19-.5-.63-.99-1.26-1.49-1.88,.08-.04,.16-.08,.24-.12,.44-.26,.69-.79,.6-1.28-.08-.45-.53-1-.96-1.01-.72-.02-1.45-.14-2.16,.1h-.02c0-.3,.02-.6,.02-.89,.64,.21,1.3,.12,1.95,.11,.6,0,1.1-.52,1.17-1.12,.06-.56-.32-1.21-.86-1.32-.71-.15-1.43-.16-2.15,.03,.03-.26,.05-.51,.08-.77,.54,.1,1.09,.06,1.64,.05,.72,0,1.29-.59,1.29-1.29,0-.7-.57-1.24-1.3-1.24-.41,0-.82,0-1.24,0,.06-.23,.11-.47,.17-.7,.36,.1,.72,.05,1.08,.06,.73,0,1.26-.53,1.29-1.24,.02-.63-.65-1.33-1.28-1.25-.11,.02-.23,0-.35-.01,.11-.27,.22-.54,.33-.81,.12,.04,.24,.09,.36,.13,.46,.15,.87-.01,1.19-.32,.31-.29,.43-.68,.35-1.13-.07-.38-.34-.61-.56-.88,.48-.62,1.08-1.09,1.84-1.32,.06-.02,.14,0,.17-.08h.88c.84,.26,1.52,.73,2.06,1.42-.05,.04-.09,.07-.14,.11-.41,.35-.58,.94-.41,1.38,.22,.57,.7,.9,1.3,.86,.19-.01,.38-.08,.57-.12,.11,.23,.22,.46,.29,.7-.13,.13-.3,.06-.45,.07-.61,.03-1.14,.59-1.16,1.23-.01,.58,.51,1.21,1.08,1.24,.44,.02,.88,.06,1.31-.05Zm-4.88,3.24c.3,0,.63,.02,.96-.06,.61-.16,.97-.79,.93-1.31-.05-.64-.62-1.15-1.23-1.16-.45,0-.9,0-1.35,0-.52,0-1.06,.46-1.17,.96-.12,.56,.14,1.13,.63,1.4,.38,.21,.79,.17,1.24,.18Zm-.02,3.13c.22,0,.43,0,.65,0,.66,0,1.18-.48,1.26-1.19,.05-.49-.33-1.15-.96-1.28-.54-.12-1.1-.09-1.64-.04-.78,.06-1.21,.63-1.16,1.44,.03,.47,.58,1.13,1.3,1.08,.19-.01,.37,0,.56,0Zm0-6.31c.24,0,.47,0,.71,0,.65,0,1.2-.53,1.2-1.24,0-.71-.55-1.24-1.2-1.24-.45,0-.9,0-1.35,0-.71,0-1.21,.51-1.21,1.23,0,.74,.49,1.25,1.21,1.25,.22,0,.43,0,.65,0Zm.02,6.96c-.25,0-.51,0-.76,0-.64,.02-1.12,.55-1.12,1.26,0,.68,.49,1.21,1.13,1.22,.49,0,.98,0,1.47,0,.62-.01,1.18-.61,1.17-1.25,0-.65-.56-1.22-1.18-1.23-.24,0-.47,0-.71,0Zm1.24-11.35c-.04-.75-.55-1.27-1.28-1.26-.7,.02-1.2,.49-1.25,1.26-.04,.64,.6,1.25,1.26,1.26,.7,0,1.27-.56,1.27-1.26Z"/><path class="cls-14" d="M50.7,54.69c.5,.63,.99,1.26,1.49,1.88,.29,.43,.58,.86,.87,1.3,.11,.23,.24,.44,.39,.65,.43,.81,.87,1.62,1.25,2.52,.27-.75,.61-1.39,.94-2.04,.35-.57,.72-1.11,1.11-1.65,.7-.8,1.48-1.5,2.46-1.96,.16-.06,.32-.12,.48-.18,1.5-.39,2.87-.03,4.15,.76,.06,.03,.11,.08,.16,.12-.16,.02-.28-.08-.41-.14-.71-.32-1.45-.47-2.23-.36-1.1,.15-1.97,.73-2.73,1.49-.77,.76-1.37,1.66-1.88,2.61-.79,1.46-1.41,3-1.89,4.59-.05,.18-.12,.35-.12,.54-.02,0-.04,0-.06,0-.42-.93-.89-1.83-1.36-2.74-.99-1.9-2.01-3.79-3.14-5.62-1.3-2.11-2.61-4.23-4.45-5.94-.05-.04-.07-.1-.07-.16,.89,.51,1.68,1.15,2.47,1.8,.09,.07,.19,.14,.28,.22,0,0,.02,0,.02,0,.77,.76,1.55,1.51,2.28,2.31Z"/><path class="cls-13" d="M45.65,50.37c0,.06,.02,.12,.07,.16,1.84,1.72,3.15,3.83,4.45,5.94,1.13,1.83,2.15,3.71,3.14,5.62,.47,.9,.94,1.81,1.36,2.74-.29,.01-.59,.03-.88-.02-.02,0-.04,0-.05,0-.04,0-.08,0-.12-.01-.03-.05-.07-.06-.12-.07-.81-.2-1.45-.68-1.97-1.31-.79-.94-1.28-2.06-1.73-3.19-.73-1.84-1.31-3.73-2.07-5.56-.48-1.16-1.03-2.28-1.74-3.32-.05-.08-.08-.19-.21-.19,0,0,0,0,0,0,0-.06-.01-.1-.08-.11-.25-.39-.54-.75-.85-1.09,.02-.02,.04-.03,.05-.05,.21,.09,.4,.22,.58,.36,.03,.02,.05,.04,.08,.05,.03,.02,.06,.04,.1,.06Z"/><path class="cls-13" d="M54.73,64.82c0-.19,.06-.37,.12-.54,.48-1.59,1.1-3.12,1.89-4.59,.52-.95,1.12-1.85,1.88-2.61,.76-.76,1.64-1.34,2.73-1.49,.78-.11,1.52,.05,2.23,.36,.13,.06,.25,.16,.41,.14,.65,.38,1.22,.85,1.75,1.38-.02,.01-.04,.02-.05,.04h-.13s0,.01,0,.01c-.01-.08-.07-.11-.14-.14-.64-.32-1.29-.61-2-.75-1.09-.22-2.05,.02-2.83,.86-.54,.58-.91,1.27-1.25,1.98-.47,.99-.86,2.02-1.41,2.97-.34,.58-.72,1.13-1.25,1.57-.42,.35-.9,.53-1.38,.74-.19,.06-.39,.08-.59,.05Z"/><path class="cls-15" d="M45.77,51.14c.12,0,.15,.11,.21,.19,.71,1.04,1.26,2.16,1.74,3.32,.76,1.83,1.33,3.72,2.07,5.56,.45,1.13,.94,2.24,1.73,3.19,.52,.62,1.16,1.11,1.97,1.31,.05,.01,.09,.02,.12,.07-3.04-.13-4.71-1.61-5.49-4.12-.42-1.37-.6-2.8-.82-4.21-.25-1.57-.51-3.14-1.19-4.6-.11-.24-.23-.47-.35-.71Z"/><path class="cls-15" d="M55.32,64.77c.48-.21,.97-.39,1.38-.74,.53-.44,.91-.99,1.25-1.57,.55-.95,.94-1.98,1.41-2.97,.33-.71,.71-1.39,1.25-1.98,.78-.84,1.74-1.08,2.83-.86,.71,.14,1.36,.43,2,.75,.06,.03,.12,.06,.14,.14-.57-.16-1.14-.36-1.73-.45-1.41-.23-2.33,.24-2.94,1.53-.36,.77-.57,1.6-.87,2.4-.38,1.03-.86,2.01-1.75,2.71-.87,.68-1.87,1-2.97,1.05Z"/><path class="cls-7" d="M49.02,45.95c.41,0,.82,0,1.24,0,.73,0,1.29,.54,1.3,1.24,0,.7-.56,1.29-1.29,1.29-.55,0-1.1,.05-1.64-.05-.17-.12-.36-.19-.5-.35-.34-.39-.45-.83-.26-1.31,.2-.52,.6-.78,1.15-.81Z"/><path class="cls-7" d="M59.7,51.49c-.67,.22-1.36,.13-2.04,.1-.6-.02-1.13-.68-1.1-1.25,.03-.7,.6-1.25,1.33-1.26,.56,0,1.12-.04,1.67,.06,.05,.04,.1,.09,.16,.12,.77,.49,.85,1.48,.15,2.07-.06,.05-.12,.1-.17,.16Z"/><path class="cls-7" d="M48.54,49.19c.71-.18,1.44-.18,2.15-.03,.54,.11,.92,.76,.86,1.32-.07,.6-.57,1.12-1.17,1.12-.65,0-1.31,.1-1.95-.11-.02-.02-.04-.05-.06-.06-.86-.69-.79-1.7,.17-2.24Z"/><path class="cls-7" d="M59.5,48.42c-.65,.08-1.31,.12-1.95,0-.63-.12-1.01-.71-.98-1.29,.03-.66,.62-1.18,1.27-1.18,.42,0,.84,0,1.26,0,.64,.06,1.11,.44,1.22,.99,.12,.6-.15,1.12-.76,1.43-.02,.01-.05,.04-.07,.05Z"/><path class="cls-7" d="M59.69,54.62c-.2,.09-.41,.13-.63,.12-.41,0-.82-.01-1.24,0-.67,.02-1.25-.52-1.25-1.25,0-.66,.49-1.26,1.26-1.24,.37,0,.75,0,1.12,0,.27,0,.53,.02,.77,.12,.31,.25,.57,.53,.62,.96,.06,.57-.18,.98-.65,1.29Z"/><path class="cls-7" d="M58.95,45.24c-.43,.11-.88,.07-1.31,.05-.56-.03-1.09-.67-1.08-1.24,.01-.64,.55-1.2,1.16-1.23,.15,0,.32,.06,.45-.07,.08,.07,.18,.05,.28,.06,.62,.02,1.09,.38,1.24,.93,.15,.58-.09,1.11-.63,1.44-.03,.02-.06,.04-.1,.06Z"/><path class="cls-7" d="M49.92,42.8c.12,0,.24,.03,.35,.01,.64-.09,1.31,.61,1.28,1.25-.03,.71-.55,1.24-1.29,1.24-.36,0-.72,.05-1.08-.06-.99-.51-.9-1.54-.47-2.02,.33-.36,.75-.44,1.2-.42Z"/><path class="cls-7" d="M51.6,39.8c.22,.27,.49,.5,.56,.88,.08,.45-.04,.83-.35,1.13-.32,.31-.73,.47-1.19,.32-.12-.04-.24-.08-.36-.13-.94-.69-.63-1.77,0-2.15,.35-.21,.71-.26,1.1-.12,.08,.03,.17,.05,.25,.07Z"/><path class="cls-7" d="M57.88,42.05c-.19,.04-.38,.11-.57,.12-.6,.04-1.08-.29-1.3-.86-.17-.45,0-1.03,.41-1.38,.04-.04,.09-.07,.14-.11,.34-.15,.69-.22,1.05-.09,.88,.31,1.14,1.43,.48,2.09-.07,.07-.19,.11-.21,.24Z"/><path class="cls-13" d="M65.75,57.48s.15,.06,.09,.14c-.03,.05-.1,0-.15-.04,0-.02,0-.04,0-.06,.02-.01,.04-.02,.05-.04Z"/><path class="cls-13" d="M44.84,49.94s-.04-.05-.06-.08c.05-.02,.08-.02,.11,.03-.02,.02-.04,.03-.05,.05Z"/><path class="cls-15" d="M45.69,51.03c.06,.01,.08,.06,.08,.11-.03-.04-.05-.07-.08-.11Z"/><path class="cls-15" d="M65.7,57.51s0,.04,0,.06c-.05,0-.1,0-.13-.05,.04,0,.08,0,.13,0Z"/><path class="cls-14" d="M45.56,50.3s-.05-.04-.08-.05c.03,.02,.05,.04,.08,.05Z"/><path class="cls-15" d="M53.73,64.79s.04,0,.05,0c-.02,0-.04,0-.05,0Z"/><path class="cls-7" d="M54.07,48.48c-.45,0-.86,.04-1.24-.18-.49-.27-.75-.84-.63-1.4,.11-.5,.66-.95,1.17-.96,.45,0,.9,0,1.35,0,.62,0,1.18,.52,1.23,1.16,.04,.52-.32,1.15-.93,1.31-.33,.09-.66,.06-.96,.06Z"/><path class="cls-7" d="M54.05,51.61c-.19,0-.37-.01-.56,0-.72,.05-1.27-.61-1.3-1.08-.05-.81,.38-1.39,1.16-1.44,.54-.04,1.09-.07,1.64,.04,.62,.13,1.01,.79,.96,1.28-.07,.72-.59,1.19-1.26,1.19-.22,0-.43,0-.65,0Z"/><path class="cls-7" d="M54.06,45.3c-.22,0-.43,0-.65,0-.72,0-1.21-.51-1.21-1.25,0-.72,.5-1.22,1.21-1.23,.45,0,.9,0,1.35,0,.64,0,1.2,.53,1.2,1.24,0,.71-.55,1.23-1.2,1.24-.24,0-.47,0-.71,0Z"/><path class="cls-7" d="M54.08,52.26c.24,0,.47,0,.71,0,.63,.01,1.18,.59,1.18,1.23,0,.64-.55,1.23-1.17,1.25-.49,0-.98,0-1.47,0-.64,0-1.13-.54-1.13-1.22,0-.71,.47-1.24,1.12-1.26,.25,0,.51,0,.76,0Z"/><path class="cls-7" d="M53.06,57.87c-.29-.43-.58-.86-.87-1.3,.04-.68,.57-1.19,1.25-1.19,.39,0,.79,0,1.18,0,.75,0,1.36,.54,1.34,1.23-.02,.69-.48,1.27-1.32,1.3-.53,.02-1.06,.04-1.58-.04Z"/><path class="cls-7" d="M55.32,40.91c0,.7-.57,1.26-1.27,1.26-.66,0-1.3-.62-1.26-1.26,.05-.77,.55-1.25,1.25-1.26,.72-.02,1.24,.51,1.28,1.26Z"/><path class="cls-7" d="M50.7,54.69c-.72-.8-1.51-1.55-2.28-2.31,.71-.24,1.44-.12,2.16-.1,.43,.01,.88,.56,.96,1.01,.08,.49-.17,1.03-.6,1.28-.08,.04-.16,.08-.24,.12Z"/><path class="cls-7" d="M55.63,59c-.32,.65-.67,1.29-.94,2.04-.38-.91-.82-1.71-1.25-2.52,.52,.02,1.03-.06,1.55,.06,.27,.06,.49,.19,.64,.42Z"/><path class="cls-7" d="M59.21,55.39c-.98,.45-1.75,1.16-2.46,1.96-.19-.48-.28-.95,.06-1.42,.25-.34,.58-.52,.99-.54,.47-.02,.94,0,1.41,0Z"/></g></g></g><rect class="cls-4" x="18.11" y="22.2" width="68.34" height="3.86"/><rect class="cls-4" x="18.11" y="75.77" width="68.34" height="3.86"/></g><g><g><path class="cls-12" d="M157.86,67.85c-.57-.58,11.53-15.58,37.3-32.25,25.53-16.52,18.13-22.17,18.13-22.17-24.26,22.41-45.87,34.91-52.64,46.38l-2.78,8.05Z"/><path class="cls-12" d="M158.06,67.26l-.2,.6c-.06-.06,0-.26,.2-.6Z"/><path class="cls-12" d="M158.06,67.26l-.2,.6c-.06-.06,0-.26,.2-.6Z"/><path class="cls-10" d="M214.08,14.7l.02,.02c.79,2.49-.21,8.76-18.95,20.88-23.2,15.01-35.32,28.66-37.09,31.66l1.34-3.87c5.63-13.94,51.97-39.51,54.68-48.69Z"/><path class="cls-12" d="M128.15,86.05c1.44,1.8,31.45-7.99,32.78-26.13l-32.78,26.13Z"/><ellipse class="cls-11" cx="144.54" cy="72.99" rx="20.96" ry="2.31" transform="translate(-13.98 106) rotate(-38.55)"/></g><path class="cls-5" d="M128.32,86.27c4.62-.45,31.37-21.21,32.78-26.13,0,0-2.08-1.27-8.32,1.09-4.26,1.61-16.28,1.08-17.03,6.4-.75,5.32-11.49,12.44-7.43,18.64Z"/><path class="cls-11" d="M152.78,61.23c-4.46,2.05-9.89,1.87-14.19,4.21-.91,.56-1.64,1.18-1.83,2.18-.07,.41-.19,.95-.32,1.34-1.81,5.59-11.06,11.16-8.13,17.32-2.52-2.85-.78-6.98,1.01-9.72,1.72-2.94,4.42-5.55,5.37-8.75,.13-.72,.33-1.48,.74-2.08,3.8-4.73,11.99-3.34,17.34-4.49h0Z"/><circle class="cls-11" cx="137.05" cy="73.13" r=".82"/><circle class="cls-11" cx="144.22" cy="68.47" r=".82"/><circle class="cls-11" cx="141.47" cy="74.9" r=".82"/></g></g><g><g><path class="cls-17" d="M230,145.13v5.7c0,4.21-3.41,7.62-7.62,7.62h-12.34l-14.96,60.71c-3.15,6.62-9.82,10.84-17.15,10.84H52.07c-7.33,0-14-4.22-17.15-10.84l-14.96-60.71H7.62C3.41,158.45,0,155.04,0,150.83v-5.7C0,140.93,3.41,137.52,7.62,137.52H222.38c4.21,0,7.62,3.41,7.62,7.62Z"/><rect class="cls-9" x="0" y="137.52" width="230" height="20.93" rx="7.64" ry="7.64"/><rect class="cls-8" x="43.93" y="155.26" width="136.45" height="6.37" rx="3.18" ry="3.18"/></g><path class="cls-1" d="M190.02,225.65c-3.34,2.76-7.59,4.35-12.09,4.35H52.06c-7.32,0-14-4.22-17.15-10.84l-14.96-60.71H7.64c-.79,0-1.55-.12-2.27-.34-.36-.11-.71-.25-1.04-.41-.33-.16-.65-.34-.96-.55-.21-.14-.41-.29-.6-.44-.28-.24-.54-.49-.78-.76-.17-.19-.32-.37-.47-.57-.15-.2-.28-.4-.41-.61-.13-.21-.25-.42-.35-.65-.11-.22-.21-.45-.29-.68-.05-.12-.09-.24-.13-.36s-.07-.25-.11-.38c-.05-.22-.1-.45-.13-.68-.03-.15-.05-.31-.06-.47-.03-.23-.04-.46-.04-.7v-5.75c0-.22,.01-.44,.04-.66,.01-.16,.03-.32,.06-.48,.03-.24,.08-.46,.13-.69,.04-.13,.07-.26,.11-.38,.04-.12,.08-.24,.13-.36,.08-.23,.18-.46,.29-.68,.1-.22,.22-.44,.35-.65,.13-.21,.26-.41,.41-.61,.15-.2,.3-.38,.47-.57,.16-.18,.33-.35,.51-.51,.19-.17,.37-.32,.57-.47s.4-.28,.61-.41c.21-.13,.43-.25,.65-.35,.22-.11,.45-.21,.68-.29,.12-.05,.24-.09,.36-.13,.12-.04,.25-.07,.38-.11,.23-.05,.45-.1,.69-.13,.16-.03,.32-.05,.48-.06,.22-.03,.44-.04,.66-.04h.5c-.08,.13-.17,.27-.24,.41-.17,.31-.32,.63-.44,.97h0c-.04,.12-.08,.24-.11,.35-.22,.72-.34,1.48-.34,2.27v5.65c0,.79,.12,1.55,.34,2.27,.14,.48,.34,.94,.58,1.37,.24,.44,.52,.85,.82,1.23,.31,.37,.65,.72,1.03,1.03,.38,.3,.79,.58,1.23,.82,.43,.24,.89,.44,1.37,.58,.72,.22,1.48,.34,2.27,.34h12.31l.9,3.64,14.06,57.07c3.15,6.62,9.82,10.84,17.15,10.84h125.87c1.77,0,3.49-.25,5.14-.71Z"/><g class="cls-16"><path class="cls-5" d="M27.28,171.21c-.36-.36-.59-.86-.59-1.41,0-1.1,.89-2,2-2h30.47c1.1,0,2,.89,2,2s-.89,2-2,2H28.69c-.55,0-1.05-.22-1.41-.58Z"/></g><g class="cls-16"><path class="cls-5" d="M164.67,190.31c-.36-.36-.59-.86-.59-1.41,0-1.1,.89-2,2-2h30.47c1.1,0,2,.89,2,2s-.89,2-2,2h-30.47c-.55,0-1.05-.22-1.41-.58Z"/></g></g></svg>