<?xml version="1.0" encoding="UTF-8"?><svg id="Camada_1" xmlns="http://www.w3.org/2000/svg" viewBox="0 0 350 350"><defs><style>.cls-1{fill:#f9941f;}.cls-2{fill:#f9ba70;}.cls-3{fill:#f5f5f5;}.cls-4{fill:#fff;}.cls-5{opacity:.7;}.cls-6{isolation:isolate;opacity:.3;}</style></defs><path class="cls-1" d="M216.27,90.78l-4.41-4.4c1.01-.58,1.9-1.39,2.56-2.39,1.63-2.45,1.62-5.75-.03-8.2-1.26-1.88-3.26-3.07-5.49-3.29-2.22-.21-4.4,.57-5.98,2.15-.48,.48-.88,1.01-1.21,1.59l-4.4-4.4c-.98-.98-2.29-1.53-3.68-1.53h0c-1.39,0-2.7,.54-3.68,1.53l-5.05,5.05c-.69,.69-1,1.68-.82,2.64,.17,.97,.83,1.81,1.74,2.22,.41,.18,.78,.44,1.1,.76,.76,.76,1.15,1.8,1.09,2.86-.07,1.08-.58,2.05-1.44,2.72-1.31,1.02-3.2,1.03-4.51,.04-.51-.39-.91-.88-1.16-1.44-.42-.92-1.25-1.57-2.23-1.75-.96-.17-1.95,.14-2.64,.83l-5.05,5.04c-2.02,2.03-2.02,5.34,0,7.37l4.41,4.4c-.58,.33-1.12,.73-1.59,1.22-1.58,1.58-2.36,3.76-2.15,5.99,.21,2.22,1.42,4.22,3.3,5.49,2.45,1.65,5.74,1.65,8.2,0,1.01-.67,1.82-1.55,2.39-2.55l4.4,4.4c1.01,1.02,2.35,1.53,3.69,1.53s2.67-.51,3.68-1.53l5.05-5.05c.69-.69,1-1.68,.83-2.64-.18-.97-.83-1.81-1.74-2.22-.41-.18-.78-.44-1.1-.76-.76-.75-1.15-1.79-1.08-2.86,.06-1.08,.57-2.05,1.44-2.72,1.31-1.02,3.2-1.03,4.52-.04,.51,.39,.9,.88,1.16,1.45,.42,.91,1.25,1.56,2.23,1.74,.96,.17,1.94-.14,2.63-.82l5.05-5.05c.98-.98,1.53-2.29,1.53-3.68s-.54-2.7-1.53-3.69Zm-3.17,4.21l-3.72,3.72c-.43-.53-.92-1.01-1.48-1.44-1.39-1.06-3.14-1.64-4.93-1.64s-3.63,.6-5.05,1.71c-1.86,1.46-3.01,3.63-3.15,5.97-.14,2.35,.73,4.65,2.39,6.3,.22,.22,.45,.43,.69,.62l-3.72,3.72c-.14,.14-.32,.22-.52,.22s-.39-.08-.52-.22l-6.62-6.61c-.49-.49-1.15-.76-1.85-.76-.33,0-.66,.06-.97,.18-.97,.39-1.62,1.31-1.65,2.36-.02,.98-.52,1.87-1.37,2.43-.47,.31-1.02,.48-1.6,.48s-1.14-.17-1.62-.48c-.78-.52-1.25-1.31-1.34-2.21-.08-.88,.23-1.76,.86-2.39,.54-.54,1.25-.85,2.02-.88,1.04-.03,1.97-.67,2.36-1.65,.39-.97,.16-2.08-.58-2.81l-6.62-6.62c-.29-.29-.29-.76,0-1.04l3.72-3.72c.42,.54,.92,1.02,1.47,1.44,1.39,1.06,3.14,1.64,4.94,1.64s3.63-.61,5.04-1.71c1.86-1.46,3.01-3.63,3.15-5.98,.14-2.34-.73-4.64-2.39-6.3-.22-.22-.45-.43-.69-.62l3.72-3.72c.14-.14,.32-.22,.52-.22s.38,.08,.52,.22l6.61,6.61c.49,.5,1.15,.77,1.85,.77,.33,0,.66-.07,.97-.19,.97-.39,1.62-1.32,1.64-2.36,.02-.76,.32-1.47,.86-2.01,.56-.56,1.31-.87,2.09-.87,.1,0,.2,0,.3,.02,.9,.08,1.68,.56,2.21,1.34,.65,.96,.65,2.25,.02,3.22-.57,.85-1.44,1.34-2.42,1.37-1.04,.02-1.97,.66-2.36,1.64-.39,.97-.17,2.08,.58,2.83l6.61,6.61c.14,.14,.21,.32,.21,.52s-.08,.39-.21,.52Z"/><g class="cls-5"><path class="cls-1" d="M213.25,29.33l-1.12-4.95c.95,.04,1.91-.13,2.81-.53,2.19-.98,3.62-3.25,3.55-5.66-.05-1.84-.91-3.54-2.35-4.66-1.44-1.11-3.28-1.53-5.05-1.13-.54,.13-1.05,.31-1.52,.57l-1.11-4.95c-.25-1.1-.91-2.05-1.87-2.65h0c-.96-.61-2.09-.8-3.2-.56l-5.67,1.28c-.78,.17-1.42,.72-1.72,1.46-.3,.75-.21,1.6,.23,2.29,.2,.3,.34,.64,.42,1,.19,.85,0,1.74-.5,2.44-.52,.71-1.29,1.16-2.18,1.24-1.34,.13-2.66-.68-3.12-1.94-.18-.49-.24-1-.17-1.5,.12-.82-.18-1.63-.77-2.18-.58-.54-1.4-.76-2.18-.58l-5.67,1.27c-2.28,.52-3.72,2.8-3.21,5.08l1.12,4.95c-.55-.02-1.09,.02-1.63,.14-1.77,.4-3.27,1.56-4.09,3.19-.82,1.62-.86,3.53-.12,5.22,.97,2.2,3.24,3.63,5.64,3.57,.99-.02,1.93-.27,2.76-.71l1.12,4.94c.25,1.14,.95,2.07,1.87,2.66s2.06,.81,3.2,.55l5.67-1.28c.78-.17,1.42-.72,1.72-1.45,.3-.75,.21-1.6-.23-2.29-.2-.3-.34-.64-.43-1.01-.19-.84-.01-1.73,.5-2.44,.51-.72,1.29-1.16,2.17-1.25,1.34-.13,2.66,.68,3.13,1.94,.18,.49,.24,.99,.17,1.51-.11,.81,.18,1.62,.77,2.17,.58,.54,1.4,.75,2.17,.58l5.67-1.28c1.1-.25,2.05-.91,2.65-1.87s.8-2.1,.56-3.21Zm-4.01,1.52l-4.18,.94c-.07-.55-.19-1.1-.39-1.63-.5-1.33-1.45-2.5-2.68-3.28s-2.76-1.17-4.22-1.02c-1.91,.19-3.65,1.19-4.77,2.74-1.12,1.56-1.52,3.52-1.1,5.38,.06,.25,.12,.49,.21,.73l-4.18,.94c-.16,.04-.32,0-.45-.08s-.23-.22-.26-.38l-1.68-7.43c-.12-.55-.46-1.03-.94-1.33-.23-.14-.48-.24-.74-.3-.83-.16-1.69,.2-2.16,.91-.44,.67-1.17,1.06-2,1.08-.46,0-.91-.12-1.31-.37s-.71-.61-.9-1.04c-.31-.7-.29-1.45,.04-2.11,.33-.64,.92-1.11,1.63-1.27,.61-.14,1.24-.04,1.78,.28,.73,.43,1.65,.4,2.34-.11,.69-.5,1.01-1.36,.82-2.19l-1.67-7.44c-.07-.32,.13-.65,.45-.72l4.18-.94c.06,.55,.19,1.1,.39,1.63,.5,1.33,1.45,2.5,2.69,3.28s2.76,1.16,4.22,1.01c1.91-.19,3.65-1.19,4.77-2.74,1.12-1.55,1.52-3.51,1.1-5.38-.06-.25-.12-.49-.21-.73l4.18-.94c.16-.04,.31-.01,.45,.08s.23,.22,.26,.38l1.67,7.43c.12,.56,.45,1.03,.94,1.34,.23,.14,.49,.24,.75,.29,.84,.15,1.69-.21,2.16-.91,.34-.51,.87-.87,1.47-1.01,.63-.14,1.28-.03,1.82,.31,.07,.04,.13,.09,.2,.14,.58,.45,.92,1.12,.94,1.88,.03,.94-.53,1.83-1.39,2.22-.76,.34-1.58,.3-2.26-.11-.73-.44-1.65-.4-2.34,.1-.69,.5-1.02,1.36-.83,2.2l1.67,7.43c.03,.15,0,.32-.08,.45s-.22,.23-.37,.27Z"/></g><g class="cls-5"><path class="cls-1" d="M172.1,156.31l-1.75,4.77c-.78-.55-1.68-.93-2.65-1.07-2.37-.37-4.8,.77-6.05,2.83-.96,1.58-1.16,3.46-.56,5.19,.6,1.71,1.93,3.06,3.63,3.69,.52,.19,1.05,.31,1.59,.35l-1.75,4.76c-.39,1.06-.35,2.21,.13,3.24h0c.48,1.03,1.32,1.81,2.39,2.2l5.46,2c.75,.28,1.58,.17,2.23-.29,.66-.46,1.05-1.23,1.05-2.05,0-.36,.06-.73,.19-1.07,.3-.82,.94-1.46,1.74-1.78,.82-.32,1.71-.27,2.5,.14,1.2,.62,1.86,2.01,1.57,3.32-.11,.51-.34,.97-.67,1.35-.54,.62-.73,1.46-.53,2.25,.2,.77,.77,1.39,1.52,1.66l5.45,2.01c2.19,.8,4.64-.33,5.45-2.52l1.75-4.77c.44,.32,.92,.58,1.44,.76,1.71,.63,3.59,.46,5.16-.46,1.57-.92,2.64-2.49,2.93-4.32,.38-2.37-.75-4.81-2.8-6.06-.84-.52-1.77-.82-2.7-.9l1.74-4.76c.41-1.1,.32-2.26-.13-3.25s-1.29-1.8-2.39-2.2l-5.46-2c-.75-.28-1.58-.17-2.23,.29-.66,.47-1.05,1.23-1.05,2.05,0,.36-.06,.73-.19,1.08-.29,.81-.93,1.46-1.75,1.78-.82,.32-1.71,.28-2.5-.13-1.2-.62-1.86-2.01-1.57-3.33,.12-.51,.34-.96,.67-1.36,.53-.62,.73-1.46,.53-2.24-.2-.77-.76-1.39-1.51-1.66l-5.46-2c-1.06-.39-2.21-.35-3.24,.13s-1.81,1.33-2.21,2.39Zm4.19,.9l4.02,1.48c-.24,.5-.43,1.03-.55,1.59-.31,1.39-.14,2.88,.48,4.21s1.69,2.48,2.99,3.15c1.71,.88,3.71,.98,5.5,.29,1.78-.7,3.18-2.13,3.84-3.92,.09-.24,.16-.48,.22-.73l4.02,1.48c.16,.06,.27,.17,.34,.31s.08,.31,.02,.46l-2.62,7.15c-.2,.53-.17,1.11,.07,1.63,.11,.25,.27,.47,.46,.65,.62,.58,1.52,.75,2.31,.41,.73-.32,1.56-.26,2.27,.18,.39,.24,.7,.59,.9,1.02s.27,.9,.2,1.36c-.12,.75-.54,1.37-1.18,1.75-.63,.36-1.38,.43-2.06,.18-.59-.21-1.06-.64-1.34-1.2-.38-.76-1.17-1.23-2.02-1.18-.85,.05-1.59,.59-1.88,1.39l-2.63,7.16c-.11,.31-.46,.47-.77,.36l-4.02-1.48c.25-.5,.44-1.03,.56-1.58,.31-1.39,.14-2.88-.48-4.21s-1.69-2.47-2.99-3.14c-1.71-.88-3.71-.98-5.5-.29-1.78,.69-3.18,2.12-3.84,3.92-.09,.24-.16,.48-.22,.73l-4.02-1.48c-.15-.05-.27-.16-.34-.31s-.07-.31-.02-.46l2.63-7.15c.2-.53,.18-1.11-.06-1.63-.11-.25-.28-.47-.47-.66-.62-.58-1.53-.74-2.31-.4-.56,.25-1.2,.26-1.78,.05-.6-.22-1.09-.67-1.36-1.25-.03-.07-.06-.15-.09-.23-.25-.69-.16-1.44,.23-2.09,.49-.81,1.44-1.25,2.37-1.11,.82,.13,1.49,.61,1.84,1.32,.37,.76,1.17,1.23,2.02,1.19,.85-.04,1.6-.59,1.89-1.4l2.63-7.15c.05-.15,.17-.27,.31-.33s.31-.08,.46-.02Z"/></g><g><path class="cls-1" d="M295.33,118.56h-1c-3.37,0-6.11-2.74-6.11-6.11v-5.09c0-3.37,2.74-6.11,6.11-6.11h1c3.37,0,6.11,2.74,6.11,6.11v5.09c0,3.37-2.74,6.11-6.11,6.11Z"/><path class="cls-1" d="M311.14,118.56h-1c-3.37,0-6.11-2.74-6.11-6.11v-18.85c0-3.37,2.74-6.11,6.11-6.11h1c3.37,0,6.11,2.74,6.11,6.11v18.85c0,3.37-2.74,6.11-6.11,6.11Z"/><path class="cls-1" d="M326.94,118.56h-1c-3.37,0-6.11-2.74-6.11-6.11v-32.62c0-3.37,2.74-6.11,6.11-6.11h1c3.37,0,6.11,2.74,6.11,6.11v32.62c0,3.37-2.74,6.11-6.11,6.11Zm-1-41.3c-1.41,0-2.56,1.15-2.56,2.56v32.62c0,1.41,1.15,2.56,2.56,2.56h1c1.41,0,2.56-1.15,2.56-2.56v-32.62c0-1.41-1.15-2.56-2.56-2.56h-1Z"/></g><g class="cls-5"><path class="cls-1" d="M300.32,186.89h-.68c-2.27,0-4.12-1.85-4.12-4.12v-3.43c0-2.27,1.85-4.12,4.12-4.12h.68c2.27,0,4.12,1.85,4.12,4.12v3.43c0,2.27-1.85,4.12-4.12,4.12Z"/><path class="cls-1" d="M310.97,186.89h-.68c-2.27,0-4.12-1.85-4.12-4.12v-12.7c0-2.27,1.85-4.12,4.12-4.12h.68c2.27,0,4.12,1.85,4.12,4.12v12.7c0,2.27-1.85,4.12-4.12,4.12Z"/><path class="cls-1" d="M321.62,186.89h-.68c-2.27,0-4.12-1.85-4.12-4.12v-21.98c0-2.27,1.85-4.12,4.12-4.12h.68c2.27,0,4.12,1.85,4.12,4.12v21.98c0,2.27-1.85,4.12-4.12,4.12Z"/></g><g class="cls-5"><path class="cls-1" d="M300.32,35.59h-.68c-2.27,0-4.12-1.85-4.12-4.12v-3.43c0-2.27,1.85-4.12,4.12-4.12h.68c2.27,0,4.12,1.85,4.12,4.12v3.43c0,2.27-1.85,4.12-4.12,4.12Z"/><path class="cls-1" d="M310.97,35.59h-.68c-2.27,0-4.12-1.85-4.12-4.12v-12.7c0-2.27,1.85-4.12,4.12-4.12h.68c2.27,0,4.12,1.85,4.12,4.12v12.7c0,2.27-1.85,4.12-4.12,4.12Zm-.68-18.55c-.95,0-1.73,.78-1.73,1.73v12.7c0,.95,.77,1.73,1.73,1.73h.68c.95,0,1.73-.78,1.73-1.73v-12.7c0-.95-.77-1.73-1.73-1.73h-.68Z"/><path class="cls-1" d="M321.62,35.59h-.68c-2.27,0-4.12-1.85-4.12-4.12V9.5c0-2.27,1.85-4.12,4.12-4.12h.68c2.27,0,4.12,1.85,4.12,4.12V31.48c0,2.27-1.85,4.12-4.12,4.12Zm-.68-27.82c-.95,0-1.73,.78-1.73,1.73V31.48c0,.95,.77,1.73,1.73,1.73h.68c.95,0,1.73-.78,1.73-1.73V9.5c0-.95-.77-1.73-1.73-1.73h-.68Z"/></g><g><path class="cls-1" d="M65.18,154.59c-2.68-10.59-12.14-18.06-23.01-18.15-1.21,0-2.16,.32-2.82,1.01-.69,.66-1.01,1.61-1.01,2.82v8.89c0,.26,0,.55,.03,.81,.12,.95,.66,1.81,1.47,2.36,.81,.55,1.81,.75,2.73,.52,1.64-.4,2.68-1.78,2.68-3.57v-5.49c9.03,1.81,15.07,10.67,13.52,19.79-.81,4.72-3.45,8.8-7.45,11.45-3.97,2.65-8.74,3.51-13.4,2.44-5.61-1.29-10.04-5.12-12.17-10.5-2.1-5.38-1.47-11.19,1.78-15.96,1.5-2.21,3.42-4,5.9-5.41,.83-.49,1.41-1.21,1.64-2.1,.23-.89,.12-1.81-.37-2.65-.98-1.64-3.05-2.19-4.75-1.24-.55,.32-1.12,.66-1.64,1.01-5.61,3.83-9.09,9.18-10.3,15.88-.12,.6-.17,1.21-.26,1.81l-.12,.95v2.85l.12,.83c.09,.63,.14,1.24,.26,1.87,1.55,8,6.01,13.89,13.26,17.55,2.65,1.32,5.58,2.13,8.8,2.36l.37,.06h2.85l.89-.12c.66-.09,1.35-.17,2.01-.29,6.64-1.24,12.31-5.06,15.96-10.73,3.65-5.7,4.72-12.45,3.05-19.01l-.03-.03Z"/><path class="cls-1" d="M32.48,153.35c-.35,.35-.83,1.06-.29,2.36,1.18,2.79,2.59,5.44,4.2,7.91,.83,1.27,1.67,2.36,2.53,3.31,.92,1.01,2.24,1.55,3.6,1.55,.69,0,1.41-.14,2.1-.43,1.84-.78,2.99-2.62,2.99-4.8-.03-1.41-.63-2.68-1.67-3.51-1.52-1.24-2.82-2.19-4.08-2.99-2.19-1.41-4.6-2.65-7.19-3.74-1.18-.49-1.9,0-2.21,.35h.03Z"/></g><g><path class="cls-1" d="M52.39,12.88C50.52,5.46,43.88,.21,36.25,.15c-.85,0-1.51,.22-1.98,.71-.48,.46-.71,1.13-.71,1.98v6.24c0,.18,0,.38,.02,.57,.08,.67,.46,1.27,1.03,1.65,.57,.38,1.27,.52,1.92,.36,1.15-.28,1.88-1.25,1.88-2.5v-3.85c6.34,1.27,10.58,7.49,9.49,13.89-.57,3.31-2.42,6.18-5.23,8.03-2.79,1.86-6.14,2.46-9.41,1.72-3.94-.91-7.04-3.59-8.54-7.37-1.47-3.77-1.03-7.85,1.25-11.2,1.05-1.55,2.4-2.81,4.14-3.79,.59-.34,.99-.85,1.15-1.47,.16-.63,.08-1.27-.26-1.86-.69-1.15-2.14-1.53-3.33-.87-.38,.22-.79,.46-1.15,.71-3.94,2.68-6.38,6.44-7.23,11.14-.08,.42-.12,.85-.18,1.27l-.08,.67v2l.08,.59c.06,.44,.1,.87,.18,1.31,1.09,5.61,4.22,9.75,9.3,12.31,1.86,.93,3.92,1.49,6.18,1.65l.26,.04h2l.63-.08c.46-.06,.95-.12,1.41-.2,4.66-.87,8.64-3.55,11.2-7.53,2.56-4,3.31-8.74,2.14-13.34l-.02-.02Z"/><path class="cls-1" d="M29.45,12.01c-.24,.24-.59,.75-.2,1.65,.83,1.96,1.82,3.81,2.95,5.55,.59,.89,1.17,1.65,1.78,2.32,.65,.71,1.57,1.09,2.52,1.09,.48,0,.99-.1,1.47-.3,1.29-.54,2.1-1.84,2.1-3.37-.02-.99-.44-1.88-1.17-2.46-1.07-.87-1.98-1.53-2.87-2.1-1.53-.99-3.23-1.86-5.05-2.62-.83-.34-1.33,0-1.55,.24h.02Z"/></g><g class="cls-5"><path class="cls-1" d="M80.6,77.73c-1.88-7.43-8.52-12.67-16.15-12.74-.85,0-1.51,.22-1.98,.71-.48,.46-.71,1.13-.71,1.98v6.24c0,.18,0,.38,.02,.57,.08,.67,.46,1.27,1.03,1.65,.57,.38,1.27,.52,1.92,.36,1.15-.28,1.88-1.25,1.88-2.5v-3.85c6.34,1.27,10.58,7.49,9.49,13.89-.57,3.31-2.42,6.18-5.23,8.03-2.79,1.86-6.14,2.46-9.41,1.72-3.94-.91-7.04-3.59-8.54-7.37-1.47-3.77-1.03-7.85,1.25-11.2,1.05-1.55,2.4-2.81,4.14-3.79,.59-.34,.99-.85,1.15-1.47,.16-.63,.08-1.27-.26-1.86-.69-1.15-2.14-1.53-3.33-.87-.38,.22-.79,.46-1.15,.71-3.94,2.68-6.38,6.44-7.23,11.14-.08,.42-.12,.85-.18,1.27l-.08,.67v2l.08,.59c.06,.44,.1,.87,.18,1.31,1.09,5.61,4.22,9.75,9.3,12.31,1.86,.93,3.92,1.49,6.18,1.65l.26,.04h2l.63-.08c.46-.06,.95-.12,1.41-.2,4.66-.87,8.64-3.55,11.2-7.53,2.56-4,3.31-8.74,2.14-13.34l-.02-.02Z"/><path class="cls-1" d="M57.66,76.86c-.24,.24-.59,.75-.2,1.65,.83,1.96,1.82,3.81,2.95,5.55,.59,.89,1.17,1.65,1.78,2.32,.65,.71,1.57,1.09,2.52,1.09,.48,0,.99-.1,1.47-.3,1.29-.54,2.1-1.84,2.1-3.37-.02-.99-.44-1.88-1.17-2.46-1.07-.87-1.98-1.53-2.87-2.1-1.53-.99-3.23-1.86-5.05-2.62-.83-.34-1.33,0-1.55,.24h.02Z"/></g><g id="freepik--Books--inject-137"><path class="cls-1" d="M57.05,211.81h87.98v46.17H57.05c-10.06,0-18.21-8.15-18.21-18.21v-9.75c0-10.06,8.15-18.21,18.21-18.21h0Z"/><path class="cls-1" d="M122.03,211.81h185.58c1.67,0,3.02,1.35,3.02,3.02v1.62c0,1.67-1.35,3.02-3.02,3.02H122.03v-7.67h0Z"/><path class="cls-1" d="M122.03,250.32h185.58c1.67,0,3.02,1.35,3.02,3.02v1.62c0,1.67-1.35,3.02-3.02,3.02H122.03v-7.67h0Z"/><path class="cls-3" d="M304.99,250.32H143.08c-8.51,0-15.42-6.9-15.42-15.42h0c0-8.52,6.9-15.43,15.42-15.43h161.91c-4.34,9.82-4.34,21.02,0,30.84Z"/><path class="cls-6" d="M127.66,257.99H57.41c-10.26,0-18.57-8.32-18.57-18.57v-9.17c0-10.18,8.25-18.43,18.43-18.43h72.14c-16.71,10.13-15.46,34.38-1.74,46.18Z"/><path class="cls-1" d="M18.21,290.39h118.55v59.46H18.21c-10.06,0-18.21-8.15-18.21-18.21v-23.03c0-10.06,8.15-18.21,18.21-18.21Z"/><path class="cls-1" d="M107.14,290.39h239.84c1.67,0,3.02,1.35,3.02,3.02v3.83c0,1.67-1.35,3.02-3.02,3.02H107.14v-9.88h0Z"/><path class="cls-1" d="M107.14,339.98h239.84c1.67,0,3.02,1.35,3.02,3.02v3.83c0,1.67-1.35,3.02-3.02,3.02H107.14v-9.87h0Z"/><path class="cls-3" d="M342.76,339.98H134.26c-10.97,0-19.85-8.9-19.85-19.86h0c0-10.96,8.89-19.85,19.85-19.85h208.5c-5.59,12.65-5.59,27.07,0,39.72Z"/><path class="cls-6" d="M114.38,349.84H17.98C8.05,349.84,.01,341.8,.01,331.88H.01v-22.86c0-10.26,8.32-18.57,18.57-18.57H116.61c-21.49,12.98-19.88,44.22-2.23,59.39Z"/><path class="cls-2" d="M74.59,256.56h97.68v34.05H74.59c-7.41,0-13.41-6.01-13.41-13.41v-7.22c0-7.41,6.01-13.41,13.41-13.41h0Z"/><path class="cls-2" d="M148.21,256.56h194.16c1.75,0,3.17,1.42,3.17,3.17h0v1.69c0,1.75-1.42,3.17-3.17,3.17H148.21v-8.02h0Z"/><path class="cls-2" d="M148.21,282.59h194.16c1.75,0,3.17,1.42,3.17,3.17h0v1.69c0,1.75-1.42,3.17-3.17,3.17H148.21v-8.02h0Z"/><path class="cls-3" d="M339.6,282.59H163.15c-4.97,0-9-4.03-9.01-9h0c0-4.98,4.03-9.01,9.01-9.01h176.45c-4.51,6.01-4.51,12.01,0,18.01Z"/><path class="cls-6" d="M154.09,290.6H74.64c-7.46,0-13.51-6.05-13.51-13.51h0v-6.74c0-7.61,6.16-13.79,13.78-13.8h81.02c-17.49,7.47-16.18,25.35-1.84,34.04Z"/><path class="cls-4" d="M145.61,287.22c0,.15-16.27,.28-36.35,.28s-36.35-.12-36.35-.28,16.27-.28,36.35-.28,36.35,.12,36.35,.28Z"/><path class="cls-4" d="M145.61,260.58c0,.15-16.27,.27-36.35,.27s-36.35-.11-36.35-.27,16.27-.28,36.35-.28,36.35,.12,36.35,.28Z"/><path class="cls-1" d="M343.21,256.56c0,.15-59.71,.28-133.35,.28s-133.39-.12-133.39-.28,59.69-.28,133.36-.28,133.38,.11,133.38,.28Z"/></g></svg>